<svg width="180" height="52" viewBox="0 0 180 52" fill="none" xmlns="http://www.w3.org/2000/svg">
<g clip-path="url(#clip0_1178_2795)">
<rect width="180" height="52" fill="#D9315A"/>
<path d="M156.3 20.5395C160.789 19.7433 170.932 14.3689 172.969 24.2702C173.547 27.0811 171.93 28.6637 170.293 30.9348C168.318 33.676 164.936 35.5595 163.386 36.2193C160.409 37.4868 157.401 37.4974 154.433 35.8946C152.042 34.6037 149.929 32.822 150.03 30.0192C150.135 27.0964 151.708 24.1032 156.347 22.99C157.12 22.8045 157.959 22.4605 158.379 22.7382M169.155 22.3603C168.864 22.7202 167.754 23.0698 166.927 23.6292C165.39 24.6686 164.283 25.0294 162.968 26.356C161.904 27.4293 161.383 30.0074 159.319 31.2316C158.502 31.7158 153.937 30.7034 153.011 30.8547M152.129 15.8578C148.629 18.7942 142.506 28.5178 135.796 20.9849C133.891 18.8464 134.505 16.669 134.793 13.8873C135.14 10.5298 137.136 7.2085 138.152 5.86235C140.104 3.27624 142.711 1.75988 146.087 1.65771C148.807 1.57541 151.531 2.05621 152.842 4.52785C154.209 7.10534 154.338 10.479 150.866 13.7643C150.287 14.3119 149.73 15.0294 149.227 14.9998M140.06 20.7243C140.133 20.2678 140.922 19.4096 141.361 18.512C142.177 16.8442 142.958 15.9781 143.438 14.1733C143.826 12.713 142.991 10.2251 144.173 8.1334C144.64 7.30597 149.109 5.89378 149.837 5.29916M191.015 33.4951C191.774 37.9916 197.057 48.1501 187.157 50.1969C184.347 50.778 182.78 49.1585 180.526 47.5203C177.806 45.5429 175.953 42.1559 175.307 40.6039C174.066 37.6223 174.08 34.608 175.704 31.6335C177.012 29.2378 178.807 27.12 181.604 27.2191C184.52 27.3226 187.495 28.8967 188.569 33.5433C188.748 34.3178 189.085 35.1583 188.804 35.579M189.094 46.3749C188.737 46.0837 188.397 44.9716 187.846 44.1433C186.821 42.6041 186.469 41.4954 185.156 40.1786C184.093 39.1133 181.524 38.5932 180.319 36.5256C179.842 35.7076 180.889 31.1335 180.746 30.2058M166.731 -4.02144C171.268 -3.62754 182.442 -6.19472 181.849 3.90848C181.681 6.77669 179.712 7.88776 177.546 9.65963C174.932 11.7983 171.182 12.7428 169.517 12.9791C166.317 13.4329 163.412 12.663 160.962 10.3434C158.989 8.47518 157.411 6.2043 158.233 3.51997C159.089 0.720788 161.38 -1.76594 166.143 -1.63962C166.937 -1.61859 167.835 -1.73359 168.169 -1.35621M178.663 1.07263C178.29 1.34518 177.128 1.39542 176.186 1.72188C174.434 2.32852 173.273 2.39039 171.661 3.33228C170.358 4.09434 169.189 6.45245 166.881 7.10096C165.968 7.35744 161.825 5.19467 160.893 5.10087M194.079 25.4045C189.804 23.8473 178.36 23.4323 181.542 13.8157C182.445 11.0857 184.632 10.5219 187.179 9.36995C190.254 7.97961 194.115 8.03844 195.783 8.24181C198.987 8.63256 201.592 10.1305 203.356 13.0088C204.777 15.3271 205.712 17.9323 204.227 20.3153C202.677 22.8001 199.824 24.6109 195.262 23.2537C194.501 23.0275 193.605 22.9057 193.38 22.4543M183.883 17.3843C184.314 17.2176 185.447 17.4702 186.441 17.3989C188.288 17.2664 189.424 17.5076 191.222 17.0147C192.677 16.6158 194.413 14.6384 196.808 14.6097C197.755 14.5985 201.193 17.7642 202.069 18.0967M167.495 42.7358C171.218 45.3502 182.152 48.719 176.598 57.1937C175.021 59.5995 172.765 59.5776 170.01 60.0311C166.684 60.5784 162.974 59.5202 161.417 58.891C158.427 57.6823 156.301 55.5584 155.343 52.3176C154.571 49.7073 154.341 46.9452 156.39 45.026C158.527 43.0248 161.747 42.0135 165.799 44.5091C166.474 44.925 167.308 45.2752 167.407 45.7698M175.26 53.1355C174.802 53.185 173.773 52.6468 172.796 52.4581C170.98 52.1074 169.947 51.5795 168.084 51.59C166.578 51.5984 164.391 53.0604 162.074 52.4673C161.157 52.2326 158.658 48.2796 157.899 47.731M144.038 33.0661C145.949 37.2006 153.713 45.6026 144.685 50.178C142.122 51.4769 140.185 50.3279 137.578 49.3414C134.432 48.1507 131.755 45.3733 130.725 44.0474C128.745 41.5 127.968 38.5911 128.758 35.2974C129.394 32.6445 130.574 30.1313 133.302 29.4916C136.146 28.8246 139.433 29.5595 141.687 33.7558C142.063 34.4552 142.608 35.1768 142.447 35.6561M145.556 45.985C145.135 45.7982 144.515 44.8157 143.765 44.1624C142.371 42.9484 141.742 41.9721 140.128 41.0483C138.822 40.3009 136.204 40.4751 134.498 38.7992C133.823 38.1361 133.637 33.4522 133.255 32.5958" stroke="#E15A7B" stroke-width="2" stroke-linecap="round"/>
</g>
<defs>
<clipPath id="clip0_1178_2795">
<rect width="180" height="52" fill="white"/>
</clipPath>
</defs>
</svg>
