<svg width="11" height="9" viewBox="0 0 11 9" fill="none" xmlns="http://www.w3.org/2000/svg">
<path d="M6.94235 0.154877C6.75175 -0.044934 6.43526 -0.0523977 6.23544 0.138207C6.03563 0.328811 6.02817 0.645306 6.21877 0.845117L6.58056 0.499997L6.94235 0.154877ZM6.64959 0.572355L7.09419 0.343598L7.06118 0.279442L7.01138 0.227235L6.64959 0.572355ZM7.19966 1.3091L7.48883 0.901197L7.19966 1.3091ZM7.21993 1.32346L6.93076 1.73136L7.21993 1.32346ZM7.24019 1.33782L6.95102 1.74572L7.24019 1.33782ZM7.73081 1.76774L7.36397 2.10749L7.73081 1.76774ZM7.74747 1.78573L8.11431 1.44598L7.74747 1.78573ZM7.76414 1.80373L7.3973 2.14347L7.76414 1.80373ZM8.21242 2.27641L7.85373 2.62475L8.21242 2.27641ZM8.24658 2.31158L8.60527 1.96325L8.24658 2.31158ZM8.7516 2.7262L9.02431 2.30712L8.7516 2.7262ZM8.77253 2.73982L9.04524 2.32074L8.77253 2.73982ZM8.79347 2.75345L8.52076 3.17253L8.79347 2.75345ZM9.28139 3.18374L8.89881 3.50566L9.28139 3.18374ZM9.29717 3.2025L9.67975 2.88058L9.29717 3.2025ZM9.31296 3.22127L8.93038 3.54319L9.31296 3.22127ZM9.70581 3.75878L10.1279 3.49069L9.70581 3.75878ZM9.73337 3.80217L10.1554 3.53408L9.73337 3.80217ZM9.9932 4.14022L10.2655 3.72086L9.9932 4.14022ZM9.85975 3.94288L9.48267 4.27122L9.85975 3.94288ZM9.82637 3.90454L10.2035 3.5762L9.82637 3.90454ZM9.2793 3.54246L9.12254 4.01725L9.2793 3.54246ZM9.25481 3.53438L9.41157 3.05959L9.25481 3.53438ZM9.23033 3.52629L9.07356 4.00108L9.23033 3.52629ZM8.69093 3.16754L9.07157 2.84333L8.69093 3.16754ZM8.6587 3.1297L9.03934 2.80549L8.6587 3.1297ZM8.21363 2.65004L8.56513 2.29444L8.21363 2.65004ZM8.19625 2.63286L7.84476 2.98846L8.19625 2.63286ZM8.17886 2.61567L8.53035 2.26007L8.17886 2.61567ZM7.70759 2.16568L7.36856 2.53318L7.70759 2.16568ZM7.68951 2.14899L8.02855 1.7815L7.68951 2.14899ZM7.67142 2.13231L8.01046 1.76481L7.67142 2.13231ZM7.1827 1.69456L7.51083 1.31729L7.1827 1.69456ZM7.14531 1.66204L6.81718 2.03931L7.14531 1.66204ZM6.73295 1.1579L6.29838 1.40518L6.73295 1.1579ZM6.72061 1.13622L6.28604 1.3835L6.72061 1.13622ZM6.70827 1.11453L7.14284 0.86725V0.86725L6.70827 1.11453ZM6.45576 0.689036L6.87601 0.418128L6.45576 0.689036ZM6.44909 0.678692L6.02884 0.9496L6.44909 0.678692ZM6.44243 0.668348L6.86267 0.39744L6.44243 0.668348ZM6.50847 0.831335L6.95303 0.602507L6.50847 0.831335ZM6.53174 0.876559L6.97631 0.64773L6.53174 0.876559ZM6.93409 1.39279L7.26253 1.01579L6.93409 1.39279ZM6.97139 1.42527L6.64294 1.80227L6.97139 1.42527ZM7.47824 1.84187L7.78447 1.44662L7.47824 1.84187ZM7.49774 1.85698L7.1915 2.25222L7.49774 1.85698ZM7.51725 1.87209L7.21101 2.26733L7.51725 1.87209ZM8.06436 2.23873L7.81482 2.67201V2.67201L8.06436 2.23873ZM8.10771 2.2637L8.35726 1.83043V1.83043L8.10771 2.2637ZM8.58479 2.70834L8.171 2.98901L8.58479 2.70834ZM8.59902 2.72932L8.18523 3.00999L8.59902 2.72932ZM8.61326 2.7503L9.02704 2.46963L8.61326 2.7503ZM9.0686 3.21817L9.35812 2.81053L9.0686 3.21817ZM9.67256 3.58818L9.9005 3.14316L9.67256 3.58818ZM9.71737 3.61113L9.48943 4.05616L9.71737 3.61113ZM10.1838 3.96257L9.80249 4.286L10.1838 3.96257ZM10.1965 3.97755L10.5778 3.65412L10.1965 3.97755ZM10.2092 3.99253L9.8279 4.31596L10.2092 3.99253ZM10.3419 4.44035L9.84706 4.36852L10.3419 4.44035ZM10.3392 4.45908L10.834 4.53091L10.3392 4.45908ZM10.3364 4.47781L9.84162 4.40598L10.3364 4.47781ZM10.0601 4.94214L9.7262 4.56996L10.0601 4.94214ZM10.042 4.95836L10.3759 5.33054L10.042 4.95836ZM10.0239 4.97458L9.69004 4.6024L10.0239 4.97458ZM9.50065 5.35737L9.24626 4.92692L9.50065 5.35737ZM9.45804 5.38255L9.71242 5.813L9.45804 5.38255ZM8.96457 5.80842L9.3524 6.124L8.96457 5.80842ZM8.93289 5.84735L8.54506 5.53177L8.93289 5.84735ZM8.54859 6.38346L8.97228 6.64895L8.54859 6.38346ZM8.52241 6.42523L8.09872 6.15974L8.52241 6.42523ZM8.12955 6.94526L7.75844 6.61019L8.12955 6.94526ZM8.11307 6.96352L8.48418 7.29859L8.11307 6.96352ZM8.09659 6.98177L7.72547 6.6467L8.09659 6.98177ZM7.66404 7.47007L8.04146 7.79803L7.66404 7.47007ZM7.64797 7.48857L7.27055 7.16061L7.64797 7.48857ZM7.63189 7.50707L8.00931 7.83503L7.63189 7.50707ZM7.16719 7.96127L6.84787 7.57653L7.16719 7.96127ZM7.14829 7.97696L7.46762 8.36171L7.14829 7.97696ZM7.12939 7.99265L6.81007 7.6079L7.12939 7.99265ZM6.90338 8.16362L6.48807 7.88519L6.90338 8.16362ZM6.90527 8.16081L7.32057 8.43924L6.90527 8.16081ZM6.90716 8.15799L6.49185 7.87955L6.90716 8.15799ZM7.09474 7.82205L6.65558 7.58301L7.09474 7.82205ZM7.1192 7.77712L7.55835 8.01617L7.1192 7.77712ZM7.5323 7.26918L7.21166 6.88552L7.5323 7.26918ZM7.55116 7.25341L7.8718 7.63707L7.55116 7.25341ZM7.57002 7.23764L7.24938 6.85399L7.57002 7.23764ZM8.07776 6.8292L8.38378 7.22461L8.07776 6.8292ZM8.09711 6.81422L7.79109 6.41881L8.09711 6.81422ZM8.11646 6.79925L8.42249 7.19466L8.11646 6.79925ZM8.57575 6.34634L8.96691 6.65779L8.57575 6.34634ZM8.60619 6.30812L8.21503 5.99667L8.60619 6.30812ZM9.00612 5.80247L8.61293 5.49359V5.49359L9.00612 5.80247ZM9.021 5.78352L9.41418 6.0924V6.0924L9.021 5.78352ZM9.03589 5.76458L8.6427 5.4557L9.03589 5.76458ZM9.4461 5.26258L9.82727 5.58617L9.4461 5.26258ZM9.46209 5.24375L9.08092 4.92016L9.46209 5.24375ZM9.47808 5.22491L9.85925 5.5485L9.47808 5.22491ZM9.94558 4.76251L9.62583 4.37811L9.94558 4.76251ZM9.96477 4.74654L10.2845 5.13094L9.96477 4.74654ZM9.98397 4.73057L9.66422 4.34617L9.98397 4.73057ZM10.1923 4.41761L9.73865 4.62791L10.1923 4.41761ZM10.1888 4.41003L9.73513 4.62032L10.1888 4.41003ZM10.1852 4.40244L10.6389 4.19214L10.1852 4.40244ZM9.8169 4.27636L9.77773 4.77482L9.8169 4.27636ZM9.79269 4.27445L9.83185 3.77599L9.79269 4.27445ZM9.76848 4.27255L9.72932 4.77102L9.76848 4.27255ZM9.12661 4.14414L9.27987 3.66821L9.12661 4.14414ZM9.07839 4.12862L8.92513 4.60455L9.07839 4.12862ZM8.43193 4.03146L8.42277 3.53154L8.43193 4.03146ZM8.40738 4.03191L8.41654 4.53182L8.40738 4.03191ZM8.38283 4.03236L8.37367 3.53244L8.38283 4.03236ZM7.70532 4.1265L7.58362 3.64154L7.70532 4.1265ZM7.68073 4.13267L7.80243 4.61763L7.68073 4.13267ZM7.02887 4.16801L6.95786 4.66294L7.02887 4.16801ZM6.97993 4.16099L7.05094 3.66606L6.97993 4.16099ZM6.32928 4.10425L6.34476 3.60449L6.32928 4.10425ZM6.30478 4.10349L6.28929 4.60325L6.30478 4.10349ZM6.28027 4.10273L6.29576 3.60297L6.28027 4.10273ZM5.62937 4.14479L5.55026 3.65108L5.62937 4.14479ZM5.58039 4.15263L5.6595 4.64634L5.58039 4.15263ZM4.92892 4.09292L5.09115 3.61997L4.92892 4.09292ZM4.90438 4.0845L4.74215 4.55745L4.90438 4.0845ZM4.87983 4.07608L5.04206 3.60313L4.87983 4.07608ZM4.22867 4.04779L4.10419 3.56353L4.22867 4.04779ZM4.2042 4.05408L4.07972 3.56982L4.2042 4.05408ZM4.17973 4.06037L4.30421 4.54463L4.17973 4.06037ZM3.52859 4.07535L3.42568 4.56465L3.52859 4.07535ZM3.50405 4.07019L3.60696 3.58089L3.50405 4.07019ZM3.4795 4.06503L3.37659 4.55432L3.4795 4.06503ZM2.82831 4.08926L2.96557 4.57006L2.82831 4.08926ZM2.80384 4.09625L2.66659 3.61546L2.80384 4.09625ZM2.77937 4.10324L2.91662 4.58403L2.77937 4.10324ZM2.12828 4.15662L2.06824 4.653L2.12828 4.15662ZM2.10375 4.15365L2.16379 3.65727L2.10375 4.15365ZM2.07921 4.15069L2.01917 4.64707L2.07921 4.15069ZM1.42819 4.03099L1.30833 4.51642L1.42819 4.03099ZM1.37926 4.01891L1.49911 3.53349L1.37926 4.01891ZM0.796081 4.07091L0.56807 3.62592L0.796081 4.07091ZM0.757225 4.09081L0.985236 4.5358L0.757225 4.09081ZM0.500532 4.14954L0.206921 3.74483L0.00543179 3.891L0.000625675 4.13988L0.500532 4.14954ZM0.601952 4.07596L0.895564 4.48067L2.14356 3.57528L0.601731 3.57596L0.601952 4.07596ZM0.501731 3.576C0.225588 3.57613 0.00182999 3.80008 0.00195255 4.07623C0.00207507 4.35237 0.226032 4.57613 0.502174 4.576L0.501952 4.076L0.501731 3.576ZM6.58056 0.499997L6.21877 0.845117L6.2878 0.917475L6.64959 0.572355L7.01138 0.227235L6.94235 0.154877L6.58056 0.499997ZM6.64959 0.572355L6.20499 0.801113L6.22465 0.839325L6.66925 0.610568L7.11385 0.381811L7.09419 0.343598L6.64959 0.572355ZM6.66925 0.610568L6.22465 0.839325C6.41229 1.20403 6.634 1.52098 6.9105 1.71699L7.19966 1.3091L7.48883 0.901197C7.4064 0.842758 7.27449 0.694024 7.11385 0.381811L6.66925 0.610568ZM7.19966 1.3091L6.9105 1.71699L6.93076 1.73136L7.21993 1.32346L7.5091 0.915561L7.48883 0.901197L7.19966 1.3091ZM7.21993 1.32346L6.93076 1.73136L6.95102 1.74572L7.24019 1.33782L7.52936 0.929926L7.5091 0.915561L7.21993 1.32346ZM7.24019 1.33782L6.95102 1.74572C7.10267 1.85323 7.24012 1.97376 7.36397 2.10749L7.73081 1.76774L8.09764 1.42799C7.92627 1.24295 7.73664 1.07687 7.52936 0.929926L7.24019 1.33782ZM7.73081 1.76774L7.36397 2.10749L7.38063 2.12548L7.74747 1.78573L8.11431 1.44598L8.09764 1.42799L7.73081 1.76774ZM7.74747 1.78573L7.38063 2.12548L7.3973 2.14347L7.76414 1.80373L8.13098 1.46398L8.11431 1.44598L7.74747 1.78573ZM7.76414 1.80373L7.3973 2.14347C7.54759 2.30575 7.69973 2.46617 7.85373 2.62475L8.21242 2.27641L8.57112 1.92808C8.42262 1.77516 8.27591 1.62046 8.13098 1.46398L7.76414 1.80373ZM8.21242 2.27641L7.85373 2.62475L7.8708 2.64233L8.2295 2.294L8.58819 1.94566L8.57112 1.92808L8.21242 2.27641ZM8.2295 2.294L7.8708 2.64233L7.88788 2.65992L8.24658 2.31158L8.60527 1.96325L8.58819 1.94566L8.2295 2.294ZM8.24658 2.31158L7.88788 2.65992C8.06556 2.84288 8.26285 3.0047 8.47889 3.14528L8.7516 2.7262L9.02431 2.30712C8.86948 2.20637 8.73009 2.09177 8.60527 1.96325L8.24658 2.31158ZM8.7516 2.7262L8.47889 3.14528L8.49983 3.15891L8.77253 2.73982L9.04524 2.32074L9.02431 2.30712L8.7516 2.7262ZM8.77253 2.73982L8.49983 3.15891L8.52076 3.17253L8.79347 2.75345L9.06618 2.33436L9.04524 2.32074L8.77253 2.73982ZM8.79347 2.75345L8.52076 3.17253C8.66577 3.26689 8.7912 3.37778 8.89881 3.50566L9.28139 3.18374L9.66397 2.86182C9.49188 2.65731 9.29204 2.48134 9.06618 2.33436L8.79347 2.75345ZM9.28139 3.18374L8.89881 3.50566L8.9146 3.52442L9.29717 3.2025L9.67975 2.88058L9.66397 2.86182L9.28139 3.18374ZM9.29717 3.2025L8.9146 3.52442L8.93038 3.54319L9.31296 3.22127L9.69554 2.89935L9.67975 2.88058L9.29717 3.2025ZM9.31296 3.22127L8.93038 3.54319C9.05522 3.69154 9.17308 3.85263 9.28376 4.02687L9.70581 3.75878L10.1279 3.49069C9.99443 3.28064 9.8504 3.08338 9.69554 2.89935L9.31296 3.22127ZM9.70581 3.75878L9.28376 4.02687L9.29754 4.04857L9.71959 3.78048L10.1416 3.51239L10.1279 3.49069L9.70581 3.75878ZM9.71959 3.78048L9.29754 4.04857L9.31132 4.07026L9.73337 3.80217L10.1554 3.53408L10.1416 3.51239L9.71959 3.78048ZM9.73337 3.80217L9.31132 4.07026C9.37621 4.17241 9.43733 4.2625 9.49344 4.3355C9.53755 4.39289 9.61673 4.49194 9.72093 4.55959L9.9932 4.14022L10.2655 3.72086C10.3004 3.74356 10.3167 3.76243 10.3117 3.75713C10.3098 3.75506 10.3015 3.74589 10.2863 3.72609C10.2558 3.68641 10.2126 3.62408 10.1554 3.53408L9.73337 3.80217ZM9.9932 4.14022L9.72093 4.55959L9.72671 4.56334L9.99898 4.14398L10.2712 3.72461L10.2655 3.72086L9.9932 4.14022ZM9.99898 4.14398L9.72671 4.56334L9.73249 4.56709L10.0048 4.14773L10.277 3.72836L10.2712 3.72461L9.99898 4.14398ZM10.0048 4.14773L9.73249 4.56709C9.74226 4.57344 9.79877 4.61142 9.87632 4.63455C9.90334 4.64261 10.033 4.68189 10.188 4.6277C10.2804 4.59542 10.3714 4.53292 10.437 4.43684C10.4987 4.34641 10.5178 4.25583 10.5229 4.19389C10.5317 4.08391 10.5015 4.00038 10.4933 3.97782C10.4808 3.94356 10.4671 3.91705 10.4591 3.90241C10.4426 3.87241 10.4255 3.84746 10.415 3.83255C10.3743 3.77507 10.3093 3.69782 10.2368 3.61454L9.85975 3.94288L9.48267 4.27122C9.51787 4.31165 9.54544 4.34408 9.5661 4.36916C9.57639 4.38164 9.5843 4.39149 9.59016 4.399C9.59306 4.4027 9.59523 4.40554 9.59676 4.40758C9.59833 4.40967 9.59893 4.41052 9.59878 4.41031C9.59871 4.41021 9.59719 4.40808 9.59473 4.40427C9.59251 4.40082 9.58763 4.3931 9.58163 4.38214C9.57656 4.37287 9.56496 4.35093 9.55384 4.32045C9.54699 4.30166 9.51739 4.22112 9.5261 4.11333C9.53102 4.05249 9.54984 3.9628 9.61108 3.87308C9.67619 3.77769 9.76656 3.71569 9.85806 3.68371C10.0114 3.63013 10.1385 3.66922 10.1622 3.6763C10.2051 3.68909 10.2357 3.70483 10.2474 3.71101C10.2619 3.7187 10.2723 3.72526 10.277 3.72836L10.0048 4.14773ZM9.85975 3.94288L10.2368 3.61454L10.2201 3.59537L9.84306 3.92371L9.46598 4.25206L9.48267 4.27122L9.85975 3.94288ZM9.84306 3.92371L10.2201 3.59537L10.2035 3.5762L9.82637 3.90454L9.44929 4.23289L9.46598 4.25206L9.84306 3.92371ZM9.82637 3.90454L10.2035 3.5762C9.99576 3.33768 9.73689 3.167 9.43606 3.06767L9.2793 3.54246L9.12254 4.01725C9.25546 4.06114 9.36131 4.13184 9.44929 4.23289L9.82637 3.90454ZM9.2793 3.54246L9.43606 3.06767L9.41157 3.05959L9.25481 3.53438L9.09805 4.00917L9.12254 4.01725L9.2793 3.54246ZM9.25481 3.53438L9.41157 3.05959L9.38709 3.0515L9.23033 3.52629L9.07356 4.00108L9.09805 4.00917L9.25481 3.53438ZM9.23033 3.52629L9.38709 3.0515C9.25379 3.00749 9.15257 2.93843 9.07157 2.84333L8.69093 3.16754L8.31028 3.49174C8.51473 3.73177 8.77311 3.90188 9.07356 4.00108L9.23033 3.52629ZM8.69093 3.16754L9.07157 2.84333L9.05546 2.82441L8.67481 3.14862L8.29417 3.47283L8.31028 3.49174L8.69093 3.16754ZM8.67481 3.14862L9.05546 2.82441L9.03934 2.80549L8.6587 3.1297L8.27806 3.45391L8.29417 3.47283L8.67481 3.14862ZM8.6587 3.1297L9.03934 2.80549C8.88751 2.62723 8.72944 2.45685 8.56513 2.29444L8.21363 2.65004L7.86214 3.00564C8.0058 3.14764 8.14445 3.29704 8.27806 3.45391L8.6587 3.1297ZM8.21363 2.65004L8.56513 2.29444L8.54774 2.27725L8.19625 2.63286L7.84476 2.98846L7.86214 3.00564L8.21363 2.65004ZM8.19625 2.63286L8.54774 2.27725L8.53035 2.26007L8.17886 2.61567L7.82737 2.97127L7.84476 2.98846L8.19625 2.63286ZM8.17886 2.61567L8.53035 2.26007C8.37225 2.1038 8.21101 1.94984 8.04663 1.79818L7.70759 2.16568L7.36856 2.53318C7.52455 2.67709 7.67749 2.82313 7.82737 2.97127L8.17886 2.61567ZM7.70759 2.16568L8.04663 1.79818L8.02855 1.7815L7.68951 2.14899L7.35047 2.51649L7.36856 2.53318L7.70759 2.16568ZM7.68951 2.14899L8.02855 1.7815L8.01046 1.76481L7.67142 2.13231L7.33238 2.4998L7.35047 2.51649L7.68951 2.14899ZM7.67142 2.13231L8.01046 1.76481C7.84666 1.61369 7.68011 1.46452 7.51083 1.31729L7.1827 1.69456L6.85458 2.07184C7.01655 2.2127 7.17581 2.35536 7.33238 2.4998L7.67142 2.13231ZM7.1827 1.69456L7.51083 1.31729L7.49213 1.30103L7.16401 1.6783L6.83588 2.05558L6.85458 2.07184L7.1827 1.69456ZM7.16401 1.6783L7.49213 1.30103L7.47343 1.28476L7.14531 1.66204L6.81718 2.03931L6.83588 2.05558L7.16401 1.6783ZM7.14531 1.66204L7.47343 1.28476C7.35065 1.17799 7.24909 1.05397 7.16752 0.910616L6.73295 1.1579L6.29838 1.40518C6.43537 1.64592 6.60871 1.858 6.81718 2.03931L7.14531 1.66204ZM6.73295 1.1579L7.16752 0.910616L7.15518 0.888933L6.72061 1.13622L6.28604 1.3835L6.29838 1.40518L6.73295 1.1579ZM6.72061 1.13622L7.15518 0.888933L7.14284 0.86725L6.70827 1.11453L6.2737 1.36182L6.28604 1.3835L6.72061 1.13622ZM6.70827 1.11453L7.14284 0.86725C7.03262 0.673555 6.94287 0.521851 6.87601 0.418128L6.45576 0.689036L6.03551 0.959943C6.08677 1.03946 6.16536 1.17142 6.2737 1.36182L6.70827 1.11453ZM6.45576 0.689036L6.87601 0.418128L6.86934 0.407784L6.44909 0.678692L6.02884 0.9496L6.03551 0.959943L6.45576 0.689036ZM6.44909 0.678692L6.86934 0.407784L6.86267 0.39744L6.44243 0.668348L6.02218 0.939256L6.02884 0.9496L6.44909 0.678692ZM6.44243 0.668348L6.86267 0.39744C6.85356 0.383302 6.84335 0.367827 6.833 0.353107C6.82937 0.347958 6.80389 0.310687 6.76803 0.274599C6.75757 0.264069 6.7342 0.241275 6.70066 0.217541C6.68465 0.206211 6.58505 0.132971 6.43468 0.125784C6.34246 0.121378 6.22714 0.142215 6.1209 0.217695C6.01922 0.289927 5.96785 0.382412 5.94301 0.447619C5.90024 0.559914 5.91069 0.656353 5.91256 0.675522C5.91838 0.734999 5.93411 0.780871 5.93654 0.788251C5.9421 0.805152 5.94765 0.819302 5.95124 0.828148C5.9726 0.880874 6.01595 0.966996 6.0639 1.06016L6.50847 0.831335L6.95303 0.602507C6.92796 0.553803 6.90882 0.515908 6.89511 0.487997C6.87945 0.456134 6.8761 0.447818 6.87805 0.452615C6.87888 0.45467 6.88231 0.463169 6.88639 0.47556C6.88733 0.478429 6.90221 0.520931 6.90781 0.578177C6.90958 0.59623 6.92008 0.69184 6.87751 0.803589C6.85277 0.868524 6.80154 0.960808 6.70005 1.03291C6.59399 1.10826 6.47889 1.12904 6.38694 1.12464C6.23709 1.11748 6.13817 1.04455 6.123 1.03382C6.09031 1.01068 6.06793 0.988765 6.05863 0.9794C6.03859 0.959232 6.0256 0.942421 6.02291 0.938957C6.01826 0.932977 6.01548 0.929011 6.01516 0.928558C6.0145 0.92762 6.01653 0.930489 6.02218 0.939256L6.44243 0.668348ZM6.50847 0.831335L6.0639 1.06016L6.07554 1.08278L6.5201 0.853947L6.96467 0.625118L6.95303 0.602507L6.50847 0.831335ZM6.5201 0.853947L6.07554 1.08278L6.08718 1.10539L6.53174 0.876559L6.97631 0.64773L6.96467 0.625118L6.5201 0.853947ZM6.53174 0.876559L6.08718 1.10539C6.2184 1.36033 6.3914 1.58313 6.60565 1.76978L6.93409 1.39279L7.26253 1.01579C7.14649 0.914693 7.05126 0.793341 6.97631 0.64773L6.53174 0.876559ZM6.93409 1.39279L6.60565 1.76978L6.6243 1.78603L6.95274 1.40903L7.28118 1.03203L7.26253 1.01579L6.93409 1.39279ZM6.95274 1.40903L6.6243 1.78603L6.64294 1.80227L6.97139 1.42527L7.29983 1.04828L7.28118 1.03203L6.95274 1.40903ZM6.97139 1.42527L6.64294 1.80227C6.8153 1.95243 6.99165 2.09738 7.172 2.23711L7.47824 1.84187L7.78447 1.44662C7.61931 1.31865 7.45776 1.18587 7.29983 1.04828L6.97139 1.42527ZM7.47824 1.84187L7.172 2.23711L7.1915 2.25222L7.49774 1.85698L7.80398 1.46173L7.78447 1.44662L7.47824 1.84187ZM7.49774 1.85698L7.1915 2.25222L7.21101 2.26733L7.51725 1.87209L7.82348 1.47685L7.80398 1.46173L7.49774 1.85698ZM7.51725 1.87209L7.21101 2.26733C7.40202 2.41533 7.60336 2.55022 7.81482 2.67201L8.06436 2.23873L8.31391 1.80546C8.14139 1.70609 7.97798 1.59655 7.82348 1.47685L7.51725 1.87209ZM8.06436 2.23873L7.81482 2.67201L7.83649 2.68449L8.08604 2.25122L8.33558 1.81794L8.31391 1.80546L8.06436 2.23873ZM8.08604 2.25122L7.83649 2.68449L7.85817 2.69698L8.10771 2.2637L8.35726 1.83043L8.33558 1.81794L8.08604 2.25122ZM8.10771 2.2637L7.85817 2.69698C7.98365 2.76925 8.08683 2.86493 8.171 2.98901L8.58479 2.70834L8.99858 2.42766C8.83063 2.18005 8.61576 1.97931 8.35726 1.83043L8.10771 2.2637ZM8.58479 2.70834L8.171 2.98901L8.18523 3.00999L8.59902 2.72932L9.01281 2.44864L8.99858 2.42766L8.58479 2.70834ZM8.59902 2.72932L8.18523 3.00999L8.19947 3.03098L8.61326 2.7503L9.02704 2.46963L9.01281 2.44864L8.59902 2.72932ZM8.61326 2.7503L8.19947 3.03098C8.35796 3.26465 8.55137 3.4641 8.77907 3.62582L9.0686 3.21817L9.35812 2.81053C9.23083 2.72012 9.12067 2.60765 9.02704 2.46963L8.61326 2.7503ZM9.0686 3.21817L8.77907 3.62582L8.79911 3.64005L9.08864 3.23241L9.37816 2.82476L9.35812 2.81053L9.0686 3.21817ZM9.08864 3.23241L8.79911 3.64005L8.81915 3.65429L9.10868 3.24664L9.3982 2.83899L9.37816 2.82476L9.08864 3.23241ZM9.10868 3.24664L8.81915 3.65429C9.01672 3.79461 9.22531 3.92088 9.44463 4.03321L9.67256 3.58818L9.9005 3.14316C9.72296 3.05223 9.55563 2.95081 9.3982 2.83899L9.10868 3.24664ZM9.67256 3.58818L9.44463 4.03321L9.46703 4.04468L9.69496 3.59966L9.9229 3.15464L9.9005 3.14316L9.67256 3.58818ZM9.69496 3.59966L9.46703 4.04468L9.48943 4.05616L9.71737 3.61113L9.9453 3.16611L9.9229 3.15464L9.69496 3.59966ZM9.71737 3.61113L9.48943 4.05616C9.64504 4.13585 9.74273 4.21555 9.80249 4.286L10.1838 3.96257L10.5651 3.63914C10.3998 3.44426 10.1865 3.28967 9.9453 3.16611L9.71737 3.61113ZM10.1838 3.96257L9.80249 4.286L9.81519 4.30098L10.1965 3.97755L10.5778 3.65412L10.5651 3.63914L10.1838 3.96257ZM10.1965 3.97755L9.81519 4.30098L9.8279 4.31596L10.2092 3.99253L10.5905 3.6691L10.5778 3.65412L10.1965 3.97755ZM10.2092 3.99253L9.8279 4.31596C9.8445 4.33553 9.84719 4.34542 9.84736 4.34601C9.84764 4.34695 9.84798 4.34834 9.84814 4.35094C9.84832 4.35366 9.8484 4.35928 9.84706 4.36852L10.3419 4.44035L10.8367 4.51218C10.8822 4.19836 10.7918 3.90643 10.5905 3.6691L10.2092 3.99253ZM10.3419 4.44035L9.84706 4.36852L9.84434 4.38725L10.3392 4.45908L10.834 4.53091L10.8367 4.51218L10.3419 4.44035ZM10.3392 4.45908L9.84434 4.38725L9.84162 4.40598L10.3364 4.47781L10.8312 4.54964L10.834 4.53091L10.3392 4.45908ZM10.3364 4.47781L9.84162 4.40598C9.83866 4.4264 9.8244 4.48187 9.7262 4.56996L10.0601 4.94214L10.394 5.31432C10.6161 5.11507 10.786 4.86098 10.8312 4.54964L10.3364 4.47781ZM10.0601 4.94214L9.7262 4.56996L9.70812 4.58618L10.042 4.95836L10.3759 5.33054L10.394 5.31432L10.0601 4.94214ZM10.042 4.95836L9.70812 4.58618L9.69004 4.6024L10.0239 4.97458L10.3578 5.34677L10.3759 5.33054L10.042 4.95836ZM10.0239 4.97458L9.69004 4.6024C9.55486 4.72367 9.40714 4.83184 9.24626 4.92692L9.50065 5.35737L9.75503 5.78782C9.97156 5.65986 10.1727 5.51284 10.3578 5.34677L10.0239 4.97458ZM9.50065 5.35737L9.24626 4.92692L9.22496 4.93951L9.47934 5.36996L9.73373 5.80041L9.75503 5.78782L9.50065 5.35737ZM9.47934 5.36996L9.22496 4.93951L9.20365 4.9521L9.45804 5.38255L9.71242 5.813L9.73373 5.80041L9.47934 5.36996ZM9.45804 5.38255L9.20365 4.9521C8.9633 5.09414 8.75382 5.27522 8.57674 5.49285L8.96457 5.80842L9.3524 6.124C9.45587 5.99683 9.57537 5.894 9.71242 5.813L9.45804 5.38255ZM8.96457 5.80842L8.57674 5.49285L8.5609 5.51231L8.94873 5.82789L9.33656 6.14346L9.3524 6.124L8.96457 5.80842ZM8.94873 5.82789L8.5609 5.51231L8.54506 5.53177L8.93289 5.84735L9.32072 6.16292L9.33656 6.14346L8.94873 5.82789ZM8.93289 5.84735L8.54506 5.53177C8.39205 5.71982 8.25193 5.91523 8.12489 6.11797L8.54859 6.38346L8.97228 6.64895C9.0771 6.48166 9.19319 6.31966 9.32072 6.16292L8.93289 5.84735ZM8.54859 6.38346L8.12489 6.11797L8.1118 6.13885L8.5355 6.40434L8.95919 6.66983L8.97228 6.64895L8.54859 6.38346ZM8.5355 6.40434L8.1118 6.13885L8.09872 6.15974L8.52241 6.42523L8.9461 6.69072L8.95919 6.66983L8.5355 6.40434ZM8.52241 6.42523L8.09872 6.15974C7.99822 6.32013 7.88485 6.47018 7.75844 6.61019L8.12955 6.94526L8.50066 7.28034C8.6662 7.09699 8.81474 6.90036 8.9461 6.69072L8.52241 6.42523ZM8.12955 6.94526L7.75844 6.61019L7.74196 6.62844L8.11307 6.96352L8.48418 7.29859L8.50066 7.28034L8.12955 6.94526ZM8.11307 6.96352L7.74196 6.62844L7.72547 6.6467L8.09659 6.98177L8.4677 7.31685L8.48418 7.29859L8.11307 6.96352ZM8.09659 6.98177L7.72547 6.6467C7.57738 6.81072 7.4311 6.97585 7.28663 7.14211L7.66404 7.47007L8.04146 7.79803C8.18176 7.63657 8.32384 7.47618 8.4677 7.31685L8.09659 6.98177ZM7.66404 7.47007L7.28663 7.14211L7.27055 7.16061L7.64797 7.48857L8.02538 7.81653L8.04146 7.79803L7.66404 7.47007ZM7.64797 7.48857L7.27055 7.16061L7.25448 7.17911L7.63189 7.50707L8.00931 7.83503L8.02538 7.81653L7.64797 7.48857ZM7.63189 7.50707L7.25448 7.17911C7.12992 7.32245 6.99446 7.45486 6.84787 7.57653L7.16719 7.96127L7.48652 8.34602C7.67476 8.18979 7.84909 8.01941 8.00931 7.83503L7.63189 7.50707ZM7.16719 7.96127L6.84787 7.57653L6.82897 7.59221L7.14829 7.97696L7.46762 8.36171L7.48652 8.34602L7.16719 7.96127ZM7.14829 7.97696L6.82897 7.59221L6.81007 7.6079L7.12939 7.99265L7.44872 8.3774L7.46762 8.36171L7.14829 7.97696ZM7.12939 7.99265L6.81007 7.6079C6.72668 7.67711 6.67355 7.71976 6.64568 7.74084C6.62317 7.75787 6.6383 7.74462 6.66829 7.72823C6.67609 7.72397 6.70651 7.70733 6.74943 7.69341C6.77012 7.6867 6.81557 7.67327 6.8754 7.67005C6.92812 7.66721 7.06026 7.66843 7.19146 7.76186C7.34511 7.87128 7.39426 8.0305 7.40034 8.14101C7.40554 8.23542 7.38234 8.30693 7.37249 8.33466C7.3514 8.39406 7.32366 8.43463 7.31868 8.44206L6.90338 8.16362L6.48807 7.88519C6.481 7.89574 6.45189 7.93878 6.43014 8.00003C6.41997 8.02868 6.39662 8.10095 6.40185 8.19596C6.40797 8.30707 6.45733 8.46672 6.61138 8.57642C6.74297 8.67013 6.87568 8.67148 6.92915 8.6686C6.98974 8.66534 7.03612 8.6517 7.05792 8.64464C7.10306 8.63 7.13642 8.61199 7.14788 8.60573C7.19252 8.58133 7.23382 8.54983 7.24898 8.53836C7.29644 8.50245 7.36469 8.44714 7.44872 8.3774L7.12939 7.99265ZM6.90338 8.16362L7.31868 8.44206L7.32057 8.43924L6.90527 8.16081L6.48996 7.88237L6.48807 7.88519L6.90338 8.16362ZM6.90527 8.16081L7.32057 8.43924L7.32246 8.43642L6.90716 8.15799L6.49185 7.87955L6.48996 7.88237L6.90527 8.16081ZM6.90716 8.15799L7.32246 8.43642C7.35584 8.38663 7.43379 8.24499 7.53389 8.0611L7.09474 7.82205L6.65558 7.58301C6.60174 7.68192 6.56002 7.75784 6.53005 7.81151C6.51501 7.83845 6.50364 7.85851 6.49556 7.87247C6.48509 7.89056 6.48565 7.8888 6.49185 7.87955L6.90716 8.15799ZM7.09474 7.82205L7.53389 8.0611L7.54612 8.03863L7.10697 7.79959L6.66781 7.56054L6.65558 7.58301L7.09474 7.82205ZM7.10697 7.79959L7.54612 8.03863L7.55835 8.01617L7.1192 7.77712L6.68004 7.53807L6.66781 7.56054L7.10697 7.79959ZM7.1192 7.77712L7.55835 8.01617C7.63785 7.87013 7.73605 7.75052 7.85293 7.65283L7.5323 7.26918L7.21166 6.88552C6.99438 7.06711 6.81719 7.28613 6.68004 7.53807L7.1192 7.77712ZM7.5323 7.26918L7.85293 7.65283L7.8718 7.63707L7.55116 7.25341L7.23052 6.86976L7.21166 6.88552L7.5323 7.26918ZM7.55116 7.25341L7.8718 7.63707L7.89066 7.6213L7.57002 7.23764L7.24938 6.85399L7.23052 6.86976L7.55116 7.25341ZM7.57002 7.23764L7.89066 7.6213C8.05297 7.48565 8.21734 7.35343 8.38378 7.22461L8.07776 6.8292L7.77174 6.43379C7.59536 6.57029 7.42124 6.71036 7.24938 6.85399L7.57002 7.23764ZM8.07776 6.8292L8.38378 7.22461L8.40313 7.20964L8.09711 6.81422L7.79109 6.41881L7.77174 6.43379L8.07776 6.8292ZM8.09711 6.81422L8.40313 7.20964L8.42249 7.19466L8.11646 6.79925L7.81044 6.40383L7.79109 6.41881L8.09711 6.81422ZM8.11646 6.79925L8.42249 7.19466C8.62548 7.03756 8.80716 6.85841 8.96691 6.65779L8.57575 6.34634L8.1846 6.0349C8.07478 6.17283 7.95027 6.29561 7.81044 6.40383L8.11646 6.79925ZM8.57575 6.34634L8.96691 6.65779L8.98212 6.63867L8.59097 6.32723L8.19981 6.01578L8.1846 6.0349L8.57575 6.34634ZM8.59097 6.32723L8.98212 6.63867L8.99734 6.61956L8.60619 6.30812L8.21503 5.99667L8.19981 6.01578L8.59097 6.32723ZM8.60619 6.30812L8.99734 6.61956C9.13279 6.44944 9.26678 6.28004 9.3993 6.11135L9.00612 5.80247L8.61293 5.49359C8.48178 5.66054 8.34914 5.82824 8.21503 5.99667L8.60619 6.30812ZM9.00612 5.80247L9.3993 6.11135L9.41418 6.0924L9.021 5.78352L8.62782 5.47464L8.61293 5.49359L9.00612 5.80247ZM9.021 5.78352L9.41418 6.0924L9.42907 6.07345L9.03589 5.76458L8.6427 5.4557L8.62782 5.47464L9.021 5.78352ZM9.03589 5.76458L9.42907 6.07345C9.5569 5.91074 9.68962 5.74831 9.82727 5.58617L9.4461 5.26258L9.06493 4.93899C8.9193 5.11054 8.77855 5.28277 8.6427 5.4557L9.03589 5.76458ZM9.4461 5.26258L9.82727 5.58617L9.84326 5.56734L9.46209 5.24375L9.08092 4.92016L9.06493 4.93899L9.4461 5.26258ZM9.46209 5.24375L9.84326 5.56734L9.85925 5.5485L9.47808 5.22491L9.09691 4.90132L9.08092 4.92016L9.46209 5.24375ZM9.47808 5.22491L9.85925 5.5485C9.98201 5.40389 10.1173 5.27007 10.2653 5.1469L9.94558 4.76251L9.62583 4.37811C9.43385 4.5378 9.25743 4.71224 9.09691 4.90132L9.47808 5.22491ZM9.94558 4.76251L10.2653 5.1469L10.2845 5.13094L9.96477 4.74654L9.64503 4.36214L9.62583 4.37811L9.94558 4.76251ZM9.96477 4.74654L10.2845 5.13094L10.3037 5.11497L9.98397 4.73057L9.66422 4.34617L9.64503 4.36214L9.96477 4.74654ZM9.98397 4.73057L10.3037 5.11497C10.4021 5.0331 10.5053 4.93521 10.5798 4.8233C10.6429 4.7285 10.7746 4.48496 10.6459 4.20732L10.1923 4.41761L9.73865 4.62791C9.69202 4.52734 9.69424 4.43125 9.70878 4.36608C9.72178 4.30784 9.74398 4.27426 9.74733 4.26922C9.75239 4.26163 9.73582 4.28662 9.66422 4.34617L9.98397 4.73057ZM10.1923 4.41761L10.6459 4.20732L10.6424 4.19973L10.1888 4.41003L9.73513 4.62032L9.73865 4.62791L10.1923 4.41761ZM10.1888 4.41003L10.6424 4.19973L10.6389 4.19214L10.1852 4.40244L9.73161 4.61273L9.73513 4.62032L10.1888 4.41003ZM10.1852 4.40244L10.6389 4.19214C10.5354 3.96904 10.3318 3.88173 10.2317 3.84746C10.1132 3.8069 9.98157 3.78775 9.85606 3.77789L9.8169 4.27636L9.77773 4.77482C9.81942 4.77809 9.85121 4.78219 9.87452 4.78626C9.8985 4.79045 9.90829 4.79371 9.90786 4.79356C9.90725 4.79336 9.90215 4.79159 9.89376 4.78754C9.88547 4.78352 9.87188 4.77626 9.85533 4.76452C9.82265 4.74133 9.76917 4.69376 9.73161 4.61273L10.1852 4.40244ZM9.8169 4.27636L9.85606 3.77789L9.83185 3.77599L9.79269 4.27445L9.75353 4.77292L9.77773 4.77482L9.8169 4.27636ZM9.79269 4.27445L9.83185 3.77599L9.80765 3.77409L9.76848 4.27255L9.72932 4.77102L9.75353 4.77292L9.79269 4.27445ZM9.76848 4.27255L9.80765 3.77409C9.63366 3.76042 9.45795 3.72556 9.27987 3.66821L9.12661 4.14414L8.97334 4.62007C9.22229 4.70025 9.4745 4.751 9.72932 4.77102L9.76848 4.27255ZM9.12661 4.14414L9.27987 3.66821L9.25577 3.66045L9.1025 4.13638L8.94923 4.61231L8.97334 4.62007L9.12661 4.14414ZM9.1025 4.13638L9.25577 3.66045L9.23166 3.65269L9.07839 4.12862L8.92513 4.60455L8.94923 4.61231L9.1025 4.13638ZM9.07839 4.12862L9.23166 3.65269C8.96736 3.56757 8.69705 3.52651 8.42277 3.53154L8.43193 4.03146L8.4411 4.53137C8.60174 4.52843 8.7624 4.55214 8.92513 4.60455L9.07839 4.12862ZM8.43193 4.03146L8.42277 3.53154L8.39822 3.53199L8.40738 4.03191L8.41654 4.53182L8.4411 4.53137L8.43193 4.03146ZM8.40738 4.03191L8.39822 3.53199L8.37367 3.53244L8.38283 4.03236L8.39199 4.53227L8.41654 4.53182L8.40738 4.03191ZM8.38283 4.03236L8.37367 3.53244C8.11703 3.53715 7.86165 3.57176 7.60821 3.63536L7.72991 4.12033L7.85161 4.60529C8.03381 4.55957 8.21371 4.53554 8.39199 4.53227L8.38283 4.03236ZM7.72991 4.12033L7.60821 3.63536L7.58362 3.64154L7.70532 4.1265L7.82702 4.61146L7.85161 4.60529L7.72991 4.12033ZM7.70532 4.1265L7.58362 3.64154L7.55903 3.64771L7.68073 4.13267L7.80243 4.61763L7.82702 4.61146L7.70532 4.1265ZM7.68073 4.13267L7.55903 3.64771C7.40254 3.68698 7.2507 3.69472 7.09989 3.67308L7.02887 4.16801L6.95786 4.66294C7.24054 4.7035 7.52327 4.68769 7.80243 4.61763L7.68073 4.13267ZM7.02887 4.16801L7.09989 3.67308L7.07541 3.66957L7.0044 4.1645L6.93338 4.65943L6.95786 4.66294L7.02887 4.16801ZM7.0044 4.1645L7.07541 3.66957L7.05094 3.66606L6.97993 4.16099L6.90891 4.65592L6.93338 4.65943L7.0044 4.1645ZM6.97993 4.16099L7.05094 3.66606C6.81594 3.63234 6.58052 3.6118 6.34476 3.60449L6.32928 4.10425L6.31379 4.60401C6.51206 4.61015 6.71041 4.62744 6.90891 4.65592L6.97993 4.16099ZM6.32928 4.10425L6.34476 3.60449L6.32026 3.60373L6.30478 4.10349L6.28929 4.60325L6.31379 4.60401L6.32928 4.10425ZM6.30478 4.10349L6.32026 3.60373L6.29576 3.60297L6.28027 4.10273L6.26479 4.60249L6.28929 4.60325L6.30478 4.10349ZM6.28027 4.10273L6.29576 3.60297C6.04672 3.59526 5.79808 3.61137 5.55026 3.65108L5.62937 4.14479L5.70848 4.63849C5.89451 4.60868 6.0798 4.59676 6.26479 4.60249L6.28027 4.10273ZM5.62937 4.14479L5.55026 3.65108L5.52577 3.65501L5.60488 4.14871L5.68399 4.64241L5.70848 4.63849L5.62937 4.14479ZM5.60488 4.14871L5.52577 3.65501L5.50128 3.65893L5.58039 4.15263L5.6595 4.64634L5.68399 4.64241L5.60488 4.14871ZM5.58039 4.15263L5.50128 3.65893C5.36907 3.68012 5.23471 3.66921 5.09115 3.61997L4.92892 4.09292L4.76669 4.56587C5.05791 4.66576 5.35787 4.69467 5.6595 4.64634L5.58039 4.15263ZM4.92892 4.09292L5.09115 3.61997L5.06661 3.61155L4.90438 4.0845L4.74215 4.55745L4.76669 4.56587L4.92892 4.09292ZM4.90438 4.0845L5.06661 3.61155L5.04206 3.60313L4.87983 4.07608L4.7176 4.54903L4.74215 4.55745L4.90438 4.0845ZM4.87983 4.07608L5.04206 3.60313C4.73491 3.49777 4.41821 3.48281 4.10419 3.56353L4.22867 4.04779L4.35315 4.53205C4.47257 4.50135 4.58997 4.50525 4.7176 4.54903L4.87983 4.07608ZM4.22867 4.04779L4.10419 3.56353L4.07972 3.56982L4.2042 4.05408L4.32868 4.53834L4.35315 4.53205L4.22867 4.04779ZM4.2042 4.05408L4.07972 3.56982L4.05525 3.57611L4.17973 4.06037L4.30421 4.54463L4.32868 4.53834L4.2042 4.05408ZM4.17973 4.06037L4.05525 3.57611C3.91237 3.61284 3.77313 3.61584 3.6315 3.58606L3.52859 4.07535L3.42568 4.56465C3.7188 4.6263 4.01366 4.61931 4.30421 4.54463L4.17973 4.06037ZM3.52859 4.07535L3.6315 3.58606L3.60696 3.58089L3.50405 4.07019L3.40114 4.55948L3.42568 4.56465L3.52859 4.07535ZM3.50405 4.07019L3.60696 3.58089L3.58242 3.57573L3.4795 4.06503L3.37659 4.55432L3.40114 4.55948L3.50405 4.07019ZM3.4795 4.06503L3.58242 3.57573C3.28427 3.51302 2.98478 3.52462 2.69106 3.60847L2.82831 4.08926L2.96557 4.57006C3.10535 4.53015 3.23999 4.52559 3.37659 4.55432L3.4795 4.06503ZM2.82831 4.08926L2.69106 3.60847L2.66659 3.61546L2.80384 4.09625L2.94109 4.57704L2.96557 4.57006L2.82831 4.08926ZM2.80384 4.09625L2.66659 3.61546L2.64212 3.62244L2.77937 4.10324L2.91662 4.58403L2.94109 4.57704L2.80384 4.09625ZM2.77937 4.10324L2.64212 3.62244C2.48748 3.66659 2.3375 3.67828 2.18832 3.66024L2.12828 4.15662L2.06824 4.653C2.35368 4.68753 2.63775 4.66364 2.91662 4.58403L2.77937 4.10324ZM2.12828 4.15662L2.18832 3.66024L2.16379 3.65727L2.10375 4.15365L2.0437 4.65004L2.06824 4.653L2.12828 4.15662ZM2.10375 4.15365L2.16379 3.65727L2.13926 3.6543L2.07921 4.15069L2.01917 4.64707L2.0437 4.65004L2.10375 4.15365ZM2.07921 4.15069L2.13926 3.6543C1.94248 3.6305 1.74545 3.59431 1.54805 3.54557L1.42819 4.03099L1.30833 4.51642C1.54435 4.57469 1.78133 4.6183 2.01917 4.64707L2.07921 4.15069ZM1.42819 4.03099L1.54805 3.54557L1.52358 3.53953L1.40372 4.02495L1.28386 4.51037L1.30833 4.51642L1.42819 4.03099ZM1.40372 4.02495L1.52358 3.53953L1.49911 3.53349L1.37926 4.01891L1.2594 4.50433L1.28386 4.51037L1.40372 4.02495ZM1.37926 4.01891L1.49911 3.53349C1.18455 3.45582 0.863801 3.47439 0.56807 3.62592L0.796081 4.07091L1.02409 4.51589C1.07251 4.49108 1.14055 4.47499 1.2594 4.50433L1.37926 4.01891ZM0.796081 4.07091L0.56807 3.62592L0.548642 3.63588L0.776653 4.08086L1.00466 4.52584L1.02409 4.51589L0.796081 4.07091ZM0.776653 4.08086L0.548642 3.63588L0.529214 3.64583L0.757225 4.09081L0.985236 4.5358L1.00466 4.52584L0.776653 4.08086ZM0.757225 4.09081L0.529214 3.64583C0.446783 3.68807 0.426083 3.69197 0.443285 3.68769C0.450931 3.68579 0.471215 3.68111 0.500301 3.67903C0.526509 3.67716 0.583431 3.67552 0.653851 3.69572C0.730126 3.7176 0.832746 3.76906 0.910243 3.87694C0.986472 3.98306 1.00172 4.0928 1.00034 4.16434L0.500433 4.15469L0.000526314 4.14503C-0.00107528 4.22797 0.0166563 4.34702 0.0980703 4.46036C0.180752 4.57546 0.291259 4.63204 0.378124 4.65696C0.522198 4.69828 0.647674 4.66733 0.684656 4.65813C0.787456 4.63256 0.895592 4.58173 0.985236 4.5358L0.757225 4.09081ZM0.500433 4.15469L1.00034 4.16434L1.00044 4.15919L0.500532 4.14954L0.000625675 4.13988L0.000526314 4.14503L0.500433 4.15469ZM0.500532 4.14954L0.794144 4.55425L0.895564 4.48067L0.601952 4.07596L0.308341 3.67125L0.206921 3.74483L0.500532 4.14954ZM0.601952 4.07596L0.601731 3.57596L0.501731 3.576L0.501952 4.076L0.502174 4.576L0.602174 4.57596L0.601952 4.07596Z" fill="#381067"/>
</svg>
