<svg width="89" height="24" viewBox="0 0 89 24" fill="none" xmlns="http://www.w3.org/2000/svg">
<g clip-path="url(#clip0_1444_2110)">
<path fill-rule="evenodd" clip-rule="evenodd" d="M13.943 17.8359H10.105C4.11866 17.8359 8.468 5.70949 13.5079 5.70949H19.5721C20.5438 5.70949 22.2581 5.88041 23.1027 3.58695L24.407 0.0244141H16.0919C11.5891 0.0244141 8.08376 1.537 5.55125 4.07515C1.17614 8.41739 -0.308016 15.2006 0.740342 18.4453C1.73837 21.447 4.45011 23.4232 8.69756 23.4718L11.9979 23.4964H16.0661L17.0636 20.6416C17.8062 18.6162 16.1435 17.8359 13.943 17.8359ZM60.6607 12.81L61.914 8.93017H48.5333C46.3071 8.93017 45.3097 9.51554 44.9261 10.736L43.6721 14.6152H57.0528C59.279 14.6152 60.2764 14.0299 60.6607 12.81ZM41.676 19.6418L40.4227 23.5216H53.8034C56.0038 23.5216 57.0276 22.9362 57.4113 21.7157L58.6646 17.8365H45.2839C43.0835 17.8365 42.0854 18.4219 41.676 19.6418ZM63.783 3.92822L65.037 0.0484141H51.6563C49.4301 0.0484141 48.4321 0.63378 48.0485 1.85427L46.7932 5.73407H60.1739C62.375 5.73407 63.3724 5.14871 63.7818 3.92822M43.5696 4.7091C43.0074 1.09739 40.9868 0.0484141 36.074 0.0484141H27.1187L21.9002 14.6152H25.2006C27.1709 14.6152 28.1683 14.6398 29.2173 11.9559L31.3919 5.70949H34.7181C37.5581 5.70949 36.9185 9.1011 35.4853 12.3949C34.2062 15.2984 31.9806 17.8605 29.294 17.8605H23.7422C21.516 17.8605 20.4928 18.4459 20.0834 19.6664L18.7018 23.5456H22.77L26.7609 23.5216C30.292 23.497 33.183 23.2529 36.5601 20.3495C40.1422 17.2506 44.2859 9.29602 43.5696 4.7091ZM88.5496 0.0244141H80.7974L73.5055 7.41758C72.6609 8.27163 71.7912 9.12568 70.9466 10.1261H70.8699L74.5023 0.0244141H68.1833L59.6639 23.521H65.9829L68.6946 16.1278L71.5089 13.859L73.7351 20.5444C74.4256 22.6189 75.1425 23.5216 76.6776 23.5216H81.5131L76.5493 10.3942L88.5496 0.0244141Z" fill="#1AB148"/>
</g>
<defs>
<clipPath id="clip0_1444_2110">
<rect width="89" height="24" fill="white"/>
</clipPath>
</defs>
</svg>
