<svg width="84" height="84" viewBox="0 0 84 84" fill="none" xmlns="http://www.w3.org/2000/svg">
<rect width="84" height="84" rx="42" fill="#D9315A"/>
<path d="M29.0589 34.1989C27.9273 34.1989 26.9164 34.0189 26.0263 33.6591C25.1409 33.2945 24.4448 32.8021 23.9382 32.1818C23.4363 31.5568 23.1854 30.8513 23.1854 30.0653C23.1854 29.464 23.3298 28.9124 23.6186 28.4105C23.9074 27.9086 24.2981 27.492 24.7905 27.1605C25.2876 26.8243 25.8416 26.6089 26.4524 26.5142V26.4006C25.6522 26.2538 24.9964 25.8821 24.4851 25.2855C23.9785 24.6889 23.7251 23.9905 23.7251 23.1903C23.7251 22.4328 23.9548 21.758 24.4141 21.1662C24.8781 20.5743 25.5102 20.108 26.3104 19.767C27.1153 19.4261 28.0315 19.2557 29.0589 19.2557C30.0864 19.2557 31.0002 19.4261 31.8004 19.767C32.6054 20.108 33.2375 20.5743 33.6967 21.1662C34.1607 21.758 34.3928 22.4328 34.3928 23.1903C34.3928 23.9953 34.1347 24.696 33.6186 25.2926C33.1072 25.8845 32.4562 26.2538 31.6655 26.4006V26.5142C32.2715 26.6089 32.8208 26.8243 33.3132 27.1605C33.8104 27.492 34.2034 27.9086 34.4922 28.4105C34.7857 28.9124 34.9325 29.464 34.9325 30.0653C34.9325 30.8513 34.6792 31.5568 34.1726 32.1818C33.666 32.8021 32.9699 33.2945 32.0845 33.6591C31.2038 34.0189 30.1953 34.1989 29.0589 34.1989ZM29.0589 31.706C29.4898 31.706 29.8686 31.6255 30.1953 31.4645C30.522 31.2988 30.7777 31.0691 30.9624 30.7756C31.1518 30.482 31.2464 30.1506 31.2464 29.7812C31.2464 29.4025 31.1518 29.0663 30.9624 28.7727C30.773 28.4792 30.5125 28.2495 30.1811 28.0838C29.8544 27.9134 29.4804 27.8281 29.0589 27.8281C28.6423 27.8281 28.2682 27.9134 27.9368 28.0838C27.6054 28.2495 27.3449 28.4792 27.1555 28.7727C26.9661 29.0663 26.8714 29.4025 26.8714 29.7812C26.8714 30.1506 26.9638 30.482 27.1484 30.7756C27.3378 31.0644 27.5959 31.2917 27.9226 31.4574C28.254 31.6231 28.6328 31.706 29.0589 31.706ZM29.0589 25.3494C29.4283 25.3494 29.755 25.2737 30.0391 25.1222C30.3279 24.9706 30.5528 24.7599 30.7138 24.4901C30.8795 24.2202 30.9624 23.9148 30.9624 23.5739C30.9624 23.233 30.8795 22.9323 30.7138 22.6719C30.5528 22.4115 30.3303 22.2079 30.0462 22.0611C29.7621 21.9096 29.433 21.8338 29.0589 21.8338C28.6896 21.8338 28.3606 21.9096 28.0717 22.0611C27.7829 22.2079 27.558 22.4115 27.397 22.6719C27.236 22.9323 27.1555 23.233 27.1555 23.5739C27.1555 23.9148 27.236 24.2202 27.397 24.4901C27.5627 24.7552 27.79 24.9659 28.0788 25.1222C28.3677 25.2737 28.6944 25.3494 29.0589 25.3494ZM42.4609 34.1989C41.4003 34.1989 40.4581 34.0071 39.6342 33.6236C38.8104 33.2401 38.1593 32.7121 37.6811 32.0398C37.2076 31.3674 36.9614 30.5956 36.9425 29.7244H40.3516C40.38 30.2595 40.5978 30.6903 41.005 31.017C41.4122 31.339 41.8975 31.5 42.4609 31.5C42.9013 31.5 43.2919 31.4029 43.6328 31.2088C43.9737 31.0147 44.2412 30.7424 44.4354 30.392C44.6295 30.0369 44.7242 29.6297 44.7195 29.1705C44.7242 28.7017 44.6271 28.2921 44.4283 27.9418C44.2341 27.5914 43.9643 27.3191 43.6186 27.125C43.2777 26.9261 42.8847 26.8267 42.4396 26.8267C42.0182 26.822 41.6181 26.9143 41.2393 27.1037C40.8653 27.2931 40.5812 27.5511 40.3871 27.8778L37.2834 27.2955L37.9155 19.4545H47.2479V22.2884H40.8061L40.4723 25.7188H40.5575C40.799 25.3163 41.1873 24.9848 41.7223 24.7244C42.2621 24.4593 42.8752 24.3267 43.5618 24.3267C44.433 24.3267 45.2095 24.5303 45.8913 24.9375C46.5779 25.34 47.1177 25.8987 47.5107 26.6136C47.9084 27.3286 48.1072 28.1477 48.1072 29.071C48.1072 30.0701 47.8705 30.9555 47.397 31.7273C46.9283 32.4991 46.2701 33.1051 45.4226 33.5455C44.5798 33.9811 43.5926 34.1989 42.4609 34.1989ZM54.3981 31.8977V21.6136H57.2603V31.8977H54.3981ZM50.6836 28.1903V25.321H60.9677V28.1903H50.6836Z" fill="white"/>
<path d="M24.9027 59.1321C24.2891 59.1321 23.7536 58.9915 23.2962 58.7102C22.8388 58.429 22.4837 58.0355 22.2308 57.5298C21.978 57.0241 21.8516 56.4332 21.8516 55.7571C21.8516 55.0781 21.978 54.4844 22.2308 53.9759C22.4837 53.4673 22.8388 53.0724 23.2962 52.7912C23.7536 52.5099 24.2891 52.3693 24.9027 52.3693C25.5163 52.3693 26.0518 52.5099 26.5092 52.7912C26.9666 53.0724 27.3217 53.4673 27.5746 53.9759C27.8274 54.4844 27.9538 55.0781 27.9538 55.7571C27.9538 56.4332 27.8274 57.0241 27.5746 57.5298C27.3217 58.0355 26.9666 58.429 26.5092 58.7102C26.0518 58.9915 25.5163 59.1321 24.9027 59.1321ZM24.907 58.0625C25.3047 58.0625 25.6342 57.9574 25.8956 57.7472C26.157 57.5369 26.3501 57.2571 26.4751 56.9077C26.603 56.5582 26.6669 56.1733 26.6669 55.7528C26.6669 55.3352 26.603 54.9517 26.4751 54.6023C26.3501 54.25 26.157 53.9673 25.8956 53.7543C25.6342 53.5412 25.3047 53.4347 24.907 53.4347C24.5064 53.4347 24.174 53.5412 23.9098 53.7543C23.6484 53.9673 23.4538 54.25 23.326 54.6023C23.201 54.9517 23.1385 55.3352 23.1385 55.7528C23.1385 56.1733 23.201 56.5582 23.326 56.9077C23.4538 57.2571 23.6484 57.5369 23.9098 57.7472C24.174 57.9574 24.5064 58.0625 24.907 58.0625ZM34.7156 52.4545V57.956H35.6744V61.1094H34.4173V59H29.3761V52.4545H30.6246V57.9006H33.4712V52.4545H34.7156ZM39.8377 59.1321C39.1928 59.1321 38.6374 58.9943 38.1715 58.7188C37.7085 58.4403 37.3505 58.0497 37.0977 57.5469C36.8477 57.0412 36.7227 56.4489 36.7227 55.7699C36.7227 55.0994 36.8477 54.5085 37.0977 53.9972C37.3505 53.4858 37.7028 53.0866 38.1545 52.7997C38.609 52.5128 39.1403 52.3693 39.7482 52.3693C40.1175 52.3693 40.4755 52.4304 40.8221 52.5526C41.1687 52.6747 41.4798 52.8665 41.7553 53.1278C42.0309 53.3892 42.2482 53.7287 42.4073 54.1463C42.5664 54.5611 42.646 55.0653 42.646 55.6591V56.1108H37.4428V55.1562H41.3974C41.3974 54.821 41.3292 54.5241 41.1928 54.2656C41.0565 54.0043 40.8647 53.7983 40.6175 53.6477C40.3732 53.4972 40.0863 53.4219 39.7567 53.4219C39.3988 53.4219 39.0863 53.5099 38.8192 53.6861C38.555 53.8594 38.3505 54.0866 38.2056 54.3679C38.0636 54.6463 37.9925 54.9489 37.9925 55.2756V56.0213C37.9925 56.4588 38.0692 56.831 38.2227 57.1378C38.3789 57.4446 38.5962 57.679 38.8746 57.8409C39.1531 58 39.4783 58.0795 39.8505 58.0795C40.092 58.0795 40.3121 58.0455 40.511 57.9773C40.7099 57.9062 40.8817 57.8011 41.0266 57.6619C41.1715 57.5227 41.2823 57.3509 41.359 57.1463L42.565 57.3636C42.4684 57.7187 42.2951 58.0298 42.0451 58.2969C41.7979 58.5611 41.4869 58.767 41.1119 58.9148C40.7397 59.0597 40.315 59.1321 39.8377 59.1321ZM48.4957 55.1776V56.2812H44.9503V55.1776H48.4957ZM45.3082 52.4545V59H44.0597V52.4545H45.3082ZM49.3864 52.4545V59H48.142V52.4545H49.3864ZM51.0909 59V52.4545H52.3651V55.1989H52.9787L55.1392 52.4545H56.7159L54.1804 55.6378L56.7457 59H55.1648L53.1918 56.3835H52.3651V59H51.0909ZM59.6403 59.1449C59.2255 59.1449 58.8505 59.0682 58.5153 58.9148C58.18 58.7585 57.9144 58.5327 57.7184 58.2372C57.5252 57.9418 57.4286 57.5795 57.4286 57.1506C57.4286 56.7812 57.4996 56.4773 57.6417 56.2386C57.7837 56 57.9755 55.8111 58.217 55.6719C58.4585 55.5327 58.7283 55.4276 59.0266 55.3565C59.3249 55.2855 59.6289 55.2315 59.9386 55.1946C60.3306 55.1491 60.6488 55.1122 60.8931 55.0838C61.1374 55.0526 61.315 55.0028 61.4258 54.9347C61.5366 54.8665 61.592 54.7557 61.592 54.6023V54.5724C61.592 54.2003 61.4869 53.9119 61.2766 53.7074C61.0692 53.5028 60.7596 53.4006 60.3477 53.4006C59.9187 53.4006 59.5806 53.4957 59.3335 53.6861C59.0891 53.8736 58.9201 54.0824 58.8263 54.3125L57.6289 54.0398C57.771 53.642 57.9783 53.321 58.2511 53.0767C58.5266 52.8295 58.8434 52.6506 59.2013 52.5398C59.5593 52.4261 59.9357 52.3693 60.3306 52.3693C60.592 52.3693 60.869 52.4006 61.1616 52.4631C61.457 52.5227 61.7326 52.6335 61.9883 52.7955C62.2468 52.9574 62.4585 53.1889 62.6232 53.4901C62.788 53.7884 62.8704 54.1761 62.8704 54.6534V59H61.6261V58.1051H61.5749C61.4925 58.2699 61.369 58.4318 61.2042 58.5909C61.0394 58.75 60.8278 58.8821 60.5692 58.9872C60.3107 59.0923 60.0011 59.1449 59.6403 59.1449ZM59.9173 58.1222C60.2695 58.1222 60.5707 58.0526 60.8207 57.9134C61.0735 57.7741 61.2653 57.5923 61.396 57.3679C61.5295 57.1406 61.5962 56.8977 61.5962 56.6392V55.7955C61.5508 55.8409 61.4627 55.8835 61.332 55.9233C61.2042 55.9602 61.0579 55.9929 60.8931 56.0213C60.7283 56.0469 60.5678 56.071 60.4116 56.0938C60.2553 56.1136 60.1246 56.1307 60.0195 56.1449C59.7724 56.1761 59.5465 56.2287 59.342 56.3026C59.1403 56.3764 58.9783 56.483 58.8562 56.6222C58.7369 56.7585 58.6772 56.9403 58.6772 57.1676C58.6772 57.483 58.7937 57.7216 59.0266 57.8835C59.2596 58.0426 59.5565 58.1222 59.9173 58.1222ZM19.4631 64.4545V65.554H16.5355V71H15.2784V64.4545H19.4631ZM20.8097 73.4545V64.4545H22.054V65.5156H22.1605C22.2344 65.3793 22.3409 65.2216 22.4801 65.0426C22.6193 64.8636 22.8125 64.7074 23.0597 64.5739C23.3068 64.4375 23.6335 64.3693 24.0398 64.3693C24.5682 64.3693 25.0398 64.5028 25.4545 64.7699C25.8693 65.0369 26.1946 65.4219 26.4304 65.9247C26.669 66.4276 26.7884 67.0327 26.7884 67.7401C26.7884 68.4474 26.6705 69.054 26.4347 69.5597C26.1989 70.0625 25.875 70.4503 25.4631 70.723C25.0511 70.9929 24.581 71.1278 24.0526 71.1278C23.6548 71.1278 23.3295 71.0611 23.0767 70.9276C22.8267 70.794 22.6307 70.6378 22.4886 70.4588C22.3466 70.2798 22.2372 70.1207 22.1605 69.9815H22.0838V73.4545H20.8097ZM22.0582 67.7273C22.0582 68.1875 22.125 68.5909 22.2585 68.9375C22.392 69.2841 22.5852 69.5554 22.8381 69.7514C23.0909 69.9446 23.4006 70.0412 23.767 70.0412C24.1477 70.0412 24.4659 69.9403 24.7216 69.7386C24.9773 69.5341 25.1705 69.2571 25.3011 68.9077C25.4347 68.5582 25.5014 68.1648 25.5014 67.7273C25.5014 67.2955 25.4361 66.9077 25.3054 66.5639C25.1776 66.2202 24.9844 65.9489 24.7259 65.75C24.4702 65.5511 24.1506 65.4517 23.767 65.4517C23.3977 65.4517 23.0852 65.5469 22.8295 65.7372C22.5767 65.9276 22.3849 66.1932 22.2543 66.5341C22.1236 66.875 22.0582 67.2727 22.0582 67.7273ZM31.0369 71.1321C30.392 71.1321 29.8366 70.9943 29.3707 70.7188C28.9077 70.4403 28.5497 70.0497 28.2969 69.5469C28.0469 69.0412 27.9219 68.4489 27.9219 67.7699C27.9219 67.0994 28.0469 66.5085 28.2969 65.9972C28.5497 65.4858 28.902 65.0866 29.3537 64.7997C29.8082 64.5128 30.3395 64.3693 30.9474 64.3693C31.3168 64.3693 31.6747 64.4304 32.0213 64.5526C32.3679 64.6747 32.679 64.8665 32.9545 65.1278C33.2301 65.3892 33.4474 65.7287 33.6065 66.1463C33.7656 66.5611 33.8452 67.0653 33.8452 67.6591V68.1108H28.642V67.1562H32.5966C32.5966 66.821 32.5284 66.5241 32.392 66.2656C32.2557 66.0043 32.0639 65.7983 31.8168 65.6477C31.5724 65.4972 31.2855 65.4219 30.956 65.4219C30.598 65.4219 30.2855 65.5099 30.0185 65.6861C29.7543 65.8594 29.5497 66.0866 29.4048 66.3679C29.2628 66.6463 29.1918 66.9489 29.1918 67.2756V68.0213C29.1918 68.4588 29.2685 68.831 29.4219 69.1378C29.5781 69.4446 29.7955 69.679 30.0739 69.8409C30.3523 70 30.6776 70.0795 31.0497 70.0795C31.2912 70.0795 31.5114 70.0455 31.7102 69.9773C31.9091 69.9062 32.081 69.8011 32.2259 69.6619C32.3707 69.5227 32.4815 69.3509 32.5582 69.1463L33.7642 69.3636C33.6676 69.7187 33.4943 70.0298 33.2443 70.2969C32.9972 70.5611 32.6861 70.767 32.3111 70.9148C31.9389 71.0597 31.5142 71.1321 31.0369 71.1321ZM36.5075 69.2145L39.3924 64.4545H40.7646V71H39.516V66.2358L36.6438 71H35.2589V64.4545H36.5075V69.2145ZM38.8469 62.2386H39.8952C39.8952 62.7187 39.7248 63.1094 39.3839 63.4105C39.0458 63.7088 38.5884 63.858 38.0117 63.858C37.4379 63.858 36.9819 63.7088 36.6438 63.4105C36.3058 63.1094 36.1367 62.7187 36.1367 62.2386H37.1808C37.1808 62.4517 37.2433 62.6406 37.3683 62.8054C37.4933 62.9673 37.7077 63.0483 38.0117 63.0483C38.31 63.0483 38.5231 62.9673 38.6509 62.8054C38.7816 62.6435 38.8469 62.4545 38.8469 62.2386ZM41.8384 72.8878V69.8963H42.3711C42.5075 69.7713 42.6225 69.6222 42.7163 69.4489C42.8129 69.2756 42.8938 69.0696 42.9592 68.831C43.0273 68.5923 43.0842 68.3139 43.1296 67.9957C43.1751 67.6747 43.2148 67.3082 43.2489 66.8963L43.4535 64.4545H47.9023V69.8963H48.908V72.8878H47.6637V71H43.0998V72.8878H41.8384ZM43.7347 69.8963H46.658V65.5455H44.5955L44.4592 66.8963C44.3938 67.5838 44.3114 68.1804 44.212 68.6861C44.1126 69.1889 43.9535 69.5923 43.7347 69.8963ZM52.9744 71.1321C52.3295 71.1321 51.7741 70.9943 51.3082 70.7188C50.8452 70.4403 50.4872 70.0497 50.2344 69.5469C49.9844 69.0412 49.8594 68.4489 49.8594 67.7699C49.8594 67.0994 49.9844 66.5085 50.2344 65.9972C50.4872 65.4858 50.8395 65.0866 51.2912 64.7997C51.7457 64.5128 52.277 64.3693 52.8849 64.3693C53.2543 64.3693 53.6122 64.4304 53.9588 64.5526C54.3054 64.6747 54.6165 64.8665 54.892 65.1278C55.1676 65.3892 55.3849 65.7287 55.544 66.1463C55.7031 66.5611 55.7827 67.0653 55.7827 67.6591V68.1108H50.5795V67.1562H54.5341C54.5341 66.821 54.4659 66.5241 54.3295 66.2656C54.1932 66.0043 54.0014 65.7983 53.7543 65.6477C53.5099 65.4972 53.223 65.4219 52.8935 65.4219C52.5355 65.4219 52.223 65.5099 51.956 65.6861C51.6918 65.8594 51.4872 66.0866 51.3423 66.3679C51.2003 66.6463 51.1293 66.9489 51.1293 67.2756V68.0213C51.1293 68.4588 51.206 68.831 51.3594 69.1378C51.5156 69.4446 51.733 69.679 52.0114 69.8409C52.2898 70 52.6151 70.0795 52.9872 70.0795C53.2287 70.0795 53.4489 70.0455 53.6477 69.9773C53.8466 69.9062 54.0185 69.8011 54.1634 69.6619C54.3082 69.5227 54.419 69.3509 54.4957 69.1463L55.7017 69.3636C55.6051 69.7187 55.4318 70.0298 55.1818 70.2969C54.9347 70.5611 54.6236 70.767 54.2486 70.9148C53.8764 71.0597 53.4517 71.1321 52.9744 71.1321ZM57.1964 73.4545V64.4545H58.4407V65.5156H58.5472C58.6211 65.3793 58.7276 65.2216 58.8668 65.0426C59.006 64.8636 59.1992 64.7074 59.4464 64.5739C59.6935 64.4375 60.0202 64.3693 60.4265 64.3693C60.9549 64.3693 61.4265 64.5028 61.8413 64.7699C62.256 65.0369 62.5813 65.4219 62.8171 65.9247C63.0558 66.4276 63.1751 67.0327 63.1751 67.7401C63.1751 68.4474 63.0572 69.054 62.8214 69.5597C62.5856 70.0625 62.2617 70.4503 61.8498 70.723C61.4379 70.9929 60.9677 71.1278 60.4393 71.1278C60.0415 71.1278 59.7163 71.0611 59.4634 70.9276C59.2134 70.794 59.0174 70.6378 58.8754 70.4588C58.7333 70.2798 58.6239 70.1207 58.5472 69.9815H58.4705V73.4545H57.1964ZM58.445 67.7273C58.445 68.1875 58.5117 68.5909 58.6452 68.9375C58.7788 69.2841 58.9719 69.5554 59.2248 69.7514C59.4776 69.9446 59.7873 70.0412 60.1538 70.0412C60.5344 70.0412 60.8526 69.9403 61.1083 69.7386C61.364 69.5341 61.5572 69.2571 61.6879 68.9077C61.8214 68.5582 61.8881 68.1648 61.8881 67.7273C61.8881 67.2955 61.8228 66.9077 61.6921 66.5639C61.5643 66.2202 61.3711 65.9489 61.1126 65.75C60.8569 65.5511 60.5373 65.4517 60.1538 65.4517C59.7844 65.4517 59.4719 65.5469 59.2163 65.7372C58.9634 65.9276 58.7717 66.1932 58.641 66.5341C58.5103 66.875 58.445 67.2727 58.445 67.7273ZM66.5075 71.1449C66.0927 71.1449 65.7177 71.0682 65.3825 70.9148C65.0472 70.7585 64.7816 70.5327 64.5856 70.2372C64.3924 69.9418 64.2958 69.5795 64.2958 69.1506C64.2958 68.7812 64.3668 68.4773 64.5089 68.2386C64.6509 68 64.8427 67.8111 65.0842 67.6719C65.3256 67.5327 65.5955 67.4276 65.8938 67.3565C66.1921 67.2855 66.4961 67.2315 66.8058 67.1946C67.1978 67.1491 67.516 67.1122 67.7603 67.0838C68.0046 67.0526 68.1822 67.0028 68.293 66.9347C68.4038 66.8665 68.4592 66.7557 68.4592 66.6023V66.5724C68.4592 66.2003 68.354 65.9119 68.1438 65.7074C67.9364 65.5028 67.6268 65.4006 67.2148 65.4006C66.7859 65.4006 66.4478 65.4957 66.2006 65.6861C65.9563 65.8736 65.7873 66.0824 65.6935 66.3125L64.4961 66.0398C64.6381 65.642 64.8455 65.321 65.1183 65.0767C65.3938 64.8295 65.7106 64.6506 66.0685 64.5398C66.4265 64.4261 66.8029 64.3693 67.1978 64.3693C67.4592 64.3693 67.7362 64.4006 68.0288 64.4631C68.3242 64.5227 68.5998 64.6335 68.8555 64.7955C69.114 64.9574 69.3256 65.1889 69.4904 65.4901C69.6552 65.7884 69.7376 66.1761 69.7376 66.6534V71H68.4933V70.1051H68.4421C68.3597 70.2699 68.2362 70.4318 68.0714 70.5909C67.9066 70.75 67.695 70.8821 67.4364 70.9872C67.1779 71.0923 66.8683 71.1449 66.5075 71.1449ZM66.7844 70.1222C67.1367 70.1222 67.4379 70.0526 67.6879 69.9134C67.9407 69.7741 68.1325 69.5923 68.2631 69.3679C68.3967 69.1406 68.4634 68.8977 68.4634 68.6392V67.7955C68.418 67.8409 68.3299 67.8835 68.1992 67.9233C68.0714 67.9602 67.9251 67.9929 67.7603 68.0213C67.5955 68.0469 67.435 68.071 67.2788 68.0938C67.1225 68.1136 66.9918 68.1307 66.8867 68.1449C66.6396 68.1761 66.4137 68.2287 66.2092 68.3026C66.0075 68.3764 65.8455 68.483 65.7234 68.6222C65.604 68.7585 65.5444 68.9403 65.5444 69.1676C65.5444 69.483 65.6609 69.7216 65.8938 69.8835C66.1268 70.0426 66.4237 70.1222 66.7844 70.1222Z" fill="white"/>
<line opacity="0.4" x1="26" y1="43.5" x2="58" y2="43.5" stroke="white"/>
</svg>
