<svg width="36" height="36" viewBox="0 0 36 36" fill="none" xmlns="http://www.w3.org/2000/svg">
<path d="M17.2204 26.7042L17.2889 26.747L17.2853 26.8276L17.8063 27.4527C18.1537 27.8695 18.2841 28.2053 18.1977 28.4601L17.9385 29.2247C17.8521 29.4795 17.6631 29.6472 17.3716 29.7276L16.4972 29.9688C16.2057 30.0492 15.9157 30.0235 15.6271 29.8917L14.7614 29.4963C14.4728 29.3645 14.3432 29.1514 14.3725 28.8572L14.4605 27.9747C14.4898 27.6805 14.6024 27.4133 14.7982 27.1731L15.3855 26.4527C15.5813 26.2125 15.689 26.1135 15.7086 26.1558L15.7381 26.2191L15.7761 26.4239L15.7969 26.3458M17.2204 26.7042L17.1778 26.7056C17.1494 26.7066 17.1352 26.6788 17.1352 26.6222L17.1352 26.4524C16.9896 26.3704 17.1778 26.4239 17.476 26.6028L17.5473 26.8637L17.0581 26.6028M17.2204 26.7042L17.1237 26.7919C17.0593 26.8505 17.0129 26.8744 16.9845 26.8637L16.8993 26.8316C16.871 26.8209 16.8678 26.7943 16.89 26.7517L16.9232 26.6878L17.0581 26.6028M17.0581 26.6028L16.9896 26.56L16.9101 26.5458M15.7969 26.3458L15.8764 26.3601M15.7969 26.3458L15.732 26.3938L15.6228 26.2903C15.55 26.2213 15.492 26.2257 15.4489 26.3037L15.3194 26.5374C15.2763 26.6153 15.2674 26.6654 15.2927 26.6875L15.3687 26.754C15.394 26.7761 15.4148 26.7684 15.4312 26.7309L15.4558 26.6745L15.5698 26.5138L15.5049 26.5618M16.9101 26.5458L16.7329 26.3958C16.6148 26.2957 16.5139 26.2402 16.4303 26.229L16.1795 26.1955C16.0959 26.1844 16.0316 26.2025 15.9865 26.2499L15.8512 26.3922C15.806 26.4396 15.7846 26.4535 15.7868 26.4339L15.7902 26.4045L15.8764 26.3601M16.9101 26.5458L16.7196 26.5812C16.5926 26.6048 16.4887 26.5836 16.4079 26.5176L16.1655 26.3196C16.0847 26.2536 16.0254 26.2506 15.9876 26.3107L15.8741 26.491C15.8363 26.5511 15.8156 26.5615 15.8122 26.5223L15.8071 26.4635L15.8764 26.3601M23.6653 25.8135L23.5856 25.8006L23.5744 25.7612C23.5669 25.7349 23.5595 25.7274 23.5522 25.7387L23.5412 25.7558L23.599 25.8028L23.5192 25.7898L23.4385 25.7872L23.1852 25.6427C23.0164 25.5463 22.8742 25.4941 22.7586 25.4859L22.4119 25.4616C22.2963 25.4535 22.3683 25.6283 22.3074 25.6427L21.0815 26.681M21.6798 26.1353C21.8793 25.9534 22.1073 25.8564 22.364 25.8443L23.1342 25.808C23.3909 25.7959 23.5454 25.8261 23.5977 25.8985L23.7545 26.1158C23.8068 26.1882 23.9527 26.257 24.1921 26.322L24.9104 26.5171C25.1499 26.5821 25.223 26.7363 25.13 26.9798L24.8508 27.7101C24.7577 27.9535 24.6945 28.2003 24.6612 28.4503L24.5613 29.2003C24.528 29.4503 24.3922 29.6191 24.154 29.7069L23.4392 29.9702C23.201 30.058 22.978 30.0425 22.7703 29.9238L22.1474 29.5678C21.9397 29.4491 21.7646 29.315 21.6222 29.1656L21.1948 28.7173C21.0523 28.5679 20.9645 28.3649 20.9314 28.1084L20.832 27.3387C20.7989 27.0822 20.8821 26.863 21.0815 26.681M21.6798 26.1353L22.0783 25.7434L21.9354 25.6383L21.9042 25.5871C21.8835 25.5529 21.0206 26.6954 21.0815 26.681M21.6798 26.1353L21.0815 26.681M20.2465 11.6343L20.196 11.5713L19.6831 10.8671C19.3412 10.3977 19.0794 10.0359 18.8978 9.7819L18.3528 9.01981C18.1712 8.76578 18.0447 8.50197 17.9734 8.22836L17.7594 7.40753C17.6881 7.13392 17.7347 6.9141 17.8992 6.74806L18.3926 6.24994C18.5571 6.0839 18.7483 6.11513 18.9663 6.34363L19.6201 7.02911C19.8381 7.2576 20.0187 7.44634 20.162 7.59531L20.5918 8.04224C20.7351 8.19122 20.9154 8.14996 21.1328 7.91847L21.7848 7.22399C22.0022 6.99249 22.2156 6.7946 22.4251 6.6303L23.0536 6.13742C23.2631 5.97313 23.4603 5.95615 23.6453 6.08649L24.2004 6.47749C24.3854 6.60783 24.4029 6.8109 24.2526 7.08672L23.802 7.91417C23.6518 8.18999 23.4885 8.45353 23.3121 8.7048L22.7829 9.45861C22.6065 9.70988 22.4044 9.93901 22.1765 10.146L21.4928 10.7669C21.265 10.9739 21.078 11.2047 20.9319 11.4593L20.4935 12.2232C20.3474 12.4778 20.2546 12.5893 20.2151 12.5578L20.1557 12.5105L20.0931 12.3577L20.0371 12.4159M17.9383 8.15603C17.9566 8.15603 17.9749 8.15603 18.332 7.99134C18.6891 7.82665 19.3845 7.49727 19.7427 7.34588C20.1009 7.1945 20.1009 7.2311 19.9865 7.3506C19.8722 7.4701 19.6434 7.67139 19.4707 7.87573C19.298 8.08007 19.1882 8.28135 19.0996 8.49484C18.9236 8.91897 18.881 9.35545 18.9359 9.65586C18.9562 9.76733 19.1006 9.74583 19.212 9.71825C19.4383 9.66224 19.6745 9.51543 19.9784 9.26715C20.4211 8.90541 20.7281 8.499 20.9588 8.33279C21.1201 8.21652 21.2374 8.19319 21.2698 8.21578C21.3865 8.29704 21.1736 8.57081 21.0308 8.79664C20.8758 9.04189 20.6474 9.34631 20.4489 9.6969C20.1695 10.1903 20.2118 10.5402 20.2255 10.5818C20.2317 10.6005 20.2667 10.5959 20.3266 10.5593C20.3865 10.5227 20.478 10.4495 20.612 10.2654C20.7461 10.0813 20.9199 9.78853 21.2199 9.42726C21.5199 9.066 21.9408 8.64512 22.2583 8.35511C22.777 7.9187 23.0851 7.71297 23.2513 7.61607C23.3168 7.57407 23.3443 7.54662 23.4003 7.51834M11.0753 24.3511L11.7861 23.8895L12.6897 23.4299C12.8617 23.3228 12.5168 23.6335 12.586 23.552L12.7935 23.3077C12.8626 23.2262 12.9093 23.1607 12.9333 23.1111L13.0056 22.9622C13.0297 22.9126 13.0265 22.8757 12.9961 22.8516L12.9504 22.8153L12.8123 22.8085L12.8591 22.7428M12.8591 22.7428L12.9094 22.6796M12.8591 22.7428L12.6882 22.7583C12.6502 22.7617 12.667 22.745 12.7386 22.708L12.9533 22.5972C13.0248 22.5603 13.0391 22.5141 12.9962 22.4586L12.8672 22.2922C12.8243 22.2367 12.7943 22.1499 12.7773 22.0318L12.7518 21.8547M12.9094 22.6796L12.9873 22.7266C13.0392 22.758 13.054 22.7635 13.0319 22.743L12.9986 22.7124L12.8818 22.7143M12.9094 22.6796L13.0533 23.1109C13.1491 23.3985 13.1713 23.5024 13.1197 23.4225L12.9649 23.1829C12.9133 23.1031 12.8973 23.0279 12.9171 22.9573L12.9763 22.7457C12.996 22.6752 12.9998 22.6408 12.9875 22.6427L12.969 22.6455L12.8818 22.7143M12.8818 22.7143L12.9321 22.6511M12.9321 22.6511L12.9847 22.5898L13.5512 21.8998C13.9289 21.4398 14.2197 21.0931 14.4236 20.8599L15.0353 20.1601C15.2392 19.9269 15.4452 19.693 15.6533 19.4585L16.2774 18.7549C16.4855 18.5204 16.7373 18.341 17.0329 18.2168L17.9196 17.8443C18.2152 17.7201 18.4721 17.5432 18.6902 17.3138L19.3445 16.6254C19.5626 16.3959 19.7791 16.2411 19.9941 16.161L20.6391 15.9207C20.8541 15.8406 20.9492 15.7819 20.9244 15.7445L20.8873 15.6884L20.747 15.6228L20.813 15.5762L20.7374 15.5479L19.9715 15.1732C19.461 14.9235 19.0505 14.7714 18.7401 14.7171L17.8091 14.5543C17.4987 14.5 17.1955 14.4325 16.8994 14.3519L16.011 14.1101C15.7149 14.0295 15.413 13.9604 15.1053 13.9026L14.1823 13.7293C13.8746 13.6716 13.5776 13.5711 13.2915 13.428L12.4329 12.9987C12.1467 12.8556 11.8461 12.7822 11.5311 12.7786L10.586 12.7677C10.2709 12.764 9.98144 12.7162 9.71751 12.6243L8.92571 12.3484C8.66177 12.2565 8.52974 12.2106 8.52974 12.2106M12.9321 22.6511L12.9143 22.5723L12.7715 22.4769C12.6762 22.4133 12.6415 22.351 12.6674 22.29L12.745 22.1069C12.7708 22.0458 12.7599 22.0083 12.7123 21.9943L12.5694 21.9521C12.5218 21.9381 12.5191 21.9247 12.5614 21.912L12.6249 21.8929L12.7696 21.9334L12.7518 21.8547M12.7518 21.8547L12.7277 21.7776L12.8168 21.8452L12.8492 21.8405C12.8709 21.8373 12.8729 21.7144 12.8552 21.4719L12.8022 20.7441C12.7845 20.5015 12.7229 20.2312 12.6172 19.9331L12.3001 19.039C12.1944 18.741 12.0648 18.4547 11.9114 18.1802L11.4512 17.3565C11.2978 17.082 11.1335 16.8148 10.9583 16.555L10.4327 15.7754C10.2574 15.5156 10.0292 15.1294 9.74786 14.6169L9.32587 13.8481L9.28668 13.7775M12.7518 21.8547L12.7234 21.779L12.6763 21.8774L12.6385 21.8888C12.6133 21.8964 12.5758 21.7907 12.5258 21.5719L12.376 20.9155C12.326 20.6967 12.2438 20.4435 12.1294 20.1558L11.7861 19.2929C11.6716 19.0053 11.5545 18.7183 11.4347 18.4319L11.0753 17.5728C10.9555 17.2865 10.8232 17.0056 10.6786 16.7303L10.2445 15.9042C10.0999 15.6289 9.90995 15.2177 9.67481 14.6706L9.32211 13.85L9.28668 13.7775M8.52974 12.2106L8.60856 12.2278M8.52974 12.2106L8.56468 12.2837M8.52974 12.2106L8.46758 12.1592L7.80247 11.5709C7.35907 11.1787 7.05896 10.8366 6.90213 10.5446L6.43166 9.66855C6.27484 9.37654 6.04969 9.27501 5.75621 9.36395L4.87578 9.63077C4.58231 9.71971 4.28299 9.79031 3.97783 9.84256L3.06235 9.99931C2.75719 10.0516 2.50523 10.0891 2.30646 10.112L1.71016 10.1806C1.5114 10.2035 1.56056 10.1685 1.85766 10.0757L2.74896 9.79716C3.04605 9.70433 3.33301 9.5797 3.60981 9.42328L4.44024 8.95403C4.71705 8.79761 4.84176 8.75373 4.81437 8.82237L4.73222 9.02831C4.70483 9.09696 4.53357 9.10645 4.21843 9.0568L3.273 8.90783C2.95785 8.85818 2.64912 8.87416 2.3468 8.95579L1.43983 9.20067C1.13751 9.2823 0.99104 9.32311 1.00042 9.32311H1.0145L1.85188 9.4085L1.04265 9.32311M8.56468 12.2837L8.36677 12.3949C8.23483 12.469 8.21308 12.5929 8.3015 12.7666L8.56678 13.2876C8.65521 13.4613 8.74749 13.568 8.84362 13.6078L9.132 13.7272C9.22813 13.767 9.27706 13.7861 9.27881 13.7846L9.28144 13.7822L9.25153 13.7047M8.56468 12.2837L8.69416 12.5622C8.78048 12.7478 8.84853 12.893 8.8983 12.9977L9.04763 13.3118C9.0974 13.4165 9.13844 13.4936 9.17075 13.5429L9.26768 13.6909C9.29999 13.7402 9.31369 13.7659 9.30878 13.768L9.30141 13.7712L9.25153 13.7047M9.25153 13.7047L9.28668 13.7775M22.1166 15.0189C22.4063 14.895 22.672 14.7338 22.9137 14.5353L23.6389 13.9397C23.8806 13.7411 24.1383 13.5691 24.4118 13.4236L25.2325 12.987C25.506 12.8415 25.7847 12.6997 26.0686 12.5617L26.9201 12.1476C27.204 12.0095 27.5011 11.9177 27.8115 11.8721L28.7425 11.7352C29.0529 11.6896 30.0003 11.2417 30.1216 11.4593L29.7543 12.6463C29.7178 12.6393 29.8305 13.0974 29.6187 13.3465L28.9835 14.094C28.7718 14.3432 28.6235 14.6192 28.5388 14.922L28.2846 15.8306C28.1999 16.1334 28.1225 16.4369 28.0526 16.7409L27.8428 17.6531C27.7729 17.9572 27.7101 18.2624 27.6544 18.5687L27.4873 19.4878C27.4316 19.7941 27.3723 20.0996 27.3094 20.4043L27.1207 21.3182C27.0578 21.6229 27.0038 21.9295 26.9587 22.238L26.8234 23.1635C26.7783 23.472 26.6336 23.6465 26.3893 23.6872L25.6565 23.8091C25.4123 23.8498 25.1335 23.8692 24.8203 23.8673L23.8808 23.8617C23.5676 23.8599 23.2558 23.8586 22.9456 23.858L22.0148 23.8563C21.7045 23.8557 21.3937 23.8519 21.0822 23.8449L20.1477 23.8237C19.8362 23.8166 19.529 23.8579 19.226 23.9474L18.3171 24.216C18.0142 24.3055 17.7035 24.3157 17.3851 24.2465L16.43 24.0388C16.1116 23.9696 15.7988 23.9703 15.4915 24.041L14.5698 24.253C14.2626 24.3237 14.002 24.323 13.788 24.2511L13.1461 24.0352C12.9321 23.9632 12.9819 23.9147 13.2955 23.8895L14.2362 23.8139C14.5498 23.7887 14.8598 23.7521 15.1661 23.7039L16.0853 23.5593C16.3917 23.5111 16.6961 23.4532 16.9985 23.3854L17.9057 23.1823C18.2081 23.1146 18.5085 23.0246 18.807 22.9122L19.7023 22.5752C20.0008 22.4629 20.3078 22.4194 20.6233 22.4447L21.57 22.5208C21.8855 22.5461 22.1971 22.5322 22.5046 22.479L23.4272 22.3195C23.7348 22.2663 24.0422 22.2568 24.3494 22.2911L25.2711 22.3941C25.5784 22.4284 25.7529 22.3902 25.7948 22.2797L25.9204 21.9479C25.9623 21.8374 25.917 21.6401 25.7847 21.3562L25.3877 20.5045C25.2554 20.2205 25.1002 19.9476 24.922 19.6855L24.3874 18.8994C24.2092 18.6373 23.999 18.4057 23.7568 18.2044L23.0302 17.6005C22.788 17.3992 22.5678 17.1782 22.3696 16.9375L21.775 16.2153C21.5768 15.9746 21.4223 15.8311 21.3115 15.7847L20.9792 15.6457C20.8684 15.5994 20.9578 15.5143 21.2475 15.3905L22.1166 15.0189Z" stroke="#D9315A" stroke-width="1.13079" stroke-linecap="round"/>
</svg>
