<svg width="68" height="52" viewBox="0 0 68 52" fill="none" xmlns="http://www.w3.org/2000/svg">
<path d="M33.257 2C31.2649 2 29.3501 2.55668 27.3808 2.68548C26.3583 2.75235 25.6761 3.35327 24.6855 3.52542C23.6271 3.70935 22.7154 4.38439 21.6855 4.61639C20.9078 4.79158 20.1516 5.4317 19.3712 5.47565C18.0281 5.55129 17.0532 6.27134 15.9426 6.9528C15.1138 7.46133 14.0555 7.85199 13.3711 8.50719C12.829 9.02625 12.4638 8.93705 11.8188 9.23128C11.5972 9.33236 10.9001 9.6441 10.9616 9.63677C12.0178 9.51081 13.0838 9.09073 13.9426 8.44926C14.7411 7.85282 15.905 7.69142 16.6283 7.03969C16.738 6.94083 17.1741 6.8203 17.0378 6.87556C16.5327 7.08041 16.0302 7.55755 15.6093 7.89895C14.6398 8.68517 13.4961 9.05357 12.4188 9.64643C12.4107 9.65089 12.4026 9.65543 12.3946 9.66005M12.3946 9.66005C12.0063 9.88461 11.7431 10.3016 11.4769 10.7089M12.3946 9.66005C12.5166 9.4342 12.1684 9.62194 11.8664 9.64643C11.5793 9.66971 10.7562 10.6028 10.4568 10.8726C9.7976 11.4666 9.82762 11.6872 9.5616 12.3883C9.53872 12.4486 9.50522 12.5124 9.46301 12.5787M12.3946 9.66005C12.3624 9.71968 12.2974 9.80815 12.1902 9.93606C11.9646 10.2051 11.7249 10.461 11.4769 10.7089M11.4769 10.7089C11.3598 10.8881 11.242 11.0655 11.1128 11.2237M11.4769 10.7089C11.0725 11.1131 10.6457 11.496 10.2208 11.8804M11.1128 11.2237C10.9702 11.3983 10.8136 11.5496 10.6283 11.6546C10.5453 11.7016 10.4588 11.747 10.3727 11.7942M11.1128 11.2237C11.3143 11.0887 11.5209 10.9673 11.733 10.8629C12.4088 10.5302 13.5374 9.83925 12.5997 10.8629C11.4582 12.1091 10.7135 13.3468 9.74255 14.7247C9.52047 15.0399 9.2362 15.3329 8.97406 15.6363M11.1128 11.2237C10.8583 11.3942 10.6119 11.5865 10.3727 11.7942M10.3727 11.7942C10.3217 11.8221 10.2707 11.8506 10.2208 11.8804M10.3727 11.7942C10.1256 12.0088 9.88622 12.2398 9.65371 12.48M10.2208 11.8804C10.0215 11.999 9.83756 12.1371 9.72118 12.3364M10.2208 11.8804C10.0535 12.0317 9.88643 12.1832 9.72118 12.3364M9.72118 12.3364C9.6951 12.381 9.67242 12.4287 9.65371 12.48M9.72118 12.3364C9.63456 12.4167 9.54844 12.4974 9.46301 12.5787M9.65371 12.48C9.63976 12.5182 9.62802 12.5584 9.61874 12.6007C9.52508 13.028 9.76198 13.6277 9.50446 14.0006C9.16023 14.4992 9.13859 15.0999 8.97406 15.6363M9.65371 12.48C9.09019 13.0622 8.56696 13.6986 8.07095 14.2874M8.97406 15.6363C8.94619 15.7272 8.91422 15.8162 8.87588 15.9026C8.78643 16.1041 8.22826 17.6396 8.22826 17.206C8.22826 16.5827 8.57559 16.0975 8.97406 15.6363ZM8.07095 14.2874C7.95366 14.4267 7.8379 14.5632 7.72349 14.6958C7.15739 15.3516 6.78132 16.143 6.38063 16.9067C6.08302 17.4738 6.19408 18.073 5.86634 18.6445C5.51127 19.2636 5.14253 20.3034 5.14253 21.0292C5.14253 21.9894 3.09836 22.9915 3.46632 21.5409C3.54776 21.2198 3.86356 20.9983 3.93299 20.6816C4.00361 20.3595 3.91429 20.0492 4.02823 19.7258C4.31854 18.9018 4.07267 17.9522 4.41871 17.1191C4.52029 16.8745 4.39665 16.5939 4.46633 16.3467C4.56108 16.0105 5.73996 15.4377 6.03777 15.2364C6.59902 14.8571 7.09531 14.6453 7.63778 14.242C7.87254 14.0675 8.26334 13.7755 8.63438 13.4548M8.07095 14.2874C8.23735 13.9967 8.42437 13.7183 8.63438 13.4548M8.07095 14.2874C6.54326 16.9568 6.7528 20.6737 6.85682 23.6263C6.87103 24.0294 7.01593 24.3848 7.1689 24.7352M8.63438 13.4548C8.97025 13.1644 9.28992 12.8505 9.46301 12.5787M8.63438 13.4548C8.76875 13.2861 8.91254 13.1235 9.06636 12.9676C9.19629 12.8359 9.32879 12.7065 9.46301 12.5787M7.1689 24.7352C7.35007 25.1501 7.54254 25.5581 7.54254 26.0302V24.36C7.54254 24.1619 7.51323 23.89 7.49 23.5999M7.1689 24.7352C7.27961 24.3577 7.38665 23.9792 7.49 23.5999M7.1689 24.7352C6.5475 26.854 5.81045 28.9415 4.96157 30.9637C4.71413 31.5532 4.43477 32.1556 4.31395 32.7885C4.31208 32.7982 4.30049 33.2524 4.27585 33.165C4.14154 32.6884 4.11395 32.2962 4.11395 31.794C4.11395 30.1398 4.14294 28.8578 3.46632 27.3336C3.33055 27.0278 2.97735 26.7035 2.65893 26.3792M7.49 23.5999C7.44894 23.0873 7.42683 22.5178 7.61873 22.1974C7.7397 21.9954 7.86557 21.8062 7.9931 21.6251M7.49 23.5999C7.66879 22.9437 7.83653 22.2851 7.9931 21.6251M7.9931 21.6251C8.74705 20.555 9.55926 19.7714 9.7616 18.3355C9.84361 17.7536 9.43204 18.4231 9.29493 18.5673C8.71743 19.1744 8.4119 19.757 8.22826 20.5947C8.1529 20.9385 8.07451 21.282 7.9931 21.6251ZM2.65893 26.3792C2.36957 26.0845 2.10895 25.7898 2.06632 25.5089C1.92288 24.5638 2.05679 23.5062 2.05679 22.5449C2.05679 21.9232 3.08537 20.8762 3.08537 22.1974C3.08537 23.6091 2.80582 24.9777 2.65893 26.3792ZM2.65893 26.3792C2.60658 26.8786 2.57108 27.3823 2.57108 27.8936C2.57108 28.9021 2.60289 29.9642 2.39013 30.9348C2.14416 32.0568 2.05679 33.4351 2.05679 34.5939C2.05679 35.1179 1.93201 35.875 2.09489 36.3703C2.23135 36.7853 2.60707 37.1014 2.73299 37.5482C2.8914 38.1102 3.2568 38.3926 3.2568 39.0157C3.2568 39.3676 3.26626 39.8749 3.52347 40.1356C3.73782 40.3529 4.42669 40.8568 4.45681 41.101C4.4701 41.2088 4.50293 41.288 4.54925 41.3468M4.54925 41.3468C4.75987 41.6142 5.24927 41.4603 5.44729 41.661C5.61378 41.8298 5.7409 42.0451 5.85696 42.2744M4.54925 41.3468C5.42659 40.3388 6.49524 39.3889 7.45683 38.5136C8.95274 37.1519 10.6839 35.9365 12.4759 35.0187C15.9484 33.2401 19.52 31.6282 23.0283 29.921C26.3121 28.3232 29.613 26.7405 32.9473 25.2511M4.54925 41.3468C4.39795 41.5206 4.25234 41.6962 4.11395 41.8734C3.69554 42.4092 3.01977 43.2847 4.24728 42.8968C4.79146 42.7249 5.32777 42.5074 5.85696 42.2744M5.85696 42.2744C6.17203 42.8967 6.40552 43.6214 7.12349 43.7947C7.18098 43.8085 7.97673 43.8805 7.98064 43.9202C8.02712 44.3914 7.77779 44.6253 8.19016 45.0594C8.56863 45.4578 8.86408 45.667 9.33303 45.8028C9.45108 45.837 9.49407 46.2676 9.5997 46.4014C9.73008 46.5666 10.0327 46.4689 10.2187 46.498C10.8833 46.6016 11.0976 47.0357 11.6949 47.2221C12.1266 47.3567 12.1885 47.8786 12.6092 47.8786C13.4879 47.8786 13.4418 48.4706 14.2664 48.6123C14.8612 48.7145 15.2666 49.0534 15.8093 49.2302C16.2228 49.365 16.6867 49.1864 17.1045 49.3074C17.753 49.4953 17.9424 49.964 18.5998 49.964C19.122 49.964 19.761 50.0667 20.2664 49.9253C21.2806 49.6417 22.3518 49.4909 23.3807 49.2592C23.6081 49.2079 23.6282 48.9343 23.9617 48.9213C24.21 48.9116 24.4853 48.9865 24.6474 48.7475C24.8194 48.4939 26.1381 47.8786 26.4855 47.8786C26.8568 47.8786 27.7612 47.2266 28.076 47.0097C28.6759 46.5961 29.3474 46.2615 29.9046 45.6966C30.087 45.5117 30.0181 45.1231 30.1713 44.8856C30.3544 44.6017 30.5925 44.5729 30.8189 44.3643C31.53 43.709 31.897 42.7193 32.6856 42.1437C33.2172 41.7557 35.0277 41.2063 33.8284 40.5025C33.0795 40.0629 32.9141 40.0293 32.9141 39.1508V37.3165C32.9141 36.3912 33.0343 35.4664 33.1585 34.5423M5.85696 42.2744C6.30958 42.0751 6.75699 41.8644 7.19968 41.661C8.97439 40.8458 11.1031 40.3915 12.9902 39.9232C17.1409 38.8932 21.5085 38.2859 25.3141 36.2158C26.7223 35.4498 28.207 35.0723 29.7332 34.6325C30.615 34.3783 31.4924 34.1578 32.3998 34.0146C32.4797 34.002 32.8585 33.914 33.2506 33.8487M33.1585 34.5423C33.1896 34.311 33.2209 34.0799 33.2506 33.8487M33.1585 34.5423C33.8009 34.1427 34.2288 33.8634 34.2094 33.8408C34.1168 33.7336 33.6759 33.7778 33.2506 33.8487M33.1585 34.5423C31.4163 35.6259 28.0968 37.5939 27.8474 37.7219C24.7507 39.312 21.7957 41.1717 18.7807 42.9065C17.4408 43.6774 16.1858 44.6252 15.1616 45.7932C14.5383 46.5041 15.9235 46.9903 16.3712 46.9903C17.5661 46.9903 18.8495 46.1993 19.9807 45.8704C22.1915 45.2276 24.3903 44.594 26.5903 43.9009C26.9967 43.7728 28.7782 42.2737 28.9712 42.6651M33.2506 33.8487C33.3092 33.3934 33.3617 32.9382 33.3942 32.4831M33.3942 32.4831C33.4157 32.1826 33.4284 31.8821 33.4284 31.5816C33.4284 30.405 33.4319 28.9955 33.6094 27.826C33.717 27.1167 33.9427 26.3829 33.9427 25.6344L33.9427 25.9769C33.9428 27.007 33.943 28.0225 33.7617 29.0328C33.5843 30.0221 33.6128 31.0205 33.4665 32.0257C33.4445 32.1772 33.4193 32.3298 33.3942 32.4831ZM33.3942 32.4831C33.3252 32.905 33.257 33.3321 33.257 33.7539V31.4368C33.257 30.0198 33.5475 28.6161 33.5998 27.2371C33.6182 26.7529 33.6971 26.1029 33.5998 25.6344C33.5598 25.4416 33.2783 25.3243 32.9473 25.2511M32.9473 25.2511C32.5259 25.1581 32.0243 25.1367 31.8379 25.1227C31.5745 25.1029 30.8824 25.3898 31.0474 25.1806C31.1733 25.0212 31.3163 24.9432 31.4058 24.9093M32.9473 25.2511C33.152 25.1597 33.3568 25.0686 33.5617 24.9779C33.9515 24.8054 34.4818 24.5917 33.7522 24.5917C32.6616 24.5917 31.1136 24.2643 30.057 24.669C30.0425 24.6745 30.0281 24.68 30.0137 24.6855M31.4058 24.9093C31.5059 24.8713 31.539 24.8887 31.4058 24.9093ZM31.4058 24.9093C31.3136 24.9235 31.1416 24.9393 30.857 24.9393C30.4112 24.9393 30.1765 24.8389 30.0137 24.6855M30.0137 24.6855C29.7259 24.4143 29.6632 23.9773 29.057 23.6359C28.6721 23.4192 28.5857 22.9941 28.076 22.8153C27.3893 22.5743 27.6917 22.2639 27.5903 21.6471C27.4921 21.0497 26.5543 21.3499 26.1903 20.9809C25.8937 20.6803 25.5271 20.2629 25.1998 20.0348C24.0771 19.2523 22.2193 19.3782 20.8188 19.3782H16.495C14.7998 19.3782 13.1879 20.1035 11.5997 20.5947C10.936 20.8 9.89744 21.4761 9.78065 22.2457C9.63881 23.1803 9.3405 23.53 8.91398 24.3407C8.59765 24.942 7.98942 25.314 7.58064 25.8468C7.5301 25.9127 9.04485 25.2312 9.26636 25.1324C10.3119 24.666 11.4735 24.5704 12.5235 24.138C14.535 23.3096 16.5615 22.9757 18.6664 22.4677C20.0893 22.1243 21.6776 21.4881 23.1236 21.4636C24.759 21.436 23.387 22.249 22.476 22.7477C19.2941 24.4895 16.1271 26.27 12.8188 27.7584C10.158 28.9555 7.74424 30.6915 5.43777 32.4795C4.9321 32.8715 4.85774 33.7626 4.38062 34.2463C4.18386 34.4458 3.8446 34.7601 3.73299 35.0187C3.6428 35.2276 4.18149 34.9318 4.38062 34.8256C5.45712 34.2512 6.54548 33.6837 7.59968 33.0684C11.9264 30.5431 16.3107 28.7456 21.1807 27.546C24.2562 26.7885 27.0707 25.8116 30.0137 24.6855ZM66 2H61.0285C60.1661 2 59.4544 2.69513 58.6381 2.69513C57.2749 2.69513 55.91 3.53396 54.6476 3.91161C54.103 4.07451 53.481 4.02635 52.9904 4.34606C52.6376 4.57598 52.6284 4.69308 52.1809 4.79983C51.6459 4.92743 51.2843 5.33675 50.7237 5.43703C50.1277 5.54365 49.6112 5.68621 49.0285 5.86183C47.7331 6.25222 46.9446 7.22458 46.1332 8.14997C45.8204 8.50666 45.8188 8.76891 45.4285 9.12508C44.8793 9.62608 44.3554 10.0648 43.7999 10.5153C43.0441 11.1282 42.4588 11.7872 41.7332 12.4559C41.5514 12.6235 41.392 12.8243 41.2401 13.0354M41.2401 13.0354C40.9708 13.4096 40.7249 13.8159 40.4189 14.1262C40.1354 14.4135 39.4384 14.5764 39.276 14.9468C39.1374 15.263 38.8783 15.5104 38.5788 15.7369M41.2401 13.0354C43.7595 11.2235 46.7722 8.9794 45.4285 10.3416C44.9656 10.8108 44.46 11.0955 43.9713 11.4808C43.5797 11.7896 43.537 12.0866 43.238 12.4656C42.4229 13.4984 41.3371 14.1449 40.4189 15.1688C39.7967 15.8627 40.4181 17.1644 40.076 17.988C39.8825 18.4538 39.3653 19.0336 39.2665 19.4844C39.1718 19.9164 39.2162 20.5401 38.9903 20.9326C38.915 21.0635 38.8335 21.186 38.7465 21.301M41.2401 13.0354C40.3717 13.6599 39.5619 14.2331 39.0094 14.5896C38.7025 14.7876 38.6041 15.3072 38.5788 15.7369M38.5788 15.7369C38.0135 16.1646 37.3043 16.5178 36.9903 17.1191C36.4237 18.204 35.6124 19.7204 35.4855 20.9423C35.4488 21.2965 35.3256 21.8324 35.1808 22.1588C34.8912 22.8111 33.954 23.8765 35.2379 23.3559C36.5496 22.824 37.9061 22.4118 38.7465 21.301M38.5788 15.7369C38.5733 15.8299 38.5713 15.9187 38.5713 15.9991C38.5713 17.7094 38.7159 19.4048 38.7427 21.1161C38.7437 21.1778 38.7449 21.2394 38.7465 21.301M38.7465 21.301C38.7913 23.0552 39.0736 24.7756 39.0852 26.5375M39.0852 26.5375C39.0854 26.5744 39.0856 26.6112 39.0856 26.6481C39.0856 27.2975 38.8342 28.8479 39.4665 29.2838C41.0443 30.3715 40.8033 26.7497 40.5237 26.6868C40.1324 26.5986 39.5642 26.4749 39.0852 26.5375ZM39.0852 26.5375C38.894 26.5625 38.717 26.6172 38.5713 26.7157C38.0802 27.0476 38.2686 28.3508 37.9617 28.8397C37.7025 29.2527 37.2238 29.4179 36.9903 29.8824C36.7209 30.4185 36.6855 30.9218 36.6855 31.5044V39.0253C36.6855 39.9337 37.5226 40.1863 37.8475 40.9273C38.1618 41.6442 38.292 42.4925 38.9713 42.9933C39.2155 43.1734 39.4098 43.9075 39.4284 44.2291C39.4511 44.6197 40.416 44.9723 40.6284 45.3491C41.0692 46.1309 42.8242 45.9481 43.4856 45.967C44.4367 45.9941 44.6872 46.2649 45.3332 46.8262C45.4856 46.9587 45.7616 47.0594 45.8666 47.2221C46.0834 47.5583 45.7983 47.8495 46.2856 47.8786C46.3961 47.8852 46.4587 47.9565 46.5247 48.0322M46.5247 48.0322C46.595 48.1129 46.6692 48.1987 46.8094 48.2165C47.2667 48.2744 47.7692 48.237 48.2285 48.2261C49.4242 48.1979 47.7955 48.0523 47.4189 48.0523C47.1245 48.0523 46.826 48.0445 46.5247 48.0322ZM46.5247 48.0322C45.4057 47.9864 44.2481 47.8786 43.1142 47.8786C42.9734 47.8786 41.7682 47.6336 42.2856 47.7434C43.143 47.9253 43.9573 48.2346 44.7999 48.4675C45.2004 48.5782 45.6838 48.4717 46.0475 48.6702C47.2704 49.3378 49.4865 48.9867 50.8761 49.095C51.9002 49.1749 52.9681 49.095 54.0571 49.095C55.5455 49.095 57.5457 48.1633 58.7619 47.3572C59.6628 46.7601 60.5635 46.1033 61.5428 45.5808C62.7187 44.9534 62.5841 43.3023 63.1714 42.2306C63.2574 42.0737 63.3214 41.9078 63.3757 41.7375M63.3757 41.7375C63.4978 41.3548 63.5707 40.9506 63.7333 40.5797C63.9089 40.1792 64.1642 39.6642 64.2762 39.2667C64.8006 37.4062 64.9714 35.1885 64.9714 33.2808C64.9714 33.2385 64.9742 33.1965 64.9792 33.1549M63.3757 41.7375C62.7634 41.9155 62.1627 42.1184 61.5428 42.2306C59.9985 42.5102 58.4452 42.6546 56.8952 43.0127C55.2423 43.3944 53.6727 44.0507 52.0761 44.6153C50.9477 45.0143 49.9431 45.6601 48.7618 45.8801C47.6354 46.0898 46.5838 46.1407 45.438 46.1407C45.227 46.1407 45.9441 45.7838 46.057 45.7159C47.2967 44.9704 48.2613 44.1097 49.1999 43.0223C50.204 41.859 51.5955 41.3545 52.8571 40.5604C56.1691 38.4755 59.8433 37.1173 62.8952 34.6035C63.2596 34.3034 64.2506 33.7465 64.9792 33.1549M63.3757 41.7375C63.785 41.6185 64.1996 41.5107 64.6286 41.4486M64.9792 33.1549C65.0288 32.7414 65.3011 32.3662 65.3138 32.0036M64.9792 33.1549C65.1012 33.0558 65.2159 32.9557 65.3191 32.8557M65.3138 32.0036C65.3141 31.9949 65.3143 31.9862 65.3143 31.9775V31.8906C65.3143 31.9262 65.3141 31.964 65.3138 32.0036ZM65.3138 32.0036C65.3122 32.2411 65.3072 32.5453 65.3191 32.8557M65.3191 32.8557C65.3391 33.3788 65.407 33.9196 65.6191 34.1884C65.6316 34.2042 65.643 34.2205 65.6533 34.2371M65.3191 32.8557C65.5473 32.6344 65.719 32.4135 65.7889 32.2042M65.6533 34.2371C65.8534 34.5572 65.6574 34.9693 65.6533 34.2371ZM65.6533 34.2371C65.6529 34.1722 65.6541 34.0983 65.6571 34.0146C65.6788 33.423 65.7453 32.8172 65.7889 32.2042M65.7889 32.2042C65.7966 32.0958 65.8036 31.9871 65.8095 31.8782M65.7889 32.2042C65.8036 32.1603 65.8138 32.1168 65.819 32.074C65.8286 31.9963 65.8248 31.9315 65.8095 31.8782M65.8095 31.8782C65.8212 31.6609 65.8286 31.4429 65.8286 31.2244C65.8286 30.904 65.9836 29.9093 65.7905 29.67C65.5911 29.423 65.5804 28.525 65.3905 28.4149C64.9341 28.1506 64.3611 27.7244 64.2762 27.2081C64.1847 26.6518 63.3226 26.3542 62.9524 26.0206C62.3751 25.5004 62.4 25.5494 62.4 24.6786C62.4 24.3517 62.5407 23.6116 62.2286 23.4139C61.7777 23.1282 60.8387 22.6582 60.6762 22.0815C60.4211 21.1764 58.9714 21.5364 58.9714 20.334C58.9714 19.2419 56.8475 19.552 56.1238 19.552C54.51 19.552 52.8744 19.2045 51.219 19.2045C49.2277 19.2045 47.3104 19.3109 45.4665 20.112C44.0512 20.7269 42.5047 21.2467 41.1522 21.985C40.6257 22.2724 40.0111 22.9197 39.8094 23.5104C39.7321 23.7367 39.8578 24.0718 39.6665 24.2442C39.4497 24.4395 39.1038 24.607 39.0856 24.9393C39.0788 25.0625 39.0272 25.4301 39.1046 25.5282C39.2083 25.6596 41.4222 24.5915 41.6665 24.4952C45.032 23.1684 48.6537 22.3692 52.1523 21.5023C52.3155 21.4618 52.7139 21.329 53.0691 21.2053M65.8095 31.8782C65.63 31.2543 63.8761 32.1939 63.6 32.2381C62.351 32.4381 61.4154 33.0584 60.2476 33.445C58.1931 34.125 56.1473 34.6974 54.1618 35.5883C53.0014 36.109 51.8945 36.8031 50.7237 37.2778C48.4854 38.1855 46.0861 38.6241 43.7332 39.0929C43.5411 39.1312 40.7083 39.8438 41.3999 39.1894C41.6768 38.9274 42.3215 38.3596 42.3427 37.973C42.3796 37.2998 42.9824 37.1507 43.4665 36.6599C43.7197 36.4033 43.913 36.1325 44.0926 35.8555M53.0691 21.2053C53.4823 21.0615 53.8371 20.9301 53.6952 20.9712C53.4901 21.0307 53.2807 21.1099 53.0691 21.2053ZM53.0691 21.2053C51.6029 21.8668 50.0287 23.3095 49.0189 24.36C48.1796 25.2333 47.4272 26.188 46.5904 27.0633C45.9011 27.7842 44.9382 28.5603 44.457 29.4383C43.6431 30.9234 42.3794 32.2328 41.3046 33.5319C40.2279 34.8333 39.0863 35.7925 38.9141 37.6254C38.8109 38.7239 38.5185 39.0516 39.6951 38.1467C40.5709 37.4732 41.552 37.1071 42.5332 36.6213C43.0522 36.3644 43.572 36.1089 44.0926 35.8555M44.0926 35.8555C45.5821 35.1305 47.0793 34.4224 48.5904 33.7443C51.3656 32.4988 54.8336 31.0541 57 28.7625C57.8647 27.8477 59.1708 27.2074 59.9619 26.2909C60.6669 25.4741 58.1915 27.514 57.2761 28.077C54.6946 29.6649 51.9117 30.936 49.219 32.3154C48.3107 32.7807 47.4162 33.2681 46.5237 33.7636C45.96 34.0765 45.0965 34.3812 44.6951 34.9318C44.4701 35.2403 44.2896 35.5517 44.0926 35.8555Z" stroke="#D9315A" stroke-width="4" stroke-linecap="round"/>
</svg>
