<svg width="52" height="40" viewBox="0 0 52 40" fill="none" xmlns="http://www.w3.org/2000/svg">
<path d="M25.4427 2C23.9487 2 22.5126 2.41751 21.0356 2.51411C20.2687 2.56426 19.7571 3.01495 19.0141 3.14407C18.2203 3.28201 17.5365 3.78829 16.7641 3.96229C16.1809 4.09368 15.6137 4.57377 15.0284 4.60674C14.0211 4.66347 13.2899 5.2035 12.4569 5.7146C11.8353 6.096 11.0416 6.38899 10.5284 6.88039C10.1217 7.26969 9.84782 7.20278 9.36407 7.42346C9.19788 7.49927 8.6751 7.73308 8.72121 7.72758C9.51334 7.63311 10.3128 7.31805 10.9569 6.83694C11.5558 6.38961 12.4288 6.26857 12.9712 5.77977C13.0535 5.70562 13.3806 5.61522 13.2784 5.65667C12.8995 5.8103 12.5227 6.16817 12.2069 6.42421C11.4798 7.01388 10.6221 7.29017 9.81407 7.73482C9.80799 7.73816 9.80196 7.74157 9.79596 7.74504M9.79596 7.74504C9.50474 7.91346 9.30735 8.2262 9.10768 8.53168M9.79596 7.74504C9.88742 7.57565 9.62627 7.71645 9.39978 7.73482C9.18448 7.75228 8.56717 8.45209 8.34263 8.65442C7.8482 9.09995 7.87071 9.2654 7.6712 9.79125C7.65404 9.83648 7.62892 9.88431 7.59725 9.93403M9.79596 7.74504C9.77181 7.78976 9.72308 7.85611 9.64264 7.95205C9.47342 8.15386 9.2937 8.34576 9.10768 8.53168M9.10768 8.53168C9.01982 8.66609 8.93152 8.79909 8.83458 8.91777M9.10768 8.53168C8.80435 8.83482 8.48426 9.12203 8.16558 9.41027M8.83458 8.91777C8.72763 9.04871 8.61017 9.16221 8.4712 9.24093C8.40899 9.27618 8.34412 9.31029 8.27956 9.34561M8.83458 8.91777C8.98573 8.81651 9.14069 8.72551 9.29978 8.64718C9.80661 8.39762 10.653 7.87944 9.94979 8.64718C9.09368 9.58179 8.53511 10.5101 7.80691 11.5436C7.64035 11.7799 7.42715 11.9997 7.23055 12.2273M8.83458 8.91777C8.6437 9.04564 8.4589 9.18988 8.27956 9.34561M8.27956 9.34561C8.24125 9.36657 8.20305 9.38796 8.16558 9.41027M8.27956 9.34561C8.09419 9.50658 7.91466 9.67983 7.74028 9.86M8.16558 9.41027C8.01612 9.49924 7.87817 9.60285 7.79089 9.75228M8.16558 9.41027C8.04009 9.52377 7.91482 9.63743 7.79089 9.75228M7.79089 9.75228C7.77133 9.78577 7.75431 9.82156 7.74028 9.86M7.79089 9.75228C7.72592 9.81249 7.66133 9.87302 7.59725 9.93403M7.74028 9.86C7.72982 9.88866 7.72102 9.91879 7.71406 9.95055C7.64381 10.271 7.82149 10.7208 7.62834 11.0005C7.37017 11.3744 7.35394 11.825 7.23055 12.2273M7.74028 9.86C7.31764 10.2967 6.92522 10.774 6.55321 11.2156M7.23055 12.2273C7.20964 12.2954 7.18566 12.3622 7.15691 12.4269C7.08982 12.5781 6.67119 13.7297 6.67119 13.4045C6.67119 12.937 6.93169 12.5731 7.23055 12.2273ZM6.55321 11.2156C6.46525 11.32 6.37843 11.4224 6.29262 11.5218C5.86804 12.0137 5.58599 12.6073 5.28547 13.18C5.06227 13.6054 5.14556 14.0548 4.89975 14.4834C4.63346 14.9477 4.35689 15.7275 4.35689 16.2719C4.35689 16.9921 2.82377 17.7436 3.09974 16.6557C3.16082 16.4149 3.39767 16.2488 3.44975 16.0112C3.5027 15.7696 3.43571 15.5369 3.52117 15.2944C3.7389 14.6763 3.5545 13.9642 3.81403 13.3393C3.89022 13.1559 3.79749 12.9454 3.84975 12.76C3.92081 12.5079 4.80497 12.0783 5.02833 11.9273C5.44926 11.6428 5.82148 11.484 6.22833 11.1815C6.4044 11.0506 6.6975 10.8316 6.97579 10.5911M6.55321 11.2156C6.67801 10.9975 6.81828 10.7888 6.97579 10.5911M6.55321 11.2156C5.40744 13.2176 5.5646 16.0053 5.64262 18.2197C5.65327 18.5221 5.76195 18.7886 5.87667 19.0514M6.97579 10.5911C7.22768 10.3733 7.46744 10.1379 7.59725 9.93403M6.97579 10.5911C7.07656 10.4646 7.1844 10.3426 7.29977 10.2257C7.39722 10.1269 7.49659 10.0299 7.59725 9.93403M5.87667 19.0514C6.01255 19.3626 6.1569 19.6686 6.1569 20.0227V18.77C6.1569 18.6214 6.13493 18.4175 6.1175 18.1999M5.87667 19.0514C5.95971 18.7682 6.03999 18.4844 6.1175 18.1999M5.87667 19.0514C5.41062 20.6405 4.85784 22.2061 4.22118 23.7228C4.0356 24.1649 3.82608 24.6167 3.73546 25.0913C3.73406 25.0987 3.72537 25.4393 3.70689 25.3737C3.60616 25.0163 3.58546 24.7222 3.58546 24.3455C3.58546 23.1048 3.60721 22.1434 3.09974 21.0002C2.99791 20.7708 2.73301 20.5276 2.4942 20.2844M6.1175 18.1999C6.08671 17.8155 6.07012 17.3883 6.21405 17.148C6.30477 16.9966 6.39917 16.8546 6.49483 16.7189M6.1175 18.1999C6.25159 17.7078 6.37739 17.2138 6.49483 16.7189M6.49483 16.7189C7.06029 15.9162 7.66944 15.3285 7.8212 14.2517C7.8827 13.8152 7.57403 14.3173 7.4712 14.4254C7.03807 14.8808 6.80892 15.3178 6.67119 15.946C6.61468 16.2039 6.55588 16.4615 6.49483 16.7189ZM2.4942 20.2844C2.27718 20.0634 2.08171 19.8424 2.04974 19.6317C1.94216 18.9228 2.04259 18.1297 2.04259 17.4087C2.04259 16.9424 2.81403 16.1572 2.81403 17.148C2.81403 18.2068 2.60437 19.2332 2.4942 20.2844ZM2.4942 20.2844C2.45494 20.659 2.42831 21.0367 2.42831 21.4202C2.42831 22.1766 2.45217 22.9732 2.2926 23.7011C2.10812 24.5426 2.04259 25.5763 2.04259 26.4454C2.04259 26.8384 1.94901 27.4062 2.07117 27.7777C2.17351 28.089 2.4553 28.3261 2.54974 28.6611C2.66855 29.0827 2.9426 29.2944 2.9426 29.7617C2.9426 30.0257 2.9497 30.4061 3.1426 30.6017C3.30336 30.7647 3.82001 31.1426 3.84261 31.3258C3.85257 31.4066 3.8772 31.466 3.91194 31.5101M3.91194 31.5101C4.0699 31.7106 4.43695 31.5952 4.58547 31.7458C4.71033 31.8723 4.80568 32.0338 4.89272 32.2058M3.91194 31.5101C4.56994 30.7541 5.37143 30.0417 6.09262 29.3852C7.21455 28.3639 8.51294 27.4524 9.85693 26.764C12.4613 25.4301 15.14 24.2211 17.7713 22.9408C20.234 21.7424 22.7098 20.5554 25.2104 19.4384M3.91194 31.5101C3.79846 31.6405 3.68925 31.7721 3.58546 31.9051C3.27166 32.3069 2.76483 32.9635 3.68546 32.6726C4.09359 32.5436 4.49582 32.3805 4.89272 32.2058M4.89272 32.2058C5.12902 32.6725 5.30414 33.216 5.84262 33.346C5.88574 33.3564 6.48254 33.4104 6.48548 33.4401C6.52034 33.7935 6.33335 33.969 6.64262 34.2946C6.92648 34.5934 7.14806 34.7503 7.49977 34.8521C7.58831 34.8778 7.62055 35.2007 7.69977 35.3011C7.79756 35.425 8.02449 35.3517 8.16406 35.3735C8.66248 35.4512 8.82321 35.7768 9.27121 35.9165C9.59496 36.0175 9.64138 36.4089 9.95693 36.4089C10.6159 36.4089 10.5813 36.853 11.1998 36.9592C11.6459 37.0359 11.95 37.29 12.3569 37.4226C12.6671 37.5237 13.015 37.3898 13.3284 37.4806C13.8147 37.6214 13.9568 37.973 14.4498 37.973C14.8415 37.973 15.3207 38.05 15.6998 37.944C16.4604 37.7313 17.2639 37.6182 18.0355 37.4444C18.2061 37.4059 18.2212 37.2007 18.4713 37.1909C18.6575 37.1837 18.864 37.2398 18.9856 37.0606C19.1145 36.8704 20.1036 36.4089 20.3641 36.4089C20.6426 36.4089 21.3209 35.92 21.557 35.7572C22.007 35.4471 22.5106 35.1961 22.9284 34.7725C23.0653 34.6337 23.0136 34.3423 23.1284 34.1642C23.2658 33.9513 23.4444 33.9297 23.6142 33.7732C24.1475 33.2817 24.4227 32.5395 25.0142 32.1078C25.4129 31.8168 26.7708 31.4048 25.8713 30.8768C25.3096 30.5472 25.1856 30.522 25.1856 29.8631V28.4873C25.1856 27.7934 25.2757 27.0998 25.3689 26.4067M4.89272 32.2058C5.23218 32.0563 5.56774 31.8983 5.89976 31.7458C7.23079 31.1344 8.82735 30.7936 10.2426 30.4424C13.3557 29.6699 16.6314 29.2144 19.4856 27.6619C20.5417 27.0874 21.6552 26.8043 22.7999 26.4744C23.4612 26.2837 24.1193 26.1184 24.7999 26.0109C24.8598 26.0015 25.1439 25.9355 25.438 25.8865M25.3689 26.4067C25.3922 26.2333 25.4156 26.0599 25.438 25.8865M25.3689 26.4067C25.8507 26.107 26.1716 25.8975 26.157 25.8806C26.0876 25.8002 25.7569 25.8334 25.438 25.8865M25.3689 26.4067C24.0622 27.2194 21.5726 28.6954 21.3856 28.7915C19.063 29.984 16.8468 31.3788 14.5855 32.6798C13.5806 33.258 12.6393 33.9689 11.8712 34.8449C11.4037 35.3781 12.4426 35.7428 12.7784 35.7428C13.6746 35.7428 14.6371 35.1495 15.4855 34.9028C17.1436 34.4207 18.7927 33.9455 20.4427 33.4257C20.7475 33.3296 22.0837 32.2053 22.2284 32.4988M25.438 25.8865C25.4819 25.545 25.5213 25.2036 25.5457 24.8624M25.5457 24.8624C25.5618 24.6369 25.5713 24.4115 25.5713 24.1862C25.5713 23.3038 25.5739 22.2466 25.707 21.3695C25.7878 20.8375 25.957 20.2872 25.957 19.7258L25.957 19.9827C25.9571 20.7553 25.9572 21.5169 25.8213 22.2746C25.6882 23.0166 25.7096 23.7654 25.5999 24.5193C25.5834 24.6329 25.5645 24.7473 25.5457 24.8624ZM25.5457 24.8624C25.4939 25.1787 25.4427 25.4991 25.4427 25.8154V24.0776C25.4427 23.0149 25.6606 21.9621 25.6999 20.9278C25.7137 20.5647 25.7728 20.0772 25.6999 19.7258C25.6699 19.5812 25.4587 19.4932 25.2104 19.4384M25.2104 19.4384C24.8945 19.3686 24.5183 19.3525 24.3784 19.342C24.1808 19.3272 23.6618 19.5423 23.7856 19.3855C23.8799 19.2659 23.9872 19.2074 24.0544 19.182M25.2104 19.4384C25.364 19.3698 25.5176 19.3015 25.6713 19.2334C25.9636 19.104 26.3613 18.9438 25.8142 18.9438C24.9962 18.9438 23.8352 18.6982 23.0427 19.0017C23.0319 19.0059 23.0211 19.01 23.0103 19.0141M24.0544 19.182C24.1294 19.1535 24.1542 19.1665 24.0544 19.182ZM24.0544 19.182C23.9852 19.1926 23.8562 19.2045 23.6427 19.2045C23.3084 19.2045 23.1323 19.1292 23.0103 19.0141M23.0103 19.0141C22.7945 18.8107 22.7474 18.483 22.2927 18.2269C22.0041 18.0644 21.9393 17.7456 21.557 17.6115C21.042 17.4307 21.2688 17.1979 21.1927 16.7353C21.119 16.2873 20.4157 16.5124 20.1427 16.2357C19.9203 16.0102 19.6453 15.6971 19.3998 15.5261C18.5578 14.9392 17.1645 15.0337 16.1141 15.0337H12.8712C11.5999 15.0337 10.3909 15.5777 9.19978 15.946C8.702 16.1 7.92308 16.6071 7.83549 17.1842C7.72911 17.8852 7.50537 18.1475 7.18548 18.7555C6.94823 19.2065 6.49207 19.4855 6.18548 19.8851C6.14757 19.9345 7.28363 19.4234 7.44977 19.3493C8.23391 18.9995 9.10515 18.9278 9.89264 18.6035C11.4012 17.9822 12.9211 17.7318 14.4998 17.3508C15.567 17.0932 16.7582 16.616 17.8427 16.5977C19.0693 16.577 18.0403 17.1867 17.357 17.5608C14.9706 18.8671 12.5953 20.2025 10.1141 21.3188C8.11849 22.2166 6.30818 23.5186 4.57832 24.8596C4.19908 25.1536 4.14331 25.822 3.78546 26.1847C3.6379 26.3343 3.38345 26.57 3.29974 26.764C3.2321 26.9207 3.63612 26.6989 3.78546 26.6192C4.59284 26.1884 5.40911 25.7628 6.19976 25.3013C9.44482 23.4073 12.733 22.0592 16.3855 21.1595C18.6921 20.5913 20.803 19.8587 23.0103 19.0141ZM50 2H46.2714C45.6246 2 45.0908 2.52135 44.4785 2.52135C43.4562 2.52135 42.4325 3.15047 41.4857 3.4337C41.0772 3.55589 40.6108 3.51976 40.2428 3.75955C39.9782 3.93198 39.9713 4.01981 39.6357 4.09987C39.2344 4.19557 38.9632 4.50256 38.5428 4.57777C38.0958 4.65774 37.7084 4.76466 37.2714 4.89637C36.2999 5.18916 35.7085 5.91843 35.0999 6.61247C34.8653 6.87999 34.8641 7.07668 34.5713 7.34381C34.1595 7.71956 33.7665 8.04863 33.3499 8.3865C32.7831 8.84618 32.3441 9.34042 31.7999 9.84193C31.6635 9.9676 31.544 10.1182 31.4301 10.2766M31.4301 10.2766C31.2281 10.5572 31.0437 10.862 30.8142 11.0946C30.6016 11.3101 30.0788 11.4323 29.957 11.7101C29.853 11.9473 29.6587 12.1328 29.4341 12.3027M31.4301 10.2766C33.3196 8.91762 35.5791 7.23455 34.5713 8.25617C34.2242 8.60807 33.845 8.82164 33.4785 9.1106C33.1848 9.34217 33.1527 9.56498 32.9285 9.84917C32.3172 10.6238 31.5029 11.1087 30.8142 11.8766C30.3475 12.397 30.8136 13.3733 30.557 13.991C30.4119 14.3404 30.024 14.7752 29.9499 15.1133C29.8789 15.4373 29.9121 15.9051 29.7427 16.1995C29.6862 16.2976 29.6251 16.3895 29.5599 16.4758M31.4301 10.2766C30.7788 10.7449 30.1715 11.1748 29.757 11.4422C29.5268 11.5907 29.4531 11.9804 29.4341 12.3027M29.4341 12.3027C29.0101 12.6234 28.4782 12.8883 28.2427 13.3393C27.8178 14.153 27.2093 15.2903 27.1141 16.2067C27.0866 16.4723 26.9942 16.8743 26.8856 17.1191C26.6684 17.6083 25.9655 18.4074 26.9284 18.0169C27.9122 17.618 28.9296 17.3089 29.5599 16.4758M29.4341 12.3027C29.43 12.3725 29.4284 12.4391 29.4284 12.4994C29.4284 13.7821 29.5369 15.0536 29.557 16.337C29.5577 16.3833 29.5587 16.4296 29.5599 16.4758M29.5599 16.4758C29.5935 17.7914 29.8052 19.0817 29.8139 20.4031M29.8139 20.4031C29.8141 20.4308 29.8142 20.4584 29.8142 20.4861C29.8142 20.9731 29.6256 22.136 30.0999 22.4629C31.2832 23.2786 31.1024 20.5623 30.8927 20.5151C30.5993 20.449 30.1731 20.3562 29.8139 20.4031ZM29.8139 20.4031C29.6705 20.4219 29.5378 20.4629 29.4284 20.5368C29.0601 20.7857 29.2015 21.7631 28.9713 22.1298C28.7769 22.4395 28.4178 22.5634 28.2427 22.9118C28.0407 23.3139 28.0142 23.6914 28.0142 24.1283V29.769C28.0142 30.4502 28.6419 30.6397 28.8856 31.1954C29.1213 31.7331 29.219 32.3694 29.7284 32.745C29.9116 32.8801 30.0573 33.4307 30.0713 33.6718C30.0883 33.9648 30.812 34.2292 30.9713 34.5118C31.3019 35.0982 32.6182 34.9611 33.1142 34.9752C33.8275 34.9956 34.0154 35.1987 34.4999 35.6197C34.6142 35.719 34.8212 35.7945 34.8999 35.9165C35.0625 36.1687 34.8487 36.3871 35.2142 36.4089C35.2971 36.4139 35.344 36.4673 35.3935 36.5241M35.3935 36.5241C35.4462 36.5847 35.5019 36.649 35.6071 36.6623C35.95 36.7058 36.3269 36.6777 36.6713 36.6696C37.5682 36.6485 36.3466 36.5393 36.0642 36.5393C35.8433 36.5393 35.6195 36.5334 35.3935 36.5241ZM35.3935 36.5241C34.5543 36.4898 33.686 36.4089 32.8356 36.4089C32.7301 36.4089 31.8262 36.2252 32.2142 36.3075C32.8572 36.444 33.468 36.6759 34.0999 36.8506C34.4003 36.9337 34.7628 36.8538 35.0356 37.0027C35.9528 37.5033 37.6149 37.24 38.6571 37.3213C39.4251 37.3812 40.2261 37.3213 41.0428 37.3213C42.1591 37.3213 43.6593 36.6225 44.5714 36.0179C45.2471 35.5701 45.9226 35.0775 46.6571 34.6856C47.539 34.215 47.4381 32.9767 47.8786 32.173C47.943 32.0553 47.9911 31.9308 48.0318 31.8031M48.0318 31.8031C48.1234 31.5161 48.178 31.2129 48.3 30.9348C48.4317 30.6344 48.6231 30.2481 48.7071 29.95C49.1004 28.5546 49.2286 26.8914 49.2286 25.4606C49.2286 25.4288 49.2306 25.3974 49.2344 25.3662M48.0318 31.8031C47.5725 31.9366 47.122 32.0888 46.6571 32.173C45.4989 32.3826 44.3339 32.491 43.1714 32.7595C41.9317 33.0458 40.7545 33.538 39.5571 33.9615C38.7108 34.2607 37.9573 34.7451 37.0714 34.91C36.2265 35.0674 35.4378 35.1055 34.5785 35.1055C34.4202 35.1055 34.9581 34.8379 35.0428 34.7869C35.9725 34.2278 36.696 33.5823 37.3999 32.7667C38.153 31.8942 39.1966 31.5159 40.1428 30.9203C42.6269 29.3566 45.3824 28.3379 47.6714 26.4526C47.9447 26.2276 48.6879 25.8099 49.2344 25.3662M48.0318 31.8031C48.3388 31.7139 48.6497 31.6331 48.9714 31.5865M49.2344 25.3662C49.2716 25.0561 49.4758 24.7746 49.4854 24.5027M49.2344 25.3662C49.3259 25.2918 49.4119 25.2168 49.4893 25.1418M49.4854 24.5027C49.4856 24.4962 49.4857 24.4896 49.4857 24.4831V24.4179C49.4857 24.4447 49.4856 24.473 49.4854 24.5027ZM49.4854 24.5027C49.4841 24.6808 49.4804 24.909 49.4893 25.1418M49.4893 25.1418C49.5043 25.5341 49.5552 25.9397 49.7143 26.1413C49.7237 26.1532 49.7322 26.1654 49.74 26.1778M49.4893 25.1418C49.6605 24.9758 49.7892 24.8101 49.8417 24.6532M49.74 26.1778C49.89 26.4179 49.7431 26.727 49.74 26.1778ZM49.74 26.1778C49.7397 26.1291 49.7406 26.0737 49.7429 26.0109C49.7591 25.5672 49.809 25.1129 49.8417 24.6532M49.8417 24.6532C49.8474 24.5718 49.8527 24.4903 49.8571 24.4086M49.8417 24.6532C49.8527 24.6202 49.8603 24.5876 49.8643 24.5555C49.8715 24.4972 49.8686 24.4486 49.8571 24.4086M49.8571 24.4086C49.8659 24.2457 49.8714 24.0822 49.8714 23.9183C49.8714 23.678 49.9877 22.9319 49.8429 22.7525C49.6933 22.5672 49.6853 21.8937 49.5429 21.8112C49.2006 21.6129 48.7708 21.2933 48.7071 20.9061C48.6385 20.4889 47.9919 20.2656 47.7143 20.0154C47.2813 19.6253 47.3 19.662 47.3 19.009C47.3 18.7638 47.4055 18.2087 47.1714 18.0604C46.8333 17.8462 46.129 17.4936 46.0071 17.0611C45.8158 16.3823 44.7285 16.6523 44.7285 15.7505C44.7285 14.9314 43.1356 15.164 42.5928 15.164C41.3825 15.164 40.1558 14.9033 38.9142 14.9033C37.4208 14.9033 35.9828 14.9832 34.5999 15.584C33.5384 16.0452 32.3785 16.4351 31.3642 16.9887C30.9693 17.2043 30.5083 17.6898 30.357 18.1328C30.2991 18.3025 30.3933 18.5538 30.2499 18.6831C30.0873 18.8296 29.8278 18.9553 29.8142 19.2045C29.8091 19.2968 29.7704 19.5725 29.8284 19.6462C29.9062 19.7447 31.5666 18.9436 31.7499 18.8714C34.274 17.8763 36.9903 17.2769 39.6142 16.6267C39.7366 16.5964 40.0354 16.4967 40.3018 16.404M49.8571 24.4086C49.7225 23.9407 48.4071 24.6455 48.2 24.6786C47.2633 24.8285 46.5615 25.2938 45.6857 25.5837C44.1448 26.0938 42.6104 26.5231 41.1214 27.1912C40.251 27.5817 39.4209 28.1023 38.5428 28.4584C36.864 29.1391 35.0646 29.4681 33.2999 29.8197C33.1558 29.8484 31.0312 30.3828 31.5499 29.8921C31.7576 29.6955 32.2411 29.2697 32.257 28.9797C32.2847 28.4748 32.7368 28.363 33.0999 27.995C33.2898 27.8025 33.4348 27.5994 33.5695 27.3916M40.3018 16.404C40.6118 16.2961 40.8779 16.1976 40.7714 16.2284C40.6176 16.273 40.4605 16.3324 40.3018 16.404ZM40.3018 16.404C39.2022 16.9001 38.0215 17.9821 37.2642 18.77C36.6347 19.425 36.0704 20.141 35.4428 20.7975C34.9258 21.3381 34.2036 21.9203 33.8428 22.5787C33.2323 23.6926 32.2845 24.6746 31.4785 25.6489C30.6709 26.625 29.8147 27.3444 29.6856 28.719C29.6082 29.5429 29.3889 29.7887 30.2713 29.1101C30.9281 28.6049 31.664 28.3303 32.3999 27.966C32.7892 27.7733 33.179 27.5817 33.5695 27.3916M33.5695 27.3916C34.6866 26.8479 35.8095 26.3168 36.9428 25.8082C39.0242 24.8741 41.6252 23.7906 43.25 22.0719C43.8985 21.3858 44.8781 20.9055 45.4714 20.2182C46.0002 19.6056 44.1436 21.1355 43.4571 21.5578C41.5209 22.7486 39.4338 23.702 37.4142 24.7365C36.733 25.0855 36.0621 25.4511 35.3928 25.8227C34.97 26.0574 34.3224 26.2859 34.0213 26.6988C33.8526 26.9302 33.7172 27.1638 33.5695 27.3916Z" stroke="#D9315A" stroke-width="4" stroke-linecap="round"/>
</svg>
