<svg width="428" height="475" viewBox="0 0 428 475" fill="none" xmlns="http://www.w3.org/2000/svg">
<path opacity="0.05" d="M4.49392 460.848C4.56452 459.652 4.63513 458.526 4.70573 457.33C4.84694 455.572 4.84694 455.149 4.49392 454.657C3.85849 453.813 3.78789 453.461 4.56452 452.828C6.18839 451.561 6.75322 450.154 5.55297 448.395C5.05875 447.691 5.48236 446.988 5.41176 446.284C6.4708 445.721 6.11779 445.088 5.55297 444.385C5.34116 444.103 5.41176 443.54 5.19995 443.259C4.91754 442.837 4.91754 442.696 5.19995 442.274C5.97658 441.148 6.18839 439.882 5.34116 438.756C4.63513 437.771 5.69417 436.294 4.28211 435.66C4.28211 435.098 4.42332 434.464 4.35272 433.902C4.35272 433.268 4.56452 432.846 5.05875 432.424C5.34116 432.213 5.48236 431.439 5.34116 431.298C4.56452 430.595 4.63513 429.821 4.63513 428.906C4.63513 427.218 5.41176 425.459 4.14091 423.911C3.9997 423.77 4.14091 423.348 4.14091 423.066C4.14091 420.956 4.98814 418.775 3.64669 416.805L3.85849 413.709C2.37583 412.02 3.22307 410.121 3.36427 408.292C3.43488 407.025 2.79945 406.11 2.65824 405.055C2.51704 403.929 2.72885 402.733 2.79945 401.537C2.87005 400.341 3.08186 399.215 3.01126 398.019C3.01126 397.386 2.44644 396.753 2.30523 396.12C2.16402 395.627 2.58764 394.924 2.02282 394.502C1.45799 394.079 1.5286 393.517 1.5992 392.954C1.74041 391.335 1.88161 389.717 1.88161 388.099C1.88161 387.114 2.37583 386.059 1.38739 385.214C1.17558 385.003 1.24618 384.37 1.31679 384.018C1.38739 382.541 1.45799 381.063 1.5992 379.656C1.5992 378.812 1.74041 377.968 1.03438 377.264C0.751964 376.983 0.751964 375.998 1.03438 375.646C1.45799 374.942 2.23463 374.45 1.10498 373.676C1.17558 372.48 1.10498 371.284 1.38739 370.158C1.74041 368.962 0.18714 368.61 0.540155 367.344C0.89317 366.288 0.751964 365.022 0.822567 363.826C0.89317 362.208 1.03438 360.589 1.10498 358.971C1.10498 358.197 0.963773 357.634 0.610758 357.001C0.116537 356.016 0.328346 354.82 0.963773 353.765C1.74041 352.569 1.6698 352.498 1.10498 351.091C1.10498 350.951 0.89317 350.88 0.822567 350.739C0.469552 349.684 1.31679 348.488 0.398949 347.433C-0.448286 346.448 0.328346 345.181 0.257743 344.056C0.257743 343.704 0.681361 343.352 0.89317 343C1.03438 342.648 1.31679 341.945 1.24618 341.874C0.257743 341.101 0.540155 340.045 0.610758 339.06C0.681361 337.583 0.89317 336.105 0.89317 334.698C0.822567 332.587 1.95221 330.406 0.469552 328.366C0.18714 328.014 0.469552 327.24 0.469552 326.607C0.751964 322.526 1.10498 318.375 1.17558 314.294C1.17558 311.902 2.30523 309.44 0.822567 307.118C0.540155 306.696 0.822567 305.992 0.822567 305.359L1.24618 298.746C1.31679 297.55 1.38739 296.424 1.45799 295.228C1.45799 294.243 1.88161 293.187 0.822567 292.413C1.88161 291.639 1.74041 290.443 1.81101 289.318C1.81101 288.192 2.23463 287.066 1.17558 286.081C0.89317 285.8 1.10498 284.885 1.31679 284.393C2.30523 282.001 2.30523 282.001 1.81101 278.412C1.81101 278.201 1.95221 277.99 2.09342 277.779C2.87005 276.794 2.94066 275.598 2.44644 274.543C2.16402 273.839 1.88161 273.276 1.95221 272.573C2.65824 262.16 3.29367 251.747 3.9291 241.405C3.9291 240.56 4.35272 240.068 4.91754 239.646C3.36427 238.168 4.49392 236.339 4.42332 234.721C4.42332 232.962 4.63513 231.203 4.70573 229.444L5.05875 224.167C5.05875 223.112 5.19995 222.127 5.27055 221.071C5.27055 220.438 5.55297 220.016 5.97658 219.594C6.18839 219.383 6.3296 218.75 6.18839 218.468C5.97658 217.976 5.41176 217.694 5.48236 216.991C5.69417 215.091 5.76478 213.191 6.04719 211.362C6.04719 211.01 6.75322 210.729 6.75322 210.377C6.96503 208.196 7.03563 206.015 7.17683 203.764C6.04719 202.708 6.54141 201.371 6.4708 200.105C6.4002 198.909 7.74166 198.276 7.60045 197.009C7.45925 195.743 7.74166 194.406 7.81226 193.069L8.23588 186.034L8.51829 182.094C8.58889 180.897 8.7301 179.772 8.7301 178.576C8.7301 177.661 9.08311 176.957 9.71854 176.324C10.001 176.043 10.0716 174.917 9.71854 174.706C8.8007 173.862 9.01251 172.877 9.08312 171.892C9.43613 166.474 9.85975 161.057 10.0716 155.639C10.1422 153.388 11.2012 151.136 9.71854 148.885C9.36553 148.393 9.71854 147.478 9.78915 146.704C10.1422 140.724 10.5658 134.673 10.9188 128.693C10.9188 127.848 11.2012 126.934 10.2834 126.3C10.1422 126.16 10.0716 125.597 10.2834 125.526C11.6248 124.471 11.2718 122.923 11.413 121.516C11.5542 120.039 11.6248 118.561 11.6954 117.154C11.6954 116.802 11.413 116.38 11.2012 116.028C10.9659 115.512 10.9894 115.02 11.2718 114.551C11.2718 114.551 11.8366 113.847 11.9072 113.495C12.0484 112.159 12.119 110.892 12.2603 109.555C13.7429 108.5 13.1075 106.952 13.3193 105.545C13.5311 104.208 13.5311 102.942 13.6017 101.605C13.6017 100.479 15.0138 99.8461 14.7314 98.5093C14.5195 97.5243 14.802 96.469 14.8726 95.4136C14.9432 94.2176 14.8726 93.0215 15.155 91.8958C15.2962 91.1218 15.861 90.4183 16.1434 89.6443C16.3552 89.0111 16.214 88.1669 16.567 87.604C16.8494 87.1115 17.3437 86.9004 16.7082 86.3376C16.4964 86.1265 16.3552 85.2822 16.4964 85.2119C17.3437 84.649 17.4849 83.8751 17.4849 82.9604C17.4849 81.8347 17.4849 80.6386 18.5439 79.8647C18.6145 78.3872 18.6851 76.9097 18.8263 75.5026C18.9675 74.0251 19.1087 72.6179 19.1793 71.1404C20.662 70.5776 19.4618 68.5372 20.9444 67.8337C21.2268 67.6929 21.368 66.4969 21.1562 66.2154C20.0972 64.8787 20.5208 63.4715 20.5914 62.0644C20.5914 61.7126 21.015 61.3608 21.2268 61.009C21.368 60.6572 21.6504 59.9537 21.5798 59.8833C20.5914 59.1094 20.8738 58.054 20.9444 57.069C21.015 55.873 20.9444 54.6769 21.2268 53.5512C21.5092 52.6365 20.0266 52.2847 20.8738 51.4405C21.5798 50.7369 21.6504 49.6815 22.5683 49.0483C23.2743 48.5558 24.0509 48.2744 24.757 47.9226C25.9572 47.2894 27.3693 46.8673 28.3577 45.7415C28.9226 45.1083 28.9932 44.3344 28.8519 43.7715C28.7107 43.068 27.7223 42.4348 28.9932 41.8719C28.9932 41.0276 29.205 40.6758 30.1934 40.5351C30.97 40.3944 31.5349 39.128 32.2409 39.128C33.4411 39.128 33.5117 38.4244 33.8648 37.6505C34.2178 36.8765 37.1125 35.8212 37.9597 35.8212C38.6658 35.8212 39.4424 35.8212 40.1484 35.9619C41.2075 36.173 41.8429 35.6805 42.4077 35.0473C43.1137 34.203 43.5374 34.6955 43.961 35.2583C43.961 35.2583 44.1728 35.1176 44.2434 35.0473C45.02 34.5548 45.5142 33.3587 46.7851 33.7105C47.6323 33.9216 48.5502 33.5698 49.115 34.5548C49.115 34.5548 49.6092 34.5548 49.6798 34.3437C49.8916 33.9919 49.9622 33.218 50.1034 33.218C51.0919 33.218 52.1509 33.0773 53.0688 33.4291C55.8929 34.5548 56.3165 34.6251 58.7876 33.5698C59.07 33.4291 59.2818 33.3587 59.5642 33.218C60.6233 32.5848 61.0469 31.3887 60.3409 30.3333C59.8467 29.6298 60.0585 28.6448 59.2818 28.0819C58.7876 27.6598 60.4821 27.3783 59.5642 26.5341C58.9288 25.9712 59.2818 24.8455 58.4346 24.353C58.6464 23.5087 58.1522 23.0162 57.658 22.4533C58.1522 20.9055 57.1637 19.9909 56.3165 19.0059C56.3165 18.9355 56.4577 18.5837 56.5989 18.443C56.6695 18.2319 56.9519 17.9505 56.8813 17.8801C56.4577 17.0359 55.6811 16.1916 55.5399 15.3473C55.3281 14.0809 55.6105 12.7441 55.6811 11.4073C55.6811 10.7037 55.6811 9.92979 55.8223 9.22622C55.8223 9.01515 56.2459 8.80408 56.4577 8.80408C57.0931 8.80408 57.658 8.80408 57.5874 7.95979C57.4462 6.34158 58.011 5.14551 59.423 4.30122C59.7761 4.09015 60.1291 3.73837 60.4115 3.45694C60.8351 2.96444 61.3999 2.89408 61.9647 2.96444C63.2356 3.10515 64.5065 2.96444 65.5655 4.0198C65.9891 4.44194 66.9776 3.87908 67.5424 4.58265C67.1894 6.34158 68.5308 5.91944 69.4487 6.06015C70.1547 6.13051 70.9313 6.06015 71.5667 6.41194C72.414 6.83408 73.2612 7.39694 73.8966 8.10051C74.5321 8.87444 75.1675 9.22622 76.1559 9.15586C77.4974 9.01515 78.2034 9.78908 78.6976 10.9851C79.2625 12.3923 79.6155 13.9401 80.8863 14.9955C81.31 15.3473 81.8748 15.9101 81.8748 16.3323C81.7336 17.8098 83.9223 18.1616 83.4987 19.7094C84.2047 20.3426 84.4165 21.1166 84.2753 22.0312C84.2753 22.2423 84.4165 22.7348 84.4871 22.7348C86.6052 22.8755 86.7464 25.7601 88.8645 25.8305C89.1469 26.9562 89.7823 27.8708 90.5589 28.7151C91.1238 29.278 91.618 29.5594 92.4652 29.5594C93.1713 29.5594 93.5243 29.8408 93.4537 30.6148C93.4537 31.0369 93.3831 31.4591 93.3831 31.9516C93.3831 33.0773 93.3831 33.0773 94.5127 33.2883C95.2893 33.4291 96.6308 33.2883 95.1481 34.4844C95.8542 35.6101 96.419 37.0173 98.1135 37.0173C98.7489 37.0173 99.2431 37.158 99.1725 38.0023C99.1019 38.7058 98.9607 39.4798 99.1019 40.1833C99.1725 40.6758 99.9491 40.9573 99.8785 41.6608C99.8079 42.1533 100.09 42.5051 100.585 42.5051C101.714 42.5051 102.491 42.6458 102.491 44.053C102.491 44.4751 103.267 45.3194 103.62 45.249C105.456 45.038 106.092 46.4451 107.151 47.4301C107.857 48.0633 108.633 48.7669 109.481 49.1187C110.398 49.4705 111.599 49.1187 112.093 50.2444C112.516 51.2998 113.929 51.0183 114.493 51.933C114.917 52.7069 115.694 52.9883 116.47 53.3401C117.035 53.6215 116.47 54.7472 117.317 55.1694C117.67 55.3805 117.953 55.8026 118.306 55.873C119.012 55.873 119.294 56.4358 119.647 56.9283C120 57.4912 120.071 58.4058 120.565 58.6169C121.059 58.8983 121.554 58.9687 121.977 59.4612C122.401 59.9537 122.471 59.9537 121.907 60.7276C121.695 61.009 121.624 61.0794 121.907 61.3608C122.189 61.5719 122.542 61.9237 121.977 62.2754C121.554 62.5569 121.412 63.1197 121.977 63.1197C123.531 63.2604 124.731 63.6122 124.943 65.4415C125.013 66.0747 126.072 66.4969 126.213 67.1301C126.496 68.3262 127.484 69.3112 127.202 70.6479C126.919 72.0551 126.99 73.6029 126.849 75.0101C126.708 76.3469 127.202 77.1911 128.473 77.6133C129.108 77.8244 129.673 78.3169 130.238 78.5983C130.661 78.8094 131.014 78.9501 130.944 79.5129C130.803 80.4276 130.803 81.2719 131.72 81.8347C132.568 82.3272 132.285 83.3826 132.85 84.0158C133.415 84.7194 134.121 85.2822 134.545 85.9858C135.039 86.7597 135.321 87.7447 135.674 88.589C135.745 88.8704 135.745 89.2926 135.886 89.3629C136.592 89.7147 137.651 89.7147 137.298 90.9811C137.298 91.0515 137.51 91.3329 137.581 91.2626C138.569 91.1218 138.922 92.2476 139.769 92.3883C140.969 92.5993 141.252 93.7251 141.958 94.3583C142.593 94.9211 143.158 95.6951 143.723 96.3283C144.711 97.454 144.853 97.3836 146.194 96.3283C146.971 95.7654 147.465 94.6397 148.665 94.6397L152.054 93.9361C153.396 94.0065 154.737 93.9361 156.008 94.2176C156.643 94.3583 156.926 95.3433 157.773 95.2026C158.691 96.3283 159.609 97.3133 161.303 97.3133C161.656 97.3133 162.08 98.1576 162.503 98.5797C160.88 99.2833 162.221 100.268 162.503 100.901C163.068 102.52 163.915 104.068 162.221 105.545C161.515 107.867 161.515 107.937 160.668 108.57C159.467 109.415 158.973 110.47 159.044 111.877C159.044 112.721 159.044 113.636 158.903 114.48C158.55 116.45 159.962 117.295 161.091 118.35C161.162 118.42 161.374 118.35 161.515 118.35C162.998 118.843 163.139 118.843 162.927 120.179C162.715 121.446 163.139 122.009 164.339 122.22C164.339 124.26 166.951 124.893 166.951 126.934C168.081 128.27 169.211 129.607 170.411 130.944C170.976 131.507 171.117 132.14 171.046 132.914C171.046 133.266 171.188 133.758 171.47 134.04C172.035 134.743 172.529 135.447 173.235 136.01C174.082 136.713 174.153 137.698 174.647 138.543C175.847 138.402 175.847 139.316 176.13 140.09C176.412 141.005 177.754 141.357 177.612 142.623C177.612 142.905 178.177 143.256 178.318 143.608C178.671 144.382 180.225 143.749 180.084 145.086C180.013 145.93 181.213 146.423 180.86 147.408C181.707 147.9 181.284 149.096 181.99 149.589C183.261 150.503 183.119 152.192 184.249 153.177C184.955 153.81 185.661 154.514 185.732 155.71C185.732 156.202 186.367 157.046 187.285 157.046C187.85 157.046 188.132 157.398 188.062 157.82C187.92 158.735 188.838 159.228 188.909 160.142C188.979 160.986 190.039 161.76 190.815 162.464C192.157 163.801 193.145 165.349 193.639 167.108C193.851 167.741 194.204 168.092 194.487 168.515C195.122 169.429 196.11 170.062 196.252 171.399C196.252 171.892 196.887 172.736 197.805 172.736C198.37 172.736 198.652 173.018 198.581 173.51C198.511 174.425 198.582 175.128 199.288 175.902C200.488 177.098 201.759 178.294 202.182 180.053C203.594 179.772 203.171 181.038 203.665 181.601C204.371 182.656 204.583 183.923 205.571 184.837C207.195 186.315 208.537 188.144 210.019 189.762C210.513 190.325 210.796 190.818 210.937 191.592C211.008 192.225 211.996 192.647 212.278 193.28C212.702 194.195 214.185 193.491 214.114 194.687C214.114 195.743 214.961 196.165 215.456 196.798C216.091 197.642 216.797 198.346 217.503 199.12C218.068 199.753 218.703 200.457 219.268 201.09C219.833 201.723 220.468 202.427 221.033 203.06C221.245 203.271 221.598 203.552 221.527 203.764C221.316 205.171 223.01 205.522 223.081 206.648C223.081 207.844 224.21 208.266 224.705 209.111C225.199 209.885 225.975 209.674 226.681 209.674C227.105 209.674 227.387 209.392 227.458 208.829C227.458 208.266 227.246 207.704 227.882 207.211C228.8 206.507 229.859 205.804 229.506 204.397C230.565 203.341 231.341 201.934 232.4 200.879C233.036 200.175 233.177 199.472 233.459 198.698C233.812 197.713 234.236 196.517 235.154 195.954C236.142 195.321 236.283 194.054 237.131 193.28C237.554 192.858 237.272 191.803 237.696 191.31C238.049 190.818 238.966 191.099 239.531 190.466C240.308 189.622 241.226 189.059 241.226 187.652C241.226 186.807 242.073 185.963 242.638 185.189C243.132 184.486 243.979 184.275 244.12 183.149C244.262 182.234 245.815 182.023 245.956 180.897C246.097 180.053 247.298 179.772 247.086 178.716C248.498 177.661 249.345 176.254 249.98 174.706C250.051 174.425 250.686 174.354 251.039 174.214C251.463 174.073 251.604 173.791 251.816 173.369C253.016 171.188 254.005 168.866 256.194 167.319C256.476 167.107 256.405 166.474 256.688 166.193C257.676 164.997 258.523 163.73 259.441 162.534C260.359 161.409 260.783 159.79 262.054 158.876C262.265 158.735 262.477 158.383 262.477 158.172C262.336 156.976 263.113 156.343 263.819 155.639C265.16 154.373 266.925 153.529 267.561 151.629C267.702 151.277 268.549 151.277 269.043 151.066C268.761 149.307 270.032 148.463 271.161 147.548C271.514 147.267 271.797 146.985 272.009 146.634C272.432 145.93 272.644 145.086 273.068 144.453C273.562 143.749 274.197 143.116 274.903 142.623C275.751 142.131 275.751 141.146 276.245 140.583C277.163 139.528 278.645 138.965 278.998 137.417C278.998 137.276 279.845 137.417 280.128 137.135C280.763 136.713 281.187 136.08 281.822 135.728C282.599 135.306 282.175 134.321 282.881 133.969C283.446 133.618 283.305 132.914 283.658 132.562C283.94 132.21 284.717 132.281 285.141 131.999C285.917 131.507 286.482 130.944 286.341 129.889C286.341 129.326 286.482 128.763 286.623 128.2C286.694 127.919 286.976 127.989 287.259 128.341C287.471 128.693 287.682 128.833 288.177 128.481C289.236 127.848 289.094 126.441 290.154 125.808C291.001 125.315 291.707 124.471 292.483 123.838L295.166 121.516C295.943 120.813 296.649 120.109 297.496 119.476C298.838 118.491 299.826 117.013 301.662 116.45C303.145 116.028 303.78 114.199 305.545 113.918C306.251 113.777 306.886 112.792 307.522 112.229C309.075 110.963 310.275 109.344 312.393 108.781C312.676 108.781 312.888 108.43 313.029 108.219C313.311 107.726 313.382 107.093 313.806 106.811C314.229 106.53 314.794 106.53 315.359 106.319C316.841 105.545 318.536 105.123 319.03 103.153C319.03 102.942 319.736 102.66 320.089 102.731C321.501 102.942 322.631 102.731 323.619 101.605C323.902 101.253 324.749 101.324 325.102 101.042C325.455 100.69 325.596 100.057 325.879 99.6351C326.373 98.7908 327.361 99.0018 328.067 98.5093C329.338 97.6651 330.962 97.6651 332.162 96.6097C333.645 96.9615 334.775 95.6247 336.187 95.8358C336.54 95.8358 337.104 95.6247 337.316 95.3433C338.022 94.499 339.011 94.4286 339.858 93.9361C340.705 93.4436 341.27 92.4586 342.4 92.529C342.47 92.529 342.753 92.1069 342.753 91.8254C342.753 91.2626 343.106 90.9811 343.529 90.9811C345.083 91.1922 346.354 91.0515 347.483 89.7851C347.977 89.2222 349.107 89.5036 349.672 88.6593C351.155 88.9408 352.355 88.0965 353.626 87.6744C354.896 87.2522 355.885 86.5486 356.803 85.634C357.932 86.1265 358.427 84.4379 359.556 84.8601C360.121 85.0711 360.686 84.8601 361.11 84.3676C361.816 83.5233 362.663 83.1011 363.792 83.3826C365.134 83.664 366.334 83.3826 367.323 82.3272C367.746 81.8347 368.593 81.8347 369.158 81.4829C369.794 81.0608 370.288 80.5683 370.853 80.0054C371.276 79.5129 371.841 79.5833 372.406 79.5129C373.677 79.3722 374.806 78.9501 375.795 78.1058C377.136 76.9801 378.478 75.784 379.749 74.6583C380.102 74.3769 380.525 73.8844 380.737 73.9547C382.149 74.3769 383.067 73.6733 383.773 72.6883C384.55 71.7033 385.821 71.7033 386.668 70.9997C388.221 69.6629 389.563 67.9744 391.398 67.0597C393.093 66.2154 394.505 65.0194 395.846 63.8233C396.905 62.8383 398.176 62.3458 399.518 61.8533C399.8 61.7829 400.294 61.7126 400.294 61.6422C400.294 60.3055 401.424 60.3054 402.271 59.9537C403.471 59.4612 404.53 58.828 405.448 57.9837C406.86 56.6469 408.343 55.4508 409.755 54.1844C410.602 53.4105 411.449 52.6365 412.791 52.9883C413.144 53.0587 413.426 52.5662 413.426 52.0737C413.426 51.8626 413.638 51.5108 413.85 51.3701C414.203 51.2294 414.768 51.3701 415.05 51.0887C416.18 50.174 417.239 49.189 418.369 48.204C419.357 47.3597 420.134 46.3748 421.546 46.234C421.546 44.9676 422.675 44.9676 423.452 44.4751C424.299 43.9826 424.935 43.3494 425.994 42.9976C427.053 42.6458 427.9 41.5905 428.677 40.7462C430.512 38.7058 433.407 38.0023 435.243 35.8916C436.655 36.1026 437.22 34.9066 438.067 34.203C439.549 33.0069 440.75 31.3183 442.444 30.5444C444.209 29.7001 445.339 28.0819 446.963 27.3783C449.363 26.3933 450.846 24.4937 452.752 23.0162C453.529 22.383 454.305 21.6794 455.082 20.9758C455.859 20.3426 456.494 19.7094 457.624 19.4984C458.542 19.3576 458.895 18.0209 460.166 18.0209C460.73 18.0209 461.295 17.2469 461.86 16.7544C463.554 15.2769 465.178 13.8698 466.802 12.3923C467.155 12.1109 467.508 11.548 467.791 11.6184C469.414 11.9701 469.697 9.85943 471.18 9.92979C471.603 9.92979 472.097 9.29657 472.592 9.01515C473.156 8.66336 472.592 7.39693 473.721 7.53765C474.427 7.60801 474.71 6.83408 475.204 6.83408C476.051 6.83408 476.545 6.06015 477.11 6.06015C478.593 6.13051 479.793 5.42694 481.064 5.00479C482.335 4.58265 483.182 3.5273 484.312 3.10515C485.3 2.75337 486.218 1.83873 487.489 2.19051C488.407 2.47194 489.183 2.19051 489.819 1.41658C490.101 1.0648 490.595 0.572299 490.807 0.642656C492.431 1.20551 493.843 0.150156 495.396 0.00944219C497.02 -0.131272 498.15 1.34623 499.703 1.41658C499.986 1.41658 500.48 1.97944 500.55 2.40158C500.692 3.59765 501.186 4.01979 502.457 4.09015C505.422 4.09015 508.317 4.44194 511.282 4.58265C511.847 4.58265 512.2 4.86408 512.129 5.35658C511.917 6.48229 512.271 7.32658 513.118 8.03015C514.036 8.80408 513.541 10.4926 514.812 10.8444C517.213 11.548 517.778 13.6587 518.554 15.5584C518.766 16.1916 518.978 16.4026 519.543 16.6137C520.743 17.0359 521.308 18.0209 521.025 19.3576C520.672 20.8351 522.226 21.8905 521.731 23.4384C521.378 24.7048 521.449 26.0416 521.449 27.3783C521.449 27.8708 522.014 28.293 522.014 28.7855C522.014 29.0669 521.519 29.4187 521.237 29.7705C521.167 29.8408 521.167 30.1223 521.237 30.1926C522.226 31.1073 521.943 32.3033 521.943 33.4291C521.943 33.7808 522.155 34.2733 522.437 34.5548C523.496 35.3991 523.638 36.4544 523.426 37.6505C523.214 39.4094 523.143 41.1683 523.002 42.9273C521.519 43.7715 522.084 45.249 521.943 46.5155C521.872 47.7115 522.932 48.7669 522.578 50.174C522.296 51.2998 522.367 52.4958 522.367 53.6919C522.367 54.0437 522.508 54.6065 522.72 54.8176C523.92 55.8026 523.991 56.9987 523.779 58.3355C523.567 59.4612 524.132 60.7979 523.285 61.7126C522.508 62.5569 522.367 63.0494 523.143 63.8937C523.355 64.1751 523.355 64.6676 523.355 65.0897C523.355 66.1451 523.214 67.1301 523.214 68.1854C523.214 69.0297 524.344 69.5222 523.92 70.5072C523.567 71.5626 525.12 72.1254 524.626 73.2512C524.344 74.0251 524.344 74.9397 525.191 75.6433C525.403 75.8544 525.191 76.4876 525.191 76.9097C525.191 77.754 524.908 78.8797 525.332 79.4426C525.967 80.2869 525.473 81.2015 525.826 81.8347C526.25 82.6087 526.673 83.2419 526.532 84.2268C526.391 85.2118 526.038 86.4783 526.391 87.2522C526.815 88.0261 527.026 88.7297 527.097 89.6443C527.097 90.2776 527.662 90.9108 527.803 91.544C527.874 92.2476 527.803 93.0215 527.733 93.7251C527.733 94.5694 527.45 95.4136 528.297 96.1172C528.509 96.3283 528.297 96.8911 528.368 97.3133C528.439 98.5797 527.803 99.8461 528.58 101.113C529.356 102.309 528.439 103.716 528.862 104.912C529.215 105.826 529.709 106.671 529.498 107.726C530.415 108.5 530.274 109.485 530.204 110.47C530.204 111.736 529.568 113.144 530.274 114.269C531.122 115.536 530.345 116.802 530.557 118.069C530.698 118.702 531.192 119.335 531.263 119.968C531.333 120.672 531.051 121.446 531.192 122.149C531.404 123.486 532.181 124.753 531.828 126.23C531.545 127.496 531.545 128.833 531.545 130.17C531.545 131.296 532.816 132.14 532.18 133.406C532.957 134.18 533.028 135.095 532.887 136.15C532.745 137.346 532.745 138.472 532.675 139.668C534.228 140.372 532.745 142.271 533.946 143.116C534.087 143.256 534.157 143.608 534.157 143.89C534.299 145.789 533.24 147.83 534.581 149.659C533.098 150.292 534.652 150.996 534.581 151.629C534.51 152.333 534.157 153.318 534.51 153.81C535.287 154.936 535.64 155.78 534.299 156.624C535.499 157.469 534.581 158.946 535.005 159.79C535.993 161.62 535.499 163.449 535.499 165.208C535.499 166.193 535.075 167.178 536.064 168.092C536.346 168.374 536.134 169.218 536.064 169.781C535.993 171.54 535.781 173.299 535.781 175.058C535.781 176.324 535.075 177.661 536.276 178.787C536.487 178.998 536.276 179.631 536.276 180.053C536.276 180.757 536.205 181.531 536.134 182.234L535.922 185.33C535.852 186.526 535.922 187.722 535.64 188.848C535.358 189.974 536.417 190.677 536.346 191.592C536.346 193.773 535.993 195.954 535.993 198.205C535.993 200.035 534.934 201.864 536.417 203.623C536.77 204.045 536.276 205.03 536.417 205.804C536.558 207.774 535.428 209.814 536.911 211.644C536.84 212.98 536.628 214.317 536.699 215.584C536.84 217.835 535.569 220.157 537.123 222.338C537.335 222.619 537.123 223.182 537.123 223.604C537.193 225.856 536.134 228.177 537.546 230.358C537.405 232.821 537.193 235.354 537.052 237.816C537.052 239.083 537.052 240.42 537.052 241.686C538.182 242.601 537.123 244.008 537.617 244.922C538.111 245.907 538.464 246.752 538.182 247.737C538.111 248.088 537.617 248.3 537.335 248.651C538.888 250.199 537.264 252.169 537.97 253.576C539.17 256.18 538.111 258.712 538.323 261.245C538.394 262.371 537.688 263.567 538.888 264.482C538.888 265.326 538.817 266.241 538.888 267.085C538.958 268.633 538.041 270.251 539.382 271.658C539.453 271.728 539.382 271.94 539.382 272.08C539.241 273.98 539.17 275.88 539.029 277.779C540.653 279.468 539.594 281.367 539.523 283.197C539.523 284.463 540.088 285.378 540.229 286.433C540.37 287.418 540.229 288.473 540.159 289.458C541.5 290.514 540.724 291.921 540.724 293.117C540.724 294.665 540.088 296.283 541.288 297.69C541.359 297.831 540.935 298.394 540.794 298.746C540.724 298.957 540.512 299.238 540.582 299.308C541.006 299.731 541.218 300.223 541.147 300.856C541.006 302.474 540.935 304.093 540.794 305.711C540.794 306.837 540.3 308.033 541.5 308.947C541.429 310.143 541.359 311.269 541.288 312.465C542.63 313.521 541.924 314.857 541.853 316.053C540.159 317.531 541.006 319.571 540.794 321.33C542.418 322.386 540.441 324.567 542.065 325.622C542.206 325.692 542.065 326.185 542.065 326.466C542.065 328.084 542.065 329.632 541.994 331.251C543.265 332.658 542.277 334.346 542.347 335.824C542.347 337.301 542.206 338.779 542.136 340.186C542.065 341.804 542.135 343.493 541.782 344.97C541.359 346.588 542.842 347.573 542.489 349.051C542.206 350.317 542.277 351.654 542.206 352.991C543.689 354.328 542.7 356.016 542.771 357.494C542.842 359.042 542.065 360.66 543.406 361.997C543.265 363.756 543.053 365.514 543.124 367.273C543.124 368.118 541.218 368.68 542.842 369.665C542.842 370.65 542.842 371.706 542.7 372.691C542.559 373.605 543.759 374.028 543.477 375.013C543.265 375.857 543.336 376.772 543.265 377.616C543.265 377.757 543.477 377.827 543.548 377.968C544.112 378.882 544.607 379.938 544.818 380.993C545.03 381.978 544.818 383.033 544.677 384.018C544.324 385.355 545.171 386.129 545.807 387.114C546.513 388.24 547.148 389.506 546.937 390.984C546.725 393.165 546.795 393.165 547.501 395.064C547.925 396.12 548.631 397.034 548.207 398.301C547.784 399.567 548.349 400.552 549.266 401.397C549.549 401.678 549.69 402.17 549.69 402.522C549.62 403.226 548.49 403.437 548.702 404.281C548.913 404.914 549.69 405.337 549.478 406.181C549.337 406.744 549.408 407.377 549.902 407.729C550.82 408.362 550.82 409.417 551.314 410.262C551.808 410.965 552.514 411.598 553.008 412.302C553.22 412.583 553.361 413.076 553.361 413.428C553.361 413.99 553.361 414.483 553.785 415.046C554.35 415.679 555.268 416.101 554.915 417.227C555.479 417.86 556.044 418.564 556.68 419.197C557.245 419.76 557.456 420.323 557.386 421.167C557.386 421.519 557.598 421.941 557.739 422.293C558.304 423.278 559.574 423.77 559.716 425.036C559.857 426.162 560.916 426.655 561.481 427.429C561.763 427.851 562.752 430.524 562.893 431.228C562.963 431.58 563.175 432.213 563.387 432.213C564.022 432.213 564.446 432.635 564.799 433.057C565.646 434.042 566.423 435.027 567.694 435.449C568.753 435.801 568.4 437.208 569.177 437.842C569.459 438.123 570.235 438.264 570.235 438.264C569.953 439.249 571.153 439.741 571.083 440.585C571.012 441.289 571.718 441.5 571.859 442.063C571.93 442.485 571.859 442.907 571.859 443.4C571.859 444.103 571.648 444.807 572.354 445.37C572.495 445.51 572.636 445.933 572.495 446.144C572.283 446.636 571.648 447.129 571.789 447.41C571.93 447.903 572.495 448.254 572.354 448.958C572.212 449.521 573.413 449.661 572.848 450.295C572.424 450.717 572.354 451.28 572.071 451.772C571.506 452.687 570.306 453.109 570.024 454.446C569.883 455.079 568.894 454.868 568.47 454.657C567.411 454.235 566.635 453.461 565.364 453.602C564.375 453.742 563.316 453.531 562.257 453.461C561.41 453.461 560.916 454.516 559.927 454.235C559.08 454.024 558.162 454.094 557.315 454.024C556.468 453.953 555.55 453.813 554.703 453.883C552.585 454.024 550.396 452.828 548.349 454.305C547.996 454.586 547.219 454.305 546.584 454.305C542.912 454.094 539.241 453.883 535.569 453.602C534.51 453.531 533.946 453.953 533.31 454.516C532.887 454.868 532.534 455.431 532.039 454.587C531.828 454.235 531.545 453.813 531.192 453.602C530.839 453.39 530.204 453.179 530.062 453.25C529.356 454.024 528.58 453.953 527.662 453.953C525.967 453.953 524.273 453.25 522.649 454.446C522.296 454.727 521.519 454.446 520.955 454.446C517.848 454.235 514.812 454.094 511.706 453.813C510.929 453.813 510.364 454.024 509.729 454.375C509.164 454.727 508.387 454.586 507.893 455.22C507.47 454.938 507.046 454.446 506.552 454.375C505.21 454.164 503.939 454.164 502.598 454.094C501.539 454.024 500.621 453.883 499.774 454.798C499.703 454.938 498.997 454.586 498.644 454.375C498.432 454.235 498.22 454.024 498.079 453.883C497.161 455.079 495.961 454.446 494.832 454.446C493.631 454.446 492.431 454.446 491.301 454.164C490.384 453.953 489.819 454.727 489.042 454.727C488.407 453.531 487.206 453.813 486.289 453.953C484.947 454.164 484.382 452.757 483.182 452.757C481.982 452.757 480.782 452.757 479.652 452.546C478.805 452.405 478.31 452.898 477.746 453.32C476.616 451.28 473.933 453.32 472.733 451.491C472.733 451.491 472.309 451.631 472.097 451.702C470.968 452.265 469.909 452.054 468.779 451.702C468.144 450.365 466.096 451.491 465.531 449.943C464.331 449.873 463.131 449.943 462.001 449.661C461.083 449.38 460.519 450.858 459.883 450.084C459.036 449.169 457.977 449.591 456.988 449.45C456.141 449.31 455.223 449.239 454.376 449.31C453.105 449.38 451.764 448.536 450.634 449.732C450.564 449.802 449.857 449.028 449.363 449.028C447.033 448.817 444.633 448.676 442.303 448.606C441.95 448.606 441.456 448.817 441.173 449.028C440.397 449.591 439.902 449.31 439.338 448.676C439.055 448.325 438.702 448.043 438.49 447.691C438.279 447.41 438.137 447.48 437.855 447.762C437.29 448.395 436.655 448.465 436.019 447.762C435.454 447.058 434.819 447.058 434.184 447.621C434.042 447.762 433.689 447.832 433.548 447.762C433.195 447.48 432.983 447.129 432.63 446.777C432.419 446.566 432.207 446.144 432.065 446.144C430.795 446.425 430.018 445.299 428.959 445.088C428.041 444.877 426.911 444.525 426.064 445.51C426.064 445.581 425.005 444.877 424.935 445.018C424.37 445.581 423.664 445.581 422.958 445.581C422.252 445.581 422.04 444.877 421.616 444.666C421.122 444.455 420.275 444.244 419.922 444.525C417.874 446.144 415.686 444.736 413.568 444.948C412.932 443.681 412.297 444.314 411.732 444.948C411.096 445.721 410.743 445.229 410.108 444.877C409.473 444.455 408.131 444.948 407.566 444.525C406.507 443.611 405.731 443.189 404.672 444.385C404.53 444.525 403.966 444.455 403.824 444.314C402.342 442.555 401.071 443.329 399.8 444.525C399.165 445.159 398.67 444.877 397.964 444.385C396.905 443.681 395.634 443.47 394.434 444.314C394.293 444.385 394.222 444.596 394.081 444.596C393.799 444.596 393.375 444.666 393.234 444.596C392.457 443.751 391.822 443.048 390.763 444.244C390.692 444.314 390.551 444.455 390.41 444.455C388.857 444.596 387.233 443.751 385.679 444.596C384.126 445.51 382.573 444.596 381.02 444.737C380.031 444.737 378.972 444.596 377.913 444.596C376.783 444.596 375.583 443.963 374.665 445.159C373.041 445.159 371.488 445.018 369.864 444.948C369.088 444.948 368.805 445.088 368.735 445.862C368.735 446.706 368.593 447.621 368.593 448.465C368.593 449.31 369.229 449.169 369.794 449.38C370.217 449.521 370.288 449.873 369.794 450.224C369.229 450.576 369.088 451.139 369.441 451.702C369.794 452.194 370.147 452.546 370.006 453.25C369.794 454.446 369.935 455.431 370.923 456.416C371.982 457.471 371.629 459.863 370.288 460.496C369.229 460.989 368.24 461.411 367.393 462.185C367.181 462.396 366.405 462.466 366.264 462.326C364.71 460.637 362.733 461.482 360.898 461.341C360.545 461.341 360.262 462.326 359.627 461.552C358.921 460.637 357.368 461.481 356.662 460.145C356.167 459.23 355.32 458.456 354.261 459.652C354.19 459.723 353.979 459.793 353.979 459.793C352.778 458.245 351.013 459.089 349.531 458.667C349.107 458.526 348.754 458.386 348.401 458.175C347.06 457.471 346.989 457.401 345.718 458.104C344.941 458.526 344.306 458.386 343.6 458.315C343.247 458.315 342.965 457.471 342.682 457.541C342.188 457.541 341.976 458.315 341.27 458.315C340.776 458.315 340.352 458.878 339.858 458.949C339.576 458.949 339.293 458.245 338.94 458.175C337.811 458.034 336.61 457.964 335.41 457.964C335.057 457.964 334.563 458.104 334.28 458.315C332.656 459.23 330.891 459.582 328.985 459.3C327.926 459.16 326.655 458.738 325.737 459.934C325.526 459.723 325.384 459.441 325.173 459.3C324.82 459.16 324.184 458.878 324.043 459.019C323.337 459.793 322.56 459.793 321.642 459.723C319.454 459.582 317.265 459.441 315.006 459.3C314.37 459.3 313.947 459.511 313.453 459.934C312.958 460.356 312.535 460.919 311.617 460.919C310.628 460.919 310.981 462.326 310.205 462.818C309.146 463.592 308.228 464.507 306.745 464.085C306.11 463.874 305.686 464.225 305.192 464.648C304.91 464.859 304.345 464.859 303.992 464.648C303.639 464.507 303.356 463.874 303.003 463.874C301.521 463.663 300.038 463.803 298.626 463.522C297.426 463.311 296.437 462.326 295.096 462.396C293.684 462.396 292.201 462.115 290.789 461.974C290.154 460.637 288.106 461.763 287.541 460.215C287.541 460.074 286.835 460.004 286.694 460.215C285.917 461.2 284.929 460.989 283.87 460.919C282.105 460.778 280.34 460.708 278.575 460.567C277.939 460.567 277.516 460.778 277.021 461.13C276.739 461.341 276.033 461.341 275.892 461.13C275.398 460.567 274.833 460.215 274.056 460.285C273.209 460.285 272.291 460.215 271.444 460.145L246.733 458.597C245.532 458.526 244.403 458.386 243.203 458.386C242.073 458.386 240.873 457.753 239.955 458.949C239.319 458.667 239.037 458.034 238.19 458.034C236.283 458.034 234.377 457.823 232.471 457.682C231.271 457.612 230.141 457.541 228.941 457.471C227.811 457.401 226.54 457.682 225.834 456.416C224.634 457.893 223.081 456.979 221.739 456.979C220.115 456.979 218.492 456.838 216.868 456.697C215.385 456.627 213.902 456.627 212.49 456.416C211.29 456.275 210.655 457.753 209.243 457.19C208.325 456.838 207.266 457.049 206.207 457.049C205.571 458.245 204.795 456.768 204.371 457.049C203.736 457.612 203.1 457.682 202.394 457.541C201.688 457.401 201.476 458.175 200.911 458.245C200.7 458.245 200.347 457.753 200.064 457.471C199.429 458.315 198.581 458.104 197.734 458.175C196.958 458.245 196.393 459.23 195.404 458.878C194.487 458.527 194.063 459.863 193.074 459.652C192.227 459.441 191.309 459.652 190.462 459.441C189.262 459.16 188.273 459.793 187.214 460.074C186.297 460.356 185.238 459.582 184.32 460.496C184.178 460.637 183.825 460.708 183.543 460.708C183.119 460.708 182.696 460.708 182.202 460.637C181.143 460.637 180.154 460.496 179.095 460.426C177.965 460.426 176.765 460.004 175.847 461.13L172.741 460.919C170.27 462.466 167.657 461.27 165.116 461.27C164.057 461.27 163.209 461.622 162.362 461.974C161.233 462.466 160.032 462.889 158.691 462.678C157.42 462.466 156.078 462.466 154.737 462.396C152.901 463.874 150.854 462.818 148.877 462.889C147.677 462.889 146.476 462.889 145.347 462.678C144.076 462.396 143.299 463.592 142.099 463.451C140.969 463.24 139.769 463.311 138.569 463.24C137.863 464.436 137.298 463.522 136.663 463.1C136.451 462.959 136.027 463.029 135.886 463.17C135.321 463.803 134.686 463.874 133.909 463.803C131.862 463.663 129.814 463.522 127.767 463.381C126.919 463.381 126.002 463.17 125.366 464.014C125.225 464.155 124.66 464.155 124.59 464.014C123.389 462.466 121.624 463.17 120.142 462.889C119.506 463.663 118.73 463.733 117.812 463.663C117.106 463.592 116.47 463.522 115.905 462.889C115.623 462.537 114.635 462.326 114.352 462.537C112.728 463.592 111.034 463.17 109.339 463.029C105.244 462.818 101.079 462.466 96.9838 462.255C95.8542 462.255 94.6539 461.622 93.7361 462.818C92.7476 462.818 91.6886 462.818 90.7001 462.748C89.7823 462.748 89.0057 462.607 88.2996 463.381C88.1584 463.522 87.523 463.311 87.17 463.1C86.817 462.959 86.464 462.466 86.111 462.466C80.2509 462.044 74.3203 461.693 68.4602 461.341C67.7542 461.341 67.5424 462.115 66.9776 462.115C65.8479 462.044 64.7183 462.396 63.7298 461.341C63.3768 460.919 62.3178 460.848 61.6823 460.989C60.7645 461.27 60.6233 459.582 59.5642 460.356C58.9994 460.848 58.6464 461.341 58.5052 462.115C58.5052 462.537 58.0816 462.467 57.8698 462.115C57.2343 461.2 56.5283 461.13 55.7517 461.974C55.5399 462.255 55.3281 462.185 55.1163 461.833C54.3396 460.567 53.2806 460.145 51.7979 460.215C51.2331 460.215 51.2331 460.215 51.4449 459.089C51.4449 458.949 51.5861 458.878 51.5861 458.808C51.1625 457.542 49.6798 457.682 48.9738 456.768C48.762 456.486 48.6208 456.557 48.3384 456.838C48.1972 457.049 47.9147 457.19 47.6323 457.33C46.7145 457.682 45.6555 457.682 44.9494 458.245C44.1728 458.949 44.5964 460.145 44.4552 461.13C44.314 462.326 44.1022 463.522 44.2434 464.648C44.4552 466.125 43.255 466.899 42.9725 468.165C42.9725 468.376 41.9841 468.517 41.8429 468.447C41.2075 467.462 40.572 467.603 39.866 468.376C38.5246 468.025 36.9007 468.869 35.771 467.462C35.6298 467.251 35.2768 467.251 34.9944 467.251C34.2884 467.251 33.5823 467.251 32.8057 467.251C31.9585 468.588 31.5349 467.04 30.8288 466.969C30.1228 466.969 29.3462 466.829 28.6401 466.899C28.2165 466.899 28.0047 467.321 28.4283 467.743C28.6401 467.954 28.9226 468.306 28.8519 468.447C28.3577 469.573 27.7929 470.628 27.5105 471.894C27.5105 472.246 26.8751 472.739 26.5927 472.739C25.3924 472.668 24.6864 474.005 23.4155 473.653C22.4271 473.442 21.368 473.442 20.309 473.442C19.8854 473.442 19.603 473.864 19.603 474.357C19.603 474.709 19.603 475.271 18.8969 474.849C18.5439 474.638 18.2615 474.216 17.9085 474.216C17.2025 474.216 17.0613 473.372 16.567 473.301C16.2846 473.301 15.9316 473.724 15.5786 473.935C15.0138 472.598 13.3899 473.442 12.6133 472.528C12.4015 472.246 11.8366 471.965 11.5542 472.035C10.0716 472.387 9.22432 471.05 8.02407 470.909C7.52985 469.854 5.48236 470.135 5.69417 468.376C5.69417 468.306 5.19995 468.095 4.98814 468.095C4.49392 468.095 4.0703 467.673 4.28211 467.251C4.91754 465.914 3.36427 465.21 3.57608 464.014C3.71729 463.029 3.71729 461.974 3.78789 460.919L4.49392 460.848ZM498.503 29.278C498.644 27.2376 498.785 25.1973 498.856 23.1569C498.856 23.0162 498.503 22.8051 498.362 22.6644C497.444 23.8605 496.173 23.0162 495.114 23.2976C494.479 23.4383 493.984 24.1419 493.49 24.5641C493.843 26.2526 491.937 27.2376 492.29 28.9966C492.431 29.8408 492.29 30.7555 492.149 31.5998C492.078 32.7255 490.666 33.3587 491.019 34.6955C491.09 34.9769 490.313 35.5398 489.889 35.8916C489.466 36.3137 488.76 36.5951 488.618 37.0876C488.124 38.8465 485.724 39.5501 486.218 41.8015C486.218 42.1533 486.006 42.5755 485.724 42.8569C485.088 43.4901 484.382 43.9826 483.747 44.6158C483.253 45.1083 482.547 45.3194 482.405 46.234C482.194 47.6412 480.993 46.6562 480.287 46.9376C479.934 47.0783 479.581 47.4301 479.228 47.7115C478.452 48.4151 477.675 49.1187 476.898 49.7519C476.616 49.963 476.122 50.174 475.769 50.174C474.78 50.2444 473.721 49.6815 472.945 50.7369C471.956 50.7369 470.897 50.7369 469.909 50.6665C469.203 50.6665 468.85 51.0183 468.426 51.3701C468.073 51.6515 467.72 52.2144 467.438 52.2144C465.743 51.933 465.32 54.2547 463.696 53.903C462.566 54.888 461.507 55.873 460.377 56.7876C459.036 57.9837 457.694 59.1094 456.424 60.3055C454.305 60.5165 453.458 62.4865 451.905 63.4715C451.27 63.8937 449.999 63.4715 450.281 64.8787C449.575 65.2304 448.869 65.8637 448.092 65.934C447.104 66.0747 446.469 66.2858 446.469 67.4115C444.492 69.4519 441.809 70.859 440.467 73.5326C438.279 73.2512 438.42 75.5729 437.22 76.4172C436.725 78.0354 435.666 78.9501 433.972 79.4426C433.266 79.6536 432.419 80.2165 432.348 81.2719C432.348 81.694 431.924 81.9754 431.43 81.9051C430.724 81.8347 429.947 81.7644 429.241 81.7644C428.041 81.7644 426.982 82.3976 427.053 83.7344C427.053 84.9304 425.499 85.2119 425.923 86.4079C424.935 86.9708 424.44 88.3076 423.17 88.3779C422.322 88.3779 422.181 88.8001 422.181 89.4333C422.181 90.2072 421.899 90.7701 421.263 91.2626C420.769 91.6847 420.275 91.7551 419.639 91.6847C419.357 91.6847 419.075 91.6847 418.792 91.6847C418.369 91.8254 418.369 92.0365 418.651 92.3179C419.286 92.8104 419.004 93.0215 418.651 93.5844C417.521 94.9915 417.592 95.0618 416.603 94.9915C416.039 94.9915 415.403 94.9211 414.838 94.9211C414.556 94.9211 414.274 94.9211 414.062 95.1322C412.72 96.2579 411.379 97.454 410.108 98.6501C409.967 98.7908 409.967 99.2833 410.108 99.4943C410.32 99.9868 410.955 100.268 410.885 100.972C410.743 102.168 409.684 101.394 409.19 101.886C408.767 102.379 407.99 102.66 407.99 103.575C407.99 103.997 407.566 104.208 407.001 104.138C406.437 104.068 405.801 103.927 405.236 104.068C404.319 104.208 403.683 104.771 403.401 105.686C402.624 108.148 402.2 108.852 401 109.907C400.577 110.329 400.153 110.751 399.659 111.033C399.094 111.385 398.388 111.596 397.823 111.877C397.329 114.058 395.07 114.691 393.799 116.239C393.163 117.013 391.963 117.295 391.963 118.561C391.963 118.702 391.257 119.054 390.904 118.983C389.845 118.772 388.998 119.194 388.645 119.968C388.221 120.953 387.374 121.727 387.162 122.923C386.95 124.33 386.244 124.753 384.832 124.823C384.409 124.823 383.702 125.034 383.702 125.104C383.773 126.582 382.432 126.371 381.726 126.793C381.302 127.074 380.667 127.074 380.172 127.356C379.396 127.848 379.89 128.693 379.749 129.396C379.749 129.678 379.749 130.17 379.678 130.24C378.195 131.155 377.772 133.125 376.289 134.04C375.16 133.688 374.806 134.814 374.1 135.165C373.253 135.588 373.253 136.643 372.688 137.206C371.982 137.98 371.135 138.543 370.429 139.246C370.288 139.387 370.359 139.809 370.217 140.02C369.864 140.442 369.511 140.935 369.017 141.216C368.593 141.498 367.605 141.498 367.534 141.779C367.393 142.553 366.617 142.975 366.475 143.538C366.264 144.945 365.981 144.875 365.063 143.96C364.569 143.468 362.875 144.453 362.945 145.226C362.945 145.649 363.792 146.071 362.945 146.493C361.957 146.985 361.886 148.111 361.18 148.815C360.545 149.448 360.686 150.081 360.545 150.785C360.545 151.066 360.192 151.488 360.121 151.418C358.568 151.066 358.144 152.895 356.803 153.106C355.532 153.318 354.543 154.303 354.049 155.569C353.908 156.061 353.696 156.343 353.202 156.343C352.214 156.343 351.084 155.991 351.155 157.609C349.389 158.805 348.26 160.916 345.93 161.338C345.012 162.253 343.741 162.816 343.529 164.223C342.612 164.575 342.894 165.771 342.188 166.263C341.764 166.615 341.553 166.685 340.635 166.263C339.787 165.841 339.293 166.052 339.152 166.967C339.081 167.389 339.152 167.881 339.011 168.233C338.658 168.866 337.952 168.585 337.387 168.515C336.893 168.515 336.54 168.585 336.398 169.078C336.257 169.5 336.257 169.992 336.328 170.414C336.751 172.384 335.269 173.229 334.069 174.284C332.939 174.284 332.162 175.48 330.962 175.199C329.974 174.987 329.691 175.55 329.762 176.465C328.844 176.817 328.985 177.942 328.35 178.505C327.926 178.857 327.644 179.561 326.938 179.35C325.596 179.068 324.678 179.631 324.184 180.827C323.619 182.094 322.56 182.797 321.501 183.43C320.442 183.008 319.666 183.993 318.748 184.064C318.042 184.134 317.618 184.415 317.759 185.119C317.971 186.526 316.841 187.441 316.7 188.637C316.559 189.692 316.135 190.466 315.359 190.677C314.017 191.029 313.17 191.944 312.182 192.717C310.84 193.773 309.852 195.461 307.734 194.969C307.663 194.969 307.31 195.391 307.31 195.602C307.31 196.095 307.098 196.517 306.604 196.517C305.616 196.517 305.333 196.869 305.333 197.783C305.333 198.346 305.333 199.12 304.557 199.05C303.639 199.05 303.286 199.683 302.721 200.035C301.803 200.668 301.238 201.512 301.45 202.567C301.732 203.764 300.25 204.115 300.32 205.241C300.32 205.382 299.967 205.804 299.756 205.804C297.92 205.804 297.284 207.704 295.943 208.477C295.661 210.025 294.39 210.87 293.189 211.644C291.989 212.417 291.989 213.965 290.93 214.669C290.93 215.584 290.577 216.006 289.659 215.865C289.518 215.865 289.165 216.146 289.094 216.357C288.741 217.131 288.177 217.905 286.976 218.89C286.2 219.523 285.211 220.086 284.717 220.931C284.152 221.916 283.587 222.901 282.599 223.534C281.681 224.167 281.328 225.011 281.328 226.137C281.328 226.559 280.905 226.841 280.41 226.7C279.916 226.63 279.704 226.911 279.492 227.403C279.351 227.755 278.998 228.388 278.857 228.318C277.021 227.896 276.598 228.74 276.527 230.358C276.527 230.851 275.468 231.273 275.539 232.117C275.539 232.188 275.115 232.469 274.833 232.469C274.127 232.469 273.703 232.61 273.703 233.384C273.844 235.213 272.22 235.635 271.232 236.62C271.161 236.48 271.091 236.339 270.95 236.268C269.679 235.706 268.643 236.011 267.843 237.183C267.843 237.183 267.278 237.887 267.208 238.238C267.066 239.083 266.572 239.012 265.937 239.012C264.454 239.012 264.454 239.083 264.383 240.349C264.313 241.193 264.525 242.319 264.03 242.882C263.466 243.515 262.336 243.656 261.489 244.008C261.206 244.078 260.712 244.219 260.783 244.289C260.924 245.415 259.512 245.767 259.512 246.892C259.512 247.948 259.441 248.933 259.371 249.988C259.371 250.481 257.747 252.24 257.253 252.591C256.688 253.013 256.194 253.506 255.629 253.928C255.911 255.406 254.428 254.772 253.934 255.335C253.369 256.109 254.075 257.446 252.805 257.938C253.228 258.501 253.652 258.994 254.005 259.557C254.217 259.908 254.217 260.331 254.287 260.753L255.346 263.848C256.052 264.763 256.9 265.607 257.464 266.592C257.959 267.507 258.1 268.773 258.806 269.547C259.724 270.532 259.935 271.447 259.865 272.713C259.865 272.854 260.288 273.136 260.5 273.136C260.995 273.136 261.559 273.417 261.418 273.769C260.924 275.176 262.265 276.091 262.265 277.357C263.183 277.99 262.618 278.975 262.901 279.749C263.183 280.523 263.96 281.086 264.454 281.79C264.454 281.86 264.454 282.071 264.454 282.212C264.03 283.619 265.231 284.533 265.513 285.73C265.796 286.785 266.431 287.699 267.137 288.614C267.843 289.529 268.196 290.795 268.62 291.991C268.831 292.484 269.184 292.906 269.114 293.539C268.69 295.791 270.243 297.479 271.02 299.308C271.585 300.645 273.491 301.419 272.926 303.389C272.926 303.53 273.209 303.882 273.421 304.022C274.197 304.726 274.762 305.57 274.409 306.696C273.985 308.173 274.55 309.581 275.256 310.706C276.174 312.113 276.174 313.943 277.374 315.139C277.163 316.405 278.716 317.39 278.08 318.797C277.798 319.36 278.433 319.853 278.575 320.345C278.928 321.541 279.704 322.526 279.987 323.722C280.199 324.778 281.187 325.622 281.116 326.748C282.034 327.381 281.964 328.507 282.387 329.351C282.881 330.336 283.376 331.321 284.152 332.165C284.223 332.236 284.293 332.447 284.293 332.517C283.94 333.572 284.929 334.417 284.929 335.261C284.929 336.387 285.564 337.09 285.706 338.005C286.059 339.764 286.623 341.171 287.541 342.508C287.753 342.859 288.106 343.352 287.965 343.633C287.471 344.759 288.953 345.392 288.671 346.448C288.318 347.714 289.659 348.418 289.589 349.614C290.789 350.247 289.589 351.654 290.365 352.358C291.001 352.991 290.789 353.694 290.86 354.328C290.93 354.961 291.566 355.594 291.566 356.227C291.495 357.212 291.848 357.916 292.483 358.549C292.907 358.971 293.048 359.464 293.26 360.027C293.542 361.082 294.531 361.926 294.672 362.982C294.884 364.248 296.155 365.233 295.449 366.57C296.437 368.188 297.143 369.947 297.779 371.776C297.99 372.409 298.697 372.902 299.05 373.465C299.261 373.817 299.332 374.239 299.332 374.661C299.332 375.294 299.332 375.787 299.826 376.209C300.532 376.983 299.403 378.249 300.603 378.953C300.744 379.023 300.815 379.445 300.815 379.727C300.603 381.486 300.391 383.244 302.156 384.441C301.803 385.777 302.862 386.833 302.933 388.029C302.933 388.732 302.721 389.506 302.862 390.21C302.933 390.843 303.568 391.476 303.568 392.109C303.568 393.024 303.78 393.728 304.274 394.502C304.627 395.135 303.921 396.26 304.839 396.894C304.839 398.16 305.333 399.286 305.686 400.482C305.827 400.974 305.474 401.819 306.11 402.03C306.745 402.17 307.592 402.522 308.157 401.889C308.581 401.397 309.146 401.467 309.711 401.397C311.546 401.326 313.453 402.311 315.147 400.904C316.7 400.763 318.324 401.608 319.877 400.763C321.431 399.919 322.984 400.623 324.537 400.623C326.443 400.623 328.35 400.834 330.256 400.974C330.68 400.974 331.244 401.256 331.527 400.974C333.716 399.427 336.046 400.763 338.305 400.552C339.011 400.552 339.787 400.623 340.493 400.693L342.682 400.834C343.529 400.834 344.518 400.834 345.294 401.045C346.142 401.326 346.424 399.849 347.06 400.552C347.624 401.185 348.33 401.185 349.036 401.256C349.742 401.256 350.448 401.397 351.013 400.763C351.225 400.552 352.002 400.482 352.143 400.693C352.92 401.748 353.696 401.889 354.614 400.904C354.755 400.763 355.32 400.693 355.391 400.834C356.944 402.452 358.921 401.748 360.757 402.03C361.604 402.17 362.522 402.17 363.369 402.241C364.993 404 367.181 403.155 369.158 403.437C370.288 403.648 371.488 403.578 372.688 403.718C373.041 403.718 373.465 404.07 373.677 404.352C373.959 404.633 374.03 404.703 374.312 404.352C374.453 404.14 374.736 403.929 375.018 403.859C375.866 403.648 376.219 404.492 376.783 404.844C377.631 405.337 378.054 403.507 378.901 404.563C379.184 404.914 379.254 404.985 379.537 404.703C380.384 403.789 381.373 403.929 382.22 404.563C382.714 404.914 383.138 405.196 383.702 405.196C384.267 405.196 385.115 405.055 385.397 405.407C386.032 406.181 386.809 406.392 387.727 406.322C388.715 406.322 389.774 406.884 390.551 405.759C392.034 405.548 393.446 405.477 394.364 406.884C394.717 407.377 395.14 407.658 395.776 407.658C396.976 407.658 398.176 408.01 399.306 407.799C400.788 407.518 401.565 408.995 402.836 408.995C403.33 409.91 404.107 410.05 405.095 410.05C406.225 410.05 407.425 410.402 408.343 409.417C408.414 409.277 409.049 409.417 409.12 409.558C409.684 410.473 410.532 410.402 411.449 410.473C413.073 410.543 414.697 410.684 416.321 410.754C417.168 410.754 417.945 410.895 418.651 411.598C419.145 412.091 420.204 412.091 421.051 411.458C421.828 410.895 421.899 411.035 422.534 411.458C422.887 411.669 423.028 412.161 423.593 412.161C425.005 412.02 426.417 412.865 427.759 411.598C428.041 411.317 429.1 411.458 429.383 411.739C430.653 413.217 432.348 412.583 433.831 412.724C434.748 411.528 435.949 412.232 437.078 412.161C439.055 412.091 441.032 412.865 442.938 411.669C443.715 411.247 444.845 412.161 445.833 411.317C446.822 410.473 448.092 411.317 449.222 411.176C449.504 411.176 449.787 411.106 449.999 410.965C450.916 410.402 452.046 409.769 453.035 409.769C454.447 409.769 455.082 408.854 456 408.221C456.212 408.08 456.565 408.08 456.847 408.151C458.047 408.573 458.824 406.884 460.095 407.447C461.154 406.884 462.495 406.744 463.413 405.899C464.331 406.11 464.825 405.829 464.825 404.844C464.825 404.633 465.249 404.281 465.39 404.281C466.661 404.844 467.508 403.718 468.638 403.578C469.132 403.578 469.414 403.296 469.414 402.733C469.414 402.17 469.485 401.537 469.485 400.974C469.485 400.412 469.768 400.2 470.262 400.13C470.897 400.06 471.25 400.341 471.25 401.115C471.25 401.256 471.25 401.397 471.25 401.537C471.321 401.959 471.462 402.311 471.533 402.733C471.744 402.593 471.956 402.452 472.168 402.311C472.521 402.03 472.803 401.748 473.156 401.467C473.651 401.045 473.933 401.045 474.639 401.608C475.133 402.03 475.698 402.452 476.122 402.1C477.322 401.045 479.016 401.185 480.217 400.2C480.993 399.638 481.488 399.849 482.052 400.482C482.194 400.693 482.547 400.834 482.758 400.834C483.676 400.834 484.453 401.045 484.947 401.889C485.3 402.522 486.006 402.733 486.712 403.015C487.348 403.296 486.783 404.352 487.559 404.844C488.054 405.125 488.336 405.688 488.972 405.688C489.183 405.688 489.536 406.11 489.536 406.251C488.83 407.658 490.525 408.573 490.242 409.91C490.101 410.613 490.595 410.965 490.878 411.458C491.16 411.95 489.819 412.02 490.313 412.654C491.019 413.498 490.807 415.257 492.784 414.835C493.914 414.624 495.114 414.975 496.314 414.975C496.526 414.975 496.95 414.694 496.95 414.553C496.95 413.428 497.585 412.302 496.597 411.246C496.385 411.035 496.385 410.191 496.526 410.121C497.797 409.347 497.444 408.01 497.444 406.955C497.444 405.548 497.797 404.422 499.068 403.648C500.127 403.015 498.15 402.663 498.927 402.1C499.915 401.397 499.844 400.412 499.35 399.427C499.209 399.145 498.856 398.934 498.856 398.723C499.209 397.105 498.362 395.205 499.844 393.798C499.986 392.25 500.056 390.632 500.197 389.084C499.138 388.31 499.633 387.255 499.633 386.27C499.633 384.652 499.844 383.033 499.915 381.415C499.915 380.993 499.986 380.43 499.774 380.219C498.715 379.234 499.421 378.038 499.35 376.912C498.15 375.857 498.644 374.52 498.715 373.254C498.715 371.917 498.715 370.58 498.997 369.314C499.28 368.047 498.009 367.273 498.22 366.077C498.432 364.811 498.432 363.474 498.503 362.137C498.503 361.997 498.503 361.786 498.503 361.715C497.161 360.519 498.009 358.971 497.938 357.634C497.938 356.438 497.938 355.242 498.15 354.117C498.432 352.78 497.726 351.654 497.514 350.458C497.373 349.895 497.514 349.332 498.009 348.91C498.15 348.84 498.291 348.347 498.291 348.347C497.373 347.714 497.726 346.729 497.797 345.955C498.009 342.437 498.22 338.919 498.432 335.402C498.432 334.839 498.785 333.994 498.432 333.713C497.656 332.869 497.656 331.954 497.797 330.899C497.938 329.914 497.938 328.858 498.009 327.803C498.291 323.23 498.644 318.727 498.856 314.154C498.856 312.887 499.491 311.551 498.22 310.495C498.079 310.425 498.362 309.651 498.644 309.44C499.421 308.736 499.562 307.681 499.138 307.118C498.503 306.274 498.503 305.57 498.573 304.726C498.785 301.771 498.927 298.886 499.138 295.931C499.138 295.368 499.491 294.594 499.138 294.172C497.656 291.991 498.785 289.67 498.785 287.418C498.785 284.815 499.068 282.141 499.28 279.538C499.28 279.116 499.562 278.483 499.28 278.272C497.797 276.372 498.927 274.332 498.785 272.432C498.785 271.588 498.785 270.673 498.927 269.829C499.068 268.914 498.927 268.14 498.22 267.437C498.079 267.296 498.079 266.592 498.573 266.311C498.856 266.1 499.421 265.889 498.856 265.396C498.22 264.833 498.15 264.2 498.856 263.567C498.997 263.426 499.209 263.004 499.209 263.004C498.15 262.23 498.715 261.105 498.715 260.19C498.715 258.572 498.927 256.953 498.997 255.335C497.514 253.506 498.644 251.466 498.503 249.496C498.503 248.792 498.927 247.737 498.503 247.385C497.726 246.47 497.726 245.556 497.867 244.571C497.938 243.515 498.009 242.53 498.079 241.475C498.079 240.771 498.503 239.716 498.079 239.364C496.667 237.746 497.797 235.987 497.585 234.369C497.514 233.665 497.938 232.61 497.585 232.258C496.455 231.062 497.091 229.796 497.091 228.529C497.091 226.911 497.232 225.293 497.373 223.675C497.444 222.901 497.373 222.267 496.738 221.705C496.597 221.564 496.526 221.071 496.667 220.931C497.02 220.297 497.797 219.946 496.879 218.961C496.244 218.257 497.373 216.85 496.455 215.724C495.679 214.739 496.455 213.473 496.385 212.347C496.385 211.925 496.597 211.292 496.385 211.081C495.608 210.377 495.538 209.603 495.679 208.689C495.82 207.774 495.396 206.578 496.526 205.945C496.314 205.311 495.961 204.749 495.961 204.115C495.961 202.919 496.102 201.794 496.173 200.597C494.62 198.627 495.891 196.376 495.679 194.336C495.679 193.773 496.032 192.999 495.679 192.577C494.267 190.677 495.326 188.637 495.255 186.667C495.255 185.049 495.396 183.43 495.538 181.812C495.608 180.757 495.749 179.842 494.832 178.998C494.69 178.927 495.043 178.224 495.255 177.872C495.467 177.591 495.961 177.38 495.467 176.958C494.62 176.254 495.255 175.339 495.114 174.495C495.043 173.791 495.749 173.51 495.891 173.088C496.032 172.736 495.396 172.173 495.326 171.681C495.043 170.062 496.314 168.233 494.761 166.685C494.902 164.786 494.973 162.886 495.114 160.986C495.255 159.227 495.326 157.469 495.467 155.71L496.244 144.241C496.314 143.045 496.244 141.849 496.526 140.724C496.808 139.528 495.749 138.894 495.749 137.909C495.749 137.206 495.749 136.502 496.526 136.01C497.091 135.588 495.467 135.165 496.455 134.462C497.444 133.758 496.808 132.562 497.091 131.577C495.82 130.24 496.455 128.552 496.526 127.074C496.667 123.697 496.879 120.32 497.161 116.943C497.161 116.028 497.161 115.254 496.455 114.551C496.314 114.41 496.314 113.706 496.808 113.425C497.091 113.214 497.726 113.003 497.091 112.51C496.526 112.088 496.597 111.525 496.667 110.963C497.02 105.404 497.373 99.8461 497.726 94.2879C497.726 93.4436 498.009 92.5993 497.161 91.8958C496.738 91.4736 497.02 90.8404 497.514 90.4183C498.079 89.9961 498.221 89.4333 497.797 88.9408C497.444 88.4483 497.161 88.0261 497.232 87.3929C497.373 85.9154 497.444 84.4379 497.514 83.0308C497.585 81.4126 497.797 79.7944 497.797 78.1761C497.797 76.769 498.503 75.1508 497.797 73.8844C496.808 72.2662 497.656 70.7887 497.585 69.2408C497.514 67.7633 497.726 66.2858 497.797 64.8787C497.867 63.5419 498.009 62.2755 498.009 60.9387C498.009 59.6722 498.574 58.4058 497.444 57.3505C498.785 56.7172 497.726 56.084 497.444 55.3805C497.444 55.2397 497.444 55.0287 497.444 54.9583C498.785 53.903 498.432 52.3551 498.573 50.948C498.573 50.2444 498.573 49.4705 498.715 48.7669C498.997 47.7115 497.938 47.2894 497.938 46.4451C497.938 45.7415 497.938 44.9676 498.079 44.264C498.15 43.6308 498.009 43.2087 497.585 42.7162C496.95 41.9423 498.432 41.8719 498.291 41.0276C498.15 40.0426 498.574 38.9169 498.291 38.0023C498.079 37.2987 497.656 37.0173 498.291 36.3841C498.574 36.1026 497.444 35.4694 497.656 34.6251C497.867 33.9216 497.797 33.1476 497.797 32.444L497.938 30.263V29.4187L498.503 29.278ZM59.7055 400.412C59.5642 402.17 59.4936 403.929 59.3524 405.688C59.3524 406.673 59.9879 407.729 60.9763 407.869C61.8941 407.94 62.6708 408.08 63.165 408.995C63.5886 409.628 64.1534 410.121 64.9301 409.91C65.8479 409.769 66.0597 410.895 66.6951 410.824C67.3306 410.824 67.966 410.262 68.6014 410.121C69.3074 410.05 70.1547 409.98 70.7901 410.262C71.4961 410.684 72.061 411.458 73.0494 411.246C74.2497 410.965 74.7439 412.232 75.7323 412.302C76.7208 412.302 77.4268 412.654 77.921 413.428C78.3446 414.061 78.9095 414.413 79.7567 414.413C80.6039 414.413 81.5218 414.483 82.369 414.553C83.2162 414.624 84.1341 414.624 84.9813 414.694C85.8286 414.694 86.6052 414.764 87.3112 415.468C87.8054 415.96 88.9351 415.749 89.7823 415.89C89.9941 415.89 90.2765 416.172 90.4177 416.383C91.1944 417.297 92.8182 416.383 93.3831 417.79C94.3715 418.071 95.5718 417.579 96.2778 418.353C97.2662 419.408 98.4665 418.915 99.5255 419.127C100.161 419.197 100.655 419.338 101.008 419.9C102.067 421.73 103.691 422.433 105.809 422.222C106.656 422.222 107.433 422.222 108.21 421.589C109.269 420.745 109.622 422.785 110.822 422.504C111.387 422.363 111.952 422.504 112.375 421.941C112.658 421.589 112.799 421.589 113.011 421.941C113.222 422.222 113.434 422.785 113.929 422.222C114.705 421.167 116.258 422.504 117.106 421.237C117.247 420.956 118.165 421.167 118.73 421.237C119.294 421.237 119.93 421.237 120.495 421.378C121.907 421.659 123.036 421.237 123.954 420.182C124.519 419.549 124.59 420.323 124.872 420.463C125.013 420.463 125.084 420.674 125.154 420.745C126.143 419.408 127.626 419.971 128.826 420.182C130.45 420.463 131.72 418.986 133.344 419.408C134.898 418.212 136.592 417.79 138.498 418.071C139.275 417.297 140.263 417.157 141.252 417.368C141.887 415.89 143.441 417.086 144.358 416.383C144.641 416.172 144.853 415.679 145.347 416.242C145.559 416.523 146.053 416.805 146.406 416.805C147.394 416.805 148.453 417.297 149.23 416.242C150.36 416.242 151.56 416.242 152.69 416.383C153.466 416.453 154.102 416.242 154.596 415.679C155.302 414.975 156.29 414.483 156.29 413.357C157.561 412.232 157.702 410.332 159.044 409.277C159.326 408.995 158.973 408.151 158.408 407.94C158.267 407.94 158.126 407.94 157.985 407.94C157.491 407.658 157.208 406.884 157.491 406.533C157.773 406.181 158.126 405.899 158.479 405.688C159.256 405.196 159.256 404.703 158.55 404.07C158.408 403.929 158.408 403.367 158.55 403.296C159.962 402.241 159.185 399.849 161.162 399.145C162.221 398.793 162.15 397.527 162.927 396.823C163.704 396.12 163.421 395.205 163.492 394.361C163.633 393.517 163.704 392.813 164.339 392.039C164.833 391.547 164.833 390.28 164.621 389.506C164.41 388.732 163.704 388.24 164.833 387.536C165.822 386.973 166.316 386.129 165.186 385.144C164.974 384.933 164.974 384.159 165.186 384.018C166.104 383.455 165.963 382.541 166.104 381.697C166.528 379.234 165.681 376.49 167.375 374.168C167.728 373.676 167.657 372.691 167.516 371.987C167.375 370.932 168.505 370.58 168.575 369.736C168.646 368.681 168.716 367.696 168.787 366.64C168.787 365.796 169.069 364.811 168.928 364.037C168.646 362.771 170.199 362.63 170.128 361.363C169.987 359.604 170.34 357.846 170.411 356.087C170.411 355.453 170.693 355.031 171.117 354.609C171.682 354.046 170.34 353.694 170.764 353.413C171.964 352.569 171.541 351.302 171.682 350.247C171.823 349.262 171.823 348.207 172.105 347.292C173.094 344.126 173.306 343.563 172.811 342.015C172.67 341.523 172.105 341.171 172.811 340.749C173.094 340.608 173.235 340.327 173.517 340.186C174.294 339.693 173.8 339.412 173.517 338.919C173.306 338.638 173.376 337.864 173.517 337.794C174.718 337.231 173.941 335.753 174.647 335.191C175.777 334.276 175.283 333.08 175.494 331.954C175.777 330.758 175.071 329.281 176.553 328.436C176.624 326.959 176.765 325.552 176.836 324.074C178.389 323.089 177.754 321.471 177.965 320.064C178.177 318.938 177.895 317.742 179.095 316.968C178.883 315.209 180.79 313.943 180.295 312.113C180.084 311.339 180.79 310.847 181.072 310.214C181.496 309.158 181.213 307.892 181.566 306.837C181.919 305.852 182.837 305.007 183.402 304.093C183.543 303.882 183.543 303.53 183.472 303.248C182.978 301.63 184.955 300.786 184.673 299.238C184.673 299.027 184.885 298.746 185.026 298.534C185.52 297.901 186.72 297.62 186.508 296.564C186.297 295.368 187.779 294.946 187.567 293.891C187.356 292.836 188.626 292.413 188.556 291.71C188.485 290.514 189.262 289.881 189.686 289.036C190.603 287.207 190.603 287.207 190.815 285.518C190.815 284.956 190.603 284.252 191.239 283.971C192.651 283.267 192.651 281.508 193.922 280.734C194.416 280.453 194.769 279.96 194.698 279.327C194.698 278.694 194.981 278.342 195.334 277.779C196.605 275.528 197.805 273.206 199.288 271.095C199.923 270.181 199.288 268.703 200.7 268.14C200.77 268.14 200.77 267.859 200.77 267.718C200.77 267.155 200.911 266.452 200.558 266.1C199.852 265.326 200.135 264.13 199.217 263.497C198.793 263.215 198.228 262.723 198.44 262.09C198.723 261.105 198.228 260.331 197.522 259.838C196.746 259.275 197.028 258.22 196.463 257.587C195.969 257.094 195.193 256.742 195.263 255.828C195.334 254.913 194.416 254.491 194.416 253.506C194.416 252.662 193.71 251.677 193.074 251.043C192.227 250.199 192.439 248.792 191.38 248.159C190.392 247.526 190.462 246.4 190.039 245.556C189.544 244.5 189.05 243.586 188.273 242.741C188.203 242.671 188.132 242.46 188.132 242.39C188.626 240.771 187.426 239.997 186.579 239.012C186.085 238.45 185.732 237.957 185.661 237.113C185.661 236.55 184.743 236.057 184.32 235.424C184.178 235.213 184.108 234.861 184.178 234.65C184.461 233.665 183.896 232.962 183.261 232.399C182.272 231.555 181.919 230.288 181.284 229.233C180.86 228.529 181.425 227.755 181.072 227.122C180.507 226.137 179.377 225.574 179.377 224.237C179.377 224.097 179.166 223.886 179.095 223.956C177.754 224.167 178.107 222.901 177.612 222.408C176.977 221.705 177.189 220.79 176.624 220.157C175.847 219.172 174.435 218.538 174.576 216.991C173.729 216.076 173.023 215.021 172.529 213.825C172.105 212.699 170.411 212.206 170.552 210.588C169.564 209.462 168.434 208.477 167.657 207.281C166.951 206.156 166.81 204.608 165.045 204.397C164.904 204.397 164.833 203.904 164.833 203.623C164.763 203.06 165.116 202.497 164.621 202.005C164.127 201.512 163.704 200.809 163.139 200.386C162.362 199.824 162.715 198.768 162.08 198.135C161.233 197.291 160.597 196.235 159.679 195.532C158.55 194.687 158.691 193.21 157.702 192.295C156.643 191.381 156.079 189.833 154.525 189.551C154.384 189.551 154.313 189.059 154.313 188.777C154.313 188.355 154.525 187.722 154.313 187.511C153.043 186.456 152.901 184.767 151.772 183.641C151.066 182.867 150.501 182.023 149.724 181.39C148.806 180.616 148.877 179.279 148.03 178.505C147.536 178.013 147.183 177.52 146.971 176.676C146.83 176.113 145.77 175.691 145.135 175.269C143.864 174.425 143.864 172.806 142.876 171.681C142.24 170.977 141.746 170.062 141.464 169.148C141.252 168.444 141.111 167.881 140.616 167.248C139.91 166.404 138.71 165.841 138.922 164.434C138.216 163.66 137.439 162.956 136.874 162.112C136.38 161.338 135.815 160.353 135.815 159.509C135.815 157.961 133.909 158.876 133.768 157.68C133.768 157.469 133.344 157.258 133.274 156.976C132.921 154.936 131.72 153.388 130.379 151.91C130.167 151.629 130.308 151.066 130.097 150.714C129.744 150.151 129.461 149.518 129.249 148.885C128.896 147.9 127.555 147.337 127.626 146C127.626 145.86 127.414 145.789 127.343 145.649C126.425 144.593 125.578 143.538 124.943 142.201C124.378 140.935 123.036 140.02 122.118 138.824C120.283 136.432 117.812 134.603 116.541 131.718C116.117 130.733 115.129 130.1 113.999 129.537C113.081 129.115 112.093 128.552 111.175 127.919C110.187 127.215 109.339 126.511 108.422 125.315C107.998 124.753 107.645 124.119 106.798 124.049C106.303 124.049 105.88 123.416 105.527 122.923C105.244 122.501 105.315 121.727 104.962 121.446C104.609 121.094 103.974 121.164 103.55 120.672C102.561 119.476 101.714 117.998 99.7373 118.209C99.5961 117.717 99.5255 116.943 99.1725 116.732C98.2547 116.099 97.0544 115.958 96.3484 115.184C95.4306 114.269 94.4421 113.425 93.3831 112.933C92.324 112.44 91.4768 111.736 90.7708 110.892C90.7708 110.892 90.2765 110.963 90.1353 111.103C89.7117 111.525 89.2175 111.314 89.2881 110.963C89.6411 109.274 89.0057 108.5 87.2406 108.711C86.817 108.148 86.0404 107.656 85.9697 107.093C85.8991 106.249 85.4049 105.545 84.9107 105.334C83.2162 104.841 82.369 103.434 81.4512 102.238C80.6745 101.253 79.4037 101.324 78.6976 100.268C78.4152 99.8461 77.4268 100.409 77.4268 100.901C77.4268 102.027 76.862 103.223 78.0622 104.138C78.0622 105.334 78.0622 106.46 77.8504 107.656C77.6386 108.852 78.9095 109.626 78.627 110.892C78.3446 112.299 78.4152 113.777 78.274 115.254C78.274 116.099 78.274 117.013 78.0622 117.858C77.921 118.772 78.4152 119.405 78.7683 120.25C79.1919 121.164 78.5564 122.079 77.921 122.853C78.3446 123.275 78.6976 123.697 78.627 124.33C78.4858 125.526 78.4858 126.652 78.4152 127.848L78.1328 131.788L77.921 135.306C77.8504 136.502 77.7092 137.628 77.7092 138.824C77.7092 140.09 76.9326 141.498 77.9916 142.553C79.3331 144.03 76.7914 144.312 77.215 145.578C77.3562 146.071 77.215 146.704 77.7798 147.126C78.1328 147.408 78.0622 147.478 77.7798 147.759C77.4974 147.97 77.215 148.393 77.1444 148.815C76.9326 150.855 76.862 152.895 76.7208 154.936C76.7208 155.639 76.862 156.695 76.4384 157.046C74.8851 158.524 75.7323 160.353 75.3793 161.971C75.3087 162.394 76.0147 163.238 75.9441 163.308C74.8145 164.012 75.2381 165.137 75.0969 166.122C74.9557 167.319 74.9557 168.444 74.8851 169.64C74.8145 170.977 74.6027 172.314 74.6733 173.58C74.7439 174.847 73.8966 175.691 73.6142 176.676C73.2612 177.942 73.4024 179.279 73.3318 180.616C73.2612 181.953 72.9788 183.29 73.12 184.556C73.2612 185.963 71.8492 186.667 71.9198 188.074C71.9198 189.411 72.2022 190.959 70.8607 192.084C70.7195 192.225 70.8607 192.929 71.1431 193.21C71.8492 193.984 71.7786 195.039 71.2843 195.602C70.5783 196.306 70.5077 197.08 70.4371 197.924C70.4371 198.979 70.2253 199.964 70.2959 201.02C70.2959 202.005 69.0956 202.216 69.2368 203.271C69.3074 204.115 69.1663 205.03 69.0956 205.874C69.0956 206.015 68.9544 206.156 68.8838 206.226C67.7542 206.93 68.1072 208.055 68.1072 208.97C68.0366 211.081 68.1072 211.714 67.4718 212.417C66.907 213.051 66.6951 213.613 67.3306 214.247C67.8248 214.739 67.7542 215.302 67.6836 215.865C67.4718 217.202 68.1072 218.82 66.6245 219.875C66.5539 221.001 66.3421 222.197 66.3421 223.323C66.3421 224.66 64.7889 225.363 65.1419 226.841C65.3537 227.966 65.0713 229.162 65.0007 230.358L64.7889 233.876C64.7183 235.072 64.5065 236.268 64.5771 237.394C64.7183 238.661 63.7298 239.435 63.518 240.49C63.165 242.038 63.165 243.726 63.165 245.274C63.165 246.822 62.3884 248.44 63.7298 249.777C63.6592 250.903 63.518 252.099 63.4474 253.225C62.0353 254.139 62.6002 255.546 62.3884 256.813C62.1766 258.361 62.5296 259.979 61.2587 261.245C60.9763 261.527 61.0469 262.512 61.3293 262.863C61.8235 263.497 61.9647 264.13 61.8941 264.833C61.6823 267.155 61.5411 269.547 61.4705 271.869C61.4705 272.784 61.1881 273.417 60.5527 274.191C60.1291 274.683 59.9879 275.88 60.9057 276.513C61.2587 276.794 61.1881 276.935 60.8351 277.146C59.9173 277.709 60.1997 278.623 60.1997 279.468C61.2587 280.171 60.8351 281.297 60.8351 282.282C60.8351 283.76 60.7645 285.167 60.6939 286.644C61.8941 287.559 61.2587 288.825 61.2587 289.881C61.0469 293.821 60.7645 297.761 60.5527 301.771C60.5527 302.615 60.5527 303.46 59.6348 304.093C59.4936 304.233 59.4936 305.007 59.6348 305.218C60.4115 305.922 59.9879 307.188 60.9763 307.751L60.7645 310.847C60.6233 312.747 60.5527 314.646 60.4115 316.546C60.3409 317.812 60.6233 319.219 59.2818 320.064C59.3524 320.767 58.8582 321.541 59.5642 322.104C60.5527 322.948 59.2818 324.496 60.6233 325.2C60.6233 326.044 60.6233 326.959 60.6233 327.803C60.4821 329.984 60.3409 332.165 60.1997 334.417C60.1997 334.768 60.3409 335.261 60.6233 335.542C61.1175 336.035 60.6939 336.246 60.4115 336.457C60.0585 336.668 59.9879 336.879 60.3409 337.09C60.8351 337.512 60.8351 338.005 60.9057 338.638C60.9057 339.482 60.2703 339.834 59.9173 340.397C60.7645 341.03 60.6233 341.874 60.5527 342.719C60.3409 346.237 60.1291 349.754 59.8467 353.272C59.8467 354.117 59.3524 355.242 59.776 355.876C60.7645 357.423 60.3409 358.901 60.3409 360.449C60.3409 360.589 60.3409 360.73 60.4821 360.801C61.3999 361.504 60.6233 361.785 60.2703 362.419C59.9879 362.982 59.8467 363.756 60.2703 364.459C60.4821 364.811 60.8351 365.233 60.7645 365.585C60.4115 367.203 61.2587 369.103 59.6348 370.439C59.4936 370.58 59.4936 371.143 59.6348 371.213C60.4821 371.847 60.4115 372.691 60.2703 373.606C60.0585 375.294 60.5527 377.123 59.07 378.46C58.9288 378.601 59.07 379.164 59.2112 379.234C60.0585 379.797 59.5642 380.923 60.3409 381.486C60.6939 381.767 60.6939 381.908 60.3409 382.119C59.5642 382.541 59.6348 383.315 59.6348 384.018C59.6348 385.074 59.4936 386.059 59.423 387.114L59.2818 389.717C59.2818 390.773 59.2818 391.828 59.07 392.813C58.717 394.009 59.8467 394.572 59.8467 395.557C59.7761 397.175 59.6348 398.793 59.5642 400.412H59.7055ZM256.476 368.188C255.629 368.188 254.711 368.047 253.864 368.047C253.158 368.047 252.593 367.836 251.957 367.344C251.322 366.922 250.333 366.992 249.486 366.922C249.345 366.922 249.204 366.922 249.063 366.781C248.286 366.218 247.58 365.303 246.733 365.163C245.674 365.022 245.25 363.756 244.12 363.896C243.485 362.911 242.426 362.982 241.508 362.771C240.943 362.63 240.59 361.715 240.025 361.223C239.461 360.73 238.119 361.012 238.613 359.604C238.119 359.042 237.625 358.549 237.201 357.916C236.99 357.564 236.919 357.072 237.06 356.72C237.484 355.383 236.778 354.468 235.93 353.624C235.295 352.991 235.436 352.358 236.072 351.795C236.778 351.162 236.495 350.669 236.072 349.966C235.436 349.051 235.648 348.699 236.495 348.347C237.837 347.855 237.837 347.855 237.343 346.729C237.201 346.448 236.848 346.237 236.848 346.026C236.848 344.689 236.848 343.352 237.131 342.086C237.413 340.678 235.86 339.834 236.425 338.427C236.636 337.794 236.425 337.02 236.425 336.316C235.083 335.542 236.425 333.643 235.083 332.939C235.154 332.165 234.518 331.673 234.307 331.039C234.024 330.266 234.307 329.281 234.377 328.436C233.389 327.733 233.53 326.677 233.671 325.692C233.954 324.004 233.177 322.667 232.33 321.401C231.835 320.697 231.2 320.134 231.412 319.079C231.482 318.727 231.059 318.305 231.059 317.953C230.918 316.687 229.859 315.842 229.929 314.435C229.929 313.169 228.729 312.254 227.599 311.621C227.458 311.551 227.034 311.621 226.823 311.832C226.328 312.325 225.552 312.606 225.622 313.521C225.764 314.857 223.999 315.561 224.493 317.038C224.634 317.461 223.575 317.672 223.575 318.375C223.575 319.36 222.233 319.571 221.951 320.275C221.598 321.189 221.598 322.245 221.386 323.159C221.386 323.3 221.104 323.371 221.104 323.441C220.68 324.707 219.692 325.552 218.703 326.326C217.927 326.888 217.432 327.522 217.644 328.507C217.927 329.773 216.444 330.406 216.515 331.602C216.515 331.954 216.303 332.376 216.091 332.728C215.597 333.713 215.244 334.768 214.467 335.542C213.549 336.457 213.832 337.794 213.196 338.497C212.208 339.553 212.631 340.678 212.349 341.734C210.866 342.578 211.714 344.759 210.019 345.603C208.466 346.377 208.184 348.347 207.195 349.614C206.418 350.528 206.63 351.513 206.418 352.428C206.348 352.78 205.995 353.132 205.783 353.483C205.359 354.328 205.006 355.313 204.089 355.805C202.959 356.368 204.018 357.775 202.959 358.479C201.9 359.182 202.818 360.801 201.547 361.434C201.264 361.574 201.406 362.489 201.335 363.052C201.335 363.474 201.335 364.037 201.053 364.248C200.064 364.881 200.205 365.796 200.276 366.57C200.417 367.625 199.217 367.907 199.217 368.821C199.217 370.299 199.005 371.776 199.005 373.183C199.005 373.535 199.429 373.887 199.499 374.309C199.641 374.661 199.711 375.364 199.57 375.435C198.44 376.068 199.076 377.405 198.44 378.038C197.311 379.234 197.169 380.219 198.299 381.415C198.44 381.626 198.299 382.259 198.087 382.541C197.875 382.893 197.452 383.174 197.099 383.385C196.11 383.948 196.463 384.933 196.393 385.707C197.593 386.41 196.605 386.973 196.252 387.607C195.334 389.506 194.275 391.335 195.687 393.517C196.04 394.079 195.828 395.064 195.193 395.838C194.416 396.823 194.204 398.23 195.193 399.356C195.475 399.638 195.475 399.778 195.122 399.989C194.557 400.341 194.204 400.974 194.557 401.397C195.475 402.382 195.546 403.085 194.416 403.929C194.204 404.07 194.204 404.914 194.416 405.055C195.263 405.759 194.981 406.673 194.91 407.447C194.91 408.01 194.91 408.573 195.334 408.995C195.899 409.488 196.322 410.05 196.816 410.613C197.452 411.387 197.452 412.02 196.816 413.287C196.675 413.498 196.534 413.709 196.463 413.92C196.675 414.061 196.958 414.202 197.169 414.272C197.593 414.342 198.087 414.272 198.44 414.413C199.076 414.764 198.864 415.468 198.793 415.96C198.652 416.664 199.146 417.016 199.57 417.438C199.711 417.649 199.994 417.719 200.135 417.86C200.911 416.805 201.97 417.156 202.959 417.297C204.089 417.438 204.936 417.227 205.642 416.312C206.065 415.82 206.489 415.679 207.195 415.749C209.807 415.96 212.49 416.101 215.103 416.242C215.526 416.242 216.091 416.242 216.303 416.031C217.221 415.116 218.209 415.749 219.198 415.609C220.186 415.538 220.821 414.624 221.951 414.835C223.293 415.046 224.846 415.468 226.046 414.272C228.094 414.835 229.859 413.287 231.906 413.709C232.612 413.85 233.318 413.709 234.024 413.709C234.73 412.372 236.283 413.709 237.131 412.654C237.907 411.809 239.531 413.076 240.167 411.598C241.438 411.598 242.85 412.232 243.979 411.458C245.25 410.613 246.521 411.176 247.792 411.246C248.78 411.246 249.486 411.035 250.051 410.332C250.686 409.558 251.11 409.769 251.675 410.473C251.816 410.684 252.593 410.613 252.805 410.473C253.369 409.839 254.075 409.91 254.781 409.98C255.346 409.98 255.982 410.332 256.476 409.839C257.323 408.925 258.453 409.628 259.371 409.417C260.43 409.136 261.348 408.432 262.618 408.714C263.466 408.925 264.383 408.714 265.231 408.925C266.219 409.206 266.643 407.869 267.561 408.151C268.549 408.503 269.114 407.588 269.89 407.447C270.738 407.307 271.585 407.447 272.432 407.447C273.068 406.251 274.48 407.377 275.186 406.673C275.962 405.829 276.81 406.251 277.657 406.181C277.798 406.181 278.08 405.688 278.01 405.618C277.657 405.196 277.304 404.774 277.374 404.07C277.445 403.367 277.657 402.311 277.304 402.03C276.174 401.045 277.516 399.286 276.033 398.582C276.033 397.879 276.174 397.105 276.174 396.401C276.174 396.12 276.104 395.768 275.892 395.627C274.833 394.924 275.962 393.587 275.115 392.883C274.197 392.039 274.833 390.984 274.833 389.999C274.833 389.225 274.833 388.592 274.197 388.029C274.409 386.199 272.715 384.581 273.491 382.682C274.056 381.274 272.785 380.289 272.856 379.023C271.938 378.249 272.009 377.264 272.15 376.279C271.091 375.576 271.373 374.52 271.444 373.535C271.444 373.254 271.585 372.832 271.444 372.691C270.102 371.635 271.444 370.017 270.667 369.103C269.608 367.695 270.314 366.288 270.243 364.952C270.243 364.248 269.396 362.067 268.761 361.152C268.478 360.73 268.196 360.589 267.843 361.082C267.49 361.504 266.855 361.715 266.855 362.419C266.855 362.982 266.855 363.615 266.713 364.178C266.713 364.741 266.925 365.585 266.219 365.726C265.443 365.866 264.948 366.218 264.313 366.57C263.889 366.781 263.183 366.57 262.618 366.57C261.771 366.429 261.206 366.57 261.206 367.625C261.206 368.047 260.783 368.258 260.288 368.188C259.088 368.047 257.959 368.047 256.758 367.977L256.476 368.188ZM315.571 427.499L318.677 427.71C319.454 426.795 320.442 426.866 321.431 427.007C322.419 427.147 323.478 427.147 324.537 427.218C325.596 427.288 326.585 427.288 327.644 427.429C328.279 427.499 328.773 427.429 329.197 426.936C329.903 426.092 330.75 425.74 331.88 425.951C332.868 426.092 333.927 426.022 334.916 426.092C335.975 424.825 337.387 425.599 338.587 425.529C339.576 425.529 340.776 426.022 341.623 425.599C342.682 425.107 343.741 424.966 344.8 424.825C345.789 423.489 347.271 424.825 348.401 424.122C348.542 424.052 348.613 423.911 348.754 423.84C349.319 423.207 349.389 423.981 349.672 424.122C350.025 424.263 350.519 424.544 350.801 424.474C351.155 424.403 351.437 423.77 351.861 423.77C352.708 423.77 353.626 423.77 354.473 423.911C355.461 424.192 355.885 422.855 356.803 423.137C358.568 423.7 359.98 422.152 361.745 422.363C361.816 422.363 362.027 422.152 362.027 422.081C362.027 421.941 361.886 421.8 361.745 421.73C360.898 421.589 359.98 421.378 359.133 421.448C358.074 421.589 357.721 420.463 356.873 420.393C355.108 420.182 353.343 420.182 351.578 420.041C350.66 419.971 349.884 419.971 349.178 420.745C349.036 420.885 348.33 420.674 348.048 420.463C346.777 419.408 345.506 419.267 344.165 420.252C343.318 420.815 342.047 419.83 341.411 421.026C340.988 420.745 340.564 420.323 340.14 420.323C339.434 420.323 339.152 419.549 338.728 419.478C338.164 419.408 337.74 420.393 336.893 420.112C335.763 421.167 334.704 421.308 333.574 420.112C333.504 420.041 333.363 419.83 333.221 419.83C331.174 419.689 329.126 419.619 327.079 419.478C325.879 420.815 324.325 419.971 322.984 420.041C322.278 420.041 321.289 419.689 320.866 420.041C319.666 421.096 318.395 420.463 317.124 420.534C316.7 420.534 316.206 420.323 315.782 420.534C314.935 420.885 314.088 421.308 313.241 421.73C313.523 422.785 312.182 422.996 312.182 423.911C312.182 424.755 312.04 425.67 312.04 426.514C312.04 427.007 312.252 427.288 312.817 427.288C313.664 427.288 314.582 427.429 315.429 427.429L315.571 427.499ZM487.277 436.575L492.502 436.927C493.843 435.52 495.538 436.434 497.02 436.364C498.221 436.364 499.35 436.364 500.55 436.575C501.68 436.716 502.033 435.871 502.739 435.379C502.88 435.238 502.88 434.816 502.739 434.535C502.669 434.324 502.315 434.042 502.104 434.042C500.621 433.901 499.209 433.831 497.726 433.761C496.879 433.761 495.961 433.761 495.467 432.846C495.396 432.705 494.761 432.565 494.69 432.705C493.843 433.901 492.572 433.198 491.513 433.62C490.595 433.972 490.595 433.901 490.242 433.62C489.466 432.846 488.83 431.439 487.559 432.987C485.724 432.776 484.17 434.253 482.194 433.761C481.064 433.479 479.864 433.55 478.663 433.479C476.828 434.957 474.78 433.901 472.803 433.972C472.662 433.972 472.45 433.901 472.38 433.972C472.168 434.113 472.027 434.253 471.815 434.464C471.886 434.605 472.027 434.746 472.097 434.746C473.58 434.886 474.992 434.957 476.475 435.098C477.604 436.364 478.805 436.575 480.146 435.379C480.287 435.238 480.852 435.309 480.993 435.449C481.629 436.505 482.688 436.364 483.676 436.434C484.877 436.505 486.006 436.575 487.206 436.645L487.277 436.575ZM541.359 435.449C541.359 435.449 542.065 435.801 542.842 435.098C543.689 434.394 544.818 435.098 545.736 434.887C546.089 434.887 546.372 434.324 546.725 434.042C547.501 433.339 546.442 433.198 546.372 432.776C546.372 432.213 546.372 431.65 545.807 431.228C544.748 430.454 544.536 429.399 544.748 428.203C544.748 428.203 544.254 427.921 544.183 427.992C543.689 428.484 543.053 428.765 542.842 429.61C542.7 430.173 541.924 430.665 541.5 431.158C540.3 430.665 539.382 431.509 538.323 431.791C537.829 431.931 537.193 432.002 536.77 431.439C536.558 431.158 536.346 430.665 535.852 431.228C535.64 431.439 535.428 431.65 535.216 431.791C534.51 432.447 534.346 433.315 534.722 434.394C535.005 435.238 535.499 435.52 536.205 435.027C536.699 434.675 537.335 434.113 537.688 434.535C538.464 435.449 539.311 435.59 541.288 435.52L541.359 435.449ZM44.7376 428.343C44.7376 428.343 44.7376 428.343 44.667 428.343C44.667 429.188 44.5258 430.102 44.5258 430.946C44.5258 431.158 44.8788 431.58 44.9494 431.58C46.3615 431.439 47.8441 432.494 49.115 431.228C50.1034 431.228 51.3037 431.509 52.0097 431.017C52.9982 430.384 53.7042 429.961 54.4808 431.158C55.3281 430.806 56.1753 430.524 56.8813 430.102C56.9519 430.102 56.8813 429.258 56.5989 428.977C56.2459 428.625 55.5399 428.554 55.1869 428.203C54.5514 427.569 53.7748 427.992 53.1394 427.71C52.6451 427.499 52.2921 426.936 51.7979 426.795C51.3037 426.655 50.5977 426.655 50.174 426.936C48.8326 427.851 47.8441 427.569 46.8557 426.444C46.5733 426.092 46.2909 425.67 45.9379 425.599C45.5849 425.459 44.8788 425.67 44.8082 425.881C44.667 426.725 44.667 427.569 44.5964 428.414L44.7376 428.343ZM317.618 156.132C317.618 156.132 317.406 155.85 317.336 155.85C316.771 155.85 316.135 155.85 316.135 155.006C316.135 154.021 315.5 153.529 314.794 153.106C314.37 153.669 313.523 153.81 313.523 154.725C313.523 155.217 313.241 155.499 312.676 155.499C311.687 155.499 311.193 156.202 310.699 156.906C310.558 157.117 310.699 157.469 310.77 157.68C310.911 157.891 311.264 158.031 311.476 158.031C311.899 157.961 312.182 157.68 312.605 157.469C313.453 157.046 314.088 157.328 314.088 158.102C314.088 158.383 314.088 158.665 314.088 158.946C314.088 159.228 314.229 159.439 314.3 159.72C314.653 159.579 315.076 159.439 315.218 159.228C315.924 158.172 316.488 157.046 317.618 156.343C317.618 156.343 317.618 156.132 317.618 156.061V156.132ZM308.722 159.72C308.722 159.72 308.087 159.65 307.804 159.72C307.522 159.72 307.098 159.79 307.098 160.001C306.957 160.353 306.886 160.846 307.098 161.127C307.381 161.62 307.804 162.042 308.228 162.464C308.863 163.168 308.651 163.73 307.945 164.223C307.592 164.434 307.522 164.645 307.875 164.856C308.087 164.997 308.51 165.137 308.652 165.067C310.134 163.941 311.546 162.745 312.958 161.549C312.958 161.549 312.817 160.986 312.746 160.986C312.182 160.916 311.334 161.127 311.052 160.775C310.417 160.072 309.711 159.72 308.863 159.79L308.722 159.72ZM284.011 183.571C283.446 184.204 282.317 184.275 282.246 185.541C282.246 186.315 282.105 186.948 281.399 187.37C281.399 187.37 281.469 187.792 281.611 187.933C281.611 188.004 281.893 187.933 282.034 187.933C283.305 187.792 283.799 186.526 284.788 185.963C284.647 185.752 284.505 185.471 284.293 185.33C283.658 184.767 284.505 184.697 284.647 184.415C284.647 184.275 284.788 184.204 284.929 184.134C284.717 183.993 284.505 183.852 284.011 183.501V183.571ZM341.411 132.421C341.411 132.421 341.058 131.859 340.846 131.577C340.211 130.803 339.858 130.733 339.787 131.436C339.787 132.281 339.011 132.562 338.728 133.195C338.375 133.899 338.022 134.673 337.74 135.376C337.74 135.447 337.74 135.658 337.881 135.728C337.952 135.799 338.164 136.01 338.164 136.01C339.223 135.025 340.352 134.11 341.411 133.125C341.482 133.055 341.411 132.844 341.411 132.492V132.421ZM336.751 136.291C336.751 136.291 336.257 136.01 336.116 136.08C335.269 136.573 334.845 137.628 333.574 137.487C333.08 137.487 332.798 138.543 333.221 138.894C333.504 139.105 334.139 139.316 334.351 139.176C335.198 138.613 335.904 137.839 336.681 137.135C336.822 136.995 336.681 136.573 336.751 136.291ZM263.254 345.814C263.466 344.759 263.183 343.915 262.407 343.211C262.124 342.93 261.912 342.859 261.771 343.211C261.489 344.126 261.206 345.111 262.195 345.885C262.407 346.026 262.548 346.307 262.76 346.448C262.901 346.237 263.042 346.026 263.254 345.814Z" fill="white"/>
</svg>
