<svg width="33" height="38" viewBox="0 0 33 38" fill="none" xmlns="http://www.w3.org/2000/svg">
<path d="M2.7094 14.5924C8.2013 9.56539 17.3333 -6.56706 29.2347 4.85325C32.6134 8.09539 31.8224 11.6368 31.636 16.1142C31.4111 21.5183 28.4502 27.0197 26.9073 29.2689C23.9431 33.5899 19.7823 36.2611 14.1988 36.7422C9.70169 37.1297 5.13953 36.6167 2.7094 32.7858C0.175409 28.7909 -0.388532 23.4055 5.0207 17.8229C5.92228 16.8924 6.77013 15.6921 7.60661 15.6921M22.1972 5.67138C22.124 6.40859 20.9056 7.85591 20.2719 9.33312C19.0945 12.0782 17.891 13.5373 17.2843 16.4699C16.7935 18.8425 18.4353 22.7444 16.696 26.2019C16.0079 27.5697 8.75193 30.2493 7.607 31.2692" stroke="currentColor" stroke-width="1.7" stroke-linecap="round"/>
</svg>
