<svg width="37" height="38" viewBox="0 0 37 38" fill="none" xmlns="http://www.w3.org/2000/svg">
<path d="M14.6655 1.1006C11.7884 0.340547 8.08206 1.40954 5.54874 2.98529C4.95923 3.35199 0.678632 6.32388 0.855948 6.78121C1.87063 9.39848 5.0445 11.0874 7.28411 11.9708C10.4239 13.2091 13.9573 14.2408 17.3174 14.3465C19.9616 14.4298 22.4925 13.1078 24.8576 11.984C26.3581 11.2712 26.592 11.027 25.5177 9.54189C23.2619 6.42398 20.0845 4.40339 16.5964 3.37019C15.1409 2.93907 13.9872 2.53403 12.4658 2.53403M0.850586 12.1003C1.27837 15.6929 2.92717 18.4304 4.3446 21.1939C5.73664 23.9078 7.17198 26.6308 8.72426 29.1222C9.97309 31.1265 11.11 33.9475 12.6914 35.331C14.1836 36.6363 15.9546 36.958 17.6292 36.8212C19.1275 36.6986 20.9646 36.4997 22.2394 35.0826C23.6233 33.5443 23.3989 30.4684 23.8771 28.186C24.321 26.068 24.8426 24.4424 25.6969 22.6649C26.1033 21.8196 26.1823 21.3525 26.1823 20.3533M29.9911 15.3258C32.097 16.7159 34.3072 18.5975 35.5132 21.7532C36.6913 24.8366 34.5326 26.4377 32.9049 26.9665C31.4527 27.4383 29.9069 27.8273 28.4167 27.8593C27.7853 27.8728 26.6452 27.8687 27.8763 28.1806M26.6053 18.8591C27.3914 19.2004 32.4366 22.4919 30.0124 24.001C28.7517 24.7858 27.5331 25.2864 26.1823 25.2864" stroke="#311C6A" stroke-width="1.7" stroke-linecap="round"/>
</svg>
