<svg width="35" height="38" viewBox="0 0 35 38" fill="none" xmlns="http://www.w3.org/2000/svg">
<path d="M12.7477 24.3328L12.7523 24.2555C12.1135 22.7402 12.2512 21.6238 13.1656 20.9063C14.0801 20.1888 14.2921 19.3408 13.8018 18.3622C13.3115 17.3836 13.6158 16.6909 14.7146 16.284C15.8134 15.877 16.5753 16.1529 17.0004 17.1115C17.4254 18.0701 17.9599 18.7642 18.6038 19.1937C19.2477 19.6232 19.5291 19.4339 19.448 18.6259C19.3669 17.8178 19.5288 17.1106 19.9336 16.5044C20.3384 15.8981 20.6976 15.4728 21.0111 15.2286L21.444 14.9296L21.4815 14.8623M3.31397 8.64839L3.31691 8.72576C4.91034 9.20163 5.39758 9.66323 4.77864 10.1106C4.15969 10.5579 3.73649 11.3132 3.50904 12.3764C3.28159 13.4396 3.35119 13.9895 3.71784 14.0261C4.08449 14.0627 4.11051 14.3758 3.79589 14.9652L3.35557 15.779L3.32396 15.8493M8.90926 24.2668L8.84911 24.3138C9.37146 26.3252 9.2065 26.9537 8.35422 26.1993C7.50195 25.4448 6.91823 25.5224 6.60306 26.4319C6.28789 27.3414 5.99398 27.8748 5.72134 28.032L5.37492 28.2242L5.31239 28.2678M19.2159 28.9122L19.1516 28.9531C19.4497 30.972 19.215 31.6518 18.4477 30.9925C17.6803 30.3331 17.0803 30.3645 16.6476 31.0866C16.2149 31.8087 15.8484 32.2721 15.5482 32.4766L15.1653 32.7482L15.0979 32.7834M24.803 16.5245L24.7429 16.5714C25.2652 18.5828 25.1003 19.2113 24.248 18.4569C23.3957 17.7025 22.812 17.78 22.4968 18.6895C22.1817 19.599 21.8878 20.1324 21.6151 20.2896L21.2687 20.4819L21.2062 20.5255M17.7081 13.8011L17.6854 13.7272C16.0326 13.7447 15.3922 13.529 15.764 13.0801C16.1359 12.6312 16.2857 12.0489 16.2135 11.3331C16.1412 10.6173 15.8052 10.2391 15.2055 10.1984C14.6057 10.1578 14.4271 9.84927 14.6696 9.27296L15.0359 8.48587L15.0334 8.40849M22.0051 9.52923L21.9596 9.46737C20.3262 9.46228 19.6061 9.0668 19.7992 8.28094C19.9924 7.49508 19.9208 6.67176 19.5845 5.81098C19.2481 4.9502 19.2373 4.15698 19.552 3.43133C19.8667 2.70567 20.1034 2.23991 20.2622 2.03405C20.421 1.82819 20.3209 1.58106 19.9619 1.29265C19.6029 1.00423 19.4108 0.889973 19.3856 0.949861L19.3505 1.11707L19.3478 1.03969M16.7489 26.6793L16.8166 26.6447C17.9166 25.5877 18.9146 25.1142 19.8108 25.224C20.707 25.3339 21.4717 25.0858 22.1049 24.4797C22.7381 23.8736 23.3974 23.9198 24.0829 24.6184C24.7684 25.3169 24.9483 26.0753 24.6229 26.8935C24.2974 27.7117 24.1195 28.5095 24.0891 29.2869C24.0587 30.0643 24.3739 30.3332 25.0348 30.0938C25.6957 29.8544 26.3861 29.7086 27.106 29.6564C27.826 29.6043 28.3439 29.5954 28.6596 29.6299L29.0575 29.682L29.1332 29.6815M33.8506 25.2044L33.7788 25.1799C32.2094 25.3311 31.1865 24.9177 30.7099 23.9394C30.2334 22.9612 29.4978 22.5478 28.5032 22.6994C27.5086 22.8509 26.9764 22.3619 26.9065 21.2324C26.8366 20.1028 27.2757 19.4259 28.2238 19.2017C29.1719 18.9775 29.93 18.6024 30.4981 18.0766C31.0662 17.5507 30.9814 17.1958 30.2436 17.0118C29.5058 16.8279 28.8913 16.4686 28.3999 15.934C27.9086 15.3994 27.5805 14.964 27.4158 14.6277L27.2225 14.1777L27.1687 14.1233M10.2487 12.3104L10.2335 12.2346C9.47233 10.8851 9.29007 9.77525 9.68676 8.90513C10.0834 8.03501 10.0515 7.20594 9.59101 6.41793C9.13048 5.62992 9.32883 4.97203 10.1861 4.44427C11.0433 3.91651 11.8132 3.94265 12.4956 4.5227C13.1781 5.10274 13.8828 5.50948 14.6097 5.7429C15.3366 5.97632 15.6535 5.73187 15.5605 5.00954C15.4675 4.28721 15.498 3.56626 15.6518 2.8467C15.8057 2.12713 15.9503 1.6145 16.0857 1.30879L16.2696 0.925118L16.2888 0.85022M29.7266 1.81394L29.7417 1.8898C30.3754 3.2686 30.5752 4.37572 30.3412 5.21116C30.1072 6.04661 30.1509 6.85103 30.4724 7.62442C30.7939 8.39781 30.5531 9.00673 29.7498 9.45118C28.9465 9.89563 28.1958 9.89006 27.4977 9.43448C26.7996 8.9789 26.088 8.63732 25.3631 8.40974C24.6382 8.18215 24.2716 8.41974 24.2634 9.12248C24.2552 9.82523 24.1965 10.5435 24.0874 11.2774C23.9782 12.0112 23.8841 12.5275 23.8051 12.8261L23.7057 13.1992L23.6865 13.2741M1.73786 27.9846L1.72272 27.9088C1.04523 26.5401 0.85145 25.432 1.14138 24.5847C1.43132 23.7373 1.39163 22.9244 1.02233 22.146C0.653034 21.3676 0.879297 20.7418 1.70112 20.2687C2.52295 19.7956 3.28023 19.8083 3.97297 20.3066C4.66571 20.805 5.37488 21.169 6.10048 21.3986C6.82608 21.6282 7.17559 21.3882 7.149 20.6787C7.12242 19.9693 7.1714 19.2501 7.29594 18.5211C7.42049 17.7922 7.53195 17.2772 7.63035 16.9761L7.75876 16.5993L7.77793 16.5244M20.1472 34.4596L20.0848 34.5033C18.8291 36.1719 17.6152 36.9508 16.4429 36.8399C15.2706 36.7289 14.2654 36.6724 13.4273 36.6703C12.5893 36.6682 11.8706 36.1879 11.2712 35.2294C10.6719 34.2708 10.513 33.2211 10.7946 32.0802C11.0761 30.9393 10.7173 30.3924 9.71816 30.4394C8.71898 30.4865 8.01553 30.8938 7.60783 31.6612C7.20012 32.4286 6.85577 32.6329 6.57479 32.274L6.22835 31.7256L6.15331 31.7357" stroke="#381067" stroke-width="1.7" stroke-linecap="round"/>
</svg>
