<svg width="194" height="80" viewBox="0 0 194 80" fill="none" xmlns="http://www.w3.org/2000/svg">
<g clip-path="url(#clip0_1136_3262)">
<rect width="193.143" height="80" fill="#381067"/>
<g opacity="0.3" filter="url(#filter0_f_1136_3262)">
<path d="M298.538 21.854C287.91 11.2361 275.231 2.87896 261.226 -2.74033C247.22 -8.35963 232.162 -11.131 216.912 -10.8962C201.661 -10.6614 186.517 -7.42502 172.343 -1.37186C158.169 4.68129 145.243 13.4327 134.303 24.3827C123.364 35.3326 114.625 48.2667 108.585 62.4465C102.545 76.6262 99.3234 91.7739 99.1031 107.025C98.8829 122.276 101.669 137.331 107.301 151.331C112.934 165.331 121.303 178.001 131.931 188.619L215.234 105.237L298.538 21.854Z" fill="#D9315A"/>
</g>
</g>
<defs>
<filter id="filter0_f_1136_3262" x="19.0908" y="-90.91" width="359.447" height="359.529" filterUnits="userSpaceOnUse" color-interpolation-filters="sRGB">
<feFlood flood-opacity="0" result="BackgroundImageFix"/>
<feBlend mode="normal" in="SourceGraphic" in2="BackgroundImageFix" result="shape"/>
<feGaussianBlur stdDeviation="40" result="effect1_foregroundBlur_1136_3262"/>
</filter>
<clipPath id="clip0_1136_3262">
<rect width="193.143" height="80" fill="white"/>
</clipPath>
</defs>
</svg>
