<svg width="171" height="108" viewBox="0 0 171 108" fill="none" xmlns="http://www.w3.org/2000/svg">
<path d="M87.6966 5.12689C91.3907 0.988139 96.8758 -0.795862 102.128 0.331628C106.024 1.16802 108.467 3.32251 109.226 4.02014C109.402 4.18157 109.567 4.34264 109.722 4.49856C112.207 5.78104 113.961 7.58592 115.152 9.24454C117.502 5.5448 120.861 3.03334 124.523 1.72311C130.879 -0.55111 136.983 1.14742 140.249 2.27391L155.618 7.57319C157.036 8.06213 158.516 8.6077 159.81 9.1889C160.415 9.46054 161.406 9.92716 162.462 10.591C162.983 10.919 163.867 11.5098 164.83 12.3823C165.576 13.0585 167.625 15.0015 168.976 18.2905C170.709 22.5092 170.967 28.4307 167.535 33.6656C165.662 36.5222 163.336 38.12 161.724 38.9749L163.346 41.4375C164.168 42.6864 165.235 44.3484 165.996 45.8812C166.206 46.3054 166.58 47.089 166.926 48.0751C167.021 48.3488 168.238 51.4937 167.793 55.5441C167.526 57.9758 166.446 62.4682 162.386 66.0143C161.922 66.4198 161.451 66.7818 160.981 67.1079L165.071 73.4463C166.102 75.0434 167.066 76.5683 167.688 77.6754C167.845 77.9544 168.143 78.4929 168.443 79.1388C168.58 79.4342 168.879 80.0915 169.166 80.9469C169.309 81.3746 169.544 82.1292 169.73 83.0926C169.877 83.85 170.231 85.8806 169.887 88.4575C169.533 91.1096 168.013 96.7392 162.276 100.149C157.046 103.257 152.129 102.161 150.438 101.669C147.17 100.715 145.036 98.8169 144.957 98.7518C144.227 98.1489 143.64 97.5481 143.307 97.1898L137.695 96.2535L133.373 100.886C132.676 101.634 131.907 102.423 131.116 103.151C130.544 103.678 129.116 104.974 127.206 106.028C126.399 106.473 123.973 107.764 120.61 107.973C116.258 108.243 110.185 106.521 106.507 100.478C105.404 98.666 104.792 96.8736 104.459 95.3059C102.231 94.5735 100.416 93.4391 99.0419 92.3548C98.6173 93.0114 98.118 93.6801 97.5279 94.3374C94.3265 97.9043 89.9896 99.5415 85.8082 99.422C85.7101 99.6008 85.608 99.7825 85.4985 99.9642C85.1641 100.521 82.4079 105.373 76.2339 107.026C67.4473 109.379 61.7433 103.481 60.0579 101.167C58.4204 98.9199 57.7763 96.7742 57.6067 96.2092C57.5733 96.0983 57.5413 95.9903 57.5119 95.8852C56.8918 96.1498 56.1709 96.4123 55.3645 96.6219C54.161 96.9352 51.3333 97.4623 48.0498 96.6834L44.9271 99.1052C42.2016 101.217 35.4823 105.446 27.181 102.468C23.5804 101.176 21.0104 98.9843 19.1827 96.6884C17.8644 96.4037 14.1069 95.5426 11.2299 92.7811C9.39085 91.0152 7.31352 89.7399 6.45842 86.5429C5.98849 84.7855 6.24014 81.896 6.29955 80.3947C5.68009 79.0501 5.19881 77.5059 4.92579 75.7329C4.20887 71.0724 5.61067 67.4519 6.45842 65.7225C7.164 64.282 7.96102 63.1756 8.56513 62.431C7.7928 60.512 5.74951 56.486 5.48784 55.0727L2.76635 45.4171C2.08014 41.7074 1.70566 38.5774 1.2938 37.192V31.366C0.943349 30.1856 0.434693 28.209 0.355258 25.8488C0.289173 23.8642 -1.28418 14.7092 2.76635 10.0132C7.40897 4.63138 14.6409 5.1364 17.7516 5.48036C20.6126 5.7967 24.7559 8.33477 25.8867 8.9091L29.4659 5.77453C30.5507 5.01167 32.9664 3.71381 35.6485 2.8609C37.1652 2.37855 44.8617 1.14313 50.8 5.59844C52.4194 4.33191 55.0668 2.65849 58.638 2.03538C63.3314 1.21637 68.0314 2.49999 71.6981 5.48036L72.0492 5.77453L75.7006 8.9091C76.6952 9.76273 77.6017 10.7123 78.4288 11.709C78.6611 11.3731 78.9 11.0534 79.1443 10.7515C82.4699 6.64153 86.7534 5.5335 87.2574 5.38545C87.3509 5.35791 87.4457 5.33259 87.5398 5.30677C87.5912 5.24691 87.6432 5.18654 87.6966 5.12689Z" fill="#381067"/>
<path d="M121.447 28.096C121.447 28.4219 121.414 28.7478 121.455 29.0736C121.515 29.4993 121.035 29.7519 121.143 30.2175C121.231 30.5699 121.163 30.9557 121.156 31.3281C121.156 31.368 121.13 31.4279 121.102 31.4412C120.656 31.634 121.075 32.1793 120.703 32.3988C120.642 32.7446 120.276 32.9707 120.296 33.3498C120.296 33.383 120.236 33.4163 120.202 33.4495C119.904 33.6756 119.734 33.9815 119.592 34.314C119.545 34.4338 119.403 34.5136 119.301 34.6133C118.868 35.0389 118.435 35.4712 117.994 35.8902C117.933 35.9434 117.825 35.9965 117.757 35.9832C117.439 35.9235 117.236 36.0697 117.026 36.2826C116.776 36.5286 115.665 37.0539 115.245 37.0872C114.954 37.1138 114.846 37.4862 114.514 37.3865C114.243 37.3001 114.088 37.4995 113.925 37.6592C113.39 37.4729 113.024 38.1313 112.483 37.9451C112.402 37.9185 112.239 37.9252 112.219 37.9651C112.003 38.3773 111.501 38.0781 111.238 38.3508C111.176 38.4106 111.095 38.4838 111.014 38.4904C110.452 38.517 109.896 38.5303 109.334 38.5503C108.847 38.9826 108.265 38.7099 107.723 38.7631C107.262 38.8096 106.978 39.0623 106.978 39.5345C106.978 41.1572 106.992 42.7865 106.965 44.4092C106.958 44.8547 107.107 45.1673 107.405 45.4932C107.689 45.8057 107.777 46.2646 108.021 46.6237C108.197 46.8764 108.055 47.1624 108.109 47.4284C108.17 47.7343 107.913 47.9205 107.845 48.1533C107.757 48.4924 107.344 48.7318 107.533 49.1441C107.351 49.3503 107.046 49.5299 107.005 49.7626C106.945 50.122 106.816 50.2214 106.477 50.2014C106.362 50.195 106.234 50.2815 106.112 50.3344C105.698 50.5139 105.698 50.5211 105.245 50.3144C105.164 50.2751 105.082 50.1885 105.015 50.2014C104.494 50.3015 104.27 49.8956 103.986 49.6163C103.904 49.5365 103.837 49.3703 103.857 49.2572C103.931 48.8648 103.742 48.5656 103.566 48.253C103.458 48.0668 103.335 47.874 103.288 47.6678C103.241 47.4483 103.288 47.2023 103.261 46.9762C103.261 46.923 103.112 46.8365 103.044 46.8498C102.923 46.8698 102.727 46.9429 102.719 47.0094C102.686 47.3751 102.74 47.7542 102.699 48.12C102.618 48.7784 102.97 49.5032 102.422 50.0948C102.422 50.3745 102.442 50.6534 102.422 50.9331C102.395 51.2792 102.584 51.6848 102.185 51.9508C102.171 52.2698 102.144 52.5888 102.144 52.9085C102.144 53.1875 102.117 53.4135 101.907 53.6595C101.771 53.8262 101.758 54.1781 102.029 54.3976C102.09 54.4441 102.144 54.5571 102.137 54.6237C102.083 55.0363 101.691 55.1894 101.44 55.4419C101.345 55.5349 101.04 55.5349 100.905 55.4619C100.627 55.3024 100.418 54.9698 100.106 55.3954C100.038 55.4884 99.9911 55.4683 99.903 55.3689C99.6527 55.0964 99.4083 54.7967 98.9551 54.9169C98.901 54.9298 98.7515 54.8168 98.7589 54.7767C98.7989 54.2982 98.65 53.8126 99.0092 53.3405C99.2528 53.0144 99.395 52.5559 99.3343 52.0767C99.2869 51.6712 99.3476 51.2521 99.361 50.8401C99.7742 50.5211 99.5846 50.0683 99.5846 49.6828C99.5846 49.3437 99.1921 49.0976 99.3002 48.6787C99.375 48.3728 99.361 48.0203 99.3002 47.7077C99.2328 47.3685 98.887 47.1025 99.0292 46.7035C98.6908 46.4907 98.7382 46.1648 98.7448 45.8456C98.7515 45.4466 98.339 45.1607 98.4471 44.7018C98.5286 44.3493 98.4745 43.9636 98.4605 43.5911C98.4471 43.2254 98.1761 42.9594 98.0139 42.6601C97.8851 42.4274 97.8176 42.1348 97.9124 42.0217C98.3657 41.4897 98.0953 40.8778 98.1761 40.3126C97.6548 39.867 97.9932 39.2752 97.8917 38.7564C97.8851 38.7099 97.9124 38.6434 97.8917 38.6234C97.831 38.5636 97.7562 38.4971 97.6755 38.4771C97.3704 38.4106 97.0253 38.6101 96.7476 38.3242C96.4766 38.0448 96.0841 38.3242 95.8197 38.1779C95.3932 37.9518 94.9666 37.7256 94.5334 37.5261C94.4527 37.4862 94.3846 37.3598 94.3238 37.3665C93.4434 37.453 92.8005 36.9476 92.1096 36.5486C91.7439 36.6549 91.6083 36.1296 91.2432 36.2427C91.0943 35.9766 90.7219 36.0431 90.5657 35.8503C90.322 35.5311 89.9162 35.8503 89.6792 35.5643C89.4963 35.3515 89.2927 35.152 89.0764 34.9791C88.9816 34.8993 88.7921 34.9258 88.7173 34.8461C88.521 34.6332 88.1759 34.6532 88.0271 34.4737C87.4917 33.8153 86.7067 33.5759 86.0092 33.1835C85.5552 33.1835 85.4811 32.5185 84.9732 32.6049C84.9458 32.6049 84.8784 32.5451 84.8784 32.5118C84.831 31.9931 84.3637 31.7803 84.066 31.4478C83.8157 31.1685 83.4766 30.9557 83.287 30.6431C83.0974 30.3372 82.8811 30.0646 82.6916 29.7652C82.5153 29.4926 82.231 29.2 82.2991 28.8209C82.3598 28.4751 81.8859 28.3421 81.994 27.9564C82.0688 27.7037 82.0481 27.4177 81.7704 27.2116C81.6963 27.1584 81.7096 26.9522 81.723 26.8192C81.7978 26.0677 81.5201 25.283 81.9807 24.5515C82.1095 24.352 82.028 23.9995 81.994 23.7268C81.9399 23.3544 82.0955 23.0884 82.3865 22.9088C82.7456 22.6894 82.4272 22.2904 82.6782 22.0443C82.9012 21.8315 83.2263 21.6586 83.1448 21.2596C83.1315 21.1798 83.1448 21.0601 83.1922 21.0069C83.4499 20.7342 83.7209 20.4748 83.9912 20.2155C83.9372 19.8165 84.3297 19.7035 84.4859 19.4374C84.6281 19.198 84.9324 19.3177 85.068 19.1381C85.1694 19.0052 85.1694 18.7923 85.2849 18.6727C85.5285 18.4199 85.7655 18.1672 86.1513 18.0475C86.429 17.9611 86.6053 17.582 86.8689 17.3958C87.1192 17.2162 87.4584 17.183 87.6546 16.897C87.8642 16.5911 88.1893 16.4315 88.5344 16.2985C88.738 16.2187 88.9276 16.1123 89.1171 16.0059C89.3134 15.8929 89.4082 15.68 89.6518 15.5935C90.0176 15.4606 90.3561 15.2212 90.7152 15.0815C91.0263 14.9618 91.2906 14.6026 91.7305 14.749C91.8186 14.7822 92.0015 14.5362 92.1504 14.4298C92.2585 14.35 92.3873 14.2037 92.4821 14.2236C92.9694 14.33 93.2812 13.7381 93.7891 13.9243C93.9787 13.9975 94.1209 13.8579 94.2831 13.7448C94.4927 13.5985 94.7504 13.5121 94.9807 13.3923C95.1636 13.2926 95.4479 13.399 95.6776 13.3657C96.0774 13.3125 96.5313 13.5586 96.8631 13.1463C96.8831 13.1197 96.9439 13.0997 96.9779 13.0931C97.4044 13.0931 97.8377 13.0399 98.2509 13.1064C98.6641 13.1728 98.8463 12.7207 99.2735 12.7938C99.7334 12.8736 100.214 12.8204 100.688 12.8071C100.972 12.8071 101.243 12.7938 101.44 13.0598C101.474 13.1064 101.691 13.0465 101.805 13C101.92 12.9467 101.968 12.8005 102.151 12.8005C103.85 12.8071 105.556 12.7805 107.256 12.827C107.581 12.8337 107.872 13.1928 108.278 13.0931C108.61 13.0133 108.888 13.1529 109.166 13.3524C109.287 13.4389 109.531 13.3657 109.72 13.3657C109.808 13.3657 109.957 13.3591 109.985 13.399C110.316 13.9842 110.919 13.8844 111.447 13.9842C111.583 14.2701 111.982 14.1106 112.131 14.3766C112.3 14.6758 112.652 14.7024 112.916 14.8687C113.14 15.015 113.235 15.3408 113.587 15.3076C113.627 15.3076 113.675 15.3275 113.702 15.3608C114.372 16.0192 115.042 16.6709 115.713 17.3292C115.747 17.9478 116.315 18.0342 116.701 18.2936C117.114 18.5729 117.283 19.1514 117.873 19.2113C117.94 19.218 118.049 19.3377 118.042 19.3908C118.008 19.6768 118.231 19.7899 118.387 19.9495C118.651 20.2155 118.922 20.4748 119.18 20.7409C119.2 20.7674 119.166 20.8406 119.18 20.8739C119.308 21.1465 119.443 21.4126 119.579 21.6852C119.734 22.0044 119.87 22.3369 120.175 22.563C120.262 22.6295 120.317 22.8091 120.303 22.9155C120.236 23.3012 120.662 23.5141 120.628 23.9197C120.608 24.1791 120.859 24.465 120.987 24.731C121.041 24.8508 121.13 24.9571 121.163 25.0768C121.285 25.549 120.933 26.0943 121.393 26.52C121.421 27.0253 121.447 27.5241 121.481 28.0295C121.475 28.0295 121.468 28.0295 121.455 28.0295L121.447 28.096ZM108.834 34.0347C109.491 34.0281 110.154 34.0281 110.811 34.0281C111.021 33.6823 111.366 33.7421 111.684 33.7621C112.063 33.7887 112.266 33.2899 112.707 33.4562C112.808 33.4961 112.984 33.25 113.153 33.2034C113.364 33.1436 113.607 33.2633 113.803 33.0505C113.878 32.964 114.047 32.964 114.169 32.9175C114.494 32.7779 114.609 32.3057 115.07 32.3522C115.131 32.3522 115.219 32.2392 115.266 32.166C115.442 31.8667 115.801 31.8601 116.051 31.6739C116.018 31.2283 116.43 31.0821 116.654 30.8093C116.823 30.5966 117.08 30.4237 117.175 30.1842C117.243 30.0047 117.392 29.8916 117.439 29.7387C117.534 29.4527 117.392 29.0869 117.751 28.8941C117.751 28.6614 117.757 28.4352 117.757 28.2025C117.757 27.5973 117.757 26.9987 117.757 26.3936C117.757 26.2673 117.751 26.081 117.67 26.0212C117.371 25.8084 117.433 25.4958 117.494 25.263C117.595 24.8774 117.046 24.7842 117.182 24.3985C117.257 24.1924 117.196 23.9396 117.196 23.7069C117.196 23.5406 117.108 23.4608 116.952 23.4475C116.627 23.4342 116.438 23.2014 116.363 22.9554C116.309 22.7692 116.241 22.6162 116.092 22.5098C115.807 22.3037 115.415 22.2505 115.198 21.9246C115.144 21.8381 114.954 21.8381 114.846 21.7717C114.48 21.5322 114.06 21.386 113.675 21.1931C113.289 21.0002 112.835 20.8406 112.571 20.4482C112.551 20.415 112.496 20.3818 112.462 20.3884C111.826 20.4748 111.413 19.9561 110.858 19.8165C110.574 19.7433 110.316 19.5372 110.059 19.3709C109.707 19.1448 109.328 19.3111 108.969 19.2845C108.746 19.2645 108.678 19.0052 108.529 19.0251C108.38 19.045 108.298 19.3044 108.075 19.2712C107.899 19.2446 107.703 19.331 107.561 19.1448C107.391 18.9187 107.053 18.9985 106.863 18.7591C106.748 18.6128 106.525 18.7059 106.396 18.8655C106.281 18.9985 106.118 19.0916 106.125 19.3111C106.139 19.6303 106.112 19.9495 106.098 20.2687C105.698 20.528 105.983 20.9869 105.821 21.2662C105.631 21.5987 105.53 21.9113 105.564 22.2771C105.577 22.4899 105.489 22.583 105.252 22.6229C104.974 22.6694 104.771 22.8689 104.71 23.1616C104.629 23.5472 104.839 23.9529 104.534 24.3453C104.277 24.6845 104.453 25.1434 104.433 25.549C104.412 25.9679 104.433 26.3803 104.433 26.7993C104.433 27.0719 104.067 27.185 104.134 27.5175C104.196 27.7835 104.188 28.0761 104.134 28.3488C104.074 28.6747 104.487 28.7677 104.433 29.067C104.358 29.4527 104.608 29.8916 104.209 30.2308C104.148 30.284 104.148 30.53 104.209 30.5833C104.405 30.7562 104.439 30.9557 104.439 31.1951C104.425 31.8933 104.433 32.585 104.439 33.2832C104.439 33.3498 104.548 33.4695 104.602 33.4628C104.73 33.4628 104.954 33.403 104.961 33.3564C104.981 33.1104 105.204 32.9574 105.252 32.7779C105.313 32.5384 105.407 32.3655 105.584 32.2126C105.618 32.1793 105.672 32.1128 105.678 32.1195C105.746 32.1593 105.848 32.2059 105.848 32.2591C105.861 32.585 105.834 32.9108 105.868 33.23C105.881 33.3431 105.997 33.4562 106.085 33.5559C106.172 33.6557 107.046 34.0347 107.154 34.0347C107.723 34.0347 108.285 34.0347 108.854 34.0347H108.834ZM87.1059 26.9389C87.1059 27.6704 87.1059 27.6704 87.6679 28.6614C87.8168 28.9207 87.8575 29.2466 88.0271 29.4859C88.2434 29.7852 88.5484 30.018 88.8188 30.284C88.9136 30.3838 89.0764 30.4835 89.0831 30.5899C89.0831 30.8892 89.2053 31.0089 89.503 30.969C89.9088 31.3214 90.4442 31.4412 90.8907 31.7271C91.101 31.8601 91.3513 31.9798 91.5883 32.0729C91.8727 32.1859 92.2245 31.9599 92.5162 32.2259C92.8272 32.5118 93.2338 32.3057 93.5922 32.3589C94.0328 32.4321 94.5401 32.1793 94.8992 32.6182C95.2717 32.6182 95.6509 32.6648 96.0233 32.6249C96.4158 32.585 96.6328 33.0239 97.0453 32.9241C97.2689 32.8709 97.5126 32.9175 97.7496 32.9108C98.1287 32.9108 98.1761 32.8709 98.1828 32.5584C98.1828 32.2791 98.1694 31.9998 98.1828 31.7205C98.2302 31.102 98.0005 30.4436 98.4605 29.885C98.3997 29.5857 98.5486 29.2865 98.3116 28.9673C98.0339 28.5882 98.0546 28.0561 98.2916 27.6837C98.4671 27.4111 98.4404 27.1717 98.4605 26.9123C98.4812 26.633 98.4745 26.3537 98.4605 26.081C98.4605 26.0278 98.325 25.9546 98.2442 25.9481C97.9665 25.9215 97.6755 25.9081 97.4992 26.1941L95.8064 26.2207C95.5427 25.8682 95.1496 25.9215 94.7911 25.9481C94.3579 25.9812 94.0328 25.8217 93.938 25.4293C93.8766 25.17 93.721 25.017 93.5522 24.8973C93.1523 24.6179 93.0983 24.1325 92.7865 23.8133C92.922 23.2946 92.374 22.9354 92.4888 22.3968C92.5702 21.9978 92.5088 21.5655 92.5022 21.1465C92.5022 20.9603 92.1844 20.8007 92.0896 20.9404C91.8927 21.2463 91.5002 21.1532 91.2766 21.4126C91.0196 21.7185 90.7552 22.0576 90.302 22.1109C89.6992 22.7027 89.1105 23.3012 88.4943 23.8798C88.1893 24.1658 88.1486 24.5847 87.8168 24.8707C87.5391 25.1101 87.431 25.5357 87.2955 25.8948C87.2481 26.0145 87.1333 26.1209 87.1192 26.2407C87.0925 26.4667 87.1126 26.7061 87.1126 26.9323L87.1059 26.9389ZM95.6575 22.8822C95.9619 22.8357 96.3277 23.0219 96.5514 22.6628C96.8698 22.6295 97.2149 22.6694 97.4859 22.5431C97.6821 22.45 97.8917 22.3702 98.068 22.2638C98.2983 22.1242 98.1494 21.8381 98.1627 21.6254C98.1828 21.3061 98.1828 20.9803 98.1627 20.6544C98.1561 20.5413 98.0479 20.4216 97.9732 20.3219C97.8036 20.0891 98.2235 20.0426 98.1287 19.9428C97.9665 19.7699 97.8917 19.5837 97.8377 19.3643C97.8036 19.2246 97.7362 19.2579 97.6414 19.3576C97.4245 19.5771 97.2082 19.7699 96.8764 19.883C96.558 19.9961 96.2803 20.3352 96.0841 20.6411C95.8671 20.9803 95.7049 21.3527 95.3665 21.5921C94.9466 21.8913 95.0548 22.317 95.0548 22.7094C95.0548 22.7692 95.1562 22.8689 95.231 22.8822C95.3665 22.9088 95.5087 22.8889 95.6509 22.8889L95.6575 22.8822ZM100.614 18.1539C100.174 17.9611 99.8823 18.4199 99.4764 18.4332C99.4357 18.4332 99.3476 18.5862 99.361 18.5995C99.5172 18.7724 99.6927 18.9254 99.8489 19.0982C100.032 19.2911 100.207 19.3377 100.438 19.1448C100.532 19.065 100.668 19.0052 100.79 18.9919C101.067 18.9719 101.352 18.9919 101.636 18.9786C101.711 18.9786 101.785 18.8988 101.859 18.8522C101.833 18.8189 101.805 18.7857 101.771 18.7524C101.44 18.4532 101.203 17.9877 100.614 18.1539Z" fill="#D9315A"/>
<path d="M42.3505 53.9656C41.633 53.9656 41.3219 53.7789 40.7598 53.0279C40.7124 52.9614 40.6443 52.8748 40.5703 52.8548C40.1771 52.7618 39.9541 52.5751 39.8727 52.1496C39.8386 51.9772 39.6357 51.8041 39.575 51.5781C39.5476 51.478 39.2699 51.4515 39.1144 51.3714C39.0329 51.3321 38.9448 51.2584 38.9181 51.179C38.6538 50.4538 37.997 50.0616 37.5097 49.523C37.286 49.2835 37.0764 49.0175 36.7988 48.8446C36.487 48.6451 36.5685 48.266 36.3115 48.0599C36.0605 47.8537 35.8375 47.6077 35.6072 47.3749C35.3703 47.1422 35.1266 46.9293 34.9097 46.6833C34.7401 46.4837 34.7608 46.1845 34.5105 46.005C34.2935 45.8453 34.104 45.6259 33.9551 45.3997C33.8196 45.187 33.7789 44.9143 33.6567 44.6882C33.5693 44.5352 33.4338 44.3956 33.2983 44.2825C32.8784 43.9367 32.4111 43.3847 32.1134 42.8328C32.0119 42.64 31.9305 42.4404 31.8084 42.2609C31.7002 42.1079 31.4566 42.0081 31.4365 41.8619C31.3958 41.6158 31.3144 41.4163 31.1115 41.2965C30.7657 41.0904 30.8538 40.6315 30.5154 40.4121C30.2036 40.2126 30.1088 39.8269 30.0007 39.5143C29.8992 39.2217 29.6756 39.082 29.5001 38.8825C29.3439 38.7096 29.4794 38.4104 29.2017 38.3039C28.9854 37.772 28.7751 37.2332 28.3012 36.8608C28.3145 36.5283 28.159 36.3687 27.8139 36.382C27.6784 36.1093 27.5022 35.85 27.4281 35.564C27.36 35.3047 27.1437 35.2116 27.0015 35.0454C26.9608 34.9988 26.7846 34.9855 26.7439 35.0254C26.4869 35.2781 26.1684 35.5175 26.0263 35.83C25.9248 36.0562 25.7759 36.2024 25.6271 36.3621C25.302 36.7012 24.9636 37.0205 24.6245 37.353C24.5771 37.8717 24.0157 38.0379 23.8461 38.4303C23.6225 38.9424 23.23 39.3746 23.1553 39.9598C23.1152 40.2458 22.993 40.5584 22.8101 40.7912C22.5598 41.1237 22.2347 41.403 21.9097 41.6756C21.8282 41.7488 21.6386 41.6956 21.5031 41.7155C21.2935 41.7421 20.9551 41.5959 20.9077 41.8951C20.8603 42.2542 20.339 42.5269 20.6167 42.8793C21.0092 43.3781 20.8396 43.9168 20.8803 44.4488C20.901 44.6816 20.9818 44.9808 20.867 45.1337C20.3256 45.852 20.7315 46.65 20.596 47.3949C20.5219 47.7806 21.0225 47.9934 20.8803 48.3924C20.7448 48.7914 21.2328 49.0109 21.1714 49.3899C21.361 49.5429 21.4764 49.7091 21.4491 49.9751C21.4224 50.3007 21.4157 50.6269 21.4491 50.9459C21.4764 51.199 21.7608 51.3521 21.7474 51.6711C21.7334 51.9035 21.957 52.1431 21.9978 52.3892C22.0452 52.6617 22.0111 52.9478 22.0111 53.2203C22.0111 53.4535 21.9978 53.6859 22.0111 53.9191C22.0452 54.4905 22.0585 55.0291 21.2662 55.1421C21.1173 55.1621 20.9891 55.3817 20.8803 55.5283C20.6841 55.7808 20.2101 56.1863 20.0479 56.2064C19.9058 56.22 19.7162 56.2664 19.6281 56.1999C19.2422 55.8938 18.7609 55.7744 18.3484 55.5283C18.2329 55.4547 18.1315 55.3488 18.05 55.2358C17.7116 54.7902 17.5694 54.6901 17.2917 54.8832C17.0888 55.0291 16.9059 55.1357 16.6689 55.0892C16.5541 55.0692 16.3645 54.9826 16.3579 54.9161C16.3238 54.5442 16.1135 54.3511 15.7684 54.2645C15.4774 54.1916 15.2605 54.0049 15.2204 53.7324C15.1864 53.5128 15.0442 53.4198 14.922 53.294C14.7598 53.1273 14.5769 52.9814 14.6377 52.7082C14.6517 52.6617 14.6443 52.6152 14.6377 52.5687C14.5569 52.1832 14.8413 51.7312 14.4214 51.405C14.4007 51.0059 14.2451 50.6404 14.0622 50.3007C13.8927 49.9884 13.5543 49.7158 14.0489 49.4032C14.0756 49.3899 14.0689 49.3168 14.0689 49.2769C14.0689 47.9734 14.0689 46.6766 14.0689 45.3732C14.0689 45.0606 13.6831 44.8877 13.7712 44.5086C13.8453 44.2027 13.7846 43.8636 13.7846 43.5377C13.7846 43.2118 13.8053 42.886 13.7779 42.5601C13.7712 42.4404 13.6491 42.334 13.5883 42.221C13.4662 42.0015 13.4461 41.9815 13.6224 41.7488C13.7438 41.5892 13.8793 41.3963 13.7372 41.2766C13.4802 41.0571 13.4935 40.8045 13.4935 40.5318C13.4935 39.2749 13.5135 38.0246 13.4868 36.7678C13.4802 36.3355 13.6898 35.8367 13.2499 35.4776C13.3106 35.2781 13.5135 35.1717 13.5069 34.9123C13.4802 33.6155 13.4735 32.312 13.5069 31.0086C13.5135 30.6229 13.121 30.4167 13.1958 30.0044C13.2632 29.6453 13.2092 29.2662 13.2092 28.8938V26.8056C13.2092 26.4332 13.1417 26.0475 13.2292 25.6951C13.324 25.3027 12.81 25.2229 12.9114 24.8238C12.9996 24.4714 12.9315 24.0857 12.9315 23.7132V22.7357C12.9315 22.4098 12.9048 22.0839 12.9381 21.7581C12.9789 21.3724 12.4916 21.1928 12.6271 20.7539C12.7152 20.4613 12.6271 20.1155 12.6204 19.7963C12.2139 19.5369 12.4508 19.118 12.3494 18.7921C12.2679 18.5061 12.065 18.26 11.9162 17.994C11.8754 17.9209 11.8007 17.8411 11.8007 17.768C11.7873 17.4886 11.7807 17.2093 11.8007 16.93C11.8214 16.6374 11.4823 16.5376 11.4963 16.2118C11.523 15.3539 11.4896 15.3539 12.1124 14.7819C12.2679 14.6423 12.4308 14.5891 12.5864 14.7686C12.7826 15.0014 13.1077 14.9017 13.2973 15.1411C13.4395 15.314 13.7372 15.2541 13.7579 15.1078C13.7712 14.9881 13.7438 14.8485 13.6965 14.7354C13.6491 14.6157 13.5209 14.5159 13.5069 14.3962C13.4802 14.0704 13.5409 13.7378 13.4868 13.4253C13.3987 12.9332 13.6898 12.6671 13.9948 12.3679C14.137 12.2283 14.2652 12.1418 14.4754 12.1618C14.7124 12.1817 14.9494 12.1751 15.1864 12.1618C15.4774 12.1485 15.5922 12.5608 15.924 12.4677C15.9313 12.4677 16.0054 12.6938 16.0595 12.8135C16.1135 12.9532 16.2157 13.013 16.3779 13.0063C16.6556 12.993 16.9466 12.9399 16.9333 13.3987C16.9333 13.5251 17.1569 13.678 17.2991 13.7977C17.4613 13.9307 17.4887 14.0903 17.4887 14.2832C17.4887 14.4095 17.5154 14.5891 17.6035 14.6423C18.0574 14.9482 18.1048 15.3872 18.05 15.8593C18.0167 16.112 18.1248 16.2783 18.2944 16.4645C18.4225 16.6108 18.3417 16.8036 18.1722 16.93C17.9693 17.0763 18.1655 17.1627 18.2396 17.2226C18.3818 17.3357 18.3751 17.5618 18.3277 17.5884C17.9626 17.8144 18.267 17.9874 18.3144 18.2135C18.3958 18.6125 18.3344 19.0448 18.3344 19.4638C18.3344 19.7431 18.2263 20.0889 18.3551 20.2884C18.8083 20.9733 18.5447 21.7049 18.6121 22.4165C18.6395 22.6891 18.6395 22.9219 18.8424 23.1679C18.9846 23.3408 18.9645 23.7199 18.8764 23.966C18.795 24.1987 18.5173 24.3783 18.8965 24.5778V25.5554C18.8965 25.8812 18.9105 26.2071 18.8965 26.533C18.8831 26.8588 18.9645 27.1182 19.1541 27.4108C19.303 27.6436 19.1808 28.0426 19.1808 28.3685V30.0377C19.1808 30.3635 19.2282 30.696 19.1675 31.0086C19.1067 31.3344 19.4925 31.4342 19.4719 31.7335C19.4452 32.1059 19.4585 32.4783 19.4719 32.8507C19.4719 33.0037 19.574 33.0635 19.7362 33.0901C20.122 33.1566 20.4271 32.9837 20.5486 32.6911C20.6574 32.4251 20.7114 32.2655 21.0499 32.1924C21.2528 32.1525 21.1854 31.7069 21.4557 31.5406C21.7201 31.3744 22.0385 31.3278 22.2548 31.0618C22.4443 30.8291 22.668 30.6362 23.0204 30.5232C23.3789 30.4101 23.6092 29.9113 23.9683 29.7584C24.3401 29.5987 24.5911 29.3394 24.8007 29.0667C25.0984 28.681 25.593 28.6411 25.9181 28.3019C26.2225 27.9894 26.4261 27.4906 26.9875 27.4972C27.2245 27.2712 27.4548 27.0384 27.6917 26.8123C27.6377 26.4133 28.0035 26.2803 28.193 26.0409C28.2197 26.0076 28.2605 25.9744 28.2945 25.9411C28.6603 25.582 29.0328 25.2162 29.3979 24.8571C29.7637 24.498 30.1022 24.0923 30.5087 23.7864C30.9286 23.4672 31.0567 22.9685 31.4025 22.6094C31.761 22.2369 32.1334 21.8845 32.5059 21.5254C32.8784 21.1662 33.2442 20.8071 33.6093 20.4413C33.7655 20.2817 33.9077 20.1421 33.9751 19.8893C34.0359 19.6566 34.3543 19.497 34.5031 19.2709C34.6527 19.0448 35.0992 19.2709 35.0926 18.832C35.0926 18.5327 35.411 18.3931 35.6072 18.2135C35.8168 18.0206 35.9116 17.7879 36.0064 17.5352C36.0538 17.4155 36.1826 17.2758 36.3041 17.2492C36.7307 17.1361 37.0698 16.9633 37.0898 16.4711C37.3541 16.2051 37.74 15.9857 37.8614 15.6731C37.9836 15.3473 38.1799 15.1411 38.3968 14.915C38.5797 14.7221 38.8501 14.5692 38.796 14.2433C39.087 13.8775 39.5276 13.7046 39.9334 13.5982C40.2111 13.5251 40.4548 13.4852 40.651 13.2657C40.8406 13.0595 41.0776 12.8933 41.2405 12.6671C41.4434 12.3879 41.8833 12.5209 42.0328 12.1817C42.2698 12.1817 42.5067 12.1751 42.7437 12.1817C42.8245 12.1817 42.9667 12.2283 42.9807 12.2748C43.1022 12.9332 43.739 13.1726 44.0908 13.6381C44.1382 13.7046 44.1655 13.7977 44.1655 13.8842C44.1722 14.1169 44.1515 14.3497 44.1722 14.5825C44.1922 14.7952 44.0841 14.9216 43.9486 15.0546C43.8198 15.181 43.6916 15.314 43.6102 15.4736C43.468 15.7396 43.4206 16.0721 43.231 16.2916C42.8719 16.7172 42.4594 17.1096 42.0255 17.4686C41.924 17.5551 41.6803 17.4554 41.6063 17.7014C41.5181 17.9874 41.4093 18.28 41.2405 18.526C41.0849 18.7522 40.8613 18.9384 40.6444 19.118C40.4821 19.2576 40.4481 19.4239 40.4755 19.61C40.5362 19.9492 40.374 20.202 40.1978 20.4746C40.0349 20.7273 40.0082 21.0598 39.832 21.2925C39.5883 21.6117 39.5069 22.0241 39.1484 22.2835C38.8093 22.5295 38.539 22.862 38.2339 23.1613C38.031 23.3608 37.8348 23.5537 37.6318 23.7531C37.7193 24.1056 37.4082 24.2253 37.2253 24.4248C37.0357 24.631 36.8255 24.8239 36.6292 25.0167C36.433 25.2096 36.5077 25.5487 36.23 25.6884C36.0338 25.7881 35.8375 25.8879 35.6479 25.981C35.7694 26.4133 35.3903 26.3534 35.1667 26.4598C34.9704 26.5529 35.2074 26.9652 34.8349 26.9519C34.5979 26.9453 34.5979 27.1116 34.4965 27.2645C34.2802 27.6037 33.9618 27.8896 33.6774 28.1889C33.5145 28.3618 33.3523 28.5347 33.1761 28.681C32.9058 28.9004 32.797 29.1532 32.797 29.5123C32.797 29.9512 32.8443 30.3436 33.2509 30.583C33.6026 30.7892 33.6167 31.1948 33.8536 31.4542C34.104 31.7268 34.395 31.9729 34.6453 32.2522C34.7268 32.3386 34.8015 32.4916 34.7875 32.6047C34.7268 33.0569 34.8623 33.4426 35.2615 33.6621C35.6339 33.8682 35.5598 34.3271 35.8642 34.5332C36.1553 34.7327 36.1619 35.0719 36.3589 35.3113C36.5551 35.5507 36.5411 35.9232 36.8595 36.0828C37.1439 36.2224 37.0491 36.5549 37.2386 36.7744C37.4349 36.9939 37.4823 37.333 37.7533 37.5325C37.9769 37.6988 38.1391 37.9448 38.3628 38.1111C38.6338 38.3172 38.7145 38.6165 38.8707 38.8825C38.9722 39.0421 39.0063 39.2018 39.0803 39.3547C39.1344 39.4678 39.4188 39.4545 39.5343 39.5675C39.8253 39.8468 40.2111 40.0663 40.2452 40.5252C40.5769 40.5784 40.7124 40.7978 40.8479 41.0904C40.9828 41.3697 41.2812 41.5693 41.5315 41.7887C41.7618 41.9882 41.9106 42.3406 42.3172 42.2875C42.8245 42.9259 43.6576 43.2983 43.9286 44.1429C43.9693 44.2626 44.1041 44.3956 44.2263 44.4288C44.9031 44.6151 45.2216 45.2202 45.7089 45.6192C45.9865 45.8453 46.1494 46.2044 46.5893 46.2311C46.7315 46.2377 46.9685 46.4771 46.9685 46.6035C46.9685 46.8828 47.1106 47.0491 47.2936 47.1687C47.8963 47.5677 47.9911 48.2926 48.3769 48.8247C48.668 49.2236 48.1059 49.5363 48.0993 49.9485C48.0993 50.0819 47.8556 50.2149 47.7201 50.3408C47.3276 50.727 46.9751 50.7535 46.3657 50.4538C46.1287 50.3343 45.8851 50.1677 45.6615 50.1148C45.2623 50.015 44.795 50.0017 44.4025 50.1148C44.0367 50.2149 43.6375 50.3744 43.3732 50.707C43.3058 50.7928 43.3124 50.8264 43.4139 50.9129C43.5287 50.9995 43.6102 51.1855 43.7183 51.1919C43.9826 51.2119 44.1655 51.2384 44.1515 51.5645C44.1382 51.7905 44.0908 52.1102 44.2196 52.2233C44.7002 52.6488 44.3411 52.9077 44.0501 53.0944C43.7864 53.2603 44.03 53.8325 43.488 53.7195C43.1703 54.0914 42.737 53.9856 42.3305 53.9985L42.3505 53.9656Z" fill="#D9315A"/>
<path d="M153.338 50.1749C153.297 50.3544 153.256 50.5404 153.209 50.7199C153.148 50.9459 152.498 51.4251 152.282 51.365C152.173 51.3386 152.112 51.119 152.011 51.0925C150.63 50.7664 149.248 50.4538 147.867 50.1549C147.752 50.1284 147.61 50.2014 147.481 50.2278C147 50.3344 146.547 50.4474 146.025 50.3344C145.714 50.2679 145.342 50.5475 144.983 50.3745C144.746 50.6141 144.482 50.5404 144.204 50.4674C143.744 50.3544 143.283 50.2414 142.823 50.1549C142.518 50.102 142.227 49.9154 141.882 50.1549C141.746 50.2479 141.441 50.102 141.212 50.0748C140.859 50.0351 140.5 49.7625 140.148 50.0884C139.783 50.0152 139.417 49.9487 139.052 49.8689C138.869 49.829 138.699 49.7891 138.524 49.9154C138.273 50.0948 138.083 49.962 137.975 49.7292C137.9 49.563 137.677 49.5231 137.63 49.563C137.325 49.8224 137.02 49.7026 136.702 49.6295C136.241 49.5231 135.775 49.4499 135.321 49.3103C134.948 49.1973 134.664 49.6162 134.251 49.3834C133.94 49.2039 133.506 49.0908 133.161 49.144C132.802 49.2039 132.464 49.2637 132.111 49.2105C131.752 49.5364 131.4 49.2371 131.049 49.2105L130.31 49.0443C130.033 48.9711 129.83 49.3369 129.531 49.1573C129.281 49.0044 129.105 49.257 128.895 49.297C128.638 49.3435 128.374 49.3502 128.117 49.4167C127.853 49.4832 127.541 49.5696 127.507 49.8822C127.453 50.4145 127.081 50.7399 126.769 51.1126C126.363 51.5982 126.356 51.5911 125.787 51.4652C125.604 51.4251 125.422 51.365 125.232 51.345C124.934 51.3057 124.826 51.1655 124.927 50.8794C124.941 50.8465 124.907 50.7736 124.88 50.76C124.514 50.6605 124.481 50.368 124.433 50.0683C124.427 50.0218 124.257 50.0152 124.203 49.962C123.973 49.7359 123.729 49.5098 123.885 49.1374L123.682 48.1266C123.086 48.0068 123.417 47.3418 123.025 47.0692C122.808 46.9162 123.126 46.9029 123.174 46.8097C123.228 46.6967 123.357 46.5105 123.323 46.4706C123.106 46.2179 123.167 45.9652 123.235 45.6926C123.289 45.4597 123.397 45.3068 123.587 45.1405C123.783 44.9677 123.797 44.695 123.695 44.3957C123.553 43.9834 123.56 43.9369 123.912 43.5844C124.108 43.3915 124.074 43.1721 124.162 42.966C123.756 42.6534 124.244 42.1679 123.946 41.8221C123.878 41.7489 123.919 41.5627 123.946 41.4364C124.04 40.9841 124.169 40.532 124.251 40.0797C124.311 39.7339 124.508 39.4213 124.311 39.0223C124.197 38.7829 124.359 38.4105 124.399 38.1046C124.027 37.8187 124.453 37.4063 124.23 37.0871C124.162 36.994 124.135 36.8144 124.182 36.7147C124.332 36.3489 124.169 36.0231 124.149 35.6706C124.128 35.3115 124.277 34.9457 124.386 34.5866C124.467 34.3073 124.115 34.1277 124.257 33.8152C124.359 33.5891 124.488 33.3164 124.264 33.0304C124.182 32.924 124.264 32.6912 124.285 32.5117C124.332 31.8933 124.779 31.3213 124.447 30.6496C124.365 30.49 124.535 30.2041 124.582 29.9779C124.67 29.5723 124.751 29.1667 124.839 28.761C124.427 28.4551 125.002 27.9363 124.589 27.6304C124.792 27.1117 124.345 26.573 124.63 26.061C124.867 25.6287 124.325 25.1831 124.643 24.7508C124.352 24.4782 124.555 24.159 124.528 23.8531C124.501 23.5605 124.291 23.2812 124.244 22.9886C124.176 22.5629 124.02 22.1506 124.169 21.6851C124.271 21.3725 123.898 21.0134 124.128 20.6476C124.142 20.621 124.047 20.4814 123.98 20.4548C123.803 20.3883 123.628 20.3683 123.682 20.0957C123.736 19.7964 123.932 19.5105 123.709 19.178C123.54 18.9252 123.763 18.6526 123.803 18.3866C123.857 18.0674 123.946 17.7548 124.02 17.4356C124.04 17.3491 124.048 17.236 124.102 17.1828C124.156 17.1296 124.291 17.0831 124.345 17.1164C124.751 17.3292 125.124 16.9035 125.55 17.0831C125.896 17.2227 126.302 17.2094 126.647 17.3558C126.999 17.5087 127.264 17.2161 127.568 17.2693C127.893 17.3225 128.212 17.409 128.536 17.4754C129.044 17.0898 129.518 17.4821 130.006 17.5286C130.405 17.5686 130.778 17.3026 131.204 17.4954C131.543 17.6484 131.942 17.6617 132.301 17.7614C132.511 17.8212 132.653 17.7282 132.816 17.6284C133.161 17.4223 133.492 17.2028 133.926 17.1429C134.136 17.1164 134.21 17.0831 134.326 17.2693C134.386 17.3624 134.556 17.4023 134.684 17.4289C135.192 17.5486 135.7 17.6617 136.201 17.7748C136.702 17.4954 137.182 17.7282 137.67 17.8212C138.171 17.5153 138.652 17.8014 139.14 17.8612C139.498 17.9077 139.851 18.1804 140.209 17.941C140.514 17.7415 140.853 18.1538 141.13 17.8545C141.164 17.8212 141.212 17.7748 141.245 17.7814C141.57 17.8412 141.895 17.9077 142.214 17.9875C142.498 18.0607 142.694 17.6816 142.992 17.8745C143.351 18.1073 143.696 17.8412 144.049 17.8345C144.36 17.8279 144.665 18.1006 144.983 17.8147C145.03 17.7748 145.159 17.7947 145.24 17.8147C145.558 17.8678 145.924 18.054 146.188 17.9543C146.486 17.8478 146.777 17.9809 146.973 17.8944C147.352 17.7215 147.705 17.7481 148.036 17.8878C148.382 18.0341 148.653 17.7748 148.957 17.808C149.282 17.8412 149.6 17.9742 149.926 18.0075C150.088 18.0208 150.223 17.7348 150.419 17.8545C150.758 18.0607 151.022 17.7215 151.341 17.7681C151.645 17.8147 151.929 18.0075 152.275 17.7681C152.519 17.6018 152.891 17.9809 153.189 17.6683C153.243 17.6085 153.453 17.6816 153.582 17.7082C153.859 17.7748 154.116 17.8478 154.374 17.6351C154.421 17.5952 154.645 17.6816 154.719 17.7681C154.868 17.941 154.97 18.1605 155.105 18.3533C155.308 18.6459 155.451 18.9651 155.823 19.1447C156.127 19.291 155.992 19.7299 156.155 19.9826C156.439 20.4215 156.005 20.5147 155.843 20.7341C155.714 20.907 155.545 21.0599 155.451 21.2462C155.41 21.3259 155.471 21.5388 155.552 21.5787C155.714 21.6651 155.938 21.6718 155.856 21.9312C155.789 22.1506 156.039 22.2703 156.026 22.4233C155.992 22.7425 155.897 23.0617 155.809 23.3742C155.789 23.454 155.721 23.5272 155.654 23.5804C155.281 23.893 154.557 24.1789 154.021 24.0858C153.71 24.0326 153.527 24.3186 153.236 24.2255C152.965 24.139 152.688 24.0925 152.41 24.0327C152.37 24.026 152.302 24.0127 152.282 24.0327C151.983 24.3984 151.564 23.9728 151.246 24.1989C150.934 24.4183 150.508 23.9994 150.217 24.3718C150.135 24.2654 150.061 24.159 149.98 24.0525C149.641 24.3785 149.282 24.1324 148.924 24.1058C148.618 24.0858 148.347 24.3186 148.002 24.1922C147.826 24.1324 147.583 24.2987 147.366 24.3053C147.183 24.3053 147 24.2122 146.811 24.1989C146.587 24.1789 146.425 24.4782 146.174 24.3319C145.876 24.159 145.66 24.4848 145.396 24.4383C145.118 24.3917 144.84 24.3319 144.57 24.2521C144.286 24.1656 144.103 24.5247 143.784 24.3785C143.534 24.2587 143.236 24.2454 142.958 24.1789C142.572 24.5513 142.166 24.2188 141.766 24.2122C141.421 24.5513 141.042 24.1989 140.71 24.2654C140.345 24.3386 140.013 24.425 139.647 24.292C139.329 24.1723 139.072 24.5846 138.726 24.3785C138.645 24.3319 138.476 24.4183 138.347 24.4516C137.501 24.6511 137.488 24.6977 136.905 24.5114C136.478 24.3717 136.12 24.7309 135.7 24.5646C135.53 24.4981 135.28 24.6644 135.07 24.6777C134.894 24.691 134.725 24.5713 134.535 24.6977C134.434 24.7641 134.278 24.7774 134.156 24.7641C133.845 24.7309 133.561 24.5646 133.222 24.7974C133.025 24.9371 132.707 24.6046 132.436 24.8306C132.219 25.0169 131.976 24.8506 131.773 24.7907C131.36 24.6644 130.981 25.1166 130.567 24.8306C130.554 24.824 130.412 24.9371 130.392 25.0102C130.236 25.642 130.019 26.2671 129.965 26.9122C129.931 27.3378 130.101 27.7701 129.938 28.2223C129.796 28.6146 129.755 29.0403 129.633 29.4393C129.552 29.7253 129.945 29.9181 129.762 30.2107C129.762 30.2174 129.911 30.3437 129.918 30.3371C130.351 29.9181 130.926 30.6297 131.36 30.1708C131.394 30.1376 131.536 30.1908 131.624 30.2107C131.807 30.2506 131.989 30.2905 132.179 30.3371C132.49 29.9048 133.005 30.4501 133.337 30.111C133.364 30.0844 133.418 30.0578 133.459 30.0578C133.777 30.0644 134.082 30.3504 134.4 30.1442C134.745 29.9247 135.036 30.1575 135.341 30.2041C135.585 30.2439 135.781 30.1509 135.991 30.1309C136.383 30.0977 136.763 29.7785 137.176 30.0378C137.514 29.7519 137.88 29.9048 138.233 29.9979C138.517 30.0711 138.706 29.7186 139.018 29.8716C139.315 30.0179 139.614 29.9713 139.939 29.825C140.142 29.7319 140.46 30.0112 140.724 29.7652C140.771 29.7186 140.913 29.7252 140.981 29.7652C141.387 29.9646 141.794 29.8184 142.173 29.7253C142.484 29.6521 142.776 29.5125 143.093 29.6654C143.459 29.8383 143.798 29.6654 144.15 29.6321C144.454 29.5989 144.726 29.3329 145.071 29.5324C145.274 29.6454 145.436 29.446 145.558 29.3395C145.924 29.0203 146.269 29.273 146.621 29.3262C146.689 29.3395 146.77 29.4327 146.811 29.5058C147.02 29.9181 147.386 30.1775 147.759 30.4235C147.881 30.5033 148.036 30.5765 147.982 30.6962C147.847 31.022 148.009 31.3013 148.063 31.6007C148.09 31.7735 147.968 31.9598 147.955 32.1393C147.928 32.4452 147.589 32.4851 147.474 32.7644C147.373 33.0104 147.014 33.2033 146.635 33.0371C146.506 32.9839 146.364 32.964 146.221 32.944C146.053 32.9174 145.89 33.1302 145.944 33.3231C145.971 33.4095 146.079 33.4826 146.087 33.5625C146.087 34.0214 146.073 34.4669 145.558 34.7063C145.348 34.806 145.159 34.9524 144.956 35.072C144.881 35.1186 144.76 35.1984 144.712 35.1718C144.183 34.8459 143.608 35.3314 143.1 35.092C142.674 34.8925 142.288 35.092 141.909 35.1452C141.652 35.1785 141.421 35.3248 141.124 35.2383C140.778 35.1385 140.405 34.959 140.074 35.2782C139.756 35.2583 139.424 34.9723 139.133 35.1851C138.787 35.4444 138.375 34.959 138.09 35.3447C137.562 35.1851 137.02 35.5908 136.492 35.3248C136.106 35.4178 135.713 35.4511 135.314 35.4311C135.192 35.4245 135.056 35.5509 134.935 35.5376C134.657 35.5043 134.38 35.3847 134.102 35.3713C133.892 35.358 133.628 35.5509 133.472 35.4844C133.113 35.3248 132.863 35.6506 132.545 35.5841C132.219 35.511 131.902 35.4245 131.577 35.3713C131.454 35.3514 131.265 35.3447 131.197 35.4113C130.737 35.8767 130.243 35.6174 129.748 35.5243C129.389 35.4577 129.294 35.5708 129.41 35.9965C129.43 36.0829 129.539 36.1959 129.511 36.2359C129.261 36.6016 129.619 36.9275 129.565 37.2799C129.539 37.4595 129.511 37.6391 129.308 37.7322C129.254 37.7588 129.2 37.8518 129.207 37.9051C129.227 38.0314 129.335 38.1578 129.322 38.2775C129.281 38.7297 128.949 39.182 129.125 39.6142C129.315 40.0731 129.057 40.4189 129.017 40.8113C128.99 41.0839 129.294 41.2701 129.146 41.5827C129.031 41.8287 128.977 42.1213 128.983 42.3873C128.983 42.547 129.152 42.7198 129.281 42.8462C129.308 42.8728 129.511 42.66 129.627 42.6734C129.904 42.6999 130.188 42.7598 130.453 42.8529C130.825 42.9859 131.109 42.5603 131.523 42.7797C131.84 42.9527 132.247 42.9926 132.619 43.0391C132.876 43.0723 133.093 42.7997 133.398 42.926C133.649 43.0324 133.899 43.0324 134.19 42.8928C134.393 42.7997 134.786 43.0856 134.989 42.9859C135.476 42.7464 135.917 42.8795 136.323 43.0457C136.723 43.212 137.02 42.8529 137.386 42.9726C137.745 43.0856 138.124 43.1455 138.49 43.2319C138.774 42.9327 138.916 43.1521 139.099 43.3583C139.173 43.4447 139.397 43.4979 139.498 43.4514C140.013 43.2053 140.514 43.345 140.967 43.5312C141.333 43.6775 141.563 43.3118 141.895 43.4248C142.207 43.5312 142.545 43.6509 142.856 43.631C143.304 43.6044 143.737 43.4913 144.191 43.6509C144.59 43.7905 145.017 43.8504 145.43 43.9435C145.89 44.0499 146.35 44.1563 146.811 44.2494C146.987 44.2827 147.17 44.3093 147.346 44.2893C148.084 44.2095 148.084 44.2029 148.93 44.7283C149.363 44.6751 149.6 45.0009 149.844 45.2337C150.135 45.513 150.345 45.8854 150.576 46.2245C150.643 46.3243 150.65 46.4706 150.656 46.597C150.677 47.1224 150.677 47.1224 151.097 47.2088C151.32 47.2553 151.537 47.3485 151.761 47.1689C151.835 47.1091 152.078 47.1157 152.132 47.1822C152.363 47.4549 152.465 47.8406 152.871 47.947C152.857 48.4857 153.243 48.8514 153.48 49.2837C153.514 49.3502 153.48 49.4566 153.467 49.5431C153.419 49.7692 153.365 49.9952 153.311 50.2214L153.338 50.1749Z" fill="#D9315A"/>
<path d="M64.7682 17.5952C65.2422 17.5952 65.7161 17.5952 66.1834 17.5952C66.5085 17.5952 66.7995 17.5819 67.0772 17.8546C67.226 18.0009 67.5918 17.7947 67.8422 18.0541C67.9643 18.1804 68.3094 18.0741 68.479 18.1871C68.6752 18.3135 68.8308 18.4265 69.0884 18.4465C69.4809 18.4797 69.806 18.799 70.2259 18.759C70.4969 19.0716 71.0042 19.045 71.2145 19.4507C71.7692 19.5903 72.1958 20.0159 72.7785 20.1223C73.1577 20.1889 73.5435 20.3285 73.8412 20.6344C74.3966 21.1997 75.0668 21.6918 75.514 22.3302C75.8865 22.8556 76.313 23.3078 76.7396 23.7733C76.9151 23.9662 76.8818 24.2721 77.1388 24.4516C77.3691 24.6113 77.5246 24.864 77.7549 25.0236C77.9718 25.1765 77.9037 25.4691 78.0599 25.5955C78.3236 25.8149 78.2088 26.2273 78.5539 26.3803C78.8923 26.5265 78.8583 26.9122 79.0279 27.1716C79.1974 27.431 79.3322 27.7036 79.5559 27.9297C79.6373 28.0162 79.678 28.1625 79.6914 28.2888C79.7187 28.6014 79.6507 28.9007 79.9484 29.1734C80.1112 29.3263 79.8676 29.712 80.1653 29.9115C80.3549 30.0445 80.2261 30.3371 80.4564 30.4968C80.5578 30.5699 80.5311 30.8293 80.5445 31.0021C80.5785 31.4411 80.4297 31.9133 80.8222 32.2923C80.8629 32.3322 80.7474 32.5251 80.6933 32.6447C80.6666 32.7113 80.5919 32.7911 80.6119 32.8376C80.6459 32.9175 80.7681 32.964 80.8021 33.0438C80.9443 33.3696 80.6933 33.7554 80.9984 34.0812C81.2827 34.3805 81.0932 34.7861 81.1132 35.1453C81.1472 35.8435 81.0791 36.5418 81.1406 37.2334C81.1739 37.6325 80.937 37.9051 80.8562 38.2376C80.7814 38.5435 80.8422 38.8827 80.8422 39.2086C80.8422 39.581 80.8422 39.9534 80.8422 40.3192C80.2668 40.6517 80.8562 41.4298 80.2735 41.7623C80.4904 42.3807 79.8609 42.8529 79.9891 43.4581C80.0031 43.5113 79.2849 44.9145 79.2374 44.9611C79.0145 45.1938 78.7635 45.4133 78.5813 45.6727C78.4391 45.8788 78.371 46.1448 78.2896 46.3909C78.2155 46.6303 77.8971 46.5438 77.8697 46.6103C77.6327 47.2421 77.0713 47.5946 76.6515 48.0668C76.516 48.2197 76.3197 48.2064 76.1775 48.2795C75.751 48.5123 75.3511 48.8049 74.9453 49.0776C74.5521 49.3436 74.0375 49.4434 73.7057 49.8291C73.6583 49.8889 73.5435 49.9354 73.4687 49.9221C73.1643 49.8889 72.9681 50.0352 72.7244 50.1885C72.5208 50.3144 72.1624 50.1148 71.9728 50.4209C71.9521 50.4538 71.898 50.481 71.8573 50.4874C71.4174 50.5676 70.9094 50.2815 70.537 50.7199C70.0704 50.7335 69.6031 50.76 69.1425 50.7664C68.5738 50.7735 68.0051 50.7664 67.443 50.7664C67.3008 50.7664 67.1519 50.8 67.0164 50.7664C66.7661 50.6934 66.5358 50.5475 66.2782 50.5075C66.0005 50.461 65.7094 50.5075 65.4317 50.4874C65.3577 50.4874 65.2762 50.3945 65.2155 50.328C65.0192 50.1148 64.7756 50.255 64.5519 50.215C64.2469 50.6405 63.7936 50.4674 63.3938 50.4874C63.062 50.5075 62.7303 50.4674 62.3985 50.4939C61.9586 50.5339 61.4506 50.3015 61.0989 50.7664C60.7871 50.7135 60.4487 50.8866 60.151 50.6534C60.0495 50.574 59.9207 50.501 59.7985 50.4939C59.5141 50.4674 59.2298 50.5204 58.9521 50.4739C58.6951 50.4345 58.5396 50.1084 58.2145 50.2014C57.7472 49.9687 57.1985 49.9221 56.7453 49.6495C56.6705 49.6029 56.5417 49.6162 56.5083 49.563C56.4202 49.4168 56.3928 49.1441 56.2913 49.1175C56.1084 49.0709 55.9255 49.0709 55.8107 48.898C55.4449 48.3461 54.714 48.2396 54.3208 47.7143C53.8135 47.8074 53.7321 47.1889 53.2855 47.1291C52.8857 47.0759 52.7368 46.5305 52.2629 46.5239C52.1948 46.5239 52.1407 46.3776 52.0599 46.3377C51.6534 46.1315 51.6734 45.6394 51.3624 45.3601C51.0506 45.0807 50.7663 44.7682 50.4685 44.4689C50.57 43.9702 49.8724 43.9236 49.8798 43.4448C49.8798 43.3118 49.6762 43.1588 49.5474 43.0325C49.4052 42.8995 49.2904 42.7665 49.3311 42.5603C49.3918 42.2943 49.2156 42.1414 49.0534 41.9751C48.9312 41.8488 48.7624 41.7689 48.7557 41.5362C48.749 41.2303 48.8705 40.9111 48.5594 40.6384C48.3291 40.4389 48.6335 40.0066 48.261 39.7805C48.1663 39.7207 48.2003 39.4414 48.2003 39.2618C48.2003 38.7497 48.241 38.2376 48.1803 37.7323C48.1329 37.3532 47.8412 37.0273 47.9026 36.5884C47.9567 36.176 47.9159 35.7571 47.9159 35.3382V34.2209C47.9159 33.8019 47.9093 33.3829 47.9159 32.964C47.9226 32.5983 47.9567 32.2391 47.9767 31.8734C48.3625 31.5941 48.1462 31.195 48.1936 30.8492C48.6676 30.663 48.3492 30.1776 48.5728 29.8849C48.8912 29.466 48.9786 28.9206 49.3718 28.5349C49.5881 28.3221 49.6902 28.0095 49.8865 27.7768C50.0961 27.524 50.333 27.298 50.5834 27.0852C51.044 26.6995 51.1861 26.0876 51.6734 25.7086C52.1207 25.3694 52.608 24.997 52.8589 24.5248C53.2448 23.8066 53.8676 23.3477 54.3956 22.7891C54.9443 22.2105 55.5397 21.6785 56.0884 21.1066C56.3187 20.8672 56.7179 20.9469 56.8808 20.6211C57.0023 20.3684 57.0497 20.0891 57.4562 20.0226C57.7339 19.976 57.8287 19.4906 58.2412 19.5371C58.2752 19.5371 58.3093 19.4773 58.35 19.4573C58.6677 19.3043 58.6137 18.9053 58.8573 18.6992C59.2705 18.8587 59.5415 18.5329 59.8733 18.4132C60.1576 18.3068 60.4146 18.1339 60.6923 17.9942C60.8078 17.9344 60.936 17.8745 61.0648 17.8679C61.4914 17.8546 61.9312 17.9344 62.3378 17.8413C62.7236 17.7549 63.0687 17.5354 63.5026 17.5753C63.9225 17.6152 64.3557 17.5819 64.7756 17.5819L64.7682 17.5952ZM73.4487 34.3473C73.4487 34.0213 73.4147 33.6955 73.4554 33.3763C73.5028 32.9906 73.0629 32.7844 73.151 32.3721C73.2184 32.0595 73.1643 31.727 73.1577 31.4012C73.1577 31.3679 73.1036 31.328 73.0629 31.3014C72.7578 31.1019 72.8459 30.7894 72.8933 30.5433C72.9614 30.1776 72.4668 30.0645 72.5756 29.6788C72.643 29.4394 72.643 29.1534 72.372 28.9273C72.1624 28.7544 72.3586 28.4418 72.1824 28.1758C71.7018 27.4575 71.4174 26.6329 70.9709 25.8881C70.7946 25.5955 70.7472 25.2231 70.551 24.9504C70.3073 24.6179 69.9616 24.3519 69.6638 24.0526C69.6298 24.0194 69.5891 23.9928 69.5624 23.9529C69.4135 23.7334 69.1899 23.7134 68.9463 23.7201C68.6212 23.7334 68.4516 23.3809 68.0658 23.4142C67.8021 23.4341 67.5104 23.1948 67.2401 23.0617C67.1586 23.0218 67.0912 22.8889 67.0298 22.8955C66.5899 22.9687 66.0819 22.6627 65.7028 23.1016C65.2088 23.1815 64.7142 23.3012 64.2609 22.9421C64.1861 22.8822 63.9559 22.8822 63.8951 22.9421C63.7189 23.1349 63.516 23.1549 63.2723 23.1682C62.9946 23.1815 62.6762 23.4807 62.3311 23.893C62.3037 23.9263 62.2563 23.9928 62.2296 23.9862C61.6876 23.8997 61.5928 24.6645 61.0581 24.578C60.6583 24.9704 60.1643 25.3096 59.88 25.775C59.5889 26.2605 59.4127 26.8125 58.9594 27.2048C58.9861 27.5374 58.9861 27.8499 58.6477 28.0561C58.4308 28.1891 58.4241 28.4219 58.336 28.6214C58.2145 28.894 57.8894 29.1335 57.8761 29.3995C57.862 29.7519 57.4221 29.8849 57.537 30.244C57.3814 30.4103 57.1985 30.55 57.2526 30.8226C57.314 31.1485 57.2526 31.4544 56.9756 31.6805C57.0363 32.0196 56.826 32.2657 56.7246 32.5517C56.6438 32.7711 56.4335 32.9042 56.4135 33.1236C56.3795 33.4827 56.3728 33.8485 56.3521 34.2142C55.9596 34.4869 56.1625 34.8859 56.1291 35.2384C56.1018 35.5509 56.2032 35.8901 55.8515 36.1029C55.8515 36.4155 55.8988 36.7547 55.5537 36.9608C55.5537 37.2401 55.5537 37.5194 55.5537 37.7988C55.5537 37.9849 55.6278 38.2509 55.533 38.3374C54.9984 38.8561 55.3842 39.4879 55.2687 40.0465C55.2287 40.2526 55.3708 40.3724 55.4723 40.5254C55.5197 40.5918 55.2961 40.8246 55.3368 40.8978C55.4249 41.0507 55.6011 41.1638 55.5464 41.3699C55.4656 41.7091 55.7026 41.9684 55.9256 42.0283C56.3187 42.1347 56.5824 42.3741 56.7927 42.6534C57.1651 43.1389 57.8013 43.2586 58.2011 43.7174C58.3907 43.9303 58.8032 43.6975 59.0743 44.0035C59.2438 44.1963 59.6563 44.03 59.9407 44.2961C60.1777 44.5221 60.6516 44.1763 60.9767 44.5022C61.2344 44.7549 61.5995 44.582 61.9179 44.6086C62.1549 44.6286 62.3918 44.5953 62.6221 44.6219C62.7443 44.6352 62.8458 44.7549 62.9673 44.8014C63.0894 44.848 63.3057 44.9145 63.3331 44.8746C63.536 44.6153 63.7936 44.602 64.0847 44.6153C64.4638 44.6286 64.843 44.582 65.2155 44.6286C65.6554 44.6818 65.9938 44.4689 66.3796 44.3493C66.6306 44.2695 66.9557 44.4623 67.1653 44.2029C67.3822 43.9369 67.7547 44.2096 67.9236 43.9968C68.1132 43.7574 68.4383 43.8438 68.6345 43.6244C68.736 43.5113 69.0884 43.4847 69.0884 43.4182C69.0884 42.8064 69.752 42.9261 70.023 42.567C70.4629 41.9751 71.0316 41.4564 71.6137 40.9908C71.9321 40.7381 71.9728 40.379 72.1891 40.0997C72.3653 39.867 72.4334 39.5544 72.5682 39.2817C72.7037 39.0091 72.9681 38.7564 72.8459 38.4239C72.7037 38.0448 73.137 37.8985 73.151 37.566C73.1777 36.861 72.9207 36.1029 73.4213 35.4512V34.3406L73.4487 34.3473Z" fill="#D9315A"/>
<path d="M12.947 74.9126C12.947 74.8282 12.937 74.7388 12.947 74.6537C12.993 74.2803 12.7888 73.8469 13.0898 73.5429C13.4069 73.2189 13.0237 72.7955 13.3455 72.4565C13.5858 72.2026 13.6879 71.8192 13.8461 71.4902C13.9843 71.2013 14.1325 70.9073 14.286 70.6234C14.4189 70.3695 14.6538 70.1449 14.5564 69.8209C14.8735 69.4826 15.0523 69.0391 15.3688 68.7201C15.6244 68.4662 15.599 68.0922 15.9108 67.8783C16.1811 67.6888 16.3961 67.4349 16.5136 67.0808C16.6003 66.8219 16.9274 66.6424 17.1524 66.4285C17.4027 66.1846 17.6684 65.945 17.9087 65.6861C18.0769 65.5066 18.3733 65.3922 18.3172 65.0682C18.5268 64.9437 18.7618 64.8443 18.93 64.6798C19.1242 64.4953 19.3545 64.4209 19.5795 64.3057C19.8038 64.1863 19.978 63.9624 20.1516 63.7629C20.2844 63.6134 20.4326 63.5884 20.6161 63.5884C20.7336 63.5884 20.9125 63.559 20.9639 63.4839C21.2042 63.0906 21.7096 63.0805 22.0113 62.7616C22.2923 62.4676 22.7776 62.4225 23.0846 62.1786C23.4111 61.9197 23.9124 62.2037 24.1213 61.7702C24.4691 61.7803 24.6834 61.3318 25.0819 61.5113C25.3476 61.2324 25.69 61.2617 26.0424 61.2424C26.4617 61.2174 26.9269 61.4112 27.2894 61.0128C27.3508 60.9484 27.545 60.9878 27.6725 60.9878C28.3421 60.9878 29.0116 60.9678 29.6804 60.9928C30.0536 61.0078 30.4928 60.8233 30.7739 61.2424C31.1316 61.2424 31.4894 61.2424 31.8419 61.2424C32.0822 61.6107 32.4707 61.4462 32.7978 61.5163C33.0735 61.5757 33.4006 61.6951 33.5588 61.8947C33.8198 62.2237 34.2029 62.3281 34.5247 62.4976C34.8311 62.6571 35.1635 62.9761 35.5927 62.8116C35.7916 63.1206 36.1087 63.0856 36.4204 63.0755C36.5072 63.0755 36.6554 63.0505 36.6754 63.0906C36.8697 63.499 37.3349 63.22 37.6053 63.4489C37.7588 63.5783 38.0091 63.6034 38.142 63.7378C38.4484 64.0418 38.8268 64.2113 39.2153 64.3808C39.2507 64.3959 39.3221 64.3658 39.3428 64.3858C39.5985 64.6247 39.8128 64.9838 40.1145 65.0882C40.523 65.2277 40.7533 65.5116 41.0344 65.7655C41.2947 66.0051 41.535 66.264 41.7953 66.4979C41.9642 66.6474 41.8467 66.912 42.0717 67.0465C42.2552 67.1609 42.3727 67.4499 42.5516 67.4799C43.0169 67.5593 43.139 67.8533 43.3133 68.2123C43.4561 68.5106 43.7986 68.7101 44.0382 68.969C44.0843 69.0191 44.0536 69.1385 44.0382 69.2237C44.0082 69.4125 44.0743 69.557 44.2325 69.6671C44.7745 70.0555 44.958 70.6684 45.2751 71.2063C45.3158 71.2757 45.3719 71.3508 45.3773 71.4251C45.4026 71.7592 45.2698 72.1282 45.6483 72.3621C45.709 72.8105 45.4587 73.3184 45.9139 73.6924C45.9139 74.1258 45.9186 74.5643 45.9139 74.9977C45.9033 75.3711 45.5461 75.64 45.6329 76.0684C45.709 76.4475 45.679 76.8509 45.6376 77.2393C45.6176 77.4738 45.3158 77.6183 45.3719 77.9173C45.418 78.1662 45.3826 78.4001 45.1623 78.6196C45.0502 78.7341 45.0962 79.033 45.1169 79.2426C45.1677 79.7003 45.0962 80.0994 44.6723 80.3734C44.6363 80.3984 44.5749 80.4428 44.5802 80.4628C44.6877 80.8318 44.4067 81.0908 44.3192 81.4047C44.2531 81.6336 44.386 81.9526 43.9414 81.9126C43.8907 81.9126 43.8032 82.0077 43.7779 82.0771C43.6657 82.336 43.609 82.6299 43.4508 82.8545C43.2772 83.1034 43.0523 83.3473 42.7919 83.4918C42.4395 83.6863 42.4902 84.0847 42.2399 84.3293C42.0049 84.5632 41.6371 84.7177 41.6318 85.1211C41.039 85.704 40.4463 86.2869 39.8588 86.8648C39.6599 86.8248 39.5217 86.9299 39.4143 87.0744C39.0158 87.6072 38.3723 87.7667 37.8356 88.0857C37.7641 88.125 37.672 88.1851 37.6053 88.1651C37.1867 88.0557 36.9311 88.4941 36.5072 88.4541C36.1801 88.424 35.7816 88.2745 35.4906 88.5535C35.1835 88.8524 34.7596 88.5342 34.504 88.743C34.1208 89.057 33.8498 89.037 33.4666 88.743C33.3031 88.6186 32.966 88.6085 32.7564 88.8574C32.5828 89.062 32.3379 88.9225 32.1336 88.9626C31.8933 88.5985 31.5148 88.728 31.173 88.698C30.9174 88.6736 30.621 88.8281 30.4167 88.6035C30.1557 88.3196 29.834 88.4741 29.5429 88.449C29.2773 88.424 29.0062 88.4591 28.7406 88.439C28.4903 88.419 28.3574 88.115 28.0457 88.1701C27.7954 88.2152 27.5397 88.2152 27.3254 87.9706C27.1619 87.7868 26.8094 88.0356 26.6045 87.7817C26.5384 87.7016 26.3802 87.6716 26.2627 87.6573C25.9663 87.6323 25.6746 87.6916 25.4143 87.4177C25.2715 87.2682 24.893 87.4978 24.6987 87.2239C24.658 87.1688 24.5559 87.1488 24.4744 87.1287C24.2234 87.0744 23.9124 87.2582 23.7181 87.0243C23.5339 86.8097 23.2475 86.8748 23.0486 86.6803C22.8597 86.4965 22.5326 86.3663 22.2616 86.362C21.9605 86.362 21.797 86.1725 21.572 86.0731C21.0814 85.8535 20.5501 85.694 20.1415 85.355C19.7477 85.0317 19.2471 84.8672 18.8993 84.4588C18.6389 84.1448 18.1383 84.0847 17.8826 83.7114C17.7551 83.5268 17.3052 83.2379 17.1877 83.1978C17.111 83.1728 16.9888 83.1285 16.9781 83.0734C16.8867 82.5005 16.3447 82.2766 16.0176 81.8925C15.7626 81.5936 15.3587 81.3797 15.1952 81.0457C15.0163 80.6874 14.7867 80.4084 14.5056 80.1538C14.2139 79.8949 14.2246 79.4515 13.8515 79.2326C13.6212 79.0981 13.8568 78.7641 13.7286 78.6447C13.5297 78.4501 13.5451 78.1662 13.3662 78.0017C13.1666 77.8222 13.2227 77.6133 13.2073 77.4088C13.1819 76.9954 13.3248 76.5469 12.9416 76.2129V74.9076L12.947 74.9126ZM30.4728 84.2492H31.4127C31.7705 84.2492 32.1336 84.2042 32.4807 84.2592C32.8332 84.3193 33.0274 84.0354 33.3084 83.9903C33.528 83.9553 33.763 83.9402 33.9726 83.9903C34.2944 84.0697 34.3965 83.6863 34.6675 83.7214C35.0714 83.7757 35.4031 83.5519 35.7663 83.4768C36.4404 83.3373 36.9518 82.8889 37.5799 82.69C37.8663 82.5999 38.0245 82.4111 38.1827 82.2265C38.5251 81.8282 38.9697 81.5693 39.435 81.3797C39.8281 81.2202 40.1345 80.9663 40.2627 80.6323C40.4362 80.1788 40.8501 79.8255 40.8294 79.2869C40.8294 79.1825 40.9115 79.038 41.0036 78.973C41.3307 78.7341 41.3915 78.3407 41.6118 78.0367C41.8207 77.7428 41.9435 77.3837 42.1017 77.0604C42.2606 76.7414 42.1631 76.298 42.1585 75.9096C42.1585 75.645 42.1478 75.3911 42.4188 75.2316C42.3373 75.1372 42.2499 75.0471 42.1685 74.9527C42.5002 74.7581 42.4288 74.4398 42.4288 74.1459C42.4288 73.8862 42.3934 73.6173 42.4395 73.3634C42.4956 73.0594 42.0917 72.965 42.1631 72.6861C42.2759 72.2326 42.0303 71.8493 41.816 71.5253C41.5911 71.1762 41.2132 70.9023 40.8554 70.6584C40.5898 70.4739 40.2674 70.3644 39.9716 70.22C39.716 70.0905 39.435 70.0004 39.1893 69.8559C38.8929 69.6814 38.5458 69.6571 38.2548 69.5369C37.9631 69.4175 37.6467 69.273 37.3757 69.0792C37.3449 69.0592 37.2889 69.0692 37.2428 69.0792C36.875 69.1636 36.6707 68.7752 36.2823 68.7902C35.9805 68.8002 35.6995 68.4412 35.3217 68.5556C35.1581 68.2967 34.8925 68.2316 34.6321 68.3067C34.269 68.4062 34.1108 68.0478 33.8044 68.0328C33.2984 68.0028 32.741 68.2023 32.3072 67.7789H30.2992C30.0336 68.0628 29.6911 68.0528 29.3387 68.0428C29.0269 68.0328 28.7152 68.0328 28.3981 68.0428C28.0917 68.0528 27.79 68.0822 27.489 68.1022C27.2694 68.4262 26.9216 68.2517 26.6352 68.3067C26.5177 68.3318 26.4156 68.4212 26.3034 68.4712C26.0324 68.5907 25.7614 68.6851 25.5525 68.9297C25.2661 69.263 24.8576 69.5126 24.6326 69.8709C24.4284 70.1949 24.2081 70.4889 23.9631 70.7778C23.871 70.8823 23.851 71.0718 23.7742 71.2213C23.391 71.9787 22.9925 72.7354 22.5987 73.4929C22.4558 73.7768 22.1648 74.0457 22.3177 74.4248C21.9652 74.6637 22.1134 75.0428 22.0366 75.356C21.9605 75.67 21.7202 75.9239 21.771 76.298C21.8277 76.7264 21.807 77.1699 21.7763 77.6033C21.7456 78.0518 21.9552 78.4101 22.1848 78.7441C22.3484 78.983 22.5633 79.1725 22.6654 79.4715C22.7522 79.7304 23.1407 79.8255 23.1407 80.1989C23.1407 80.3233 23.355 80.5279 23.4985 80.5529C24.0806 80.6673 24.3156 81.1702 24.6987 81.5042C24.7908 81.5836 24.7448 81.8131 24.8983 81.9426C25.1126 82.1221 24.8676 82.1271 24.7808 82.1565C24.4284 82.2966 24.3616 82.4454 24.5712 82.66C24.6326 82.7251 24.7041 82.7794 24.7601 82.8445C24.9644 83.0834 25.1793 83.2729 25.5471 83.2178C25.6393 83.2028 25.7514 83.3523 25.8642 83.3974C26.2881 83.5619 26.6866 83.7807 27.0905 83.9803C27.3454 84.1047 27.6879 83.8759 27.9642 84.1348C28.2553 84.4087 28.6438 84.2192 28.9809 84.2442C29.4715 84.2793 29.9615 84.2542 30.4521 84.2542L30.4728 84.2492Z" fill="#D9315A"/>
<path d="M122.838 87.3382C122.838 86.9441 122.833 86.5457 122.838 86.1524C122.843 85.7733 122.716 85.3549 123.139 85.091C123.139 84.6976 123.145 84.3042 123.15 83.9101C123.64 83.6061 123.247 83.0132 123.497 82.7293C123.824 82.3609 123.579 81.9175 123.778 81.6536C124.079 81.2452 124.039 80.8461 124.054 80.4227C124.458 80.0944 124.345 79.6359 124.36 79.2125C124.841 78.9679 124.483 78.375 124.866 78.076C125.097 77.8972 124.887 77.5982 124.984 77.3887C125.061 77.2242 125.306 77.1548 125.276 76.9102C125.209 76.4224 125.674 76.0733 125.607 75.5455C125.561 75.1621 126.001 74.7981 125.894 74.3346C125.868 74.2252 125.986 74.0807 126.052 73.9613C126.302 73.5028 126.583 73.0644 126.491 72.5065C126.445 72.2025 126.885 72.0931 126.808 71.739C126.741 71.4601 126.798 71.1511 126.808 70.8572C127.314 70.4888 127.12 69.9452 127.079 69.4975C127.038 69.0641 127.549 68.8345 127.401 68.4361C127.237 67.9927 127.667 67.7438 127.723 67.3697C127.753 67.1458 128.111 67.0407 128.014 66.7517C127.896 66.4084 128.275 66.264 128.331 65.985C128.377 65.7654 128.56 65.5766 128.612 65.3621C128.653 65.1925 128.724 65.0531 128.872 65.0881C129.368 65.2026 129.598 64.8542 129.884 64.5896C130.048 64.4401 130.201 64.4008 130.39 64.5996C130.61 64.8292 130.968 64.7191 131.146 65.0037C131.305 65.2526 131.58 65.347 131.867 65.4414C132.219 65.5566 132.209 65.99 132.413 66.2439C132.623 66.5028 132.919 66.6673 132.909 67.0958C132.904 67.3847 133.108 67.7037 133.282 67.9676C133.395 68.1321 133.532 68.2616 133.491 68.4812C133.42 68.9046 133.563 69.2136 133.9 69.5118C134.135 69.7164 134.268 70.0454 134.396 70.3444C134.467 70.5139 134.375 70.7578 134.462 70.9072C134.804 71.5102 135.142 72.1131 135.438 72.7404C135.52 72.9099 135.571 73.0894 135.653 73.2439C135.786 73.4928 136.036 73.6873 136.235 73.9012C136.036 74.3346 136.414 74.6386 136.573 74.9526C136.756 75.3159 136.869 75.7644 137.252 76.014C137.513 76.1828 137.457 76.4374 137.451 76.6763C137.451 76.8558 137.543 76.9552 137.712 76.9502C138.1 76.9402 138.069 77.1948 138.065 77.4387C138.065 77.6376 138.049 77.8271 138.346 77.8471C138.749 77.8721 138.908 78.2305 139.137 78.4701C139.362 78.699 139.383 79.068 139.679 79.2919C139.94 79.4914 140.215 79.7003 140.241 80.1037C140.251 80.2581 140.962 80.2782 141.043 80.1287C141.084 80.0493 141.11 79.9449 141.099 79.8598C141.069 79.5959 141.207 79.4263 141.35 79.2125C141.524 78.9529 142.014 79.1975 142.014 78.769C142.014 78.4701 142.285 78.38 142.428 78.1911C142.484 78.111 142.633 78.0316 142.617 77.9766C142.459 77.2992 143.056 77.0503 143.389 76.6462C143.47 76.5468 143.542 76.3873 143.532 76.2679C143.511 75.9939 143.634 75.8194 143.818 75.6349C144.088 75.361 144.298 74.8231 144.462 74.2652C144.523 74.0457 144.692 73.8611 144.748 73.6423C144.799 73.4577 144.748 73.2489 144.763 73.0544C144.773 72.97 144.829 72.8698 144.901 72.8155C145.432 72.4264 145.494 71.7541 145.872 71.2806C146.102 70.9966 145.826 70.6233 146.168 70.3444C146.393 70.1598 146.444 69.7765 146.587 69.4875C146.73 69.1935 146.879 68.9246 146.925 68.5756C146.97 68.2416 147.425 67.9476 147.445 67.6186C147.466 67.2402 147.961 67.1058 147.808 66.7124C148.192 66.5129 148.069 65.985 148.447 65.7805C148.534 65.7354 148.631 65.656 148.656 65.5716C148.789 65.1775 148.937 64.7341 149.224 64.4802C149.541 64.1962 149.581 63.8079 149.837 63.5239C149.955 63.3945 149.944 63.1498 150.067 63.0304C150.563 62.5619 150.971 62.0591 151.17 61.3911C151.227 61.1973 151.503 60.9627 151.701 60.9383C152.07 60.8983 152.504 60.7688 152.811 61.1772C152.918 61.3217 153.025 61.5406 153.27 61.5012C153.679 61.4412 153.801 61.6257 153.98 61.984C154.155 62.3431 154.272 62.7965 154.691 63.0404C154.875 63.1498 154.875 63.2843 154.686 63.5289C154.553 63.6984 154.482 63.8472 154.496 64.0518C154.512 64.2463 154.436 64.5603 154.532 64.6196C155.105 64.9787 154.507 65.7161 155.058 66.0544C155.258 66.5229 155.401 67.0314 155.815 67.3797C155.984 67.5242 156.03 67.6787 156.034 67.8882C156.045 68.3067 155.871 68.7794 156.331 69.0984C156.331 69.5419 156.315 69.9903 156.341 70.4338C156.346 70.5532 156.484 70.6676 156.566 70.7828C156.694 70.9716 156.673 71.1511 156.49 71.2856C156.295 71.4301 156.265 71.6597 156.341 71.8091C156.862 72.8255 156.561 73.9062 156.622 74.9526C156.638 75.2215 156.806 75.381 156.893 75.5855C157 75.8395 156.98 76.1735 156.924 76.4574C156.837 76.8858 157.077 77.1848 157.241 77.5231C157.404 77.8621 157.67 78.1661 157.547 78.5895C157.522 78.6789 157.522 78.8484 157.562 78.8685C158.063 79.1074 157.67 79.7003 158.078 80.0193C158.298 80.1938 158.395 80.5872 158.436 80.8911C158.472 81.1551 158.538 81.3496 158.738 81.5191C158.927 81.6786 159.05 81.8424 159.096 82.122C159.126 82.3059 159.341 82.4854 159.412 82.7293C159.473 82.9388 159.739 83.0933 159.928 83.2578C160.153 83.4617 160.352 83.6562 160.296 84.0052C160.28 84.1197 160.367 84.2992 160.47 84.3686C161.252 84.9215 161.553 85.8684 162.294 86.4563C162.407 86.8347 162.631 87.1287 162.933 87.3876C162.994 87.4376 163.045 87.5821 163.014 87.6422C162.79 88.0506 162.713 88.6085 162.232 88.778C161.951 88.8774 161.517 88.9568 161.236 88.6829C161.021 88.469 160.781 88.489 160.546 88.5191C160.194 88.5684 159.989 88.3889 159.775 88.17C159.693 88.0849 159.637 87.8961 159.463 87.9905C159.402 88.0256 159.376 88.155 159.376 88.2444C159.371 88.8874 159.361 89.5304 159.376 90.1727C159.381 90.3973 159.285 90.5267 159.136 90.6762C158.267 91.5481 158.109 91.6074 156.893 91.483C156.586 91.2191 156.188 91.2291 155.83 91.1146C155.575 91.0345 155.268 90.7506 155.207 90.5017C155.1 90.0983 154.91 89.7192 154.819 89.3208C154.742 89.0018 154.844 88.6879 154.558 88.3746C154.313 88.115 154.681 87.6122 154.323 87.2932C154.026 87.0242 154.41 86.4764 153.899 86.2718C153.863 86.2568 153.868 86.0773 153.899 85.9879C154.032 85.5644 153.735 85.2655 153.587 84.9215C153.495 84.7126 153.327 84.5131 153.301 84.2992C153.27 84.0496 153.27 83.8157 153.031 83.6612C153.087 83.0533 152.683 82.6899 152.274 82.3359C152.105 82.1914 152.034 82.0369 152.065 81.8231C152.111 81.474 152.085 81.145 151.763 80.9062C151.86 80.2439 151.334 79.7904 151.129 79.2318C151.022 78.9386 150.685 78.724 150.45 78.4701C150.169 78.6096 149.903 78.7891 149.607 78.8685C149.198 78.9829 148.917 79.3963 148.421 79.3069C148.12 79.2518 148.043 79.5858 147.839 79.7153C147.855 80.1738 147.435 80.3483 147.2 80.6422C147.339 81.0306 146.863 81.1701 146.837 81.5441C146.817 81.8724 146.429 82.1614 146.311 82.5054C146.24 82.7 146.138 82.8344 146.015 82.9839C145.586 83.5017 145.56 83.8107 145.882 84.3986C146.02 84.6525 146.02 84.7469 145.867 84.9064C145.657 85.121 145.422 85.3156 145.228 85.5394C145.141 85.6388 145.07 85.7933 145.08 85.9178C145.095 86.1874 144.973 86.3612 144.799 86.5558C144.114 87.3232 144.119 87.3232 143.143 87.6222C143.016 87.6615 142.929 87.841 142.801 87.8811C142.683 87.9161 142.484 87.8911 142.402 87.816C142.244 87.6715 142.096 87.5921 141.871 87.6072C141.743 87.6172 140.808 87.1537 140.721 87.0936C140.43 86.8898 140.532 86.4513 140.2 86.2718C140.292 86.1674 140.379 86.0623 140.471 85.9578C140.389 85.9178 140.308 85.8584 140.215 85.8384C139.955 85.7933 139.607 85.9779 139.561 85.4793C139.541 85.2855 139.276 85.106 139.107 84.9315C138.764 84.5731 138.412 84.2241 138.059 83.8708C138.146 83.3522 137.416 83.2972 137.426 82.7794C137.426 82.5998 137.124 82.416 136.956 82.2365C136.818 82.092 136.547 81.9375 136.562 81.8131C136.629 81.2745 135.949 81.2151 135.898 80.7266C135.867 80.4477 135.438 80.2238 135.341 79.9249C135.239 79.6059 134.933 79.4964 134.814 79.2468C134.672 78.9428 134.564 78.6346 134.268 78.425C134.146 78.3406 134.064 78.2011 133.936 78.1261C133.865 78.081 133.732 78.096 133.645 78.1311C133.599 78.1511 133.548 78.2805 133.568 78.3306C133.624 78.4551 133.782 78.5645 133.788 78.6839C133.813 79.2769 133.809 79.8698 133.788 80.4627C133.788 80.5872 133.67 80.7066 133.604 80.8311C133.466 81.0957 133.461 81.1007 133.599 81.3346C133.645 81.419 133.778 81.474 133.788 81.5534C133.854 82.062 133.645 82.6098 134.084 83.0733C134.222 83.2178 133.905 83.4073 133.875 83.5568C133.793 83.9702 133.599 84.0896 133.18 84.0746C132.97 84.0646 132.766 84.2892 132.541 84.3436C132.352 84.3936 132.138 84.3636 131.933 84.3486C131.744 84.3385 131.524 84.4237 131.376 84.2241C131.197 83.9802 130.793 84.1047 130.64 83.8057C130.579 83.6813 130.467 83.5668 130.446 83.4416C130.415 83.1978 130.446 82.9489 130.431 82.7C130.421 82.5655 130.375 82.4253 130.313 82.3059C130.16 82.0219 129.925 81.758 129.848 81.459C129.767 81.13 129.833 80.7717 129.828 80.4277C129.828 80.3833 129.813 80.3232 129.777 80.3032C129.695 80.2582 129.603 80.2038 129.516 80.2038C129.43 80.2038 129.291 80.2481 129.271 80.3082C129.22 80.4377 129.23 80.5922 129.22 80.7316C129.179 81.3446 129.297 81.9475 128.944 82.5555C128.693 82.9889 129.097 83.5861 128.739 84.1047C128.443 84.5281 128.668 85.0559 128.612 85.5344C128.576 85.8584 128.198 86.0572 128.295 86.4513C128.362 86.7303 128.31 87.0393 128.31 87.3382V88.3746C128.31 88.6728 128.3 88.9668 128.315 89.2658C128.325 89.4002 128.382 89.5354 128.428 89.6649C128.596 90.1083 128.571 90.2771 128.259 90.4817C128.024 90.6362 127.692 90.6211 127.518 90.885L126.486 91.0395C126.144 90.7806 125.97 91.3535 125.607 91.199C125.398 91.1096 125.061 91.2641 124.866 91.159C124.616 91.0295 124.36 90.9151 124.11 90.7906C123.41 90.4416 123.431 90.4216 123.037 89.7693C122.935 89.5998 122.818 89.4753 122.822 89.2608C122.838 88.6185 122.828 87.9755 122.828 87.3332L122.838 87.3382Z" fill="#D9315A"/>
<path d="M68.9735 89.7843C68.9074 89.7843 68.836 89.7693 68.7692 89.7743C68.5903 89.7843 68.4528 89.7243 68.34 89.5798C68.1718 89.3709 67.9875 89.1764 67.804 88.9818C67.7065 88.8774 67.3694 88.8524 67.2573 88.9668C67.0323 89.1964 66.782 89.3058 66.4496 89.2408C66.2553 89.2064 66.0717 89.2064 65.8875 89.3609C65.8061 89.4303 65.5658 89.3802 65.4276 89.3209C65.3201 89.2708 65.2694 89.1263 65.1366 89.2808C64.9783 89.4603 64.7995 89.5748 64.5231 89.5247C64.222 89.4754 63.9103 89.4553 63.6086 89.4704C63.3429 89.4854 63.2662 89.1564 63.0005 89.2014C62.9851 89.2014 62.919 89.082 62.9391 89.0419C63.0419 88.788 62.7709 88.6335 62.7709 88.414C62.7709 88.1851 62.7762 87.9455 62.8169 87.7216C62.863 87.4527 62.5512 87.2882 62.638 86.9942C62.7148 86.7453 62.6887 86.4664 62.6941 86.2017C62.6941 86.1474 62.6534 86.0873 62.6173 86.033C62.4491 85.7533 62.4845 85.4844 62.6534 85.2255C62.8216 84.9615 62.873 84.6826 62.6887 84.4237C62.5713 84.2592 62.648 84.1097 62.6327 83.9552C62.919 83.7507 62.8676 83.4417 62.883 83.1577C62.9851 81.5685 63.0672 79.9792 63.19 78.395C63.2201 77.9916 63.0312 77.5231 63.4557 77.1991C63.4864 76.6713 63.5165 76.1435 63.5472 75.6099C63.154 75.371 63.7468 75.2015 63.5886 74.9776C63.6293 74.3497 63.6393 73.7167 63.7161 73.0944C63.7568 72.7554 63.5832 72.357 63.9357 72.0781C63.9457 72.0681 63.9003 71.978 63.8643 71.9386C63.6854 71.724 63.8436 71.4952 63.8128 71.2756C64.1606 71.0067 64.0431 70.6183 64.0739 70.2793C64.1299 69.617 64.1553 68.954 64.2013 68.2967C64.2167 68.0671 64.2374 67.8582 64.0431 67.6587C63.951 67.5643 64.1506 67.3054 63.9764 67.2102C63.8389 67.1358 63.6954 67.0858 63.5679 66.9714C63.4657 66.8812 63.3122 66.9413 63.2201 67.0608C63.1593 67.1459 63.1286 67.1409 63.0726 67.0557C63.0312 66.9964 63.0005 66.8862 62.8576 66.9864C62.6787 67.1108 62.4645 67.2553 62.2649 67.2553C62.0145 67.2553 61.8256 67.4248 61.6261 67.4148C61.3711 67.3998 61.2022 67.5643 60.9826 67.5893C60.7576 67.6186 60.6094 67.8282 60.3384 67.7731C60.1341 67.7288 59.9552 68.0277 59.7002 67.9226C59.4753 68.0671 59.235 68.1322 58.9693 68.1071C58.8058 68.4011 58.4533 68.1372 58.2537 68.341C58.1977 68.3961 58.0701 68.4361 57.988 68.4161C57.707 68.346 57.4874 68.5005 57.2424 68.5656C57.0328 68.625 56.8746 68.8095 56.6036 68.7551C56.3993 68.7151 56.2305 68.974 55.9648 68.9139C55.8373 68.8896 55.6784 69.0391 55.5309 69.0684C55.4027 69.0934 55.2545 69.0834 55.127 69.0491C54.8967 68.989 54.7693 69.1785 54.585 69.2129C54.4422 69.2429 54.3347 69.2429 54.3247 69.4224C54.2993 69.7314 54.3707 70.0654 54.0897 70.3143C54.2586 70.4388 54.1818 70.5182 54.0897 70.6777C53.9929 70.8522 54.023 71.1161 54.0644 71.3307C54.0844 71.4401 54.2072 71.5295 54.1865 71.679C54.1558 71.9436 54.1511 72.2076 54.1358 72.4715C54.1204 72.7003 54.059 72.9349 54.304 73.0944C54.2225 73.1889 54.0997 73.2389 54.0744 73.3984C54.023 73.7017 54.1258 73.9613 54.2379 74.2202C54.0897 74.5835 54.4522 74.8775 54.3861 75.2416C54.3247 75.5656 54.3454 75.9039 54.3147 76.2329C54.294 76.4124 54.3607 76.5318 54.4629 76.6763C54.5243 76.7657 54.4422 76.9402 54.4782 77.0547C54.555 77.2792 54.059 77.4538 54.4322 77.6876L54.3914 78.38C54.3761 78.6096 54.3707 78.8435 54.3454 79.0723C54.3193 79.3069 54.304 79.5258 54.5136 79.6953C54.4829 80.1588 54.4629 80.6172 54.4014 81.0757C54.3914 81.1751 54.1304 81.2645 54.2125 81.3797C54.4729 81.743 54.3454 82.1314 54.33 82.5054C54.3247 82.6599 54.4068 82.7493 54.4982 82.8395C54.6518 82.9839 54.7539 83.1377 54.6925 83.3573C54.6418 83.5418 54.7592 83.7757 54.585 83.9152C54.4268 84.0446 54.4475 84.1941 54.4168 84.3536C54.4014 84.4387 54.3247 84.5181 54.2586 84.5832C54.0336 84.787 53.7119 84.9415 53.5991 85.1904C53.4662 85.4743 53.5223 85.8384 53.4969 86.1624C53.4816 86.3612 53.4716 86.5608 53.4609 86.7603C53.4509 86.9492 53.5036 87.1902 53.6198 87.4827C53.6758 87.6272 53.7626 87.7617 53.788 87.9111C53.814 88.0356 53.7573 88.1751 53.7726 88.3045C53.7987 88.5184 54.0129 88.6729 53.9415 88.9325C53.8901 89.1213 53.9008 89.3259 53.9008 89.5247C53.8901 89.8788 53.5123 90.1327 53.6244 90.5267C53.6351 90.5611 53.5584 90.6262 53.5176 90.6762C53.3434 90.9001 52.981 90.9745 52.9603 91.3335C52.9603 91.3686 52.8635 91.4079 52.8074 91.4279C52.6285 91.488 52.4496 91.5381 52.2707 91.5974C52.0511 91.6725 51.9643 91.9565 51.7033 91.9565C51.4683 91.9565 51.228 91.9415 50.9931 91.9164C50.8449 91.9014 50.7481 91.9465 50.6306 92.0359C50.5385 92.106 50.3956 92.116 50.2782 92.1653C49.915 92.3148 49.8029 92.3048 49.5879 92.0709C49.4044 91.8764 49.2255 91.6725 49.0466 91.478C49.0005 91.4279 48.9191 91.3786 48.9191 91.3285C48.9237 91.0245 48.5866 90.9001 48.5406 90.6812C48.4945 90.4366 48.2395 90.2378 48.357 89.9631C48.4031 89.8587 48.5513 89.7543 48.5359 89.6692C48.5152 89.5598 48.3724 89.4854 48.3877 89.3309C48.4178 89.067 48.4331 88.8023 48.4385 88.5384C48.4385 88.3589 48.5206 88.2444 48.6381 88.115C48.7095 88.0356 48.7095 87.8611 48.6888 87.7416C48.6634 87.5921 48.4284 87.497 48.5252 87.3182C48.5967 87.1838 48.7909 87.1137 48.7502 86.9141C48.9598 86.8047 48.9798 86.6202 48.9905 86.4113C49.0212 85.7833 49.098 85.1561 49.0926 84.5231C49.0926 84.0496 49.353 83.5518 48.9852 83.1034C49.0059 82.7393 49.0259 82.376 49.0566 82.0119C49.0719 81.8374 49.0412 81.708 48.9191 81.5685C48.837 81.4791 49.2101 81.394 48.9798 81.2252C48.8423 81.125 48.9237 80.9806 48.9191 80.8561C48.9084 80.6373 48.6581 80.4928 48.7449 80.2289C48.8063 80.0443 48.7909 79.8348 48.7862 79.6359C48.7809 79.4464 48.9137 79.2268 48.7449 79.068C48.5613 78.8935 48.6581 78.699 48.6581 78.5094C48.6581 78.3156 48.6688 78.1161 48.6788 77.9165C48.2956 77.6776 48.7348 77.1941 48.377 76.9502C48.377 76.7557 48.3977 76.5569 48.377 76.3673C48.3363 76.0233 48.592 75.6499 48.2649 75.336C48.2442 75.3159 48.2496 75.2766 48.2496 75.2466C48.2496 74.9226 48.2549 74.5936 48.2596 74.2703C47.9632 73.9813 48.1674 73.6423 48.1781 73.3283C48.1881 73.0294 47.8818 72.8298 47.9992 72.5015C48.086 72.2619 48.0453 71.978 48.0606 71.714C47.7282 71.4501 48.0299 71.0618 47.8971 70.8021C47.6975 70.4188 47.7643 70.0504 47.7843 69.6713C47.795 69.5169 47.6975 69.4425 47.6361 69.328C47.5446 69.1685 47.4525 68.994 47.4372 68.8145C47.4165 68.6199 47.4011 68.4612 47.279 68.2766C47.1662 68.1071 47.3658 67.8282 47.2276 67.6186C47.1154 67.4548 46.9412 67.3297 46.8344 67.1659C46.7169 66.9864 46.5581 66.7768 46.5634 66.583C46.5687 66.3384 46.3998 66.1638 46.3898 65.955C46.3691 65.591 46.4205 65.2276 46.4459 64.8636C46.783 64.6697 46.5787 64.1662 46.9826 63.9867C47.2276 63.8823 47.335 63.6284 47.4625 63.4038C47.534 63.2793 47.6775 63.1349 47.8203 63.3745C47.8357 63.3988 47.8764 63.4288 47.8971 63.4238C48.1067 63.3644 48.331 63.3194 48.5152 63.215C48.592 63.1699 48.6073 62.9804 48.602 62.8609C48.592 62.5469 48.7555 62.3924 49.0366 62.298C49.2762 62.2186 49.4965 62.0441 49.7775 62.1435C49.9457 61.9097 50.1914 61.944 50.4157 61.9941C50.6713 62.0491 50.7841 61.7251 51.0598 61.8145C51.2387 61.8746 51.5091 61.9047 51.6419 61.8145C51.8362 61.6801 52.005 61.6951 52.204 61.6901C52.465 61.6801 52.7507 61.8346 52.9756 61.6257C53.1699 61.4462 53.4509 61.6951 53.6198 61.4612C53.6505 61.4212 53.7319 61.3961 53.7933 61.3961C53.9622 61.3961 54.1304 61.4111 54.304 61.4212L54.9174 61.4562C55.0863 61.2366 55.362 61.3518 55.5456 61.2667C55.7352 61.1773 55.888 61.0972 56.0976 61.1272C56.1997 61.1422 56.3019 61.1522 56.404 61.1422C56.89 61.0972 57.4006 61.3861 57.8659 61.0378C57.9066 61.0078 57.9987 61.0478 58.0648 61.0428C58.484 61.0228 58.9286 61.2316 59.3164 60.9184C59.6388 60.8933 59.9859 61.0821 60.2723 60.7982C60.2723 60.7982 60.3691 60.8633 60.3998 60.9083C60.4973 61.0428 60.6455 60.9827 60.773 61.0028C60.9772 61.0378 61.0693 60.7639 61.3143 60.8282C61.5393 60.8883 61.7849 60.8633 62.0246 60.8783C62.2295 60.8883 62.4338 60.9033 62.638 60.9133C62.7041 60.9133 62.7862 60.9427 62.8423 60.9234C63.0826 60.8232 63.3022 60.7038 63.5886 60.7639C63.8182 60.8132 64.0632 60.7982 64.2988 60.8132C64.8302 60.4849 65.4022 60.7088 65.9589 60.7238C66.266 60.7338 66.4749 60.4499 66.8074 60.5493C67.063 60.6244 67.3641 60.6587 67.6144 60.5893C67.8293 60.5293 68.0182 60.3898 68.2586 60.4449C68.3507 60.4699 68.4935 60.4599 68.5289 60.5193C68.7492 60.8633 69.1884 60.9327 69.4287 61.2617C69.5409 61.4212 69.5355 61.5556 69.5355 61.7151C69.5355 61.7752 69.5716 61.8796 69.5969 61.8796C69.934 61.8946 69.934 62.1035 69.904 62.3531C69.8833 62.5419 70.0469 62.5176 70.1697 62.5569C70.2257 62.577 70.2972 62.7615 70.2765 62.7815C70.0008 63.0304 70.0976 63.4538 69.8219 63.6927C69.8319 63.8973 69.6483 63.9674 69.5255 64.0618C69.3773 64.1762 69.3873 64.2513 69.5255 64.3507C69.5869 64.4008 69.5662 64.4351 69.4848 64.4902C69.3773 64.5696 69.2345 64.6497 69.1938 64.7591C69.163 64.8342 69.2906 64.9587 69.3266 65.0681C69.3466 65.1282 69.3266 65.1976 69.3159 65.2677C69.2959 65.4315 69.3827 65.4815 69.5409 65.5116C70.0161 65.601 70.2872 65.91 70.2665 66.3734C70.2511 66.7024 70.5375 66.9563 70.4507 67.2853C70.5989 67.3998 70.6189 67.5493 70.5989 67.7238C70.5682 68.0521 70.6136 68.4011 70.5168 68.7101C70.42 69.0191 70.7264 69.1735 70.701 69.4375C70.6803 69.6613 70.6596 69.9009 70.7264 70.1098C70.7671 70.2342 70.8385 70.2793 70.711 70.4037C70.5628 70.5482 70.5729 70.7478 70.6857 70.9373C70.7317 71.0167 70.7878 71.1061 70.7925 71.1912C70.8185 71.5696 70.6189 71.9679 70.9307 72.312L70.8946 72.9099L70.8385 73.8018C71.0995 74.0407 71.0021 74.3397 70.9921 74.6236C71.2938 74.9326 71.1456 75.3009 71.1302 75.6449C71.0995 76.4074 71.0735 77.1698 70.982 77.9265C70.9306 78.36 71.1503 78.8635 70.7211 79.2318C70.7211 79.2318 70.8339 79.3713 70.8899 79.4464C70.4661 79.6409 70.9974 79.8448 70.8799 80.0887C70.7724 80.3083 70.8285 80.6072 70.8132 80.8761L70.7725 81.5685C70.7571 81.8324 70.7825 82.1071 70.711 82.361C70.6343 82.6499 70.9767 82.7944 70.8946 83.0883C70.8232 83.3372 70.8492 83.6162 70.8339 83.8801L70.7264 85.5645C70.711 85.8284 70.6957 86.0923 70.675 86.3562C70.665 86.4857 70.6957 86.5958 70.7618 86.7203C70.8946 86.9842 70.9206 87.2782 70.675 87.512C70.6036 87.5821 70.5882 87.5922 70.665 87.6565C70.8078 87.7767 70.8439 87.9061 70.701 88.0699C70.5575 88.2344 70.4554 88.429 70.3379 88.6085C70.4554 88.9375 70.0368 89.0963 70.0822 89.4103C70.1029 89.5648 69.9955 89.5948 69.8473 89.6399C69.3773 89.7843 69.3827 89.8044 68.9995 89.7793L68.9735 89.7843Z" fill="#D9315A"/>
<path d="M111.274 62.5025C111.474 62.5175 111.674 62.5175 111.867 62.5468C112.077 62.5769 112.327 62.4925 112.481 62.7264C112.501 62.7564 112.583 62.7564 112.634 62.7614C112.915 62.7814 113.201 62.8015 113.482 62.8208C113.682 63.0754 113.983 63.0053 114.248 63.0404C114.3 63.0454 114.376 63.0654 114.392 63.1004C114.499 63.3293 114.744 63.1898 114.908 63.2993C115.316 63.5732 115.756 63.8128 116.19 64.0517C116.394 64.1661 116.614 64.2756 116.762 64.4851C116.9 64.6797 117.033 64.9035 117.314 64.9386C117.35 65.1231 117.437 65.2375 117.636 65.3169C117.779 65.372 117.795 65.5809 117.866 65.716C117.999 65.9499 118.209 66.1545 118.413 66.3433C118.658 66.5729 118.806 66.8568 118.904 67.1558C118.949 67.3003 119.021 67.4097 119.118 67.4841C119.256 67.5842 119.185 67.7387 119.266 67.8481C119.44 68.077 119.44 68.391 119.639 68.6156C119.572 68.8895 119.838 69.1084 119.782 69.3773C119.747 69.5518 119.966 69.6269 119.94 69.8207C119.925 69.9159 120.124 70.0153 120.073 70.1748C120.349 70.2992 120.14 70.5782 120.267 70.7577C120.369 70.9022 120.502 71.0867 120.492 71.2405C120.472 71.6346 120.707 71.9385 120.84 72.2618C121.085 72.8548 121.31 73.4627 121.616 74.0306C121.708 74.2051 121.555 74.3997 121.744 74.5641C121.851 74.6536 121.831 74.8531 121.943 74.9826C121.984 75.0269 121.907 75.1571 121.943 75.2215C122.02 75.3609 122.173 75.4753 122.214 75.6198C122.265 75.7943 122.178 76.0289 122.265 76.1684C122.352 76.3079 122.311 76.4917 122.459 76.5968C122.496 76.6211 122.526 76.7013 122.511 76.7363C122.419 76.9502 122.638 77.0746 122.648 77.2591C122.659 77.4437 122.577 77.6182 122.725 77.807C122.807 77.9121 122.75 78.121 122.746 78.2805C122.74 78.475 122.715 78.6689 122.71 78.8584C122.71 78.9328 122.73 79.0179 122.771 79.0773C122.823 79.1524 122.858 79.2024 122.761 79.2568C122.644 79.3269 122.669 79.4463 122.659 79.5507C122.648 79.6902 122.659 79.8347 122.623 79.9641C122.598 80.0593 122.48 80.1236 122.449 80.2188C122.409 80.3432 122.449 80.4827 122.317 80.5871C122.24 80.6422 122.24 80.8017 122.168 80.846C122.025 80.9311 122.092 81.175 121.969 81.17C121.662 81.16 121.688 81.3495 121.668 81.5391C121.647 81.7179 121.703 81.9124 121.504 82.0669C121.427 82.127 121.468 82.3258 121.433 82.4553C121.376 82.6448 121.499 82.7943 121.535 82.9588C121.31 83.0783 121.361 83.3021 121.376 83.4766C121.397 83.7012 121.193 83.8006 121.162 83.9802C121.131 84.169 121.136 84.3685 121.11 84.5581C121.106 84.5974 121.014 84.6224 120.993 84.6675C120.921 84.807 120.829 84.9314 120.753 85.0659C120.681 85.1953 120.723 85.3598 120.584 85.5043C120.492 85.5994 120.513 85.8133 120.513 85.9728C120.513 86.1223 120.472 86.2467 120.334 86.3118C120.114 86.4162 120.145 86.6852 119.946 86.8146C119.772 86.9291 119.588 87.0542 119.532 87.2981C119.506 87.4075 119.327 87.4776 119.225 87.577C119.087 87.7115 118.862 87.6665 118.729 87.831C118.607 87.9804 118.454 88.1249 118.28 88.21C118.019 88.3345 117.733 88.4039 117.488 88.5583C117.283 88.499 117.176 88.7929 116.952 88.6928C116.829 88.6385 116.752 88.7479 116.665 88.8123C116.579 88.8773 116.492 88.9567 116.39 88.9768C116.261 89.0018 116.139 88.9768 115.996 89.0569C115.797 89.1713 115.511 89.1813 115.352 89.3308C115.127 89.5446 114.76 89.5296 114.596 89.7993C114.463 90.0131 114.218 90.0131 114.029 90.0982C113.819 90.1926 113.579 90.257 113.38 90.3722C113.186 90.4866 112.915 90.3121 112.777 90.556C112.608 90.551 112.394 90.4766 112.281 90.556C112.015 90.7405 111.75 90.6461 111.479 90.6611C111.214 90.6711 110.917 90.5016 110.687 90.7706C110.406 90.7505 110.12 90.7355 109.839 90.7155C109.696 90.9401 109.599 90.7505 109.466 90.6955C109.353 90.6561 109.195 90.6161 109.072 90.7405C109.047 90.7706 108.96 90.7906 108.955 90.7806C108.827 90.561 108.608 90.6361 108.419 90.6161C108.138 90.586 107.841 90.6161 107.576 90.5417C107.345 90.4766 107.146 90.3171 106.891 90.3421C106.748 90.3572 106.727 90.1826 106.63 90.1676C106.512 90.1476 106.431 90.1083 106.349 90.0231C106.303 89.9781 106.165 89.9488 106.134 89.9781C105.956 90.1526 105.803 90.1626 105.659 89.9488C105.215 89.7792 104.842 89.4853 104.423 89.2657C104.326 89.2164 104.244 89.1613 104.127 89.1513C104.05 89.1413 103.948 89.1162 103.912 89.0619C103.784 88.8723 103.585 88.7879 103.401 88.6778C103.243 88.5834 103.074 88.5183 102.941 88.3595C102.772 88.155 102.645 87.886 102.333 87.841C102.272 87.4075 101.802 87.228 101.674 86.8447C101.607 86.6451 101.531 86.5056 101.311 86.4663C101.224 86.4513 101.219 86.3612 101.183 86.2918C101.097 86.1073 101.091 85.8734 100.923 85.7289C100.575 85.4399 100.529 84.9865 100.284 84.6425C100.366 84.4579 100.136 84.3785 100.136 84.204C100.136 84.0595 100.044 83.9151 99.9773 83.7756C99.8958 83.6111 99.727 83.4566 99.7323 83.2971C99.7323 83.1083 99.5434 83.0282 99.5634 82.8587C99.5788 82.6899 99.3438 82.6048 99.4152 82.4202C99.3084 82.3258 99.2517 82.2164 99.2724 82.0619C99.3031 81.8423 99.2931 81.6185 99.3284 81.3996C99.3645 81.1951 99.267 81.0456 99.2009 80.8711C99.1449 80.7266 99.257 80.5027 99.1802 80.3976C99.0628 80.2388 99.0781 80.0986 99.0888 79.9398C99.0988 79.7753 99.1242 79.6058 99.1188 79.4413C99.1088 79.2317 99.2316 79.0129 99.0681 78.8083C98.9253 78.6345 99.1188 78.3899 99.022 78.2655C98.8532 78.0566 98.8945 77.8621 98.9099 77.6475C98.9199 77.4787 98.705 77.4036 98.7617 77.2041C98.8024 77.0596 98.8432 76.8858 98.6749 76.7463C98.6289 76.7113 98.6442 76.5968 98.6489 76.5167C98.6696 76.1827 98.7203 75.8544 98.7103 75.5254C98.7003 75.2665 98.5267 75.0369 98.5928 74.753C98.6489 74.5141 98.6289 74.2552 98.6596 74.0106C98.6749 73.8811 98.5875 73.8167 98.5267 73.7266C98.5007 73.6873 98.4907 73.6022 98.5161 73.5721C98.6235 73.4527 98.7564 73.3432 98.5368 73.2088C98.8992 73.0593 98.5775 72.6109 98.8892 72.4313C98.9046 72.4213 98.7971 72.2618 98.8231 72.2025C98.8585 72.1224 99.0067 72.078 98.8638 71.9636C98.8431 71.9486 98.8178 71.9235 98.8124 71.8985C98.8124 71.8835 98.8378 71.8584 98.8585 71.8434C98.9453 71.769 99.0374 71.7039 99.1142 71.6245C99.2163 71.5101 98.966 71.435 99.0374 71.395C99.2624 71.2755 99.1449 71.0416 99.247 70.8922C99.3545 70.7427 99.4666 70.5982 99.5788 70.4537C99.5027 70.2291 99.8705 70.1898 99.7937 69.9552C99.727 69.7614 99.9466 69.6913 100.008 69.5468C100.125 69.2629 100.32 69.014 100.489 68.7551C100.591 68.6006 100.631 68.406 100.82 68.3166C100.933 68.2615 100.969 68.1571 100.953 68.0427C100.928 67.8732 101.056 67.7931 101.168 67.7187C101.255 67.6636 101.434 67.6686 101.449 67.6135C101.5 67.4548 101.618 67.3496 101.694 67.2152C101.781 67.0557 101.822 66.8468 101.955 66.7467C102.231 66.5478 102.308 66.2038 102.599 66.0193C102.808 65.8848 102.987 65.696 103.181 65.5365C103.181 65.2275 103.482 65.1675 103.646 64.9937C103.759 64.8735 103.728 64.6646 103.912 64.6046C104.382 64.4551 104.668 64.0667 105.051 63.8028C105.195 63.7027 105.389 63.6483 105.567 63.6183C105.731 63.5932 105.92 63.6633 105.91 63.3944C105.91 63.3694 106.053 63.3043 106.114 63.3193C106.359 63.3794 106.498 63.1298 106.722 63.1448C106.737 63.1448 106.758 63.0554 106.779 63.0103C106.804 62.966 106.829 62.8859 106.86 62.8859C107.029 62.8809 107.197 62.9009 107.366 62.9009C107.448 62.9009 107.565 62.9109 107.596 62.8658C107.841 62.5225 108.194 62.632 108.521 62.647C108.776 62.662 109.026 62.677 109.282 62.6913C109.451 62.4625 109.726 62.652 109.9 62.5619C110.253 62.3781 110.6 62.4775 110.953 62.4825C111.066 62.4825 111.178 62.4975 111.29 62.5025H111.274ZM111.274 67.8231C111.229 67.8231 111.014 67.778 110.912 67.8581C110.743 67.9876 110.56 67.8732 110.442 67.9476C110.288 68.0427 110.161 68.092 109.982 68.077C109.915 68.072 109.839 68.1371 109.773 68.1822C109.66 68.2515 109.563 68.3316 109.425 68.381C109.154 68.4854 108.863 68.5755 108.658 68.8094C108.567 68.9146 108.454 68.9639 108.296 68.9739C108.204 68.9789 108.056 69.1034 108.05 69.1785C108.036 69.4123 107.841 69.4874 107.703 69.6119C107.453 69.8358 107.193 70.0503 106.937 70.2692C106.952 70.5381 106.61 70.5782 106.569 70.7727C106.523 71.0016 106.273 71.0416 106.221 71.2061C106.15 71.44 105.93 71.5251 105.823 71.7039C105.757 71.8191 105.777 71.9586 105.572 71.9385C105.486 71.9285 105.419 71.9979 105.434 72.098C105.465 72.2869 105.363 72.4063 105.22 72.5114C105.153 72.5558 105.056 72.6309 105.062 72.686C105.077 72.8948 104.918 73.0243 104.857 73.1888C104.775 73.4176 104.571 73.5178 104.408 73.6572C104.208 73.8267 104.05 73.9963 104.081 74.2752C104.086 74.3396 104.029 74.4197 103.994 74.484C103.815 74.798 103.595 75.087 103.442 75.416C103.411 75.4854 103.33 75.5404 103.314 75.6098C103.284 75.7443 103.263 75.8888 103.284 76.0239C103.324 76.2278 103.064 76.2678 103.079 76.4424C103.105 76.7556 102.931 76.9952 102.772 77.2341C102.593 77.498 102.404 77.7627 102.45 78.106C102.471 78.2605 102.354 78.3406 102.277 78.455C102.215 78.5494 102.175 78.7189 102.277 78.8384C102.358 78.9285 102.404 79.0129 102.374 79.1323L102.573 79.7152C102.706 79.8597 102.834 80.0092 102.966 80.1537C103.079 80.2781 103.273 80.3976 103.284 80.532C103.299 80.7616 103.457 80.861 103.575 81.0055C103.697 81.16 103.856 81.2845 103.958 81.449C104.071 81.6235 104.279 81.6385 104.412 81.773C104.362 82.0068 104.576 82.102 104.683 82.2514C104.714 82.2958 104.76 82.3709 104.796 82.3709C105.041 82.3709 105.087 82.6148 105.251 82.6899C105.43 82.7743 105.598 82.8587 105.69 83.0232C105.807 83.2277 106.027 83.2878 106.201 83.4073C106.344 83.5067 106.548 83.5367 106.533 83.7756C106.533 83.7906 106.62 83.8307 106.671 83.8307C106.814 83.8407 106.937 83.8557 107.039 83.9802C107.116 84.0746 107.289 84.0495 107.376 84.179C107.448 84.2891 107.524 84.4236 107.698 84.4036C107.826 84.5831 108.107 84.5631 108.214 84.7719C108.459 84.7126 108.623 84.8821 108.812 84.9815C108.929 85.0408 109.042 85.1059 109.154 85.171C109.68 85.46 109.849 85.455 110.34 85.156C110.401 85.116 110.508 85.136 110.564 85.0959C110.764 84.9615 110.999 84.9114 111.214 84.812C111.428 84.7126 111.643 84.6124 111.863 84.523C112.031 84.4529 112.225 84.4336 112.379 84.3435C112.547 84.2441 112.664 84.0495 112.838 83.9802C113.022 83.9101 113.129 83.8307 113.216 83.6562C113.288 83.5167 113.447 83.4223 113.645 83.4716C113.768 83.5017 113.84 83.4566 113.876 83.3121C113.896 83.2227 113.988 83.0983 114.075 83.0783C114.386 82.9982 114.591 82.7793 114.821 82.5898C115.378 82.117 115.934 81.6485 116.492 81.17C116.696 80.9955 116.941 80.851 117.018 80.5671C117.263 80.4576 117.289 80.1737 117.478 80.0192C117.692 79.8447 117.795 79.6058 117.907 79.3712C117.932 79.3219 118.034 79.3068 118.106 79.2768C118.152 79.2568 118.244 79.2267 118.244 79.2124C118.209 78.9778 118.438 78.8183 118.448 78.6295C118.459 78.3899 118.725 78.2755 118.679 78.0466C118.638 77.8521 118.893 77.812 118.883 77.6275C118.878 77.4637 118.914 77.2992 118.908 77.1297C118.908 77.0052 118.653 76.8758 118.924 76.7606C118.827 76.6312 118.75 76.5017 118.796 76.3272C118.842 76.1584 118.811 76.0039 118.658 75.8888C118.643 75.5705 118.454 75.3058 118.336 75.0219C118.213 74.7329 118.08 74.459 118.05 74.145C117.892 74.0206 117.968 73.7817 117.784 73.6622C117.667 73.5821 117.601 73.4627 117.641 73.3082C117.651 73.2589 117.657 73.1938 117.636 73.1487C117.554 72.9842 117.498 72.7704 117.366 72.681C117.115 72.5164 117.268 72.2718 117.171 72.088C117.161 72.063 117.141 72.043 117.115 72.0279C116.941 71.9135 116.921 71.714 116.849 71.5495C116.767 71.3606 116.681 71.1761 116.619 70.9765C116.558 70.7727 116.277 70.6976 116.302 70.4287C116.308 70.3493 116.185 70.2048 116.103 70.1848C115.858 70.1297 115.74 69.9502 115.603 69.7864C115.393 69.5318 115.133 69.3623 114.831 69.2278C114.616 69.1284 114.438 68.9689 114.223 68.8645C114.131 68.8194 113.993 68.8645 113.891 68.8294C113.768 68.7894 113.661 68.6599 113.549 68.6549C113.247 68.6399 113.099 68.5054 113.058 68.2265C113.048 68.1421 112.971 68.097 112.879 68.102C112.726 68.1071 112.603 68.376 112.45 68.2065C112.312 68.057 112.169 68.057 112 68.0427C111.857 67.8231 111.622 67.8582 111.285 67.8231H111.274Z" fill="#D9315A"/>
<path d="M85.0169 86.1323C85.0376 85.8633 85.0476 85.5944 85.0783 85.3305C85.1143 85.0215 85.0276 84.6775 85.324 84.4336C85.3393 84.1947 85.37 83.9601 85.37 83.7212C85.37 83.4966 85.4822 83.2678 85.2679 83.0489C85.1958 82.9738 85.2572 82.7692 85.2679 82.6198C85.2879 82.2915 85.3086 81.9675 85.3393 81.6385C85.3493 81.519 85.3133 81.4246 85.2625 81.3145C85.1497 81.0756 85.1244 80.8117 85.3493 80.6021C85.4154 80.5427 85.4308 80.5277 85.3547 80.4726C85.2419 80.3933 85.2472 80.2788 85.2572 80.1587C85.2979 79.6258 85.3547 79.088 85.3647 78.5551C85.37 78.1911 85.5743 77.7977 85.2679 77.4587C85.3393 77.1847 85.1758 76.8607 85.4668 76.6269C85.4875 76.6118 85.3493 76.4523 85.3493 76.3579C85.3493 76.059 85.4007 75.765 85.4007 75.466C85.4007 75.1871 85.5689 74.8781 85.2933 74.6342C85.3086 74.3696 85.3393 74.1007 85.334 73.8367C85.334 73.6029 85.4822 73.3432 85.324 73.1494C85.1144 72.8905 85.2779 72.6359 85.2625 72.382C85.2525 72.1481 85.2826 71.9035 85.3086 71.6696C85.324 71.5552 85.2218 71.5201 85.1958 71.445C85.1344 71.2912 85.0683 71.1367 85.0015 70.9873C84.9455 70.8671 85.0276 70.6933 85.0169 70.5488C84.9969 70.2942 85.1804 70.0203 84.9255 69.7964C84.9301 69.5618 84.9815 69.3179 84.9255 69.099C84.8794 68.8895 84.7359 68.6949 84.6184 68.5061C84.5777 68.446 84.4755 68.396 84.3988 68.3917C84.1999 68.3767 83.9802 68.2915 83.806 68.4961C83.7753 68.5312 83.6378 68.5011 83.5664 68.4711C83.1472 68.2815 83.1472 68.2815 82.7587 68.3917C82.7026 68.406 82.6565 68.441 82.6005 68.446C82.3395 68.4811 82.0845 68.3316 81.8135 68.5061C81.5785 68.6556 81.2874 68.5211 81.0164 68.5161C80.7407 68.5111 80.4697 68.4811 80.194 68.4661C80.0151 68.4561 80.0305 68.3366 80.0352 68.2172C80.0352 68.1921 80.0151 68.1521 79.9998 68.1471C79.9177 68.122 79.8209 68.0777 79.7595 68.1027C79.6113 68.1671 79.7441 68.2422 79.7902 68.2815C79.8563 68.3416 79.867 68.406 79.7748 68.406C79.4117 68.406 79.0492 68.3817 78.6868 68.3616C78.5639 68.3566 78.4465 68.3316 78.3543 68.441C78.2576 68.5555 78.2215 68.441 78.1601 68.396C78.0072 68.2765 77.8177 68.2472 77.6695 68.3616C77.5366 68.4661 77.5059 68.406 77.3991 68.3316C77.2149 68.2072 76.9392 68.2865 76.7757 68.0627C76.7349 68.0076 76.5454 68.0477 76.4332 68.0627C76.3818 68.0727 76.3411 68.1671 76.295 68.1671C76.0854 68.1721 75.8712 68.1821 75.6669 68.1521C75.4673 68.122 75.3859 68.3266 75.1816 68.3166C74.7985 68.2915 74.4914 68.2122 74.2564 67.8832C74.1389 67.7136 74.0522 67.5441 73.9701 67.3653C73.894 67.2108 73.7304 67.0957 73.6229 66.9562C73.5055 66.8017 73.3726 66.7073 73.1684 66.7324C72.9741 66.7574 72.8259 66.6873 72.7084 66.5178C72.5856 66.349 72.4221 66.2095 72.2946 66.04C72.1771 65.8805 71.9828 65.7854 71.9468 65.5415C71.9214 65.357 71.7986 65.1932 71.7986 64.9786C71.7986 64.8341 71.6197 64.6997 71.6611 64.5051C71.7018 64.3013 71.4822 64.2212 71.3901 64.0767C71.3747 64.0517 71.3387 64.0274 71.344 64.0123C71.3494 63.9873 71.3901 63.9773 71.4054 63.9523C71.4515 63.8829 71.5076 63.8128 71.5329 63.7384C71.5843 63.5739 71.4822 63.3693 71.6558 63.2449C71.8039 63.1355 71.7425 62.976 71.7886 62.8465C71.8654 62.6219 72.1771 62.7514 72.2792 62.5575C72.5242 62.5726 72.7698 62.5826 73.0095 62.6119C73.1477 62.6269 73.2298 62.5726 73.3319 62.4975C73.4387 62.4131 73.5515 62.4524 73.6383 62.5575C73.7711 62.717 73.9554 62.692 74.1289 62.652C74.2104 62.6319 74.2718 62.5425 74.3539 62.5275C74.6957 62.4674 75.0741 62.7364 75.3905 62.4231C75.723 62.4424 76.0654 62.4281 76.3925 62.4925C76.6321 62.5375 76.7703 62.348 76.9699 62.343C77.1842 62.343 77.3991 62.368 77.6081 62.383C77.8891 62.0791 78.2369 62.2636 78.5486 62.2786C78.7989 62.2936 78.9371 62.014 79.2228 62.1191C79.4424 62.1985 79.7034 62.1635 79.9484 62.1785C80.3369 61.9146 80.7561 62.0791 81.1646 62.0891C81.3075 62.0891 81.3842 62.024 81.4764 61.9446C81.5578 61.8745 81.5531 61.9045 81.8649 61.9396C82.0891 61.9646 82.3448 62.0841 82.5491 61.8695C82.5698 61.8502 82.5951 61.8252 82.6205 61.8252C82.8508 61.8051 83.1011 61.9596 83.3054 61.73C83.515 61.73 83.7246 61.73 83.9288 61.73C84.1077 61.73 84.2713 61.7701 84.4348 61.6256C84.5163 61.5562 84.7205 61.6206 84.8687 61.6106C85.1551 61.5906 85.4515 61.7501 85.7378 61.5212C85.8246 61.4511 86.0289 61.5212 86.1771 61.5212C86.4174 61.5212 86.6577 61.5212 86.8926 61.5262C87.0916 61.3016 87.3472 61.4511 87.5769 61.4361C87.7918 61.1772 88.0775 61.3266 88.3385 61.3066C88.7116 61.2773 89.1148 61.5312 89.4626 61.2072C89.7997 61.2322 90.1321 61.2723 90.4692 61.2673C90.7242 61.2673 91.0106 61.4361 91.2456 61.1872C91.5166 61.1872 91.7822 61.1872 92.0533 61.2022C92.3289 61.2122 92.6 61.2372 92.8756 61.2573C93.2281 61.0076 93.6219 61.1621 93.9998 61.1521C94.2754 61.1471 94.4343 61.4711 94.7354 61.3917C94.7614 61.3867 94.8482 61.4761 94.8428 61.5012C94.7914 61.6757 95.0064 61.7601 94.9964 61.8845C94.9703 62.2936 95.3689 62.2936 95.5738 62.4574C95.7113 62.5626 95.967 62.5175 96.1712 62.5375C96.3294 62.323 96.5651 62.373 96.754 62.4331C96.9329 62.4875 97.0143 62.1492 97.1932 62.373C97.326 62.5375 97.5303 62.4524 97.7038 62.4774C97.8827 62.5075 98.0723 62.4925 98.2512 62.5225C98.3273 62.5325 98.4348 62.5876 98.4602 62.652C98.5623 62.9059 98.8693 62.8765 99.0175 63.0604C99.0789 63.1405 99.3032 63.1698 99.2986 63.2098C99.2832 63.3844 99.38 63.4838 99.4774 63.5939C99.3186 63.8972 99.6971 64.1218 99.6103 64.4257C99.5896 64.5001 99.7224 64.6103 99.7224 64.7047C99.7224 64.769 99.5796 64.8291 99.5743 64.8992C99.5489 65.1031 99.2986 65.1932 99.3339 65.4371C99.3646 65.6316 99.0429 65.736 99.1243 65.9749L98.7619 66.5378C98.6651 66.6429 98.5062 66.6923 98.5015 66.8768C98.5015 66.9662 98.4248 67.0163 98.312 67.0063C98.067 66.9812 97.8167 67.0063 97.5817 66.9462C97.2953 66.8768 97.1064 67.1608 96.8154 67.0907C96.5804 67.0363 96.3294 67.0363 96.0844 67.0413C95.9876 67.0413 95.8902 67.1558 95.7934 67.1608C95.732 67.1608 95.6652 67.0564 95.5938 67.0063C95.5738 66.9913 95.5224 66.9863 95.507 67.0013C95.2514 67.2352 94.9296 67.1858 94.6586 67.1057C94.3729 67.0213 94.2294 67.3203 93.9844 67.2552C93.7241 67.1858 93.6219 67.4197 93.4531 67.5291C93.4017 67.5642 93.3563 67.6042 93.3149 67.6443C93.162 67.7938 92.9571 67.7637 92.8242 67.6736C92.6968 67.5892 92.6 67.5048 92.4364 67.5048C92.1347 67.5048 91.8336 67.4898 91.5319 67.4798C91.3684 67.6986 91.1434 67.5692 90.9445 67.5842C90.7449 67.6042 90.5353 67.4698 90.3364 67.6443C90.1575 67.8038 89.9225 67.6292 89.7283 67.6886C89.5954 67.7287 89.5087 67.8832 89.3298 67.8481C89.3091 67.8481 89.253 67.9876 89.2276 68.0627C89.1455 68.3016 89.4473 68.4561 89.3705 68.715C89.3144 68.9095 89.3344 69.1284 89.3198 69.3379L89.2684 70.0503L89.2223 70.6733C89.2123 70.8228 89.2376 70.9873 89.1816 71.1167C89.0641 71.4057 89.3498 71.5995 89.3198 71.8591C89.2937 72.098 89.2837 72.3319 89.2684 72.5715C89.6308 72.7854 89.2223 73.2138 89.5287 73.4434C89.5494 73.4584 89.5701 73.4927 89.5701 73.5177C89.5594 73.6973 89.524 73.8768 89.5394 74.0513C89.5547 74.2101 89.6615 74.3646 89.6769 74.5241C89.6922 74.7286 89.6569 74.9375 89.6415 75.147C89.6261 75.3216 89.6261 75.471 89.7536 75.6406C89.8404 75.755 89.8304 75.9789 89.6515 76.1083C89.5033 76.2185 89.5801 76.3822 89.544 76.5174C89.7843 76.7313 89.7383 77.0202 89.6615 77.2541C89.5647 77.5531 89.8558 77.7326 89.8151 78.0015C89.7743 78.2654 89.7743 78.5351 89.7536 78.804L89.6976 79.6058C89.6769 79.8747 89.6362 80.1444 89.6462 80.4083C89.6515 80.5971 89.8458 80.7416 89.7897 80.9712C89.7336 81.2 89.7483 81.4446 89.7336 81.6835C89.7183 81.8931 89.7029 82.0969 89.6922 82.3065C89.6822 82.4753 89.6208 82.6548 89.7997 82.7993C89.8458 82.8393 89.8251 82.9638 89.8204 83.0489C89.805 83.3472 89.7997 83.6461 89.7536 83.9401C89.7183 84.1597 89.8404 84.3192 89.8965 84.508C89.9426 84.6675 89.8511 84.882 89.9225 85.0215C89.9939 85.161 90.04 85.2754 90.0247 85.4249C89.9993 85.6938 89.9886 85.9578 89.9632 86.2274C89.9532 86.3468 89.9532 86.4563 90.0554 86.5457C90.1929 86.6708 90.1268 86.8446 90.0861 86.9648C89.8357 87.7115 89.8251 87.7065 89.9479 88.3495C89.9532 88.3845 89.9272 88.4339 89.9018 88.4739C89.8865 88.499 89.8404 88.514 89.8357 88.534C89.805 88.7085 89.7944 88.8823 89.759 89.0518C89.7336 89.1913 89.524 89.2314 89.5494 89.4109C89.6108 89.8393 89.4065 90.1283 89.0588 90.3772C88.8291 90.5417 88.5374 90.6861 88.4867 91.0151C88.2617 91.0445 88.0882 91.259 87.8379 91.209C87.7557 91.194 87.6636 91.1696 87.6029 91.1146C87.47 90.9901 87.3572 90.8506 87.2398 90.7162C87.1376 90.6017 87.0148 90.5016 86.9487 90.3772C86.8873 90.2577 86.9127 90.0932 86.7752 89.9988C86.7545 89.6748 86.5349 89.4652 86.2845 89.3258C86.0135 89.1713 85.8653 88.9774 85.7271 88.7035C85.5689 88.3945 85.2879 88.1449 85.0529 87.876C84.9508 87.7616 84.8894 87.6521 84.9048 87.4876C84.9508 87.0442 84.9715 86.5957 85.0015 86.1523L85.0169 86.1323Z" fill="#D9315A"/>
</svg>
