<svg width="260" height="34" viewBox="0 0 260 34" fill="none" xmlns="http://www.w3.org/2000/svg">
<path d="M92.8172 11.9529C94.4141 11.2201 96.0758 10.4951 98.3442 9.82346C98.3657 9.81752 98.3873 9.81152 98.4089 9.80545C98.4097 9.80517 98.4105 9.80489 98.4114 9.80461C98.636 9.74145 98.8679 9.66984 99.1096 9.58705C100.428 9.16672 101.713 8.37889 104.614 7.00188C105.682 6.55823 106.956 5.83195 108.676 4.93812C109.339 4.59765 110.021 4.27231 110.706 3.98231C113.037 3.0214 114.777 2.33402 116.168 1.55885C118.112 0.413248 120.045 0.143128 121.288 0.0590968C121.393 0.051007 121.496 0.0445309 121.597 0.0395167C122.251 0.0307009 122.923 -0.0965352 124.722 0.158243C125.879 0.34579 127.589 0.82687 129.352 2.18126C130.281 2.88361 131.183 3.82586 132.007 4.78905C132.281 5.10479 132.553 5.42297 132.795 5.68142C134.643 7.6321 135.75 10.2236 136.744 12.5874C137.517 14.4187 138.326 16.1698 139.342 17.7121C139.373 17.7516 139.41 17.8094 139.641 17.9281C140.76 18.4893 143.49 18.623 145.548 18.8385C146.425 18.9256 147.211 18.9875 147.954 19.0325C151.515 19.2292 154.839 19.1822 158.021 17.9837C158.831 17.6907 159.685 17.2905 160.814 16.8826C162.557 16.2789 164.299 15.4292 166.297 14.3642C167.193 13.89 168.078 13.53 168.948 13.1933C170.532 12.5881 172.003 12.1182 173.445 11.5942C175.28 10.9172 177.111 10.5149 178.84 10.1229C179.127 10.0578 179.413 9.99251 179.697 9.92614C179.835 9.89309 179.973 9.86084 180.113 9.82879C183.26 9.0497 186.574 9.07063 189.903 9.15083C190.276 9.15996 190.646 9.17008 191.017 9.18078C195.064 9.43783 196.751 12.3278 198.837 13.3344C200.718 14.4177 202.542 15.6001 204.326 16.9011C205.092 17.4518 205.84 18.0059 206.597 18.4603C207.486 18.9943 208.475 19.4352 209.569 19.8028C210.38 20.0762 211.314 20.3306 212.346 20.5596C215.296 21.1916 219.212 21.4275 223.096 21.6871C223.539 21.7155 223.986 21.7434 224.43 21.7712C224.432 21.7713 224.435 21.7715 224.437 21.7716C225.344 21.8282 226.249 21.884 227.144 21.9401C230.939 22.1795 234.543 22.2849 237.324 22.3079C242.804 22.3467 244.793 22.188 246.686 22.2165C246.812 22.2201 246.946 22.2258 247.087 22.2368C247.241 22.2519 247.386 22.2569 247.682 22.3325C248.075 22.4285 248.472 22.5221 248.92 22.6261C250.493 23.0098 252.599 23.3936 255.078 24.1255C255.086 24.1277 255.11 24.1358 255.117 24.1382C256.029 24.4427 256.972 24.7595 257.925 25.0804C258.282 25.203 258.488 25.2574 258.826 25.3217C258.838 25.324 258.85 25.3263 258.863 25.3286C259.407 25.4271 259.894 25.7014 259.859 25.9771C259.828 26.2501 259.279 26.4217 258.675 26.3123C258.296 26.2431 257.981 26.1598 257.609 26.0304C256.648 25.7071 255.706 25.3906 254.801 25.0882C254.797 25.0872 254.787 25.0837 254.784 25.0828C254.182 24.8978 253.597 24.7442 253.035 24.6046C252.883 24.8113 252.362 24.8673 251.789 24.7299C251.051 24.5445 249.512 24.27 247.282 23.7308C245.016 23.552 242.259 23.8317 238.81 23.9107C239.3 23.9587 239.701 24.0036 240.056 24.0457C240.473 24.0951 240.788 24.1367 241.067 24.1723C241.636 24.2463 242.02 24.2946 242.694 24.3305C243.795 24.3784 245.585 24.3132 247.065 24.489C247.718 24.6789 248.398 24.8604 249.088 25.0345C249.726 25.1954 250.189 25.5358 250.123 25.8043C250.056 26.0722 249.482 26.1661 248.835 26.003C248.822 25.9999 248.81 25.9967 248.797 25.9936C248.123 25.823 247.447 25.6426 246.789 25.4516C246.889 25.4755 246.794 25.4524 246.727 25.4471C246.652 25.4386 246.561 25.4312 246.462 25.4247C246.27 25.4121 246.066 25.4037 245.853 25.3966C245.436 25.3832 245.033 25.376 244.634 25.3692C243.845 25.3561 243.122 25.3454 242.522 25.3288C242.1 25.3174 241.749 25.304 241.475 25.2917C241.264 25.2819 240.989 25.2684 240.84 25.2516C240.821 25.2494 240.783 25.2449 240.739 25.238C240.738 25.2379 240.737 25.2377 240.736 25.2375C240.711 25.2337 240.584 25.2146 240.445 25.1733C240.417 25.1649 240.356 25.1463 240.285 25.1163C240.267 25.1139 240.248 25.1116 240.23 25.1092C239.983 25.0762 239.722 25.0424 239.443 25.0089C238.36 24.8748 236.631 24.7199 233.047 24.4458C231.505 24.3252 229.467 24.1927 227.018 24.0082C224.248 23.7927 220.952 23.6143 217.254 23.2848C217.72 23.3485 218.193 23.4086 218.659 23.4652C219.838 23.6076 221.026 23.7321 222.209 23.8497C222.663 23.8947 223.109 23.9382 223.567 23.9817C224.301 24.0517 225.037 24.1204 225.772 24.1887C226.18 24.2267 226.589 24.2646 227 24.3028C227.089 24.3111 227.178 24.3192 227.266 24.3273C227.267 24.3274 227.269 24.3275 227.27 24.3276C227.963 24.3912 228.658 24.4514 229.36 24.5092C229.607 24.5299 229.848 24.5496 230.087 24.5687C231.049 24.6447 231.991 24.7133 233.075 24.8087C233.208 24.8229 233.351 24.8404 233.458 24.8544C233.572 24.8692 233.682 24.884 233.785 24.8988C233.876 24.9119 233.967 24.925 234.051 24.9372C234.063 24.9388 234.074 24.9404 234.085 24.942C234.18 24.9557 234.27 24.9683 234.357 24.9802C234.443 24.9921 234.526 25.0035 234.607 25.0136C234.608 25.0136 234.609 25.0136 234.61 25.0137C234.694 25.024 234.76 25.0319 234.852 25.0412C234.967 25.0529 235.066 25.0621 235.185 25.0716C235.3 25.0809 235.419 25.0894 235.539 25.0972C235.66 25.1049 235.787 25.1121 235.912 25.1187C236.038 25.1253 236.165 25.1315 236.293 25.1373C236.418 25.143 236.553 25.1484 236.684 25.1536C236.815 25.1588 236.948 25.164 237.079 25.1689C237.383 25.1802 237.683 25.2398 237.893 25.3367C238.104 25.4335 238.229 25.5595 238.225 25.6884C238.223 25.8173 238.092 25.9397 237.877 26.0299C237.661 26.12 237.356 26.1697 237.052 26.1696C236.969 26.1695 236.886 26.1696 236.801 26.1694C236.751 26.1693 236.7 26.169 236.649 26.1688C236.513 26.1683 236.372 26.1679 236.237 26.1667C236.101 26.1656 235.962 26.1638 235.82 26.1615C235.678 26.1591 235.532 26.1562 235.39 26.1523C235.247 26.1483 235.099 26.1433 234.948 26.1367C234.8 26.1304 234.631 26.1213 234.484 26.1114C234.376 26.1043 234.242 26.0935 234.129 26.0839C234.012 26.0738 233.895 26.0628 233.783 26.0516C233.673 26.0405 233.566 26.0288 233.464 26.0177C233.453 26.0166 233.442 26.0154 233.431 26.0143C233.341 26.0045 233.253 25.9949 233.17 25.9861C233.077 25.9764 232.988 25.9677 232.904 25.96C232.812 25.9514 232.758 25.9474 232.689 25.9426C231.78 25.896 230.667 25.8553 229.597 25.8069C229.463 25.8009 229.329 25.7946 229.196 25.7883C228.496 25.7558 227.796 25.7204 227.095 25.6814C227.036 25.6781 226.976 25.6748 226.917 25.6714C226.472 25.6463 226.028 25.6215 225.583 25.5964C224.842 25.5548 224.097 25.5125 223.352 25.4685C222.888 25.441 222.436 25.4135 221.971 25.3841C220.762 25.3076 219.547 25.2236 218.32 25.1182C217.096 25.0123 215.857 24.8867 214.6 24.709C213.612 24.5678 212.584 24.3933 211.537 24.1296C211.269 24.0612 211.001 23.9893 210.734 23.9139C209.816 23.6535 208.873 23.3186 208.013 22.9405C207.55 22.7376 207.101 22.5202 206.666 22.2863C206.664 22.2855 206.663 22.2846 206.661 22.2837C206.279 22.0785 205.907 21.8608 205.546 21.6309C205.323 21.489 205.104 21.3425 204.889 21.1915C204.36 20.8193 203.881 20.4372 203.426 20.0667C202.789 19.5471 202.192 19.049 201.579 18.5724C200.971 18.0988 200.345 17.6409 199.705 17.2061C199.065 16.7711 198.421 16.3621 197.729 15.9496C197.624 15.8871 197.518 15.8241 197.409 15.7607C196.473 15.2131 195.648 14.5834 194.872 13.9928C194.002 13.3287 193.194 12.7365 192.438 12.4362C192.174 12.3298 191.917 12.2554 191.658 12.2122C191.657 12.212 191.656 12.2118 191.655 12.2117C191.446 12.177 191.236 12.162 191.019 12.166C190.611 12.1715 190.214 12.1789 189.813 12.1888C188.722 12.2161 187.624 12.2613 186.552 12.3438C185.474 12.4269 184.42 12.5488 183.395 12.7462C182.535 12.9098 181.676 13.1369 180.769 13.4072C180.582 13.4627 180.396 13.517 180.209 13.5703C179.19 13.8628 178.183 14.1328 177.234 14.422C176.983 14.4983 176.734 14.5764 176.488 14.6569C175.959 14.8299 175.448 15.0127 174.953 15.2111C174.294 15.4762 173.643 15.7264 173.001 15.9707C171.832 16.417 170.671 16.8427 169.599 17.3187C169.127 17.5291 168.673 17.7507 168.257 17.9909C167.648 18.3395 167.028 18.6957 166.39 19.0481C165.242 19.6836 164.054 20.2892 162.8 20.8246C162.645 20.891 162.49 20.956 162.333 21.0203C161.452 21.3913 160.408 21.9515 159.26 22.4203C158.529 22.7224 157.72 22.9986 156.943 23.2083C156.158 23.4215 155.373 23.5828 154.6 23.7051C154.295 23.7538 153.973 23.7981 153.669 23.8354C153.214 23.8912 152.767 23.9346 152.337 23.9693C151.598 24.0284 150.884 24.0632 150.193 24.0852C149.492 24.107 148.834 24.1164 148.191 24.1217C147.526 24.1268 146.978 24.1284 146.326 24.1306C145.833 24.1226 145.426 24.1099 145.024 24.0903C144.183 24.0536 143.508 24.0181 142.756 23.9682C142.544 23.9541 142.325 23.939 142.092 23.9213C140.762 23.7962 139.362 23.7091 137.63 23.0268C136.662 22.6364 135.489 21.8829 134.729 20.709C134.394 20.2045 134.078 19.6883 133.78 19.1638C133.102 17.9714 132.532 16.7477 132.024 15.5668C131.903 15.2879 131.786 15.0108 131.671 14.7356C131.305 13.8562 130.967 13.0317 130.608 12.2666C130.142 11.2667 129.627 10.3567 129.089 9.6933C129.019 9.60616 128.947 9.52129 128.875 9.4399C128.421 8.94388 128.065 8.49947 127.741 8.11732C127.442 7.76145 127.164 7.44293 126.894 7.16257C126.784 7.04823 126.675 6.9397 126.567 6.83706C126.196 6.48456 125.835 6.20559 125.477 5.99252C125.12 5.77986 124.763 5.62993 124.394 5.53234C124.024 5.43488 123.641 5.38948 123.236 5.39235C122.858 5.39677 122.524 5.43291 122.111 5.51537C122.059 5.5255 122.008 5.53587 121.956 5.54697C121.611 5.61998 121.295 5.70203 121.005 5.79579C120.571 5.93644 120.204 6.10058 119.861 6.30492C119.705 6.39785 119.554 6.49886 119.403 6.61074C119.096 6.82493 118.787 7.03109 118.475 7.23039C118.291 7.34779 118.096 7.46885 117.91 7.58148C117.336 7.92951 116.766 8.24977 116.203 8.55292C115.642 8.85551 115.093 9.13841 114.564 9.41265C114.166 9.6183 113.783 9.81715 113.408 10.0169C113.293 10.0791 113.179 10.1426 113.065 10.2077C112.294 10.6451 111.537 11.0937 110.826 11.5126C110.108 11.9352 109.388 12.356 108.629 12.759C108.487 12.8345 108.343 12.9097 108.197 12.9843C107.974 13.0983 107.747 13.2103 107.517 13.3194C107.249 13.4487 106.959 13.6035 106.654 13.7748C106.071 14.1018 105.436 14.4851 104.752 14.8765C104.074 15.2648 103.337 15.6651 102.571 16.03C101.957 16.3227 101.342 16.587 100.678 16.8332C100.553 16.8816 100.427 16.9313 100.3 16.983C99.691 17.2302 99.0833 17.513 98.3978 17.8554C97.7191 18.1942 96.9841 18.5815 96.2116 18.9819C95.5671 19.3161 94.8955 19.6592 94.2152 19.9933C94.0548 20.071 93.8957 20.1455 93.7369 20.2176C92.7675 20.6572 91.8461 20.9908 91.0306 21.2874C90.2062 21.5856 89.4581 21.8569 88.7255 22.1463C87.9966 22.4332 87.2551 22.7488 86.5638 23.0632C86.1812 23.2369 85.7997 23.4171 85.4165 23.6045C84.5533 24.028 83.6827 24.4242 82.8177 24.7963C81.5109 25.3588 80.2307 25.8612 79.0191 26.355C78.7546 26.4627 78.4925 26.5704 78.2326 26.6784C77.2287 27.097 76.2108 27.5035 75.191 27.8902C73.8839 28.3873 72.5654 28.8489 71.3095 29.2866C71.0318 29.3836 70.7572 29.4798 70.486 29.5759C70.1674 29.6887 69.8534 29.8013 69.5434 29.915C68.774 30.1994 68.0011 30.4413 67.2398 30.6482C67.2319 30.6503 67.224 30.6524 67.2161 30.6544C65.7459 31.0535 64.3385 31.3173 63.0377 31.5623C62.5605 31.6525 62.1172 31.7365 61.6867 31.8249C61.6209 31.8384 61.5559 31.8519 61.4917 31.8655C61.1982 31.9271 60.8009 32.0233 60.4167 32.1155C59.9558 32.2265 59.4826 32.3406 59.0077 32.4509C58.5246 32.5633 58.0572 32.6684 57.5709 32.7727C57.1273 32.8676 56.6818 32.9598 56.1904 33.052C56.1452 33.0605 56.0999 33.0689 56.0545 33.0773C55.5158 33.1768 54.8892 33.2765 54.2951 33.3468C52.7191 33.5273 51.1166 33.6338 49.29 33.4457C47.6539 33.2501 45.6913 32.8674 43.7848 31.3238C43.7384 31.2857 43.682 31.2416 43.6161 31.1922C43.3349 30.9782 42.8863 30.6932 42.294 30.2566C41.752 29.8449 41.0299 29.291 40.3426 28.2972C40.1421 28.0043 39.9437 27.7117 39.7466 27.4193C38.9413 26.2243 38.1591 25.0346 37.3793 23.8437C36.9299 23.1574 36.4818 22.4706 36.0367 21.7922C35.6199 21.1584 35.2819 20.56 34.9794 20.0156C34.273 18.7201 33.7046 17.7214 33.2254 17.2132C33.1485 17.1286 33.0747 17.0547 33.0028 16.9892C31.646 15.8074 30.8086 14.7672 30.088 14.1316C29.5515 13.6354 29.2248 13.5121 29.2525 13.5054C28.9069 13.4461 28.5608 13.4183 28.2468 13.4223C27.8714 13.4264 27.5435 13.4781 27.3079 13.5488C26.4212 13.8528 25.5886 14.1298 24.7858 14.4213C23.4091 14.9201 22.1065 15.462 21.0653 16.0785C20.9621 16.1397 20.862 16.2013 20.7659 16.2628C20.1357 16.6746 19.5072 17.0971 18.8806 17.5288C18.5047 17.8332 18.1486 18.1269 17.8057 18.4127C15.2854 20.5283 13.5215 22.1299 11.2862 24.2651C11.0757 24.474 10.9123 24.6485 10.7127 24.8637C10.6747 24.9046 10.6344 24.9479 10.5935 24.9922C10.3353 25.2719 10.0377 25.5931 9.61947 26.0285C8.79233 26.8981 7.47732 28.1927 5.89929 29.8098C5.50287 30.2193 5.08536 30.3471 4.93755 30.0904C4.83655 29.9079 4.90252 29.581 5.10204 29.2502C4.64331 29.7845 4.21166 30.3243 3.82387 30.8671C3.66816 31.085 3.48992 31.2608 3.31614 31.3637C3.14352 31.4646 2.99098 31.4797 2.88541 31.4043C2.78032 31.3287 2.73155 31.1661 2.76089 30.9424C2.7924 30.7153 2.89161 30.4624 3.0514 30.2209C3.46655 29.5939 3.92432 28.9826 4.40754 28.3821C4.8912 27.7814 5.40042 27.1924 5.92353 26.6168C6.44742 26.0404 6.99171 25.4702 7.54552 24.9118C8.09782 24.3549 8.66679 23.8028 9.24257 23.2608C9.82322 22.7144 10.4027 22.1851 10.9988 21.6554C11.3562 21.3377 11.7204 21.0196 12.081 20.7089C12.2154 20.5933 12.3464 20.4806 12.478 20.3685C12.5859 20.2765 12.6946 20.1846 12.8065 20.0902C13.9824 19.097 15.1953 18.1192 16.418 17.1757C17.4996 16.3413 18.6013 15.5241 19.7087 14.7407C19.8424 14.646 19.9806 14.5528 20.1214 14.4619C21.3195 13.6914 22.6973 13.069 24.1143 12.4964C24.9148 12.1732 25.7309 11.8688 26.5658 11.5505C27.055 11.3616 27.6117 11.2549 28.1898 11.2217C28.6344 11.196 29.0927 11.213 29.5485 11.2679C30.2137 11.3375 30.9414 11.7626 31.6592 12.3679C32.5031 13.0717 33.3093 13.9646 34.2979 14.8193C34.3974 14.8983 34.4995 14.9774 34.6025 15.0544C34.8389 15.2253 35.0638 15.4197 35.278 15.6327C36.1091 16.4559 36.8112 17.5675 37.5525 18.6904C36.5684 17.0025 35.7396 15.7027 34.7036 14.9321C34.4128 14.7071 34.1442 14.4782 33.8877 14.2513C33.6977 14.083 33.5144 13.9157 33.3351 13.7505C32.0721 12.5914 30.856 11.3695 29.5552 11.2173C28.841 11.1329 28.0725 11.1236 27.3095 11.2635C27.0362 11.314 26.7771 11.3835 26.5363 11.4711C23.6413 12.5037 21.274 13.4229 19.5936 14.5751C16.4075 16.7675 14.2638 18.467 12.7084 19.701C10.1813 21.7303 9.1183 22.6255 8.04393 23.3833C6.51821 24.4428 3.96755 26.952 2.92838 28.4023C2.53904 28.92 2.06462 29.2271 1.83509 29.0725C1.60627 28.9178 1.72567 28.335 2.1321 27.7948C3.27293 26.2012 6.091 23.4359 7.93963 22.1751C8.76146 21.6091 9.63435 20.883 12.1491 18.8657C13.6942 17.6422 15.8258 15.9527 19.0223 13.7525C20.845 12.5042 23.2932 11.5667 26.1876 10.5322C26.4915 10.4212 26.8116 10.3362 27.1425 10.2758C28.0387 10.1147 28.8933 10.1304 29.6865 10.224C31.4679 10.4856 32.6543 11.7897 33.8892 12.8951C34.0642 13.0568 34.241 13.2191 34.4213 13.381C34.4224 13.3821 34.4235 13.3831 34.4246 13.3842C34.7173 13.6466 35.0207 13.9089 35.344 14.1576C36.9078 15.3236 37.8433 17.3558 39.2904 19.5782C39.2974 19.5884 39.3044 19.5987 39.3114 19.609C40.6886 21.6211 42.1882 23.877 43.6923 26.0253C44.3427 26.9222 45.4778 27.4272 46.4056 28.1836C49.6395 30.2814 53.405 29.0755 54.5319 28.9867C54.988 28.8988 55.4301 28.8011 55.8915 28.6909C57.0618 28.4167 58.3389 28.0376 60.525 27.453C61.681 27.1647 63.0635 26.9034 64.7087 26.4924C65.6583 26.2524 66.7373 25.948 67.8656 25.513C67.9828 25.4678 68.1002 25.423 68.2192 25.3779C70.1759 24.5062 72.0441 23.721 73.651 22.9967C74.5273 22.6056 75.3459 22.1986 76.1313 21.7824C76.6016 21.5344 77.0607 21.2921 77.5122 21.0527C77.865 20.8655 78.2184 20.6771 78.5685 20.4894C79.4135 20.0367 80.2416 19.5842 81.0362 19.1448C81.5798 18.8444 82.134 18.5189 82.7047 18.1655C82.8097 18.1018 82.9143 18.0386 83.0186 17.9759C85.2186 16.5546 88.6033 15.2481 91.5081 13.9924C92.0721 13.7242 92.6566 13.4473 93.2741 13.1618C95.0522 12.3371 96.8786 11.5137 98.7111 10.9252C100.862 10.2535 102.641 9.02143 105.033 7.91344C105.038 7.91152 105.042 7.90959 105.046 7.90766C105.042 7.90955 105.038 7.91143 105.033 7.91331C102.186 9.26488 100.744 10.1372 99.3086 10.5796C99.0855 10.6538 98.8706 10.7192 98.6619 10.7775C98.6142 10.7915 98.567 10.8054 98.5202 10.8193C96.2684 11.4987 94.7581 12.1661 93.2496 12.8558C92.5826 13.1648 91.9659 13.4507 91.3834 13.7161C87.6954 15.1493 84.3716 16.3184 82.3834 17.5211C81.6666 17.9258 80.9924 18.2963 80.2845 18.6768C79.535 19.0801 78.6917 19.5267 77.7567 20.0146C77.1433 20.3351 76.4919 20.674 75.8103 21.0344C74.4772 21.7459 73.0276 22.4637 71.4576 23.1339C70.2656 23.6458 68.9675 24.1805 67.5924 24.7963C66.5754 25.2616 65.4645 25.6604 64.2701 26.014C64.2691 26.0143 64.268 26.0145 64.2669 26.0148C63.7504 26.1682 63.2186 26.3142 62.6735 26.4592C61.9489 26.6522 61.201 26.8427 60.438 27.0563C57.7279 27.8797 55.1158 28.7009 52.4288 28.9921C52.066 29.0313 51.6273 29.0726 51.1298 29.0943C49.8923 29.1231 48.0371 29.1744 46.5175 28.0495C45.6078 27.3153 44.4669 26.8098 43.8334 25.9297C42.7946 24.4266 41.7088 22.7483 40.5788 20.9443C40.2649 20.4433 39.9503 19.9311 39.6254 19.3997C39.1891 18.6852 38.8 17.8794 38.3462 16.9941C38.1082 16.5321 37.8514 16.047 37.5434 15.5473C37.1283 14.8775 36.6152 14.1601 35.8815 13.5075C34.4927 12.4297 33.5497 10.1645 30.2432 9.06434C30.1145 9.03403 29.984 9.00896 29.8498 8.98941C28.6049 8.81231 27.1958 8.80083 25.7361 9.31658C23.6279 10.0785 21.2378 10.8678 18.9254 12.2515C18.7062 12.3848 18.4878 12.5249 18.2722 12.6726C16.7976 13.6818 15.3387 14.7431 13.918 15.8259C9.08369 19.5719 4.76516 23.1772 1.22298 27.8196C1.22229 27.8205 1.2216 27.8215 1.22091 27.8225C0.811128 28.377 0.322219 28.7195 0.100264 28.5527C-0.119432 28.3836 0.0306609 27.7431 0.45871 27.1676C4.13587 22.3782 8.47296 18.7799 13.3401 15.0073C14.7546 13.9299 16.2154 12.8669 17.7009 11.8501C17.9298 11.6931 18.1605 11.5449 18.3905 11.4047C20.8346 9.94081 23.2796 9.14156 25.3874 8.37765C27.0689 7.78383 28.6173 7.80621 29.9812 7.99593C30.1949 8.0265 30.4021 8.06888 30.6022 8.12095C34.432 9.51561 35.2345 11.7798 36.5221 12.7327C37.4552 13.5568 38.0529 14.4407 38.521 15.2193C38.8549 15.7801 39.1211 16.2974 39.3628 16.7713C39.7703 17.5752 40.1096 18.2588 40.462 18.842C40.813 19.418 41.1468 19.9634 41.4813 20.4973C42.5908 22.2691 43.6526 23.9084 44.6619 25.3677C45.0132 25.903 46.1304 26.4725 47.1604 27.2793C48.1797 28.0488 49.7655 28.1271 50.8902 28.0964C51.3681 28.0822 51.7948 28.0465 52.1615 28.01C54.7837 27.7463 57.368 26.9353 60.2216 26.0684C60.8821 25.8841 61.5233 25.7187 62.1426 25.555C62.6828 25.4123 63.2076 25.2711 63.7142 25.1244C63.7153 25.124 63.7163 25.1236 63.7173 25.1232C65.0023 24.7528 66.1743 24.3392 67.2322 23.8513C68.5302 23.2718 69.7483 22.7693 70.8652 22.2923C72.564 21.5707 74.0327 20.8351 75.4075 20.0957C75.8728 19.8487 76.3247 19.6115 76.7645 19.3815C77.7445 18.8694 78.6579 18.3943 79.5295 17.9312C80.3474 17.4969 81.1151 17.0799 81.9339 16.6194C83.9896 15.3786 87.6148 14.1159 90.9718 12.8035C91.5475 12.5413 92.1563 12.2591 92.8172 11.9529ZM5.82834 28.4326C6.86795 27.3942 7.73198 26.5377 8.36565 25.8843C7.80252 26.4122 7.25046 26.9495 6.71786 27.4944C6.41616 27.803 6.11788 28.1171 5.82834 28.4326ZM68.7514 26.247C68.5795 26.3239 68.4074 26.4017 68.2344 26.4807C68.1724 26.509 68.1104 26.5369 68.0483 26.5645C68.1116 26.5403 68.1749 26.5157 68.2383 26.4908C68.8361 26.2554 69.4378 26.0283 70.0396 25.8027C70.8555 25.497 71.6729 25.1927 72.4867 24.8775C71.1872 25.3633 69.9202 25.8072 68.7514 26.247ZM93.7037 14.0665C93.0795 14.3551 92.4889 14.6352 91.9203 14.9062C89.0691 16.1606 86.1693 17.2344 83.9955 18.5839C83.7132 18.7488 83.438 18.9136 83.1615 19.0817C82.7169 19.3548 82.2742 19.6154 81.8278 19.8657C81.5338 20.0306 81.2391 20.1954 80.9407 20.361C81.7608 20.0068 82.5396 19.6498 83.2676 19.2945C84.1849 18.8465 85.0467 18.4622 85.8272 18.1404C88.6805 16.9673 90.787 16.4942 92.3351 15.8257C93.1368 15.4915 93.8507 15.189 94.5387 14.8995C95.1402 14.6465 95.7211 14.4033 96.319 14.1615C96.7939 13.9166 97.2938 13.6693 97.809 13.4356C98.2926 13.2158 98.8109 12.9973 99.3343 12.7969C99.5743 12.704 99.811 12.6062 100.042 12.5055C100.747 12.1978 101.443 11.8389 102.122 11.4574C102.807 11.0732 103.48 10.6631 104.178 10.2561C104.676 9.96602 105.188 9.67753 105.725 9.41854C105.877 9.34484 106.027 9.26971 106.176 9.19317C106.211 9.175 106.246 9.1568 106.281 9.1384C106.933 8.79924 107.562 8.4347 108.147 8.08705C108.741 7.73246 109.241 7.42614 109.686 7.14671C110.241 6.79743 110.83 6.44934 111.431 6.12911C111.495 6.09544 111.558 6.0619 111.622 6.0285C112.145 5.75477 112.661 5.49169 113.168 5.2298C113.736 4.93658 114.287 4.64635 114.824 4.34541C114.997 4.24816 115.177 4.14515 115.346 4.04638C115.424 4.00073 115.501 3.95495 115.577 3.90889C114.529 4.46559 113.376 4.97137 112.135 5.50963C111.93 5.59883 111.722 5.68918 111.512 5.7814C109.804 6.5183 108.129 7.5137 106.408 8.37501C106.093 8.53123 105.775 8.68163 105.451 8.82369C103.203 9.85423 101.339 11.1463 99.0274 11.8751C97.2703 12.4387 95.4957 13.2349 93.7037 14.0665ZM133.565 8.50386C133.252 8.01287 132.786 7.29247 131.983 6.45985C131.96 6.43652 131.937 6.41244 131.913 6.3876C131.761 6.23036 131.597 6.05198 131.419 5.856C131.423 5.86079 131.427 5.86556 131.431 5.87034C131.616 6.09469 131.788 6.30176 131.953 6.48861C132.236 6.80215 132.492 7.12501 132.738 7.46781C133.523 8.5671 134.076 9.68556 134.57 10.7974C134.915 11.5774 135.222 12.3518 135.525 13.1036C135.656 13.4273 135.787 13.748 135.92 14.0667C136.363 15.1234 136.833 16.1498 137.364 17.1181C137.619 17.5829 137.887 18.0338 138.171 18.4731C138.357 18.7634 138.638 18.9975 139.046 19.1967C139.292 19.3168 139.575 19.4183 139.881 19.5035C139.204 19.2862 138.63 18.9756 138.342 18.5822C138.305 18.5329 138.271 18.4823 138.239 18.4284C137.931 17.9262 137.632 17.3931 137.342 16.8209C137.211 16.5619 137.059 16.2443 136.888 15.8674C136.56 15.1435 136.173 14.1979 135.709 13.0259C135.203 11.7774 134.623 10.2215 133.565 8.50386ZM148.831 20.2063C149.088 20.2094 149.359 20.2112 149.609 20.2111C150.345 20.2114 151.042 20.1981 151.734 20.1645C152.221 20.1408 152.694 20.1074 153.156 20.0621C153.356 20.0424 153.539 20.0221 153.738 19.9977C154.06 19.9582 154.379 19.9116 154.687 19.859C152.488 20.1767 150.238 20.17 147.886 20.0312C147.856 20.0294 147.824 20.0277 147.793 20.0258C148.139 20.0906 148.499 20.1515 148.831 20.2063Z" fill="#D9315A"/>
</svg>
