<svg width="68" height="63" viewBox="0 0 68 63" fill="none" xmlns="http://www.w3.org/2000/svg">
<path d="M22.6572 21.3425C21.9944 21.254 25.2604 16.4122 25.2938 16.0382C25.3579 15.3189 25.9126 15.3985 26.2093 14.8746C26.4749 14.4059 26.4995 13.768 26.6853 13.2662C27.157 11.993 28.5638 10.9249 29.1755 9.6388C29.6734 8.59178 30.1586 7.09111 30.4937 5.94288C30.8303 4.78942 31.8056 3.89432 31.8852 2.55496C31.9619 1.26463 33.1449 1.06226 33.2036 2.48652C33.2609 3.88032 34.3595 4.884 34.5401 6.23377C34.8591 8.6189 36.4829 10.828 37.3232 13.0267C38.0862 15.0235 40.0059 16.4732 40.8569 18.2626C41.4554 19.521 43.6013 20.9584 45.068 21.0345C46.2696 21.0969 47.4194 21.7562 48.62 21.411C49.8232 21.065 51.0273 21.7075 52.1537 21.9414C53.2417 22.1672 54.6491 21.9585 55.7607 21.9585C56.8228 21.9585 57.6223 22.2665 58.7451 22.2665C61.103 22.2665 63.2141 22.7567 65.5013 22.8825C66.94 22.9616 66.5265 23.3755 66.0872 24.1145C65.4173 25.2414 63.3545 26.7559 62.2057 27.4339C61.0809 28.0977 59.0198 29.5729 58.2509 30.6507C57.2815 32.0095 55.6784 32.9873 54.7903 34.2783C54.1761 35.171 53.4739 36.5309 52.5017 37.0501C51.951 37.3443 50.4913 38.8056 50.3595 39.3601C50.2993 39.6126 50.0655 40.3115 49.8285 40.438C48.8363 40.9679 49.8828 40.8638 49.9933 41.2251C50.2931 42.206 50.0115 43.6619 50.0115 44.6815C50.0115 46.8774 50.1282 49.891 51.5862 51.5943C52.1289 52.2281 51.4786 54.0466 52.3185 54.5373C53.1974 55.0506 52.6545 56.7664 53.4721 57.3776C53.9179 57.711 53.9663 58.2755 53.9663 58.7636C53.9663 59.0811 54.4661 59.9346 54.2777 59.6705C53.6111 58.7363 52.9633 58.4668 51.8241 57.9936C49.5479 57.0481 47.2148 56.5659 44.7567 55.9916C43.9737 55.8088 43.2118 55.9899 42.5962 55.5297C42.0977 55.157 42.0581 54.6058 41.278 54.6058C40.1654 54.6058 39.5646 53.6991 38.6414 53.2198C37.7327 52.7479 34.033 49.7789 33.2767 50.9098C32.958 51.3865 32.2881 51.3858 31.9585 51.8338C31.6439 52.2613 30.3552 53.0183 29.8345 53.3738C28.4536 54.3169 26.791 55.2399 25.2938 55.9061C23.5484 56.6829 21.8637 57.7106 20.2404 58.6096C19.5497 58.9921 17.8399 60.304 17.1827 60.4405C16.5359 60.5748 15.9088 60.7656 15.242 60.7656C14.5547 60.7656 14.2814 61.3815 13.5941 61.3815C12.8444 61.3815 12.7901 61.797 13.0997 61.0735C13.3281 60.54 13.4293 60.3018 13.4293 59.6876C13.4293 58.7234 14.2455 57.5718 14.4364 56.5905C14.6927 55.2729 15.2999 53.816 15.4067 52.5183C15.6045 50.1155 17.3842 48.116 17.3842 45.6739C17.3842 44.6473 17.3842 43.6206 17.3842 42.594C17.3842 41.4069 16.3565 41.3115 16.0475 40.3011C15.9504 39.9835 14.227 38.1001 13.9237 37.9741C12.7621 37.4916 12.6499 35.74 11.9279 35.0652C10.0976 33.3547 8.84359 31.0535 7.09426 29.4188C5.43601 27.8691 4.46524 26.0379 2.80986 24.4909C2.43031 24.1361 1.20696 23.2924 1.56481 23.43C2.12067 23.6439 2.6245 23.5092 3.02957 23.1905C3.79728 22.5862 4.87242 23.1501 5.68444 22.7285C6.12407 22.5002 6.85718 22.5077 7.3506 22.5916C8.31501 22.7555 8.84536 22.5745 9.80406 22.5745C10.6354 22.5745 13.6411 22.1026 14.2533 22.4205C15.286 22.9567 17.059 22.2665 18.2081 22.2665C19.1032 22.2665 20.546 22.9499 21.0094 21.6505M4.35088 24.4417C5.85484 23.7167 7.49593 23.191 8.9463 22.4142C9.39344 22.1747 12.3683 21.4094 11.8866 22.2452C11.4935 22.9273 7.41157 28.3019 8.05058 28.4779C9.24501 28.8069 12.0015 26.6891 12.9965 26.0937C15.9573 24.322 18.9638 22.7207 21.5253 20.4055C24.9798 17.2833 29.3412 15.2438 32.936 12.4083C33.9162 11.6351 34.24 9.91146 35.3311 9.91146C35.3438 9.91146 34.8136 10.4634 34.669 10.5873C33.9275 11.2227 33.4815 12.1245 32.7218 12.7837C29.5799 15.5099 26.4258 18.1598 23.6283 21.2315C21.1133 23.9929 18.2282 27.0443 16.9299 30.4866C16.8099 30.8048 15.6918 31.7968 16.6183 31.3501C17.4192 30.9641 18.0608 30.1875 18.7603 29.6606C22.7022 26.6914 26.8847 23.9908 30.9888 21.2315C33.3604 19.637 35.6518 17.9223 38.1545 16.5195C39.092 15.9941 50.0512 25.2865 51.2009 25.2865C51.3558 25.2865 39.3817 16.8598 38.8945 17.1953C37.7339 17.9946 36.8501 19.503 35.9152 20.5369C34.3023 22.3207 32.6823 24.0836 30.794 25.6056C26.8049 28.8209 21.2642 32.0344 18.4098 36.2874C18.0136 36.8776 16.7495 40.081 16.9688 39.8167C18.487 37.987 20.8808 36.2982 22.9079 35.0296C28.6433 31.4403 34.5995 28.1198 40.7637 25.2865C41.2325 25.0711 48.6661 24.3099 48.3381 23.2033C48.1618 22.6082 50.3422 20.7436 50.0715 20.9123C47.9092 22.2612 45.7503 23.68 43.4705 24.9297C35.7454 29.1646 29.6344 35.6235 22.791 40.9994C21.5303 41.9897 20.3337 43.2596 18.916 44.0406C18.0924 44.4943 18.9757 44.8971 19.8117 44.3597C29.8054 37.9365 40.3163 31.8204 51.2009 26.8822C55.0861 25.1195 63.0789 22.0763 63.0789 22.0763C63.0789 22.0763 58.8206 24.4753 56.77 25.7933C48.8764 30.8667 40.6067 35.3644 33.0918 40.9994C30.3115 43.0841 27.3677 44.7992 24.6799 47.0067C22.9324 48.4419 21.06 49.7367 19.2276 51.0616C17.245 52.4952 15.7874 54.432 13.8144 55.9426C13.3056 56.3321 14.6766 59.7138 15.2816 60.2973C15.9454 60.937 13.3719 57.6118 14.1649 57.2192C22.0765 53.3024 29.3831 47.8124 36.9083 43.2521C40.6714 40.9716 45.6755 39.5306 48.8642 36.4563C49.5967 35.75 50.3002 35.6304 51.0451 34.992C51.0837 34.9589 52.2479 34.322 52.2135 34.6541C52.1669 35.1025 51.2758 35.5264 51.0451 35.9307C50.1125 37.5655 48.6115 38.8558 47.1117 40.0608C44.6808 42.0138 42.4083 44.0658 40.0238 46.0681C38.777 47.1151 37.1482 48.3549 36.3242 49.7851C35.4488 51.3041 37.7056 49.2671 38.0766 49.0342C40.5922 47.4549 42.9965 45.9262 45.7098 44.6414C45.9169 44.5432 50.4609 42.7794 50.4609 43.2896C50.4609 43.9396 47.1335 47.0977 46.6054 47.7577C45.3157 49.3695 41.983 51.215 41.309 53.1642C40.5662 55.3126 48.4054 47.596 47.3064 49.5973C46.5126 51.043 45.7093 52.6986 44.7361 54.0278C43.6733 55.4793 46.139 54.5029 46.7612 54.1029C50.1163 51.9464 48.262 55.4083 49.9158 56.2054" stroke="#E15A7B" stroke-width="3" stroke-linecap="round"/>
</svg>
