<svg width="328" height="92" viewBox="0 0 328 92" fill="none" xmlns="http://www.w3.org/2000/svg">
<path fill-rule="evenodd" clip-rule="evenodd" d="M50.2952 69.352H36.0254C13.7649 69.352 29.9401 22.6134 48.6804 22.6134H71.2316C74.8488 22.6134 81.2185 23.2676 84.3575 14.4317L89.202 0.696777H58.286C41.5419 0.696777 28.5056 6.52418 19.0876 16.3079C2.81544 33.0452 -2.701 59.1922 1.2006 71.6991C4.90846 83.2642 14.9912 90.8854 30.7862 91.0698L43.0599 91.1656H58.1881L61.896 80.1599C64.6547 72.3543 58.4725 69.3449 50.288 69.3449L50.2952 69.352ZM224.01 49.9803L228.675 35.0244H178.922C170.647 35.0244 166.932 37.2828 165.505 41.9841L160.841 56.94H210.601C218.875 56.94 222.59 54.6815 224.01 49.9803ZM153.419 76.3117L148.755 91.2614H198.507C206.692 91.2614 210.497 89.003 211.924 84.3017L216.588 69.3449H166.828C158.651 69.3449 154.936 71.6032 153.419 76.3045V76.3117ZM235.619 15.7485L240.276 0.792582H190.523C182.249 0.792582 178.534 3.05101 177.107 7.75228L172.442 22.7082H222.202C230.386 22.7082 234.094 20.4498 235.619 15.7485ZM160.459 18.758C158.366 4.83859 150.848 0.792582 132.585 0.792582H99.2858L79.8809 56.94H92.1545C99.4795 56.94 103.187 57.0358 107.089 46.6916L115.177 22.6196H127.547C138.109 22.6196 135.732 35.6931 130.403 48.3843C125.649 59.5744 117.367 69.4469 107.38 69.4469H86.735C78.4598 69.4469 74.655 71.7063 73.1298 76.4065L67.9947 91.3634H83.1239L97.9688 91.2676C111.095 91.1728 121.85 90.2373 134.408 79.041C147.728 67.0998 163.142 36.437 160.474 18.758H160.459ZM327.71 0.696777H298.886L271.775 29.1908C268.636 32.4796 265.399 35.7745 262.26 39.6299H261.975L275.475 0.696777H251.975L220.296 91.2614H243.797L253.88 62.7674L264.345 54.0201L272.621 79.7911C275.185 87.7883 277.853 91.2614 283.563 91.2614H301.541L283.085 40.6674L327.71 0.696777Z" fill="#EDEDED"/>
</svg>
