<svg width="454" height="157" viewBox="0 0 454 157" fill="none" xmlns="http://www.w3.org/2000/svg">
<mask id="mask0_283_1995" style="mask-type:luminance" maskUnits="userSpaceOnUse" x="0" y="0" width="454" height="157">
<path d="M453.908 0H0.22168V156.606H453.908V0Z" fill="white"/>
</mask>
<g mask="url(#mask0_283_1995)">
<path d="M68.4202 156.604C40.1845 156.604 14.683 140.528 2.13826 115.695C-0.350482 110.782 2.00432 104.791 7.17142 102.992C11.3791 101.531 16.0443 103.386 18.0641 107.387C27.5615 126.296 46.9479 138.538 68.4202 138.538C86.6122 138.538 103.308 129.747 113.766 115.561C117.137 110.985 121.813 103.7 121.813 91.9976L137.895 108.972C137.895 108.972 137.047 111.4 135.417 114.492C133.788 117.573 133.107 118.742 132.114 120.395C118.856 142.54 94.8379 156.604 68.4202 156.604Z" fill="#EDEDED"/>
<path d="M103.976 77.4733C103.295 68.3675 99.2894 61.1162 92.3807 56.4964C86.6108 52.6399 78.8323 50.6731 69.2782 50.6731H68.2075V50.639H58.8543V35.8336H88.9429C93.4515 35.8336 97.1346 32.3934 97.1346 27.9981C97.1346 23.5915 93.4072 19.9268 88.9429 19.9268H50.6627C46.1427 19.9268 42.4709 23.6142 42.4709 28.1785V58.3849C42.4709 62.9378 46.1314 66.6356 50.6627 66.6356H69.6131C82.2918 66.6356 86.3315 72.4928 86.3315 78.5407C86.3315 84.4876 83.1399 94.0324 69.8254 94.0324C58.8203 94.0324 52.2476 86.5338 50.8853 85.3087C46.8126 81.6326 42.7049 81.8912 39.9822 84.3083C36.5113 87.3992 36.9349 91.7276 39.033 94.9421C41.5331 98.7532 51.2655 110.591 69.8141 110.591C80.3492 110.591 89.657 106.78 96.0196 99.8772C101.689 93.7284 104.579 85.5674 103.976 77.4733Z" fill="#EDEDED"/>
<path d="M288.046 88.323C279.111 87.8851 270.599 84.1977 266.766 80.7019C262.51 76.8228 261.706 71.6403 265.024 68.7287C269.363 64.9176 273.763 68.4032 275.639 69.5726C285.367 75.6534 293.137 75.1815 296.816 72.2472C298.97 70.539 299.856 68.4145 299.568 66.6496C299.032 63.4454 295.301 62.3099 290.653 61.0282C287.16 60.0618 277.751 57.2852 273.289 54.6991C266.9 50.9777 262.499 44.7845 263.993 36.1619C265.57 27.0447 273.382 20.1757 283.584 19.2206C296.507 18.0059 302.824 21.1535 306.524 23.1667C311.831 26.0443 312.82 31.9119 310.048 35.2511C308.76 36.7914 305.019 38.2411 301.278 36.5781C288.5 30.8888 281.987 32.4518 280.327 35.791C278.555 39.3321 281.739 42.7383 285.82 44.3229C286.068 44.4136 288.51 45.414 291.962 46.5381C294.94 47.5158 298.64 48.5276 302.68 50.0452C310.12 52.8332 316.386 58.7688 315.448 68.6958C314.943 73.9678 311.852 79.7797 307.235 83.2199C303.824 85.7493 297.084 88.7733 288.046 88.323Z" fill="#EDEDED"/>
<path d="M364.873 72.4385C362.987 71.7307 360.225 72.0346 358.587 72.3262C356.371 72.7198 352.919 73.136 350.106 72.3262C345.19 70.9219 343.376 68.0999 343.376 63.749V34.6779H355.021C359.453 34.6779 363.059 31.215 363.059 26.9547C363.059 22.6831 359.463 19.2316 355.021 19.2316H343.376V8.13627C343.376 3.47106 339.625 -0.317383 334.977 -0.317383C330.35 -0.317383 326.599 3.47106 326.599 8.13627V19.2316H322.807C318.375 19.2316 314.769 22.6944 314.769 26.9547C314.769 31.2264 318.365 34.6779 322.807 34.6779H326.599V63.749C326.599 77.4077 337.409 88.5257 351.198 88.5257C364.976 88.5257 368.624 83.5462 368.624 78.88C368.614 75.5304 367.501 73.4173 364.873 72.4385Z" fill="#EDEDED"/>
<path d="M227.059 19.2305C208.572 19.2305 193.546 34.7324 193.546 53.7755C193.546 72.8299 208.572 88.3215 227.049 88.3215C245.527 88.3215 260.552 72.8196 260.552 53.7755C260.572 34.7211 245.537 19.2305 227.059 19.2305ZM227.059 72.7516C217.506 72.7516 209.746 65.9166 209.746 53.7755C209.746 41.6344 217.517 34.7211 227.059 34.7211C236.602 34.7211 244.372 41.6344 244.372 53.7755C244.372 65.9166 236.602 72.7516 227.059 72.7516Z" fill="#EDEDED"/>
<path d="M156.849 19.2305C150.272 19.2305 142.081 23.0632 137.918 28.9988C137.683 23.2775 134.637 19.4437 130.195 19.4437C125.563 19.4437 121.803 23.2322 121.803 27.8974V105.611C121.803 110.277 125.563 114.065 130.195 114.065C134.827 114.065 138.588 110.288 138.588 105.611V80.1038C141.768 84.2745 149.681 88.3556 157.55 88.3556C176.027 88.3556 189.311 72.8299 189.311 53.7755C189.311 34.7211 175.924 19.2305 156.849 19.2305ZM155.798 72.7516C145.061 72.7516 137.628 65.1861 137.628 53.7755C137.628 41.2862 146.701 34.7211 155.798 34.7211C165.341 34.7211 173.111 43.7259 173.111 53.7755C173.121 63.8261 165.351 72.7516 155.798 72.7516Z" fill="#EDEDED"/>
<path d="M426.344 42.6153L421.583 34.6562L416.925 42.6153H411.35L418.512 30.6205L411.216 19.4912H417.028L421.707 26.9218L426.169 19.4912H431.744L424.561 30.9914L431.94 42.6153H426.344Z" fill="#EDEDED"/>
<path d="M450.067 34.7561C450.067 39.8376 446.264 43.0191 441.277 43.0191C436.876 43.0191 433.187 40.5794 432.816 35.2507H437.567C437.907 37.5668 439.731 38.5559 441.73 38.5559C444.224 38.5559 445.306 36.8693 445.306 34.6892C445.306 32.407 443.626 30.9904 441.308 30.9904C439.38 30.9904 438.092 31.9238 437.505 32.9129H432.96L434.537 19.5015H449.48L448.975 23.9977H438.288L437.855 28.4383C437.855 28.4383 438.989 27.1123 442.389 27.1123C446.491 27.0896 450.067 29.8663 450.067 34.7561Z" fill="#EDEDED"/>
<path d="M433.382 16.6126C430.847 6.66396 422.82 -0.317383 406.145 -0.317383H386.009L388.74 18.2992C390.801 35.0941 397.18 40.5012 408.464 42.4907C408.516 42.502 408.876 42.5474 408.876 42.1311C408.876 41.9848 408.784 41.8498 408.65 41.7942C401.024 38.556 400.148 27.9439 398.519 17.2988L397.262 8.81112H408.753C419.357 8.81112 427.539 8.64213 432.713 16.8825C432.795 16.9948 432.919 17.0844 433.053 17.0844C433.249 17.0844 433.393 16.9165 433.393 16.7135C433.393 16.6795 433.393 16.6466 433.382 16.6126Z" fill="#EDEDED"/>
</g>
</svg>
