<svg width="52" height="48" viewBox="0 0 52 48" fill="none" xmlns="http://www.w3.org/2000/svg">
<g clip-path="url(#clip0_182_248)">
<path d="M41.7443 4.23441C41.1111 3.67009 41.6114 4.99311 41.6131 5.02382C41.6349 5.41741 41.6427 6.01604 41.7516 6.39797C41.9183 6.98316 41.8755 7.62018 41.8755 8.25455C41.8755 8.69824 42.0288 9.48022 41.8463 9.89182C41.5034 10.6655 41.7895 11.7599 41.6057 12.589C41.4761 13.1738 41.3506 13.6845 41.3506 14.2993C41.3506 14.9572 41.1131 15.5513 41.0881 16.1779C41.0606 16.8698 40.8503 17.5426 40.8257 18.2099C40.8026 18.8353 40.4428 19.3492 40.3081 19.9568C40.0554 21.0968 39.0916 22.0714 38.7553 23.2094C38.4798 24.1417 37.9414 25.1148 37.5451 26.0089C37.2033 26.7801 36.3817 27.6288 35.6496 28.0482C35.2067 28.302 34.9888 28.5644 34.4686 28.7134C34.2961 28.7628 34.0974 28.891 33.9218 28.9692C33.6907 29.0723 33.142 28.9982 32.9814 29.13C32.1518 29.8105 31.0937 29.9312 30.1237 30.2849C27.5863 31.21 24.6402 31.7321 21.8711 31.7321C20.5861 31.7321 19.0506 31.474 17.8614 30.9719C17.3137 30.7408 16.7389 30.7482 16.1847 30.5772C15.7535 30.4442 15.4094 30.1395 15.0256 29.8829C13.9769 29.182 12.9566 28.9326 12.3208 27.7851C12.0963 27.3798 11.3377 26.9726 10.9648 26.6668C10.5589 26.3339 10.1122 25.858 9.82761 25.4169C9.49397 24.8999 9.06678 24.5095 8.64657 24.0719C8.05382 23.4548 7.5757 22.7098 6.90419 22.1862C6.60942 21.9563 6.24699 21.2018 6.17517 20.8777C6.05735 20.3462 5.47095 20.0752 5.23473 19.6279C4.74435 18.6992 4.37733 17.7443 4.01726 16.7334C3.89752 16.3972 3.63424 15.6368 3.36114 15.4177C3.02283 15.1463 3.0228 14.6765 2.74146 14.3944C2.5671 14.2196 2.58022 14.0418 2.47902 13.8389C2.34727 13.5747 2.01296 13.4452 1.88122 13.181C1.74745 12.9128 2.19847 11.8778 2.44986 11.7338C2.81616 11.5239 3.42232 10.7839 3.63088 10.4255C3.75882 10.2055 4.0167 10.1201 4.16306 9.89182C4.2492 9.75752 4.61854 9.20981 4.739 9.13166C5.21091 8.82551 5.57131 8.33489 6.02208 7.99141C6.66043 7.505 7.16883 6.95268 7.9467 6.54416C8.74227 6.12635 9.52164 5.82939 10.3525 5.52085C10.9202 5.31007 11.4157 4.88844 12.0219 4.75337C12.294 4.69275 12.5032 4.4306 12.8093 4.36597C13.2667 4.26944 13.6669 4.03838 14.1143 3.9128C14.945 3.67959 15.8747 3.73889 16.6804 3.41577C17.7736 2.97733 19.1412 3.15841 20.2745 2.72137C20.8869 2.48524 21.7417 2.5044 22.396 2.38514C23.1398 2.24956 23.9612 1.99775 24.7143 1.99775C26.2163 1.99775 27.728 1.86618 29.2124 1.86618H31.312C32.1331 1.86618 32.9321 1.82121 33.7396 1.86618C34.2625 1.89531 34.7886 1.99775 35.3153 1.99775C36.287 1.99775 36.4009 2.2975 37.0129 2.39976C37.3519 2.4564 37.7333 2.83641 38.1356 2.92604C38.6473 3.04005 39.0484 3.07696 39.5135 3.28419C40.0049 3.50318 40.4436 3.2951 40.8257 3.77392C40.916 3.88707 41.1518 3.8644 41.285 3.97127C41.6318 4.24943 40.803 4.34785 40.6945 4.36597M42.7941 8.04989C43.2539 8.04989 43.7752 7.54727 44.1719 7.32626C44.6224 7.07536 45.1115 6.83918 45.6154 6.7269C46.1129 6.61604 46.5995 6.47108 47.1245 6.47108C47.616 6.47108 47.884 6.81606 48.3055 6.86578C48.5287 6.8921 49.0716 7.3984 49.2241 7.5894C49.5164 7.95585 49.7489 8.41963 49.7489 8.90508C49.7489 9.18913 50.3297 9.84715 49.9458 10.155C49.7249 10.3321 50.1426 11.2478 50.1426 11.5365C50.1426 13.0658 49.8764 14.1608 49.2533 15.5493C48.9163 16.3 48.7126 17.3631 48.1087 17.9687C47.5786 18.5002 46.9649 19.3643 46.2715 19.6937C44.9859 20.3042 43.6546 21.0805 42.5025 21.7915C42.0384 22.0777 41.3444 22.7034 40.8257 22.7855C40.4795 22.8404 40.3134 23.2437 39.9801 23.3045C39.6987 23.3557 39.8043 23.6093 39.5135 23.7065M22.1918 32.2584C22.8309 32.3438 21.1712 29.8829 21.3462 33.1794C21.1712 33.8528 19.9109 35.779 19.3049 36.3631C18.7434 36.6728 17.0449 36.314 16.4908 36.6001C15.5195 37.1019 14.5907 37.5595 13.6622 38.0767C13.411 38.2166 13.3495 38.5546 13.0061 38.5737C12.7278 38.5892 12.6929 38.6831 12.5104 38.8661C12.3062 39.0707 11.7267 39.6107 11.4314 39.6263C10.8588 39.6564 9.48199 40.5867 9.09857 40.9712C8.73797 41.3327 8.75206 41.5267 8.80696 41.9945C8.83459 42.23 9.39006 42.7725 9.59426 42.7839C9.94786 42.8036 10.5865 43.301 10.9065 43.471C11.3514 43.7071 11.8402 43.8937 12.2188 44.2311C13.169 45.0779 14.6362 45.4371 15.7618 45.9123C16.5339 46.2382 18.0362 46.2926 18.6779 45.7076C18.8748 45.5282 19.2721 45.4482 19.3049 45.1521C19.3383 44.8508 19.5686 44.4995 19.6986 44.2311C19.9017 43.8119 19.6142 43.1304 19.3049 42.7839C19.1064 42.5616 18.8219 42.2544 18.6779 41.9945C18.5455 41.7555 18.3524 41.7957 18.226 41.5998C17.9011 41.0963 17.1439 40.8819 16.6805 40.6496C16.4437 40.5309 16.2484 40.2696 15.9952 40.1818C15.6906 40.0761 15.3726 40.0583 15.1057 39.8309C14.816 39.584 14.5542 39.6263 14.1872 39.6263C13.9366 39.6263 13.8178 39.4424 13.5893 39.3338C13.0933 39.0983 12.6608 39.2563 12.3208 39.597C12.1114 39.807 11.4488 40.3659 11.4314 40.6787C11.4159 40.9582 12.7097 41.5283 13.0061 41.6729C13.9541 42.1352 15.1223 42.2884 16.1555 42.4915C16.6341 42.5856 17.439 42.662 17.8614 42.8862C18.2541 43.0946 17.5172 43.7915 17.3073 43.9388C17.0869 44.0935 15.6906 43.6143 15.4994 43.4417C15.2797 43.2434 13.9782 42.467 14.0559 42.3892M33.0834 30.4164C32.5743 30.4803 33.4374 31.1821 33.4771 31.2717C33.5773 31.4978 33.8586 31.503 33.9728 31.7322C34.0745 31.9359 34.0296 32.1631 34.2644 32.2877C34.509 32.4175 34.9706 32.8617 35.0444 33.121C35.1783 33.5907 35.6979 33.8173 35.9412 34.232C36.1502 34.5882 36.4563 34.952 36.6265 35.3357C36.7825 35.6877 37.3159 35.9584 37.5158 36.3371C37.9993 37.2524 39.0944 37.5919 39.703 38.3763C39.8955 38.6246 40.2757 39.1537 40.5632 39.3339C40.8061 39.4861 41.0882 39.809 41.4162 39.882C42.0638 40.0264 43.0508 38.816 43.3918 38.3763C44.1072 37.4542 45.2927 36.9075 46.0018 35.9935C46.4289 35.4428 46.4732 34.8388 46.76 34.232C46.9147 33.9044 46.7798 32.9576 46.4683 32.7555C46.1407 32.5429 45.7085 31.7322 45.3456 31.7322C44.7641 31.7322 44.2469 31.3129 43.6105 31.3375C42.6151 31.3759 41.3564 32.0234 40.6944 32.7263C39.9277 33.5401 39.487 34.5947 38.6969 35.3868C38.3001 35.7847 38.1478 35.6123 38.4636 36.0082C38.762 36.382 39.2187 36.3772 39.6373 36.1324C40.0844 35.8709 40.5501 35.5153 40.7965 35.0214C41.105 34.4027 41.7524 34.0505 42.189 33.5157C42.451 33.1945 42.8119 32.5216 43.3189 32.5216C43.5116 32.5216 43.626 32.7847 43.9094 32.7847C44.2458 32.7847 44.4999 32.6939 44.4999 33.1063C44.4999 33.8094 44.2459 34.4682 43.8438 35.0506C43.4061 35.6844 42.5807 36.0947 42.2691 36.7976C42.182 36.994 41.8124 37.3445 41.6421 37.4627C41.3507 37.665 41.5148 37.6441 41.3214 37.8866C41.153 38.0977 40.901 37.8319 40.6944 37.5212M4.21407 12.2601C4.53186 11.9016 4.49745 11.5219 4.92851 11.2075C5.20287 11.0075 5.60055 10.5877 5.7596 10.2865C6.13322 9.57899 7.04851 9.16344 7.68422 8.64195C8.73743 7.77799 10.1204 7.21273 11.2929 6.55148C12.9898 5.5945 15.3286 5.64741 17.1761 5.1554C19.4321 4.55459 21.6602 4.89312 23.9268 4.59988C24.7987 4.4871 25.5723 4.26306 26.4493 4.49756C27.4875 4.77511 28.4443 4.76069 29.5258 4.76069C30.7757 4.76069 32.2776 5.07416 33.4917 5.36246C34.6758 5.64364 35.8232 5.29249 37.0202 5.42584C37.9426 5.5286 38.856 5.7095 39.703 5.95211C39.7252 5.95847 40.3541 6.26576 40.1696 6.1787C39.4247 5.82728 40.3101 5.35957 39.5135 5.28696C38.4847 5.1932 35.6105 5.49673 34.5853 5.42584C32.9605 5.31349 31.3436 5.28696 29.7154 5.28696C26.1381 5.28696 22.4211 5.81676 18.9112 6.50031C17.1442 6.84444 15.2758 7.13096 13.5528 7.66249C12.9769 7.84019 12.38 8.03679 11.8178 8.25455C11.1726 8.50447 10.5393 8.52057 9.88592 8.70773C8.47034 9.11323 6.40579 9.84475 5.4607 11.0028C5.23609 11.2781 4.02009 12.6649 4.37445 13.0202C4.60978 13.2562 5.68919 12.4963 5.86896 12.3916C7.50833 11.4372 9.58952 10.8963 11.4095 10.4255C11.946 10.2866 12.3448 9.52222 12.8832 9.40296M12.8832 9.40296C13.2822 9.31453 20.08 7.47623 20.4801 7.39742M12.8832 9.40296C13.2835 9.32275 20.0812 7.48388 20.4801 7.39742M12.8832 9.40296C12.7104 9.43749 12.5375 9.47136 12.3646 9.50441C11.5015 9.66927 14.0791 9.11912 14.938 8.93433C15.4918 8.81519 16.0488 8.69783 16.6088 8.58384M20.4801 7.39742C22.598 6.98025 18.3324 8.44631 20.4801 8.21678M20.4801 7.39742C21.3135 7.2168 15.8848 9.41626 16.7169 9.22669C16.727 9.22438 16.5986 8.58616 16.6088 8.58384M16.6088 8.58384C19.5036 7.92351 22.3957 7.16784 25.3339 6.7269C26.5886 6.5386 27.8495 6.37296 29.1102 6.22987C29.3519 6.20243 29.9081 6.06389 30.1601 6.1787C30.6585 6.40587 29.102 6.46664 28.5635 6.5661C27.7052 6.7246 26.8448 6.87184 25.99 7.04852C25.4273 7.16482 24.864 7.28071 24.3006 7.39742M16.6088 8.58384C19.1342 8.06973 21.7158 7.6246 24.3006 7.39742M20.4801 8.21678C21.6561 8.0911 22.9752 8.61911 24.1602 8.51769C25.4686 8.4057 26.7924 8.40757 28.1191 8.45275M20.4801 8.21678C19.9341 8.3401 19.3891 8.46683 18.8455 8.5981C17.7143 8.87131 16.5317 9.12277 15.4338 9.51909C15.118 9.63299 15.0558 9.71912 15.4702 9.68718C17.7684 9.50995 20.0582 9.15216 22.3303 8.77352C24.1559 8.46928 25.9852 8.17397 27.809 7.85082M20.4801 8.21678C21.75 7.92996 23.0255 7.66159 24.3006 7.39742M28.1191 8.45275C28.1245 8.45294 28.13 8.45313 28.1355 8.45331M28.1191 8.45275C28.062 8.46407 27.8662 7.83947 27.809 7.85082M28.1191 8.45275C28.9409 8.29015 29.6231 7.49445 30.4406 7.33465M27.809 7.85082C27.8717 7.83971 28.0729 8.46449 28.1355 8.45331M27.809 7.85082C25.8523 8.23881 23.8891 8.64383 21.9436 9.1037M24.3006 7.39742C26.0978 7.23947 27.8966 7.18687 29.6789 7.28972C29.9328 7.30438 30.1867 7.3187 30.4406 7.33465M28.1355 8.45331C29.0417 8.48442 29.9493 8.53559 30.8543 8.58432M28.1355 8.45331C28.9841 8.30201 29.6929 7.50849 30.538 7.34087M30.4406 7.33465C30.5172 7.31967 30.5938 7.3047 30.6703 7.28972C30.9897 7.22723 31.4265 7.07775 31.7639 7.07775C32.1071 7.07775 31.0943 7.22955 30.7578 7.29703C30.6846 7.31171 30.6114 7.32633 30.538 7.34087M30.4406 7.33465C30.4731 7.33669 30.5056 7.33876 30.538 7.34087M30.8543 8.58432C31.8747 8.63928 32.8917 8.69116 33.9 8.70773C33.9052 8.70782 33.7719 8.07199 33.7772 8.07206M30.8543 8.58432C31.0476 8.57897 31.2415 8.57616 31.4358 8.57616C31.5565 8.57616 29.9763 9.16611 31.3264 9.20477M30.8543 8.58432C28.1984 8.65791 25.6336 9.21324 23.0083 9.59949C22.6972 9.64527 22.2501 9.05587 21.9436 9.1037M30.538 7.34087C31.5316 7.40506 32.5216 7.49785 33.4917 7.73559C33.821 7.81631 31.3693 9.12236 31.3264 9.20477M33.7772 8.07206C34.5663 8.08305 36.2546 7.96355 36.7796 8.43729C36.9849 8.62258 37.9822 8.46652 38.2011 8.46652C38.5911 8.46652 42.7289 8.18877 40.1696 8.07182C40.293 7.63864 33.6938 9.27253 31.3264 9.20477M33.7772 8.07206C33.8248 8.04314 31.3109 9.23469 31.3264 9.20477M33.7772 8.07206C33.461 8.26424 32.5372 8.42738 32.3326 8.46652C31.6548 8.59612 30.9735 8.71707 30.29 8.83295M21.9436 9.1037C19.9878 9.40887 18.1122 9.76647 16.1774 10.3085C14.7937 10.6961 15.0863 11.7445 14.0267 12.6683C13.2352 13.3584 11.2526 13.6856 10.491 14.3798C9.93012 14.891 9.43789 15.1224 9.16411 15.8636C8.92059 16.5228 8.07989 16.6875 7.61859 17.15C7.12212 17.6478 5.97099 18.4657 5.97099 18.4657C5.97099 18.4657 9.88462 15.2496 11.3785 14.6506C13.9224 13.6303 16.7069 12.9194 19.4808 12.4136M21.9436 9.1037C20.1932 9.51752 18.5956 10.6115 16.8918 11.1418C16.3944 11.2965 14.936 11.551 15.4338 11.7046C15.7811 11.8117 16.4889 11.6005 16.8116 11.5438C19.2555 11.1134 21.7059 10.7106 24.1456 10.2573C26.4453 9.83007 28.8356 9.28066 31.1734 9.12437C31.3642 9.11161 30.7872 8.65195 30.29 8.83295M30.29 8.83295C29.8093 9.00791 29.2736 9.18731 29.1977 9.20477C26.5585 9.81235 23.9133 10.2965 21.3097 11.0541C21.0565 11.1276 20.8008 11.1989 20.5438 11.2698M30.29 8.83295C25.4489 9.65367 20.6299 10.8558 15.9805 12.4355C14.5749 12.9131 16.033 12.7041 16.5637 12.5963C17.9328 12.3184 19.1649 11.4555 20.5438 11.2698M19.4808 12.4136C20.7538 12.1814 21.0278 13.8413 22.2719 13.6854C22.5094 13.6557 22.7467 13.6303 22.984 13.6086M19.4808 12.4136C19.6392 12.3983 18.8672 14.2103 18.9914 14.1971C19.9839 14.0908 20.9738 13.9511 21.9585 13.7878C22.2507 13.7392 22.5977 13.6784 22.984 13.6086M19.4808 12.4136C19.2611 12.4347 18.1726 14.2632 18.656 14.0801C20.1479 13.515 21.6695 13.0351 23.1959 12.5723M22.984 13.6086C24.0244 13.5132 25.0641 13.4871 26.1102 13.4622M22.984 13.6086C26.6667 12.9431 33.9138 11.4671 31.1807 12.1797C29.4934 12.6195 27.8005 13.0362 26.1102 13.4622M23.1959 12.5723C23.7357 12.4086 24.4148 12.883 24.9548 12.7206C26.7267 12.1876 28.3875 11.0957 30.1578 10.5553M23.1959 12.5723C25.1269 12.2925 27.0598 12.0274 28.9936 11.785C29.9977 11.6591 30.97 11.7632 31.9608 11.6826C32.2988 11.6552 40.535 10.933 40.8476 10.7762C41.152 10.6236 39.0033 9.91075 38.7553 9.89182C38.4881 9.87152 30.4268 10.5656 30.1578 10.5553M23.1959 12.5723C20.6677 12.9387 18.2813 13.9663 15.7618 14.3651M26.1102 13.4622C26.1296 13.4617 26.1491 13.4613 26.1685 13.4608L26.2525 13.4588C27.7046 13.4242 29.1423 13.2142 30.5974 13.203C32.4159 13.189 34.3686 12.843 36.1672 13.1006C36.7199 13.1798 37.2316 13.203 37.7929 13.203C38.2526 13.203 40.8679 13.737 39.9801 13.4588C38.445 12.9779 34.8695 13.4973 33.3386 13.7C29.6 14.1951 25.8438 14.8903 22.1481 15.6443C21.5981 15.7565 21.0473 15.8745 20.4968 15.9992M26.1102 13.4622C23.6798 14.0747 21.2549 14.7066 18.8601 15.4543C18.1102 15.6884 17.3685 15.9387 16.6439 16.2437C16.2973 16.3895 16.519 16.3607 16.7824 16.3607C18.0484 16.3607 19.2673 16.1951 20.4968 15.9992M20.4968 15.9992C17.7988 16.6101 15.1076 17.3803 12.5468 18.4072C11.0189 19.02 9.67049 19.9031 8.13622 20.505C4.87043 21.7863 11.6159 19.6619 17.0849 18.2217M20.4968 15.9992C20.9668 15.9242 21.4384 15.8448 21.9147 15.7686C25.0953 15.2591 34.6068 13.6004 31.4722 14.3433C27.0741 15.3855 22.3878 15.7945 18.1384 17.3986C17.7969 17.5274 16.6557 18.0511 17.0849 18.2217M17.0849 18.2217C18.8184 17.7652 20.4141 17.3708 21.5065 17.1647C25.6913 16.3749 30.0463 16.1557 34.3008 16.3314C35.7727 16.3921 37.1134 16.6747 38.5583 16.9162C39.7042 17.1076 37.4646 17.4131 37.1805 17.4131C34.1105 17.4131 31.0415 17.6872 28.0313 18.3049C26.3898 18.6417 24.8012 19.0866 23.1892 19.538L23.1031 19.5621C22.5973 19.7038 22.0845 19.829 21.5704 19.9526M17.0849 18.2217C17.1705 18.2556 17.3186 18.2757 17.5479 18.2757C19.8402 18.2757 22.2112 17.7014 24.4809 17.4204C26.4016 17.1827 28.3156 16.9181 30.2475 16.7845C31.3297 16.7098 29.8075 17.2663 29.5331 17.3839C27.4914 18.2591 25.3075 18.8303 23.1906 19.489C22.6635 19.653 22.113 19.7913 21.5704 19.9526M21.5704 19.9526C20.4412 20.2242 19.3058 20.4879 18.2259 20.8997C16.4412 21.5802 14.591 22.4412 13.2029 23.7065C12.8877 23.9938 10.8051 24.454 11.4158 24.272C10.214 23.436 16.7396 22.5234 18.6997 21.9376C20.0686 21.5285 21.4542 21.1859 22.8508 20.8925M21.5704 19.9526C20.9385 20.1406 20.3174 20.3599 19.7568 20.6878C18.6682 21.3245 20.7081 21.0885 21.0327 21.0678C21.6392 21.0291 22.2452 20.9663 22.8508 20.8925M22.8508 20.8925C23.5158 20.7527 24.1833 20.6243 24.8527 20.505C27.2713 20.0743 29.7432 19.5375 32.2013 19.4159C34.2377 19.3152 36.5085 19.1652 38.5292 19.5475C41.0615 20.0266 33.4146 20.218 30.8891 20.7316C29.3285 21.049 26.9245 20.0339 25.3789 20.41M22.8508 20.8925C24.1072 20.7393 25.3619 20.5391 26.617 20.41C27.7006 20.2986 29.4868 19.7232 30.5756 20.0591C30.8519 20.1443 30.0758 20.3583 29.8028 20.4539C29.1796 20.6721 28.5514 20.8758 27.9292 21.0971C27.7154 21.1731 26.2057 20.0733 25.3789 20.41M25.3789 20.41C21.9058 21.255 15.1857 22.1398 12.0399 23.9061C11.634 24.134 15.446 25.9988 15.0328 26.2136C14.7975 26.3359 14.4025 26.3266 14.209 26.5206C14.1744 26.5552 12.2788 25.3945 12.3646 25.373L14.7193 26.4182C15.583 26.2018 16.4031 25.8257 17.2563 25.5704C18.7356 25.1277 20.2171 24.6859 21.7062 24.272M25.3789 20.41C23.7516 21.0725 22.3468 23.4408 21.7062 24.272M21.7062 24.272C23.9376 23.6519 26.1859 23.0944 28.4687 22.6905C31.083 22.2279 33.6915 22.1496 36.3349 22.1496C36.4904 22.1496 38.1183 22.3852 37.6106 22.4127C36.1657 22.4911 34.7225 22.8632 33.3094 23.151C29.7597 23.8739 26.2451 24.777 22.6835 25.4605M21.7062 24.272C21.5493 24.4755 21.4889 24.6674 21.5575 24.8395C21.696 25.1864 22.142 25.3669 22.6835 25.4605M22.6835 25.4605C22.6192 25.4728 22.555 25.4851 22.4907 25.4973C21.1887 25.7441 20.0182 26.1866 18.788 26.6518L18.7289 26.6741C18.209 26.8706 16.5986 27.2223 17.1542 27.2223C17.6304 27.2223 18.2948 26.8513 18.7435 26.7252C20.3366 26.2776 21.9316 25.8774 23.5494 25.546M22.6835 25.4605C22.957 25.5078 23.2547 25.5329 23.5494 25.546M23.5494 25.546C23.8422 25.4861 24.1356 25.4283 24.4299 25.373C26.5703 24.9707 28.7074 24.5282 30.8599 24.1962C31.6999 24.0667 32.84 23.747 33.6885 23.9404C34.1648 24.049 36.8174 24.1825 36.771 24.1962C35.6489 24.5286 30.7971 25.0107 29.6497 25.2488C28.8487 25.4149 28.0424 25.5721 27.2341 25.7278M23.5494 25.546C24.2169 25.5758 24.8691 25.5443 25.1881 25.5704C25.8702 25.626 26.5521 25.6774 27.2341 25.7278M27.2341 25.7278C24.987 26.1605 22.725 26.5813 20.5223 27.1492C20.4677 27.1632 19.9568 27.3671 20.012 27.5147C20.0668 27.6611 22.2203 27.1007 22.3448 27.0688C24.3058 26.5664 26.4399 26.0516 28.5296 25.8235M27.2341 25.7278C27.6659 25.7597 28.0978 25.7913 28.5296 25.8235M28.5296 25.8235C29.2365 25.7463 29.9383 25.7019 30.6266 25.7019C31.1049 25.7019 30.1575 25.9181 30.1455 25.9212C30.0652 25.9419 29.985 25.9631 29.9051 25.9847M28.5296 25.8235C28.7037 25.8365 28.8778 25.8495 29.0519 25.8627C29.2358 25.8767 29.589 25.8976 29.9051 25.9847M29.9051 25.9847C28.7539 26.2954 27.6366 26.6937 26.5076 27.0761C25.313 27.4808 24.0963 27.882 22.8843 28.231C22.3643 28.3807 20.8342 28.8303 21.3753 28.8303C21.8218 28.8303 22.5052 28.4611 22.9864 28.3991C24.311 28.2284 25.6044 27.9122 26.9232 27.7047C27.1241 27.6731 28.6705 27.2261 28.8478 27.4928C29.0251 27.7595 27.1489 28.1655 27.0106 28.2017C25.5454 28.5854 21.1168 29.5463 22.6219 29.3785C23.5506 29.2751 24.4755 28.9606 25.3776 28.728C26.6138 28.4093 27.9041 28.267 29.0738 27.734C29.4889 27.5447 36.771 26.0536 36.771 25.4605C36.771 25.143 30.2434 26.0779 29.9051 25.9847ZM30.1578 10.5553C30.4511 10.4659 30.7435 10.3741 31.0349 10.2792C32.7696 9.7145 29.1356 10.4088 28.9499 10.44C28.7307 10.4769 28.5118 10.5147 28.2932 10.5535M30.1578 10.5553C29.5394 10.532 28.9169 10.5338 28.2932 10.5535M28.2932 10.5535C24.9803 11.1406 21.8657 12.5708 18.5759 13.2761C18.534 13.2851 15.403 14.0582 16.6512 13.3565C17.8933 12.6582 19.1675 11.6498 20.5438 11.2698M28.2932 10.5535C26.5467 10.6085 24.7899 10.8032 23.0812 10.9737C22.2314 11.0584 21.3861 11.1564 20.5438 11.2698M40.5632 7.68443C39.5403 7.17162 32.5631 7.14186 31.465 6.74151C30.7449 6.47897 29.8781 6.59474 29.1467 6.76344C28.0315 7.02072 26.9198 7.2819 25.8005 7.52362C23.0298 8.12195 20.1685 8.2879 17.4167 8.96355C15.3625 9.46795 13.3814 10.2238 11.5544 11.2603M11.5544 11.2603C10.6618 11.7666 9.80606 12.34 8.9965 12.9837C8.85479 13.0964 8.70312 13.2226 8.54712 13.3466M11.5544 11.2603C11.6249 11.2395 11.6957 11.2195 11.7668 11.2002C12.5698 10.9826 13.3272 10.641 14.1652 10.557C14.6686 10.5065 13.6541 10.8365 13.5748 10.8713C11.8573 11.6246 10.2096 12.4799 8.54712 13.3466M11.5544 11.2603C9.87478 11.7547 8.35799 12.6596 6.77758 13.3946M8.54712 13.3466C8.33091 13.5186 8.10635 13.6867 7.88839 13.8096C7.87684 13.8162 8.33787 13.4557 8.48618 13.3784C8.5065 13.3678 8.52681 13.3572 8.54712 13.3466ZM6.77758 13.3946C6.25827 13.6361 5.73209 13.8593 5.19099 14.0435C4.97617 14.1167 4.45043 14.3563 4.95042 14.0947C5.55855 13.7766 6.12176 13.4072 6.70736 13.0495C7.22423 12.7338 7.73861 12.3519 8.31122 12.1431C8.73285 11.9894 7.58974 12.679 7.24684 12.9691C7.08476 13.1062 6.92967 13.2491 6.77758 13.3946ZM6.77758 13.3946C6.51392 13.647 6.25929 13.9075 5.99292 14.1605C5.49544 14.633 4.75038 14.8823 4.30159 15.3885C3.99337 15.7361 5.1652 15.0483 5.59924 14.8841C6.52057 14.5355 7.35544 14.0073 8.27477 13.6488C8.37985 13.6079 9.90644 12.9531 9.92966 12.9764C9.93959 12.9863 8.55926 14.0447 8.4716 14.102C7.70808 14.6019 6.90106 15.0035 6.12415 15.4762C5.73302 15.7141 5.39196 16.0027 5.03061 16.2802C4.92867 16.3585 4.57014 16.4992 4.69525 16.4702C5.43649 16.2987 6.16822 15.8045 6.88233 15.5273C8.36782 14.9508 9.80198 14.1213 11.3658 13.7804C13.6456 13.2835 15.9694 13.1459 18.2551 12.6548" stroke="#D9315A" stroke-width="3.28572" stroke-linecap="round"/>
<path d="M25.7375 6.39893C25.0383 8.38398 23.8361 11.7863 23.1057 13.8958C22.8328 14.6839 22.3688 15.7975 22.1872 16.7462C22.1579 16.8997 22.049 17.2971 22.0979 17.4733C22.1183 17.5467 23.1871 17.0825 23.2133 17.0722C23.8553 16.8176 24.5112 16.6748 25.1742 16.5054C25.9529 16.3065 26.7316 16.1226 27.5175 15.9552C27.6642 15.9239 28.3197 15.6317 28.4848 15.9233C28.8104 16.4982 28.605 17.404 28.4457 17.8853C28.0561 19.0633 27.4234 20.0682 26.9212 21.1372C26.4243 22.195 26.1695 23.4136 25.7245 24.508" stroke="#381067" stroke-width="3.20754" stroke-linecap="round"/>
</g>
<defs>
<clipPath id="clip0_182_248">
<rect width="52" height="48" fill="white"/>
</clipPath>
</defs>
</svg>
