<svg width="48" height="48" viewBox="0 0 48 48" fill="none" xmlns="http://www.w3.org/2000/svg">
<g clip-path="url(#clip0_182_278)">
<path d="M23.5583 27.6549C23.5642 27.6549 23.3139 27.1548 23.0862 26.9698C22.8947 26.814 22.8137 25.9299 22.7564 25.6679C22.6772 25.306 22.4791 24.8761 22.4791 24.5032C22.479 24.0508 22.2316 23.6556 22.2092 23.27C22.1574 22.3785 22.0645 21.601 22.2163 20.674C22.3171 20.0591 22.2053 18.7863 22.5831 18.3064C22.7249 18.1263 22.7477 17.281 22.7477 17.0351C22.7477 16.5516 23.0173 16.0095 23.0172 15.5278C23.0171 14.9844 23.5297 14.5797 23.5564 14.089C23.5772 13.7071 23.95 12.9386 24.1255 12.5816C24.2489 12.3309 24.4444 12.2539 24.5075 11.965C24.5695 11.6812 24.6947 11.3408 24.9045 11.1428C25.3469 10.7254 25.5556 9.89459 26.0504 9.55933C26.4113 9.31481 26.5838 8.80202 26.9418 8.53924C27.3089 8.26984 27.5848 8.11678 27.8033 7.71705C27.9449 7.45772 28.293 6.97052 28.6121 6.82636C29.4308 6.45659 29.5327 5.2871 30.2975 4.80137C31.0463 4.32573 31.5954 3.64224 32.3874 3.19508C33.1961 2.7385 33.9208 2.43402 34.7471 2.06077C35.5193 1.712 36.6039 1.89329 37.4441 1.89329C37.9134 1.89329 38.2805 1.93751 38.7251 2.03793C39.0365 2.10823 38.1009 2.27025 37.9161 2.31199C37.4627 2.41438 37.1736 2.891 36.77 3.0961C36.3369 3.31618 36.0908 3.82976 35.6913 4.05532C35.2364 4.31217 35.0071 5.00526 34.4853 5.18201C34.3006 5.24457 34.0536 5.76543 33.8861 5.93567C33.6819 6.14327 33.4964 6.49935 33.3393 6.75023C33.021 7.2586 32.6571 7.57239 32.4556 8.13576C32.2812 8.62324 31.764 9.13295 31.6541 9.63548C31.553 10.0986 31.2912 10.6022 31.2424 11.0743C31.1849 11.6298 31.2058 12.3631 31.0778 12.9166C30.9317 13.5475 30.9731 14.188 30.9732 14.835C30.9732 15.383 30.5687 15.6758 30.5688 16.2129C30.569 17.281 30.4449 18.5759 30.1348 19.6006C30.0107 20.0104 29.8952 20.5873 29.8952 21.009C29.8953 21.2762 29.7188 21.494 29.5657 21.6941C29.4149 21.8911 29.5419 22.1626 29.4234 22.3792C29.2346 22.7248 29.1942 23.2117 28.8168 23.4374C28.4419 23.6615 28.0718 24.088 27.7681 24.3966C27.4634 24.7063 27.082 24.7823 26.7269 24.9828C26.3083 25.2191 25.8715 25.8916 25.3785 26.0029C24.9472 26.1003 24.656 26.5488 24.2324 26.7262C23.8973 26.8664 24.6364 24.5884 24.6965 24.3662C25.2593 22.2887 26.1856 20.2799 26.6585 18.1694C26.9693 16.782 27.1105 15.2769 27.6318 13.9519C27.6865 13.8129 28.0859 11.7746 27.8038 11.7746M24.5015 22.1737C24.4985 22.3857 24.6545 23.3277 24.4717 23.5136C24.3424 23.645 24.1345 22.7136 24.127 22.6609M28.68 9.42992C29.6622 8.43162 29.0533 9.7193 28.8674 10.3283C28.5253 11.4489 28.2495 12.5196 28.0138 13.6778C27.6904 15.2677 27.8909 16.9944 27.8047 18.6109C27.7424 19.7792 27.7376 20.9435 27.7378 22.1128C27.7379 22.6418 27.7789 21.0544 27.8425 20.5294M29.4896 13.0992C29.6585 12.1829 29.9628 11.318 30.096 10.3967C30.1761 9.84308 30.1124 9.27447 30.3655 8.76C30.5667 8.35104 30.7184 7.92472 30.9047 7.5039C31.1012 7.06005 31.5211 6.57093 31.6462 6.12598C31.752 5.74953 33.0971 4.30964 32.5601 5.21245C32.1558 5.89191 31.5443 6.4336 31.1069 7.10042C30.8177 7.54144 30.0713 8.32687 30.0284 8.85136C30.0187 8.96899 30.1838 8.53891 30.328 8.34892C30.7289 7.82064 31.0781 7.23754 31.4514 6.68933C31.8782 6.06282 32.3859 5.52854 32.9645 5.04498C33.3252 4.74363 33.6296 4.23602 34.0732 4.08576" stroke="#D9315A" stroke-width="2.70201" stroke-linecap="round"/>
<path d="M26.2539 24.0916L27.4673 22.4473" stroke="#D9315A" stroke-width="2.70201" stroke-linecap="round"/>
<path d="M32.7266 22.4479C33.2662 21.7727 33.7429 21.0959 34.2396 20.4229C34.3848 20.226 34.391 19.9342 34.5091 19.7073C34.8123 19.1252 34.7772 18.5527 34.9884 17.9564C35.1507 17.4977 35.4227 16.9385 35.4227 16.4186C35.4225 15.7323 35.5252 14.9844 35.7969 14.3631C36.2037 13.4327 35.6874 12.1418 36.3359 11.3181C36.6497 10.9193 36.4932 10.379 36.8751 9.94776C37.2251 9.5525 37.552 8.69155 37.5791 8.19679C37.6065 7.69396 38.1834 7.03443 38.358 6.52198C38.4876 6.14119 38.6575 5.86742 38.6574 5.45619C38.6574 5.22838 38.6787 4.84682 38.8222 4.66447C39.0161 4.41807 39.0547 3.28547 39.4962 3.64436C40.0166 4.06728 40.4846 4.08435 40.7849 4.77105C40.9822 5.22194 40.9711 5.83448 41.1148 6.30882C41.2974 6.91156 41.3447 7.48872 41.5945 8.05976C42.037 9.07107 41.8945 10.2499 41.8947 11.3484C41.8947 11.6517 41.911 11.8936 41.7899 12.1706C41.6631 12.4606 41.9881 12.6094 41.79 12.8863C41.5208 13.2624 41.895 14.095 41.8951 14.5002C41.8952 15.5501 41.5218 16.5874 41.1164 17.5149C40.8015 18.2349 40.5474 19.5765 39.7383 20.0118C39.2674 20.2652 38.6601 20.069 38.1801 20.2858C37.6664 20.5178 37.0014 20.3823 36.502 20.6361C36.3152 20.731 35.4339 21.2592 35.4233 21.0776C35.3991 20.6602 35.7353 20.5081 35.8576 20.1489C36.0485 19.5883 36.7172 19.0445 37.101 18.611C38.0813 17.5041 38.6719 17.0094 39.2283 15.6269C39.7202 14.4046 38.6215 11.7626 38.6582 10.4515C38.6684 10.0838 40.3554 9.06401 39.6019 9.01897C39.372 9.00523 38.9946 8.80527 39.2272 8.50131C39.4711 8.18259 39.0385 9.28591 38.9277 9.6737C38.6081 10.793 38.0067 11.7648 37.6096 12.8558C37.2812 13.7587 37.035 14.7023 36.771 15.6269C36.5827 16.2862 36.5015 16.833 36.5016 17.5149C36.5017 17.989 36.509 17.7963 36.2319 17.5149" stroke="#D9315A" stroke-width="2.70201" stroke-linecap="round"/>
<path d="M18.7013 21.0772C18.7014 21.5189 18.3681 24.8545 18.8367 24.9139C18.9972 24.9343 19.2368 25.7647 19.3762 25.9417C19.5968 26.2218 19.6362 26.8784 19.9757 26.977C20.7742 27.2089 18.3189 26.8324 17.4884 26.8324C16.5543 26.8324 15.4812 27.1064 14.5893 27.1064C13.6357 27.1064 12.6742 27.2435 11.7575 27.2435C11.2778 27.2435 10.9507 27.1332 10.4764 27.1064C9.98576 27.0787 9.44539 27.2042 8.99307 26.9999C8.17078 26.6285 7.07779 26.7951 6.23612 26.5507C6.08996 26.5083 5.83449 26.3619 5.7566 26.2234C5.60983 25.9625 5.28744 26.0901 5.08233 25.9797C4.74103 25.7962 4.35985 25.5077 4.00345 25.2946C2.90917 24.6405 2.69316 23.9919 3.56863 23.1021C4.2522 22.4074 5.62823 21.7537 6.56504 21.6176C7.52946 21.4777 8.46201 20.9853 9.4417 20.9401C10.3395 20.8986 11.2963 20.775 12.1686 20.5595C13.0498 20.3417 14.1575 20.529 15.0603 20.529C15.3247 20.529 15.7661 20.4385 16.0042 20.5595C16.2024 20.6601 16.442 21.0183 16.6186 21.0695C16.7993 21.1219 17.6375 21.8284 17.5927 21.8689C17.5158 21.9384 16.1759 21.8406 15.9745 21.8689C14.8047 22.0335 13.6101 22.0475 12.446 22.2495C10.9795 22.504 9.6277 23.3494 8.24347 23.8634C7.98017 23.9612 6.04126 24.5695 6.19095 25.051C6.31407 25.447 8.11838 24.7012 8.33348 24.6399C9.89613 24.1953 11.5697 23.9896 13.1729 23.7569C14.2834 23.5956 15.4089 23.4912 16.514 23.3C16.8736 23.2379 17.4589 23.1731 17.8176 23.2772C18.1797 23.3824 17.0821 23.8665 17.0536 23.8786C16.6164 24.0646 16.2782 24.4709 15.8625 24.7085C15.1961 25.0894 14.3119 24.8839 13.5776 25.0815C13.3154 25.152 12.3482 25.8408 12.2292 25.5991" stroke="#D9315A" stroke-width="2.70201" stroke-linecap="round"/>
<path d="M1.84619 26.9692C2.19955 27.418 2.25402 28.1559 2.45325 28.6821C2.69477 29.3199 3.17803 29.8421 3.44989 30.4635C3.60289 30.8132 3.74691 31.1583 4.07182 31.4151C4.30691 31.6009 4.60171 31.6628 4.68621 31.9632C4.73203 32.1261 5.66475 33.0884 5.84008 33.128C6.4241 33.2598 6.6859 34.1322 7.24116 34.2318C7.61156 34.2982 8.1939 34.8945 8.48489 35.1605C8.89855 35.5388 9.55278 35.6431 9.93835 36.0132C10.4028 36.4588 10.7361 36.9315 11.4218 36.9724C11.5726 36.9814 11.8559 37.3544 12.0287 37.452C12.2016 37.5496 12.5341 37.5987 12.7105 37.65C13.3108 37.8243 13.486 38.0687 14.1863 38.0687C14.6547 38.0687 15.1679 38.1814 15.535 38.4797C15.8836 38.7632 16.2795 39.1335 16.4714 38.5482C16.8022 37.5393 15.4027 35.6545 16.4783 34.7799C16.6076 34.6749 16.5214 34.4611 16.5532 34.3155C16.5746 34.2174 16.8151 34.0571 16.8827 33.9653C17.0872 33.6883 17.2883 33.4087 17.5569 33.1965C17.9676 32.8719 18.2642 32.4207 18.6505 32.1155C18.756 32.032 19.9775 31.2369 19.6467 31.2171C19.0566 31.1819 18.1621 31.3134 17.6241 31.5217C16.2731 32.0447 14.4216 32.2827 13.0093 32.1764C11.6333 32.0727 10.1723 31.8646 8.91884 31.2856C8.38795 31.0405 7.59513 30.5283 7.03833 30.4026C6.66567 30.3184 5.34541 29.9331 5.21778 29.6414C5.0145 29.1767 4.44482 29.0541 4.1089 28.7811C3.39393 28.1999 5.39942 30.1108 6.1319 30.669C7.20594 31.4875 8.56915 31.7949 9.69816 32.4505C10.0839 32.6744 10.3701 32.9362 10.7471 33.166C11.1111 33.388 11.3391 34.0432 11.7211 34.2014C12.8963 34.6878 14.5791 35.6489 15.1672 33.9882C15.1985 33.8997 15.1249 33.2698 14.9574 33.4401C14.761 33.6398 14.8093 34.0785 14.6579 34.3232C14.3685 34.7903 14.3073 35.3869 14.1486 35.9067C13.9612 36.5205 14.2683 36.2422 14.3883 35.8762" stroke="#D9315A" stroke-width="2.70201" stroke-linecap="round"/>
<path d="M43.9196 26.0111C43.1278 26.0111 42.568 25.463 41.762 25.463C40.9464 25.463 40.3349 25.3259 39.5369 25.3259C39.1769 25.3259 38.7327 25.0649 38.3907 25.2194C38.195 25.3078 37.6082 25.2379 37.4168 25.0823C37.1049 24.8288 35.7858 25.463 35.3566 25.463C34.5982 25.463 33.8712 26.1039 33.1318 26.1481C32.7544 26.1707 31.4793 26.6029 31.244 26.9018C30.8127 27.4497 29.9854 27.488 29.521 27.96C29.2743 28.2107 29.023 28.2005 28.7495 28.4167C28.4242 28.6738 28.084 28.6623 27.8056 28.8887C27.2658 29.3276 26.3356 29.5752 25.9854 30.1981C25.582 30.9156 24.5224 31.164 24.0678 31.9034C23.9527 32.0905 23.696 32.0956 23.5883 32.3144C23.5074 32.479 23.5322 32.6189 23.3487 32.7255C22.9662 32.9476 22.8446 33.4662 22.5548 33.7609C22.0789 34.2445 21.6509 34.8267 21.3713 35.4662C21.0473 36.2071 21.0153 36.9593 20.5326 37.5901C20.0441 38.2285 19.7836 39.0477 19.7837 39.851C19.7838 40.5071 20.1473 41.1094 20.3158 41.7086C20.3921 41.9797 20.6345 42.1465 20.8329 42.3481C20.8438 42.3592 21.4257 41.8764 21.537 41.7695C21.6777 41.6345 21.8242 41.5086 21.9715 41.3889C22.0866 41.2953 22.4244 41.4565 22.4734 41.2823C22.5782 40.9094 23.004 40.8508 23.2599 40.6428C23.579 40.3834 23.6206 40.3717 24.024 40.2545C24.1716 40.2117 24.4956 39.7034 24.7131 39.577C26.0822 38.7819 27.2751 37.5671 28.3386 36.4862C28.8489 35.9677 29.0396 35.2754 29.4621 34.7505C29.9751 34.1132 30.5072 33.3897 30.9077 32.657C31.0978 32.3092 31.1572 32.0701 31.4395 31.7663C31.7488 31.4334 32.1108 31.2014 32.3533 30.8071C32.5425 30.4994 32.9176 30.2688 33.1997 30.0458C33.6454 29.6936 34.115 29.2842 34.6155 28.9572C35.2898 28.5167 36.1877 27.8743 36.9676 27.6478C37.2665 27.561 37.6786 27.2086 37.9864 27.0769C38.3407 26.9253 38.6733 26.7443 38.8254 26.5897C38.9925 26.4199 39.6552 26.3781 39.5296 26.4146C38.852 26.6113 38.2468 26.8994 37.5819 27.1758C35.5186 28.0336 33.6006 28.9812 31.8138 30.259C30.463 31.2251 28.1296 33.6412 26.8822 34.7505C25.5003 35.9794 24.9886 35.2868 23.8587 36.7755C23.5444 37.1896 22.5649 37.6737 22.4879 38.2219C22.4291 38.6402 21.9544 39.0051 22.2782 38.6102C22.4558 38.3936 22.5956 37.9698 22.7501 37.7119C23.1506 37.043 23.6562 36.4706 24.1282 35.8467C24.9898 34.7085 25.8418 33.7058 26.8819 32.7255C27.6599 31.9922 28.4725 31.1575 29.2218 30.3961" stroke="#D9315A" stroke-width="2.70201" stroke-linecap="round"/>
<path d="M44.7278 27.6549C45.4335 27.0173 46.1516 30.7852 46.1517 31.3547C46.1517 31.6904 45.9836 32.1533 45.8372 32.451C45.6674 32.7962 45.6609 33.2917 45.4628 33.6081C44.9948 34.3555 44.6694 35.2399 44.1296 35.9453C42.9646 37.4676 41.7005 38.6587 40.3095 40.0181C39.7858 40.5298 39.2231 41.1498 38.5866 41.5026C37.7632 41.9589 37.1605 42.6707 36.2944 43.0708C35.4266 43.4717 34.7713 44.2511 33.8374 44.6162C32.9675 44.9562 32.2367 45.4352 31.3503 45.7124C30.8896 45.8565 30.412 45.653 30.0019 45.9865C29.6421 46.279 29.2281 46.0322 28.8782 46.0322C28.0651 46.0322 27.2891 46.1539 26.4584 46.1539C26.1073 46.1539 25.8456 45.8252 25.5145 45.7505C25.2082 45.6813 24.8006 45.7929 24.5331 45.5754C24.0607 45.1915 23.3451 45.3274 22.9147 44.8903C22.77 44.7432 24.2507 44.3355 24.5703 44.2355C25.7798 43.8573 26.99 43.4476 28.1361 42.8652C28.5893 42.635 28.9674 42.0777 29.432 41.906C29.9032 41.7319 30.3716 41.3049 30.7054 40.9468C31.3708 40.233 32.1513 39.7344 32.8103 39.0132C34.139 37.5589 35.3388 36.1 36.3681 34.3999C36.5782 34.0529 36.8538 33.6697 37.0122 33.3036C37.0602 33.1927 37.5463 32.523 37.6639 32.4434C38.0043 32.2127 38.5367 31.5548 38.9298 31.4918C39.2111 31.4467 40.0519 30.9382 40.2707 30.7381C40.8191 30.2365 41.5384 29.6989 42.1659 29.3298C42.5785 29.087 44.1744 28.1671 43.3495 29.3602C41.3148 32.3033 37.8348 34.1206 36.3087 37.445C36.1874 37.7091 36.0818 38.0343 35.9941 38.3128C35.9182 38.554 36.5918 37.8423 36.6683 37.7647C38.2779 36.1287 40.0557 34.6501 41.5371 32.8849C41.6849 32.7088 42.7396 31.221 42.4884 31.7887C41.6556 33.6698 40.3263 35.3306 39.1253 36.9729C39.0747 37.0423 38.4332 38.0539 38.6011 38.0539C38.9115 38.0539 39.5197 37.1539 39.7547 36.9654C41.4002 35.6451 42.6449 33.9768 43.8294 32.2378C43.9724 32.0278 43.7479 31.9803 43.5821 32.0551C43.2454 32.2072 43.0653 32.8317 42.9456 33.1362C42.2588 34.8813 41.452 36.2513 40.1967 37.6505C37.7401 40.3889 34.2234 41.6816 31.4475 43.9691C30.7814 44.518 30.0098 44.9942 29.1553 45.1871C28.9985 45.2226 28.8216 45.5092 28.8482 45.4384C29.0045 45.021 29.5808 44.552 29.8968 44.266C30.6375 43.5953 31.256 42.8133 32.0466 42.1953C32.7586 41.6387 33.6098 41.1818 34.2564 40.551C34.3325 40.4767 34.9525 40.0286 34.8555 39.881C34.8489 39.8709 34.5513 40.1009 34.4811 40.1247" stroke="#D9315A" stroke-width="2.70201" stroke-linecap="round"/>
<path d="M24.5403 20.3291C24.3771 18.9766 24.1645 17.5924 24.694 16.2829C25.2063 15.0161 25.8718 13.6684 26.9538 12.8491" stroke="#381067" stroke-width="2.70201" stroke-linecap="round"/>
<path d="M24.9756 45.443C27.1441 45.6286 30.0837 46.3633 32.1056 45.1978" stroke="#381067" stroke-width="2.70201" stroke-linecap="round"/>
<path d="M10.8269 35.3093C9.93742 34.797 9.07704 34.2671 8.23047 33.7002" stroke="#381067" stroke-width="2.70201" stroke-linecap="round"/>
</g>
<defs>
<clipPath id="clip0_182_278">
<rect width="48" height="48" fill="white"/>
</clipPath>
</defs>
</svg>
