<svg width="192" height="108" viewBox="0 0 192 108" fill="none" xmlns="http://www.w3.org/2000/svg">
<path d="M98.9185 5.12689C103.085 0.988139 109.272 -0.795862 115.197 0.331628C119.591 1.16802 122.346 3.32251 123.203 4.02014C123.401 4.18157 123.587 4.34264 123.763 4.49856C126.566 5.78104 128.544 7.58592 129.887 9.24454C132.538 5.5448 136.327 3.03334 140.457 1.72311C147.626 -0.55111 154.511 1.14742 158.196 2.27391L175.531 7.57319C177.131 8.06213 178.799 8.6077 180.259 9.1889C180.942 9.46054 182.06 9.92716 183.251 10.591C183.839 10.919 184.836 11.5098 185.922 12.3823C186.763 13.0585 189.074 15.0015 190.599 18.2905C192.553 22.5092 192.845 28.4307 188.973 33.6656C186.86 36.5222 184.236 38.12 182.418 38.9749L184.248 41.4375C185.175 42.6864 186.379 44.3484 187.237 45.8812C187.474 46.3054 187.896 47.089 188.286 48.0751C188.393 48.3488 189.766 51.4937 189.265 55.5441C188.963 57.9758 187.744 62.4682 183.165 66.0143C182.642 66.4198 182.111 66.7818 181.58 67.1079L186.194 73.4463C187.357 75.0434 188.444 76.5683 189.146 77.6754C189.323 77.9544 189.658 78.4929 189.997 79.1388C190.152 79.4342 190.489 80.0915 190.813 80.9469C190.974 81.3746 191.239 82.1292 191.449 83.0926C191.615 83.85 192.014 85.8806 191.627 88.4575C191.227 91.1096 189.512 96.7392 183.042 100.149C177.141 103.257 171.596 102.161 169.689 101.669C166.002 100.715 163.595 98.8169 163.506 98.7518C162.683 98.1489 162.021 97.5481 161.645 97.1898L155.315 96.2535L150.44 100.886C149.653 101.634 148.786 102.423 147.894 103.151C147.248 103.678 145.638 104.974 143.484 106.028C142.573 106.473 139.836 107.764 136.044 107.973C131.135 108.243 124.284 106.521 120.136 100.478C118.892 98.666 118.201 96.8736 117.826 95.3059C115.312 94.5735 113.265 93.4391 111.715 92.3548C111.237 93.0114 110.673 93.6801 110.008 94.3374C106.397 97.9043 101.505 99.5415 96.7884 99.422C96.6777 99.6008 96.5625 99.7825 96.439 99.9642C96.0618 100.521 92.9529 105.373 85.989 107.026C76.078 109.379 69.6442 103.481 67.743 101.167C65.896 98.9199 65.1694 96.7742 64.9782 96.2092C64.9405 96.0983 64.9044 95.9903 64.8713 95.8852C64.1718 96.1498 63.3586 96.4123 62.4491 96.6219C61.0915 96.9352 57.902 97.4623 54.1983 96.6834L50.6761 99.1052C47.6018 101.217 40.0227 105.446 30.6591 102.468C26.5978 101.176 23.699 98.9843 21.6374 96.6884C20.1504 96.4037 15.912 95.5426 12.6669 92.7811C10.5925 91.0152 8.24938 89.7399 7.28486 86.5429C6.75479 84.7855 7.03864 81.896 7.10565 80.3947C6.40692 79.0501 5.86406 77.5059 5.5561 75.7329C4.74744 71.0724 6.32862 67.4519 7.28486 65.7225C8.08072 64.282 8.97973 63.1756 9.66114 62.431C8.78999 60.512 6.48523 56.486 6.19008 55.0727L3.12034 45.4171C2.34632 41.7074 1.92392 38.5774 1.45936 37.192V31.366C1.06406 30.1856 0.490317 28.209 0.400717 25.8488C0.326176 23.8642 -1.44851 14.7092 3.12034 10.0132C8.35704 4.63138 16.5144 5.1364 20.0231 5.48036C23.2502 5.7967 27.9237 8.33477 29.1992 8.9091L33.2365 5.77453C34.46 5.01167 37.1849 3.71381 40.2102 2.8609C41.9209 2.37855 50.6023 1.14313 57.3005 5.59844C59.1271 4.33191 62.1132 2.65849 66.1415 2.03538C71.4354 1.21637 76.7369 2.49999 80.8728 5.48036L81.2688 5.77453L85.3874 8.9091C86.5093 9.76273 87.5318 10.7123 88.4647 11.709C88.7267 11.3731 88.9962 11.0534 89.2718 10.7515C93.023 6.64153 97.8546 5.5335 98.4231 5.38545C98.5285 5.35791 98.6354 5.33259 98.7416 5.30677C98.7995 5.24691 98.8583 5.18654 98.9185 5.12689Z" fill="#381067"/>
<path d="M136.988 28.096C136.988 28.4219 136.95 28.7478 136.996 29.0736C137.065 29.4993 136.523 29.7519 136.645 30.2175C136.744 30.5699 136.667 30.9557 136.66 31.3281C136.66 31.368 136.63 31.4279 136.599 31.4412C136.095 31.634 136.569 32.1793 136.148 32.3988C136.079 32.7446 135.667 32.9707 135.69 33.3498C135.69 33.383 135.621 33.4163 135.583 33.4495C135.247 33.6756 135.056 33.9815 134.896 34.314C134.842 34.4338 134.682 34.5136 134.567 34.6133C134.079 35.0389 133.59 35.4712 133.093 35.8902C133.024 35.9434 132.902 35.9965 132.826 35.9832C132.467 35.9235 132.238 36.0697 132.001 36.2826C131.719 36.5286 130.466 37.0539 129.992 37.0872C129.664 37.1138 129.542 37.4862 129.168 37.3865C128.862 37.3001 128.687 37.4995 128.503 37.6592C127.9 37.4729 127.487 38.1313 126.877 37.9451C126.785 37.9185 126.602 37.9252 126.579 37.9651C126.335 38.3773 125.769 38.0781 125.472 38.3508C125.402 38.4106 125.311 38.4838 125.219 38.4904C124.586 38.517 123.959 38.5303 123.325 38.5503C122.775 38.9826 122.119 38.7099 121.507 38.7631C120.988 38.8096 120.667 39.0623 120.667 39.5345C120.667 41.1572 120.683 42.7865 120.652 44.4092C120.645 44.8547 120.813 45.1673 121.148 45.4932C121.469 45.8057 121.568 46.2646 121.844 46.6237C122.042 46.8764 121.882 47.1624 121.943 47.4284C122.012 47.7343 121.721 47.9205 121.645 48.1533C121.546 48.4924 121.08 48.7318 121.294 49.1441C121.087 49.3503 120.744 49.5299 120.698 49.7626C120.63 50.122 120.484 50.2214 120.102 50.2014C119.972 50.195 119.828 50.2815 119.69 50.3344C119.224 50.5139 119.224 50.5211 118.713 50.3144C118.621 50.2751 118.529 50.1885 118.453 50.2014C117.865 50.3015 117.613 49.8956 117.292 49.6163C117.2 49.5365 117.124 49.3703 117.146 49.2572C117.231 48.8648 117.017 48.5656 116.818 48.253C116.696 48.0668 116.558 47.874 116.505 47.6678C116.451 47.4483 116.505 47.2023 116.475 46.9762C116.475 46.923 116.307 46.8365 116.23 46.8498C116.093 46.8698 115.872 46.9429 115.863 47.0094C115.826 47.3751 115.887 47.7542 115.841 48.12C115.749 48.7784 116.147 49.5032 115.528 50.0948C115.528 50.3745 115.551 50.6534 115.528 50.9331C115.497 51.2792 115.711 51.6848 115.26 51.9508C115.245 52.2698 115.214 52.5888 115.214 52.9085C115.214 53.1875 115.184 53.4135 114.947 53.6595C114.794 53.8262 114.779 54.1781 115.085 54.3976C115.153 54.4441 115.214 54.5571 115.207 54.6237C115.146 55.0363 114.703 55.1894 114.42 55.4419C114.313 55.5349 113.97 55.5349 113.817 55.4619C113.504 55.3024 113.267 54.9698 112.916 55.3954C112.84 55.4884 112.786 55.4683 112.687 55.3689C112.404 55.0964 112.129 54.7967 111.618 54.9169C111.557 54.9298 111.388 54.8168 111.396 54.7767C111.441 54.2982 111.274 53.8126 111.679 53.3405C111.953 53.0144 112.114 52.5559 112.045 52.0767C111.992 51.6712 112.06 51.2521 112.075 50.8401C112.541 50.5211 112.328 50.0683 112.328 49.6828C112.328 49.3437 111.885 49.0976 112.007 48.6787C112.091 48.3728 112.075 48.0203 112.007 47.7077C111.931 47.3685 111.541 47.1025 111.701 46.7035C111.319 46.4907 111.373 46.1648 111.38 45.8456C111.388 45.4466 110.923 45.1607 111.045 44.7018C111.136 44.3493 111.075 43.9636 111.06 43.5911C111.045 43.2254 110.739 42.9594 110.556 42.6601C110.411 42.4274 110.335 42.1348 110.441 42.0217C110.953 41.4897 110.648 40.8778 110.739 40.3126C110.151 39.867 110.533 39.2752 110.418 38.7564C110.411 38.7099 110.442 38.6434 110.418 38.6234C110.35 38.5636 110.265 38.4971 110.174 38.4771C109.83 38.4106 109.441 38.6101 109.128 38.3242C108.822 38.0448 108.379 38.3242 108.081 38.1779C107.6 37.9518 107.119 37.7256 106.63 37.5261C106.539 37.4862 106.462 37.3598 106.394 37.3665C105.401 37.453 104.675 36.9476 103.896 36.5486C103.484 36.6549 103.331 36.1296 102.919 36.2427C102.751 35.9766 102.331 36.0431 102.155 35.8503C101.88 35.5311 101.422 35.8503 101.155 35.5643C100.948 35.3515 100.719 35.152 100.475 34.9791C100.368 34.8993 100.154 34.9258 100.07 34.8461C99.8484 34.6332 99.4591 34.6532 99.2912 34.4737C98.6873 33.8153 97.8019 33.5759 97.0151 33.1835C96.5031 33.1835 96.4195 32.5185 95.8465 32.6049C95.8156 32.6049 95.7396 32.5451 95.7396 32.5118C95.6861 31.9931 95.1591 31.7803 94.8232 31.4478C94.5409 31.1685 94.1584 30.9557 93.9446 30.6431C93.7307 30.3372 93.4868 30.0646 93.273 29.7652C93.0742 29.4926 92.7534 29.2 92.8302 28.8209C92.8987 28.4751 92.3641 28.3421 92.4861 27.9564C92.5704 27.7037 92.5471 27.4177 92.2339 27.2116C92.1503 27.1584 92.1654 26.9522 92.1804 26.8192C92.2648 26.0677 91.9515 25.283 92.4711 24.5515C92.6164 24.352 92.5245 23.9995 92.4861 23.7268C92.4251 23.3544 92.6006 23.0884 92.9289 22.9088C93.3339 22.6894 92.9748 22.2904 93.2579 22.0443C93.5094 21.8315 93.8761 21.6586 93.7842 21.2596C93.7691 21.1798 93.7842 21.0601 93.8377 21.0069C94.1283 20.7342 94.434 20.4748 94.7389 20.2155C94.6779 19.8165 95.1207 19.7035 95.2969 19.4374C95.4572 19.198 95.8006 19.3177 95.9534 19.1381C96.0679 19.0052 96.0679 18.7923 96.1981 18.6727C96.4729 18.4199 96.7402 18.1672 97.1754 18.0475C97.4887 17.9611 97.6874 17.582 97.9849 17.3958C98.2672 17.2162 98.6497 17.183 98.8711 16.897C99.1075 16.5911 99.4742 16.4315 99.8634 16.2985C100.093 16.2187 100.307 16.1123 100.521 16.0059C100.742 15.8929 100.849 15.68 101.124 15.5935C101.536 15.4606 101.918 15.2212 102.323 15.0815C102.674 14.9618 102.972 14.6026 103.469 14.749C103.568 14.7822 103.774 14.5362 103.942 14.4298C104.064 14.35 104.209 14.2037 104.316 14.2236C104.866 14.33 105.218 13.7381 105.791 13.9243C106.004 13.9975 106.165 13.8579 106.348 13.7448C106.584 13.5985 106.875 13.5121 107.135 13.3923C107.341 13.2926 107.662 13.399 107.921 13.3657C108.372 13.3125 108.884 13.5586 109.258 13.1463C109.28 13.1197 109.349 13.0997 109.387 13.0931C109.869 13.0931 110.357 13.0399 110.823 13.1064C111.289 13.1728 111.495 12.7207 111.977 12.7938C112.496 12.8736 113.038 12.8204 113.572 12.8071C113.893 12.8071 114.199 12.7938 114.42 13.0598C114.458 13.1064 114.703 13.0465 114.833 13C114.962 12.9467 115.016 12.8005 115.222 12.8005C117.139 12.8071 119.063 12.7805 120.98 12.827C121.347 12.8337 121.675 13.1928 122.134 13.0931C122.508 13.0133 122.821 13.1529 123.135 13.3524C123.272 13.4389 123.546 13.3657 123.76 13.3657C123.86 13.3657 124.028 13.3591 124.058 13.399C124.433 13.9842 125.113 13.8844 125.708 13.9842C125.861 14.2701 126.311 14.1106 126.479 14.3766C126.67 14.6758 127.067 14.7024 127.365 14.8687C127.618 15.015 127.725 15.3408 128.121 15.3076C128.167 15.3076 128.221 15.3275 128.252 15.3608C129.008 16.0192 129.763 16.6709 130.519 17.3292C130.558 17.9478 131.199 18.0342 131.635 18.2936C132.101 18.5729 132.291 19.1514 132.956 19.2113C133.032 19.218 133.155 19.3377 133.146 19.3908C133.109 19.6768 133.36 19.7899 133.536 19.9495C133.834 20.2155 134.14 20.4748 134.43 20.7409C134.453 20.7674 134.414 20.8406 134.43 20.8739C134.575 21.1465 134.728 21.4126 134.88 21.6852C135.056 22.0044 135.209 22.3369 135.553 22.563C135.651 22.6295 135.713 22.8091 135.697 22.9155C135.621 23.3012 136.102 23.5141 136.064 23.9197C136.041 24.1791 136.324 24.465 136.469 24.731C136.53 24.8508 136.63 24.9571 136.667 25.0768C136.805 25.549 136.408 26.0943 136.927 26.52C136.958 27.0253 136.988 27.5241 137.026 28.0295C137.019 28.0295 137.011 28.0295 136.996 28.0295L136.988 28.096ZM122.76 34.0347C123.501 34.0281 124.25 34.0281 124.991 34.0281C125.227 33.6823 125.616 33.7421 125.975 33.7621C126.403 33.7887 126.632 33.2899 127.129 33.4562C127.243 33.4961 127.441 33.25 127.633 33.2034C127.87 33.1436 128.145 33.2633 128.366 33.0505C128.45 32.964 128.641 32.964 128.779 32.9175C129.145 32.7779 129.275 32.3057 129.794 32.3522C129.863 32.3522 129.962 32.2392 130.016 32.166C130.214 31.8667 130.619 31.8601 130.901 31.6739C130.864 31.2283 131.329 31.0821 131.581 30.8093C131.772 30.5966 132.062 30.4237 132.169 30.1842C132.246 30.0047 132.414 29.8916 132.467 29.7387C132.574 29.4527 132.414 29.0869 132.818 28.8941C132.818 28.6614 132.826 28.4352 132.826 28.2025C132.826 27.5973 132.826 26.9987 132.826 26.3936C132.826 26.2673 132.818 26.081 132.727 26.0212C132.39 25.8084 132.46 25.4958 132.528 25.263C132.643 24.8774 132.024 24.7842 132.177 24.3985C132.261 24.1924 132.192 23.9396 132.192 23.7069C132.192 23.5406 132.093 23.4608 131.917 23.4475C131.551 23.4342 131.337 23.2014 131.253 22.9554C131.192 22.7692 131.115 22.6162 130.947 22.5098C130.626 22.3037 130.184 22.2505 129.939 21.9246C129.878 21.8381 129.664 21.8381 129.542 21.7717C129.13 21.5322 128.656 21.386 128.221 21.1931C127.785 21.0002 127.274 20.8406 126.976 20.4482C126.953 20.415 126.892 20.3818 126.853 20.3884C126.136 20.4748 125.67 19.9561 125.044 19.8165C124.723 19.7433 124.433 19.5372 124.143 19.3709C123.745 19.1448 123.318 19.3111 122.913 19.2845C122.661 19.2645 122.584 19.0052 122.416 19.0251C122.248 19.045 122.157 19.3044 121.905 19.2712C121.706 19.2446 121.485 19.331 121.325 19.1448C121.133 18.9187 120.752 18.9985 120.538 18.7591C120.408 18.6128 120.156 18.7059 120.011 18.8655C119.881 18.9985 119.697 19.0916 119.705 19.3111C119.721 19.6303 119.69 19.9495 119.675 20.2687C119.224 20.528 119.545 20.9869 119.362 21.2662C119.148 21.5987 119.033 21.9113 119.072 22.2771C119.087 22.4899 118.987 22.583 118.72 22.6229C118.407 22.6694 118.178 22.8689 118.109 23.1616C118.018 23.5472 118.254 23.9529 117.911 24.3453C117.62 24.6845 117.819 25.1434 117.796 25.549C117.773 25.9679 117.796 26.3803 117.796 26.7993C117.796 27.0719 117.384 27.185 117.46 27.5175C117.529 27.7835 117.521 28.0761 117.46 28.3488C117.391 28.6747 117.857 28.7677 117.796 29.067C117.712 29.4527 117.994 29.8916 117.544 30.2308C117.475 30.284 117.475 30.53 117.544 30.5833C117.765 30.7562 117.804 30.9557 117.804 31.1951C117.788 31.8933 117.796 32.585 117.804 33.2832C117.804 33.3498 117.926 33.4695 117.987 33.4628C118.132 33.4628 118.384 33.403 118.392 33.3564C118.414 33.1104 118.667 32.9574 118.72 32.7779C118.789 32.5384 118.896 32.3655 119.094 32.2126C119.133 32.1793 119.194 32.1128 119.201 32.1195C119.277 32.1593 119.392 32.2059 119.392 32.2591C119.408 32.585 119.377 32.9108 119.415 33.23C119.43 33.3431 119.56 33.4562 119.66 33.5559C119.758 33.6557 120.744 34.0347 120.866 34.0347C121.507 34.0347 122.141 34.0347 122.783 34.0347H122.76ZM98.2521 26.9389C98.2521 27.6704 98.2521 27.6704 98.8861 28.6614C99.054 28.9207 99.1 29.2466 99.2912 29.4859C99.5352 29.7852 99.8793 30.018 100.184 30.284C100.291 30.3838 100.475 30.4835 100.482 30.5899C100.482 30.8892 100.62 31.0089 100.956 30.969C101.414 31.3214 102.018 31.4412 102.521 31.7271C102.758 31.8601 103.041 31.9798 103.308 32.0729C103.629 32.1859 104.026 31.9599 104.355 32.2259C104.706 32.5118 105.164 32.3057 105.568 32.3589C106.065 32.4321 106.638 32.1793 107.043 32.6182C107.463 32.6182 107.891 32.6648 108.311 32.6249C108.753 32.585 108.998 33.0239 109.463 32.9241C109.716 32.8709 109.99 32.9175 110.258 32.9108C110.685 32.9108 110.739 32.8709 110.746 32.5584C110.746 32.2791 110.731 31.9998 110.746 31.7205C110.8 31.102 110.541 30.4436 111.06 29.885C110.991 29.5857 111.159 29.2865 110.892 28.9673C110.579 28.5882 110.602 28.0561 110.869 27.6837C111.067 27.4111 111.037 27.1717 111.06 26.9123C111.083 26.633 111.075 26.3537 111.06 26.081C111.06 26.0278 110.907 25.9546 110.816 25.9481C110.502 25.9215 110.174 25.9081 109.975 26.1941L108.066 26.2207C107.769 25.8682 107.325 25.9215 106.921 25.9481C106.432 25.9812 106.065 25.8217 105.958 25.4293C105.889 25.17 105.714 25.017 105.523 24.8973C105.072 24.6179 105.011 24.1325 104.66 23.8133C104.813 23.2946 104.194 22.9354 104.324 22.3968C104.416 21.9978 104.346 21.5655 104.339 21.1465C104.339 20.9603 103.981 20.8007 103.874 20.9404C103.651 21.2463 103.209 21.1532 102.957 21.4126C102.667 21.7185 102.368 22.0576 101.857 22.1109C101.177 22.7027 100.513 23.3012 99.8183 23.8798C99.4742 24.1658 99.4282 24.5847 99.054 24.8707C98.7408 25.1101 98.6188 25.5357 98.466 25.8948C98.4125 26.0145 98.283 26.1209 98.2672 26.2407C98.2371 26.4667 98.2597 26.7061 98.2597 26.9323L98.2521 26.9389ZM107.898 22.8822C108.241 22.8357 108.654 23.0219 108.906 22.6628C109.265 22.6295 109.655 22.6694 109.96 22.5431C110.182 22.45 110.418 22.3702 110.617 22.2638C110.877 22.1242 110.709 21.8381 110.724 21.6254C110.746 21.3061 110.746 20.9803 110.724 20.6544C110.716 20.5413 110.594 20.4216 110.51 20.3219C110.319 20.0891 110.792 20.0426 110.685 19.9428C110.502 19.7699 110.418 19.5837 110.357 19.3643C110.319 19.2246 110.243 19.2579 110.136 19.3576C109.891 19.5771 109.647 19.7699 109.273 19.883C108.914 19.9961 108.601 20.3352 108.379 20.6411C108.134 20.9803 107.952 21.3527 107.57 21.5921C107.096 21.8913 107.218 22.317 107.218 22.7094C107.218 22.7692 107.333 22.8689 107.417 22.8822C107.57 22.9088 107.73 22.8889 107.891 22.8889L107.898 22.8822ZM113.489 18.1539C112.992 17.9611 112.663 18.4199 112.206 18.4332C112.16 18.4332 112.06 18.5862 112.075 18.5995C112.252 18.7724 112.45 18.9254 112.626 19.0982C112.832 19.2911 113.03 19.3377 113.29 19.1448C113.397 19.065 113.55 19.0052 113.687 18.9919C114 18.9719 114.321 18.9919 114.641 18.9786C114.726 18.9786 114.81 18.8988 114.894 18.8522C114.864 18.8189 114.833 18.7857 114.794 18.7524C114.42 18.4532 114.153 17.9877 113.489 18.1539Z" fill="#D9315A"/>
<path d="M47.7698 53.9656C46.9604 53.9656 46.6095 53.7789 45.9756 53.0279C45.9221 52.9614 45.8453 52.8748 45.7617 52.8548C45.3182 52.7618 45.0667 52.5751 44.9749 52.1496C44.9365 51.9772 44.7076 51.8041 44.6391 51.5781C44.6082 51.478 44.295 51.4515 44.1195 51.3714C44.0277 51.3321 43.9283 51.2584 43.8982 51.179C43.6 50.4538 42.8591 50.0616 42.3095 49.523C42.0572 49.2835 41.8208 49.0175 41.5076 48.8446C41.156 48.6451 41.2478 48.266 40.958 48.0599C40.6748 47.8537 40.4234 47.6077 40.1636 47.3749C39.8963 47.1422 39.6215 46.9293 39.3768 46.6833C39.1855 46.4837 39.2089 46.1845 38.9265 46.005C38.6818 45.8453 38.468 45.6259 38.3001 45.3997C38.1472 45.187 38.1013 44.9143 37.9635 44.6882C37.8649 44.5352 37.712 44.3956 37.5592 44.2825C37.0856 43.9367 36.5585 43.3847 36.2227 42.8328C36.1083 42.64 36.0164 42.4404 35.8786 42.2609C35.7566 42.1079 35.4818 42.0081 35.4592 41.8619C35.4133 41.6158 35.3214 41.4163 35.0925 41.2965C34.7025 41.0904 34.8019 40.6315 34.4202 40.4121C34.0685 40.2126 33.9616 39.8269 33.8396 39.5143C33.7252 39.2217 33.473 39.082 33.2749 38.8825C33.0988 38.7096 33.2516 38.4104 32.9384 38.3039C32.6944 37.772 32.4573 37.2332 31.9227 36.8608C31.9377 36.5283 31.7623 36.3687 31.373 36.382C31.2202 36.1093 31.0214 35.85 30.9378 35.564C30.861 35.3047 30.6171 35.2116 30.4567 35.0454C30.4108 34.9988 30.212 34.9855 30.166 35.0254C29.8762 35.2781 29.517 35.5175 29.3566 35.83C29.2422 36.0562 29.0743 36.2024 28.9064 36.3621C28.5397 36.7012 28.158 37.0205 27.7755 37.353C27.722 37.8717 27.0888 38.0379 26.8975 38.4303C26.6453 38.9424 26.2026 39.3746 26.1182 39.9598C26.0731 40.2458 25.9353 40.5584 25.729 40.7912C25.4466 41.1237 25.0799 41.403 24.7133 41.6756C24.6214 41.7488 24.4076 41.6956 24.2547 41.7155C24.0183 41.7421 23.6366 41.5959 23.5831 41.8951C23.5296 42.2542 22.9416 42.5269 23.2548 42.8793C23.6975 43.3781 23.5063 43.9168 23.5522 44.4488C23.5756 44.6816 23.6667 44.9808 23.5372 45.1337C22.9265 45.852 23.3843 46.65 23.2315 47.3949C23.1479 47.7806 23.7126 47.9934 23.5522 48.3924C23.3994 48.7914 23.9498 49.0109 23.8805 49.3899C24.0943 49.5429 24.2246 49.7091 24.1937 49.9751C24.1636 50.3007 24.1561 50.6269 24.1937 50.9459C24.2246 51.199 24.5453 51.3521 24.5303 51.6711C24.5145 51.9035 24.7667 52.1431 24.8126 52.3892C24.8661 52.6617 24.8277 52.9478 24.8277 53.2203C24.8277 53.4535 24.8126 53.6859 24.8277 53.9191C24.8661 54.4905 24.8812 55.0291 23.9874 55.1421C23.8195 55.1621 23.675 55.3817 23.5522 55.5283C23.3309 55.7808 22.7963 56.1863 22.6133 56.2064C22.4529 56.22 22.2391 56.2664 22.1397 56.1999C21.7045 55.8938 21.1616 55.7744 20.6963 55.5283C20.5661 55.4547 20.4516 55.3488 20.3597 55.2358C19.978 54.7902 19.8176 54.6901 19.5044 54.8832C19.2755 55.0291 19.0692 55.1357 18.8019 55.0892C18.6724 55.0692 18.4586 54.9826 18.4511 54.9161C18.4127 54.5442 18.1755 54.3511 17.7862 54.2645C17.4579 54.1916 17.2132 54.0049 17.168 53.7324C17.1296 53.5128 16.9693 53.4198 16.8315 53.294C16.6485 53.1273 16.4422 52.9814 16.5107 52.7082C16.5265 52.6617 16.5182 52.6152 16.5107 52.5687C16.4196 52.1832 16.7404 51.7312 16.2668 51.405C16.2434 51.0059 16.068 50.6404 15.8617 50.3007C15.6704 49.9884 15.2887 49.7158 15.8466 49.4032C15.8767 49.3899 15.8692 49.3168 15.8692 49.2769C15.8692 47.9734 15.8692 46.6766 15.8692 45.3732C15.8692 45.0606 15.434 44.8877 15.5334 44.5086C15.617 44.2027 15.5485 43.8636 15.5485 43.5377C15.5485 43.2118 15.5718 42.886 15.5409 42.5601C15.5334 42.4404 15.3956 42.334 15.3271 42.221C15.1893 42.0015 15.1667 41.9815 15.3655 41.7488C15.5025 41.5892 15.6554 41.3963 15.495 41.2766C15.2051 41.0571 15.2202 40.8045 15.2202 40.5318C15.2202 39.2749 15.2428 38.0246 15.2126 36.7678C15.2051 36.3355 15.4415 35.8367 14.9454 35.4776C15.0139 35.2781 15.2428 35.1717 15.2352 34.9123C15.2051 33.6155 15.1976 32.312 15.2352 31.0086C15.2428 30.6229 14.8 30.4167 14.8844 30.0044C14.9604 29.6453 14.8994 29.2662 14.8994 28.8938V26.8056C14.8994 26.4332 14.8234 26.0475 14.922 25.6951C15.0289 25.3027 14.4492 25.2229 14.5636 24.8238C14.663 24.4714 14.5862 24.0857 14.5862 23.7132V22.7357C14.5862 22.4098 14.5561 22.0839 14.5937 21.7581C14.6397 21.3724 14.09 21.1928 14.2429 20.7539C14.3423 20.4613 14.2429 20.1155 14.2353 19.7963C13.7768 19.5369 14.0441 19.118 13.9296 18.7921C13.8378 18.5061 13.6089 18.26 13.441 17.994C13.395 17.9209 13.3107 17.8411 13.3107 17.768C13.2957 17.4886 13.2881 17.2093 13.3107 16.93C13.3341 16.6374 12.9516 16.5376 12.9674 16.2118C12.9975 15.3539 12.9598 15.3539 13.6623 14.7819C13.8378 14.6423 14.0215 14.5891 14.1969 14.7686C14.4183 15.0014 14.785 14.9017 14.9988 15.1411C15.1592 15.314 15.495 15.2541 15.5183 15.1078C15.5334 14.9881 15.5025 14.8485 15.4491 14.7354C15.3956 14.6157 15.251 14.5159 15.2352 14.3962C15.2051 14.0704 15.2736 13.7378 15.2126 13.4253C15.1133 12.9332 15.4415 12.6671 15.7856 12.3679C15.946 12.2283 16.0906 12.1418 16.3278 12.1618C16.595 12.1817 16.8623 12.1751 17.1296 12.1618C17.4579 12.1485 17.5874 12.5608 17.9616 12.4677C17.9699 12.4677 18.0535 12.6938 18.1145 12.8135C18.1755 12.9532 18.2907 13.013 18.4736 13.0063C18.7869 12.993 19.1151 12.9399 19.1001 13.3987C19.1001 13.5251 19.3523 13.678 19.5127 13.7977C19.6957 13.9307 19.7265 14.0903 19.7265 14.2832C19.7265 14.4095 19.7567 14.5891 19.856 14.6423C20.368 14.9482 20.4215 15.3872 20.3597 15.8593C20.3221 16.112 20.4441 16.2783 20.6353 16.4645C20.7799 16.6108 20.6888 16.8036 20.4975 16.93C20.2687 17.0763 20.49 17.1627 20.5736 17.2226C20.734 17.3357 20.7264 17.5618 20.673 17.5884C20.2611 17.8144 20.6045 17.9874 20.6579 18.2135C20.7498 18.6125 20.6805 19.0448 20.6805 19.4638C20.6805 19.7431 20.5585 20.0889 20.7038 20.2884C21.2151 20.9733 20.9177 21.7049 20.9937 22.4165C21.0246 22.6891 21.0246 22.9219 21.2535 23.1679C21.4139 23.3408 21.3913 23.7199 21.2919 23.966C21.2 24.1987 20.8868 24.3783 21.3145 24.5778V25.5554C21.3145 25.8812 21.3303 26.2071 21.3145 26.533C21.2994 26.8588 21.3913 27.1182 21.6051 27.4108C21.773 27.6436 21.6352 28.0426 21.6352 28.3685V30.0377C21.6352 30.3635 21.6887 30.696 21.6202 31.0086C21.5517 31.3344 21.9869 31.4342 21.9635 31.7335C21.9334 32.1059 21.9485 32.4783 21.9635 32.8507C21.9635 33.0037 22.0787 33.0635 22.2617 33.0901C22.6969 33.1566 23.041 32.9837 23.178 32.6911C23.3007 32.4251 23.3617 32.2655 23.7435 32.1924C23.9724 32.1525 23.8963 31.7069 24.2013 31.5406C24.4994 31.3744 24.8586 31.3278 25.1025 31.0618C25.3164 30.8291 25.5686 30.6362 25.9661 30.5232C26.3705 30.4101 26.6302 29.9113 27.0353 29.7584C27.4547 29.5987 27.7378 29.3394 27.9742 29.0667C28.3101 28.681 28.868 28.6411 29.2347 28.3019C29.578 27.9894 29.8077 27.4906 30.4409 27.4972C30.7082 27.2712 30.9679 27.0384 31.2352 26.8123C31.1742 26.4133 31.5869 26.2803 31.8007 26.0409C31.8308 26.0076 31.8767 25.9744 31.9151 25.9411C32.3277 25.582 32.7479 25.2162 33.1597 24.8571C33.5723 24.498 33.9541 24.0923 34.4126 23.7864C34.8862 23.4672 35.0308 22.9685 35.4208 22.6094C35.8252 22.2369 36.2453 21.8845 36.6654 21.5254C37.0856 21.1662 37.4982 20.8071 37.91 20.4413C38.0862 20.2817 38.2466 20.1421 38.3227 19.8893C38.3912 19.6566 38.7503 19.497 38.9182 19.2709C39.0869 19.0448 39.5906 19.2709 39.5831 18.832C39.5831 18.5327 39.9422 18.3931 40.1636 18.2135C40.4 18.0206 40.5069 17.7879 40.6139 17.5352C40.6673 17.4155 40.8126 17.2758 40.9497 17.2492C41.4308 17.1361 41.8133 16.9633 41.8359 16.4711C42.134 16.2051 42.5692 15.9857 42.7063 15.6731C42.8441 15.3473 43.0654 15.1411 43.3101 14.915C43.5164 14.7221 43.8214 14.5692 43.7604 14.2433C44.0887 13.8775 44.5856 13.7046 45.0434 13.5982C45.3566 13.5251 45.6315 13.4852 45.8528 13.2657C46.0667 13.0595 46.334 12.8933 46.5177 12.6671C46.7466 12.3879 47.2427 12.5209 47.4114 12.1817C47.6787 12.1817 47.946 12.1751 48.2133 12.1817C48.3044 12.1817 48.4648 12.2283 48.4806 12.2748C48.6176 12.9332 49.3359 13.1726 49.7327 13.6381C49.7862 13.7046 49.817 13.7977 49.817 13.8842C49.8246 14.1169 49.8012 14.3497 49.8246 14.5825C49.8472 14.7952 49.7252 14.9216 49.5723 15.0546C49.427 15.181 49.2825 15.314 49.1906 15.4736C49.0302 15.7396 48.9768 16.0721 48.7629 16.2916C48.3579 16.7172 47.8925 17.1096 47.4031 17.4686C47.2887 17.5551 47.0139 17.4554 46.9303 17.7014C46.8309 17.9874 46.7082 18.28 46.5177 18.526C46.3422 18.7522 46.09 18.9384 45.8453 19.118C45.6623 19.2576 45.6239 19.4239 45.6548 19.61C45.7233 19.9492 45.5403 20.202 45.3416 20.4746C45.1579 20.7273 45.1277 21.0598 44.929 21.2925C44.6541 21.6117 44.5623 22.0241 44.158 22.2835C43.7755 22.5295 43.4705 22.862 43.1264 23.1613C42.8975 23.3608 42.6762 23.5537 42.4473 23.7531C42.5459 24.1056 42.195 24.2253 41.9887 24.4248C41.7749 24.631 41.5377 24.8239 41.3164 25.0167C41.095 25.2096 41.1793 25.5487 40.8661 25.6884C40.6447 25.7881 40.4234 25.8879 40.2095 25.981C40.3466 26.4133 39.9189 26.3534 39.6667 26.4598C39.4453 26.5529 39.7126 26.9652 39.2924 26.9519C39.0252 26.9453 39.0251 27.1116 38.9107 27.2645C38.6667 27.6037 38.3076 27.8896 37.9869 28.1889C37.8031 28.3618 37.6202 28.5347 37.4214 28.681C37.1164 28.9004 36.9937 29.1532 36.9937 29.5123C36.9937 29.9512 37.0472 30.3436 37.5057 30.583C37.9025 30.7892 37.9183 31.1948 38.1856 31.4542C38.468 31.7268 38.7963 31.9729 39.0786 32.2522C39.1705 32.3386 39.2548 32.4916 39.239 32.6047C39.1705 33.0569 39.3233 33.4426 39.7736 33.6621C40.1937 33.8682 40.1101 34.3271 40.4535 34.5332C40.7818 34.7327 40.7893 35.0719 41.0114 35.3113C41.2328 35.5507 41.217 35.9232 41.5761 36.0828C41.8969 36.2224 41.7899 36.5549 42.0038 36.7744C42.2251 36.9939 42.2786 37.333 42.5843 37.5325C42.8365 37.6988 43.0195 37.9448 43.2717 38.1111C43.5774 38.3172 43.6685 38.6165 43.8447 38.8825C43.9592 39.0421 43.9976 39.2018 44.0812 39.3547C44.1421 39.4678 44.4629 39.4545 44.5932 39.5675C44.9214 39.8468 45.3566 40.0663 45.395 40.5252C45.7692 40.5784 45.9221 40.7978 46.0749 41.0904C46.227 41.3697 46.5636 41.5693 46.8459 41.7887C47.1057 41.9882 47.2736 42.3406 47.7322 42.2875C48.3044 42.9259 49.2441 43.2983 49.5498 44.1429C49.5957 44.2626 49.7478 44.3956 49.8856 44.4288C50.6491 44.6151 51.0082 45.2202 51.5579 45.6192C51.8711 45.8453 52.0548 46.2044 52.551 46.2311C52.7114 46.2377 52.9786 46.4771 52.9786 46.6035C52.9786 46.8828 53.139 47.0491 53.3453 47.1687C54.0252 47.5677 54.1322 48.2926 54.5674 48.8247C54.8956 49.2236 54.2617 49.5363 54.2541 49.9485C54.2541 50.0819 53.9793 50.2149 53.8265 50.3408C53.3837 50.727 52.9862 50.7535 52.2987 50.4538C52.0315 50.3343 51.7566 50.1677 51.5044 50.1148C51.0541 50.015 50.5271 50.0017 50.0844 50.1148C49.6717 50.2149 49.2215 50.3744 48.9233 50.707C48.8473 50.7928 48.8548 50.8264 48.9692 50.9129C49.0987 50.9995 49.1906 51.1855 49.3126 51.1919C49.6107 51.2119 49.8171 51.2384 49.8012 51.5645C49.7862 51.7905 49.7327 52.1102 49.878 52.2233C50.4202 52.6488 50.0151 52.9077 49.6868 53.0944C49.3894 53.2603 49.6642 53.8325 49.0528 53.7195C48.6944 54.0914 48.2058 53.9856 47.7472 53.9985L47.7698 53.9656Z" fill="#D9315A"/>
<path d="M172.959 50.1749C172.913 50.3544 172.867 50.5404 172.814 50.7199C172.745 50.9459 172.012 51.4251 171.768 51.365C171.645 51.3386 171.577 51.119 171.462 51.0925C169.905 50.7664 168.346 50.4538 166.788 50.1549C166.659 50.1284 166.498 50.2014 166.353 50.2278C165.811 50.3344 165.299 50.4474 164.711 50.3344C164.36 50.2679 163.94 50.5475 163.535 50.3745C163.267 50.6141 162.97 50.5404 162.657 50.4674C162.137 50.3544 161.618 50.2414 161.099 50.1549C160.755 50.102 160.427 49.9154 160.037 50.1549C159.884 50.2479 159.54 50.102 159.281 50.0748C158.884 50.0351 158.479 49.7625 158.082 50.0884C157.669 50.0152 157.257 49.9487 156.845 49.8689C156.639 49.829 156.447 49.7891 156.249 49.9154C155.966 50.0948 155.752 49.962 155.63 49.7292C155.546 49.563 155.295 49.5231 155.241 49.563C154.897 49.8224 154.554 49.7026 154.195 49.6295C153.675 49.5231 153.149 49.4499 152.637 49.3103C152.217 49.1973 151.896 49.6162 151.43 49.3834C151.079 49.2039 150.59 49.0908 150.2 49.144C149.796 49.2039 149.414 49.2637 149.017 49.2105C148.611 49.5364 148.215 49.2371 147.818 49.2105L146.985 49.0443C146.672 48.9711 146.443 49.3369 146.106 49.1573C145.824 49.0044 145.625 49.257 145.389 49.297C145.099 49.3435 144.801 49.3502 144.511 49.4167C144.213 49.4832 143.861 49.5696 143.824 49.8822C143.763 50.4145 143.342 50.7399 142.991 51.1126C142.532 51.5982 142.525 51.5911 141.883 51.4652C141.677 51.4251 141.471 51.365 141.258 51.345C140.921 51.3057 140.799 51.1655 140.913 50.8794C140.928 50.8465 140.891 50.7736 140.86 50.76C140.447 50.6605 140.41 50.368 140.356 50.0683C140.349 50.0218 140.157 50.0152 140.096 49.962C139.837 49.7359 139.562 49.5098 139.737 49.1374L139.508 48.1266C138.836 48.0068 139.21 47.3418 138.768 47.0692C138.523 46.9162 138.882 46.9029 138.935 46.8097C138.996 46.6967 139.142 46.5105 139.103 46.4706C138.859 46.2179 138.928 45.9652 139.004 45.6926C139.065 45.4597 139.188 45.3068 139.402 45.1405C139.623 44.9677 139.638 44.695 139.523 44.3957C139.363 43.9834 139.371 43.9369 139.768 43.5844C139.99 43.3915 139.951 43.1721 140.051 42.966C139.592 42.6534 140.142 42.1679 139.806 41.8221C139.73 41.7489 139.776 41.5627 139.806 41.4364C139.913 40.9841 140.058 40.532 140.15 40.0797C140.218 39.7339 140.44 39.4213 140.218 39.0223C140.089 38.7829 140.272 38.4105 140.318 38.1046C139.898 37.8187 140.379 37.4063 140.127 37.0871C140.051 36.994 140.02 36.8144 140.073 36.7147C140.242 36.3489 140.058 36.0231 140.035 35.6706C140.012 35.3115 140.18 34.9457 140.303 34.5866C140.394 34.3073 139.997 34.1277 140.157 33.8152C140.272 33.5891 140.417 33.3164 140.165 33.0304C140.073 32.924 140.165 32.6912 140.188 32.5117C140.242 31.8933 140.746 31.3213 140.371 30.6496C140.279 30.49 140.471 30.2041 140.524 29.9779C140.624 29.5723 140.715 29.1667 140.814 28.761C140.349 28.4551 140.998 27.9363 140.532 27.6304C140.761 27.1117 140.257 26.573 140.578 26.061C140.845 25.6287 140.234 25.1831 140.593 24.7508C140.264 24.4782 140.493 24.159 140.463 23.8531C140.432 23.5605 140.196 23.2812 140.142 22.9886C140.066 22.5629 139.89 22.1506 140.058 21.6851C140.173 21.3725 139.752 21.0134 140.012 20.6476C140.028 20.621 139.92 20.4814 139.844 20.4548C139.645 20.3883 139.447 20.3683 139.508 20.0957C139.569 19.7964 139.791 19.5105 139.539 19.178C139.348 18.9252 139.6 18.6526 139.645 18.3866C139.706 18.0674 139.806 17.7548 139.89 17.4356C139.913 17.3491 139.921 17.236 139.982 17.1828C140.043 17.1296 140.196 17.0831 140.257 17.1164C140.715 17.3292 141.135 16.9035 141.616 17.0831C142.006 17.2227 142.464 17.2094 142.853 17.3558C143.251 17.5087 143.549 17.2161 143.892 17.2693C144.259 17.3225 144.618 17.409 144.984 17.4754C145.557 17.0898 146.091 17.4821 146.642 17.5286C147.092 17.5686 147.512 17.3026 147.993 17.4954C148.375 17.6484 148.825 17.6617 149.23 17.7614C149.468 17.8212 149.628 17.7282 149.811 17.6284C150.2 17.4223 150.574 17.2028 151.063 17.1429C151.3 17.1164 151.384 17.0831 151.514 17.2693C151.583 17.3624 151.774 17.4023 151.918 17.4289C152.491 17.5486 153.064 17.6617 153.63 17.7748C154.195 17.4954 154.737 17.7282 155.287 17.8212C155.852 17.5153 156.394 17.8014 156.944 17.8612C157.349 17.9077 157.746 18.1804 158.15 17.941C158.495 17.7415 158.876 18.1538 159.19 17.8545C159.228 17.8212 159.281 17.7748 159.319 17.7814C159.686 17.8412 160.052 17.9077 160.412 17.9875C160.732 18.0607 160.954 17.6816 161.29 17.8745C161.695 18.1073 162.084 17.8412 162.481 17.8345C162.832 17.8279 163.176 18.1006 163.535 17.8147C163.588 17.7748 163.734 17.7947 163.825 17.8147C164.184 17.8678 164.596 18.054 164.895 17.9543C165.23 17.8478 165.559 17.9809 165.78 17.8944C166.208 17.7215 166.605 17.7481 166.979 17.8878C167.369 18.0341 167.674 17.7748 168.018 17.808C168.384 17.8412 168.744 17.9742 169.11 18.0075C169.293 18.0208 169.446 17.7348 169.667 17.8545C170.049 18.0607 170.347 17.7215 170.707 17.7681C171.05 17.8147 171.371 18.0075 171.761 17.7681C172.035 17.6018 172.456 17.9809 172.791 17.6683C172.852 17.6085 173.089 17.6816 173.234 17.7082C173.547 17.7748 173.837 17.8478 174.128 17.6351C174.181 17.5952 174.434 17.6816 174.517 17.7681C174.685 17.941 174.8 18.1605 174.952 18.3533C175.182 18.6459 175.342 18.9651 175.763 19.1447C176.106 19.291 175.953 19.7299 176.137 19.9826C176.457 20.4215 175.968 20.5147 175.785 20.7341C175.64 20.907 175.449 21.0599 175.342 21.2462C175.296 21.3259 175.365 21.5388 175.457 21.5787C175.64 21.6651 175.892 21.6718 175.8 21.9312C175.724 22.1506 176.006 22.2703 175.991 22.4233C175.953 22.7425 175.846 23.0617 175.747 23.3742C175.724 23.454 175.647 23.5272 175.571 23.5804C175.151 23.893 174.334 24.1789 173.73 24.0858C173.379 24.0326 173.173 24.3186 172.845 24.2255C172.539 24.139 172.226 24.0925 171.913 24.0327C171.868 24.026 171.791 24.0127 171.768 24.0327C171.432 24.3984 170.958 23.9728 170.6 24.1989C170.248 24.4183 169.767 23.9994 169.439 24.3718C169.347 24.2654 169.263 24.159 169.171 24.0525C168.79 24.3785 168.384 24.1324 167.98 24.1058C167.636 24.0858 167.33 24.3186 166.941 24.1922C166.742 24.1324 166.467 24.2987 166.224 24.3053C166.017 24.3053 165.811 24.2122 165.597 24.1989C165.345 24.1789 165.162 24.4782 164.879 24.3319C164.543 24.159 164.299 24.4848 164.001 24.4383C163.688 24.3917 163.374 24.3319 163.069 24.2521C162.749 24.1656 162.542 24.5247 162.183 24.3785C161.901 24.2587 161.564 24.2454 161.251 24.1789C160.816 24.5513 160.358 24.2188 159.907 24.2122C159.518 24.5513 159.09 24.1989 158.716 24.2654C158.303 24.3386 157.929 24.425 157.517 24.292C157.158 24.1723 156.867 24.5846 156.478 24.3785C156.386 24.3319 156.196 24.4183 156.051 24.4516C155.096 24.6511 155.081 24.6977 154.423 24.5114C153.942 24.3717 153.538 24.7309 153.064 24.5646C152.873 24.4981 152.591 24.6644 152.354 24.6777C152.156 24.691 151.964 24.5713 151.75 24.6977C151.636 24.7641 151.461 24.7774 151.323 24.7641C150.972 24.7309 150.651 24.5646 150.269 24.7974C150.047 24.9371 149.689 24.6046 149.383 24.8306C149.139 25.0169 148.864 24.8506 148.635 24.7907C148.169 24.6644 147.741 25.1166 147.275 24.8306C147.26 24.824 147.1 24.9371 147.077 25.0102C146.901 25.642 146.657 26.2671 146.596 26.9122C146.557 27.3378 146.749 27.7701 146.565 28.2223C146.405 28.6146 146.359 29.0403 146.222 29.4393C146.13 29.7253 146.573 29.9181 146.366 30.2107C146.366 30.2174 146.535 30.3437 146.542 30.3371C147.031 29.9181 147.68 30.6297 148.169 30.1708C148.207 30.1376 148.368 30.1908 148.467 30.2107C148.673 30.2506 148.879 30.2905 149.093 30.3371C149.444 29.9048 150.025 30.4501 150.399 30.111C150.43 30.0844 150.491 30.0578 150.537 30.0578C150.895 30.0644 151.239 30.3504 151.598 30.1442C151.988 29.9247 152.316 30.1575 152.659 30.2041C152.935 30.2439 153.156 30.1509 153.393 30.1309C153.835 30.0977 154.263 29.7785 154.729 30.0378C155.111 29.7519 155.523 29.9048 155.921 29.9979C156.242 30.0711 156.456 29.7186 156.806 29.8716C157.142 30.0179 157.479 29.9713 157.846 29.825C158.074 29.7319 158.434 30.0112 158.731 29.7652C158.784 29.7186 158.945 29.7252 159.022 29.7652C159.479 29.9646 159.938 29.8184 160.366 29.7253C160.717 29.6521 161.046 29.5125 161.404 29.6654C161.817 29.8383 162.198 29.6654 162.596 29.6321C162.939 29.5989 163.245 29.3329 163.634 29.5324C163.863 29.6454 164.047 29.446 164.184 29.3395C164.596 29.0203 164.986 29.273 165.383 29.3262C165.459 29.3395 165.551 29.4327 165.597 29.5058C165.833 29.9181 166.246 30.1775 166.666 30.4235C166.804 30.5033 166.979 30.5765 166.918 30.6962C166.766 31.022 166.949 31.3013 167.01 31.6007C167.04 31.7735 166.903 31.9598 166.888 32.1393C166.857 32.4452 166.475 32.4851 166.346 32.7644C166.231 33.0104 165.826 33.2033 165.398 33.0371C165.253 32.9839 165.093 32.964 164.932 32.944C164.742 32.9174 164.558 33.1302 164.62 33.3231C164.65 33.4095 164.772 33.4826 164.78 33.5625C164.78 34.0214 164.764 34.4669 164.184 34.7063C163.947 34.806 163.734 34.9524 163.505 35.072C163.42 35.1186 163.283 35.1984 163.23 35.1718C162.633 34.8459 161.984 35.3314 161.411 35.092C160.93 34.8925 160.495 35.092 160.067 35.1452C159.778 35.1785 159.518 35.3248 159.182 35.2383C158.792 35.1385 158.372 34.959 157.998 35.2782C157.639 35.2583 157.265 34.9723 156.937 35.1851C156.547 35.4444 156.081 34.959 155.761 35.3447C155.164 35.1851 154.554 35.5908 153.958 35.3248C153.523 35.4178 153.079 35.4511 152.629 35.4311C152.491 35.4245 152.339 35.5509 152.202 35.5376C151.888 35.5043 151.575 35.3847 151.262 35.3713C151.025 35.358 150.727 35.5509 150.552 35.4844C150.147 35.3248 149.864 35.6506 149.505 35.5841C149.139 35.511 148.78 35.4245 148.413 35.3713C148.276 35.3514 148.062 35.3447 147.986 35.4113C147.466 35.8767 146.909 35.6174 146.351 35.5243C145.946 35.4577 145.839 35.5708 145.969 35.9965C145.992 36.0829 146.115 36.1959 146.084 36.2359C145.802 36.6016 146.206 36.9275 146.145 37.2799C146.115 37.4595 146.084 37.6391 145.855 37.7322C145.794 37.7588 145.732 37.8518 145.741 37.9051C145.763 38.0314 145.885 38.1578 145.87 38.2775C145.824 38.7297 145.45 39.182 145.649 39.6142C145.862 40.0731 145.572 40.4189 145.527 40.8113C145.496 41.0839 145.839 41.2701 145.671 41.5827C145.542 41.8287 145.481 42.1213 145.488 42.3873C145.488 42.547 145.679 42.7198 145.824 42.8462C145.855 42.8728 146.084 42.66 146.214 42.6734C146.527 42.6999 146.847 42.7598 147.146 42.8529C147.566 42.9859 147.886 42.5603 148.352 42.7797C148.711 42.9527 149.169 42.9926 149.59 43.0391C149.879 43.0723 150.124 42.7997 150.467 42.926C150.751 43.0324 151.033 43.0324 151.361 42.8928C151.59 42.7997 152.034 43.0856 152.262 42.9859C152.812 42.7464 153.309 42.8795 153.767 43.0457C154.218 43.212 154.554 42.8529 154.966 42.9726C155.371 43.0856 155.798 43.1455 156.211 43.2319C156.532 42.9327 156.692 43.1521 156.898 43.3583C156.982 43.4447 157.234 43.4979 157.349 43.4514C157.929 43.2053 158.495 43.345 159.006 43.5312C159.418 43.6775 159.678 43.3118 160.052 43.4248C160.404 43.5312 160.786 43.6509 161.137 43.631C161.641 43.6044 162.13 43.4913 162.642 43.6509C163.092 43.7905 163.573 43.8504 164.039 43.9435C164.558 44.0499 165.078 44.1563 165.597 44.2494C165.796 44.2827 166.002 44.3093 166.2 44.2893C167.033 44.2095 167.033 44.2029 167.988 44.7283C168.476 44.6751 168.744 45.0009 169.018 45.2337C169.347 45.513 169.584 45.8854 169.844 46.2245C169.92 46.3243 169.927 46.4706 169.935 46.597C169.958 47.1224 169.958 47.1224 170.432 47.2088C170.683 47.2553 170.928 47.3485 171.18 47.1689C171.264 47.1091 171.539 47.1157 171.6 47.1822C171.859 47.4549 171.974 47.8406 172.432 47.947C172.417 48.4857 172.852 48.8514 173.12 49.2837C173.158 49.3502 173.12 49.4566 173.105 49.5431C173.051 49.7692 172.99 49.9952 172.928 50.2214L172.959 50.1749Z" fill="#D9315A"/>
<path d="M73.0561 17.5952C73.5907 17.5952 74.1253 17.5952 74.6523 17.5952C75.019 17.5952 75.3473 17.5819 75.6605 17.8546C75.8284 18.0009 76.241 17.7947 76.5234 18.0541C76.6612 18.1804 77.0505 18.0741 77.2417 18.1871C77.4631 18.3135 77.6385 18.4265 77.9291 18.4465C78.3719 18.4797 78.7385 18.799 79.2121 18.759C79.5178 19.0716 80.0901 19.045 80.3272 19.4507C80.9529 19.5903 81.4341 20.0159 82.0914 20.1223C82.5191 20.1889 82.9543 20.3285 83.2901 20.6344C83.9165 21.1997 84.6725 21.6918 85.1769 22.3302C85.5971 22.8556 86.0782 23.3078 86.5593 23.7733C86.7574 23.9662 86.7197 24.2721 87.0096 24.4516C87.2694 24.6113 87.4448 24.864 87.7046 25.0236C87.9493 25.1765 87.8725 25.4691 88.0487 25.5955C88.3461 25.8149 88.2166 26.2273 88.6058 26.3803C88.9876 26.5265 88.9492 26.9122 89.1404 27.1716C89.3317 27.431 89.4838 27.7036 89.736 27.9297C89.8279 28.0162 89.8738 28.1625 89.8888 28.2888C89.9197 28.6014 89.8429 28.9007 90.1787 29.1734C90.3624 29.3263 90.0876 29.712 90.4234 29.9115C90.6373 30.0445 90.492 30.3371 90.7517 30.4968C90.8662 30.5699 90.836 30.8293 90.8511 31.0021C90.8895 31.4411 90.7216 31.9133 91.1643 32.2923C91.2103 32.3322 91.08 32.5251 91.019 32.6447C90.9889 32.7113 90.9046 32.7911 90.9271 32.8376C90.9656 32.9175 91.1033 32.964 91.1417 33.0438C91.3021 33.3696 91.019 33.7554 91.3631 34.0812C91.6839 34.3805 91.47 34.7861 91.4926 35.1453C91.531 35.8435 91.4542 36.5418 91.5235 37.2334C91.5611 37.6325 91.2938 37.9051 91.2027 38.2376C91.1184 38.5435 91.1869 38.8827 91.1869 39.2086C91.1869 39.581 91.1869 39.9534 91.1869 40.3192C90.5379 40.6517 91.2027 41.4298 90.5454 41.7623C90.7901 42.3807 90.0801 42.8529 90.2247 43.4581C90.2405 43.5113 89.4303 44.9145 89.3768 44.9611C89.1254 45.1938 88.8423 45.4133 88.6367 45.6727C88.4763 45.8788 88.3995 46.1448 88.3077 46.3909C88.2241 46.6303 87.8649 46.5438 87.8341 46.6103C87.5668 47.2421 86.9336 47.5946 86.46 48.0668C86.3071 48.2197 86.0857 48.2064 85.9254 48.2795C85.4442 48.5123 84.9932 48.8049 84.5354 49.0776C84.092 49.3436 83.5114 49.4434 83.1372 49.8291C83.0838 49.8889 82.9543 49.9354 82.8699 49.9221C82.5266 49.8889 82.3052 50.0352 82.0304 50.1885C81.8008 50.3144 81.3964 50.1148 81.1826 50.4209C81.1592 50.4538 81.0983 50.481 81.0523 50.4874C80.5561 50.5676 79.9832 50.2815 79.563 50.7199C79.0367 50.7335 78.5096 50.76 77.9901 50.7664C77.3486 50.7735 76.7071 50.7664 76.0731 50.7664C75.9128 50.7664 75.7449 50.8 75.592 50.7664C75.3097 50.6934 75.0499 50.5475 74.7592 50.5075C74.446 50.461 74.1178 50.5075 73.8045 50.4874C73.7209 50.4874 73.6291 50.3945 73.5606 50.328C73.3392 50.1148 73.0644 50.255 72.8121 50.215C72.468 50.6405 71.9568 50.4674 71.5058 50.4874C71.1316 50.5075 70.7574 50.4674 70.3832 50.4939C69.887 50.5339 69.314 50.3015 68.9172 50.7664C68.5656 50.7135 68.1838 50.8866 67.848 50.6534C67.7336 50.574 67.5882 50.501 67.4505 50.4939C67.1297 50.4674 66.809 50.5204 66.4957 50.4739C66.2058 50.4345 66.0304 50.1084 65.6637 50.2014C65.1367 49.9687 64.5178 49.9221 64.0065 49.6495C63.9222 49.6029 63.7769 49.6162 63.7392 49.563C63.6398 49.4168 63.609 49.1441 63.4945 49.1175C63.2882 49.0709 63.0819 49.0709 62.9524 48.898C62.5398 48.3461 61.7153 48.2396 61.2718 47.7143C60.6996 47.8074 60.6077 47.1889 60.104 47.1291C59.653 47.0759 59.4851 46.5305 58.9505 46.5239C58.8737 46.5239 58.8127 46.3776 58.7216 46.3377C58.2631 46.1315 58.2857 45.6394 57.9348 45.3601C57.5832 45.0807 57.2624 44.7682 56.9266 44.4689C57.0411 43.9702 56.2542 43.9236 56.2625 43.4448C56.2625 43.3118 56.0329 43.1588 55.8875 43.0325C55.7272 42.8995 55.5977 42.7665 55.6436 42.5603C55.7121 42.2943 55.5133 42.1414 55.3304 41.9751C55.1926 41.8488 55.0021 41.7689 54.9946 41.5362C54.987 41.2303 55.1241 40.9111 54.7732 40.6384C54.5134 40.4389 54.8568 40.0066 54.4366 39.7805C54.3297 39.7207 54.3681 39.4414 54.3681 39.2618C54.3681 38.7497 54.414 38.2376 54.3455 37.7323C54.2921 37.3532 53.963 37.0273 54.0323 36.5884C54.0933 36.176 54.0474 35.7571 54.0474 35.3382V34.2209C54.0474 33.8019 54.0398 33.3829 54.0474 32.964C54.0549 32.5983 54.0933 32.2391 54.1159 31.8734C54.5511 31.5941 54.3071 31.195 54.3606 30.8492C54.8952 30.663 54.536 30.1776 54.7883 29.8849C55.1474 29.466 55.246 28.9206 55.6895 28.5349C55.9335 28.3221 56.0487 28.0095 56.27 27.7768C56.5065 27.524 56.7738 27.298 57.0561 27.0852C57.5756 26.6995 57.736 26.0876 58.2857 25.7086C58.7901 25.3694 59.3398 24.997 59.6229 24.5248C60.0581 23.8066 60.7606 23.3477 61.3562 22.7891C61.9751 22.2105 62.6467 21.6785 63.2656 21.1066C63.5254 20.8672 63.9756 20.9469 64.1594 20.6211C64.2964 20.3684 64.3499 20.0891 64.8084 20.0226C65.1216 19.976 65.2285 19.4906 65.6938 19.5371C65.7322 19.5371 65.7706 19.4773 65.8166 19.4573C66.175 19.3043 66.114 18.9053 66.3888 18.6992C66.8549 18.8587 67.1606 18.5329 67.5348 18.4132C67.8555 18.3068 68.1454 18.1339 68.4586 17.9942C68.5889 17.9344 68.7335 17.8745 68.8788 17.8679C69.3599 17.8546 69.8561 17.9344 70.3146 17.8413C70.7498 17.7549 71.1391 17.5354 71.6285 17.5753C72.1021 17.6152 72.5908 17.5819 73.0644 17.5819L73.0561 17.5952ZM82.8473 34.3473C82.8473 34.0213 82.809 33.6955 82.8549 33.3763C82.9083 32.9906 82.4121 32.7844 82.5115 32.3721C82.5876 32.0595 82.5266 31.727 82.5191 31.4012C82.5191 31.3679 82.4581 31.328 82.4121 31.3014C82.068 31.1019 82.1674 30.7894 82.2209 30.5433C82.2977 30.1776 81.7398 30.0645 81.8625 29.6788C81.9385 29.4394 81.9385 29.1534 81.6329 28.9273C81.3964 28.7544 81.6178 28.4418 81.419 28.1758C80.8769 27.4575 80.5562 26.6329 80.0524 25.8881C79.8537 25.5955 79.8002 25.2231 79.5788 24.9504C79.304 24.6179 78.914 24.3519 78.5782 24.0526C78.5398 24.0194 78.4938 23.9928 78.4637 23.9529C78.2958 23.7334 78.0436 23.7134 77.7688 23.7201C77.4021 23.7334 77.2108 23.3809 76.7756 23.4142C76.4782 23.4341 76.1492 23.1948 75.8442 23.0617C75.7524 23.0218 75.6763 22.8889 75.6071 22.8955C75.1109 22.9687 74.5379 22.6627 74.1102 23.1016C73.553 23.1815 72.9951 23.3012 72.4839 22.9421C72.3995 22.8822 72.1398 22.8822 72.0713 22.9421C71.8725 23.1349 71.6436 23.1549 71.3688 23.1682C71.0555 23.1815 70.6964 23.4807 70.3071 23.893C70.2762 23.9263 70.2228 23.9928 70.1927 23.9862C69.5813 23.8997 69.4744 24.6645 68.8713 24.578C68.4202 24.9704 67.8631 25.3096 67.5423 25.775C67.214 26.2605 67.0153 26.8125 66.504 27.2048C66.5341 27.5374 66.5341 27.8499 66.1524 28.0561C65.9077 28.1891 65.9002 28.4219 65.8008 28.6214C65.6637 28.894 65.2971 29.1335 65.282 29.3995C65.2662 29.7519 64.77 29.8849 64.8995 30.244C64.7241 30.4103 64.5178 30.55 64.5787 30.8226C64.648 31.1485 64.5787 31.4544 64.2663 31.6805C64.3348 32.0196 64.0976 32.2657 63.9832 32.5517C63.8921 32.7711 63.6549 32.9042 63.6323 33.1236C63.5939 33.4827 63.5864 33.8485 63.563 34.2142C63.1203 34.4869 63.3492 34.8859 63.3115 35.2384C63.2807 35.5509 63.3951 35.8901 62.9983 36.1029C62.9983 36.4155 63.0518 36.7547 62.6625 36.9608C62.6625 37.2401 62.6625 37.5194 62.6625 37.7988C62.6625 37.9849 62.7461 38.2509 62.6392 38.3374C62.0361 38.8561 62.4713 39.4879 62.341 40.0465C62.2958 40.2526 62.4562 40.3724 62.5707 40.5254C62.6241 40.5918 62.3719 40.8246 62.4178 40.8978C62.5172 41.0507 62.716 41.1638 62.6542 41.3699C62.5631 41.7091 62.8304 41.9684 63.0819 42.0283C63.5254 42.1347 63.8228 42.3741 64.06 42.6534C64.4801 43.1389 65.1977 43.2586 65.6487 43.7174C65.8625 43.9303 66.3278 43.6975 66.6335 44.0035C66.8248 44.1963 67.2901 44.03 67.6108 44.2961C67.8781 44.5221 68.4127 44.1763 68.7794 44.5022C69.07 44.7549 69.4819 44.582 69.841 44.6086C70.1083 44.6286 70.3756 44.5953 70.6354 44.6219C70.7732 44.6352 70.8876 44.7549 71.0247 44.8014C71.1625 44.848 71.4064 44.9145 71.4373 44.8746C71.6662 44.6153 71.9568 44.602 72.2851 44.6153C72.7128 44.6286 73.1404 44.582 73.5606 44.6286C74.0568 44.6818 74.4385 44.4689 74.8737 44.3493C75.1568 44.2695 75.5235 44.4623 75.7599 44.2029C76.0046 43.9369 76.4248 44.2096 76.6153 43.9968C76.8291 43.7574 77.1958 43.8438 77.4171 43.6244C77.5316 43.5113 77.9291 43.4847 77.9291 43.4182C77.9291 42.8064 78.6776 42.9261 78.9832 42.567C79.4794 41.9751 80.1209 41.4564 80.7775 40.9908C81.1367 40.7381 81.1826 40.379 81.4265 40.0997C81.6253 39.867 81.7021 39.5544 81.8542 39.2817C82.0071 39.0091 82.3052 38.7564 82.1674 38.4239C82.0071 38.0448 82.4957 37.8985 82.5115 37.566C82.5416 36.861 82.2518 36.1029 82.8165 35.4512V34.3406L82.8473 34.3473Z" fill="#D9315A"/>
<path d="M14.6037 74.9126C14.6037 74.8282 14.5924 74.7388 14.6037 74.6537C14.6557 74.2803 14.4253 73.8469 14.7648 73.5429C15.1225 73.2189 14.6903 72.7955 15.0532 72.4565C15.3243 72.2026 15.4395 71.8192 15.6179 71.4902C15.7738 71.2013 15.9409 70.9073 16.1141 70.6234C16.2639 70.3695 16.529 70.1449 16.419 69.8209C16.7767 69.4826 16.9785 69.0391 17.3354 68.7201C17.6237 68.4662 17.5951 68.0922 17.9468 67.8783C18.2517 67.6888 18.4941 67.4349 18.6267 67.0808C18.7245 66.8219 19.0935 66.6424 19.3472 66.4285C19.6296 66.1846 19.9292 65.945 20.2003 65.6861C20.39 65.5066 20.7243 65.3922 20.6611 65.0682C20.8975 64.9437 21.1626 64.8443 21.3523 64.6798C21.5714 64.4953 21.8312 64.4209 22.0849 64.3057C22.3379 64.1863 22.5344 63.9624 22.7302 63.7629C22.88 63.6134 23.0472 63.5884 23.2542 63.5884C23.3867 63.5884 23.5885 63.559 23.6465 63.4839C23.9176 63.0906 24.4876 63.0805 24.8279 62.7616C25.1449 62.4676 25.6923 62.4225 26.0386 62.1786C26.4068 61.9197 26.9723 62.2037 27.2079 61.7702C27.6002 61.7803 27.8419 61.3318 28.2914 61.5113C28.5911 61.2324 28.9773 61.2617 29.3749 61.2424C29.8477 61.2174 30.3725 61.4112 30.7814 61.0128C30.8507 60.9484 31.0698 60.9878 31.2136 60.9878C31.9688 60.9878 32.724 60.9678 33.4784 60.9928C33.8993 61.0078 34.3947 60.8233 34.7117 61.2424C35.1153 61.2424 35.5189 61.2424 35.9164 61.2424C36.1875 61.6107 36.6257 61.4462 36.9947 61.5163C37.3056 61.5757 37.6746 61.6951 37.853 61.8947C38.1474 62.2237 38.5796 62.3281 38.9425 62.4976C39.2881 62.6571 39.6631 62.9761 40.1472 62.8116C40.3716 63.1206 40.7292 63.0856 41.0809 63.0755C41.1787 63.0755 41.3459 63.0505 41.3685 63.0906C41.5876 63.499 42.1124 63.22 42.4173 63.4489C42.5905 63.5783 42.8729 63.6034 43.0227 63.7378C43.3683 64.0418 43.7952 64.2113 44.2334 64.3808C44.2733 64.3959 44.3539 64.3658 44.3772 64.3858C44.6656 64.6247 44.9073 64.9838 45.2476 65.0882C45.7084 65.2277 45.9682 65.5116 46.2852 65.7655C46.5788 66.0051 46.8499 66.264 47.1435 66.4979C47.334 66.6474 47.2015 66.912 47.4552 67.0465C47.6623 67.1609 47.7948 67.4499 47.9966 67.4799C48.5214 67.5593 48.6592 67.8533 48.8557 68.2123C49.0168 68.5106 49.4031 68.7101 49.6734 68.969C49.7254 69.0191 49.6907 69.1385 49.6734 69.2237C49.6395 69.4125 49.7141 69.557 49.8925 69.6671C50.5039 70.0555 50.711 70.6684 51.0686 71.2063C51.1146 71.2757 51.1778 71.3508 51.1838 71.4251C51.2124 71.7592 51.0626 72.1282 51.4895 72.3621C51.558 72.8105 51.2757 73.3184 51.7892 73.6924C51.7892 74.1258 51.7945 74.5643 51.7892 74.9977C51.7771 75.3711 51.3743 75.64 51.4722 76.0684C51.558 76.4475 51.5242 76.8509 51.4775 77.2393C51.4549 77.4738 51.1145 77.6183 51.1778 77.9173C51.2297 78.1662 51.1898 78.4001 50.9414 78.6196C50.8149 78.7341 50.8668 79.033 50.8902 79.2426C50.9474 79.7003 50.8668 80.0994 50.3887 80.3734C50.3481 80.3984 50.2788 80.4428 50.2848 80.4628C50.406 80.8318 50.089 81.0908 49.9904 81.4047C49.9159 81.6336 50.0657 81.9526 49.5642 81.9126C49.507 81.9126 49.4084 82.0077 49.3798 82.0771C49.2533 82.336 49.1893 82.6299 49.0108 82.8545C48.8151 83.1034 48.5613 83.3473 48.2677 83.4918C47.8701 83.6863 47.9274 84.0847 47.645 84.3293C47.38 84.5632 46.9651 84.7177 46.9591 85.1211C46.2905 85.704 45.6218 86.2869 44.9593 86.8648C44.7349 86.8248 44.579 86.9299 44.4578 87.0744C44.0083 87.6072 43.2825 87.7667 42.6771 88.0857C42.5965 88.125 42.4926 88.1851 42.4173 88.1651C41.9452 88.0557 41.6569 88.4941 41.1787 88.4541C40.8098 88.424 40.3603 88.2745 40.032 88.5535C39.6857 88.8524 39.2075 88.5342 38.9192 88.743C38.487 89.057 38.1813 89.037 37.7491 88.743C37.5646 88.6186 37.1844 88.6085 36.948 88.8574C36.7522 89.062 36.4759 88.9225 36.2455 88.9626C35.9744 88.5985 35.5475 88.728 35.162 88.698C34.8736 88.6736 34.5393 88.8281 34.3089 88.6035C34.0145 88.3196 33.6516 88.4741 33.3233 88.449C33.0236 88.424 32.7179 88.4591 32.4183 88.439C32.1359 88.419 31.9861 88.115 31.6345 88.1701C31.3521 88.2152 31.0637 88.2152 30.822 87.9706C30.6376 87.7868 30.24 88.0356 30.0089 87.7817C29.9343 87.7016 29.7559 87.6716 29.6234 87.6573C29.2891 87.6323 28.96 87.6916 28.6664 87.4177C28.5052 87.2682 28.0783 87.4978 27.8592 87.2239C27.8133 87.1688 27.6981 87.1488 27.6062 87.1287C27.3231 87.0744 26.9723 87.2582 26.7531 87.0243C26.5453 86.8097 26.2223 86.8748 25.998 86.6803C25.7849 86.4965 25.4159 86.3663 25.1102 86.362C24.7707 86.362 24.5862 86.1725 24.3324 86.0731C23.779 85.8535 23.1797 85.694 22.7189 85.355C22.2747 85.0317 21.71 84.8672 21.3177 84.4588C21.024 84.1448 20.4593 84.0847 20.1709 83.7114C20.0271 83.5268 19.5196 83.2379 19.3871 83.1978C19.3005 83.1728 19.1628 83.1285 19.1507 83.0734C19.0476 82.5005 18.4362 82.2766 18.0672 81.8925C17.7796 81.5936 17.3241 81.3797 17.1396 81.0457C16.9378 80.6874 16.6788 80.4084 16.3618 80.1538C16.0328 79.8949 16.0448 79.4515 15.6239 79.2326C15.3642 79.0981 15.63 78.7641 15.4854 78.6447C15.261 78.4501 15.2783 78.1662 15.0765 78.0017C14.8514 77.8222 14.9147 77.6133 14.8973 77.4088C14.8687 76.9954 15.0299 76.5469 14.5977 76.2129V74.9076L14.6037 74.9126ZM34.3722 84.2492H35.4323C35.8359 84.2492 36.2455 84.2042 36.637 84.2592C37.0346 84.3193 37.2537 84.0354 37.5707 83.9903C37.8184 83.9553 38.0834 83.9402 38.3198 83.9903C38.6827 84.0697 38.7979 83.6863 39.1036 83.7214C39.5592 83.7757 39.9334 83.5519 40.343 83.4768C41.1034 83.3373 41.6802 82.8889 42.3887 82.69C42.7117 82.5999 42.8902 82.4111 43.0686 82.2265C43.4549 81.8282 43.9563 81.5693 44.4811 81.3797C44.9246 81.2202 45.2702 80.9663 45.4148 80.6323C45.6105 80.1788 46.0774 79.8255 46.054 79.2869C46.054 79.1825 46.1466 79.038 46.2506 78.973C46.6195 78.7341 46.688 78.3407 46.9365 78.0367C47.1721 77.7428 47.3107 77.3837 47.4891 77.0604C47.6683 76.7414 47.5584 76.298 47.5531 75.9096C47.5531 75.645 47.5411 75.3911 47.8468 75.2316C47.7549 75.1372 47.6563 75.0471 47.5644 74.9527C47.9386 74.7581 47.8581 74.4398 47.8581 74.1459C47.8581 73.8862 47.8182 73.6173 47.8701 73.3634C47.9334 73.0594 47.4778 72.965 47.5584 72.6861C47.6857 72.2326 47.4086 71.8493 47.1669 71.5253C46.9131 71.1762 46.487 70.9023 46.0834 70.6584C45.7837 70.4739 45.4201 70.3644 45.0865 70.22C44.7981 70.0905 44.4811 70.0004 44.2041 69.8559C43.8698 69.6814 43.4782 69.6571 43.1499 69.5369C42.8209 69.4175 42.464 69.273 42.1583 69.0792C42.1237 69.0592 42.0604 69.0692 42.0085 69.0792C41.5936 69.1636 41.3632 68.7752 40.925 68.7902C40.5847 68.8002 40.2677 68.4412 39.8415 68.5556C39.657 68.2967 39.3574 68.2316 39.0637 68.3067C38.6541 68.4062 38.4757 68.0478 38.1301 68.0328C37.5594 68.0028 36.9307 68.2023 36.4412 67.7789H34.1764C33.8767 68.0628 33.4905 68.0528 33.0929 68.0428C32.7413 68.0328 32.3897 68.0328 32.032 68.0428C31.6864 68.0528 31.3461 68.0822 31.0065 68.1022C30.7588 68.4262 30.3665 68.2517 30.0435 68.3067C29.911 68.3318 29.7958 68.4212 29.6693 68.4712C29.3636 68.5907 29.0579 68.6851 28.8222 68.9297C28.4992 69.263 28.0384 69.5126 27.7847 69.8709C27.5543 70.1949 27.3058 70.4889 27.0295 70.7778C26.9256 70.8823 26.903 71.0718 26.8164 71.2213C26.3842 71.9787 25.9347 72.7354 25.4905 73.4929C25.3293 73.7768 25.0011 74.0457 25.1735 74.4248C24.7759 74.6637 24.9431 75.0428 24.8565 75.356C24.7707 75.67 24.4996 75.9239 24.5568 76.298C24.6208 76.7264 24.5975 77.1699 24.5628 77.6033C24.5282 78.0518 24.7646 78.4101 25.0236 78.7441C25.2081 78.983 25.4506 79.1725 25.5658 79.4715C25.6636 79.7304 26.1019 79.8255 26.1019 80.1989C26.1019 80.3233 26.3436 80.5279 26.5054 80.5529C27.162 80.6673 27.427 81.1702 27.8592 81.5042C27.9631 81.5836 27.9112 81.8131 28.0844 81.9426C28.326 82.1221 28.0497 82.1271 27.9518 82.1565C27.5543 82.2966 27.479 82.4454 27.7154 82.66C27.7847 82.7251 27.8652 82.7794 27.9285 82.8445C28.1589 83.0834 28.4013 83.2729 28.8162 83.2178C28.9201 83.2028 29.0466 83.3523 29.1739 83.3974C29.652 83.5619 30.1015 83.7807 30.557 83.9803C30.8446 84.1047 31.2309 83.8759 31.5426 84.1348C31.8709 84.4087 32.3091 84.2192 32.6893 84.2442C33.2427 84.2793 33.7954 84.2542 34.3488 84.2542L34.3722 84.2492Z" fill="#D9315A"/>
<path d="M138.556 87.3382C138.556 86.9441 138.551 86.5457 138.556 86.1524C138.562 85.7733 138.419 85.3549 138.897 85.091C138.897 84.6976 138.903 84.3042 138.908 83.9101C139.461 83.6061 139.018 83.0132 139.3 82.7293C139.669 82.3609 139.392 81.9175 139.617 81.6536C139.957 81.2452 139.911 80.8461 139.928 80.4227C140.384 80.0944 140.256 79.6359 140.274 79.2125C140.816 78.9679 140.412 78.375 140.845 78.076C141.104 77.8972 140.868 77.5982 140.977 77.3887C141.064 77.2242 141.34 77.1548 141.306 76.9102C141.231 76.4224 141.756 76.0733 141.68 75.5455C141.628 75.1621 142.125 74.7981 142.003 74.3346C141.974 74.2252 142.107 74.0807 142.182 73.9613C142.464 73.5028 142.781 73.0644 142.677 72.5065C142.625 72.2025 143.121 72.0931 143.035 71.739C142.96 71.4601 143.024 71.1511 143.035 70.8572C143.606 70.4888 143.386 69.9452 143.341 69.4975C143.294 69.0641 143.871 68.8345 143.703 68.4361C143.519 67.9927 144.003 67.7438 144.066 67.3697C144.101 67.1458 144.505 67.0407 144.395 66.7517C144.262 66.4084 144.689 66.264 144.752 65.985C144.804 65.7654 145.011 65.5766 145.069 65.3621C145.115 65.1925 145.196 65.0531 145.363 65.0881C145.922 65.2026 146.181 64.8542 146.504 64.5896C146.689 64.4401 146.861 64.4008 147.075 64.5996C147.323 64.8292 147.726 64.7191 147.928 65.0037C148.107 65.2526 148.418 65.347 148.741 65.4414C149.138 65.5566 149.127 65.99 149.357 66.2439C149.594 66.5028 149.928 66.6673 149.916 67.0958C149.911 67.3847 150.141 67.7037 150.337 67.9676C150.464 68.1321 150.619 68.2616 150.573 68.4812C150.493 68.9046 150.654 69.2136 151.034 69.5118C151.299 69.7164 151.449 70.0454 151.594 70.3444C151.674 70.5139 151.57 70.7578 151.668 70.9072C152.054 71.5102 152.435 72.1131 152.769 72.7404C152.861 72.9099 152.919 73.0894 153.011 73.2439C153.161 73.4928 153.443 73.6873 153.668 73.9012C153.443 74.3346 153.87 74.6386 154.049 74.9526C154.256 75.3159 154.383 75.7644 154.815 76.014C155.109 76.1828 155.046 76.4374 155.04 76.6763C155.04 76.8558 155.144 76.9552 155.334 76.9502C155.772 76.9402 155.737 77.1948 155.732 77.4387C155.732 77.6376 155.714 77.8271 156.049 77.8471C156.503 77.8721 156.683 78.2305 156.942 78.4701C157.195 78.699 157.219 79.068 157.553 79.2919C157.847 79.4914 158.158 79.7003 158.187 80.1037C158.198 80.2581 158.999 80.2782 159.091 80.1287C159.137 80.0493 159.167 79.9449 159.155 79.8598C159.121 79.5959 159.276 79.4263 159.438 79.2125C159.633 78.9529 160.187 79.1975 160.187 78.769C160.187 78.4701 160.492 78.38 160.654 78.1911C160.717 78.111 160.884 78.0316 160.867 77.9766C160.688 77.2992 161.362 77.0503 161.737 76.6462C161.829 76.5468 161.91 76.3873 161.898 76.2679C161.875 75.9939 162.013 75.8194 162.221 75.6349C162.526 75.361 162.763 74.8231 162.947 74.2652C163.016 74.0457 163.207 73.8611 163.27 73.6423C163.327 73.4577 163.27 73.2489 163.287 73.0544C163.299 72.97 163.362 72.8698 163.443 72.8155C164.042 72.4264 164.111 71.7541 164.538 71.2806C164.797 70.9966 164.486 70.6233 164.872 70.3444C165.126 70.1598 165.183 69.7765 165.344 69.4875C165.506 69.1935 165.674 68.9246 165.725 68.5756C165.777 68.2416 166.29 67.9476 166.313 67.6186C166.336 67.2402 166.895 67.1058 166.722 66.7124C167.155 66.5129 167.016 65.985 167.443 65.7805C167.541 65.7354 167.65 65.656 167.679 65.5716C167.828 65.1775 167.996 64.7341 168.319 64.4802C168.676 64.1962 168.722 63.8079 169.011 63.5239C169.143 63.3945 169.131 63.1498 169.27 63.0304C169.829 62.5619 170.29 62.0591 170.514 61.3911C170.578 61.1973 170.889 60.9627 171.114 60.9383C171.529 60.8983 172.019 60.7688 172.365 61.1772C172.485 61.3217 172.607 61.5406 172.883 61.5012C173.344 61.4412 173.482 61.6257 173.684 61.984C173.881 62.3431 174.013 62.7965 174.485 63.0404C174.693 63.1498 174.693 63.2843 174.48 63.5289C174.33 63.6984 174.249 63.8472 174.266 64.0518C174.283 64.2463 174.198 64.5603 174.307 64.6196C174.952 64.9787 174.278 65.7161 174.9 66.0544C175.125 66.5229 175.286 67.0314 175.753 67.3797C175.944 67.5242 175.996 67.6787 176.001 67.8882C176.013 68.3067 175.817 68.7794 176.335 69.0984C176.335 69.5419 176.318 69.9903 176.347 70.4338C176.352 70.5532 176.508 70.6676 176.601 70.7828C176.745 70.9716 176.721 71.1511 176.514 71.2856C176.295 71.4301 176.261 71.6597 176.347 71.8091C176.934 72.8255 176.595 73.9062 176.664 74.9526C176.681 75.2215 176.871 75.381 176.969 75.5855C177.09 75.8395 177.068 76.1735 177.004 76.4574C176.906 76.8858 177.177 77.1848 177.361 77.5231C177.546 77.8621 177.846 78.1661 177.707 78.5895C177.678 78.6789 177.678 78.8484 177.724 78.8685C178.289 79.1074 177.846 79.7003 178.306 80.0193C178.554 80.1938 178.664 80.5872 178.71 80.8911C178.751 81.1551 178.825 81.3496 179.05 81.5191C179.263 81.6786 179.402 81.8424 179.454 82.122C179.488 82.3059 179.73 82.4854 179.811 82.7293C179.88 82.9388 180.18 83.0933 180.393 83.2578C180.646 83.4617 180.871 83.6562 180.808 84.0052C180.79 84.1197 180.888 84.2992 181.004 84.3686C181.886 84.9215 182.225 85.8684 183.061 86.4563C183.188 86.8347 183.441 87.1287 183.782 87.3876C183.851 87.4376 183.908 87.5821 183.874 87.6422C183.621 88.0506 183.534 88.6085 182.992 88.778C182.675 88.8774 182.186 88.9568 181.869 88.6829C181.626 88.469 181.355 88.489 181.09 88.5191C180.692 88.5684 180.462 88.3889 180.22 88.17C180.128 88.0849 180.064 87.8961 179.869 87.9905C179.799 88.0256 179.77 88.155 179.77 88.2444C179.765 88.8874 179.753 89.5304 179.77 90.1727C179.776 90.3973 179.667 90.5267 179.5 90.6762C178.519 91.5481 178.341 91.6074 176.969 91.483C176.624 91.2191 176.174 91.2291 175.77 91.1146C175.483 91.0345 175.136 90.7506 175.067 90.5017C174.947 90.0983 174.733 89.7192 174.63 89.3208C174.543 89.0018 174.658 88.6879 174.335 88.3746C174.059 88.115 174.474 87.6122 174.07 87.2932C173.736 87.0242 174.168 86.4764 173.592 86.2718C173.552 86.2568 173.558 86.0773 173.592 85.9879C173.742 85.5644 173.408 85.2655 173.241 84.9215C173.137 84.7126 172.947 84.5131 172.918 84.2992C172.883 84.0496 172.883 83.8157 172.613 83.6612C172.676 83.0533 172.22 82.6899 171.76 82.3359C171.569 82.1914 171.488 82.0369 171.523 81.8231C171.575 81.474 171.546 81.145 171.183 80.9062C171.293 80.2439 170.699 79.7904 170.468 79.2318C170.347 78.9386 169.967 78.724 169.702 78.4701C169.385 78.6096 169.085 78.7891 168.751 78.8685C168.29 78.9829 167.973 79.3963 167.414 79.3069C167.074 79.2518 166.987 79.5858 166.757 79.7153C166.774 80.1738 166.301 80.3483 166.036 80.6422C166.192 81.0306 165.656 81.1701 165.627 81.5441C165.604 81.8724 165.166 82.1614 165.034 82.5054C164.953 82.7 164.838 82.8344 164.699 82.9839C164.215 83.5017 164.186 83.8107 164.549 84.3986C164.705 84.6525 164.705 84.7469 164.532 84.9064C164.296 85.121 164.031 85.3156 163.811 85.5394C163.714 85.6388 163.633 85.7933 163.644 85.9178C163.662 86.1874 163.524 86.3612 163.327 86.5558C162.556 87.3232 162.561 87.3232 161.46 87.6222C161.316 87.6615 161.218 87.841 161.074 87.8811C160.941 87.9161 160.717 87.8911 160.624 87.816C160.446 87.6715 160.279 87.5921 160.025 87.6072C159.881 87.6172 158.826 87.1537 158.728 87.0936C158.4 86.8898 158.515 86.4513 158.14 86.2718C158.244 86.1674 158.342 86.0623 158.446 85.9578C158.353 85.9178 158.262 85.8584 158.158 85.8384C157.864 85.7933 157.472 85.9779 157.42 85.4793C157.397 85.2855 157.098 85.106 156.907 84.9315C156.521 84.5731 156.123 84.2241 155.726 83.8708C155.824 83.3522 155 83.2972 155.011 82.7794C155.011 82.5998 154.671 82.416 154.481 82.2365C154.325 82.092 154.019 81.9375 154.037 81.8131C154.112 81.2745 153.346 81.2151 153.288 80.7266C153.253 80.4477 152.769 80.2238 152.66 79.9249C152.544 79.6059 152.199 79.4964 152.066 79.2468C151.904 78.9428 151.783 78.6346 151.449 78.425C151.311 78.3406 151.219 78.2011 151.075 78.1261C150.994 78.081 150.844 78.096 150.746 78.1311C150.695 78.1511 150.637 78.2805 150.66 78.3306C150.723 78.4551 150.902 78.5645 150.908 78.6839C150.936 79.2769 150.931 79.8698 150.908 80.4627C150.908 80.5872 150.775 80.7066 150.7 80.8311C150.545 81.0957 150.539 81.1007 150.695 81.3346C150.746 81.419 150.896 81.474 150.908 81.5534C150.982 82.062 150.746 82.6098 151.242 83.0733C151.398 83.2178 151.04 83.4073 151.005 83.5568C150.914 83.9702 150.695 84.0896 150.222 84.0746C149.985 84.0646 149.755 84.2892 149.501 84.3436C149.288 84.3936 149.046 84.3636 148.815 84.3486C148.602 84.3385 148.354 84.4237 148.187 84.2241C147.985 83.9802 147.53 84.1047 147.357 83.8057C147.288 83.6813 147.162 83.5668 147.138 83.4416C147.104 83.1978 147.138 82.9489 147.121 82.7C147.11 82.5655 147.058 82.4253 146.989 82.3059C146.815 82.0219 146.55 81.758 146.464 81.459C146.372 81.13 146.446 80.7717 146.441 80.4277C146.441 80.3833 146.424 80.3232 146.383 80.3032C146.291 80.2582 146.187 80.2038 146.09 80.2038C145.992 80.2038 145.836 80.2481 145.812 80.3082C145.755 80.4377 145.766 80.5922 145.755 80.7316C145.709 81.3446 145.842 81.9475 145.443 82.5555C145.161 82.9889 145.617 83.5861 145.213 84.1047C144.879 84.5281 145.133 85.0559 145.069 85.5344C145.029 85.8584 144.602 86.0572 144.712 86.4513C144.787 86.7303 144.729 87.0393 144.729 87.3382V88.3746C144.729 88.6728 144.718 88.9668 144.735 89.2658C144.746 89.4002 144.81 89.5354 144.861 89.6649C145.052 90.1083 145.023 90.2771 144.672 90.4817C144.407 90.6362 144.032 90.6211 143.836 90.885L142.672 91.0395C142.286 90.7806 142.09 91.3535 141.68 91.199C141.444 91.1096 141.064 91.2641 140.845 91.159C140.562 91.0295 140.274 90.9151 139.991 90.7906C139.202 90.4416 139.225 90.4216 138.781 89.7693C138.666 89.5998 138.534 89.4753 138.539 89.2608C138.556 88.6185 138.545 87.9755 138.545 87.3332L138.556 87.3382Z" fill="#D9315A"/>
<path d="M77.7995 89.7843C77.7249 89.7843 77.6444 89.7693 77.5691 89.7743C77.3673 89.7843 77.2122 89.7243 77.0849 89.5798C76.8952 89.3709 76.6874 89.1764 76.4803 88.9818C76.3704 88.8774 75.9901 88.8524 75.8636 88.9668C75.6099 89.1964 75.3276 89.3058 74.9526 89.2408C74.7335 89.2064 74.5264 89.2064 74.3186 89.3609C74.2268 89.4303 73.9557 89.3802 73.7998 89.3209C73.6786 89.2708 73.6214 89.1263 73.4716 89.2808C73.2931 89.4603 73.0913 89.5748 72.7796 89.5247C72.44 89.4754 72.0884 89.4553 71.7481 89.4704C71.4484 89.4854 71.3618 89.1564 71.0621 89.2014C71.0448 89.2014 70.9703 89.082 70.9929 89.0419C71.1088 88.788 70.8031 88.6335 70.8031 88.414C70.8031 88.1851 70.8092 87.9455 70.8551 87.7216C70.907 87.4527 70.5554 87.2882 70.6533 86.9942C70.7399 86.7453 70.7105 86.4664 70.7165 86.2017C70.7165 86.1474 70.6706 86.0873 70.63 86.033C70.4402 85.7533 70.4801 85.4844 70.6706 85.2255C70.8604 84.9615 70.9183 84.6826 70.7105 84.4237C70.578 84.2592 70.6646 84.1097 70.6473 83.9552C70.9703 83.7507 70.9123 83.4417 70.9296 83.1577C71.0448 81.5685 71.1374 79.9792 71.276 78.395C71.3099 77.9916 71.0968 77.5231 71.5757 77.1991C71.6103 76.6713 71.6442 76.1435 71.6788 75.6099C71.2353 75.371 71.9039 75.2015 71.7255 74.9776C71.7714 74.3497 71.7827 73.7167 71.8693 73.0944C71.9152 72.7554 71.7195 72.357 72.117 72.0781C72.1283 72.0681 72.0771 71.978 72.0365 71.9386C71.8347 71.724 72.0131 71.4952 71.9785 71.2756C72.3708 71.0067 72.2382 70.6183 72.2729 70.2793C72.3361 69.617 72.3647 68.954 72.4167 68.2967C72.434 68.0671 72.4573 67.8582 72.2382 67.6587C72.1343 67.5643 72.3595 67.3054 72.1629 67.2102C72.0078 67.1358 71.846 67.0858 71.7021 66.9714C71.587 66.8812 71.4138 66.9413 71.3099 67.0608C71.2413 67.1459 71.2067 67.1409 71.1435 67.0557C71.0968 66.9964 71.0621 66.8862 70.901 66.9864C70.6992 67.1108 70.4575 67.2553 70.2324 67.2553C69.9501 67.2553 69.737 67.4248 69.5118 67.4148C69.2242 67.3998 69.0337 67.5643 68.786 67.5893C68.5323 67.6186 68.3651 67.8282 68.0594 67.7731C67.829 67.7288 67.6272 68.0277 67.3396 67.9226C67.0859 68.0671 66.8148 68.1322 66.5151 68.1071C66.3307 68.4011 65.9331 68.1372 65.708 68.341C65.6447 68.3961 65.5009 68.4361 65.4083 68.4161C65.0913 68.346 64.8436 68.5005 64.5673 68.5656C64.3309 68.625 64.1524 68.8095 63.8467 68.7551C63.6163 68.7151 63.4258 68.974 63.1262 68.9139C62.9823 68.8896 62.8031 69.0391 62.6367 69.0684C62.4922 69.0934 62.325 69.0834 62.1812 69.0491C61.9214 68.989 61.7776 69.1785 61.5698 69.2129C61.4087 69.2429 61.2875 69.2429 61.2762 69.4224C61.2476 69.7314 61.3281 70.0654 61.0111 70.3143C61.2016 70.4388 61.115 70.5182 61.0111 70.6777C60.902 70.8522 60.9359 71.1161 60.9825 71.3307C61.0051 71.4401 61.1437 71.5295 61.1203 71.679C61.0857 71.9436 61.0804 72.2076 61.0631 72.4715C61.0458 72.7003 60.9765 72.9349 61.2528 73.0944C61.161 73.1889 61.0224 73.2389 60.9938 73.3984C60.9359 73.7017 61.0518 73.9613 61.1783 74.2202C61.0111 74.5835 61.42 74.8775 61.3454 75.2416C61.2762 75.5656 61.2995 75.9039 61.2649 76.2329C61.2415 76.4124 61.3168 76.5318 61.432 76.6763C61.5013 76.7657 61.4087 76.9402 61.4494 77.0547C61.5359 77.2792 60.9765 77.4538 61.3974 77.6876L61.3515 78.38C61.3341 78.6096 61.3281 78.8435 61.2995 79.0723C61.2701 79.3069 61.2528 79.5258 61.4893 79.6953C61.4546 80.1588 61.432 80.6172 61.3628 81.0757C61.3515 81.1751 61.0571 81.2645 61.1497 81.3797C61.4433 81.743 61.2995 82.1314 61.2822 82.5054C61.2762 82.6599 61.3688 82.7493 61.4719 82.8395C61.6451 82.9839 61.7603 83.1377 61.691 83.3573C61.6338 83.5418 61.7663 83.7757 61.5698 83.9152C61.3914 84.0446 61.4147 84.1941 61.3801 84.3536C61.3628 84.4387 61.2762 84.5181 61.2016 84.5832C60.9479 84.787 60.585 84.9415 60.4577 85.1904C60.3079 85.4743 60.3711 85.8384 60.3425 86.1624C60.3252 86.3612 60.3139 86.5608 60.3019 86.7603C60.2906 86.9492 60.3501 87.1902 60.4811 87.4827C60.5443 87.6272 60.6422 87.7617 60.6708 87.9111C60.7002 88.0356 60.6362 88.1751 60.6535 88.3045C60.6829 88.5184 60.9246 88.6729 60.844 88.9325C60.786 89.1213 60.7981 89.3259 60.7981 89.5247C60.786 89.8788 60.3598 90.1327 60.4863 90.5267C60.4984 90.5611 60.4118 90.6262 60.3659 90.6762C60.1694 90.9001 59.7605 90.9745 59.7372 91.3335C59.7372 91.3686 59.628 91.4079 59.5647 91.4279C59.3629 91.488 59.1612 91.5381 58.9594 91.5974C58.7117 91.6725 58.6138 91.9565 58.3194 91.9565C58.0543 91.9565 57.7833 91.9415 57.5183 91.9164C57.3511 91.9014 57.2419 91.9465 57.1094 92.0359C57.0055 92.106 56.8444 92.116 56.7119 92.1653C56.3023 92.3148 56.1758 92.3048 55.9333 92.0709C55.7262 91.8764 55.5245 91.6725 55.3227 91.478C55.2707 91.4279 55.1789 91.3786 55.1789 91.3285C55.1841 91.0245 54.8039 90.9001 54.7519 90.6812C54.7 90.4366 54.4124 90.2378 54.5449 89.9631C54.5968 89.8587 54.764 89.7543 54.7467 89.6692C54.7233 89.5598 54.5622 89.4854 54.5795 89.3309C54.6134 89.067 54.6307 88.8023 54.6367 88.5384C54.6367 88.3589 54.7294 88.2444 54.8619 88.115C54.9424 88.0356 54.9424 87.8611 54.9191 87.7416C54.8905 87.5921 54.6255 87.497 54.7346 87.3182C54.8152 87.1838 55.0343 87.1137 54.9884 86.9141C55.2248 86.8047 55.2474 86.6202 55.2594 86.4113C55.2941 85.7833 55.3807 85.1561 55.3746 84.5231C55.3746 84.0496 55.6683 83.5518 55.2534 83.1034C55.2767 82.7393 55.2993 82.376 55.334 82.0119C55.3513 81.8374 55.3167 81.708 55.1789 81.5685C55.0863 81.4791 55.5071 81.394 55.2474 81.2252C55.0923 81.125 55.1841 80.9806 55.1789 80.8561C55.1668 80.6373 54.8845 80.4928 54.9823 80.2289C55.0516 80.0443 55.0343 79.8348 55.029 79.6359C55.023 79.4464 55.1728 79.2268 54.9823 79.068C54.7753 78.8935 54.8845 78.699 54.8845 78.5094C54.8845 78.3156 54.8965 78.1161 54.9078 77.9165C54.4756 77.6776 54.9711 77.1941 54.5675 76.9502C54.5675 76.7557 54.5908 76.5569 54.5675 76.3673C54.5215 76.0233 54.8099 75.6499 54.441 75.336C54.4176 75.3159 54.4237 75.2766 54.4237 75.2466C54.4237 74.9226 54.4297 74.5936 54.435 74.2703C54.1007 73.9813 54.3311 73.6423 54.3431 73.3283C54.3544 73.0294 54.0088 72.8298 54.1413 72.5015C54.2392 72.2619 54.1933 71.978 54.2106 71.714C53.8356 71.4501 54.1759 71.0618 54.0261 70.8021C53.801 70.4188 53.8763 70.0504 53.8989 69.6713C53.9109 69.5169 53.801 69.4425 53.7317 69.328C53.6286 69.1685 53.5247 68.994 53.5073 68.8145C53.484 68.6199 53.4667 68.4612 53.3289 68.2766C53.2016 68.1071 53.4268 67.8282 53.2709 67.6186C53.1444 67.4548 52.9479 67.3297 52.8274 67.1659C52.6949 66.9864 52.5157 66.7768 52.5217 66.583C52.5278 66.3384 52.3373 66.1638 52.326 65.955C52.3026 65.591 52.3606 65.2276 52.3892 64.8636C52.7694 64.6697 52.5391 64.1662 52.9946 63.9867C53.2709 63.8823 53.3921 63.6284 53.5359 63.4038C53.6165 63.2793 53.7784 63.1349 53.9395 63.3745C53.9568 63.3988 54.0028 63.4288 54.0261 63.4238C54.2625 63.3644 54.5155 63.3194 54.7233 63.215C54.8099 63.1699 54.8272 62.9804 54.8212 62.8609C54.8099 62.5469 54.9944 62.3924 55.3114 62.298C55.5817 62.2186 55.8302 62.0441 56.1472 62.1435C56.3369 61.9097 56.614 61.944 56.867 61.9941C57.1553 62.0491 57.2826 61.7251 57.5935 61.8145C57.7953 61.8746 58.1003 61.9047 58.2501 61.8145C58.4692 61.6801 58.6597 61.6951 58.8841 61.6901C59.1785 61.6801 59.5007 61.8346 59.7545 61.6257C59.9736 61.4462 60.2906 61.6951 60.4811 61.4612C60.5157 61.4212 60.6076 61.3961 60.6768 61.3961C60.8673 61.3961 61.0571 61.4111 61.2528 61.4212L61.9448 61.4562C62.1353 61.2366 62.4462 61.3518 62.6533 61.2667C62.8671 61.1773 63.0396 61.0972 63.276 61.1272C63.3912 61.1422 63.5064 61.1522 63.6216 61.1422C64.1697 61.0972 64.7457 61.3861 65.2705 61.0378C65.3165 61.0078 65.4204 61.0478 65.4949 61.0428C65.9678 61.0228 66.4692 61.2316 66.9067 60.9184C67.2703 60.8933 67.6619 61.0821 67.9849 60.7982C67.9849 60.7982 68.0941 60.8633 68.1287 60.9083C68.2386 61.0428 68.4058 60.9827 68.5496 61.0028C68.78 61.0378 68.8839 60.7639 69.1602 60.8282C69.414 60.8883 69.691 60.8633 69.9614 60.8783C70.1925 60.8883 70.4229 60.9033 70.6533 60.9133C70.7278 60.9133 70.8204 60.9427 70.8837 60.9234C71.1548 60.8232 71.4025 60.7038 71.7255 60.7639C71.9845 60.8132 72.2608 60.7982 72.5266 60.8132C73.126 60.4849 73.7712 60.7088 74.3992 60.7238C74.7455 60.7338 74.9812 60.4499 75.3562 60.5493C75.6445 60.6244 75.9841 60.6587 76.2665 60.5893C76.5089 60.5293 76.722 60.3898 76.9931 60.4449C77.097 60.4699 77.2581 60.4599 77.298 60.5193C77.5465 60.8633 78.0419 60.9327 78.313 61.2617C78.4395 61.4212 78.4334 61.5556 78.4334 61.7151C78.4334 61.7752 78.4741 61.8796 78.5027 61.8796C78.8829 61.8946 78.8829 62.1035 78.8491 62.3531C78.8257 62.5419 79.0102 62.5176 79.1487 62.5569C79.212 62.577 79.2925 62.7615 79.2692 62.7815C78.9582 63.0304 79.0674 63.4538 78.7565 63.6927C78.7677 63.8973 78.5607 63.9674 78.4221 64.0618C78.255 64.1762 78.2663 64.2513 78.4221 64.3507C78.4914 64.4008 78.4681 64.4351 78.3762 64.4902C78.255 64.5696 78.0939 64.6497 78.0479 64.7591C78.0133 64.8342 78.1571 64.9587 78.1978 65.0681C78.2204 65.1282 78.1978 65.1976 78.1857 65.2677C78.1631 65.4315 78.261 65.4815 78.4395 65.5116C78.9756 65.601 79.2813 65.91 79.2579 66.3734C79.2406 66.7024 79.5636 66.9563 79.4657 67.2853C79.6329 67.3998 79.6555 67.5493 79.6329 67.7238C79.5982 68.0521 79.6494 68.4011 79.5403 68.7101C79.4311 69.0191 79.7767 69.1735 79.7481 69.4375C79.7247 69.6613 79.7014 69.9009 79.7767 70.1098C79.8226 70.2342 79.9032 70.2793 79.7594 70.4037C79.5922 70.5482 79.6035 70.7478 79.7308 70.9373C79.7827 71.0167 79.846 71.1061 79.8512 71.1912C79.8806 71.5696 79.6555 71.9679 80.0071 72.312L79.9664 72.9099L79.9032 73.8018C80.1976 74.0407 80.0876 74.3397 80.0764 74.6236C80.4167 74.9326 80.2495 75.3009 80.2322 75.6449C80.1976 76.4074 80.1682 77.1698 80.0651 77.9265C80.0071 78.36 80.2548 78.8635 79.7707 79.2318C79.7707 79.2318 79.8979 79.3713 79.9612 79.4464C79.483 79.6409 80.0824 79.8448 79.9499 80.0887C79.8286 80.3083 79.8919 80.6072 79.8746 80.8761L79.8286 81.5685C79.8113 81.8324 79.8399 82.1071 79.7594 82.361C79.6728 82.6499 80.059 82.7944 79.9664 83.0883C79.8859 83.3372 79.9152 83.6162 79.8979 83.8801L79.7767 85.5645C79.7594 85.8284 79.7421 86.0923 79.7187 86.3562C79.7074 86.4857 79.742 86.5958 79.8166 86.7203C79.9664 86.9842 79.9958 87.2782 79.7187 87.512C79.6381 87.5821 79.6208 87.5922 79.7074 87.6565C79.8685 87.7767 79.9092 87.9061 79.7481 88.0699C79.5862 88.2344 79.471 88.429 79.3385 88.6085C79.471 88.9375 78.9989 89.0963 79.0501 89.4103C79.0734 89.5648 78.9522 89.5948 78.7851 89.6399C78.255 89.7843 78.261 89.8044 77.8288 89.7793L77.7995 89.7843Z" fill="#D9315A"/>
<path d="M125.513 62.5025C125.738 62.5175 125.964 62.5175 126.182 62.5468C126.418 62.5769 126.701 62.4925 126.874 62.7264C126.897 62.7564 126.989 62.7564 127.047 62.7614C127.364 62.7814 127.686 62.8015 128.003 62.8208C128.228 63.0754 128.568 63.0053 128.868 63.0404C128.926 63.0454 129.012 63.0654 129.03 63.1004C129.15 63.3293 129.427 63.1898 129.612 63.2993C130.072 63.5732 130.568 63.8128 131.058 64.0517C131.288 64.1661 131.536 64.2756 131.703 64.4851C131.859 64.6797 132.009 64.9035 132.326 64.9386C132.367 65.1231 132.464 65.2375 132.689 65.3169C132.851 65.372 132.868 65.5809 132.949 65.716C133.098 65.9499 133.335 66.1545 133.565 66.3433C133.842 66.5729 134.009 66.8568 134.119 67.1558C134.17 67.3003 134.251 67.4097 134.36 67.4841C134.516 67.5842 134.436 67.7387 134.528 67.8481C134.723 68.077 134.723 68.391 134.948 68.6156C134.873 68.8895 135.173 69.1084 135.11 69.3773C135.07 69.5518 135.317 69.6269 135.288 69.8207C135.271 69.9159 135.496 70.0153 135.438 70.1748C135.75 70.2992 135.513 70.5782 135.657 70.7577C135.772 70.9022 135.922 71.0867 135.911 71.2405C135.887 71.6346 136.153 71.9385 136.303 72.2618C136.579 72.8548 136.833 73.4627 137.179 74.0306C137.283 74.2051 137.109 74.3997 137.322 74.5641C137.444 74.6536 137.421 74.8531 137.548 74.9826C137.594 75.0269 137.507 75.1571 137.548 75.2215C137.634 75.3609 137.807 75.4753 137.853 75.6198C137.911 75.7943 137.813 76.0289 137.911 76.1684C138.008 76.3079 137.962 76.4917 138.13 76.5968C138.17 76.6211 138.205 76.7013 138.188 76.7363C138.084 76.9502 138.331 77.0746 138.343 77.2591C138.355 77.4437 138.262 77.6182 138.429 77.807C138.522 77.9121 138.458 78.121 138.453 78.2805C138.447 78.475 138.418 78.6689 138.412 78.8584C138.412 78.9328 138.435 79.0179 138.481 79.0773C138.539 79.1524 138.579 79.2024 138.47 79.2568C138.337 79.3269 138.366 79.4463 138.355 79.5507C138.343 79.6902 138.355 79.8347 138.314 79.9641C138.285 80.0593 138.153 80.1236 138.118 80.2188C138.072 80.3432 138.118 80.4827 137.968 80.5871C137.882 80.6422 137.882 80.8017 137.801 80.846C137.639 80.9311 137.715 81.175 137.576 81.17C137.231 81.16 137.259 81.3495 137.237 81.5391C137.213 81.7179 137.277 81.9124 137.052 82.0669C136.966 82.127 137.011 82.3258 136.972 82.4553C136.908 82.6448 137.046 82.7943 137.087 82.9588C136.833 83.0783 136.89 83.3021 136.908 83.4766C136.931 83.7012 136.701 83.8006 136.666 83.9802C136.631 84.169 136.637 84.3685 136.608 84.5581C136.603 84.5974 136.499 84.6224 136.475 84.6675C136.395 84.807 136.291 84.9314 136.204 85.0659C136.124 85.1953 136.17 85.3598 136.015 85.5043C135.911 85.5994 135.934 85.8133 135.934 85.9728C135.934 86.1223 135.887 86.2467 135.732 86.3118C135.485 86.4162 135.519 86.6852 135.294 86.8146C135.098 86.9291 134.89 87.0542 134.827 87.2981C134.799 87.4075 134.597 87.4776 134.482 87.577C134.326 87.7115 134.072 87.6665 133.922 87.831C133.784 87.9804 133.611 88.1249 133.415 88.21C133.121 88.3345 132.799 88.4039 132.522 88.5583C132.291 88.499 132.17 88.7929 131.917 88.6928C131.779 88.6385 131.692 88.7479 131.594 88.8123C131.496 88.8773 131.398 88.9567 131.283 88.9768C131.139 89.0018 131 88.9768 130.839 89.0569C130.615 89.1713 130.292 89.1813 130.113 89.3308C129.859 89.5446 129.444 89.5296 129.26 89.7993C129.11 90.0131 128.833 90.0131 128.62 90.0982C128.384 90.1926 128.113 90.257 127.888 90.3722C127.669 90.4866 127.364 90.3121 127.208 90.556C127.018 90.551 126.776 90.4766 126.649 90.556C126.349 90.7405 126.049 90.6461 125.744 90.6611C125.445 90.6711 125.111 90.5016 124.851 90.7706C124.534 90.7505 124.212 90.7355 123.895 90.7155C123.733 90.9401 123.623 90.7505 123.474 90.6955C123.346 90.6561 123.168 90.6161 123.029 90.7405C123.001 90.7706 122.903 90.7906 122.897 90.7806C122.753 90.561 122.505 90.6361 122.292 90.6161C121.975 90.586 121.641 90.6161 121.341 90.5417C121.082 90.4766 120.857 90.3171 120.569 90.3421C120.408 90.3572 120.384 90.1826 120.275 90.1676C120.142 90.1476 120.05 90.1083 119.958 90.0231C119.906 89.9781 119.75 89.9488 119.716 89.9781C119.514 90.1526 119.341 90.1626 119.18 89.9488C118.678 89.7792 118.257 89.4853 117.785 89.2657C117.675 89.2164 117.583 89.1613 117.451 89.1513C117.364 89.1413 117.249 89.1162 117.208 89.0619C117.065 88.8723 116.839 88.7879 116.632 88.6778C116.454 88.5834 116.263 88.5183 116.114 88.3595C115.923 88.155 115.779 87.886 115.428 87.841C115.358 87.4075 114.828 87.228 114.685 86.8447C114.609 86.6451 114.523 86.5056 114.275 86.4663C114.177 86.4513 114.171 86.3612 114.131 86.2918C114.033 86.1073 114.027 85.8734 113.838 85.7289C113.445 85.4399 113.393 84.9865 113.117 84.6425C113.209 84.4579 112.95 84.3785 112.95 84.204C112.95 84.0595 112.846 83.9151 112.771 83.7756C112.679 83.6111 112.488 83.4566 112.494 83.2971C112.494 83.1083 112.281 83.0282 112.304 82.8587C112.321 82.6899 112.056 82.6048 112.137 82.4202C112.016 82.3258 111.952 82.2164 111.975 82.0619C112.01 81.8423 111.999 81.6185 112.039 81.3996C112.079 81.1951 111.969 81.0456 111.895 80.8711C111.832 80.7266 111.958 80.5027 111.872 80.3976C111.739 80.2388 111.756 80.0986 111.768 79.9398C111.78 79.7753 111.808 79.6058 111.802 79.4413C111.791 79.2317 111.93 79.0129 111.745 78.8083C111.584 78.6345 111.802 78.3899 111.693 78.2655C111.503 78.0566 111.549 77.8621 111.567 77.6475C111.578 77.4787 111.335 77.4036 111.399 77.2041C111.445 77.0596 111.491 76.8858 111.302 76.7463C111.25 76.7113 111.267 76.5968 111.272 76.5167C111.296 76.1827 111.353 75.8544 111.341 75.5254C111.33 75.2665 111.134 75.0369 111.209 74.753C111.272 74.5141 111.25 74.2552 111.284 74.0106C111.302 73.8811 111.203 73.8167 111.134 73.7266C111.105 73.6873 111.094 73.6022 111.122 73.5721C111.244 73.4527 111.393 73.3432 111.146 73.2088C111.555 73.0593 111.192 72.6109 111.543 72.4313C111.561 72.4213 111.439 72.2618 111.469 72.2025C111.509 72.1224 111.676 72.078 111.515 71.9636C111.491 71.9486 111.463 71.9235 111.457 71.8985C111.457 71.8835 111.485 71.8584 111.509 71.8434C111.607 71.769 111.71 71.7039 111.797 71.6245C111.912 71.5101 111.63 71.435 111.71 71.395C111.964 71.2755 111.832 71.0416 111.947 70.8922C112.068 70.7427 112.195 70.5982 112.321 70.4537C112.235 70.2291 112.65 70.1898 112.564 69.9552C112.488 69.7614 112.736 69.6913 112.805 69.5468C112.938 69.2629 113.157 69.014 113.347 68.7551C113.463 68.6006 113.508 68.406 113.722 68.3166C113.849 68.2615 113.889 68.1571 113.871 68.0427C113.843 67.8732 113.987 67.7931 114.114 67.7187C114.212 67.6636 114.413 67.6686 114.431 67.6135C114.488 67.4548 114.621 67.3496 114.707 67.2152C114.805 67.0557 114.852 66.8468 115.002 66.7467C115.312 66.5478 115.399 66.2038 115.727 66.0193C115.964 65.8848 116.166 65.696 116.385 65.5365C116.385 65.2275 116.724 65.1675 116.909 64.9937C117.036 64.8735 117.001 64.6646 117.208 64.6046C117.739 64.4551 118.061 64.0667 118.494 63.8028C118.656 63.7027 118.875 63.6483 119.076 63.6183C119.26 63.5932 119.474 63.6633 119.462 63.3944C119.462 63.3694 119.624 63.3043 119.692 63.3193C119.969 63.3794 120.125 63.1298 120.378 63.1448C120.396 63.1448 120.419 63.0554 120.442 63.0103C120.471 62.966 120.5 62.8859 120.534 62.8859C120.725 62.8809 120.914 62.9009 121.105 62.9009C121.197 62.9009 121.329 62.9109 121.364 62.8658C121.641 62.5225 122.039 62.632 122.407 62.647C122.695 62.662 122.977 62.677 123.266 62.6913C123.456 62.4625 123.767 62.652 123.963 62.5619C124.361 62.3781 124.753 62.4775 125.15 62.4825C125.278 62.4825 125.404 62.4975 125.531 62.5025H125.513ZM125.513 67.8231C125.462 67.8231 125.22 67.778 125.104 67.8581C124.914 67.9876 124.707 67.8732 124.574 67.9476C124.401 68.0427 124.257 68.092 124.056 68.077C123.98 68.072 123.895 68.1371 123.819 68.1822C123.693 68.2515 123.583 68.3316 123.428 68.381C123.122 68.4854 122.794 68.5755 122.563 68.8094C122.459 68.9146 122.332 68.9639 122.154 68.9739C122.05 68.9789 121.883 69.1034 121.877 69.1785C121.86 69.4123 121.641 69.4874 121.485 69.6119C121.203 69.8358 120.909 70.0503 120.621 70.2692C120.638 70.5381 120.252 70.5782 120.206 70.7727C120.154 71.0016 119.872 71.0416 119.814 71.2061C119.733 71.44 119.485 71.5251 119.364 71.7039C119.29 71.8191 119.312 71.9586 119.082 71.9385C118.984 71.9285 118.909 71.9979 118.926 72.098C118.961 72.2869 118.845 72.4063 118.684 72.5114C118.609 72.5558 118.5 72.6309 118.506 72.686C118.523 72.8948 118.344 73.0243 118.275 73.1888C118.183 73.4176 117.952 73.5178 117.768 73.6572C117.543 73.8267 117.364 73.9963 117.399 74.2752C117.405 74.3396 117.341 74.4197 117.301 74.484C117.099 74.798 116.852 75.087 116.678 75.416C116.644 75.4854 116.552 75.5404 116.535 75.6098C116.5 75.7443 116.477 75.8888 116.5 76.0239C116.546 76.2278 116.252 76.2678 116.269 76.4424C116.298 76.7556 116.102 76.9952 115.923 77.2341C115.721 77.498 115.508 77.7627 115.56 78.106C115.584 78.2605 115.451 78.3406 115.364 78.455C115.295 78.5494 115.249 78.7189 115.364 78.8384C115.456 78.9285 115.508 79.0129 115.474 79.1323L115.699 79.7152C115.849 79.8597 115.992 80.0092 116.142 80.1537C116.27 80.2781 116.489 80.3976 116.5 80.532C116.517 80.7616 116.696 80.861 116.828 81.0055C116.967 81.16 117.145 81.2845 117.26 81.449C117.388 81.6235 117.623 81.6385 117.773 81.773C117.716 82.0068 117.958 82.102 118.079 82.2514C118.113 82.2958 118.165 82.3709 118.206 82.3709C118.482 82.3709 118.534 82.6148 118.719 82.6899C118.921 82.7743 119.11 82.8587 119.214 83.0232C119.347 83.2277 119.594 83.2878 119.791 83.4073C119.952 83.5067 120.183 83.5367 120.165 83.7756C120.165 83.7906 120.263 83.8307 120.321 83.8307C120.482 83.8407 120.621 83.8557 120.736 83.9802C120.823 84.0746 121.018 84.0495 121.116 84.179C121.197 84.2891 121.283 84.4236 121.479 84.4036C121.624 84.5831 121.941 84.5631 122.061 84.7719C122.338 84.7126 122.523 84.8821 122.736 84.9815C122.868 85.0408 122.995 85.1059 123.122 85.171C123.715 85.46 123.906 85.455 124.459 85.156C124.529 85.116 124.649 85.136 124.712 85.0959C124.937 84.9615 125.202 84.9114 125.445 84.812C125.687 84.7126 125.929 84.6124 126.177 84.523C126.366 84.4529 126.586 84.4336 126.759 84.3435C126.948 84.2441 127.081 84.0495 127.277 83.9802C127.485 83.9101 127.606 83.8307 127.704 83.6562C127.784 83.5167 127.963 83.4223 128.188 83.4716C128.326 83.5017 128.407 83.4566 128.448 83.3121C128.47 83.2227 128.574 83.0983 128.672 83.0783C129.024 82.9982 129.254 82.7793 129.514 82.5898C130.142 82.117 130.77 81.6485 131.398 81.17C131.629 80.9955 131.905 80.851 131.992 80.5671C132.268 80.4576 132.297 80.1737 132.51 80.0192C132.752 79.8447 132.868 79.6058 132.995 79.3712C133.023 79.3219 133.138 79.3068 133.219 79.2768C133.271 79.2568 133.375 79.2267 133.375 79.2124C133.335 78.9778 133.594 78.8183 133.605 78.6295C133.617 78.3899 133.917 78.2755 133.865 78.0466C133.819 77.8521 134.107 77.812 134.095 77.6275C134.089 77.4637 134.13 77.2992 134.124 77.1297C134.124 77.0052 133.836 76.8758 134.141 76.7606C134.032 76.6312 133.946 76.5017 133.997 76.3272C134.049 76.1584 134.015 76.0039 133.842 75.8888C133.824 75.5705 133.611 75.3058 133.479 75.0219C133.34 74.7329 133.19 74.459 133.156 74.145C132.977 74.0206 133.064 73.7817 132.856 73.6622C132.724 73.5821 132.649 73.4627 132.695 73.3082C132.706 73.2589 132.712 73.1938 132.689 73.1487C132.597 72.9842 132.534 72.7704 132.384 72.681C132.101 72.5164 132.274 72.2718 132.165 72.088C132.153 72.063 132.13 72.043 132.101 72.0279C131.905 71.9135 131.882 71.714 131.801 71.5495C131.709 71.3606 131.611 71.1761 131.542 70.9765C131.473 70.7727 131.156 70.6976 131.184 70.4287C131.191 70.3493 131.052 70.2048 130.96 70.1848C130.683 70.1297 130.551 69.9502 130.395 69.7864C130.159 69.5318 129.865 69.3623 129.525 69.2278C129.283 69.1284 129.082 68.9689 128.839 68.8645C128.735 68.8194 128.58 68.8645 128.465 68.8294C128.326 68.7894 128.205 68.6599 128.079 68.6549C127.738 68.6399 127.571 68.5054 127.525 68.2265C127.514 68.1421 127.427 68.097 127.323 68.102C127.15 68.1071 127.012 68.376 126.839 68.2065C126.683 68.057 126.522 68.057 126.332 68.0427C126.171 67.8231 125.906 67.8582 125.525 67.8231H125.513Z" fill="#D9315A"/>
<path d="M95.8958 86.1323C95.9192 85.8633 95.9305 85.5944 95.9651 85.3305C96.0058 85.0215 95.9079 84.6775 96.2422 84.4336C96.2595 84.1947 96.2941 83.9601 96.2941 83.7212C96.2941 83.4966 96.4206 83.2678 96.1789 83.0489C96.0976 82.9738 96.1669 82.7692 96.1789 82.6198C96.2015 82.2915 96.2249 81.9675 96.2595 81.6385C96.2708 81.519 96.2301 81.4246 96.1729 81.3145C96.0457 81.0756 96.0171 80.8117 96.2708 80.6021C96.3453 80.5427 96.3627 80.5277 96.2768 80.4726C96.1496 80.3933 96.1556 80.2788 96.1669 80.1587C96.2128 79.6258 96.2768 79.088 96.2881 78.5551C96.2941 78.1911 96.5245 77.7977 96.1789 77.4587C96.2595 77.1847 96.075 76.8607 96.4033 76.6269C96.4267 76.6118 96.2708 76.4523 96.2708 76.3579C96.2708 76.059 96.3288 75.765 96.3288 75.466C96.3288 75.1871 96.5185 74.8781 96.2076 74.6342C96.2249 74.3696 96.2595 74.1007 96.2535 73.8367C96.2535 73.6029 96.4206 73.3432 96.2422 73.1494C96.0058 72.8905 96.1902 72.6359 96.1729 72.382C96.1616 72.1481 96.1955 71.9035 96.2249 71.6696C96.2422 71.5552 96.127 71.5201 96.0976 71.445C96.0284 71.2912 95.9538 71.1367 95.8785 70.9873C95.8153 70.8671 95.9079 70.6933 95.8958 70.5488C95.8732 70.2942 96.0803 70.0203 95.7927 69.7964C95.798 69.5618 95.8559 69.3179 95.7927 69.099C95.7407 68.8895 95.5788 68.6949 95.4463 68.5061C95.4004 68.446 95.2852 68.396 95.1986 68.3917C94.9742 68.3767 94.7265 68.2915 94.53 68.4961C94.4954 68.5312 94.3403 68.5011 94.2597 68.4711C93.7868 68.2815 93.7868 68.2815 93.3486 68.3917C93.2854 68.406 93.2334 68.441 93.1702 68.446C92.8758 68.4811 92.5882 68.3316 92.2825 68.5061C92.0174 68.6556 91.6892 68.5211 91.3835 68.5161C91.0725 68.5111 90.7668 68.4811 90.4558 68.4661C90.254 68.4561 90.2714 68.3366 90.2766 68.2172C90.2766 68.1921 90.254 68.1521 90.2367 68.1471C90.1441 68.122 90.0349 68.0777 89.9657 68.1027C89.7985 68.1671 89.9484 68.2422 90.0003 68.2815C90.0748 68.3416 90.0869 68.406 89.983 68.406C89.5734 68.406 89.1645 68.3817 88.7557 68.3616C88.6172 68.3566 88.4846 68.3316 88.3807 68.441C88.2716 68.5555 88.2309 68.441 88.1616 68.396C87.9892 68.2765 87.7754 68.2472 87.6082 68.3616C87.4584 68.4661 87.4237 68.406 87.3033 68.3316C87.0955 68.2072 86.7845 68.2865 86.6 68.0627C86.5541 68.0076 86.3403 68.0477 86.2138 68.0627C86.1558 68.0727 86.1099 68.1671 86.0579 68.1671C85.8215 68.1721 85.5798 68.1821 85.3494 68.1521C85.1243 68.122 85.0324 68.3266 84.802 68.3166C84.3698 68.2915 84.0235 68.2122 83.7584 67.8832C83.6259 67.7136 83.528 67.5441 83.4354 67.3653C83.3496 67.2108 83.1651 67.0957 83.0439 66.9562C82.9114 66.8017 82.7615 66.7073 82.5311 66.7324C82.312 66.7574 82.1449 66.6873 82.0124 66.5178C81.8738 66.349 81.6893 66.2095 81.5455 66.04C81.413 65.8805 81.1939 65.7854 81.1533 65.5415C81.1246 65.357 80.9861 65.1932 80.9861 64.9786C80.9861 64.8341 80.7843 64.6997 80.831 64.5051C80.8769 64.3013 80.6292 64.2212 80.5253 64.0767C80.508 64.0517 80.4673 64.0274 80.4734 64.0123C80.4794 63.9873 80.5253 63.9773 80.5426 63.9523C80.5946 63.8829 80.6578 63.8128 80.6864 63.7384C80.7444 63.5739 80.6292 63.3693 80.825 63.2449C80.9921 63.1355 80.9229 62.976 80.9748 62.8465C81.0614 62.6219 81.413 62.7514 81.5282 62.5575C81.8046 62.5726 82.0816 62.5826 82.3519 62.6119C82.5078 62.6269 82.6004 62.5726 82.7156 62.4975C82.8361 62.4131 82.9633 62.4524 83.0612 62.5575C83.211 62.717 83.4188 62.692 83.6146 62.652C83.7065 62.6319 83.7757 62.5425 83.8684 62.5275C84.2539 62.4674 84.6808 62.7364 85.0377 62.4231C85.4126 62.4424 85.7989 62.4281 86.1678 62.4925C86.4381 62.5375 86.594 62.348 86.8191 62.343C87.0608 62.343 87.3033 62.368 87.5389 62.383C87.8559 62.0791 88.2482 62.2636 88.5998 62.2786C88.8822 62.2936 89.0381 62.014 89.3603 62.1191C89.608 62.1985 89.9024 62.1635 90.1788 62.1785C90.617 61.9146 91.0898 62.0791 91.5506 62.0891C91.7117 62.0891 91.7983 62.024 91.9022 61.9446C91.9941 61.8745 91.9888 61.9045 92.3404 61.9396C92.5934 61.9646 92.8818 62.0841 93.1122 61.8695C93.1356 61.8502 93.1642 61.8252 93.1928 61.8252C93.4525 61.8051 93.7349 61.9596 93.9653 61.73C94.2017 61.73 94.4381 61.73 94.6685 61.73C94.8703 61.73 95.0548 61.7701 95.2393 61.6256C95.3311 61.5562 95.5615 61.6206 95.7287 61.6106C96.0517 61.5906 96.386 61.7501 96.709 61.5212C96.8069 61.4511 97.0373 61.5212 97.2045 61.5212C97.4755 61.5212 97.7466 61.5212 98.0116 61.5262C98.236 61.3016 98.5244 61.4511 98.7834 61.4361C99.0258 61.1772 99.3481 61.3266 99.6425 61.3066C100.063 61.2773 100.518 61.5312 100.91 61.2072C101.291 61.2322 101.666 61.2723 102.046 61.2673C102.333 61.2673 102.656 61.4361 102.922 61.1872C103.227 61.1872 103.527 61.1872 103.833 61.2022C104.144 61.2122 104.449 61.2372 104.76 61.2573C105.158 61.0076 105.602 61.1621 106.028 61.1521C106.339 61.1471 106.518 61.4711 106.858 61.3917C106.887 61.3867 106.985 61.4761 106.979 61.5012C106.921 61.6757 107.164 61.7601 107.152 61.8845C107.123 62.2936 107.572 62.2936 107.804 62.4574C107.959 62.5626 108.247 62.5175 108.477 62.5375C108.656 62.323 108.922 62.373 109.135 62.4331C109.337 62.4875 109.428 62.1492 109.63 62.373C109.78 62.5375 110.01 62.4524 110.206 62.4774C110.408 62.5075 110.622 62.4925 110.824 62.5225C110.909 62.5325 111.031 62.5876 111.059 62.652C111.175 62.9059 111.521 62.8765 111.688 63.0604C111.757 63.1405 112.01 63.1698 112.005 63.2098C111.988 63.3844 112.097 63.4838 112.207 63.5939C112.028 63.8972 112.455 64.1218 112.357 64.4257C112.333 64.5001 112.483 64.6103 112.483 64.7047C112.483 64.769 112.322 64.8291 112.316 64.8992C112.287 65.1031 112.005 65.1932 112.045 65.4371C112.08 65.6316 111.717 65.736 111.808 65.9749L111.4 66.5378C111.29 66.6429 111.111 66.6923 111.106 66.8768C111.106 66.9662 111.019 67.0163 110.892 67.0063C110.616 66.9812 110.333 67.0063 110.068 66.9462C109.745 66.8768 109.532 67.1608 109.204 67.0907C108.939 67.0363 108.656 67.0363 108.38 67.0413C108.27 67.0413 108.16 67.1558 108.051 67.1608C107.982 67.1608 107.907 67.0564 107.826 67.0063C107.804 66.9913 107.746 66.9863 107.728 67.0013C107.44 67.2352 107.077 67.1858 106.771 67.1057C106.449 67.0213 106.287 67.3203 106.011 67.2552C105.717 67.1858 105.602 67.4197 105.412 67.5291C105.354 67.5642 105.302 67.6042 105.256 67.6443C105.083 67.7938 104.852 67.7637 104.702 67.6736C104.558 67.5892 104.449 67.5048 104.265 67.5048C103.924 67.5048 103.585 67.4898 103.245 67.4798C103.06 67.6986 102.806 67.5692 102.582 67.5842C102.357 67.6042 102.12 67.4698 101.896 67.6443C101.694 67.8038 101.429 67.6292 101.21 67.6886C101.06 67.7287 100.962 67.8832 100.761 67.8481C100.737 67.8481 100.674 67.9876 100.645 68.0627C100.553 68.3016 100.893 68.4561 100.807 68.715C100.743 68.9095 100.766 69.1284 100.749 69.3379L100.691 70.0503L100.639 70.6733C100.628 70.8228 100.657 70.9873 100.593 71.1167C100.461 71.4057 100.783 71.5995 100.749 71.8591C100.72 72.098 100.709 72.3319 100.691 72.5715C101.1 72.7854 100.639 73.2138 100.985 73.4434C101.008 73.4584 101.032 73.4927 101.032 73.5177C101.02 73.6973 100.98 73.8768 100.997 74.0513C101.014 74.2101 101.135 74.3646 101.152 74.5241C101.169 74.7286 101.13 74.9375 101.112 75.147C101.095 75.3216 101.095 75.471 101.239 75.6406C101.337 75.755 101.325 75.9789 101.124 76.1083C100.956 76.2185 101.043 76.3822 101.002 76.5174C101.273 76.7313 101.221 77.0202 101.135 77.2541C101.026 77.5531 101.354 77.7326 101.308 78.0015C101.262 78.2654 101.262 78.5351 101.239 78.804L101.175 79.6058C101.152 79.8747 101.106 80.1444 101.117 80.4083C101.124 80.5971 101.343 80.7416 101.279 80.9712C101.216 81.2 101.233 81.4446 101.216 81.6835C101.199 81.8931 101.181 82.0969 101.169 82.3065C101.158 82.4753 101.089 82.6548 101.291 82.7993C101.343 82.8393 101.319 82.9638 101.314 83.0489C101.297 83.3472 101.291 83.6461 101.239 83.9401C101.199 84.1597 101.337 84.3192 101.4 84.508C101.452 84.6675 101.349 84.882 101.429 85.0215C101.51 85.161 101.562 85.2754 101.544 85.4249C101.516 85.6938 101.504 85.9578 101.475 86.2274C101.464 86.3468 101.464 86.4563 101.579 86.5457C101.734 86.6708 101.66 86.8446 101.614 86.9648C101.331 87.7115 101.319 87.7065 101.458 88.3495C101.464 88.3845 101.434 88.4339 101.406 88.4739C101.389 88.499 101.337 88.514 101.331 88.534C101.297 88.7085 101.285 88.8823 101.245 89.0518C101.216 89.1913 100.98 89.2314 101.008 89.4109C101.078 89.8393 100.847 90.1283 100.455 90.3772C100.196 90.5417 99.8668 90.6861 99.8096 91.0151C99.5559 91.0445 99.3601 91.259 99.0778 91.209C98.9852 91.194 98.8812 91.1696 98.8127 91.1146C98.6629 90.9901 98.5357 90.8506 98.4031 90.7162C98.2879 90.6017 98.1494 90.5016 98.0748 90.3772C98.0056 90.2577 98.0342 90.0932 97.8791 89.9988C97.8557 89.6748 97.608 89.4652 97.3257 89.3258C97.02 89.1713 96.8528 88.9774 96.697 88.7035C96.5185 88.3945 96.2015 88.1449 95.9365 87.876C95.8213 87.7616 95.752 87.6521 95.7693 87.4876C95.8213 87.0442 95.8446 86.5957 95.8785 86.1523L95.8958 86.1323Z" fill="#D9315A"/>
</svg>
