<svg width="303" height="172" viewBox="0 0 303 172" fill="none" xmlns="http://www.w3.org/2000/svg">
<path d="M156.106 8.16505C162.681 1.5737 172.445 -1.26748 181.795 0.528148C188.73 1.86018 193.078 5.2914 194.43 6.40245C194.742 6.65954 195.036 6.91606 195.313 7.16437C199.737 9.20684 202.858 12.0813 204.978 14.7228C209.162 8.83061 215.141 4.83087 221.658 2.74421C232.973 -0.877694 243.838 1.82737 249.653 3.62141L277.01 12.061C279.535 12.8397 282.168 13.7086 284.472 14.6342C285.548 15.0668 287.313 15.8099 289.193 16.8672C290.121 17.3896 291.694 18.3303 293.407 19.7199C294.736 20.7969 298.383 23.8913 300.789 29.1293C303.873 35.848 304.333 45.2785 298.223 53.6156C294.889 58.165 290.748 60.7097 287.879 62.0711L290.766 65.993C292.23 67.9821 294.13 70.629 295.483 73.07C295.858 73.7456 296.523 74.9935 297.138 76.5641C297.308 77 299.475 82.0085 298.683 88.459C298.208 92.3319 296.284 99.4864 289.057 105.134C288.231 105.78 287.394 106.356 286.556 106.876L293.838 116.97C295.672 119.514 297.388 121.942 298.495 123.705C298.775 124.15 299.305 125.007 299.839 126.036C300.083 126.506 300.615 127.553 301.126 128.915C301.38 129.597 301.799 130.798 302.13 132.333C302.392 133.539 303.023 136.773 302.411 140.877C301.78 145.1 299.074 154.066 288.862 159.496C279.551 164.446 270.8 162.7 267.79 161.917C261.972 160.398 258.173 157.375 258.033 157.271C256.734 156.311 255.689 155.354 255.096 154.784L245.106 153.293L237.413 160.67C236.171 161.862 234.804 163.118 233.396 164.277C232.376 165.116 229.836 167.18 226.435 168.859C224.998 169.569 220.679 171.625 214.694 171.957C206.947 172.387 196.136 169.644 189.589 160.02C187.626 157.135 186.536 154.28 185.943 151.783C181.977 150.617 178.746 148.81 176.301 147.084C175.545 148.129 174.656 149.194 173.606 150.241C167.907 155.922 160.187 158.529 152.744 158.339C152.57 158.624 152.388 158.913 152.193 159.202C151.598 160.09 146.691 167.816 135.701 170.449C120.061 174.196 109.907 164.803 106.907 161.118C103.992 157.539 102.846 154.122 102.544 153.222C102.484 153.046 102.427 152.873 102.375 152.706C101.271 153.128 99.9878 153.546 98.5524 153.879C96.41 154.378 91.3767 155.218 85.5317 153.977L79.9732 157.834C75.1216 161.198 63.1608 167.932 48.384 163.19C41.9746 161.133 37.3999 157.642 34.1465 153.985C31.7998 153.532 25.1112 152.16 19.9899 147.762C16.7163 144.95 13.0185 142.919 11.4964 137.828C10.6599 135.029 11.1079 130.427 11.2136 128.036C10.1109 125.895 9.25421 123.435 8.76822 120.612C7.49206 113.189 9.98736 107.423 11.4964 104.669C12.7524 102.375 14.1711 100.613 15.2465 99.4272C13.8717 96.371 10.2345 89.9592 9.76872 87.7084L4.92428 72.3309C3.70278 66.4229 3.03619 61.438 2.30305 59.2316V49.9532C1.67922 48.0734 0.773782 44.9254 0.632382 41.1665C0.514747 38.006 -2.28592 23.4257 4.92428 15.9469C13.1885 7.3759 26.0618 8.1802 31.599 8.72798C36.6917 9.23179 44.0671 13.2739 46.08 14.1886L52.4513 9.19648C54.3822 7.98154 58.6824 5.91459 63.4567 4.55624C66.1564 3.78805 79.8567 1.82054 90.4273 8.91604C93.3099 6.89897 98.0225 4.23389 104.38 3.24153C112.734 1.93718 121.1 3.98147 127.627 8.72798L128.252 9.19648L134.752 14.1886C136.522 15.548 138.136 17.0603 139.608 18.6477C140.022 18.1128 140.447 17.6035 140.882 17.1228C146.802 10.5773 154.427 8.81261 155.324 8.57682C155.49 8.53297 155.659 8.49265 155.827 8.45152C155.918 8.35618 156.011 8.26005 156.106 8.16505Z" fill="#381067"/>
<path d="M216.184 44.7455C216.184 45.2645 216.125 45.7835 216.197 46.3024C216.305 46.9803 215.45 47.3827 215.642 48.1241C215.799 48.6855 215.678 49.2998 215.666 49.8929C215.666 49.9565 215.618 50.0518 215.57 50.073C214.775 50.3801 215.522 51.2485 214.859 51.5981C214.75 52.1488 214.1 52.5089 214.136 53.1126C214.136 53.1656 214.027 53.2185 213.967 53.2715C213.437 53.6316 213.135 54.1187 212.882 54.6483C212.798 54.839 212.545 54.9661 212.364 55.1249C211.593 55.8027 210.822 56.4912 210.037 57.1585C209.929 57.2432 209.737 57.3278 209.616 57.3066C209.05 57.2114 208.688 57.4444 208.314 57.7833C207.869 58.1752 205.892 59.0118 205.144 59.0648C204.626 59.1072 204.434 59.7003 203.843 59.5414C203.361 59.4038 203.084 59.7215 202.794 59.9757C201.842 59.6791 201.191 60.7276 200.227 60.4311C200.082 60.3887 199.794 60.3993 199.757 60.4629C199.372 61.1195 198.479 60.6429 198.01 61.0772C197.901 61.1724 197.757 61.289 197.612 61.2995C196.611 61.3419 195.623 61.3631 194.622 61.3949C193.755 62.0833 192.719 61.6491 191.754 61.7338C190.934 61.8079 190.428 62.2103 190.428 62.9624C190.428 65.5466 190.453 68.1415 190.404 70.7257C190.392 71.4353 190.657 71.9331 191.187 72.4521C191.693 72.9498 191.85 73.6807 192.285 74.2526C192.598 74.655 192.345 75.1104 192.441 75.5341C192.55 76.0212 192.091 76.3179 191.971 76.6885C191.815 77.2287 191.079 77.6099 191.417 78.2666C191.091 78.595 190.549 78.8809 190.477 79.2515C190.368 79.8239 190.139 79.9822 189.537 79.9504C189.331 79.9401 189.103 80.0779 188.886 80.1622C188.15 80.4481 188.15 80.4595 187.343 80.1303C187.198 80.0677 187.053 79.9298 186.933 79.9504C186.005 80.1098 185.607 79.4634 185.101 79.0186C184.956 78.8915 184.836 78.6267 184.872 78.4467C185.005 77.8218 184.667 77.3452 184.354 76.8474C184.161 76.5508 183.944 76.2437 183.859 75.9154C183.775 75.5658 183.859 75.174 183.812 74.8139C183.812 74.7292 183.547 74.5915 183.426 74.6127C183.209 74.6444 182.86 74.761 182.847 74.8668C182.788 75.4493 182.884 76.053 182.811 76.6355C182.666 77.6841 183.294 78.8385 182.317 79.7806C182.317 80.226 182.354 80.6702 182.317 81.1156C182.269 81.6669 182.607 82.3128 181.895 82.7365C181.871 83.2445 181.823 83.7526 181.823 84.2617C181.823 84.706 181.775 85.0659 181.401 85.4578C181.16 85.7232 181.136 86.2836 181.618 86.6333C181.726 86.7073 181.823 86.8873 181.811 86.9932C181.715 87.6505 181.016 87.8942 180.569 88.2963C180.4 88.4444 179.859 88.4444 179.617 88.3282C179.123 88.0742 178.75 87.5445 178.195 88.2223C178.075 88.3704 177.991 88.3385 177.834 88.1801C177.388 87.7462 176.953 87.2689 176.147 87.4602C176.05 87.4807 175.784 87.3008 175.797 87.237C175.868 86.4749 175.604 85.7015 176.243 84.9497C176.676 84.4303 176.93 83.7002 176.821 82.937C176.737 82.2911 176.845 81.6236 176.869 80.9675C177.604 80.4595 177.267 79.7385 177.267 79.1245C177.267 78.5844 176.568 78.1924 176.761 77.5253C176.894 77.0381 176.869 76.4768 176.761 75.9789C176.641 75.4387 176.025 75.0151 176.278 74.3796C175.676 74.0407 175.76 73.5218 175.772 73.0134C175.784 72.3779 175.05 71.9225 175.242 71.1917C175.387 70.6304 175.291 70.0161 175.266 69.4229C175.242 68.8404 174.76 68.4168 174.471 67.9402C174.242 67.5696 174.122 67.1036 174.29 66.9235C175.097 66.0761 174.616 65.1018 174.76 64.2016C173.832 63.4919 174.434 62.5493 174.254 61.7232C174.242 61.6491 174.29 61.5432 174.254 61.5114C174.146 61.4161 174.012 61.3101 173.869 61.2784C173.326 61.1724 172.711 61.4902 172.217 61.0348C171.735 60.5899 171.036 61.0348 170.565 60.8018C169.806 60.4417 169.047 60.0815 168.276 59.7639C168.132 59.7003 168.011 59.499 167.903 59.5096C166.335 59.6473 165.191 58.8425 163.961 58.207C163.31 58.3764 163.069 57.5397 162.419 57.7198C162.154 57.2961 161.491 57.402 161.213 57.0949C160.779 56.5865 160.057 57.0949 159.635 56.6395C159.309 56.3005 158.947 55.9828 158.562 55.7074C158.393 55.5804 158.056 55.6226 157.923 55.4956C157.573 55.1567 156.959 55.1884 156.694 54.9025C155.741 53.854 154.344 53.4726 153.102 52.8479C152.294 52.8479 152.162 51.7887 151.258 51.9264C151.209 51.9264 151.089 51.831 151.089 51.7781C151.005 50.952 150.173 50.6131 149.643 50.0836C149.197 49.6386 148.594 49.2998 148.256 48.802C147.919 48.3148 147.534 47.8806 147.196 47.4039C146.883 46.9697 146.376 46.5037 146.498 45.9C146.606 45.3493 145.762 45.1375 145.955 44.5232C146.088 44.1206 146.051 43.6652 145.557 43.337C145.425 43.2522 145.448 42.9239 145.472 42.7121C145.605 41.5153 145.111 40.2655 145.931 39.1005C146.16 38.7827 146.015 38.2214 145.955 37.7872C145.858 37.1941 146.135 36.7705 146.653 36.4844C147.293 36.135 146.726 35.4995 147.173 35.1076C147.569 34.7687 148.148 34.4933 148.003 33.8579C147.979 33.7307 148.003 33.5402 148.088 33.4554C148.546 33.0212 149.029 32.6081 149.51 32.195C149.414 31.5595 150.112 31.3796 150.39 30.9558C150.643 30.5746 151.185 30.7653 151.426 30.4793C151.607 30.2675 151.607 29.9285 151.813 29.738C152.246 29.3354 152.668 28.933 153.355 28.7423C153.849 28.6047 154.163 28.001 154.632 27.7044C155.078 27.4185 155.682 27.3655 156.031 26.9101C156.404 26.4229 156.983 26.1687 157.597 25.9568C157.959 25.8298 158.297 25.6603 158.634 25.4908C158.984 25.3108 159.152 24.9718 159.586 24.8341C160.237 24.6224 160.84 24.2411 161.479 24.0187C162.033 23.828 162.503 23.2561 163.286 23.4891C163.443 23.5421 163.769 23.1502 164.034 22.9808C164.226 22.8536 164.455 22.6207 164.624 22.6524C165.492 22.8219 166.047 21.8793 166.951 22.1758C167.288 22.2923 167.541 22.07 167.83 21.8899C168.203 21.6568 168.662 21.5192 169.072 21.3285C169.397 21.1696 169.904 21.3391 170.312 21.2862C171.024 21.2014 171.832 21.5933 172.423 20.9367C172.458 20.8943 172.566 20.8625 172.627 20.8519C173.386 20.8519 174.157 20.7672 174.893 20.8731C175.628 20.979 175.953 20.2588 176.713 20.3754C177.532 20.5024 178.388 20.4177 179.231 20.3965C179.737 20.3965 180.22 20.3754 180.569 20.799C180.63 20.8731 181.016 20.7778 181.22 20.7036C181.425 20.6189 181.509 20.386 181.835 20.386C184.86 20.3965 187.897 20.3542 190.922 20.4282C191.501 20.4388 192.019 21.0107 192.743 20.8519C193.333 20.7248 193.827 20.9473 194.322 21.265C194.538 21.4027 194.972 21.2862 195.309 21.2862C195.466 21.2862 195.731 21.2756 195.78 21.3391C196.37 22.2711 197.443 22.1122 198.383 22.2711C198.624 22.7265 199.335 22.4724 199.6 22.896C199.902 23.3726 200.528 23.415 200.998 23.6798C201.397 23.9127 201.565 24.4317 202.191 24.3787C202.264 24.3787 202.348 24.4105 202.397 24.4635C203.59 25.512 204.783 26.5499 205.976 27.5984C206.037 28.5835 207.049 28.7211 207.736 29.1342C208.471 29.579 208.772 30.5004 209.821 30.5958C209.941 30.6064 210.135 30.7971 210.122 30.8817C210.062 31.3372 210.459 31.5172 210.737 31.7714C211.207 32.195 211.689 32.6081 212.148 33.0318C212.183 33.0741 212.123 33.1906 212.148 33.2436C212.376 33.6778 212.617 34.1015 212.858 34.5357C213.135 35.0441 213.376 35.5736 213.919 35.9337C214.075 36.0396 214.172 36.3256 214.147 36.495C214.027 37.1093 214.787 37.4483 214.726 38.0943C214.69 38.5074 215.136 38.9628 215.365 39.3864C215.462 39.5771 215.618 39.7465 215.678 39.9372C215.895 40.6892 215.269 41.5576 216.088 42.2355C216.137 43.0404 216.184 43.8347 216.245 44.6396C216.233 44.6396 216.221 44.6396 216.197 44.6396L216.184 44.7455ZM193.731 54.2035C194.9 54.1929 196.082 54.1929 197.251 54.1929C197.624 53.6421 198.238 53.7375 198.805 53.7693C199.48 53.8116 199.841 53.0173 200.625 53.2821C200.806 53.3456 201.118 52.9537 201.42 52.8795C201.795 52.7843 202.228 52.9749 202.578 52.636C202.71 52.4983 203.011 52.4983 203.229 52.4241C203.806 52.2018 204.012 51.4498 204.832 51.5239C204.94 51.5239 205.097 51.3438 205.181 51.2273C205.494 50.7507 206.133 50.7401 206.578 50.4436C206.519 49.734 207.253 49.501 207.651 49.0667C207.953 48.7278 208.411 48.4525 208.579 48.0712C208.701 47.7853 208.966 47.6052 209.05 47.3617C209.219 46.9061 208.966 46.3236 209.604 46.0165C209.604 45.6459 209.616 45.2857 209.616 44.915C209.616 43.9513 209.616 42.998 209.616 42.0342C209.616 41.8331 209.604 41.5364 209.46 41.4411C208.929 41.1022 209.038 40.6045 209.146 40.2337C209.327 39.6195 208.35 39.4712 208.591 38.8569C208.724 38.5286 208.616 38.1261 208.616 37.7554C208.616 37.4906 208.459 37.3636 208.181 37.3424C207.604 37.3212 207.266 36.9504 207.133 36.5586C207.037 36.2621 206.916 36.0184 206.651 35.8489C206.145 35.5207 205.446 35.4359 205.06 34.917C204.964 34.7793 204.626 34.7792 204.434 34.6734C203.782 34.2921 203.035 34.0591 202.348 33.7519C201.661 33.4448 200.854 33.1906 200.384 32.5657C200.347 32.5128 200.251 32.4599 200.19 32.4705C199.058 32.6081 198.323 31.782 197.335 31.5596C196.829 31.443 196.37 31.1147 195.913 30.85C195.285 30.4899 194.61 30.7547 193.972 30.7123C193.574 30.6805 193.453 30.2675 193.188 30.2993C192.923 30.3309 192.778 30.7441 192.381 30.6911C192.068 30.6488 191.718 30.7865 191.465 30.4899C191.163 30.1298 190.561 30.2569 190.224 29.8756C190.019 29.6426 189.621 29.7908 189.392 30.045C189.187 30.2569 188.897 30.4051 188.909 30.7547C188.934 31.2631 188.886 31.7714 188.862 32.2798C188.15 32.6928 188.656 33.4236 188.368 33.8684C188.03 34.398 187.849 34.8958 187.91 35.4783C187.934 35.8172 187.777 35.9655 187.355 36.029C186.861 36.1032 186.5 36.4209 186.39 36.887C186.247 37.5012 186.62 38.1473 186.078 38.7721C185.619 39.3123 185.933 40.0431 185.897 40.6892C185.86 41.3564 185.897 42.013 185.897 42.6803C185.897 43.1145 185.246 43.2946 185.366 43.8242C185.475 44.2478 185.462 44.7138 185.366 45.1481C185.258 45.6671 185.993 45.8152 185.897 46.2918C185.764 46.9061 186.21 47.6052 185.499 48.1453C185.391 48.2301 185.391 48.6219 185.499 48.7067C185.848 48.9821 185.909 49.2998 185.909 49.681C185.884 50.7931 185.897 51.8946 185.909 53.0067C185.909 53.1126 186.102 53.3033 186.198 53.2927C186.427 53.2927 186.825 53.1973 186.837 53.1232C186.873 52.7313 187.271 52.4877 187.355 52.2018C187.463 51.8204 187.632 51.5451 187.946 51.3015C188.006 51.2485 188.103 51.1427 188.114 51.1533C188.234 51.2167 188.416 51.2909 188.416 51.3756C188.44 51.8946 188.391 52.4135 188.452 52.9219C188.476 53.102 188.681 53.2821 188.838 53.4409C188.994 53.5998 190.549 54.2035 190.742 54.2035C191.754 54.2035 192.755 54.2035 193.767 54.2035H193.731ZM155.054 42.9028C155.054 44.0677 155.054 44.0677 156.055 45.6459C156.32 46.0589 156.392 46.5779 156.694 46.9591C157.079 47.4357 157.622 47.8065 158.103 48.2301C158.272 48.389 158.562 48.5478 158.574 48.7173C158.574 49.1938 158.791 49.3845 159.321 49.321C160.044 49.8823 160.997 50.073 161.791 50.5284C162.166 50.7401 162.611 50.9308 163.033 51.0791C163.539 51.2591 164.166 50.899 164.685 51.3227C165.239 51.7781 165.962 51.4498 166.6 51.5345C167.384 51.651 168.288 51.2485 168.927 51.9476C169.59 51.9476 170.265 52.0217 170.928 51.9581C171.626 51.8946 172.013 52.5936 172.747 52.4347C173.145 52.35 173.579 52.4241 174.001 52.4135C174.675 52.4135 174.76 52.35 174.772 51.8522C174.772 51.4074 174.748 50.9626 174.772 50.5178C174.856 49.5328 174.447 48.4842 175.266 47.5946C175.158 47.118 175.423 46.6414 175.001 46.1331C174.507 45.5293 174.544 44.682 174.965 44.0889C175.278 43.6547 175.23 43.2734 175.266 42.8604C175.303 42.4155 175.291 41.9707 175.266 41.5364C175.266 41.4517 175.025 41.3352 174.881 41.3247C174.387 41.2823 173.869 41.2611 173.555 41.7165L170.542 41.7589C170.072 41.1976 169.372 41.2823 168.734 41.3247C167.963 41.3775 167.384 41.1234 167.216 40.4985C167.106 40.0855 166.83 39.8418 166.529 39.6513C165.817 39.2064 165.721 38.4333 165.166 37.9249C165.407 37.0987 164.432 36.5268 164.636 35.669C164.781 35.0335 164.672 34.345 164.66 33.6778C164.66 33.3813 164.094 33.127 163.926 33.3495C163.575 33.8367 162.876 33.6884 162.478 34.1015C162.021 34.5887 161.55 35.1288 160.743 35.2136C159.67 36.1562 158.622 37.1093 157.526 38.0307C156.983 38.4862 156.91 39.1534 156.32 39.6089C155.825 39.9902 155.633 40.668 155.392 41.2399C155.307 41.4305 155.103 41.6 155.078 41.7907C155.03 42.1507 155.066 42.532 155.066 42.8922L155.054 42.9028ZM170.277 36.4421C170.818 36.3679 171.47 36.6645 171.868 36.0926C172.434 36.0396 173.049 36.1032 173.531 35.9019C173.881 35.7537 174.254 35.6266 174.567 35.4571C174.977 35.2348 174.712 34.7793 174.736 34.4404C174.772 33.932 174.772 33.413 174.736 32.8941C174.724 32.714 174.532 32.5233 174.399 32.3645C174.097 31.9938 174.844 31.9197 174.675 31.7608C174.387 31.4854 174.254 31.1889 174.157 30.8394C174.097 30.617 173.977 30.6699 173.808 30.8288C173.422 31.1783 173.037 31.4854 172.446 31.6655C171.88 31.8456 171.385 32.3857 171.036 32.8729C170.65 33.413 170.361 34.0062 169.759 34.3874C169.011 34.864 169.204 35.5419 169.204 36.1668C169.204 36.2621 169.384 36.4209 169.517 36.4421C169.759 36.4844 170.012 36.4527 170.265 36.4527L170.277 36.4421ZM179.099 28.9118C178.316 28.6047 177.797 29.3354 177.075 29.3566C177.002 29.3566 176.845 29.6002 176.869 29.6214C177.147 29.8967 177.46 30.1404 177.738 30.4157C178.063 30.7229 178.376 30.7971 178.786 30.4899C178.954 30.3627 179.196 30.2675 179.413 30.2463C179.906 30.2145 180.412 30.2463 180.918 30.2251C181.052 30.2251 181.185 30.098 181.317 30.0239C181.269 29.9709 181.22 29.9179 181.16 29.865C180.569 29.3884 180.147 28.6471 179.099 28.9118Z" fill="#D9315A"/>
<path d="M75.3867 85.9451C74.1094 85.9451 73.5557 85.6478 72.5552 84.4518C72.4708 84.3459 72.3496 84.2081 72.2177 84.1762C71.5178 84.0281 71.121 83.7308 70.976 83.053C70.9154 82.7785 70.5542 82.5029 70.446 82.1429C70.3973 81.9835 69.903 81.9413 69.6262 81.8137C69.4812 81.7511 69.3244 81.6338 69.2768 81.5073C68.8063 80.3523 67.6371 79.7278 66.7697 78.8699C66.3716 78.4886 65.9985 78.0649 65.5042 77.7896C64.9493 77.4718 65.0942 76.8681 64.6368 76.5398C64.19 76.2114 63.7931 75.8196 63.3832 75.4489C62.9613 75.0783 62.5276 74.7393 62.1415 74.3475C61.8397 74.0297 61.8765 73.5531 61.4309 73.2672C61.0447 73.0129 60.7073 72.6635 60.4423 72.3033C60.2011 71.9644 60.1286 71.5302 59.9112 71.1701C59.7555 70.9265 59.5143 70.704 59.2731 70.5241C58.5257 69.9733 57.6939 69.0942 57.164 68.2152C56.9833 67.9081 56.8384 67.5903 56.6209 67.3044C56.4284 67.0607 55.9947 66.9018 55.9591 66.6689C55.8866 66.277 55.7416 65.9592 55.3804 65.7686C54.7649 65.4403 54.9218 64.7094 54.3193 64.36C53.7644 64.0423 53.5957 63.428 53.4032 62.9302C53.2226 62.4641 52.8245 62.2418 52.512 61.924C52.234 61.6487 52.4752 61.1721 51.9809 61.0026C51.5959 60.1553 51.2216 59.2974 50.378 58.7043C50.4017 58.1747 50.1249 57.9206 49.5106 57.9418C49.2693 57.5074 48.9556 57.0944 48.8237 56.639C48.7025 56.226 48.3176 56.0777 48.0645 55.813C47.992 55.7388 47.6783 55.7176 47.6058 55.7812C47.1483 56.1836 46.5815 56.5649 46.3284 57.0626C46.1478 57.4228 45.8829 57.6558 45.6179 57.91C45.0392 58.4501 44.4368 58.9585 43.8332 59.4881C43.7488 60.3141 42.7495 60.5789 42.4477 61.2038C42.0496 62.0193 41.3509 62.7078 41.2179 63.6397C41.1466 64.0951 40.9291 64.593 40.6035 64.9637C40.158 65.4932 39.5793 65.938 39.0006 66.3723C38.8556 66.4888 38.5182 66.404 38.277 66.4358C37.9039 66.4782 37.3014 66.2453 37.2171 66.7218C37.1327 67.2938 36.2047 67.728 36.699 68.2893C37.3977 69.0836 37.0959 69.9415 37.1684 70.7888C37.2052 71.1596 37.349 71.6361 37.1446 71.8797C36.1809 73.0235 36.9034 74.2945 36.6622 75.4807C36.5303 76.095 37.4214 76.4339 37.1684 77.0694C36.9271 77.7049 37.7957 78.0543 37.6864 78.6581C38.0239 78.9017 38.2294 79.1664 38.1807 79.59C38.1332 80.1085 38.1213 80.628 38.1807 81.136C38.2294 81.5392 38.7356 81.783 38.7119 82.291C38.6869 82.6612 39.085 83.0428 39.1574 83.4346C39.2418 83.8686 39.1812 84.3242 39.1812 84.7582C39.1812 85.1296 39.1575 85.4998 39.1812 85.8711C39.2418 86.7812 39.2656 87.6389 37.8552 87.8189C37.5902 87.8508 37.362 88.2005 37.1684 88.434C36.819 88.8361 35.9754 89.482 35.6866 89.5138C35.4335 89.5355 35.0961 89.6095 34.9392 89.5036C34.2524 89.0161 33.3957 88.8259 32.6614 88.434C32.4558 88.3167 32.2752 88.1481 32.1302 87.9681C31.5278 87.2585 31.2747 87.099 30.7804 87.4066C30.4192 87.6389 30.0936 87.8087 29.6718 87.7346C29.4674 87.7027 29.1299 87.5649 29.1181 87.459C29.0575 86.8666 28.6832 86.5591 28.0688 86.4213C27.5508 86.3051 27.1646 86.0078 27.0933 85.5738C27.0327 85.2241 26.7796 85.076 26.5622 84.8755C26.2734 84.6102 25.9478 84.3778 26.056 83.9427C26.0809 83.8686 26.0679 83.7946 26.056 83.7205C25.9122 83.1066 26.4184 82.3867 25.671 81.8673C25.6342 81.2317 25.3573 80.6496 25.0317 80.1085C24.7299 79.6112 24.1275 79.177 25.008 78.6792C25.0555 78.658 25.0436 78.5415 25.0436 78.478C25.0436 76.4021 25.0436 74.3369 25.0436 72.261C25.0436 71.7633 24.3568 71.4878 24.5137 70.8841C24.6455 70.3969 24.5374 69.8568 24.5374 69.3378C24.5374 68.8189 24.5742 68.2999 24.5255 67.781C24.5137 67.5903 24.2962 67.4208 24.1881 67.2408C23.9706 66.8912 23.935 66.8594 24.2487 66.4888C24.4649 66.2347 24.7061 65.9275 24.453 65.7368C23.9956 65.3873 24.0194 64.9849 24.0194 64.5507C24.0194 62.5489 24.055 60.5578 24.0075 58.5561C23.9956 57.8676 24.3687 57.0732 23.5856 56.5013C23.6938 56.1836 24.055 56.0141 24.0431 55.6011C23.9956 53.5358 23.9837 51.4599 24.0431 49.384C24.055 48.7697 23.3563 48.4415 23.4894 47.7848C23.6094 47.2129 23.5132 46.6092 23.5132 46.016V42.6904C23.5132 42.0973 23.3931 41.4831 23.5488 40.9218C23.7175 40.2969 22.8026 40.1698 22.9832 39.5343C23.1401 38.9729 23.0189 38.3586 23.0189 37.7655V36.2086C23.0189 35.6897 22.9713 35.1707 23.0307 34.6518C23.1032 34.0375 22.2358 33.7516 22.477 33.0525C22.6339 32.5865 22.477 32.0358 22.4651 31.5274C21.7415 31.1143 22.1633 30.4471 21.9827 29.9282C21.8377 29.4726 21.4765 29.0808 21.2115 28.6572C21.1391 28.5407 21.006 28.4135 21.006 28.2971C20.9822 27.8522 20.9703 27.4074 21.006 26.9626C21.0428 26.4966 20.4392 26.3377 20.4641 25.8187C20.5117 24.4525 20.4523 24.4525 21.5609 23.5416C21.8377 23.3193 22.1277 23.2345 22.4045 23.5204C22.7539 23.8912 23.3325 23.7323 23.67 24.1135C23.9231 24.389 24.4531 24.2936 24.4899 24.0606C24.5137 23.87 24.4649 23.6475 24.3806 23.4675C24.2962 23.2769 24.0681 23.118 24.0431 22.9273C23.9956 22.4084 24.1037 21.8788 24.0075 21.381C23.8506 20.5973 24.3687 20.1736 24.9117 19.697C25.1648 19.4747 25.3929 19.337 25.7672 19.3687C26.1891 19.4005 26.6109 19.3899 27.0327 19.3687C27.5508 19.3476 27.7551 20.0042 28.3457 19.8559C28.3588 19.8559 28.4907 20.216 28.5869 20.4067C28.6832 20.6291 28.865 20.7243 29.1537 20.7138C29.648 20.6926 30.1661 20.6079 30.1423 21.3386C30.1423 21.5399 30.5404 21.7835 30.7935 21.9741C31.0822 22.186 31.1309 22.4401 31.1309 22.7473C31.1309 22.9485 31.1785 23.2345 31.3353 23.3193C32.1433 23.8064 32.2277 24.5055 32.1302 25.2574C32.0708 25.6598 32.2633 25.9247 32.5651 26.2212C32.7933 26.4542 32.6495 26.7613 32.3477 26.9626C31.9865 27.1956 32.3358 27.3332 32.4677 27.4286C32.7208 27.6087 32.7089 27.9687 32.6245 28.0111C31.9746 28.3712 32.5164 28.6466 32.6008 29.0066C32.7457 29.6421 32.6364 30.3306 32.6364 30.9979C32.6364 31.4427 32.4439 31.9934 32.6733 32.3111C33.4801 33.402 33.0107 34.567 33.1307 35.7003C33.1795 36.1345 33.1795 36.5053 33.5407 36.8971C33.7938 37.1724 33.7581 37.7761 33.6013 38.1681C33.4563 38.5387 32.962 38.8246 33.6369 39.1424V40.6993C33.6369 41.2183 33.6619 41.7372 33.6369 42.2562C33.6132 42.7752 33.7581 43.1882 34.0956 43.6543C34.3606 44.0249 34.1431 44.6604 34.1431 45.1794V47.8378C34.1431 48.3567 34.2275 48.8863 34.1193 49.384C34.0112 49.903 34.698 50.0619 34.6612 50.5385C34.6136 51.1316 34.6374 51.7247 34.6612 52.3178C34.6612 52.5614 34.843 52.6567 35.1317 52.6991C35.8185 52.805 36.3615 52.5296 36.5778 52.0636C36.7715 51.64 36.8677 51.3859 37.4702 51.2693C37.8314 51.2058 37.7114 50.4961 38.1926 50.2314C38.6631 49.9666 39.2299 49.8924 39.6149 49.4688C39.9524 49.0981 40.3504 48.7909 40.9778 48.611C41.6159 48.4309 42.0259 47.6365 42.6651 47.3929C43.327 47.1387 43.7737 46.7257 44.1469 46.2915C44.6768 45.6772 45.5573 45.6136 46.136 45.0735C46.6778 44.5757 47.0402 43.7813 48.0395 43.7919C48.4613 43.4318 48.8713 43.0612 49.2931 42.701C49.1968 42.0656 49.848 41.8538 50.1855 41.4725C50.233 41.4196 50.3055 41.3666 50.3661 41.3136C51.0172 40.7417 51.6802 40.1592 52.3302 39.5872C52.9814 39.0153 53.5838 38.3692 54.3074 37.8821C55.0548 37.3737 55.283 36.5794 55.8985 36.0075C56.5366 35.4144 57.1996 34.853 57.8626 34.2811C58.5257 33.7092 59.1768 33.1373 59.8268 32.5547C60.1048 32.3005 60.3579 32.0782 60.478 31.6756C60.5861 31.3049 61.1529 31.0508 61.4178 30.6906C61.684 30.3306 62.4789 30.6907 62.467 29.9917C62.467 29.515 63.0338 29.2927 63.3832 29.0066C63.7563 28.6996 63.925 28.3289 64.0938 27.9264C64.1781 27.7358 64.4074 27.5133 64.6237 27.471C65.383 27.2909 65.9866 27.0155 66.0223 26.2318C66.4928 25.8081 67.1796 25.4587 67.3958 24.9609C67.6133 24.4419 67.9626 24.1135 68.3488 23.7535C68.6744 23.4463 69.1556 23.2027 69.0594 22.6838C69.5775 22.1013 70.3617 21.8258 71.0841 21.6565C71.5784 21.5399 72.0121 21.4764 72.3615 21.1269C72.6989 20.7985 73.1208 20.5338 73.4107 20.1736C73.7719 19.7288 74.555 19.9407 74.8211 19.4005C75.243 19.4005 75.6648 19.3899 76.0866 19.4005C76.2304 19.4005 76.4835 19.4747 76.5084 19.5488C76.7247 20.5973 77.8582 20.9786 78.4844 21.72C78.5688 21.8258 78.6175 21.9741 78.6175 22.1119C78.6294 22.4825 78.5926 22.8533 78.6294 23.2239C78.6651 23.5628 78.4726 23.7641 78.2314 23.9758C78.002 24.1771 77.7739 24.389 77.6289 24.6431C77.3758 25.0667 77.2915 25.5964 76.954 25.9458C76.3147 26.6237 75.5804 27.2486 74.8081 27.8204C74.6274 27.9581 74.1937 27.7993 74.0618 28.1912C73.905 28.6466 73.7113 29.1126 73.4107 29.5044C73.1338 29.8646 72.7358 30.1611 72.3496 30.4471C72.0609 30.6695 72.0003 30.9343 72.049 31.2308C72.1571 31.7709 71.8684 32.1735 71.5547 32.6077C71.2647 33.0101 71.2172 33.5397 70.9035 33.9103C70.4698 34.4187 70.3249 35.0754 69.6868 35.4885C69.0831 35.8804 68.6019 36.4099 68.0589 36.8865C67.6977 37.2042 67.3483 37.5114 66.9871 37.8291C67.1428 38.3904 66.589 38.5811 66.2635 38.8988C65.926 39.2272 65.5517 39.5343 65.2024 39.8415C64.853 40.1486 64.9861 40.6887 64.4918 40.9112C64.1425 41.07 63.7931 41.2289 63.4557 41.3772C63.6719 42.0656 62.997 41.9703 62.599 42.1397C62.2496 42.288 62.6714 42.9447 62.0084 42.9235C61.5866 42.9129 61.5866 43.1777 61.4059 43.4212C61.021 43.9614 60.4542 44.4168 59.948 44.8934C59.6581 45.1688 59.3693 45.4441 59.0556 45.6772C58.5744 46.0266 58.3807 46.4292 58.3807 47.0011C58.3807 47.7001 58.4651 48.3249 59.1887 48.7062C59.8149 49.0346 59.8399 49.6807 60.2617 50.0937C60.7073 50.5279 61.2253 50.9197 61.6709 51.3647C61.8159 51.5023 61.949 51.7459 61.924 51.926C61.8159 52.6461 62.0571 53.2604 62.7677 53.61C63.4307 53.9383 63.2988 54.6691 63.8407 54.9974C64.3587 55.3151 64.3706 55.8552 64.7211 56.2366C65.0705 56.6178 65.0455 57.2109 65.6123 57.4652C66.1185 57.6875 65.9498 58.2171 66.2872 58.5667C66.6366 58.9161 66.7209 59.4563 67.2034 59.774C67.6014 60.0388 67.8902 60.4306 68.2882 60.6955C68.7706 61.0238 68.9144 61.5003 69.1925 61.924C69.3731 62.1782 69.4337 62.4324 69.5656 62.676C69.6618 62.8561 70.168 62.8349 70.3736 63.0148C70.8916 63.4598 71.5784 63.8092 71.639 64.5401C72.2296 64.6248 72.4708 64.9743 72.712 65.4403C72.952 65.8851 73.4832 66.2029 73.9288 66.5524C74.3387 66.87 74.6037 67.4314 75.3273 67.3467C76.2304 68.3635 77.7133 68.9566 78.1957 70.3016C78.2682 70.4923 78.5082 70.704 78.7257 70.757C79.9305 71.0536 80.4973 72.0174 81.3647 72.6529C81.859 73.0129 82.149 73.5849 82.932 73.6272C83.1851 73.6378 83.6069 74.0191 83.6069 74.2203C83.6069 74.6652 83.86 74.93 84.1856 75.1206C85.2586 75.756 85.4273 76.9105 86.1141 77.7578C86.6322 78.3932 85.6317 78.8911 85.6198 79.5477C85.6198 79.76 85.1861 79.9719 84.9449 80.1723C84.2462 80.7874 83.6188 80.8296 82.534 80.3523C82.1121 80.1621 81.6784 79.8967 81.2804 79.8124C80.5698 79.6536 79.738 79.6324 79.0394 79.8124C78.3882 79.9719 77.6776 80.2259 77.2071 80.7555C77.0871 80.8922 77.099 80.9458 77.2796 81.0836C77.484 81.2214 77.6289 81.5176 77.8214 81.5278C78.292 81.5597 78.6175 81.6019 78.5926 82.1213C78.5688 82.4812 78.4845 82.9904 78.7138 83.1704C79.5693 83.8481 78.93 84.2605 78.412 84.5578C77.9426 84.822 78.3763 85.7333 77.4115 85.5533C76.8459 86.1456 76.0747 85.977 75.3511 85.9975L75.3867 85.9451Z" fill="#D9315A"/>
<path d="M272.951 79.9082C272.879 80.1941 272.806 80.4902 272.722 80.7762C272.614 81.1361 271.457 81.8993 271.072 81.8036C270.878 81.7615 270.77 81.4118 270.589 81.3696C268.131 80.8502 265.671 80.3524 263.213 79.8763C263.008 79.8341 262.755 79.9503 262.526 79.9925C261.67 80.1622 260.862 80.3422 259.934 80.1622C259.381 80.0563 258.718 80.5016 258.078 80.226C257.656 80.6076 257.187 80.4902 256.693 80.3741C255.873 80.1941 255.053 80.0141 254.234 79.8763C253.691 79.792 253.173 79.4949 252.559 79.8763C252.318 80.0244 251.775 79.792 251.366 79.7487C250.739 79.6856 250.099 79.2514 249.473 79.7703C248.822 79.6538 248.172 79.5479 247.521 79.4209C247.195 79.3573 246.893 79.2938 246.581 79.4949C246.134 79.7806 245.797 79.5691 245.604 79.1984C245.471 78.9337 245.074 78.8701 244.99 78.9337C244.447 79.3467 243.905 79.156 243.338 79.0395C242.518 78.8701 241.688 78.7536 240.88 78.5312C240.217 78.3512 239.711 79.0183 238.975 78.6477C238.421 78.3618 237.65 78.1817 237.035 78.2664C236.397 78.3618 235.794 78.457 235.167 78.3723C234.527 78.8913 233.901 78.4146 233.275 78.3723L231.961 78.1075C231.467 77.991 231.105 78.5735 230.574 78.2876C230.129 78.044 229.815 78.4464 229.442 78.51C228.984 78.5841 228.514 78.5947 228.056 78.7007C227.586 78.8066 227.031 78.9442 226.971 79.4421C226.875 80.2898 226.212 80.808 225.657 81.4015C224.934 82.1749 224.922 82.1635 223.909 81.9631C223.584 81.8993 223.259 81.8036 222.922 81.7717C222.391 81.7091 222.198 81.4858 222.379 81.0302C222.403 80.9778 222.343 80.8616 222.295 80.8399C221.643 80.6816 221.584 80.2157 221.5 79.7385C221.488 79.6644 221.186 79.6538 221.09 79.5691C220.68 79.209 220.246 78.849 220.523 78.2558L220.162 76.646C219.101 76.4553 219.691 75.3962 218.993 74.962C218.606 74.7183 219.173 74.6972 219.257 74.5489C219.354 74.3689 219.583 74.0723 219.522 74.0087C219.137 73.6063 219.246 73.2038 219.366 72.7696C219.462 72.3989 219.656 72.1553 219.993 71.8905C220.342 71.6152 220.366 71.181 220.185 70.7043C219.932 70.0477 219.944 69.9735 220.572 69.4122C220.921 69.105 220.86 68.7555 221.017 68.4273C220.294 67.9295 221.162 67.1563 220.631 66.6055C220.511 66.489 220.584 66.1925 220.631 65.9912C220.8 65.271 221.029 64.5509 221.174 63.8307C221.282 63.2799 221.632 62.7821 221.282 62.1466C221.078 61.7654 221.367 61.1723 221.439 60.6851C220.776 60.2297 221.535 59.573 221.137 59.0647C221.017 58.9164 220.969 58.6303 221.053 58.4716C221.319 57.889 221.029 57.3701 220.993 56.8087C220.957 56.2368 221.222 55.6543 221.415 55.0824C221.559 54.6376 220.933 54.3515 221.186 53.8538C221.367 53.4937 221.596 53.0595 221.198 52.604C221.053 52.4346 221.198 52.0638 221.235 51.7779C221.319 50.793 222.114 49.882 221.523 48.8123C221.378 48.5582 221.68 48.1028 221.765 47.7426C221.922 47.0966 222.065 46.4506 222.222 45.8045C221.488 45.3173 222.512 44.4912 221.777 44.004C222.138 43.1779 221.343 42.32 221.849 41.5045C222.271 40.8161 221.306 40.1064 221.873 39.418C221.355 38.9838 221.716 38.4754 221.668 37.9882C221.62 37.5222 221.247 37.0774 221.162 36.6114C221.041 35.9336 220.764 35.2769 221.029 34.5355C221.21 34.0377 220.547 33.4658 220.957 32.8832C220.982 32.8409 220.812 32.6185 220.692 32.5761C220.378 32.4702 220.065 32.4384 220.162 32.0042C220.258 31.5276 220.607 31.0722 220.209 30.5427C219.909 30.1401 220.306 29.7059 220.378 29.2823C220.474 28.7739 220.631 28.2762 220.764 27.7678C220.8 27.6301 220.813 27.45 220.909 27.3652C221.005 27.2805 221.247 27.2065 221.343 27.2594C222.065 27.5983 222.728 26.9204 223.488 27.2065C224.103 27.4288 224.826 27.4076 225.44 27.6407C226.067 27.8842 226.538 27.4182 227.08 27.503C227.658 27.5877 228.225 27.7254 228.803 27.8312C229.707 27.2171 230.55 27.8418 231.419 27.916C232.13 27.9795 232.793 27.5559 233.552 27.863C234.154 28.1067 234.865 28.1278 235.504 28.2867C235.878 28.382 236.132 28.2338 236.42 28.0749C237.035 27.7466 237.625 27.397 238.396 27.3017C238.771 27.2594 238.903 27.2065 239.108 27.503C239.216 27.6513 239.518 27.7148 239.746 27.7572C240.65 27.9478 241.555 28.1278 242.447 28.3079C243.338 27.863 244.194 28.2338 245.062 28.382C245.954 27.8948 246.809 28.3503 247.678 28.4455C248.316 28.5197 248.943 28.9539 249.581 28.5727C250.124 28.255 250.727 28.9116 251.221 28.4349C251.282 28.382 251.366 28.3079 251.425 28.3185C252.004 28.4138 252.583 28.5197 253.15 28.6468C253.656 28.7633 254.005 28.1596 254.535 28.4667C255.174 28.8375 255.789 28.4138 256.416 28.4032C256.97 28.3926 257.513 28.8269 258.078 28.3715C258.163 28.3079 258.392 28.3397 258.537 28.3715C259.103 28.4561 259.754 28.7527 260.224 28.5938C260.754 28.4243 261.272 28.6362 261.622 28.4985C262.297 28.2232 262.924 28.2656 263.514 28.4879C264.129 28.721 264.611 28.3079 265.153 28.3609C265.732 28.4138 266.299 28.6256 266.877 28.6786C267.166 28.6998 267.407 28.2444 267.756 28.4349C268.359 28.7633 268.829 28.2232 269.396 28.2973C269.938 28.3715 270.444 28.6786 271.06 28.2973C271.493 28.0325 272.157 28.6362 272.686 28.1384C272.783 28.0431 273.156 28.1596 273.385 28.202C273.879 28.3079 274.337 28.4243 274.796 28.0855C274.88 28.0219 275.278 28.1596 275.41 28.2973C275.675 28.5727 275.857 28.9222 276.097 29.2293C276.459 29.6953 276.712 30.2037 277.375 30.4897C277.917 30.7227 277.676 31.4217 277.966 31.8241C278.472 32.5232 277.7 32.6715 277.411 33.021C277.182 33.2964 276.881 33.5399 276.712 33.8365C276.64 33.9635 276.748 34.3025 276.893 34.3661C277.182 34.5037 277.58 34.5143 277.435 34.9274C277.315 35.2769 277.76 35.4676 277.736 35.7111C277.676 36.2195 277.507 36.7278 277.35 37.2256C277.315 37.3527 277.193 37.4693 277.073 37.554C276.41 38.0518 275.121 38.5072 274.168 38.3589C273.614 38.2741 273.289 38.7296 272.771 38.5813C272.288 38.4436 271.794 38.3695 271.3 38.2742C271.228 38.2636 271.107 38.2425 271.072 38.2742C270.54 38.8566 269.793 38.1789 269.228 38.539C268.673 38.8884 267.913 38.2213 267.395 38.8144C267.25 38.6449 267.118 38.4754 266.973 38.3059C266.371 38.825 265.732 38.433 265.094 38.3906C264.551 38.3589 264.068 38.7296 263.454 38.5284C263.14 38.433 262.706 38.6979 262.321 38.7084C261.996 38.7084 261.67 38.5601 261.333 38.539C260.935 38.5072 260.646 38.9838 260.199 38.7508C259.669 38.4754 259.284 38.9944 258.814 38.9202C258.32 38.846 257.825 38.7508 257.344 38.6237C256.838 38.486 256.512 39.0579 255.945 38.825C255.5 38.6343 254.969 38.6131 254.474 38.5072C253.788 39.1003 253.065 38.5707 252.353 38.5601C251.739 39.1003 251.064 38.539 250.474 38.6449C249.822 38.7614 249.232 38.899 248.581 38.6873C248.015 38.4966 247.556 39.1533 246.942 38.825C246.797 38.7508 246.497 38.8884 246.267 38.9414C244.761 39.2592 244.737 39.3333 243.699 39.0367C242.94 38.8143 242.302 39.3862 241.555 39.1215C241.253 39.0155 240.807 39.2804 240.434 39.3016C240.121 39.3227 239.819 39.1321 239.481 39.3333C239.301 39.4392 239.024 39.4604 238.806 39.4392C238.253 39.3862 237.746 39.1215 237.144 39.4921C236.793 39.7146 236.228 39.185 235.745 39.5451C235.359 39.8417 234.926 39.5769 234.564 39.4815C233.829 39.2804 233.154 40.0005 232.418 39.5451C232.395 39.5345 232.142 39.7146 232.106 39.8311C231.828 40.8373 231.443 41.8328 231.347 42.8601C231.286 43.538 231.588 44.2264 231.298 44.9466C231.045 45.5715 230.972 46.2493 230.756 46.8848C230.611 47.3402 231.31 47.6473 230.984 48.1134C230.984 48.124 231.25 48.3252 231.262 48.3146C232.033 47.6473 233.058 48.7806 233.829 48.0499C233.889 47.9969 234.143 48.0816 234.299 48.1134C234.625 48.1769 234.949 48.2404 235.287 48.3146C235.842 47.6261 236.758 48.4947 237.348 47.9545C237.397 47.9121 237.493 47.8698 237.566 47.8698C238.131 47.8804 238.674 48.3358 239.24 48.0075C239.856 47.6579 240.374 48.0287 240.915 48.1028C241.35 48.1663 241.7 48.0181 242.073 47.9863C242.771 47.9333 243.446 47.425 244.182 47.838C244.784 47.3826 245.435 47.6261 246.063 47.7744C246.569 47.8909 246.907 47.3296 247.46 47.5733C247.99 47.8062 248.521 47.7321 249.1 47.4991C249.461 47.3508 250.028 47.7956 250.497 47.4038C250.582 47.3296 250.835 47.3402 250.956 47.4038C251.678 47.7215 252.402 47.4885 253.077 47.3402C253.631 47.2237 254.15 47.0013 254.716 47.2449C255.367 47.5203 255.969 47.2449 256.597 47.1919C257.138 47.1389 257.621 46.7153 258.235 47.0331C258.596 47.2131 258.886 46.8954 259.103 46.7259C259.754 46.2175 260.368 46.62 260.995 46.7047C261.115 46.7259 261.26 46.8742 261.333 46.9907C261.706 47.6473 262.357 48.0604 263.02 48.4523C263.238 48.5794 263.514 48.6959 263.418 48.8865C263.177 49.4055 263.466 49.8503 263.562 50.327C263.611 50.6023 263.393 50.8989 263.37 51.1848C263.322 51.672 262.718 51.7355 262.514 52.1804C262.333 52.5722 261.694 52.8794 261.019 52.6146C260.79 52.5299 260.537 52.4982 260.284 52.4664C259.983 52.424 259.693 52.7629 259.791 53.0701C259.838 53.2077 260.031 53.3242 260.044 53.4513C260.044 54.1822 260.019 54.8917 259.103 55.273C258.729 55.4318 258.392 55.6649 258.031 55.8554C257.898 55.9296 257.681 56.0567 257.597 56.0144C256.656 55.4954 255.632 56.2686 254.727 55.8872C253.968 55.5695 253.281 55.8872 252.606 55.972C252.149 56.0249 251.739 56.258 251.209 56.1203C250.594 55.9614 249.931 55.6755 249.34 56.1838C248.774 56.1521 248.184 55.6967 247.666 56.0355C247.05 56.4486 246.316 55.6755 245.81 56.2898C244.869 56.0355 243.905 56.6816 242.965 56.258C242.278 56.4062 241.578 56.4592 240.868 56.4274C240.65 56.4168 240.409 56.6181 240.193 56.5969C239.699 56.5439 239.204 56.3533 238.71 56.3321C238.337 56.311 237.866 56.6181 237.59 56.5121C236.95 56.258 236.505 56.777 235.938 56.671C235.359 56.5545 234.794 56.4168 234.215 56.3321C233.998 56.3004 233.66 56.2898 233.54 56.3957C232.72 57.137 231.841 56.724 230.96 56.5757C230.321 56.4697 230.152 56.6498 230.358 57.3277C230.394 57.4654 230.587 57.6454 230.539 57.7089C230.093 58.2915 230.731 58.8104 230.635 59.3718C230.587 59.6578 230.539 59.9437 230.177 60.092C230.081 60.1344 229.984 60.2826 229.997 60.3673C230.032 60.5686 230.225 60.7699 230.201 60.9604C230.129 61.6807 229.538 62.4009 229.852 63.0892C230.189 63.8201 229.731 64.3708 229.659 64.9957C229.611 65.4299 230.152 65.7265 229.887 66.2243C229.683 66.6161 229.587 67.0821 229.599 67.5058C229.599 67.76 229.899 68.0353 230.129 68.2366C230.177 68.279 230.539 67.9401 230.744 67.9613C231.237 68.0035 231.743 68.0989 232.214 68.2472C232.877 68.459 233.383 67.7812 234.119 68.1306C234.684 68.4061 235.408 68.4696 236.071 68.5437C236.528 68.5966 236.915 68.1624 237.456 68.3637C237.903 68.5331 238.349 68.5331 238.867 68.3107C239.228 68.1624 239.928 68.6178 240.289 68.459C241.157 68.0777 241.941 68.2896 242.663 68.5543C243.375 68.8191 243.905 68.2472 244.556 68.4379C245.194 68.6178 245.869 68.7132 246.52 68.8509C247.027 68.3743 247.28 68.7238 247.605 69.052C247.737 69.1898 248.135 69.2745 248.316 69.2003C249.232 68.8085 250.124 69.031 250.931 69.3275C251.582 69.5605 251.992 68.978 252.583 69.158C253.138 69.3275 253.74 69.5182 254.294 69.4864C255.09 69.444 255.861 69.2639 256.669 69.5182C257.38 69.7405 258.139 69.8358 258.874 69.9841C259.693 70.1535 260.513 70.323 261.333 70.4713C261.647 70.5243 261.972 70.5667 262.285 70.5349C263.599 70.4078 263.599 70.3972 265.106 71.2339C265.877 71.1492 266.298 71.6681 266.732 72.0388C267.25 72.4836 267.625 73.0767 268.035 73.6169C268.155 73.7758 268.166 74.0087 268.178 74.21C268.215 75.0467 268.215 75.0467 268.963 75.1843C269.359 75.2585 269.746 75.4068 270.144 75.1208C270.276 75.0256 270.709 75.0361 270.805 75.142C271.215 75.5763 271.397 76.1906 272.12 76.36C272.096 77.2179 272.783 77.8004 273.204 78.4888C273.265 78.5947 273.205 78.7642 273.181 78.9019C273.096 79.262 273 79.622 272.903 79.9822L272.951 79.9082Z" fill="#D9315A"/>
<path d="M115.292 28.022C116.135 28.022 116.979 28.022 117.811 28.022C118.389 28.022 118.907 28.0008 119.402 28.435C119.667 28.6681 120.318 28.3397 120.763 28.7528C120.981 28.954 121.595 28.7846 121.897 28.9646C122.246 29.1659 122.523 29.346 122.982 29.3777C123.681 29.4306 124.259 29.9391 125.007 29.8755C125.489 30.3733 126.392 30.3309 126.766 30.977C127.754 31.1993 128.513 31.8772 129.55 32.0467C130.225 32.1526 130.912 32.375 131.442 32.8622C132.431 33.7625 133.624 34.5462 134.42 35.5629C135.083 36.3997 135.842 37.1199 136.601 37.8612C136.914 38.1684 136.855 38.6556 137.312 38.9415C137.722 39.1957 137.999 39.5982 138.409 39.8524C138.795 40.0959 138.674 40.5619 138.952 40.7632C139.421 41.1127 139.217 41.7694 139.831 42.013C140.434 42.2459 140.373 42.8602 140.675 43.2733C140.977 43.6864 141.217 44.1206 141.615 44.4807C141.76 44.6184 141.832 44.8513 141.856 45.0526C141.905 45.5504 141.783 46.027 142.313 46.4613C142.603 46.7048 142.17 47.3191 142.699 47.6368C143.037 47.8487 142.808 48.3147 143.218 48.5689C143.398 48.6853 143.351 49.0985 143.374 49.3738C143.435 50.0728 143.17 50.8248 143.869 51.4284C143.941 51.492 143.736 51.7992 143.639 51.9898C143.592 52.0957 143.459 52.2228 143.494 52.297C143.555 52.4241 143.772 52.4983 143.833 52.6253C144.086 53.1442 143.639 53.7585 144.182 54.2775C144.689 54.7541 144.351 55.4002 144.387 55.9721C144.447 57.0842 144.326 58.1962 144.435 59.2977C144.495 59.9332 144.073 60.3674 143.929 60.897C143.796 61.3841 143.904 61.9243 143.904 62.4433C143.904 63.0364 143.904 63.6295 143.904 64.212C142.88 64.7416 143.929 65.9808 142.892 66.5103C143.278 67.4953 142.158 68.2473 142.386 69.211C142.411 69.2958 141.132 71.5305 141.048 71.6047C140.651 71.9753 140.204 72.3248 139.88 72.7379C139.627 73.0662 139.506 73.4898 139.361 73.8818C139.229 74.263 138.662 74.1253 138.613 74.2313C138.191 75.2374 137.192 75.7987 136.445 76.5508C136.203 76.7943 135.854 76.7731 135.601 76.8896C134.842 77.2604 134.13 77.7264 133.407 78.1606C132.708 78.5842 131.791 78.7431 131.201 79.3574C131.117 79.4527 130.912 79.5268 130.779 79.5056C130.237 79.4528 129.888 79.6857 129.454 79.9298C129.092 80.1303 128.454 79.8125 128.116 80.3C128.079 80.3524 127.983 80.3957 127.911 80.4059C127.128 80.5335 126.223 80.0779 125.56 80.7761C124.73 80.7978 123.898 80.8399 123.078 80.8502C122.066 80.8616 121.053 80.8502 120.053 80.8502C119.8 80.8502 119.535 80.9037 119.294 80.8502C118.848 80.734 118.438 80.5016 117.979 80.4378C117.485 80.3638 116.967 80.4378 116.473 80.4059C116.341 80.4059 116.196 80.2579 116.088 80.1519C115.738 79.8125 115.305 80.0357 114.907 79.972C114.364 80.6497 113.557 80.374 112.845 80.4059C112.255 80.4378 111.664 80.374 111.073 80.4162C110.29 80.48 109.386 80.1098 108.76 80.8502C108.205 80.7659 107.603 81.0415 107.073 80.6702C106.892 80.5438 106.663 80.4276 106.445 80.4162C105.939 80.374 105.433 80.4583 104.939 80.3843C104.481 80.3217 104.204 79.8022 103.626 79.9503C102.794 79.5798 101.817 79.5056 101.01 79.0714C100.877 78.9973 100.648 79.0184 100.588 78.9337C100.432 78.7008 100.383 78.2665 100.202 78.2242C99.8767 78.15 99.5511 78.15 99.3467 77.8746C98.6956 76.9956 97.3945 76.8261 96.6946 75.9894C95.7915 76.1377 95.6466 75.1527 94.8517 75.0574C94.1399 74.9727 93.8749 74.1041 93.0313 74.0936C92.9101 74.0936 92.8138 73.8606 92.6701 73.7971C91.9464 73.4687 91.9821 72.685 91.4284 72.2402C90.8735 71.7952 90.3673 71.2975 89.8373 70.8209C90.0179 70.0266 88.7762 69.9525 88.7893 69.1899C88.7893 68.9781 88.4269 68.7345 88.1975 68.5332C87.9444 68.3214 87.7401 68.1096 87.8125 67.7813C87.9207 67.3577 87.607 67.114 87.3182 66.8492C87.1008 66.648 86.8002 66.5209 86.7883 66.1502C86.7764 65.6631 86.9927 65.1547 86.4389 64.7204C86.029 64.4027 86.5708 63.7142 85.9078 63.3542C85.7391 63.2588 85.7997 62.814 85.7997 62.528C85.7997 61.7125 85.8722 60.897 85.764 60.0921C85.6797 59.4884 85.1604 58.9694 85.2697 58.2704C85.366 57.6137 85.2935 56.9464 85.2935 56.2793V54.4999C85.2935 53.8327 85.2816 53.1654 85.2935 52.4983C85.3054 51.9157 85.366 51.3438 85.4016 50.7613C86.0884 50.3165 85.7034 49.681 85.7878 49.1303C86.6314 48.8336 86.0647 48.0606 86.4627 47.5944C87.0295 46.9273 87.1852 46.0588 87.885 45.4445C88.27 45.1056 88.4518 44.6078 88.8012 44.2371C89.1743 43.8346 89.5961 43.4745 90.0417 43.1357C90.8616 42.5214 91.1146 41.5469 91.9821 40.9433C92.7782 40.4031 93.6456 39.81 94.0924 39.058C94.7792 37.9142 95.8878 37.1833 96.8277 36.2937C97.8044 35.3723 98.8643 34.525 99.841 33.6142C100.251 33.2329 100.962 33.3599 101.251 32.841C101.468 32.4385 101.552 31.9937 102.276 31.8878C102.77 31.8136 102.939 31.0406 103.673 31.1146C103.734 31.1146 103.794 31.0194 103.867 30.9876C104.432 30.7439 104.336 30.1085 104.77 29.7802C105.505 30.0343 105.988 29.5153 106.578 29.3248C107.085 29.1553 107.542 28.8799 108.036 28.6575C108.242 28.5622 108.47 28.4668 108.699 28.4562C109.459 28.435 110.242 28.5622 110.965 28.4139C111.652 28.2763 112.266 27.9267 113.039 27.9902C113.786 28.0538 114.557 28.0008 115.305 28.0008L115.292 28.022ZM130.743 54.7012C130.743 54.1821 130.683 53.6632 130.755 53.1548C130.84 52.5405 130.057 52.2122 130.214 51.5556C130.334 51.0578 130.237 50.5282 130.225 50.0093C130.225 49.9563 130.129 49.8927 130.057 49.8504C129.514 49.5327 129.67 49.0349 129.755 48.6431C129.876 48.0606 128.996 47.8805 129.189 47.2662C129.309 46.8849 129.309 46.4295 128.827 46.0693C128.454 45.794 128.803 45.2963 128.489 44.8725C127.634 43.7287 127.128 42.4154 126.333 41.2292C126.019 40.7632 125.935 40.1701 125.585 39.7359C125.152 39.2063 124.536 38.7826 124.006 38.306C123.946 38.253 123.873 38.2108 123.826 38.1472C123.561 37.7976 123.163 37.7659 122.729 37.7765C122.15 37.7976 121.848 37.2363 121.162 37.2893C120.692 37.3211 120.173 36.9398 119.692 36.7279C119.547 36.6644 119.427 36.4526 119.317 36.4632C118.534 36.5797 117.63 36.0924 116.955 36.7915C116.076 36.9186 115.195 37.1093 114.389 36.5374C114.256 36.442 113.846 36.442 113.737 36.5374C113.424 36.8445 113.063 36.8762 112.629 36.8974C112.135 36.9186 111.568 37.3952 110.953 38.0519C110.905 38.1048 110.82 38.2108 110.773 38.2002C109.808 38.0625 109.639 39.2805 108.687 39.1428C107.976 39.7677 107.096 40.3078 106.59 41.0491C106.072 41.8223 105.758 42.7013 104.952 43.3262C104.999 43.8558 104.999 44.3536 104.397 44.682C104.011 44.8937 103.999 45.2645 103.842 45.5822C103.626 46.0164 103.047 46.3977 103.023 46.8214C102.998 47.3827 102.215 47.5944 102.42 48.1664C102.143 48.4312 101.817 48.6537 101.913 49.0879C102.023 49.6068 101.913 50.094 101.42 50.4541C101.528 50.9942 101.154 51.3862 100.973 51.8416C100.83 52.1911 100.455 52.4029 100.42 52.7524C100.359 53.3243 100.347 53.9068 100.31 54.4894C99.6117 54.9236 99.9729 55.5591 99.9135 56.1204C99.8648 56.6182 100.045 57.1583 99.4192 57.4972C99.4192 57.9951 99.5036 58.5352 98.8893 58.8635C98.8893 59.3083 98.8893 59.7531 98.8893 60.198C98.8893 60.4945 99.0212 60.9182 98.8524 61.0559C97.9007 61.8819 98.5875 62.8882 98.3819 63.7778C98.3106 64.1061 98.5637 64.2968 98.7443 64.5404C98.8287 64.6462 98.4306 65.017 98.5031 65.1335C98.6599 65.377 98.9736 65.5571 98.8762 65.8854C98.7324 66.4256 99.1543 66.8386 99.5511 66.9339C100.251 67.1034 100.72 67.4847 101.095 67.9295C101.758 68.7027 102.89 68.8934 103.602 69.6241C103.939 69.9631 104.674 69.5923 105.156 70.0796C105.458 70.3867 106.192 70.1218 106.698 70.5456C107.12 70.9056 107.964 70.3549 108.542 70.8739C109.001 71.2763 109.651 71.001 110.218 71.0434C110.64 71.0751 111.062 71.0222 111.471 71.0645C111.689 71.0857 111.87 71.2763 112.086 71.3504C112.303 71.4246 112.688 71.5305 112.737 71.467C113.098 71.0539 113.557 71.0328 114.075 71.0539C114.75 71.0751 115.425 71.001 116.088 71.0751C116.871 71.1599 117.473 70.8209 118.16 70.6303C118.607 70.5032 119.186 70.8103 119.559 70.3973C119.945 69.9736 120.608 70.4079 120.908 70.069C121.246 69.6876 121.825 69.8253 122.174 69.4759C122.355 69.2958 122.982 69.2534 122.982 69.1475C122.982 68.1731 124.163 68.3638 124.645 67.7919C125.428 66.8492 126.441 66.0231 127.477 65.2817C128.044 64.8793 128.116 64.3073 128.501 63.8625C128.815 63.4919 128.936 62.994 129.176 62.5598C129.417 62.1256 129.888 61.7231 129.67 61.1936C129.417 60.5899 130.189 60.3568 130.214 59.8273C130.261 58.7046 129.804 57.4972 130.695 56.4593V54.6906L130.743 54.7012Z" fill="#D9315A"/>
<path d="M23.0465 119.305C23.0465 119.171 23.0286 119.028 23.0465 118.893C23.1285 118.298 22.7649 117.608 23.3007 117.124C23.8652 116.608 23.1831 115.934 23.7558 115.394C24.1836 114.989 24.3654 114.379 24.647 113.855C24.893 113.395 25.1568 112.926 25.4301 112.474C25.6665 112.07 26.0848 111.712 25.9113 111.196C26.4757 110.657 26.7942 109.951 27.3574 109.443C27.8125 109.039 27.7673 108.443 28.3222 108.102C28.8035 107.801 29.1861 107.396 29.3952 106.832C29.5497 106.42 30.1319 106.134 30.5323 105.794C30.9779 105.405 31.4508 105.024 31.8786 104.611C32.178 104.325 32.7056 104.143 32.6058 103.627C32.9789 103.429 33.3972 103.271 33.6966 103.009C34.0424 102.715 34.4523 102.596 34.8528 102.413C35.252 102.223 35.5621 101.866 35.8711 101.548C36.1075 101.31 36.3713 101.27 36.6981 101.27C36.9072 101.27 37.2257 101.224 37.3172 101.104C37.7449 100.478 38.6444 100.462 39.1815 99.9536C39.6818 99.4854 40.5456 99.4137 41.0922 99.0252C41.6732 98.6129 42.5656 99.0651 42.9375 98.3748C43.5566 98.3908 43.938 97.6766 44.6474 97.9625C45.1203 97.5182 45.7299 97.5649 46.3573 97.5342C47.1035 97.4943 47.9317 97.803 48.5769 97.1685C48.6862 97.066 49.032 97.1287 49.2589 97.1287C50.4507 97.1287 51.6425 97.0968 52.8331 97.1367C53.4974 97.1606 54.2792 96.8667 54.7795 97.5342C55.4164 97.5342 56.0532 97.5342 56.6806 97.5342C57.1084 98.1208 57.7999 97.8588 58.3822 97.9705C58.8729 98.065 59.4552 98.2552 59.7368 98.573C60.2014 99.097 60.8834 99.2633 61.4561 99.5333C62.0015 99.7873 62.5933 100.295 63.3573 100.033C63.7114 100.525 64.2758 100.47 64.8307 100.454C64.9852 100.454 65.249 100.414 65.2846 100.478C65.6304 101.128 66.4586 100.684 66.9398 101.048C67.2131 101.254 67.6587 101.294 67.8952 101.508C68.4406 101.993 69.1143 102.262 69.8059 102.532C69.8689 102.556 69.996 102.509 70.0328 102.54C70.4879 102.921 70.8693 103.493 71.4064 103.659C72.1336 103.881 72.5436 104.333 73.0438 104.738C73.5072 105.119 73.935 105.532 74.3984 105.904C74.699 106.142 74.4899 106.564 74.8903 106.778C75.2171 106.96 75.4262 107.42 75.7447 107.468C76.5729 107.594 76.7903 108.063 77.1004 108.634C77.3547 109.109 77.9643 109.427 78.3909 109.84C78.4729 109.919 78.4182 110.11 78.3909 110.245C78.3374 110.546 78.455 110.776 78.7366 110.951C79.7015 111.57 80.0283 112.546 80.5927 113.403C80.6652 113.513 80.765 113.633 80.7745 113.751C80.8196 114.283 80.5832 114.871 81.2569 115.243C81.365 115.958 80.9194 116.766 81.7298 117.362C81.7298 118.052 81.7381 118.751 81.7298 119.441C81.7108 120.035 81.0751 120.464 81.2296 121.146C81.365 121.75 81.3115 122.392 81.2379 123.011C81.2022 123.384 80.6651 123.614 80.7649 124.09C80.8469 124.487 80.784 124.859 80.3918 125.209C80.1922 125.391 80.2742 125.867 80.3111 126.201C80.4014 126.93 80.2742 127.566 79.5197 128.002C79.4555 128.042 79.3462 128.113 79.3557 128.144C79.547 128.732 79.0468 129.145 78.8911 129.645C78.7735 130.009 79.0099 130.517 78.2186 130.453C78.1283 130.453 77.9726 130.605 77.9274 130.715C77.7278 131.128 77.6268 131.596 77.3452 131.953C77.0363 132.35 76.6358 132.738 76.1724 132.968C75.545 133.278 75.6354 133.913 75.1898 134.302C74.7715 134.675 74.1168 134.921 74.1073 135.563C73.0521 136.492 71.997 137.42 70.9513 138.34C70.5972 138.276 70.3513 138.444 70.16 138.674C69.4506 139.523 68.3051 139.777 67.3498 140.285C67.2226 140.347 67.0587 140.443 66.9398 140.411C66.1948 140.237 65.7397 140.935 64.9852 140.871C64.403 140.823 63.6936 140.585 63.1755 141.03C62.6289 141.506 61.8744 140.999 61.4193 141.331C60.7373 141.832 60.2548 141.8 59.5728 141.331C59.2817 141.133 58.6816 141.117 58.3085 141.514C57.9996 141.839 57.5635 141.617 57.1999 141.681C56.7721 141.101 56.0984 141.308 55.49 141.26C55.0349 141.221 54.5074 141.467 54.1438 141.109C53.6792 140.657 53.1064 140.903 52.5883 140.863C52.1154 140.823 51.633 140.879 51.1601 140.847C50.7145 140.815 50.478 140.331 49.9231 140.419C49.4776 140.491 49.0225 140.491 48.641 140.101C48.3499 139.809 47.7225 140.205 47.3577 139.801C47.2401 139.673 46.9585 139.625 46.7494 139.602C46.2218 139.562 45.7025 139.657 45.2391 139.221C44.9848 138.983 44.3111 139.348 43.9653 138.912C43.8929 138.824 43.711 138.792 43.5661 138.761C43.1193 138.674 42.5656 138.967 42.2198 138.594C41.8919 138.253 41.3821 138.356 41.028 138.046C40.6918 137.754 40.1095 137.546 39.6271 137.539C39.0912 137.539 38.8001 137.238 38.3996 137.079C37.5263 136.73 36.5804 136.476 35.8532 135.936C35.1522 135.421 34.261 135.159 33.642 134.508C33.1785 134.008 32.2874 133.913 31.8323 133.318C31.6053 133.024 30.8044 132.564 30.5953 132.5C30.4587 132.46 30.2412 132.39 30.2222 132.302C30.0594 131.39 29.0946 131.033 28.5123 130.421C28.0584 129.945 27.3396 129.605 27.0484 129.073C26.73 128.502 26.3212 128.058 25.821 127.652C25.3017 127.24 25.3208 126.534 24.6565 126.185C24.2466 125.971 24.666 125.439 24.4379 125.249C24.0838 124.939 24.1111 124.487 23.7927 124.225C23.4374 123.939 23.5372 123.606 23.5099 123.281C23.4647 122.622 23.719 121.908 23.037 121.376V119.297L23.0465 119.305ZM54.2436 134.175H55.9166C56.5535 134.175 57.1999 134.103 57.8178 134.191C58.4452 134.286 58.7909 133.834 59.2912 133.762C59.6821 133.707 60.1004 133.683 60.4735 133.762C61.0462 133.889 61.228 133.278 61.7104 133.334C62.4293 133.421 63.0199 133.064 63.6663 132.944C64.8664 132.722 65.7766 132.008 66.8947 131.692C67.4044 131.548 67.6861 131.247 67.9677 130.953C68.5772 130.319 69.3686 129.907 70.1968 129.605C70.8967 129.351 71.4421 128.946 71.6702 128.414C71.9791 127.692 72.7159 127.13 72.679 126.272C72.679 126.105 72.8252 125.875 72.9892 125.772C73.5714 125.391 73.6795 124.765 74.0716 124.281C74.4435 123.813 74.6622 123.241 74.9438 122.726C75.2266 122.218 75.0531 121.512 75.0448 120.893C75.0448 120.472 75.0258 120.067 75.5082 119.813C75.3632 119.663 75.2076 119.519 75.0626 119.369C75.6532 119.059 75.526 118.552 75.526 118.084C75.526 117.671 75.4631 117.242 75.545 116.838C75.6449 116.354 74.926 116.204 75.0531 115.759C75.2539 115.037 74.8167 114.427 74.4352 113.911C74.0348 113.355 73.3623 112.918 72.7254 112.53C72.2524 112.236 71.6785 112.062 71.1521 111.832C70.697 111.626 70.1968 111.482 69.7595 111.252C69.2319 110.974 68.6141 110.935 68.096 110.744C67.5768 110.554 67.0135 110.324 66.5311 110.015C66.4764 109.983 66.3766 109.999 66.2946 110.015C65.6399 110.149 65.2763 109.531 64.5848 109.555C64.0477 109.571 63.5474 108.999 62.8749 109.181C62.5838 108.769 62.1109 108.665 61.6475 108.785C61.0011 108.943 60.7194 108.372 60.174 108.349C59.2734 108.301 58.2812 108.618 57.5088 107.944H53.9346C53.4617 108.396 52.8521 108.38 52.2247 108.364C51.6698 108.349 51.1149 108.349 50.5505 108.364C50.0051 108.38 49.468 108.427 48.9322 108.459C48.5412 108.975 47.9221 108.697 47.4124 108.785C47.2033 108.825 47.0215 108.967 46.8218 109.047C46.3394 109.237 45.857 109.387 45.4851 109.777C44.9753 110.308 44.2481 110.705 43.8477 111.276C43.4841 111.792 43.092 112.26 42.6559 112.72C42.4919 112.887 42.4563 113.188 42.3196 113.427C41.6376 114.633 40.9282 115.838 40.2271 117.044C39.9729 117.496 39.4548 117.925 39.7269 118.528C39.0995 118.909 39.3633 119.513 39.2267 120.011C39.0912 120.512 38.6634 120.916 38.7537 121.512C38.8547 122.194 38.8179 122.9 38.7632 123.59C38.7086 124.305 39.0817 124.875 39.4904 125.407C39.7816 125.788 40.1642 126.09 40.346 126.566C40.5004 126.978 41.192 127.13 41.192 127.724C41.192 127.922 41.5734 128.248 41.8289 128.288C42.865 128.47 43.2833 129.271 43.9653 129.803C44.1293 129.929 44.0473 130.295 44.3206 130.501C44.702 130.787 44.2659 130.795 44.1115 130.842C43.4841 131.065 43.3653 131.302 43.7384 131.644C43.8477 131.747 43.9748 131.834 44.0747 131.938C44.4383 132.318 44.8209 132.62 45.4756 132.532C45.6396 132.508 45.8392 132.746 46.04 132.818C46.7945 133.08 47.5039 133.429 48.2228 133.746C48.6767 133.945 49.2863 133.58 49.7782 133.992C50.2963 134.429 50.9878 134.127 51.5879 134.167C52.4612 134.223 53.3334 134.183 54.2067 134.183L54.2436 134.175Z" fill="#D9315A"/>
<path d="M218.659 139.094C218.659 138.467 218.651 137.832 218.659 137.206C218.669 136.602 218.442 135.936 219.196 135.515C219.196 134.889 219.206 134.262 219.214 133.635C220.087 133.151 219.388 132.206 219.833 131.754C220.415 131.167 219.978 130.461 220.333 130.041C220.869 129.39 220.797 128.755 220.824 128.081C221.543 127.558 221.342 126.828 221.37 126.153C222.225 125.764 221.588 124.819 222.27 124.343C222.68 124.058 222.307 123.582 222.479 123.249C222.616 122.987 223.052 122.876 222.999 122.487C222.88 121.71 223.708 121.154 223.589 120.313C223.507 119.703 224.29 119.123 224.099 118.385C224.053 118.21 224.263 117.98 224.381 117.79C224.826 117.06 225.326 116.362 225.162 115.473C225.08 114.989 225.863 114.815 225.727 114.251C225.608 113.807 225.709 113.315 225.727 112.847C226.628 112.26 226.282 111.394 226.209 110.681C226.136 109.991 227.046 109.625 226.782 108.991C226.491 108.285 227.255 107.888 227.355 107.292C227.409 106.936 228.046 106.769 227.873 106.308C227.664 105.762 228.337 105.531 228.437 105.087C228.519 104.738 228.846 104.437 228.937 104.095C229.01 103.825 229.137 103.603 229.401 103.659C230.284 103.841 230.692 103.286 231.202 102.865C231.493 102.627 231.765 102.564 232.103 102.881C232.494 103.247 233.131 103.071 233.449 103.524C233.731 103.921 234.222 104.071 234.731 104.222C235.359 104.405 235.341 105.095 235.704 105.5C236.078 105.912 236.605 106.174 236.586 106.856C236.578 107.316 236.941 107.824 237.25 108.245C237.451 108.507 237.696 108.713 237.623 109.063C237.496 109.737 237.751 110.229 238.351 110.704C238.769 111.03 239.005 111.554 239.234 112.03C239.361 112.3 239.197 112.688 239.351 112.926C239.961 113.887 240.561 114.847 241.088 115.846C241.234 116.116 241.325 116.402 241.471 116.648C241.707 117.044 242.153 117.354 242.507 117.694C242.153 118.385 242.826 118.869 243.108 119.369C243.435 119.948 243.636 120.662 244.318 121.059C244.781 121.328 244.682 121.734 244.672 122.114C244.672 122.4 244.836 122.558 245.137 122.55C245.827 122.534 245.772 122.94 245.764 123.328C245.764 123.645 245.737 123.947 246.264 123.979C246.982 124.019 247.265 124.589 247.674 124.971C248.074 125.335 248.111 125.923 248.638 126.28C249.102 126.597 249.593 126.93 249.639 127.572C249.657 127.819 250.921 127.85 251.066 127.612C251.138 127.486 251.185 127.32 251.166 127.184C251.112 126.764 251.357 126.494 251.613 126.153C251.921 125.74 252.795 126.129 252.795 125.447C252.795 124.971 253.276 124.827 253.532 124.527C253.631 124.399 253.895 124.273 253.868 124.185C253.586 123.106 254.65 122.71 255.241 122.066C255.386 121.908 255.514 121.654 255.496 121.464C255.459 121.027 255.678 120.749 256.005 120.456C256.487 120.019 256.86 119.163 257.151 118.274C257.26 117.925 257.561 117.631 257.661 117.282C257.751 116.988 257.661 116.656 257.688 116.346C257.706 116.211 257.806 116.052 257.933 115.965C258.879 115.346 258.988 114.275 259.662 113.521C260.07 113.069 259.58 112.474 260.189 112.03C260.59 111.736 260.68 111.125 260.934 110.665C261.19 110.197 261.453 109.769 261.535 109.213C261.616 108.681 262.427 108.213 262.462 107.689C262.499 107.086 263.381 106.872 263.109 106.246C263.791 105.928 263.572 105.087 264.246 104.761C264.4 104.69 264.573 104.563 264.618 104.429C264.854 103.801 265.118 103.095 265.628 102.691C266.192 102.238 266.265 101.62 266.72 101.168C266.929 100.962 266.91 100.572 267.129 100.382C268.011 99.6357 268.739 98.8349 269.093 97.771C269.194 97.4623 269.684 97.0887 270.039 97.05C270.694 96.9862 271.467 96.78 272.013 97.4304C272.203 97.6605 272.395 98.0091 272.831 97.9464C273.559 97.8507 273.777 98.1446 274.095 98.7153C274.405 99.2871 274.614 100.009 275.359 100.398C275.687 100.572 275.687 100.786 275.351 101.176C275.115 101.446 274.987 101.683 275.014 102.008C275.041 102.318 274.906 102.818 275.078 102.913C276.096 103.485 275.033 104.659 276.014 105.198C276.369 105.944 276.624 106.754 277.36 107.308C277.661 107.539 277.743 107.785 277.751 108.118C277.77 108.785 277.461 109.538 278.279 110.046C278.279 110.752 278.252 111.466 278.298 112.172C278.306 112.362 278.552 112.545 278.698 112.728C278.925 113.029 278.888 113.315 278.562 113.529C278.216 113.759 278.161 114.125 278.298 114.363C279.225 115.981 278.689 117.702 278.798 119.369C278.825 119.797 279.125 120.051 279.279 120.377C279.471 120.781 279.435 121.313 279.334 121.766C279.18 122.448 279.607 122.924 279.898 123.463C280.19 124.003 280.663 124.487 280.444 125.161C280.399 125.303 280.399 125.573 280.471 125.605C281.362 125.986 280.662 126.93 281.39 127.438C281.781 127.716 281.954 128.343 282.027 128.827C282.091 129.247 282.208 129.557 282.564 129.827C282.9 130.081 283.119 130.342 283.201 130.787C283.254 131.08 283.637 131.366 283.764 131.754C283.873 132.088 284.346 132.334 284.682 132.596C285.083 132.92 285.437 133.23 285.337 133.786C285.31 133.968 285.464 134.254 285.647 134.365C287.039 135.245 287.574 136.753 288.893 137.69C289.094 138.292 289.493 138.76 290.031 139.173C290.14 139.253 290.23 139.483 290.176 139.578C289.776 140.229 289.64 141.117 288.784 141.387C288.284 141.545 287.512 141.672 287.011 141.236C286.629 140.895 286.201 140.927 285.783 140.975C285.155 141.053 284.792 140.767 284.41 140.419C284.264 140.283 284.164 139.983 283.855 140.133C283.746 140.189 283.7 140.395 283.7 140.537C283.691 141.561 283.673 142.585 283.7 143.608C283.709 143.966 283.537 144.172 283.273 144.41C281.726 145.799 281.444 145.893 279.279 145.695C278.734 145.275 278.025 145.291 277.388 145.108C276.934 144.981 276.387 144.529 276.278 144.132C276.088 143.49 275.75 142.886 275.588 142.252C275.451 141.744 275.633 141.244 275.123 140.745C274.687 140.331 275.342 139.53 274.705 139.022C274.177 138.594 274.859 137.722 273.95 137.396C273.886 137.372 273.896 137.086 273.95 136.944C274.187 136.269 273.659 135.793 273.395 135.245C273.231 134.913 272.932 134.595 272.885 134.254C272.831 133.857 272.831 133.484 272.404 133.238C272.504 132.27 271.785 131.691 271.058 131.128C270.757 130.897 270.63 130.651 270.685 130.311C270.767 129.755 270.722 129.231 270.148 128.851C270.321 127.796 269.384 127.074 269.02 126.184C268.829 125.717 268.229 125.375 267.811 124.971C267.31 125.193 266.837 125.479 266.31 125.605C265.583 125.788 265.082 126.446 264.2 126.304C263.664 126.216 263.527 126.748 263.163 126.954C263.191 127.684 262.444 127.962 262.026 128.43C262.272 129.049 261.426 129.271 261.38 129.867C261.344 130.389 260.653 130.85 260.444 131.397C260.316 131.707 260.135 131.921 259.916 132.16C259.152 132.984 259.107 133.476 259.679 134.413C259.925 134.817 259.925 134.967 259.652 135.221C259.279 135.563 258.861 135.873 258.515 136.229C258.361 136.388 258.233 136.634 258.251 136.832C258.279 137.261 258.061 137.538 257.751 137.848C256.533 139.07 256.541 139.07 254.804 139.546C254.577 139.609 254.423 139.895 254.195 139.959C253.985 140.015 253.631 139.975 253.485 139.855C253.204 139.625 252.94 139.499 252.539 139.523C252.312 139.538 250.648 138.8 250.493 138.705C249.975 138.38 250.157 137.682 249.565 137.396C249.729 137.23 249.884 137.062 250.048 136.896C249.901 136.832 249.757 136.737 249.593 136.706C249.129 136.634 248.51 136.928 248.428 136.134C248.392 135.825 247.92 135.539 247.619 135.261C247.009 134.691 246.382 134.135 245.755 133.572C245.909 132.746 244.609 132.658 244.627 131.834C244.627 131.548 244.09 131.255 243.79 130.969C243.544 130.739 243.062 130.493 243.089 130.295C243.208 129.437 241.999 129.343 241.907 128.565C241.852 128.12 241.088 127.764 240.916 127.288C240.734 126.78 240.189 126.605 239.979 126.208C239.724 125.724 239.533 125.233 239.005 124.899C238.788 124.765 238.642 124.543 238.415 124.423C238.288 124.351 238.051 124.375 237.897 124.431C237.815 124.463 237.723 124.669 237.76 124.749C237.86 124.947 238.142 125.121 238.151 125.311C238.196 126.256 238.188 127.2 238.151 128.144C238.151 128.342 237.942 128.533 237.823 128.731C237.578 129.152 237.569 129.16 237.815 129.533C237.897 129.667 238.133 129.755 238.151 129.881C238.269 130.691 237.897 131.564 238.679 132.302C238.925 132.532 238.36 132.834 238.305 133.072C238.161 133.73 237.815 133.921 237.069 133.897C236.695 133.881 236.332 134.238 235.931 134.325C235.595 134.405 235.214 134.357 234.849 134.333C234.513 134.317 234.122 134.452 233.858 134.135C233.54 133.746 232.821 133.944 232.549 133.468C232.439 133.27 232.24 133.088 232.203 132.889C232.148 132.5 232.203 132.104 232.175 131.707C232.158 131.493 232.076 131.27 231.966 131.08C231.693 130.627 231.275 130.207 231.138 129.731C230.993 129.207 231.111 128.636 231.102 128.089C231.102 128.018 231.075 127.922 231.011 127.89C230.866 127.819 230.702 127.732 230.548 127.732C230.393 127.732 230.147 127.803 230.11 127.898C230.02 128.104 230.038 128.35 230.02 128.573C229.947 129.549 230.157 130.509 229.528 131.477C229.082 132.168 229.801 133.119 229.164 133.944C228.637 134.619 229.037 135.459 228.937 136.221C228.873 136.737 228.201 137.054 228.373 137.682C228.492 138.126 228.4 138.618 228.4 139.094V140.745C228.4 141.22 228.383 141.688 228.41 142.164C228.428 142.378 228.528 142.593 228.61 142.8C228.91 143.506 228.865 143.775 228.31 144.1C227.892 144.346 227.3 144.323 226.991 144.743L225.154 144.989C224.545 144.577 224.236 145.489 223.589 145.243C223.216 145.101 222.616 145.347 222.27 145.179C221.825 144.973 221.37 144.791 220.924 144.592C219.679 144.037 219.714 144.005 219.015 142.966C218.833 142.696 218.624 142.498 218.632 142.156C218.659 141.133 218.641 140.109 218.641 139.086L218.659 139.094Z" fill="#D9315A"/>
<path d="M122.777 142.99C122.66 142.99 122.532 142.966 122.414 142.974C122.095 142.99 121.85 142.894 121.65 142.664C121.35 142.331 121.022 142.022 120.695 141.712C120.522 141.546 119.922 141.506 119.722 141.688C119.322 142.054 118.876 142.228 118.285 142.124C117.939 142.07 117.612 142.07 117.284 142.316C117.139 142.426 116.711 142.346 116.465 142.252C116.274 142.172 116.184 141.942 115.947 142.188C115.666 142.474 115.347 142.656 114.855 142.576C114.319 142.498 113.765 142.466 113.227 142.49C112.755 142.514 112.618 141.99 112.145 142.062C112.118 142.062 112 141.871 112.036 141.808C112.219 141.403 111.736 141.157 111.736 140.807C111.736 140.443 111.746 140.061 111.818 139.705C111.9 139.276 111.345 139.015 111.5 138.546C111.636 138.15 111.59 137.706 111.6 137.284C111.6 137.198 111.527 137.102 111.463 137.015C111.163 136.57 111.226 136.142 111.527 135.729C111.826 135.309 111.918 134.865 111.59 134.453C111.381 134.191 111.518 133.952 111.49 133.706C112 133.381 111.909 132.889 111.936 132.436C112.118 129.905 112.264 127.374 112.482 124.851C112.536 124.209 112.2 123.463 112.955 122.947C113.01 122.106 113.063 121.266 113.118 120.416C112.418 120.035 113.473 119.765 113.192 119.409C113.264 118.409 113.282 117.401 113.419 116.41C113.491 115.87 113.182 115.235 113.81 114.791C113.827 114.775 113.747 114.632 113.683 114.569C113.364 114.227 113.646 113.863 113.591 113.513C114.21 113.085 114.001 112.466 114.056 111.926C114.155 110.871 114.201 109.816 114.283 108.769C114.31 108.403 114.347 108.071 114.001 107.753C113.837 107.602 114.192 107.19 113.882 107.039C113.637 106.92 113.382 106.84 113.155 106.658C112.973 106.515 112.7 106.61 112.536 106.8C112.428 106.936 112.373 106.928 112.273 106.792C112.2 106.698 112.145 106.523 111.891 106.682C111.572 106.88 111.191 107.11 110.836 107.11C110.39 107.11 110.054 107.38 109.698 107.364C109.244 107.34 108.944 107.602 108.553 107.642C108.152 107.689 107.889 108.023 107.406 107.935C107.043 107.864 106.724 108.34 106.27 108.173C105.87 108.403 105.442 108.507 104.969 108.467C104.678 108.935 104.051 108.515 103.695 108.839C103.596 108.927 103.369 108.991 103.222 108.959C102.722 108.847 102.331 109.093 101.895 109.197C101.522 109.292 101.241 109.585 100.758 109.499C100.395 109.435 100.094 109.847 99.621 109.752C99.394 109.713 99.1112 109.951 98.8486 109.998C98.6205 110.038 98.3567 110.022 98.1297 109.967C97.7198 109.871 97.4928 110.173 97.1649 110.228C96.9106 110.276 96.7193 110.276 96.7015 110.562C96.6563 111.054 96.7835 111.586 96.2832 111.982C96.5838 112.18 96.4472 112.307 96.2832 112.561C96.1109 112.839 96.1644 113.259 96.2381 113.601C96.2737 113.775 96.4923 113.917 96.4555 114.155C96.4008 114.577 96.3925 114.997 96.3652 115.418C96.3379 115.782 96.2285 116.156 96.6646 116.41C96.5197 116.56 96.301 116.64 96.2559 116.894C96.1644 117.377 96.3474 117.79 96.547 118.203C96.2832 118.781 96.9284 119.249 96.8108 119.829C96.7015 120.345 96.7383 120.884 96.6836 121.408C96.6468 121.694 96.7656 121.884 96.9474 122.114C97.0568 122.257 96.9106 122.534 96.9748 122.717C97.1114 123.074 96.2285 123.352 96.8928 123.725L96.8203 124.827C96.793 125.193 96.7834 125.565 96.7383 125.93C96.692 126.304 96.6646 126.652 97.0377 126.922C96.9831 127.66 96.9474 128.39 96.8381 129.121C96.8203 129.279 96.3557 129.421 96.5018 129.605C96.9653 130.183 96.7383 130.802 96.711 131.398C96.7015 131.644 96.8476 131.786 97.0104 131.93C97.2837 132.16 97.4655 132.404 97.3562 132.754C97.2659 133.048 97.475 133.421 97.1649 133.643C96.8833 133.849 96.9201 134.087 96.8654 134.341C96.8381 134.476 96.7015 134.603 96.5838 134.707C96.1834 135.031 95.6107 135.277 95.4099 135.674C95.1734 136.126 95.2732 136.706 95.2281 137.222C95.2007 137.538 95.1829 137.856 95.1639 138.174C95.1461 138.475 95.2399 138.858 95.4467 139.324C95.5465 139.554 95.701 139.769 95.7461 140.007C95.7925 140.205 95.6915 140.427 95.7188 140.633C95.7651 140.974 96.1466 141.22 96.0194 141.633C95.9279 141.934 95.9469 142.26 95.9469 142.576C95.9279 143.14 95.2554 143.545 95.455 144.172C95.474 144.227 95.3374 144.331 95.2649 144.41C94.9548 144.767 94.3095 144.885 94.2727 145.457C94.2727 145.513 94.1004 145.576 94.0006 145.607C93.6822 145.703 93.3637 145.783 93.0453 145.877C92.6543 145.997 92.4999 146.449 92.0353 146.449C91.617 146.449 91.1893 146.425 90.771 146.385C90.5072 146.362 90.3349 146.433 90.1258 146.576C89.9618 146.687 89.7075 146.703 89.4984 146.782C88.852 147.02 88.6524 147.004 88.2698 146.631C87.943 146.322 87.6245 145.997 87.3061 145.687C87.2241 145.607 87.0791 145.529 87.0791 145.449C87.0875 144.965 86.4874 144.767 86.4054 144.418C86.3234 144.029 85.8695 143.712 86.0787 143.275C86.1606 143.108 86.4244 142.942 86.3971 142.806C86.3603 142.632 86.106 142.514 86.1333 142.268C86.1868 141.847 86.2141 141.426 86.2236 141.006C86.2236 140.72 86.3698 140.537 86.5789 140.331C86.706 140.205 86.706 139.927 86.6692 139.737C86.624 139.499 86.2058 139.347 86.3781 139.062C86.5052 138.848 86.851 138.737 86.7785 138.419C87.1516 138.244 87.1873 137.951 87.2063 137.618C87.2609 136.618 87.3976 135.619 87.3881 134.611C87.3881 133.857 87.8515 133.064 87.1968 132.35C87.2336 131.77 87.2693 131.191 87.3239 130.612C87.3513 130.334 87.2966 130.127 87.0791 129.905C86.933 129.763 87.5972 129.627 87.1873 129.359C86.9425 129.199 87.0875 128.969 87.0791 128.771C87.0601 128.422 86.6145 128.192 86.769 127.772C86.8783 127.478 86.851 127.144 86.8427 126.828C86.8332 126.526 87.0696 126.176 86.769 125.923C86.4422 125.645 86.6145 125.335 86.6145 125.034C86.6145 124.725 86.6336 124.407 86.6514 124.089C85.9693 123.709 86.7512 122.939 86.1143 122.55C86.1143 122.241 86.1511 121.924 86.1143 121.622C86.0418 121.074 86.4969 120.48 85.9147 119.979C85.8778 119.948 85.8874 119.885 85.8874 119.837C85.8874 119.321 85.8969 118.797 85.9052 118.282C85.3776 117.822 85.7412 117.282 85.7602 116.782C85.778 116.306 85.2326 115.988 85.4418 115.465C85.5962 115.084 85.5237 114.632 85.5511 114.211C84.9593 113.791 85.4964 113.172 85.26 112.759C84.9047 112.148 85.0235 111.562 85.0591 110.958C85.0782 110.712 84.9047 110.594 84.7954 110.411C84.6326 110.157 84.4686 109.879 84.4413 109.593C84.4044 109.284 84.3771 109.031 84.1596 108.737C83.9588 108.467 84.3141 108.023 84.0682 107.689C83.8685 107.428 83.5584 107.229 83.3683 106.968C83.1591 106.682 82.8764 106.348 82.8859 106.04C82.8954 105.65 82.5947 105.372 82.5769 105.039C82.5401 104.46 82.6316 103.881 82.6767 103.301C83.2768 102.993 82.9132 102.191 83.6321 101.905C84.0682 101.738 84.2595 101.334 84.4864 100.976C84.6136 100.778 84.869 100.548 85.1233 100.93C85.1506 100.968 85.2231 101.016 85.26 101.008C85.6331 100.914 86.0323 100.842 86.3603 100.676C86.4969 100.604 86.5242 100.302 86.5147 100.112C86.4969 99.6118 86.788 99.3657 87.2883 99.2154C87.7149 99.0889 88.107 98.811 88.6072 98.9693C88.9067 98.5969 89.3439 98.6515 89.7432 98.7313C90.1983 98.819 90.3991 98.303 90.8898 98.4454C91.2083 98.5411 91.6895 98.5889 91.926 98.4454C92.2717 98.2312 92.5724 98.2551 92.9264 98.2472C93.391 98.2312 93.8996 98.4773 94.3 98.1447C94.6458 97.8587 95.1461 98.2551 95.4467 97.8827C95.5014 97.8189 95.6463 97.779 95.7556 97.779C96.0563 97.779 96.3557 97.8029 96.6646 97.8189L97.7566 97.8747C98.0573 97.525 98.548 97.7084 98.8747 97.5728C99.2122 97.4305 99.4843 97.3029 99.8574 97.3507C100.039 97.3746 100.221 97.3906 100.403 97.3746C101.268 97.3029 102.177 97.7631 103.005 97.2083C103.078 97.1605 103.242 97.2243 103.359 97.2163C104.105 97.1844 104.897 97.517 105.587 97.0181C106.161 96.9782 106.779 97.279 107.289 96.8268C107.289 96.8268 107.461 96.9304 107.516 97.0022C107.689 97.2163 107.953 97.1206 108.18 97.1525C108.543 97.2083 108.707 96.7721 109.143 96.8746C109.544 96.9703 109.981 96.9304 110.408 96.9543C110.773 96.9703 111.136 96.9942 111.5 97.0101C111.617 97.0101 111.764 97.0568 111.863 97.0261C112.291 96.8666 112.682 96.6764 113.192 96.7721C113.601 96.8507 114.037 96.8268 114.456 96.8507C115.402 96.3278 116.42 96.6844 117.411 96.7083C117.958 96.7242 118.33 96.272 118.921 96.4304C119.377 96.55 119.912 96.6046 120.358 96.4941C120.741 96.3985 121.077 96.1763 121.505 96.2641C121.669 96.3039 121.923 96.288 121.986 96.3825C122.378 96.9304 123.16 97.0409 123.588 97.5649C123.787 97.8189 123.778 98.033 123.778 98.287C123.778 98.3827 123.842 98.549 123.887 98.549C124.487 98.5729 124.487 98.9056 124.434 99.3031C124.397 99.6038 124.688 99.5651 124.907 99.6277C125.006 99.6596 125.134 99.9535 125.097 99.9854C124.606 100.382 124.778 101.056 124.288 101.437C124.305 101.762 123.979 101.874 123.76 102.024C123.496 102.207 123.514 102.326 123.76 102.485C123.869 102.564 123.832 102.619 123.687 102.707C123.496 102.833 123.242 102.961 123.169 103.135C123.115 103.255 123.342 103.453 123.406 103.627C123.442 103.723 123.406 103.833 123.387 103.945C123.351 104.206 123.506 104.285 123.787 104.333C124.633 104.476 125.116 104.968 125.079 105.706C125.052 106.23 125.561 106.634 125.407 107.158C125.671 107.34 125.706 107.578 125.671 107.856C125.616 108.379 125.697 108.935 125.524 109.427C125.352 109.919 125.898 110.165 125.852 110.586C125.816 110.942 125.779 111.324 125.898 111.656C125.97 111.855 126.097 111.926 125.87 112.124C125.606 112.355 125.624 112.672 125.825 112.974C125.907 113.101 126.007 113.243 126.015 113.379C126.062 113.981 125.706 114.616 126.261 115.164L126.197 116.116L126.097 117.536C126.562 117.917 126.388 118.393 126.37 118.845C126.908 119.337 126.644 119.924 126.616 120.472C126.562 121.686 126.515 122.9 126.353 124.105C126.261 124.795 126.652 125.597 125.888 126.184C125.888 126.184 126.089 126.406 126.189 126.526C125.434 126.836 126.38 127.16 126.171 127.549C125.98 127.898 126.079 128.374 126.052 128.803L125.98 129.905C125.952 130.326 125.997 130.763 125.87 131.167C125.734 131.628 126.343 131.858 126.197 132.326C126.07 132.722 126.116 133.167 126.089 133.587L125.898 136.269C125.87 136.69 125.843 137.11 125.806 137.53C125.788 137.736 125.843 137.912 125.961 138.11C126.197 138.53 126.243 138.999 125.806 139.371C125.679 139.483 125.652 139.499 125.788 139.601C126.043 139.792 126.107 139.999 125.852 140.26C125.597 140.521 125.415 140.831 125.206 141.117C125.415 141.641 124.67 141.894 124.751 142.394C124.788 142.64 124.596 142.688 124.333 142.76C123.496 142.99 123.506 143.022 122.824 142.982L122.777 142.99Z" fill="#D9315A"/>
<path d="M198.076 99.541C198.431 99.5649 198.786 99.5649 199.131 99.6116C199.504 99.6595 199.95 99.5251 200.223 99.8976C200.26 99.9454 200.405 99.9454 200.496 99.9534C200.996 99.9853 201.505 100.017 202.005 100.048C202.361 100.453 202.896 100.342 203.369 100.398C203.461 100.406 203.597 100.437 203.625 100.493C203.815 100.858 204.252 100.636 204.543 100.81C205.27 101.246 206.052 101.628 206.826 102.008C207.19 102.191 207.58 102.365 207.844 102.699C208.09 103.008 208.327 103.365 208.827 103.421C208.891 103.715 209.046 103.897 209.4 104.023C209.655 104.111 209.682 104.444 209.81 104.659C210.046 105.031 210.419 105.357 210.783 105.658C211.219 106.023 211.483 106.476 211.656 106.952C211.737 107.182 211.865 107.356 212.038 107.475C212.283 107.634 212.156 107.88 212.301 108.054C212.61 108.419 212.61 108.919 212.966 109.277C212.847 109.713 213.32 110.061 213.22 110.49C213.157 110.768 213.548 110.887 213.501 111.196C213.474 111.347 213.829 111.506 213.738 111.76C214.23 111.958 213.857 112.402 214.084 112.688C214.265 112.918 214.502 113.212 214.484 113.457C214.447 114.085 214.867 114.569 215.103 115.084C215.539 116.028 215.94 116.996 216.485 117.901C216.649 118.178 216.376 118.488 216.712 118.75C216.903 118.893 216.868 119.211 217.067 119.417C217.14 119.487 217.003 119.695 217.067 119.797C217.204 120.019 217.476 120.201 217.55 120.432C217.64 120.71 217.486 121.083 217.64 121.305C217.794 121.527 217.722 121.82 217.986 121.988C218.05 122.026 218.105 122.154 218.077 122.21C217.913 122.55 218.304 122.748 218.322 123.042C218.341 123.336 218.195 123.614 218.459 123.915C218.605 124.082 218.504 124.415 218.496 124.669C218.486 124.979 218.441 125.287 218.431 125.589C218.431 125.708 218.468 125.843 218.541 125.938C218.632 126.057 218.695 126.137 218.523 126.224C218.314 126.335 218.359 126.526 218.341 126.692C218.322 126.914 218.341 127.144 218.277 127.35C218.232 127.502 218.023 127.604 217.968 127.756C217.895 127.954 217.968 128.176 217.732 128.342C217.595 128.43 217.595 128.684 217.468 128.755C217.212 128.89 217.331 129.279 217.112 129.271C216.567 129.255 216.612 129.557 216.577 129.859C216.54 130.143 216.64 130.453 216.285 130.699C216.149 130.795 216.221 131.112 216.158 131.318C216.057 131.62 216.276 131.858 216.34 132.12C215.94 132.31 216.03 132.666 216.057 132.944C216.094 133.302 215.731 133.46 215.676 133.746C215.621 134.047 215.631 134.365 215.584 134.667C215.576 134.729 215.412 134.769 215.375 134.841C215.248 135.063 215.084 135.261 214.947 135.475C214.82 135.681 214.894 135.943 214.648 136.174C214.484 136.325 214.521 136.666 214.521 136.92C214.521 137.158 214.447 137.356 214.202 137.46C213.812 137.626 213.866 138.054 213.511 138.26C213.202 138.443 212.874 138.642 212.774 139.03C212.729 139.205 212.411 139.316 212.229 139.475C211.983 139.689 211.582 139.617 211.346 139.879C211.128 140.117 210.855 140.347 210.546 140.483C210.082 140.681 209.573 140.791 209.136 141.037C208.772 140.943 208.581 141.411 208.182 141.252C207.963 141.165 207.826 141.339 207.672 141.442C207.517 141.545 207.363 141.672 207.181 141.704C206.953 141.744 206.734 141.704 206.48 141.831C206.126 142.014 205.616 142.029 205.335 142.268C204.934 142.608 204.28 142.584 203.988 143.014C203.752 143.354 203.315 143.354 202.978 143.49C202.605 143.64 202.179 143.743 201.823 143.926C201.478 144.108 200.996 143.83 200.75 144.219C200.45 144.211 200.068 144.092 199.868 144.219C199.395 144.513 198.922 144.362 198.441 144.386C197.968 144.402 197.44 144.132 197.03 144.561C196.53 144.529 196.021 144.505 195.521 144.473C195.266 144.83 195.093 144.529 194.857 144.441C194.656 144.378 194.374 144.314 194.156 144.513C194.111 144.561 193.956 144.592 193.947 144.576C193.72 144.227 193.329 144.346 192.992 144.314C192.492 144.267 191.965 144.314 191.492 144.196C191.082 144.092 190.728 143.838 190.273 143.878C190.018 143.902 189.981 143.624 189.809 143.6C189.599 143.568 189.454 143.506 189.309 143.37C189.227 143.298 188.981 143.252 188.926 143.298C188.608 143.576 188.336 143.592 188.08 143.252C187.289 142.982 186.625 142.514 185.88 142.164C185.706 142.085 185.561 141.998 185.352 141.982C185.215 141.966 185.034 141.926 184.97 141.839C184.743 141.537 184.387 141.403 184.061 141.228C183.779 141.077 183.478 140.974 183.242 140.721C182.941 140.395 182.714 139.967 182.159 139.895C182.05 139.205 181.214 138.919 180.987 138.308C180.868 137.99 180.731 137.768 180.34 137.706C180.186 137.682 180.176 137.538 180.113 137.428C179.959 137.134 179.949 136.761 179.65 136.531C179.031 136.071 178.949 135.349 178.513 134.801C178.658 134.507 178.249 134.381 178.249 134.103C178.249 133.873 178.085 133.643 177.966 133.42C177.821 133.158 177.52 132.912 177.53 132.658C177.53 132.358 177.194 132.23 177.229 131.96C177.257 131.691 176.838 131.556 176.966 131.262C176.775 131.111 176.674 130.937 176.711 130.691C176.766 130.341 176.748 129.985 176.811 129.636C176.875 129.311 176.702 129.073 176.584 128.795C176.484 128.565 176.684 128.208 176.547 128.041C176.338 127.788 176.366 127.564 176.385 127.312C176.402 127.05 176.448 126.78 176.438 126.518C176.42 126.184 176.639 125.835 176.348 125.51C176.093 125.233 176.438 124.843 176.266 124.645C175.965 124.312 176.039 124.003 176.066 123.661C176.084 123.392 175.701 123.272 175.802 122.955C175.875 122.725 175.947 122.448 175.648 122.226C175.566 122.17 175.593 121.988 175.601 121.86C175.638 121.328 175.729 120.805 175.711 120.281C175.693 119.869 175.384 119.503 175.502 119.051C175.601 118.671 175.566 118.258 175.62 117.869C175.648 117.662 175.492 117.56 175.384 117.416C175.338 117.354 175.32 117.218 175.365 117.17C175.556 116.98 175.793 116.806 175.402 116.592C176.047 116.354 175.474 115.64 176.029 115.354C176.057 115.338 175.865 115.084 175.912 114.989C175.975 114.862 176.238 114.791 175.984 114.609C175.947 114.585 175.902 114.545 175.893 114.505C175.893 114.481 175.938 114.441 175.975 114.417C176.129 114.299 176.293 114.195 176.43 114.069C176.611 113.886 176.166 113.767 176.293 113.703C176.693 113.513 176.484 113.14 176.666 112.902C176.857 112.664 177.057 112.434 177.257 112.204C177.121 111.846 177.776 111.784 177.639 111.41C177.52 111.101 177.911 110.99 178.021 110.76C178.23 110.308 178.576 109.911 178.876 109.499C179.058 109.253 179.131 108.943 179.467 108.801C179.668 108.713 179.731 108.547 179.703 108.364C179.658 108.094 179.886 107.967 180.086 107.848C180.24 107.761 180.559 107.769 180.586 107.681C180.676 107.428 180.887 107.261 181.022 107.046C181.177 106.792 181.25 106.46 181.487 106.3C181.978 105.984 182.114 105.436 182.632 105.142C183.005 104.928 183.324 104.627 183.67 104.373C183.67 103.881 184.205 103.785 184.497 103.508C184.697 103.317 184.643 102.984 184.97 102.889C185.807 102.651 186.316 102.032 186.998 101.612C187.253 101.452 187.599 101.366 187.916 101.318C188.207 101.278 188.545 101.39 188.526 100.961C188.526 100.922 188.781 100.818 188.89 100.842C189.327 100.938 189.573 100.54 189.972 100.564C189.999 100.564 190.036 100.422 190.073 100.35C190.118 100.279 190.163 100.152 190.218 100.152C190.519 100.144 190.818 100.175 191.119 100.175C191.264 100.175 191.473 100.191 191.527 100.12C191.965 99.5729 192.592 99.7472 193.174 99.7711C193.628 99.795 194.074 99.819 194.529 99.8417C194.829 99.4772 195.32 99.7791 195.629 99.6356C196.258 99.3428 196.876 99.5012 197.503 99.5091C197.704 99.5091 197.903 99.5331 198.103 99.541H198.076ZM198.076 108.015C197.995 108.015 197.612 107.943 197.431 108.07C197.13 108.277 196.803 108.094 196.594 108.213C196.321 108.364 196.094 108.443 195.775 108.419C195.656 108.411 195.521 108.515 195.402 108.586C195.203 108.697 195.029 108.824 194.784 108.903C194.302 109.069 193.784 109.213 193.419 109.585C193.256 109.753 193.055 109.831 192.774 109.847C192.61 109.855 192.346 110.054 192.337 110.173C192.31 110.546 191.965 110.665 191.719 110.863C191.273 111.22 190.81 111.562 190.355 111.91C190.382 112.338 189.772 112.402 189.7 112.712C189.618 113.077 189.172 113.14 189.081 113.402C188.954 113.775 188.563 113.91 188.371 114.195C188.254 114.379 188.289 114.601 187.926 114.569C187.771 114.553 187.653 114.663 187.68 114.823C187.735 115.124 187.553 115.314 187.298 115.481C187.18 115.552 187.007 115.671 187.017 115.759C187.044 116.092 186.761 116.298 186.652 116.56C186.507 116.924 186.144 117.084 185.852 117.306C185.497 117.576 185.215 117.846 185.27 118.29C185.28 118.393 185.179 118.52 185.116 118.623C184.797 119.123 184.406 119.583 184.133 120.107C184.078 120.217 183.933 120.305 183.906 120.416C183.851 120.63 183.815 120.86 183.851 121.075C183.924 121.4 183.46 121.464 183.488 121.742C183.533 122.24 183.224 122.622 182.941 123.002C182.623 123.423 182.286 123.844 182.368 124.391C182.405 124.637 182.196 124.765 182.06 124.947C181.95 125.097 181.878 125.367 182.06 125.557C182.204 125.701 182.286 125.835 182.232 126.026L182.587 126.954C182.824 127.184 183.051 127.422 183.287 127.652C183.488 127.85 183.834 128.041 183.851 128.255C183.879 128.62 184.16 128.779 184.369 129.009C184.588 129.255 184.87 129.453 185.052 129.715C185.252 129.993 185.624 130.017 185.861 130.231C185.77 130.603 186.152 130.755 186.343 130.993C186.398 131.064 186.48 131.183 186.544 131.183C186.98 131.183 187.062 131.572 187.353 131.691C187.672 131.826 187.971 131.96 188.135 132.222C188.344 132.548 188.735 132.644 189.045 132.834C189.299 132.992 189.663 133.04 189.636 133.42C189.636 133.444 189.79 133.508 189.882 133.508C190.136 133.524 190.355 133.548 190.536 133.746C190.673 133.897 190.982 133.857 191.136 134.063C191.264 134.238 191.4 134.452 191.709 134.421C191.937 134.706 192.438 134.675 192.628 135.007C193.065 134.913 193.356 135.183 193.692 135.341C193.901 135.435 194.101 135.539 194.302 135.643C195.238 136.103 195.539 136.095 196.412 135.619C196.522 135.555 196.712 135.587 196.811 135.523C197.167 135.309 197.585 135.229 197.968 135.071C198.349 134.913 198.732 134.753 199.123 134.611C199.422 134.499 199.768 134.468 200.041 134.325C200.341 134.167 200.55 133.857 200.86 133.746C201.187 133.635 201.378 133.508 201.532 133.23C201.659 133.008 201.942 132.858 202.296 132.936C202.515 132.984 202.642 132.912 202.706 132.682C202.742 132.54 202.906 132.342 203.06 132.31C203.615 132.182 203.979 131.834 204.389 131.532C205.38 130.779 206.371 130.033 207.363 129.271C207.727 128.993 208.163 128.763 208.299 128.311C208.735 128.136 208.782 127.684 209.118 127.438C209.499 127.16 209.682 126.78 209.882 126.406C209.927 126.327 210.109 126.303 210.236 126.256C210.318 126.224 210.482 126.176 210.482 126.153C210.419 125.78 210.828 125.526 210.846 125.225C210.865 124.843 211.338 124.661 211.256 124.296C211.183 123.987 211.637 123.923 211.619 123.629C211.61 123.368 211.674 123.106 211.664 122.836C211.664 122.638 211.211 122.432 211.692 122.248C211.519 122.042 211.383 121.836 211.465 121.558C211.547 121.289 211.492 121.043 211.219 120.86C211.191 120.353 210.855 119.932 210.646 119.479C210.427 119.019 210.191 118.583 210.136 118.083C209.855 117.885 209.991 117.504 209.663 117.314C209.454 117.186 209.337 116.996 209.409 116.75C209.427 116.672 209.436 116.568 209.4 116.496C209.255 116.234 209.155 115.894 208.918 115.751C208.472 115.489 208.745 115.1 208.573 114.807C208.554 114.767 208.518 114.735 208.472 114.711C208.163 114.529 208.127 114.211 207.999 113.949C207.854 113.648 207.699 113.355 207.59 113.037C207.481 112.712 206.98 112.592 207.026 112.164C207.035 112.038 206.816 111.808 206.671 111.776C206.234 111.688 206.025 111.402 205.78 111.141C205.407 110.736 204.944 110.466 204.407 110.252C204.024 110.093 203.707 109.839 203.324 109.673C203.16 109.601 202.915 109.673 202.734 109.617C202.515 109.553 202.324 109.347 202.124 109.339C201.587 109.315 201.323 109.101 201.251 108.657C201.233 108.523 201.096 108.451 200.932 108.459C200.659 108.467 200.442 108.895 200.168 108.625C199.922 108.387 199.668 108.387 199.367 108.364C199.113 108.015 198.695 108.07 198.095 108.015H198.076Z" fill="#D9315A"/>
<path d="M151.336 137.174C151.372 136.745 151.39 136.317 151.445 135.897C151.509 135.405 151.355 134.857 151.882 134.468C151.91 134.088 151.964 133.714 151.964 133.334C151.964 132.976 152.164 132.612 151.782 132.263C151.654 132.143 151.763 131.818 151.782 131.58C151.818 131.057 151.855 130.541 151.91 130.017C151.927 129.827 151.863 129.676 151.773 129.501C151.572 129.12 151.527 128.7 151.927 128.366C152.045 128.272 152.072 128.248 151.937 128.16C151.736 128.034 151.746 127.851 151.763 127.66C151.836 126.811 151.937 125.955 151.955 125.106C151.964 124.527 152.328 123.9 151.782 123.36C151.91 122.924 151.618 122.408 152.136 122.035C152.173 122.011 151.927 121.757 151.927 121.607C151.927 121.131 152.019 120.663 152.019 120.187C152.019 119.742 152.318 119.25 151.828 118.862C151.855 118.44 151.91 118.012 151.9 117.592C151.9 117.219 152.164 116.806 151.882 116.497C151.509 116.085 151.8 115.679 151.773 115.275C151.755 114.902 151.809 114.513 151.855 114.14C151.882 113.958 151.7 113.902 151.654 113.783C151.545 113.538 151.427 113.292 151.308 113.054C151.208 112.862 151.355 112.586 151.336 112.356C151.3 111.95 151.627 111.514 151.173 111.157C151.181 110.784 151.273 110.395 151.173 110.047C151.091 109.713 150.835 109.403 150.626 109.102C150.554 109.007 150.372 108.927 150.235 108.92C149.881 108.896 149.49 108.761 149.18 109.086C149.126 109.142 148.881 109.094 148.754 109.047C148.007 108.745 148.007 108.745 147.316 108.92C147.216 108.943 147.134 108.999 147.034 109.007C146.57 109.062 146.116 108.824 145.633 109.102C145.215 109.34 144.697 109.126 144.215 109.118C143.724 109.11 143.241 109.062 142.751 109.039C142.432 109.023 142.46 108.832 142.468 108.642C142.468 108.602 142.432 108.538 142.405 108.531C142.259 108.491 142.086 108.42 141.977 108.46C141.713 108.562 141.95 108.682 142.032 108.745C142.149 108.84 142.168 108.943 142.004 108.943C141.358 108.943 140.713 108.904 140.068 108.872C139.849 108.864 139.64 108.824 139.476 108.999C139.304 109.181 139.239 108.999 139.13 108.927C138.858 108.737 138.52 108.69 138.257 108.872C138.02 109.039 137.966 108.943 137.775 108.824C137.448 108.626 136.957 108.753 136.666 108.396C136.593 108.308 136.256 108.372 136.056 108.396C135.965 108.412 135.892 108.562 135.81 108.562C135.437 108.57 135.056 108.586 134.692 108.539C134.337 108.491 134.192 108.816 133.828 108.8C133.146 108.761 132.6 108.634 132.181 108.11C131.972 107.84 131.818 107.57 131.672 107.286C131.536 107.039 131.245 106.856 131.054 106.634C130.845 106.388 130.608 106.238 130.244 106.277C129.899 106.317 129.635 106.206 129.426 105.936C129.207 105.667 128.916 105.445 128.689 105.175C128.48 104.921 128.134 104.769 128.07 104.381C128.025 104.087 127.806 103.826 127.806 103.484C127.806 103.254 127.488 103.04 127.561 102.73C127.634 102.406 127.243 102.278 127.079 102.048C127.052 102.008 126.987 101.969 126.997 101.946C127.007 101.906 127.079 101.89 127.106 101.85C127.188 101.739 127.288 101.628 127.333 101.509C127.425 101.247 127.243 100.922 127.552 100.723C127.816 100.549 127.706 100.295 127.788 100.089C127.925 99.7312 128.48 99.9374 128.662 99.6287C129.098 99.6526 129.535 99.6686 129.962 99.7153C130.208 99.7392 130.354 99.6526 130.536 99.533C130.726 99.3986 130.926 99.4612 131.081 99.6287C131.317 99.8827 131.645 99.8428 131.954 99.779C132.099 99.7472 132.209 99.6048 132.355 99.5808C132.963 99.4852 133.637 99.9135 134.2 99.4145C134.792 99.4453 135.401 99.4225 135.984 99.525C136.41 99.5968 136.656 99.2949 137.011 99.287C137.393 99.287 137.775 99.3268 138.147 99.3508C138.648 98.8667 139.267 99.1605 139.822 99.1844C140.267 99.2084 140.513 98.763 141.022 98.9304C141.413 99.0569 141.877 99.0011 142.313 99.025C143.005 98.6047 143.751 98.8667 144.478 98.8826C144.733 98.8826 144.869 98.7789 145.033 98.6525C145.178 98.5409 145.17 98.5887 145.725 98.6445C146.124 98.6844 146.579 98.8746 146.943 98.5329C146.98 98.5022 147.025 98.4623 147.07 98.4623C147.48 98.4304 147.925 98.6764 148.289 98.3108C148.662 98.3108 149.035 98.3108 149.399 98.3108C149.717 98.3108 150.008 98.3746 150.299 98.1445C150.444 98.034 150.808 98.1365 151.072 98.1206C151.582 98.0887 152.109 98.3427 152.619 97.9782C152.773 97.8665 153.137 97.9782 153.401 97.9782C153.829 97.9782 154.256 97.9782 154.675 97.9862C155.029 97.6285 155.484 97.8666 155.893 97.8426C156.275 97.4303 156.784 97.6684 157.248 97.6365C157.912 97.5898 158.63 97.9941 159.249 97.4781C159.849 97.518 160.441 97.5818 161.041 97.5738C161.495 97.5738 162.005 97.8426 162.423 97.4462C162.905 97.4462 163.378 97.4462 163.861 97.4702C164.352 97.4861 164.834 97.526 165.325 97.5579C165.952 97.1603 166.653 97.4064 167.326 97.3904C167.816 97.3824 168.099 97.8984 168.635 97.772C168.681 97.764 168.836 97.9064 168.826 97.9463C168.735 98.2242 169.118 98.3586 169.1 98.5568C169.053 99.2084 169.763 99.2084 170.128 99.4692C170.372 99.6367 170.827 99.5649 171.191 99.5968C171.473 99.2551 171.892 99.3348 172.228 99.4305C172.547 99.5171 172.692 98.9783 173.01 99.3348C173.247 99.5968 173.61 99.4612 173.919 99.5011C174.238 99.549 174.575 99.525 174.894 99.5729C175.029 99.5888 175.22 99.6765 175.265 99.779C175.447 100.183 175.994 100.137 176.258 100.429C176.367 100.557 176.766 100.604 176.758 100.668C176.731 100.945 176.903 101.104 177.076 101.279C176.794 101.762 177.467 102.12 177.313 102.604C177.276 102.722 177.512 102.898 177.512 103.048C177.512 103.151 177.258 103.246 177.249 103.358C177.204 103.683 176.758 103.826 176.821 104.215C176.876 104.524 176.303 104.691 176.448 105.071L175.803 105.968C175.63 106.135 175.347 106.214 175.339 106.508C175.339 106.65 175.203 106.73 175.002 106.714C174.566 106.674 174.12 106.714 173.702 106.618C173.192 106.508 172.856 106.96 172.338 106.848C171.919 106.762 171.473 106.762 171.037 106.77C170.864 106.77 170.691 106.952 170.518 106.96C170.409 106.96 170.29 106.793 170.163 106.714C170.128 106.69 170.036 106.682 170.009 106.706C169.554 107.078 168.981 107 168.498 106.872C167.99 106.738 167.734 107.214 167.298 107.11C166.835 107 166.653 107.372 166.353 107.546C166.261 107.602 166.18 107.666 166.107 107.73C165.834 107.968 165.47 107.92 165.233 107.776C165.006 107.642 164.834 107.508 164.543 107.508C164.006 107.508 163.47 107.484 162.933 107.468C162.642 107.816 162.241 107.61 161.887 107.634C161.532 107.666 161.159 107.452 160.805 107.73C160.486 107.984 160.068 107.706 159.722 107.8C159.486 107.864 159.331 108.11 159.013 108.054C158.976 108.054 158.876 108.277 158.831 108.396C158.685 108.777 159.222 109.023 159.085 109.435C158.985 109.745 159.021 110.093 158.995 110.427L158.903 111.562L158.822 112.554C158.804 112.792 158.849 113.054 158.749 113.26C158.54 113.72 159.048 114.029 158.995 114.442C158.949 114.823 158.931 115.195 158.903 115.577C159.549 115.917 158.822 116.6 159.367 116.965C159.404 116.989 159.441 117.044 159.441 117.084C159.422 117.37 159.359 117.656 159.386 117.934C159.413 118.186 159.603 118.432 159.631 118.686C159.658 119.012 159.595 119.345 159.568 119.679C159.54 119.957 159.54 120.195 159.767 120.465C159.922 120.647 159.904 121.003 159.586 121.21C159.322 121.385 159.458 121.646 159.394 121.861C159.822 122.202 159.74 122.662 159.603 123.034C159.431 123.51 159.949 123.796 159.877 124.225C159.804 124.645 159.804 125.074 159.767 125.503L159.668 126.78C159.631 127.208 159.558 127.637 159.576 128.058C159.586 128.358 159.931 128.588 159.831 128.954C159.732 129.319 159.758 129.708 159.732 130.089C159.704 130.422 159.677 130.747 159.658 131.081C159.64 131.35 159.531 131.635 159.849 131.866C159.931 131.929 159.894 132.128 159.886 132.263C159.859 132.738 159.849 133.214 159.767 133.682C159.704 134.032 159.922 134.286 160.022 134.587C160.104 134.841 159.941 135.183 160.068 135.405C160.195 135.627 160.277 135.809 160.25 136.047C160.205 136.475 160.186 136.896 160.14 137.325C160.123 137.515 160.123 137.69 160.304 137.832C160.549 138.031 160.432 138.308 160.359 138.499C159.913 139.689 159.894 139.681 160.113 140.705C160.123 140.761 160.076 140.839 160.031 140.903C160.004 140.943 159.922 140.967 159.913 140.999C159.859 141.277 159.84 141.553 159.777 141.823C159.732 142.045 159.359 142.109 159.404 142.395C159.513 143.077 159.149 143.538 158.53 143.934C158.122 144.196 157.602 144.426 157.512 144.95C157.112 144.997 156.803 145.338 156.357 145.259C156.211 145.235 156.047 145.196 155.939 145.108C155.702 144.91 155.502 144.688 155.292 144.474C155.111 144.292 154.892 144.132 154.774 143.934C154.665 143.744 154.71 143.482 154.465 143.331C154.429 142.815 154.038 142.482 153.592 142.26C153.11 142.014 152.846 141.705 152.6 141.269C152.318 140.776 151.818 140.379 151.4 139.951C151.218 139.768 151.109 139.594 151.136 139.332C151.218 138.626 151.255 137.912 151.308 137.205L151.336 137.174Z" fill="#D9315A"/>
</svg>
