<svg width="52" height="52" viewBox="0 0 52 52" fill="none" xmlns="http://www.w3.org/2000/svg">
<rect x="1.5" y="1.5" width="49" height="49" rx="24.5" fill="white"/>
<rect x="1.5" y="1.5" width="49" height="49" rx="24.5" stroke="#381067" stroke-width="3"/>
<path d="M14.1882 35.4041C14.1912 35.3538 14.1941 35.3064 14.1971 35.256C14.203 35.182 14.203 35.1642 14.1882 35.1434C14.1616 35.1079 14.1587 35.0931 14.1912 35.0664C14.2592 35.0131 14.2829 34.9539 14.2326 34.8798C14.2119 34.8502 14.2296 34.8205 14.2267 34.7909C14.271 34.7672 14.2562 34.7406 14.2326 34.7109C14.2237 34.6991 14.2267 34.6754 14.2178 34.6635C14.206 34.6458 14.206 34.6398 14.2178 34.6221C14.2503 34.5747 14.2592 34.5213 14.2237 34.4739C14.1941 34.4325 14.2385 34.3703 14.1794 34.3436C14.1794 34.3199 14.1853 34.2932 14.1823 34.2695C14.1823 34.2429 14.1912 34.2251 14.2119 34.2073C14.2237 34.1984 14.2296 34.1659 14.2237 34.1599C14.1912 34.1303 14.1941 34.0977 14.1941 34.0592C14.1941 33.9881 14.2267 33.914 14.1734 33.8489C14.1675 33.843 14.1734 33.8252 14.1734 33.8133C14.1734 33.7245 14.2089 33.6326 14.1527 33.5497L14.1616 33.4193C14.0995 33.3482 14.135 33.2682 14.1409 33.1912C14.1439 33.1379 14.1173 33.0994 14.1113 33.055C14.1054 33.0076 14.1143 32.9572 14.1173 32.9068C14.1202 32.8565 14.1291 32.8091 14.1261 32.7587C14.1261 32.7321 14.1025 32.7054 14.0966 32.6787C14.0906 32.658 14.1084 32.6284 14.0847 32.6106C14.0611 32.5928 14.064 32.5691 14.067 32.5454C14.0729 32.4773 14.0788 32.4091 14.0788 32.341C14.0788 32.2995 14.0995 32.2551 14.0581 32.2196C14.0492 32.2107 14.0522 32.184 14.0552 32.1692C14.0581 32.107 14.0611 32.0448 14.067 31.9855C14.067 31.95 14.0729 31.9144 14.0433 31.8848C14.0315 31.873 14.0315 31.8315 14.0433 31.8167C14.0611 31.787 14.0936 31.7663 14.0463 31.7337C14.0492 31.6834 14.0463 31.633 14.0581 31.5856C14.0729 31.5352 14.0078 31.5204 14.0226 31.4671C14.0374 31.4227 14.0315 31.3693 14.0345 31.319C14.0374 31.2508 14.0433 31.1827 14.0463 31.1146C14.0463 31.082 14.0404 31.0583 14.0256 31.0316C14.0049 30.9902 14.0138 30.9398 14.0404 30.8954C14.0729 30.845 14.0699 30.842 14.0463 30.7828C14.0463 30.7769 14.0374 30.7739 14.0345 30.768C14.0197 30.7235 14.0552 30.6732 14.0167 30.6287C13.9812 30.5873 14.0138 30.5339 14.0108 30.4865C14.0108 30.4717 14.0285 30.4569 14.0374 30.4421C14.0433 30.4273 14.0552 30.3977 14.0522 30.3947C14.0108 30.3621 14.0226 30.3177 14.0256 30.2762C14.0285 30.214 14.0374 30.1518 14.0374 30.0926C14.0345 30.0037 14.0818 29.9118 14.0197 29.8259C14.0078 29.8111 14.0197 29.7785 14.0197 29.7519C14.0315 29.5801 14.0463 29.4053 14.0492 29.2335C14.0492 29.1327 14.0966 29.029 14.0345 28.9313C14.0226 28.9135 14.0345 28.8839 14.0345 28.8572L14.0522 28.5788C14.0552 28.5284 14.0581 28.481 14.0611 28.4306C14.0611 28.3892 14.0788 28.3447 14.0345 28.3121C14.0788 28.2796 14.0729 28.2292 14.0759 28.1818C14.0759 28.1344 14.0936 28.087 14.0492 28.0455C14.0374 28.0337 14.0463 27.9952 14.0552 27.9744C14.0966 27.8737 14.0966 27.8737 14.0759 27.7226C14.0759 27.7137 14.0818 27.7049 14.0877 27.696C14.1202 27.6545 14.1232 27.6041 14.1025 27.5597C14.0906 27.5301 14.0788 27.5064 14.0818 27.4767C14.1113 27.0383 14.138 26.5999 14.1646 26.1644C14.1646 26.1289 14.1823 26.1081 14.206 26.0903C14.1409 26.0281 14.1882 25.9511 14.1853 25.883C14.1853 25.8089 14.1941 25.7349 14.1971 25.6608L14.2119 25.4386C14.2119 25.3942 14.2178 25.3527 14.2208 25.3083C14.2208 25.2816 14.2326 25.2638 14.2503 25.2461C14.2592 25.2372 14.2651 25.2105 14.2592 25.1987C14.2503 25.1779 14.2267 25.1661 14.2296 25.1364C14.2385 25.0565 14.2415 24.9765 14.2533 24.8995C14.2533 24.8846 14.2829 24.8728 14.2829 24.858C14.2917 24.7661 14.2947 24.6743 14.3006 24.5795C14.2533 24.5351 14.274 24.4788 14.271 24.4255C14.2681 24.3751 14.3243 24.3485 14.3183 24.2951C14.3124 24.2418 14.3243 24.1855 14.3272 24.1292L14.345 23.833L14.3568 23.6671C14.3597 23.6167 14.3657 23.5693 14.3657 23.519C14.3657 23.4805 14.3804 23.4508 14.4071 23.4242C14.4189 23.4123 14.4218 23.3649 14.4071 23.356C14.3686 23.3205 14.3775 23.279 14.3804 23.2375C14.3952 23.0094 14.413 22.7813 14.4218 22.5532C14.4248 22.4584 14.4692 22.3636 14.4071 22.2688C14.3923 22.2481 14.4071 22.2096 14.41 22.177C14.4248 21.9252 14.4425 21.6704 14.4573 21.4186C14.4573 21.3831 14.4692 21.3446 14.4307 21.3179C14.4248 21.312 14.4218 21.2883 14.4307 21.2853C14.4869 21.2409 14.4721 21.1757 14.478 21.1165C14.4839 21.0543 14.4869 20.992 14.4899 20.9328C14.4899 20.918 14.478 20.9002 14.4692 20.8854C14.4593 20.8637 14.4603 20.8429 14.4721 20.8232C14.4721 20.8232 14.4958 20.7936 14.4987 20.7788C14.5046 20.7225 14.5076 20.6691 14.5135 20.6129C14.5756 20.5684 14.549 20.5033 14.5579 20.444C14.5667 20.3877 14.5667 20.3344 14.5697 20.2781C14.5697 20.2307 14.6288 20.204 14.617 20.1478C14.6081 20.1063 14.62 20.0619 14.6229 20.0174C14.6259 19.9671 14.6229 19.9167 14.6348 19.8693C14.6407 19.8367 14.6643 19.8071 14.6762 19.7745C14.685 19.7478 14.6791 19.7123 14.6939 19.6886C14.7057 19.6679 14.7264 19.659 14.6998 19.6353C14.6909 19.6264 14.685 19.5908 14.6909 19.5879C14.7264 19.5642 14.7324 19.5316 14.7324 19.4931C14.7324 19.4457 14.7324 19.3953 14.7767 19.3627C14.7797 19.3005 14.7826 19.2383 14.7885 19.1791C14.7945 19.1168 14.8004 19.0576 14.8033 18.9954C14.8654 18.9717 14.8152 18.8858 14.8773 18.8562C14.8891 18.8502 14.895 18.7999 14.8861 18.788C14.8418 18.7317 14.8595 18.6725 14.8625 18.6132C14.8625 18.5984 14.8802 18.5836 14.8891 18.5688C14.895 18.554 14.9068 18.5244 14.9039 18.5214C14.8625 18.4888 14.8743 18.4444 14.8773 18.4029C14.8802 18.3525 14.8773 18.3022 14.8891 18.2548C14.9009 18.2163 14.8388 18.2015 14.8743 18.1659C14.9039 18.1363 14.9068 18.0919 14.9453 18.0652C14.9748 18.0445 15.0074 18.0326 15.0369 18.0178C15.0872 17.9911 15.1464 17.9734 15.1878 17.926C15.2114 17.8993 15.2144 17.8667 15.2085 17.843C15.2025 17.8134 15.1611 17.7867 15.2144 17.763C15.2144 17.7275 15.2232 17.7127 15.2646 17.7067C15.2972 17.7008 15.3208 17.6475 15.3504 17.6475C15.4007 17.6475 15.4036 17.6179 15.4184 17.5853C15.4332 17.5527 15.5544 17.5083 15.5899 17.5083C15.6195 17.5083 15.652 17.5083 15.6816 17.5142C15.726 17.5231 15.7526 17.5023 15.7762 17.4757C15.8058 17.4401 15.8236 17.4609 15.8413 17.4846C15.8413 17.4846 15.8502 17.4786 15.8531 17.4757C15.8857 17.4549 15.9064 17.4046 15.9596 17.4194C15.9951 17.4283 16.0335 17.4135 16.0572 17.4549C16.0572 17.4549 16.0779 17.4549 16.0808 17.4461C16.0897 17.4312 16.0927 17.3987 16.0986 17.3987C16.14 17.3987 16.1843 17.3927 16.2228 17.4075C16.3411 17.4549 16.3588 17.4579 16.4623 17.4135C16.4741 17.4075 16.483 17.4046 16.4948 17.3987C16.5392 17.372 16.5569 17.3216 16.5274 17.2772C16.5067 17.2476 16.5155 17.2061 16.483 17.1824C16.4623 17.1646 16.5333 17.1528 16.4948 17.1172C16.4682 17.0935 16.483 17.0461 16.4475 17.0254C16.4564 16.9898 16.4357 16.9691 16.415 16.9454C16.4357 16.8802 16.3943 16.8417 16.3588 16.8002C16.3588 16.7973 16.3647 16.7825 16.3706 16.7765C16.3736 16.7677 16.3854 16.7558 16.3825 16.7528C16.3647 16.7173 16.3322 16.6818 16.3263 16.6462C16.3174 16.5929 16.3292 16.5366 16.3322 16.4803C16.3322 16.4507 16.3322 16.4181 16.3381 16.3885C16.3381 16.3796 16.3558 16.3707 16.3647 16.3707C16.3913 16.3707 16.415 16.3707 16.412 16.3351C16.4061 16.267 16.4298 16.2167 16.4889 16.1811C16.5037 16.1722 16.5185 16.1574 16.5303 16.1456C16.5481 16.1248 16.5717 16.1219 16.5954 16.1248C16.6486 16.1307 16.7018 16.1248 16.7462 16.1693C16.7639 16.187 16.8053 16.1633 16.829 16.193C16.8142 16.267 16.8704 16.2492 16.9088 16.2552C16.9384 16.2581 16.9709 16.2552 16.9976 16.27C17.033 16.2878 17.0685 16.3115 17.0951 16.3411C17.1218 16.3737 17.1484 16.3885 17.1898 16.3855C17.246 16.3796 17.2755 16.4122 17.2962 16.4625C17.3199 16.5218 17.3347 16.587 17.3879 16.6314C17.4057 16.6462 17.4293 16.6699 17.4293 16.6877C17.4234 16.7499 17.5151 16.7647 17.4973 16.8299C17.5269 16.8565 17.5358 16.8891 17.5299 16.9276C17.5299 16.9365 17.5358 16.9573 17.5387 16.9573C17.6274 16.9632 17.6334 17.0846 17.7221 17.0876C17.7339 17.135 17.7605 17.1735 17.793 17.2091C17.8167 17.2328 17.8374 17.2446 17.8729 17.2446C17.9025 17.2446 17.9172 17.2565 17.9143 17.289C17.9143 17.3068 17.9113 17.3246 17.9113 17.3453C17.9113 17.3927 17.9113 17.3927 17.9586 17.4016C17.9912 17.4075 18.0474 17.4016 17.9853 17.452C18.0148 17.4994 18.0385 17.5586 18.1095 17.5586C18.1361 17.5586 18.1568 17.5645 18.1538 17.6001C18.1509 17.6297 18.145 17.6623 18.1509 17.6919C18.1538 17.7127 18.1864 17.7245 18.1834 17.7541C18.1804 17.7749 18.1923 17.7897 18.213 17.7897C18.2603 17.7897 18.2928 17.7956 18.2928 17.8549C18.2928 17.8726 18.3253 17.9082 18.3401 17.9052C18.417 17.8963 18.4436 17.9556 18.488 17.9971C18.5176 18.0237 18.5501 18.0533 18.5856 18.0682C18.624 18.083 18.6743 18.0682 18.695 18.1156C18.7127 18.16 18.7719 18.1481 18.7955 18.1867C18.8133 18.2192 18.8458 18.2311 18.8783 18.2459C18.902 18.2577 18.8783 18.3051 18.9138 18.3229C18.9286 18.3318 18.9404 18.3496 18.9552 18.3525C18.9848 18.3525 18.9966 18.3762 19.0114 18.397C19.0262 18.4207 19.0292 18.4592 19.0499 18.4681C19.0706 18.4799 19.0913 18.4829 19.109 18.5036C19.1267 18.5244 19.1297 18.5244 19.106 18.557C19.0972 18.5688 19.0942 18.5718 19.106 18.5836C19.1179 18.5925 19.1327 18.6073 19.109 18.6221C19.0913 18.634 19.0853 18.6577 19.109 18.6577C19.1741 18.6636 19.2243 18.6784 19.2332 18.7554C19.2362 18.7821 19.2805 18.7999 19.2864 18.8265C19.2983 18.8769 19.3397 18.9184 19.3278 18.9747C19.316 19.0339 19.319 19.0991 19.313 19.1583C19.3071 19.2146 19.3278 19.2502 19.3811 19.2679C19.4077 19.2768 19.4313 19.2976 19.455 19.3094C19.4727 19.3183 19.4875 19.3242 19.4846 19.3479C19.4786 19.3864 19.4786 19.422 19.5171 19.4457C19.5526 19.4664 19.5407 19.5108 19.5644 19.5375C19.5881 19.5671 19.6176 19.5908 19.6354 19.6205C19.6561 19.653 19.6679 19.6945 19.6827 19.7301C19.6856 19.7419 19.6856 19.7597 19.6916 19.7626C19.7211 19.7775 19.7655 19.7775 19.7507 19.8308C19.7507 19.8337 19.7596 19.8456 19.7625 19.8426C19.8039 19.8367 19.8187 19.8841 19.8542 19.89C19.9045 19.8989 19.9163 19.9463 19.9459 19.973C19.9725 19.9967 19.9962 20.0293 20.0198 20.0559C20.0612 20.1033 20.0671 20.1004 20.1233 20.0559C20.1558 20.0322 20.1765 19.9848 20.2268 19.9848L20.3688 19.9552C20.4249 19.9582 20.4811 19.9552 20.5344 19.9671C20.561 19.973 20.5728 20.0145 20.6083 20.0085C20.6467 20.0559 20.6852 20.0974 20.7562 20.0974C20.7709 20.0974 20.7887 20.1329 20.8064 20.1507C20.7384 20.1803 20.7946 20.2218 20.8064 20.2485C20.8301 20.3166 20.8656 20.3818 20.7946 20.444C20.765 20.5418 20.765 20.5447 20.7295 20.5714C20.6793 20.6069 20.6586 20.6514 20.6615 20.7106C20.6615 20.7462 20.6615 20.7847 20.6556 20.8202C20.6408 20.9032 20.7 20.9387 20.7473 20.9832C20.7502 20.9861 20.7591 20.9832 20.765 20.9832C20.8271 21.0039 20.833 21.0039 20.8242 21.0602C20.8153 21.1135 20.833 21.1372 20.8833 21.1461C20.8833 21.232 20.9927 21.2587 20.9927 21.3446C21.04 21.4009 21.0874 21.4571 21.1376 21.5134C21.1613 21.5371 21.1672 21.5638 21.1642 21.5964C21.1642 21.6112 21.1702 21.6319 21.182 21.6438C21.2056 21.6734 21.2263 21.703 21.2559 21.7267C21.2914 21.7563 21.2944 21.7978 21.3151 21.8334C21.3653 21.8274 21.3653 21.866 21.3772 21.8985C21.389 21.9371 21.4452 21.9519 21.4393 22.0052C21.4393 22.017 21.4629 22.0319 21.4688 22.0467C21.4836 22.0792 21.5487 22.0526 21.5428 22.1089C21.5398 22.1444 21.5901 22.1652 21.5753 22.2066C21.6108 22.2274 21.593 22.2777 21.6226 22.2985C21.6758 22.337 21.6699 22.4081 21.7172 22.4495C21.7468 22.4762 21.7764 22.5058 21.7793 22.5562C21.7793 22.5769 21.806 22.6125 21.8444 22.6125C21.8681 22.6125 21.8799 22.6273 21.8769 22.6451C21.871 22.6836 21.9095 22.7043 21.9124 22.7428C21.9154 22.7784 21.9597 22.811 21.9923 22.8406C22.0484 22.8969 22.0898 22.962 22.1105 23.0361C22.1194 23.0628 22.1342 23.0776 22.146 23.0954C22.1726 23.1339 22.214 23.1605 22.22 23.2168C22.22 23.2375 22.2466 23.2731 22.285 23.2731C22.3087 23.2731 22.3205 23.2849 22.3175 23.3057C22.3146 23.3442 22.3175 23.3738 22.3471 23.4064C22.3974 23.4568 22.4506 23.5071 22.4684 23.5812C22.5275 23.5693 22.5098 23.6227 22.5305 23.6464C22.56 23.6908 22.5689 23.7441 22.6103 23.7826C22.6783 23.8448 22.7345 23.9219 22.7966 23.99C22.8173 24.0137 22.8291 24.0344 22.8351 24.067C22.838 24.0937 22.8794 24.1115 22.8912 24.1381C22.909 24.1766 22.9711 24.147 22.9681 24.1974C22.9681 24.2418 23.0036 24.2596 23.0243 24.2862C23.0509 24.3218 23.0805 24.3514 23.1101 24.384C23.1337 24.4107 23.1603 24.4403 23.184 24.4669C23.2077 24.4936 23.2343 24.5232 23.2579 24.5499C23.2668 24.5588 23.2816 24.5706 23.2786 24.5795C23.2698 24.6388 23.3407 24.6536 23.3437 24.701C23.3437 24.7513 23.391 24.7691 23.4117 24.8047C23.4324 24.8372 23.4649 24.8284 23.4945 24.8284C23.5123 24.8284 23.5241 24.8165 23.527 24.7928C23.527 24.7691 23.5182 24.7454 23.5448 24.7247C23.5832 24.6951 23.6276 24.6654 23.6128 24.6062C23.6572 24.5617 23.6897 24.5025 23.734 24.4581C23.7607 24.4284 23.7666 24.3988 23.7784 24.3662C23.7932 24.3248 23.8109 24.2744 23.8494 24.2507C23.8908 24.224 23.8967 24.1707 23.9322 24.1381C23.9499 24.1203 23.9381 24.0759 23.9558 24.0552C23.9706 24.0344 24.0091 24.0463 24.0327 24.0196C24.0653 23.9841 24.1037 23.9604 24.1037 23.9011C24.1037 23.8656 24.1392 23.83 24.1628 23.7974C24.1835 23.7678 24.219 23.7589 24.2249 23.7115C24.2309 23.673 24.2959 23.6641 24.3018 23.6167C24.3077 23.5812 24.358 23.5693 24.3491 23.5249C24.4083 23.4805 24.4438 23.4212 24.4704 23.356C24.4733 23.3442 24.5 23.3412 24.5147 23.3353C24.5325 23.3294 24.5384 23.3175 24.5473 23.2998C24.5975 23.2079 24.6389 23.1102 24.7306 23.045C24.7424 23.0361 24.7395 23.0094 24.7513 22.9976C24.7927 22.9472 24.8282 22.8939 24.8666 22.8436C24.9051 22.7962 24.9228 22.728 24.9761 22.6895C24.9849 22.6836 24.9938 22.6688 24.9938 22.6599C24.9879 22.6095 25.0204 22.5829 25.05 22.5532C25.1062 22.4999 25.1801 22.4644 25.2067 22.3844C25.2126 22.3696 25.2481 22.3696 25.2688 22.3607C25.257 22.2866 25.3102 22.2511 25.3575 22.2126C25.3723 22.2007 25.3842 22.1889 25.393 22.174C25.4108 22.1444 25.4196 22.1089 25.4374 22.0822C25.4581 22.0526 25.4847 22.0259 25.5143 22.0052C25.5498 21.9845 25.5498 21.943 25.5705 21.9193C25.6089 21.8748 25.671 21.8511 25.6858 21.786C25.6858 21.78 25.7213 21.786 25.7331 21.7741C25.7597 21.7563 25.7775 21.7297 25.8041 21.7149C25.8366 21.6971 25.8189 21.6556 25.8484 21.6408C25.8721 21.626 25.8662 21.5964 25.881 21.5816C25.8928 21.5668 25.9253 21.5697 25.9431 21.5579C25.9756 21.5371 25.9993 21.5134 25.9933 21.469C25.9933 21.4453 25.9993 21.4216 26.0052 21.3979C26.0081 21.386 26.02 21.389 26.0318 21.4038C26.0407 21.4186 26.0495 21.4246 26.0702 21.4097C26.1146 21.3831 26.1087 21.3238 26.153 21.2972C26.1885 21.2764 26.2181 21.2409 26.2506 21.2142L26.363 21.1165C26.3955 21.0868 26.4251 21.0572 26.4606 21.0306C26.5168 20.9891 26.5582 20.9269 26.6351 20.9032C26.6972 20.8854 26.7238 20.8084 26.7977 20.7965C26.8273 20.7906 26.8539 20.7491 26.8805 20.7254C26.9456 20.6721 26.9958 20.604 27.0845 20.5803C27.0964 20.5803 27.1052 20.5655 27.1112 20.5566C27.123 20.5358 27.1259 20.5092 27.1437 20.4973C27.1614 20.4855 27.1851 20.4855 27.2087 20.4766C27.2708 20.444 27.3418 20.4262 27.3625 20.3433C27.3625 20.3344 27.3921 20.3225 27.4069 20.3255C27.466 20.3344 27.5133 20.3255 27.5547 20.2781C27.5666 20.2633 27.6021 20.2663 27.6168 20.2544C27.6316 20.2396 27.6375 20.2129 27.6494 20.1952C27.6701 20.1596 27.7115 20.1685 27.741 20.1478C27.7943 20.1122 27.8623 20.1122 27.9126 20.0678C27.9747 20.0826 28.022 20.0263 28.0811 20.0352C28.0959 20.0352 28.1196 20.0263 28.1284 20.0145C28.158 19.9789 28.1994 19.9759 28.2349 19.9552C28.2704 19.9345 28.294 19.893 28.3413 19.896C28.3443 19.896 28.3561 19.8782 28.3561 19.8663C28.3561 19.8426 28.3709 19.8308 28.3887 19.8308C28.4537 19.8397 28.507 19.8337 28.5543 19.7804C28.575 19.7567 28.6223 19.7686 28.6459 19.733C28.708 19.7449 28.7583 19.7093 28.8115 19.6916C28.8648 19.6738 28.9062 19.6442 28.9446 19.6056C28.9919 19.6264 29.0126 19.5553 29.0599 19.5731C29.0836 19.5819 29.1073 19.5731 29.125 19.5523C29.1546 19.5168 29.1901 19.499 29.2374 19.5108C29.2936 19.5227 29.3438 19.5108 29.3852 19.4664C29.403 19.4457 29.4385 19.4457 29.4621 19.4309C29.4887 19.4131 29.5094 19.3923 29.5331 19.3686C29.5508 19.3479 29.5745 19.3509 29.5982 19.3479C29.6514 19.342 29.6987 19.3242 29.7401 19.2887C29.7963 19.2413 29.8525 19.1909 29.9057 19.1435C29.9205 19.1317 29.9382 19.1109 29.9471 19.1139C30.0062 19.1317 30.0447 19.102 30.0743 19.0606C30.1068 19.0191 30.16 19.0191 30.1955 18.9895C30.2606 18.9332 30.3168 18.8621 30.3936 18.8236C30.4646 18.788 30.5238 18.7377 30.5799 18.6873C30.6243 18.6458 30.6775 18.6251 30.7337 18.6044C30.7455 18.6014 30.7662 18.5984 30.7662 18.5955C30.7662 18.5392 30.8136 18.5392 30.849 18.5244C30.8993 18.5036 30.9437 18.477 30.9821 18.4414C31.0413 18.3851 31.1034 18.3348 31.1625 18.2814C31.198 18.2489 31.2335 18.2163 31.2897 18.2311C31.3045 18.234 31.3163 18.2133 31.3163 18.1926C31.3163 18.1837 31.3252 18.1689 31.334 18.163C31.3488 18.157 31.3725 18.163 31.3843 18.1511C31.4316 18.1126 31.476 18.0711 31.5233 18.0296C31.5647 17.9941 31.5972 17.9526 31.6564 17.9467C31.6564 17.8934 31.7037 17.8934 31.7362 17.8726C31.7717 17.8519 31.7983 17.8252 31.8427 17.8104C31.887 17.7956 31.9225 17.7512 31.955 17.7156C32.0319 17.6297 32.1532 17.6001 32.2301 17.5112C32.2892 17.5201 32.3129 17.4697 32.3483 17.4401C32.4104 17.3898 32.4607 17.3187 32.5317 17.2861C32.6056 17.2505 32.6529 17.1824 32.7209 17.1528C32.8215 17.1113 32.8836 17.0313 32.9634 16.9691C32.996 16.9424 33.0285 16.9128 33.061 16.8832C33.0936 16.8565 33.1202 16.8299 33.1675 16.821C33.2059 16.8151 33.2207 16.7588 33.2739 16.7588C33.2976 16.7588 33.3213 16.7262 33.3449 16.7054C33.4159 16.6432 33.4839 16.584 33.5519 16.5218C33.5667 16.5099 33.5815 16.4862 33.5933 16.4892C33.6613 16.504 33.6732 16.4151 33.7353 16.4181C33.753 16.4181 33.7737 16.3914 33.7944 16.3796C33.8181 16.3648 33.7944 16.3114 33.8417 16.3174C33.8713 16.3203 33.8831 16.2878 33.9038 16.2878C33.9393 16.2878 33.96 16.2552 33.9837 16.2552C34.0458 16.2581 34.096 16.2285 34.1493 16.2107C34.2025 16.193 34.238 16.1485 34.2853 16.1307C34.3267 16.1159 34.3651 16.0774 34.4184 16.0922C34.4568 16.1041 34.4894 16.0922 34.516 16.0596C34.5278 16.0448 34.5485 16.0241 34.5574 16.0271C34.6254 16.0508 34.6845 16.0063 34.7496 16.0004C34.8176 15.9945 34.8649 16.0567 34.93 16.0596C34.9418 16.0596 34.9625 16.0833 34.9655 16.1011C34.9714 16.1515 34.9921 16.1693 35.0453 16.1722C35.1695 16.1722 35.2908 16.187 35.415 16.193C35.4386 16.193 35.4534 16.2048 35.4504 16.2255C35.4416 16.2729 35.4564 16.3085 35.4918 16.3381C35.5303 16.3707 35.5096 16.4418 35.5628 16.4566C35.6634 16.4862 35.687 16.5751 35.7195 16.6551C35.7284 16.6818 35.7373 16.6906 35.7609 16.6995C35.8112 16.7173 35.8349 16.7588 35.823 16.8151C35.8083 16.8773 35.8733 16.9217 35.8526 16.9869C35.8378 17.0402 35.8408 17.0965 35.8408 17.1528C35.8408 17.1735 35.8644 17.1913 35.8644 17.212C35.8644 17.2239 35.8437 17.2387 35.8319 17.2535C35.829 17.2565 35.829 17.2683 35.8319 17.2713C35.8733 17.3098 35.8615 17.3601 35.8615 17.4075C35.8615 17.4224 35.8704 17.4431 35.8822 17.4549C35.9265 17.4905 35.9325 17.5349 35.9236 17.5853C35.9147 17.6593 35.9118 17.7334 35.9058 17.8075C35.8437 17.843 35.8674 17.9052 35.8615 17.9585C35.8585 18.0089 35.9029 18.0533 35.8881 18.1126C35.8763 18.16 35.8792 18.2104 35.8792 18.2607C35.8792 18.2755 35.8851 18.2992 35.894 18.3081C35.9443 18.3496 35.9472 18.3999 35.9384 18.4562C35.9295 18.5036 35.9532 18.5599 35.9177 18.5984C35.8851 18.634 35.8792 18.6547 35.9118 18.6903C35.9206 18.7021 35.9206 18.7228 35.9206 18.7406C35.9206 18.7851 35.9147 18.8265 35.9147 18.871C35.9147 18.9065 35.962 18.9273 35.9443 18.9687C35.9295 19.0132 35.9946 19.0369 35.9739 19.0843C35.962 19.1168 35.962 19.1554 35.9975 19.185C36.0064 19.1939 35.9975 19.2205 35.9975 19.2383C35.9975 19.2739 35.9857 19.3213 36.0034 19.345C36.03 19.3805 36.0093 19.419 36.0241 19.4457C36.0419 19.4783 36.0596 19.5049 36.0537 19.5464C36.0478 19.5879 36.033 19.6412 36.0478 19.6738C36.0655 19.7064 36.0744 19.736 36.0774 19.7745C36.0774 19.8012 36.101 19.8278 36.1069 19.8545C36.1099 19.8841 36.1069 19.9167 36.104 19.9463C36.104 19.9819 36.0922 20.0174 36.1276 20.047C36.1365 20.0559 36.1276 20.0796 36.1306 20.0974C36.1336 20.1507 36.1069 20.204 36.1395 20.2574C36.172 20.3077 36.1336 20.367 36.1513 20.4173C36.1661 20.4559 36.1868 20.4914 36.1779 20.5358C36.2164 20.5684 36.2104 20.6099 36.2075 20.6514C36.2075 20.7047 36.1809 20.7639 36.2104 20.8113C36.2459 20.8647 36.2134 20.918 36.2223 20.9713C36.2282 20.998 36.2489 21.0246 36.2518 21.0513C36.2548 21.0809 36.243 21.1135 36.2489 21.1431C36.2578 21.1994 36.2903 21.2527 36.2755 21.3149C36.2637 21.3683 36.2637 21.4246 36.2637 21.4808C36.2637 21.5282 36.3169 21.5638 36.2903 21.6171C36.3228 21.6497 36.3258 21.6882 36.3199 21.7326C36.3139 21.783 36.3139 21.8304 36.311 21.8808C36.376 21.9104 36.3139 21.9904 36.3642 22.0259C36.3701 22.0319 36.3731 22.0467 36.3731 22.0585C36.379 22.1385 36.3346 22.2244 36.3908 22.3014C36.3287 22.3281 36.3938 22.3577 36.3908 22.3844C36.3879 22.414 36.3731 22.4555 36.3879 22.4762C36.4204 22.5236 36.4352 22.5592 36.379 22.5947C36.4293 22.6303 36.3908 22.6925 36.4086 22.728C36.45 22.805 36.4293 22.8821 36.4293 22.9561C36.4293 22.9976 36.4115 23.0391 36.4529 23.0776C36.4648 23.0894 36.4559 23.125 36.4529 23.1487C36.45 23.2227 36.4411 23.2968 36.4411 23.3709C36.4411 23.4242 36.4115 23.4805 36.4618 23.5279C36.4707 23.5368 36.4618 23.5634 36.4618 23.5812C36.4618 23.6108 36.4588 23.6434 36.4559 23.673L36.447 23.8034C36.4441 23.8537 36.447 23.9041 36.4352 23.9515C36.4234 23.9989 36.4677 24.0285 36.4648 24.067C36.4648 24.1589 36.45 24.2507 36.45 24.3455C36.45 24.4225 36.4056 24.4995 36.4677 24.5736C36.4825 24.5914 36.4618 24.6328 36.4677 24.6654C36.4736 24.7484 36.4263 24.8343 36.4884 24.9113C36.4855 24.9676 36.4766 25.0239 36.4795 25.0772C36.4855 25.172 36.4322 25.2698 36.4973 25.3616C36.5062 25.3734 36.4973 25.3971 36.4973 25.4149C36.5002 25.5097 36.4559 25.6075 36.515 25.6993C36.5091 25.803 36.5002 25.9096 36.4943 26.0133C36.4943 26.0666 36.4943 26.1229 36.4943 26.1763C36.5416 26.2148 36.4973 26.274 36.518 26.3125C36.5387 26.354 36.5535 26.3895 36.5416 26.431C36.5387 26.4458 36.518 26.4547 36.5062 26.4695C36.5712 26.5347 36.5032 26.6176 36.5328 26.6769C36.583 26.7865 36.5387 26.8932 36.5476 26.9998C36.5505 27.0472 36.5209 27.0976 36.5712 27.1361C36.5712 27.1716 36.5683 27.2101 36.5712 27.2457C36.5742 27.3109 36.5357 27.379 36.5919 27.4382C36.5949 27.4412 36.5919 27.4501 36.5919 27.456C36.586 27.536 36.583 27.616 36.5771 27.696C36.6451 27.7671 36.6008 27.847 36.5978 27.9241C36.5978 27.9774 36.6215 28.0159 36.6274 28.0603C36.6333 28.1018 36.6274 28.1462 36.6244 28.1877C36.6806 28.2322 36.6481 28.2914 36.6481 28.3418C36.6481 28.4069 36.6215 28.4751 36.6718 28.5343C36.6747 28.5402 36.657 28.564 36.6511 28.5788C36.6481 28.5876 36.6392 28.5995 36.6422 28.6025C36.6599 28.6202 36.6688 28.641 36.6658 28.6676C36.6599 28.7358 36.657 28.8039 36.6511 28.872C36.6511 28.9194 36.6304 28.9698 36.6806 29.0083C36.6777 29.0587 36.6747 29.1061 36.6718 29.1564C36.7279 29.2009 36.6984 29.2572 36.6954 29.3075C36.6244 29.3697 36.6599 29.4556 36.6511 29.5297C36.7191 29.5741 36.6363 29.666 36.7043 29.7104C36.7102 29.7134 36.7043 29.7341 36.7043 29.7459C36.7043 29.8141 36.7043 29.8793 36.7013 29.9474C36.7546 30.0066 36.7132 30.0777 36.7161 30.1399C36.7161 30.2022 36.7102 30.2644 36.7072 30.3236C36.7043 30.3918 36.7072 30.4628 36.6925 30.5251C36.6747 30.5932 36.7368 30.6347 36.722 30.6969C36.7102 30.7502 36.7132 30.8065 36.7102 30.8628C36.7723 30.9191 36.7309 30.9902 36.7339 31.0524C36.7368 31.1175 36.7043 31.1857 36.7605 31.242C36.7546 31.316 36.7457 31.3901 36.7486 31.4641C36.7486 31.4997 36.6688 31.5234 36.7368 31.5649C36.7368 31.6063 36.7368 31.6508 36.7309 31.6922C36.725 31.7308 36.7753 31.7485 36.7634 31.79C36.7546 31.8256 36.7575 31.8641 36.7546 31.8996C36.7546 31.9055 36.7634 31.9085 36.7664 31.9144C36.79 31.9529 36.8107 31.9974 36.8196 32.0418C36.8285 32.0833 36.8196 32.1277 36.8137 32.1692C36.7989 32.2255 36.8344 32.2581 36.861 32.2995C36.8906 32.3469 36.9172 32.4003 36.9083 32.4625C36.8995 32.5543 36.9024 32.5543 36.932 32.6343C36.9497 32.6787 36.9793 32.7172 36.9616 32.7706C36.9438 32.8239 36.9675 32.8654 37.0059 32.9009C37.0178 32.9128 37.0237 32.9335 37.0237 32.9483C37.0207 32.9779 36.9734 32.9868 36.9823 33.0224C36.9911 33.049 37.0237 33.0668 37.0148 33.1024C37.0089 33.126 37.0118 33.1527 37.0325 33.1675C37.071 33.1942 37.071 33.2386 37.0917 33.2742C37.1124 33.3038 37.142 33.3305 37.1627 33.3601C37.1715 33.3719 37.1774 33.3927 37.1774 33.4075C37.1774 33.4312 37.1774 33.4519 37.1952 33.4756C37.2188 33.5023 37.2573 33.5201 37.2425 33.5674C37.2662 33.5941 37.2898 33.6237 37.3164 33.6504C37.3401 33.6741 37.349 33.6978 37.346 33.7333C37.346 33.7482 37.3549 33.7659 37.3608 33.7807C37.3844 33.8222 37.4377 33.843 37.4436 33.8963C37.4495 33.9437 37.4939 33.9644 37.5175 33.997C37.5293 34.0148 37.5707 34.1273 37.5767 34.157C37.5796 34.1718 37.5885 34.1984 37.5974 34.1984C37.624 34.1984 37.6417 34.2162 37.6565 34.234C37.692 34.2755 37.7245 34.3169 37.7778 34.3347C37.8221 34.3495 37.8073 34.4088 37.8399 34.4354C37.8517 34.4473 37.8842 34.4532 37.8842 34.4532C37.8724 34.4947 37.9227 34.5154 37.9197 34.551C37.9167 34.5806 37.9463 34.5895 37.9522 34.6132C37.9552 34.631 37.9522 34.6487 37.9522 34.6695C37.9522 34.6991 37.9434 34.7287 37.9729 34.7524C37.9788 34.7583 37.9848 34.7761 37.9788 34.785C37.97 34.8057 37.9434 34.8265 37.9493 34.8383C37.9552 34.8591 37.9788 34.8739 37.9729 34.9035C37.967 34.9272 38.0173 34.9331 37.9936 34.9598C37.9759 34.9776 37.9729 35.0013 37.9611 35.022C37.9374 35.0605 37.8872 35.0783 37.8753 35.1346C37.8694 35.1612 37.828 35.1523 37.8103 35.1434C37.7659 35.1257 37.7334 35.0931 37.6802 35.099C37.6388 35.1049 37.5944 35.096 37.55 35.0931C37.5146 35.0931 37.4939 35.1375 37.4525 35.1257C37.417 35.1168 37.3785 35.1197 37.343 35.1168C37.3076 35.1138 37.2691 35.1079 37.2336 35.1109C37.1449 35.1168 37.0532 35.0664 36.9675 35.1286C36.9527 35.1405 36.9202 35.1286 36.8936 35.1286C36.7398 35.1197 36.586 35.1109 36.4322 35.099C36.3879 35.0961 36.3642 35.1138 36.3376 35.1375C36.3199 35.1523 36.3051 35.176 36.2844 35.1405C36.2755 35.1257 36.2637 35.1079 36.2489 35.099C36.2341 35.0901 36.2075 35.0812 36.2016 35.0842C36.172 35.1168 36.1395 35.1138 36.101 35.1138C36.03 35.1138 35.9591 35.0842 35.8911 35.1346C35.8763 35.1464 35.8437 35.1346 35.8201 35.1346C35.69 35.1257 35.5628 35.1197 35.4327 35.1079C35.4002 35.1079 35.3765 35.1168 35.3499 35.1316C35.3262 35.1464 35.2937 35.1405 35.273 35.1671C35.2553 35.1553 35.2375 35.1346 35.2168 35.1316C35.1606 35.1227 35.1074 35.1227 35.0512 35.1197C35.0069 35.1168 34.9684 35.1109 34.9329 35.1494C34.93 35.1553 34.9004 35.1405 34.8856 35.1316C34.8767 35.1257 34.8679 35.1168 34.862 35.1109C34.8235 35.1612 34.7732 35.1346 34.7259 35.1346C34.6757 35.1346 34.6254 35.1346 34.5781 35.1227C34.5396 35.1138 34.516 35.1464 34.4834 35.1464C34.4568 35.096 34.4065 35.1079 34.3681 35.1138C34.3119 35.1227 34.2883 35.0635 34.238 35.0635C34.1877 35.0635 34.1374 35.0635 34.0901 35.0546C34.0546 35.0487 34.0339 35.0694 34.0103 35.0872C33.963 35.0013 33.8506 35.0872 33.8003 35.0101C33.8003 35.0101 33.7826 35.0161 33.7737 35.019C33.7264 35.0427 33.682 35.0338 33.6347 35.019C33.6081 34.9627 33.5224 35.0101 33.4987 34.945C33.4484 34.942 33.3981 34.945 33.3508 34.9331C33.3124 34.9213 33.2887 34.9835 33.2621 34.9509C33.2266 34.9124 33.1823 34.9302 33.1409 34.9242C33.1054 34.9183 33.0669 34.9153 33.0315 34.9183C32.9782 34.9213 32.922 34.8857 32.8747 34.9361C32.8718 34.939 32.8422 34.9065 32.8215 34.9065C32.7239 34.8976 32.6234 34.8916 32.5258 34.8887C32.511 34.8887 32.4903 34.8976 32.4785 34.9065C32.4459 34.9302 32.4252 34.9183 32.4016 34.8916C32.3897 34.8768 32.375 34.865 32.3661 34.8502C32.3572 34.8383 32.3513 34.8413 32.3395 34.8531C32.3158 34.8798 32.2892 34.8828 32.2626 34.8531C32.2389 34.8235 32.2123 34.8235 32.1857 34.8472C32.1798 34.8531 32.165 34.8561 32.1591 34.8531C32.1443 34.8413 32.1354 34.8265 32.1206 34.8117C32.1118 34.8028 32.1029 34.785 32.097 34.785C32.0438 34.7968 32.0112 34.7494 31.9669 34.7406C31.9284 34.7317 31.8811 34.7169 31.8456 34.7583C31.8456 34.7613 31.8013 34.7317 31.7983 34.7376C31.7746 34.7613 31.7451 34.7613 31.7155 34.7613C31.6859 34.7613 31.6771 34.7317 31.6593 34.7228C31.6386 34.7139 31.6031 34.705 31.5883 34.7169C31.5026 34.785 31.4109 34.7257 31.3222 34.7346C31.2956 34.6813 31.269 34.708 31.2453 34.7346C31.2187 34.7672 31.2039 34.7465 31.1773 34.7317C31.1507 34.7139 31.0945 34.7346 31.0708 34.7169C31.0265 34.6784 30.994 34.6606 30.9496 34.7109C30.9437 34.7169 30.92 34.7139 30.9141 34.708C30.852 34.6339 30.7988 34.6665 30.7455 34.7169C30.7189 34.7435 30.6982 34.7317 30.6687 34.7109C30.6243 34.6813 30.5711 34.6724 30.5208 34.708C30.5149 34.7109 30.5119 34.7198 30.506 34.7198C30.4942 34.7198 30.4764 34.7228 30.4705 34.7198C30.438 34.6843 30.4114 34.6547 30.367 34.705C30.3641 34.708 30.3582 34.7139 30.3522 34.7139C30.2872 34.7198 30.2192 34.6843 30.1541 34.7198C30.0891 34.7583 30.024 34.7198 29.9589 34.7257C29.9175 34.7257 29.8732 34.7198 29.8288 34.7198C29.7815 34.7198 29.7312 34.6932 29.6928 34.7435C29.6248 34.7435 29.5597 34.7376 29.4917 34.7346C29.4592 34.7346 29.4473 34.7406 29.4444 34.7731C29.4444 34.8087 29.4385 34.8472 29.4385 34.8828C29.4385 34.9183 29.4651 34.9124 29.4887 34.9213C29.5065 34.9272 29.5094 34.942 29.4887 34.9568C29.4651 34.9716 29.4592 34.9953 29.474 35.019C29.4887 35.0398 29.5035 35.0546 29.4976 35.0842C29.4887 35.1346 29.4947 35.176 29.5361 35.2175C29.5804 35.2619 29.5656 35.3627 29.5094 35.3893C29.4651 35.4101 29.4237 35.4278 29.3882 35.4604C29.3793 35.4693 29.3468 35.4723 29.3409 35.4663C29.2758 35.3953 29.193 35.4308 29.1161 35.4249C29.1013 35.4249 29.0895 35.4664 29.0629 35.4338C29.0333 35.3953 28.9683 35.4308 28.9387 35.3745C28.918 35.336 28.8825 35.3034 28.8382 35.3538C28.8352 35.3567 28.8263 35.3597 28.8263 35.3597C28.7761 35.2945 28.7021 35.3301 28.64 35.3123C28.6223 35.3064 28.6075 35.3005 28.5927 35.2916C28.5365 35.2619 28.5336 35.259 28.4803 35.2886C28.4478 35.3064 28.4212 35.3005 28.3916 35.2975C28.3768 35.2975 28.365 35.2619 28.3532 35.2649C28.3325 35.2649 28.3236 35.2975 28.294 35.2975C28.2733 35.2975 28.2556 35.3212 28.2349 35.3242C28.2231 35.3242 28.2112 35.2945 28.1964 35.2916C28.1491 35.2856 28.0989 35.2827 28.0486 35.2827C28.0338 35.2827 28.0131 35.2886 28.0013 35.2975C27.9333 35.336 27.8593 35.3508 27.7795 35.339C27.7351 35.333 27.6819 35.3153 27.6435 35.3656C27.6346 35.3567 27.6287 35.3449 27.6198 35.339C27.605 35.333 27.5784 35.3212 27.5725 35.3271C27.5429 35.3597 27.5104 35.3597 27.4719 35.3567C27.3803 35.3508 27.2886 35.3449 27.194 35.339C27.1673 35.339 27.1496 35.3479 27.1289 35.3656C27.1082 35.3834 27.0905 35.4071 27.052 35.4071C27.0106 35.4071 27.0254 35.4664 26.9929 35.4871C26.9485 35.5197 26.9101 35.5582 26.848 35.5404C26.8214 35.5315 26.8036 35.5463 26.7829 35.5641C26.7711 35.573 26.7474 35.573 26.7326 35.5641C26.7178 35.5582 26.706 35.5315 26.6912 35.5315C26.6291 35.5226 26.567 35.5286 26.5079 35.5167C26.4576 35.5078 26.4162 35.4664 26.36 35.4693C26.3009 35.4693 26.2388 35.4575 26.1796 35.4515C26.153 35.3953 26.0673 35.4426 26.0436 35.3775C26.0436 35.3716 26.014 35.3686 26.0081 35.3775C25.9756 35.419 25.9342 35.4101 25.8898 35.4071C25.8159 35.4012 25.742 35.3982 25.668 35.3923C25.6414 35.3923 25.6237 35.4012 25.603 35.416C25.5912 35.4249 25.5616 35.4249 25.5557 35.416C25.535 35.3923 25.5113 35.3775 25.4788 35.3804C25.4433 35.3804 25.4049 35.3775 25.3694 35.3745L24.3344 35.3093C24.2841 35.3064 24.2368 35.3005 24.1865 35.3005C24.1392 35.3005 24.0889 35.2738 24.0505 35.3242C24.0238 35.3123 24.012 35.2856 23.9765 35.2856C23.8967 35.2856 23.8168 35.2768 23.737 35.2708C23.6867 35.2679 23.6394 35.2649 23.5891 35.2619C23.5418 35.259 23.4886 35.2708 23.459 35.2175C23.4088 35.2797 23.3437 35.2412 23.2875 35.2412C23.2195 35.2412 23.1515 35.2353 23.0835 35.2294C23.0214 35.2264 22.9593 35.2264 22.9001 35.2175C22.8498 35.2116 22.8232 35.2738 22.7641 35.2501C22.7256 35.2353 22.6813 35.2442 22.6369 35.2442C22.6103 35.2945 22.5778 35.2323 22.56 35.2442C22.5334 35.2679 22.5068 35.2708 22.4772 35.2649C22.4477 35.259 22.4388 35.2916 22.4151 35.2945C22.4063 35.2945 22.3915 35.2738 22.3797 35.2619C22.353 35.2975 22.3175 35.2886 22.2821 35.2916C22.2495 35.2945 22.2259 35.336 22.1845 35.3212C22.146 35.3064 22.1283 35.3627 22.0869 35.3538C22.0514 35.3449 22.013 35.3538 21.9775 35.3449C21.9272 35.333 21.8858 35.3597 21.8414 35.3716C21.803 35.3834 21.7586 35.3508 21.7202 35.3893C21.7143 35.3953 21.6995 35.3982 21.6877 35.3982C21.6699 35.3982 21.6522 35.3982 21.6315 35.3953C21.5871 35.3953 21.5457 35.3893 21.5014 35.3864C21.454 35.3864 21.4038 35.3686 21.3653 35.416L21.2352 35.4071C21.1317 35.4723 21.0223 35.4219 20.9158 35.4219C20.8715 35.4219 20.836 35.4367 20.8005 35.4515C20.7532 35.4723 20.7029 35.49 20.6467 35.4812C20.5935 35.4723 20.5373 35.4723 20.4811 35.4693C20.4042 35.5315 20.3185 35.4871 20.2357 35.49C20.1854 35.49 20.1351 35.49 20.0878 35.4812C20.0346 35.4693 20.0021 35.5197 19.9518 35.5137C19.9045 35.5049 19.8542 35.5078 19.8039 35.5049C19.7744 35.5552 19.7507 35.5167 19.7241 35.4989C19.7152 35.493 19.6975 35.496 19.6916 35.5019C19.6679 35.5286 19.6413 35.5315 19.6088 35.5286C19.523 35.5226 19.4372 35.5167 19.3515 35.5108C19.316 35.5108 19.2776 35.5019 19.2509 35.5374C19.245 35.5434 19.2214 35.5434 19.2184 35.5374C19.1681 35.4723 19.0942 35.5019 19.0321 35.49C19.0055 35.5226 18.973 35.5256 18.9345 35.5226C18.9049 35.5197 18.8783 35.5167 18.8547 35.49C18.8428 35.4752 18.8014 35.4663 18.7896 35.4752C18.7216 35.5197 18.6506 35.5019 18.5797 35.496C18.4081 35.4871 18.2337 35.4723 18.0621 35.4634C18.0148 35.4634 17.9646 35.4367 17.9261 35.4871C17.8847 35.4871 17.8404 35.4871 17.799 35.4841C17.7605 35.4841 17.728 35.4782 17.6984 35.5108C17.6925 35.5167 17.6659 35.5078 17.6511 35.4989C17.6363 35.493 17.6215 35.4723 17.6067 35.4723C17.3613 35.4545 17.1129 35.4397 16.8674 35.4249C16.8379 35.4249 16.829 35.4575 16.8053 35.4575C16.758 35.4545 16.7107 35.4693 16.6693 35.4249C16.6545 35.4071 16.6102 35.4041 16.5836 35.4101C16.5451 35.4219 16.5392 35.3508 16.4948 35.3834C16.4712 35.4041 16.4564 35.4249 16.4505 35.4575C16.4505 35.4752 16.4327 35.4723 16.4239 35.4575C16.3972 35.419 16.3677 35.416 16.3351 35.4515C16.3263 35.4634 16.3174 35.4604 16.3085 35.4456C16.276 35.3923 16.2316 35.3745 16.1695 35.3775C16.1459 35.3775 16.1459 35.3775 16.1548 35.3301C16.1548 35.3242 16.1607 35.3212 16.1607 35.3182C16.1429 35.2649 16.0808 35.2708 16.0513 35.2323C16.0424 35.2205 16.0365 35.2234 16.0246 35.2353C16.0187 35.2442 16.0069 35.2501 15.9951 35.256C15.9566 35.2708 15.9123 35.2708 15.8827 35.2945C15.8502 35.3242 15.8679 35.3745 15.862 35.416C15.8561 35.4664 15.8472 35.5167 15.8531 35.5641C15.862 35.6263 15.8117 35.6589 15.7999 35.7122C15.7999 35.7211 15.7585 35.727 15.7526 35.7241C15.726 35.6826 15.6994 35.6885 15.6698 35.7211C15.6136 35.7063 15.5456 35.7419 15.4983 35.6826C15.4923 35.6737 15.4776 35.6737 15.4657 35.6737C15.4362 35.6737 15.4066 35.6737 15.3741 35.6737C15.3386 35.73 15.3208 35.6648 15.2913 35.6619C15.2617 35.6619 15.2292 35.6559 15.1996 35.6589C15.1818 35.6589 15.173 35.6767 15.1907 35.6945C15.1996 35.7033 15.2114 35.7182 15.2085 35.7241C15.1878 35.7715 15.1641 35.8159 15.1523 35.8692C15.1523 35.884 15.1257 35.9048 15.1138 35.9048C15.0636 35.9018 15.034 35.9581 14.9808 35.9433C14.9394 35.9344 14.895 35.9344 14.8506 35.9344C14.8329 35.9344 14.8211 35.9522 14.8211 35.9729C14.8211 35.9877 14.8211 36.0114 14.7915 35.9937C14.7767 35.9848 14.7649 35.967 14.7501 35.967C14.7205 35.967 14.7146 35.9314 14.6939 35.9285C14.6821 35.9285 14.6673 35.9463 14.6525 35.9551C14.6288 35.8989 14.5608 35.9344 14.5283 35.8959C14.5194 35.884 14.4958 35.8722 14.4839 35.8752C14.4218 35.89 14.3864 35.8337 14.3361 35.8278C14.3154 35.7833 14.2296 35.7952 14.2385 35.7211C14.2385 35.7182 14.2178 35.7093 14.2089 35.7093C14.1882 35.7093 14.1705 35.6915 14.1794 35.6737C14.206 35.6174 14.1409 35.5878 14.1498 35.5374C14.1557 35.496 14.1557 35.4515 14.1587 35.4071L14.1882 35.4041ZM34.8797 17.2328C34.8856 17.1468 34.8915 17.0609 34.8945 16.975C34.8945 16.9691 34.8797 16.9602 34.8738 16.9543C34.8353 17.0047 34.7821 16.9691 34.7378 16.981C34.7111 16.9869 34.6904 17.0165 34.6697 17.0343C34.6845 17.1054 34.6047 17.1468 34.6195 17.2209C34.6254 17.2565 34.6195 17.295 34.6136 17.3305C34.6106 17.3779 34.5515 17.4046 34.5662 17.4609C34.5692 17.4727 34.5367 17.4964 34.5189 17.5112C34.5012 17.529 34.4716 17.5408 34.4657 17.5616C34.445 17.6356 34.3444 17.6653 34.3651 17.7601C34.3651 17.7749 34.3563 17.7927 34.3444 17.8045C34.3178 17.8312 34.2883 17.8519 34.2616 17.8786C34.2409 17.8993 34.2114 17.9082 34.2055 17.9467C34.1966 18.0059 34.1463 17.9645 34.1167 17.9763C34.102 17.9822 34.0872 17.9971 34.0724 18.0089C34.0399 18.0385 34.0073 18.0682 33.9748 18.0948C33.963 18.1037 33.9423 18.1126 33.9275 18.1126C33.8861 18.1156 33.8417 18.0919 33.8092 18.1363C33.7678 18.1363 33.7234 18.1363 33.682 18.1333C33.6525 18.1333 33.6377 18.1481 33.6199 18.163C33.6052 18.1748 33.5904 18.1985 33.5785 18.1985C33.5076 18.1867 33.4898 18.2844 33.4218 18.2696C33.3745 18.3111 33.3301 18.3525 33.2828 18.3911C33.2266 18.4414 33.1704 18.4888 33.1172 18.5392C33.0285 18.5481 32.993 18.631 32.928 18.6725C32.9013 18.6903 32.8481 18.6725 32.8599 18.7317C32.8304 18.7465 32.8008 18.7732 32.7683 18.7762C32.7269 18.7821 32.7003 18.791 32.7003 18.8384C32.6174 18.9243 32.5051 18.9835 32.4489 19.0961C32.3572 19.0843 32.3631 19.182 32.3129 19.2176C32.2922 19.2857 32.2478 19.3242 32.1768 19.345C32.1473 19.3538 32.1118 19.3775 32.1088 19.422C32.1088 19.4397 32.0911 19.4516 32.0704 19.4486C32.0408 19.4457 32.0083 19.4427 31.9787 19.4427C31.9284 19.4427 31.8841 19.4694 31.887 19.5257C31.887 19.576 31.822 19.5879 31.8397 19.6382C31.7983 19.6619 31.7776 19.7182 31.7244 19.7212C31.6889 19.7212 31.683 19.739 31.683 19.7656C31.683 19.7982 31.6711 19.8219 31.6445 19.8426C31.6238 19.8604 31.6031 19.8634 31.5765 19.8604C31.5647 19.8604 31.5529 19.8604 31.541 19.8604C31.5233 19.8663 31.5233 19.8752 31.5351 19.8871C31.5617 19.9078 31.5499 19.9167 31.5351 19.9404C31.4878 19.9996 31.4908 20.0026 31.4494 19.9996C31.4257 19.9996 31.3991 19.9967 31.3754 19.9967C31.3636 19.9967 31.3518 19.9967 31.3429 20.0056C31.2867 20.053 31.2305 20.1033 31.1773 20.1537C31.1714 20.1596 31.1714 20.1803 31.1773 20.1892C31.1862 20.21 31.2128 20.2218 31.2098 20.2514C31.2039 20.3018 31.1596 20.2692 31.1389 20.29C31.1211 20.3107 31.0886 20.3225 31.0886 20.3611C31.0886 20.3788 31.0708 20.3877 31.0472 20.3848C31.0235 20.3818 30.9969 20.3759 30.9732 20.3818C30.9348 20.3877 30.9082 20.4114 30.8964 20.4499C30.8638 20.5536 30.8461 20.5832 30.7958 20.6277C30.7781 20.6454 30.7603 20.6632 30.7396 20.6751C30.716 20.6899 30.6864 20.6988 30.6627 20.7106C30.642 20.8025 30.5474 20.8291 30.4942 20.8943C30.4676 20.9269 30.4173 20.9387 30.4173 20.992C30.4173 20.998 30.3877 21.0128 30.3729 21.0098C30.3286 21.0009 30.2931 21.0187 30.2783 21.0513C30.2606 21.0928 30.2251 21.1254 30.2162 21.1757C30.2073 21.235 30.1778 21.2527 30.1186 21.2557C30.1009 21.2557 30.0713 21.2646 30.0713 21.2676C30.0743 21.3298 30.0181 21.3209 29.9885 21.3386C29.9708 21.3505 29.9441 21.3505 29.9234 21.3623C29.8909 21.3831 29.9116 21.4186 29.9057 21.4483C29.9057 21.4601 29.9057 21.4808 29.9027 21.4838C29.8406 21.5223 29.8229 21.6053 29.7608 21.6438C29.7135 21.629 29.6987 21.6764 29.6691 21.6912C29.6336 21.7089 29.6336 21.7534 29.61 21.7771C29.5804 21.8097 29.5449 21.8334 29.5154 21.863C29.5094 21.8689 29.5124 21.8867 29.5065 21.8956C29.4917 21.9134 29.4769 21.9341 29.4562 21.9459C29.4385 21.9578 29.3971 21.9578 29.3941 21.9696C29.3882 22.0022 29.3557 22.02 29.3498 22.0437C29.3409 22.1029 29.3291 22.1 29.2906 22.0615C29.2699 22.0407 29.1989 22.0822 29.2019 22.1148C29.2019 22.1326 29.2374 22.1503 29.2019 22.1681C29.1605 22.1889 29.1575 22.2363 29.128 22.2659C29.1013 22.2925 29.1073 22.3192 29.1013 22.3488C29.1013 22.3607 29.0866 22.3785 29.0836 22.3755C29.0185 22.3607 29.0008 22.4377 28.9446 22.4466C28.8914 22.4555 28.85 22.4969 28.8293 22.5503C28.8234 22.571 28.8145 22.5829 28.7938 22.5829C28.7524 22.5829 28.7051 22.568 28.708 22.6362C28.6341 22.6865 28.5868 22.7754 28.4892 22.7932C28.4508 22.8317 28.3975 22.8554 28.3887 22.9146C28.3502 22.9295 28.3621 22.9798 28.3325 23.0006C28.3147 23.0154 28.3059 23.0183 28.2674 23.0006C28.2319 22.9828 28.2112 22.9917 28.2053 23.0302C28.2024 23.048 28.2053 23.0687 28.1994 23.0835C28.1846 23.1102 28.155 23.0983 28.1314 23.0954C28.1107 23.0954 28.0959 23.0983 28.09 23.1191C28.0841 23.1368 28.0841 23.1576 28.087 23.1753C28.1048 23.2583 28.0427 23.2938 27.9924 23.3383C27.9451 23.3383 27.9126 23.3886 27.8623 23.3768C27.8209 23.3679 27.8091 23.3916 27.812 23.4301C27.7736 23.4449 27.7795 23.4923 27.7529 23.516C27.7351 23.5308 27.7233 23.5605 27.6937 23.5516C27.6375 23.5397 27.5991 23.5634 27.5784 23.6138C27.5547 23.6671 27.5104 23.6967 27.466 23.7234C27.4217 23.7056 27.3891 23.7471 27.3507 23.75C27.3211 23.753 27.3034 23.7649 27.3093 23.7945C27.3182 23.8537 27.2708 23.8922 27.2649 23.9426C27.259 23.987 27.2413 24.0196 27.2087 24.0285C27.1526 24.0433 27.1171 24.0818 27.0757 24.1144C27.0195 24.1589 26.9781 24.23 26.8894 24.2092C26.8864 24.2092 26.8716 24.227 26.8716 24.2359C26.8716 24.2566 26.8628 24.2744 26.8421 24.2744C26.8007 24.2744 26.7888 24.2892 26.7888 24.3277C26.7888 24.3514 26.7888 24.384 26.7563 24.381C26.7179 24.381 26.7031 24.4077 26.6794 24.4225C26.641 24.4492 26.6173 24.4847 26.6262 24.5292C26.638 24.5795 26.5759 24.5943 26.5789 24.6417C26.5789 24.6477 26.5641 24.6654 26.5552 24.6654C26.4783 24.6654 26.4517 24.7454 26.3955 24.778C26.3837 24.8432 26.3305 24.8787 26.2802 24.9113C26.2299 24.9439 26.2299 25.0091 26.1856 25.0387C26.1856 25.0772 26.1708 25.095 26.1323 25.0891C26.1264 25.0891 26.1116 25.1009 26.1087 25.1098C26.0939 25.1424 26.0702 25.175 26.02 25.2164C25.9874 25.2431 25.946 25.2668 25.9253 25.3023C25.9017 25.3438 25.878 25.3853 25.8366 25.412C25.7982 25.4386 25.7834 25.4742 25.7834 25.5216C25.7834 25.5393 25.7656 25.5512 25.7449 25.5453C25.7242 25.5423 25.7154 25.5541 25.7065 25.5749C25.7006 25.5897 25.6858 25.6164 25.6799 25.6134C25.603 25.5956 25.5852 25.6312 25.5823 25.6993C25.5823 25.72 25.5379 25.7378 25.5409 25.7734C25.5409 25.7763 25.5231 25.7882 25.5113 25.7882C25.4817 25.7882 25.464 25.7941 25.464 25.8267C25.4699 25.9037 25.4019 25.9215 25.3605 25.963C25.3575 25.957 25.3546 25.9511 25.3487 25.9481C25.2954 25.9244 25.2521 25.9373 25.2186 25.9867C25.2186 25.9867 25.1949 26.0163 25.1919 26.0311C25.186 26.0666 25.1653 26.0637 25.1387 26.0637C25.0766 26.0637 25.0766 26.0666 25.0737 26.12C25.0707 26.1555 25.0796 26.2029 25.0589 26.2266C25.0352 26.2533 24.9879 26.2592 24.9524 26.274C24.9406 26.277 24.9199 26.2829 24.9228 26.2859C24.9288 26.3333 24.8696 26.3481 24.8696 26.3955C24.8696 26.4399 24.8666 26.4814 24.8637 26.5258C24.8637 26.5466 24.7957 26.6206 24.775 26.6354C24.7513 26.6532 24.7306 26.6739 24.707 26.6917C24.7188 26.7539 24.6567 26.7273 24.636 26.751C24.6123 26.7835 24.6419 26.8398 24.5887 26.8606C24.6064 26.8843 24.6242 26.905 24.6389 26.9287C24.6478 26.9435 24.6478 26.9613 24.6508 26.9791L24.6951 27.1094C24.7247 27.1479 24.7602 27.1835 24.7838 27.2249C24.8045 27.2635 24.8105 27.3168 24.84 27.3494C24.8785 27.3908 24.8873 27.4293 24.8844 27.4827C24.8844 27.4886 24.9021 27.5004 24.911 27.5004C24.9317 27.5004 24.9554 27.5123 24.9494 27.5271C24.9287 27.5864 24.9849 27.6249 24.9849 27.6782C25.0234 27.7049 24.9997 27.7463 25.0116 27.7789C25.0234 27.8115 25.0559 27.8352 25.0766 27.8648C25.0766 27.8678 25.0766 27.8767 25.0766 27.8826C25.0589 27.9418 25.1091 27.9804 25.121 28.0307C25.1328 28.0752 25.1594 28.1137 25.189 28.1522C25.2186 28.1907 25.2333 28.244 25.2511 28.2944C25.26 28.3151 25.2747 28.3329 25.2718 28.3595C25.254 28.4543 25.3191 28.5254 25.3516 28.6025C25.3753 28.6587 25.4551 28.6913 25.4315 28.7743C25.4315 28.7802 25.4433 28.795 25.4522 28.8009C25.4847 28.8306 25.5084 28.8661 25.4936 28.9135C25.4758 28.9757 25.4995 29.035 25.5291 29.0824C25.5675 29.1416 25.5675 29.2186 25.6178 29.269C25.6089 29.3223 25.674 29.3638 25.6473 29.423C25.6355 29.4467 25.6621 29.4675 25.668 29.4882C25.6828 29.5386 25.7154 29.5801 25.7272 29.6304C25.7361 29.6749 25.7775 29.7104 25.7745 29.7578C25.813 29.7845 25.81 29.8319 25.8277 29.8674C25.8484 29.9089 25.8691 29.9504 25.9017 29.9859C25.9046 29.9889 25.9076 29.9978 25.9076 30.0007C25.8928 30.0452 25.9342 30.0807 25.9342 30.1162C25.9342 30.1636 25.9608 30.1933 25.9667 30.2318C25.9815 30.3058 26.0052 30.3651 26.0436 30.4214C26.0525 30.4362 26.0673 30.4569 26.0614 30.4688C26.0407 30.5162 26.1028 30.5428 26.0909 30.5873C26.0761 30.6406 26.1323 30.6702 26.1294 30.7206C26.1796 30.7472 26.1294 30.8065 26.1619 30.8361C26.1885 30.8628 26.1796 30.8924 26.1826 30.9191C26.1856 30.9457 26.2122 30.9724 26.2122 30.999C26.2092 31.0405 26.224 31.0701 26.2506 31.0968C26.2684 31.1146 26.2743 31.1353 26.2831 31.159C26.295 31.2035 26.3364 31.239 26.3423 31.2834C26.3512 31.3368 26.4044 31.3782 26.3748 31.4345C26.4162 31.5027 26.4458 31.5767 26.4724 31.6537C26.4813 31.6804 26.5108 31.7011 26.5256 31.7248C26.5345 31.7396 26.5375 31.7574 26.5375 31.7752C26.5375 31.8019 26.5375 31.8226 26.5582 31.8404C26.5877 31.873 26.5404 31.9263 26.5907 31.9559C26.5966 31.9589 26.5996 31.9766 26.5996 31.9885C26.5907 32.0625 26.5818 32.1366 26.6558 32.187C26.641 32.2433 26.6853 32.2877 26.6883 32.3381C26.6883 32.3677 26.6794 32.4003 26.6853 32.4299C26.6883 32.4565 26.7149 32.4832 26.7149 32.5099C26.7149 32.5484 26.7238 32.578 26.7445 32.6106C26.7593 32.6373 26.7297 32.6847 26.7681 32.7113C26.7681 32.7646 26.7888 32.812 26.8036 32.8624C26.8095 32.8831 26.7947 32.9187 26.8214 32.9276C26.848 32.9335 26.8835 32.9483 26.9071 32.9216C26.9249 32.9009 26.9485 32.9039 26.9722 32.9009C27.0491 32.8979 27.1289 32.9394 27.1999 32.8802C27.2649 32.8742 27.3329 32.9098 27.398 32.8742C27.4631 32.8387 27.5281 32.8683 27.5932 32.8683C27.673 32.8683 27.7529 32.8772 27.8327 32.8831C27.8505 32.8831 27.8741 32.895 27.8859 32.8831C27.9776 32.818 28.0752 32.8742 28.1698 32.8654C28.1994 32.8654 28.2319 32.8683 28.2615 32.8713L28.3532 32.8772C28.3887 32.8772 28.4301 32.8772 28.4626 32.8861C28.4981 32.8979 28.5099 32.8357 28.5365 32.8654C28.5602 32.892 28.5898 32.892 28.6193 32.895C28.6489 32.895 28.6785 32.9009 28.7021 32.8742C28.711 32.8654 28.7435 32.8624 28.7494 32.8713C28.782 32.9157 28.8145 32.9216 28.8529 32.8802C28.8589 32.8742 28.8825 32.8713 28.8855 32.8772C28.9505 32.9453 29.0333 32.9157 29.1102 32.9276C29.1457 32.9335 29.1841 32.9335 29.2196 32.9365C29.2877 33.0105 29.3793 32.975 29.4621 32.9868C29.5094 32.9957 29.5597 32.9927 29.61 32.9987C29.6248 32.9987 29.6425 33.0135 29.6514 33.0253C29.6632 33.0372 29.6662 33.0401 29.678 33.0253C29.6839 33.0164 29.6957 33.0076 29.7076 33.0046C29.7431 32.9957 29.7578 33.0313 29.7815 33.0461C29.817 33.0668 29.8347 32.9898 29.8702 33.0342C29.882 33.049 29.885 33.052 29.8968 33.0401C29.9323 33.0016 29.9737 33.0076 30.0092 33.0342C30.0299 33.049 30.0476 33.0609 30.0713 33.0609C30.095 33.0609 30.1305 33.055 30.1423 33.0698C30.1689 33.1024 30.2014 33.1112 30.2399 33.1083C30.2813 33.1083 30.3256 33.132 30.3582 33.0846C30.4203 33.0757 30.4794 33.0727 30.5178 33.132C30.5326 33.1527 30.5504 33.1646 30.577 33.1646C30.6273 33.1646 30.6775 33.1794 30.7248 33.1705C30.7869 33.1586 30.8195 33.2208 30.8727 33.2208C30.8934 33.2594 30.9259 33.2653 30.9673 33.2653C31.0147 33.2653 31.0649 33.2801 31.1034 33.2386C31.1063 33.2327 31.1329 33.2386 31.1359 33.2445C31.1596 33.2831 31.195 33.2801 31.2335 33.2831C31.3015 33.286 31.3695 33.2919 31.4375 33.2949C31.473 33.2949 31.5055 33.3008 31.5351 33.3305C31.5558 33.3512 31.6002 33.3512 31.6357 33.3245C31.6682 33.3008 31.6711 33.3068 31.6978 33.3245C31.7125 33.3334 31.7185 33.3542 31.7421 33.3542C31.8013 33.3482 31.8604 33.3838 31.9166 33.3305C31.9284 33.3186 31.9728 33.3245 31.9846 33.3364C32.0378 33.3986 32.1088 33.3719 32.1709 33.3779C32.2094 33.3275 32.2596 33.3571 32.3069 33.3542C32.3897 33.3512 32.4725 33.3838 32.5524 33.3334C32.5849 33.3156 32.6322 33.3542 32.6736 33.3186C32.715 33.2831 32.7683 33.3186 32.8156 33.3127C32.8274 33.3127 32.8392 33.3097 32.8481 33.3038C32.8866 33.2801 32.9339 33.2534 32.9753 33.2534C33.0344 33.2534 33.061 33.2149 33.0995 33.1883C33.1083 33.1823 33.1231 33.1823 33.135 33.1853C33.1852 33.2031 33.2178 33.132 33.271 33.1557C33.3153 33.132 33.3715 33.1261 33.41 33.0905C33.4484 33.0994 33.4691 33.0875 33.4691 33.0461C33.4691 33.0372 33.4869 33.0224 33.4928 33.0224C33.546 33.0461 33.5815 32.9987 33.6288 32.9927C33.6495 32.9927 33.6613 32.9809 33.6613 32.9572C33.6613 32.9335 33.6643 32.9068 33.6643 32.8831C33.6643 32.8594 33.6761 32.8505 33.6968 32.8476C33.7234 32.8446 33.7382 32.8565 33.7382 32.8891C33.7382 32.895 33.7382 32.9009 33.7382 32.9068C33.7412 32.9246 33.7471 32.9394 33.7501 32.9572C33.7589 32.9513 33.7678 32.9453 33.7767 32.9394C33.7915 32.9276 33.8033 32.9157 33.8181 32.9039C33.8388 32.8861 33.8506 32.8861 33.8802 32.9098C33.9009 32.9276 33.9245 32.9453 33.9423 32.9305C33.9925 32.8861 34.0635 32.892 34.1138 32.8505C34.1463 32.8268 34.167 32.8357 34.1907 32.8624C34.1966 32.8713 34.2114 32.8772 34.2202 32.8772C34.2587 32.8772 34.2912 32.8861 34.3119 32.9216C34.3267 32.9483 34.3563 32.9572 34.3859 32.969C34.4125 32.9809 34.3888 33.0253 34.4213 33.0461C34.442 33.0579 34.4539 33.0816 34.4805 33.0816C34.4894 33.0816 34.5041 33.0994 34.5041 33.1053C34.4746 33.1646 34.5455 33.2031 34.5337 33.2594C34.5278 33.289 34.5485 33.3038 34.5603 33.3245C34.5722 33.3453 34.516 33.3482 34.5367 33.3749C34.5662 33.4104 34.5574 33.4845 34.6402 33.4667C34.6875 33.4578 34.7378 33.4727 34.788 33.4727C34.7969 33.4727 34.8146 33.4608 34.8146 33.4549C34.8146 33.4075 34.8413 33.3601 34.7999 33.3156C34.791 33.3068 34.791 33.2712 34.7969 33.2682C34.8501 33.2357 34.8353 33.1794 34.8353 33.1349C34.8353 33.0757 34.8501 33.0283 34.9034 32.9957C34.9477 32.969 34.8649 32.9542 34.8974 32.9305C34.9388 32.9009 34.9359 32.8594 34.9152 32.818C34.9093 32.8061 34.8945 32.7972 34.8945 32.7883C34.9093 32.7202 34.8738 32.6402 34.9359 32.581C34.9418 32.5158 34.9448 32.4477 34.9507 32.3825C34.9063 32.3499 34.927 32.3055 34.927 32.264C34.927 32.1959 34.9359 32.1277 34.9388 32.0596C34.9388 32.0418 34.9418 32.0181 34.9329 32.0092C34.8886 31.9678 34.9181 31.9174 34.9152 31.87C34.8649 31.8256 34.8856 31.7693 34.8886 31.7159C34.8886 31.6597 34.8886 31.6034 34.9004 31.5501C34.9122 31.4967 34.859 31.4641 34.8679 31.4138C34.8767 31.3605 34.8767 31.3042 34.8797 31.2479C34.8797 31.242 34.8797 31.2331 34.8797 31.2301C34.8235 31.1798 34.859 31.1146 34.856 31.0583C34.856 31.0079 34.856 30.9576 34.8649 30.9102C34.8767 30.8539 34.8472 30.8065 34.8383 30.7561C34.8324 30.7324 34.8383 30.7087 34.859 30.691C34.8649 30.688 34.8708 30.6673 34.8708 30.6673C34.8324 30.6406 34.8472 30.5991 34.8501 30.5665C34.859 30.4184 34.8679 30.2703 34.8767 30.1222C34.8767 30.0985 34.8915 30.0629 34.8767 30.0511C34.8442 30.0155 34.8442 29.977 34.8501 29.9326C34.856 29.8911 34.856 29.8467 34.859 29.8022C34.8708 29.6097 34.8856 29.4201 34.8945 29.2275C34.8945 29.1742 34.9211 29.1179 34.8679 29.0735C34.862 29.0705 34.8738 29.0379 34.8856 29.029C34.9181 28.9994 34.9241 28.955 34.9063 28.9313C34.8797 28.8957 34.8797 28.8661 34.8827 28.8306C34.8915 28.7061 34.8974 28.5847 34.9063 28.4603C34.9063 28.4366 34.9211 28.404 34.9063 28.3862C34.8442 28.2944 34.8915 28.1966 34.8915 28.1018C34.8915 27.9922 34.9034 27.8796 34.9122 27.77C34.9122 27.7523 34.9241 27.7256 34.9122 27.7167C34.8501 27.6367 34.8974 27.5508 34.8915 27.4708C34.8915 27.4353 34.8915 27.3968 34.8974 27.3612C34.9034 27.3227 34.8974 27.2901 34.8679 27.2605C34.862 27.2546 34.862 27.2249 34.8827 27.2131C34.8945 27.2042 34.9181 27.1953 34.8945 27.1746C34.8679 27.1509 34.8649 27.1242 34.8945 27.0976C34.9004 27.0916 34.9093 27.0739 34.9093 27.0739C34.8649 27.0413 34.8886 26.9939 34.8886 26.9554C34.8886 26.8872 34.8974 26.8191 34.9004 26.751C34.8383 26.6739 34.8856 26.588 34.8797 26.5051C34.8797 26.4755 34.8974 26.431 34.8797 26.4162C34.8472 26.3777 34.8472 26.3392 34.8531 26.2977C34.856 26.2533 34.859 26.2118 34.862 26.1674C34.862 26.1377 34.8797 26.0933 34.862 26.0785C34.8028 26.0104 34.8501 25.9363 34.8413 25.8682C34.8383 25.8385 34.856 25.7941 34.8413 25.7793C34.7939 25.7289 34.8206 25.6756 34.8206 25.6223C34.8206 25.5541 34.8265 25.486 34.8324 25.4179C34.8353 25.3853 34.8324 25.3586 34.8058 25.3349C34.7999 25.329 34.7969 25.3083 34.8028 25.3023C34.8176 25.2757 34.8501 25.2609 34.8117 25.2194C34.7851 25.1898 34.8324 25.1305 34.7939 25.0831C34.7614 25.0417 34.7939 24.9883 34.791 24.9409C34.791 24.9232 34.7999 24.8965 34.791 24.8876C34.7585 24.858 34.7555 24.8254 34.7614 24.7869C34.7673 24.7484 34.7496 24.698 34.7969 24.6714C34.788 24.6447 34.7732 24.621 34.7732 24.5943C34.7732 24.544 34.7792 24.4966 34.7821 24.4462C34.7171 24.3633 34.7703 24.2685 34.7614 24.1826C34.7614 24.1589 34.7762 24.1263 34.7614 24.1085C34.7023 24.0285 34.7466 23.9426 34.7437 23.8597C34.7437 23.7915 34.7496 23.7234 34.7555 23.6552C34.7585 23.6108 34.7644 23.5723 34.7259 23.5368C34.72 23.5338 34.7348 23.5042 34.7437 23.4894C34.7525 23.4775 34.7732 23.4686 34.7525 23.4508C34.7171 23.4212 34.7437 23.3827 34.7378 23.3472C34.7348 23.3175 34.7644 23.3057 34.7703 23.2879C34.7762 23.2731 34.7496 23.2494 34.7466 23.2287C34.7348 23.1605 34.788 23.0835 34.723 23.0183C34.7289 22.9383 34.7318 22.8584 34.7378 22.7784C34.7437 22.7043 34.7466 22.6303 34.7525 22.5562L34.7851 22.0733C34.788 22.023 34.7851 21.9726 34.7969 21.9252C34.8087 21.8748 34.7644 21.8482 34.7644 21.8067C34.7644 21.7771 34.7644 21.7475 34.7969 21.7267C34.8206 21.7089 34.7525 21.6912 34.7939 21.6616C34.8353 21.6319 34.8087 21.5816 34.8206 21.5401C34.7673 21.4838 34.7939 21.4127 34.7969 21.3505C34.8028 21.2083 34.8117 21.0661 34.8235 20.9239C34.8235 20.8854 34.8235 20.8528 34.7939 20.8232C34.788 20.8173 34.788 20.7876 34.8087 20.7758C34.8206 20.7669 34.8472 20.758 34.8206 20.7373C34.7969 20.7195 34.7999 20.6958 34.8028 20.6721C34.8176 20.4381 34.8324 20.204 34.8472 19.97C34.8472 19.9345 34.859 19.8989 34.8235 19.8693C34.8058 19.8515 34.8176 19.8249 34.8383 19.8071C34.862 19.7893 34.8679 19.7656 34.8501 19.7449C34.8353 19.7241 34.8235 19.7064 34.8265 19.6797C34.8324 19.6175 34.8353 19.5553 34.8383 19.496C34.8413 19.4279 34.8501 19.3598 34.8501 19.2916C34.8501 19.2324 34.8797 19.1642 34.8501 19.1109C34.8087 19.0428 34.8442 18.9806 34.8413 18.9154C34.8383 18.8532 34.8472 18.791 34.8501 18.7317C34.8531 18.6754 34.859 18.6221 34.859 18.5658C34.859 18.5125 34.8827 18.4592 34.8353 18.4148C34.8915 18.3881 34.8472 18.3614 34.8353 18.3318C34.8353 18.3259 34.8353 18.317 34.8353 18.314C34.8915 18.2696 34.8767 18.2044 34.8827 18.1452C34.8827 18.1156 34.8827 18.083 34.8886 18.0533C34.9004 18.0089 34.856 17.9911 34.856 17.9556C34.856 17.926 34.856 17.8934 34.862 17.8637C34.8649 17.8371 34.859 17.8193 34.8413 17.7986C34.8146 17.766 34.8767 17.763 34.8708 17.7275C34.8649 17.686 34.8827 17.6386 34.8708 17.6001C34.862 17.5705 34.8442 17.5586 34.8708 17.532C34.8827 17.5201 34.8353 17.4934 34.8442 17.4579C34.8531 17.4283 34.8501 17.3957 34.8501 17.3661L34.856 17.2742V17.2387L34.8797 17.2328ZM16.5008 32.8594C16.4948 32.9335 16.4919 33.0076 16.486 33.0816C16.486 33.1231 16.5126 33.1675 16.554 33.1734C16.5924 33.1764 16.625 33.1823 16.6457 33.2208C16.6634 33.2475 16.6871 33.2682 16.7196 33.2594C16.758 33.2534 16.7669 33.3008 16.7935 33.2979C16.8201 33.2979 16.8467 33.2742 16.8734 33.2682C16.9029 33.2653 16.9384 33.2623 16.965 33.2742C16.9946 33.2919 17.0183 33.3245 17.0597 33.3156C17.1099 33.3038 17.1306 33.3571 17.172 33.3601C17.2134 33.3601 17.243 33.3749 17.2637 33.4075C17.2815 33.4341 17.3051 33.449 17.3406 33.449C17.3761 33.449 17.4145 33.4519 17.45 33.4549C17.4855 33.4578 17.5239 33.4578 17.5594 33.4608C17.5949 33.4608 17.6274 33.4638 17.657 33.4934C17.6777 33.5141 17.725 33.5052 17.7605 33.5112C17.7694 33.5112 17.7812 33.523 17.7871 33.5319C17.8197 33.5704 17.8877 33.5319 17.9113 33.5911C17.9527 33.603 18.003 33.5823 18.0326 33.6148C18.074 33.6593 18.1242 33.6385 18.1686 33.6474C18.1952 33.6504 18.2159 33.6563 18.2307 33.68C18.2751 33.757 18.3431 33.7867 18.4318 33.7778C18.4673 33.7778 18.4998 33.7778 18.5323 33.7511C18.5767 33.7156 18.5915 33.8015 18.6418 33.7896C18.6654 33.7837 18.6891 33.7896 18.7068 33.7659C18.7186 33.7511 18.7246 33.7511 18.7334 33.7659C18.7423 33.7778 18.7512 33.8015 18.7719 33.7778C18.8044 33.7333 18.8695 33.7896 18.9049 33.7363C18.9109 33.7245 18.9493 33.7333 18.973 33.7363C18.9966 33.7363 19.0232 33.7363 19.0469 33.7422C19.106 33.7541 19.1534 33.7363 19.1918 33.6919C19.2155 33.6652 19.2184 33.6978 19.2302 33.7037C19.2362 33.7037 19.2391 33.7126 19.2421 33.7156C19.2835 33.6593 19.3456 33.683 19.3958 33.6919C19.4639 33.7037 19.5171 33.6415 19.5851 33.6593C19.6502 33.6089 19.7211 33.5911 19.801 33.603C19.8335 33.5704 19.8749 33.5645 19.9163 33.5734C19.9429 33.5112 20.008 33.5615 20.0464 33.5319C20.0583 33.523 20.0671 33.5023 20.0878 33.526C20.0967 33.5378 20.1174 33.5497 20.1322 33.5497C20.1736 33.5497 20.2179 33.5704 20.2505 33.526C20.2978 33.526 20.3481 33.526 20.3954 33.5319C20.4279 33.5349 20.4545 33.526 20.4752 33.5023C20.5048 33.4727 20.5462 33.4519 20.5462 33.4045C20.5994 33.3571 20.6053 33.2771 20.6615 33.2327C20.6734 33.2208 20.6586 33.1853 20.6349 33.1764C20.629 33.1764 20.6231 33.1764 20.6172 33.1764C20.5965 33.1646 20.5846 33.132 20.5965 33.1172C20.6083 33.1024 20.6231 33.0905 20.6379 33.0816C20.6704 33.0609 20.6704 33.0401 20.6408 33.0135C20.6349 33.0076 20.6349 32.9839 20.6408 32.9809C20.7 32.9365 20.6674 32.8357 20.7502 32.8061C20.7946 32.7913 20.7916 32.738 20.8242 32.7083C20.8567 32.6787 20.8449 32.6402 20.8478 32.6047C20.8537 32.5691 20.8567 32.5395 20.8833 32.5069C20.904 32.4862 20.904 32.4328 20.8951 32.4003C20.8863 32.3677 20.8567 32.3469 20.904 32.3173C20.9454 32.2936 20.9661 32.2581 20.9188 32.2166C20.9099 32.2077 20.9099 32.1751 20.9188 32.1692C20.9572 32.1455 20.9513 32.107 20.9572 32.0714C20.975 31.9678 20.9395 31.8522 21.0105 31.7545C21.0253 31.7337 21.0223 31.6922 21.0164 31.6626C21.0105 31.6182 21.0578 31.6034 21.0607 31.5678C21.0637 31.5234 21.0667 31.4819 21.0696 31.4375C21.0696 31.4019 21.0814 31.3605 21.0755 31.3279C21.0637 31.2745 21.1288 31.2686 21.1258 31.2153C21.1199 31.1412 21.1347 31.0672 21.1376 30.9931C21.1376 30.9665 21.1495 30.9487 21.1672 30.9309C21.1909 30.9072 21.1347 30.8924 21.1524 30.8806C21.2027 30.845 21.1849 30.7917 21.1909 30.7472C21.1968 30.7058 21.1968 30.6613 21.2086 30.6228C21.25 30.4895 21.2589 30.4658 21.2382 30.4006C21.2323 30.3799 21.2086 30.3651 21.2382 30.3473C21.25 30.3414 21.2559 30.3295 21.2677 30.3236C21.3003 30.3029 21.2796 30.291 21.2677 30.2703C21.2589 30.2584 21.2618 30.2259 21.2677 30.2229C21.318 30.1992 21.2855 30.137 21.3151 30.1133C21.3624 30.0748 21.3417 30.0244 21.3505 29.977C21.3624 29.9267 21.3328 29.8644 21.3949 29.8289C21.3979 29.7667 21.4038 29.7074 21.4067 29.6452C21.4718 29.6038 21.4452 29.5356 21.454 29.4764C21.4629 29.429 21.4511 29.3786 21.5014 29.346C21.4925 29.272 21.5723 29.2186 21.5516 29.1416C21.5428 29.109 21.5723 29.0883 21.5842 29.0616C21.6019 29.0172 21.5901 28.9639 21.6049 28.9194C21.6197 28.878 21.6581 28.8424 21.6818 28.8039C21.6877 28.795 21.6877 28.7802 21.6847 28.7684C21.664 28.7002 21.7468 28.6647 21.735 28.5995C21.735 28.5906 21.7439 28.5788 21.7498 28.5699C21.7705 28.5432 21.8207 28.5314 21.8119 28.4869C21.803 28.4366 21.8651 28.4188 21.8562 28.3744C21.8474 28.3299 21.9006 28.3121 21.8976 28.2825C21.8947 28.2322 21.9272 28.2055 21.9449 28.1699C21.9834 28.0929 21.9834 28.0929 21.9923 28.0218C21.9923 27.9981 21.9834 27.9685 22.01 27.9567C22.0691 27.927 22.0691 27.853 22.1224 27.8204C22.1431 27.8085 22.1579 27.7878 22.1549 27.7611C22.1549 27.7345 22.1667 27.7197 22.1815 27.696C22.2347 27.6012 22.285 27.5034 22.3471 27.4145C22.3737 27.376 22.3471 27.3138 22.4063 27.2901C22.4092 27.2901 22.4092 27.2783 22.4092 27.2723C22.4092 27.2486 22.4151 27.219 22.4004 27.2042C22.3708 27.1716 22.3826 27.1213 22.3442 27.0946C22.3264 27.0827 22.3028 27.062 22.3116 27.0353C22.3235 26.9939 22.3028 26.9613 22.2732 26.9406C22.2407 26.9169 22.2525 26.8724 22.2288 26.8458C22.2081 26.825 22.1756 26.8102 22.1786 26.7717C22.1815 26.7332 22.1431 26.7154 22.1431 26.6739C22.1431 26.6384 22.1135 26.5969 22.0869 26.5703C22.0514 26.5347 22.0603 26.4755 22.0159 26.4488C21.9745 26.4221 21.9775 26.3747 21.9597 26.3392C21.939 26.2947 21.9183 26.2562 21.8858 26.2207C21.8828 26.2177 21.8799 26.2088 21.8799 26.2059C21.9006 26.1377 21.8503 26.1052 21.8148 26.0637C21.7941 26.04 21.7793 26.0192 21.7764 25.9837C21.7764 25.96 21.7379 25.9393 21.7202 25.9126C21.7143 25.9037 21.7113 25.8889 21.7143 25.88C21.7261 25.8385 21.7025 25.8089 21.6758 25.7852C21.6344 25.7497 21.6197 25.6963 21.593 25.6519C21.5753 25.6223 21.599 25.5897 21.5842 25.563C21.5605 25.5216 21.5132 25.4979 21.5132 25.4416C21.5132 25.4357 21.5043 25.4268 21.5014 25.4297C21.4452 25.4386 21.46 25.3853 21.4393 25.3646C21.4126 25.3349 21.4215 25.2964 21.3979 25.2698C21.3653 25.2283 21.3062 25.2016 21.3121 25.1364C21.2766 25.0979 21.247 25.0535 21.2263 25.0031C21.2086 24.9557 21.1376 24.935 21.1435 24.8669C21.1021 24.8195 21.0548 24.778 21.0223 24.7276C20.9927 24.6802 20.9868 24.6151 20.9129 24.6062C20.907 24.6062 20.904 24.5854 20.904 24.5736C20.9011 24.5499 20.9158 24.5262 20.8951 24.5055C20.8744 24.4847 20.8567 24.4551 20.833 24.4373C20.8005 24.4136 20.8153 24.3692 20.7887 24.3425C20.7532 24.307 20.7266 24.2625 20.6881 24.2329C20.6408 24.1974 20.6467 24.1352 20.6053 24.0966C20.561 24.0581 20.5373 23.993 20.4723 23.9811C20.4663 23.9811 20.4634 23.9604 20.4634 23.9485C20.4634 23.9308 20.4723 23.9041 20.4634 23.8952C20.4102 23.8508 20.4042 23.7797 20.3569 23.7323C20.3274 23.6997 20.3037 23.6641 20.2712 23.6375C20.2327 23.6049 20.2357 23.5486 20.2002 23.516C20.1795 23.4953 20.1647 23.4745 20.1558 23.439C20.1499 23.4153 20.1056 23.3975 20.079 23.3797C20.0257 23.3442 20.0257 23.2761 19.9843 23.2287C19.9577 23.199 19.937 23.1605 19.9252 23.122C19.9163 23.0924 19.9104 23.0687 19.8897 23.042C19.8601 23.0065 19.8098 22.9828 19.8187 22.9235C19.7891 22.8909 19.7566 22.8613 19.733 22.8258C19.7123 22.7932 19.6886 22.7517 19.6886 22.7162C19.6886 22.651 19.6088 22.6895 19.6028 22.6391C19.6028 22.6303 19.5851 22.6214 19.5821 22.6095C19.5674 22.5236 19.5171 22.4584 19.4609 22.3962C19.452 22.3844 19.4579 22.3607 19.4491 22.3459C19.4343 22.3222 19.4225 22.2955 19.4136 22.2688C19.3988 22.2274 19.3426 22.2037 19.3456 22.1474C19.3456 22.1415 19.3367 22.1385 19.3337 22.1326C19.2953 22.0881 19.2598 22.0437 19.2332 21.9874C19.2095 21.9341 19.1534 21.8956 19.1149 21.8452C19.038 21.7445 18.9345 21.6675 18.8813 21.546C18.8635 21.5045 18.8221 21.4779 18.7748 21.4542C18.7364 21.4364 18.695 21.4127 18.6565 21.386C18.6151 21.3564 18.5797 21.3268 18.5412 21.2764C18.5235 21.2527 18.5087 21.2261 18.4732 21.2231C18.4525 21.2231 18.4348 21.1965 18.42 21.1757C18.4081 21.1579 18.4111 21.1254 18.3963 21.1135C18.3815 21.0987 18.3549 21.1017 18.3372 21.0809C18.2958 21.0306 18.2603 20.9683 18.1775 20.9772C18.1716 20.9565 18.1686 20.9239 18.1538 20.915C18.1154 20.8884 18.0651 20.8824 18.0355 20.8499C17.9971 20.8113 17.9557 20.7758 17.9113 20.7551C17.867 20.7343 17.8315 20.7047 17.8019 20.6691C17.8019 20.6691 17.7812 20.6721 17.7753 20.678C17.7576 20.6958 17.7369 20.6869 17.7398 20.6721C17.7546 20.601 17.728 20.5684 17.6541 20.5773C17.6363 20.5536 17.6038 20.5329 17.6008 20.5092C17.5979 20.4736 17.5772 20.444 17.5565 20.4351C17.4855 20.4144 17.45 20.3551 17.4116 20.3048C17.379 20.2633 17.3258 20.2663 17.2962 20.2218C17.2844 20.204 17.243 20.2277 17.243 20.2485C17.243 20.2959 17.2193 20.3462 17.2696 20.3848C17.2696 20.4351 17.2696 20.4825 17.2607 20.5329C17.2519 20.5832 17.3051 20.6158 17.2933 20.6691C17.2815 20.7284 17.2844 20.7906 17.2785 20.8528C17.2785 20.8884 17.2785 20.9269 17.2696 20.9624C17.2637 21.0009 17.2844 21.0276 17.2992 21.0631C17.3169 21.1017 17.2903 21.1402 17.2637 21.1728C17.2815 21.1905 17.2962 21.2083 17.2933 21.235C17.2874 21.2853 17.2874 21.3327 17.2844 21.3831L17.2726 21.549L17.2637 21.6971C17.2608 21.7475 17.2548 21.7949 17.2548 21.8452C17.2548 21.8985 17.2223 21.9578 17.2667 22.0022C17.3229 22.0644 17.2164 22.0763 17.2341 22.1296C17.24 22.1503 17.2341 22.177 17.2578 22.1948C17.2726 22.2066 17.2696 22.2096 17.2578 22.2214C17.246 22.2303 17.2341 22.2481 17.2312 22.2659C17.2223 22.3518 17.2193 22.4377 17.2134 22.5236C17.2134 22.5532 17.2193 22.5977 17.2016 22.6125C17.1365 22.6747 17.172 22.7517 17.1572 22.8199C17.1543 22.8376 17.1839 22.8732 17.1809 22.8761C17.1336 22.9058 17.1513 22.9532 17.1454 22.9946C17.1395 23.045 17.1395 23.0924 17.1365 23.1428C17.1336 23.199 17.1247 23.2553 17.1277 23.3086C17.1306 23.362 17.0951 23.3975 17.0833 23.439C17.0685 23.4923 17.0744 23.5486 17.0715 23.6049C17.0685 23.6612 17.0567 23.7175 17.0626 23.7708C17.0685 23.83 17.0094 23.8597 17.0123 23.9189C17.0123 23.9752 17.0242 24.0404 16.968 24.0878C16.9621 24.0937 16.968 24.1233 16.9798 24.1352C17.0094 24.1677 17.0064 24.2122 16.9857 24.2359C16.9562 24.2655 16.9532 24.2981 16.9502 24.3336C16.9502 24.3781 16.9414 24.4195 16.9443 24.464C16.9443 24.5055 16.8941 24.5143 16.9 24.5588C16.9029 24.5943 16.897 24.6328 16.8941 24.6684C16.8941 24.6743 16.8881 24.6802 16.8852 24.6832C16.8379 24.7128 16.8527 24.7602 16.8527 24.7987C16.8497 24.8876 16.8527 24.9143 16.826 24.9439C16.8024 24.9706 16.7935 24.9943 16.8201 25.0209C16.8408 25.0417 16.8379 25.0654 16.8349 25.0891C16.826 25.1453 16.8527 25.2135 16.7906 25.2579C16.7876 25.3053 16.7787 25.3557 16.7787 25.4031C16.7787 25.4594 16.7137 25.489 16.7285 25.5512C16.7373 25.5986 16.7255 25.6489 16.7225 25.6993L16.7137 25.8474C16.7107 25.8978 16.7018 25.9481 16.7048 25.9955C16.7107 26.0489 16.6693 26.0815 16.6604 26.1259C16.6457 26.1911 16.6457 26.2622 16.6457 26.3273C16.6457 26.3925 16.6131 26.4606 16.6693 26.5169C16.6664 26.5643 16.6604 26.6147 16.6575 26.6621C16.5983 26.7006 16.622 26.7598 16.6131 26.8132C16.6043 26.8783 16.619 26.9465 16.5658 26.9998C16.554 27.0116 16.5569 27.0531 16.5688 27.0679C16.5895 27.0946 16.5954 27.1213 16.5924 27.1509C16.5836 27.2486 16.5776 27.3494 16.5747 27.4471C16.5747 27.4856 16.5629 27.5123 16.5362 27.5449C16.5185 27.5656 16.5126 27.616 16.551 27.6426C16.5658 27.6545 16.5629 27.6604 16.5481 27.6693C16.5096 27.693 16.5215 27.7315 16.5215 27.7671C16.5658 27.7967 16.5481 27.8441 16.5481 27.8856C16.5481 27.9478 16.5451 28.007 16.5422 28.0692C16.5924 28.1077 16.5658 28.1611 16.5658 28.2055C16.5569 28.3714 16.5451 28.5373 16.5362 28.7061C16.5362 28.7417 16.5362 28.7772 16.4978 28.8039C16.4919 28.8098 16.4919 28.8424 16.4978 28.8513C16.5303 28.8809 16.5126 28.9342 16.554 28.9579L16.5451 29.0883C16.5392 29.1683 16.5362 29.2483 16.5303 29.3282C16.5274 29.3816 16.5392 29.4408 16.483 29.4764C16.486 29.506 16.4653 29.5386 16.4948 29.5623C16.5362 29.5978 16.483 29.663 16.5392 29.6926C16.5392 29.7282 16.5392 29.7667 16.5392 29.8022C16.5333 29.8941 16.5274 29.9859 16.5215 30.0807C16.5215 30.0955 16.5274 30.1162 16.5392 30.1281C16.5599 30.1488 16.5422 30.1577 16.5303 30.1666C16.5155 30.1755 16.5126 30.1844 16.5274 30.1933C16.5481 30.211 16.5481 30.2318 16.551 30.2584C16.551 30.294 16.5244 30.3088 16.5096 30.3325C16.5451 30.3592 16.5392 30.3947 16.5362 30.4303C16.5274 30.5784 16.5185 30.7265 16.5067 30.8746C16.5067 30.9102 16.486 30.9576 16.5037 30.9842C16.5451 31.0494 16.5274 31.1116 16.5274 31.1768C16.5274 31.1827 16.5274 31.1886 16.5333 31.1916C16.5717 31.2212 16.5392 31.2331 16.5244 31.2597C16.5126 31.2834 16.5067 31.316 16.5244 31.3456C16.5333 31.3605 16.5481 31.3782 16.5451 31.393C16.5303 31.4612 16.5658 31.5412 16.4978 31.5975C16.4919 31.6034 16.4919 31.6271 16.4978 31.63C16.5333 31.6567 16.5303 31.6922 16.5244 31.7308C16.5155 31.8019 16.5362 31.8789 16.4741 31.9352C16.4682 31.9411 16.4741 31.9648 16.4801 31.9678C16.5155 31.9915 16.4948 32.0388 16.5274 32.0625C16.5422 32.0744 16.5422 32.0803 16.5274 32.0892C16.4948 32.107 16.4978 32.1396 16.4978 32.1692C16.4978 32.2136 16.4919 32.2551 16.4889 32.2995L16.483 32.4091C16.483 32.4536 16.483 32.498 16.4741 32.5395C16.4594 32.5899 16.5067 32.6136 16.5067 32.655C16.5037 32.7232 16.4978 32.7913 16.4948 32.8594H16.5008ZM24.7424 31.5027C24.707 31.5027 24.6685 31.4967 24.633 31.4967C24.6035 31.4967 24.5798 31.4878 24.5532 31.4671C24.5266 31.4493 24.4852 31.4523 24.4497 31.4493C24.4438 31.4493 24.4379 31.4493 24.4319 31.4434C24.3994 31.4197 24.3698 31.3812 24.3344 31.3753C24.29 31.3693 24.2723 31.316 24.2249 31.3219C24.1983 31.2805 24.154 31.2834 24.1155 31.2745C24.0919 31.2686 24.0771 31.2301 24.0534 31.2094C24.0298 31.1886 23.9736 31.2005 23.9943 31.1412C23.9736 31.1175 23.9529 31.0968 23.9351 31.0701C23.9263 31.0553 23.9233 31.0346 23.9292 31.0198C23.947 30.9635 23.9174 30.925 23.8819 30.8894C23.8553 30.8628 23.8612 30.8361 23.8878 30.8124C23.9174 30.7858 23.9056 30.765 23.8878 30.7354C23.8612 30.6969 23.8701 30.6821 23.9056 30.6673C23.9617 30.6465 23.9617 30.6465 23.941 30.5991C23.9351 30.5873 23.9203 30.5784 23.9203 30.5695C23.9203 30.5132 23.9203 30.4569 23.9322 30.4036C23.944 30.3444 23.8789 30.3088 23.9026 30.2496C23.9115 30.2229 23.9026 30.1903 23.9026 30.1607C23.8464 30.1281 23.9026 30.0481 23.8464 30.0185C23.8494 29.9859 23.8228 29.9652 23.8139 29.9385C23.8021 29.9059 23.8139 29.8644 23.8168 29.8289C23.7754 29.7993 23.7814 29.7548 23.7873 29.7134C23.7991 29.6423 23.7666 29.586 23.7311 29.5327C23.7104 29.503 23.6838 29.4793 23.6926 29.4349C23.6956 29.4201 23.6779 29.4023 23.6779 29.3875C23.6719 29.3342 23.6276 29.2986 23.6305 29.2394C23.6305 29.1861 23.5803 29.1475 23.533 29.1209C23.527 29.1179 23.5093 29.1209 23.5004 29.1298C23.4797 29.1505 23.4472 29.1624 23.4502 29.2009C23.4561 29.2572 23.3821 29.2868 23.4028 29.349C23.4088 29.3668 23.3644 29.3756 23.3644 29.4053C23.3644 29.4467 23.3082 29.4556 23.2964 29.4853C23.2816 29.5238 23.2816 29.5682 23.2727 29.6067C23.2727 29.6126 23.2609 29.6156 23.2609 29.6186C23.2432 29.6719 23.2017 29.7074 23.1603 29.74C23.1278 29.7637 23.1071 29.7904 23.116 29.8319C23.1278 29.8852 23.0657 29.9118 23.0687 29.9622C23.0687 29.977 23.0598 29.9948 23.0509 30.0096C23.0302 30.0511 23.0154 30.0955 22.9829 30.1281C22.9445 30.1666 22.9563 30.2229 22.9297 30.2525C22.8883 30.297 22.906 30.3444 22.8942 30.3888C22.8321 30.4243 22.8676 30.5162 22.7966 30.5517C22.7316 30.5843 22.7197 30.6673 22.6783 30.7206C22.6458 30.7591 22.6547 30.8006 22.6458 30.8391C22.6428 30.8539 22.6281 30.8687 22.6192 30.8835C22.6014 30.9191 22.5867 30.9605 22.5482 30.9813C22.5009 31.005 22.5453 31.0642 22.5009 31.0938C22.4565 31.1235 22.495 31.1916 22.4418 31.2183C22.4299 31.2242 22.4358 31.2627 22.4329 31.2864C22.4329 31.3042 22.4329 31.3279 22.4211 31.3368C22.3797 31.3634 22.3856 31.4019 22.3885 31.4345C22.3944 31.479 22.3442 31.4908 22.3442 31.5293C22.3442 31.5915 22.3353 31.6537 22.3353 31.713C22.3353 31.7278 22.353 31.7426 22.356 31.7604C22.3619 31.7752 22.3649 31.8048 22.3589 31.8078C22.3116 31.8344 22.3382 31.8907 22.3116 31.9174C22.2643 31.9678 22.2584 32.0092 22.3057 32.0596C22.3116 32.0685 22.3057 32.0951 22.2968 32.107C22.288 32.1218 22.2702 32.1336 22.2554 32.1425C22.214 32.1662 22.2288 32.2077 22.2259 32.2403C22.2761 32.2699 22.2347 32.2936 22.22 32.3203C22.1815 32.4003 22.1372 32.4773 22.1963 32.5691C22.2111 32.5928 22.2022 32.6343 22.1756 32.6669C22.1431 32.7084 22.1342 32.7676 22.1756 32.815C22.1874 32.8268 22.1874 32.8328 22.1726 32.8417C22.149 32.8565 22.1342 32.8831 22.149 32.9009C22.1874 32.9424 22.1904 32.972 22.1431 33.0076C22.1342 33.0135 22.1342 33.049 22.1431 33.055C22.1786 33.0846 22.1667 33.1231 22.1638 33.1557C22.1638 33.1794 22.1638 33.2031 22.1815 33.2208C22.2052 33.2416 22.2229 33.2653 22.2436 33.289C22.2702 33.3216 22.2702 33.3482 22.2436 33.4016C22.2377 33.4104 22.2318 33.4193 22.2288 33.4282C22.2377 33.4341 22.2495 33.4401 22.2584 33.443C22.2761 33.446 22.2968 33.443 22.3116 33.449C22.3382 33.4638 22.3294 33.4934 22.3264 33.5141C22.3205 33.5437 22.3412 33.5586 22.3589 33.5763C22.3649 33.5852 22.3767 33.5882 22.3826 33.5941C22.4151 33.5497 22.4595 33.5645 22.5009 33.5704C22.5482 33.5763 22.5837 33.5674 22.6133 33.5289C22.631 33.5082 22.6488 33.5023 22.6783 33.5052C22.7877 33.5141 22.9001 33.52 23.0095 33.526C23.0273 33.526 23.0509 33.526 23.0598 33.5171C23.0982 33.4786 23.1396 33.5052 23.181 33.4993C23.2224 33.4964 23.2491 33.4578 23.2964 33.4667C23.3526 33.4756 23.4176 33.4934 23.4679 33.443C23.5537 33.4667 23.6276 33.4016 23.7133 33.4193C23.7429 33.4253 23.7725 33.4193 23.8021 33.4193C23.8316 33.363 23.8967 33.4193 23.9322 33.3749C23.9647 33.3393 24.0327 33.3927 24.0593 33.3305C24.1126 33.3305 24.1717 33.3571 24.219 33.3245C24.2723 33.289 24.3255 33.3127 24.3787 33.3156C24.4201 33.3156 24.4497 33.3068 24.4733 33.2771C24.5 33.2445 24.5177 33.2534 24.5414 33.2831C24.5473 33.2919 24.5798 33.289 24.5887 33.2831C24.6123 33.2564 24.6419 33.2594 24.6715 33.2623C24.6951 33.2623 24.7217 33.2771 24.7424 33.2564C24.7779 33.2179 24.8252 33.2475 24.8637 33.2386C24.908 33.2268 24.9465 33.1971 24.9997 33.209C25.0352 33.2179 25.0737 33.209 25.1091 33.2179C25.1505 33.2297 25.1683 33.1734 25.2067 33.1853C25.2481 33.2001 25.2718 33.1616 25.3043 33.1557C25.3398 33.1497 25.3753 33.1557 25.4108 33.1557C25.4374 33.1053 25.4965 33.1527 25.5261 33.1231C25.5586 33.0875 25.5941 33.1053 25.6296 33.1024C25.6355 33.1024 25.6473 33.0816 25.6444 33.0787C25.6296 33.0609 25.6148 33.0431 25.6178 33.0135C25.6207 32.9839 25.6296 32.9394 25.6148 32.9276C25.5675 32.8861 25.6237 32.812 25.5616 32.7824C25.5616 32.7528 25.5675 32.7202 25.5675 32.6906C25.5675 32.6787 25.5645 32.6639 25.5557 32.658C25.5113 32.6284 25.5586 32.5721 25.5231 32.5425C25.4847 32.5069 25.5113 32.4625 25.5113 32.421C25.5113 32.3884 25.5113 32.3617 25.4847 32.3381C25.4936 32.261 25.4226 32.1929 25.4551 32.1129C25.4788 32.0537 25.4256 32.0122 25.4285 31.9589C25.3901 31.9263 25.393 31.8848 25.3989 31.8433C25.3546 31.8137 25.3664 31.7693 25.3694 31.7278C25.3694 31.7159 25.3753 31.6982 25.3694 31.6922C25.3132 31.6478 25.3694 31.5797 25.3368 31.5412C25.2925 31.4819 25.3221 31.4227 25.3191 31.3664C25.3191 31.3368 25.2836 31.2449 25.257 31.2064C25.2452 31.1886 25.2333 31.1827 25.2186 31.2035C25.2038 31.2212 25.1772 31.2301 25.1772 31.2597C25.1772 31.2834 25.1772 31.3101 25.1712 31.3338C25.1712 31.3575 25.1801 31.393 25.1505 31.399C25.118 31.4049 25.0973 31.4197 25.0707 31.4345C25.053 31.4434 25.0234 31.4345 24.9997 31.4345C24.9642 31.4286 24.9406 31.4345 24.9406 31.479C24.9406 31.4967 24.9228 31.5056 24.9021 31.5027C24.8519 31.4967 24.8045 31.4967 24.7543 31.4938L24.7424 31.5027ZM27.2176 34L27.3477 34.0088C27.3803 33.9703 27.4217 33.9733 27.4631 33.9792C27.5045 33.9851 27.5488 33.9851 27.5932 33.9881C27.6375 33.9911 27.6789 33.9911 27.7233 33.997C27.7499 34 27.7706 33.997 27.7884 33.9763C27.8179 33.9407 27.8534 33.9259 27.9007 33.9348C27.9421 33.9407 27.9865 33.9377 28.0279 33.9407C28.0722 33.8874 28.1314 33.92 28.1817 33.917C28.2231 33.917 28.2733 33.9377 28.3088 33.92C28.3532 33.8992 28.3975 33.8933 28.4419 33.8874C28.4833 33.8311 28.5454 33.8874 28.5927 33.8578C28.5986 33.8548 28.6016 33.8489 28.6075 33.8459C28.6312 33.8193 28.6341 33.8518 28.6459 33.8578C28.6607 33.8637 28.6814 33.8755 28.6933 33.8726C28.708 33.8696 28.7199 33.843 28.7376 33.843C28.7731 33.843 28.8115 33.843 28.847 33.8489C28.8884 33.8607 28.9062 33.8044 28.9446 33.8163C29.0185 33.84 29.0777 33.7748 29.1516 33.7837C29.1546 33.7837 29.1634 33.7748 29.1634 33.7719C29.1634 33.7659 29.1575 33.76 29.1516 33.757C29.1161 33.7511 29.0777 33.7422 29.0422 33.7452C28.9978 33.7511 28.9831 33.7037 28.9476 33.7008C28.8736 33.6919 28.7997 33.6919 28.7258 33.6859C28.6873 33.683 28.6548 33.683 28.6252 33.7156C28.6193 33.7215 28.5898 33.7126 28.5779 33.7037C28.5247 33.6593 28.4715 33.6534 28.4153 33.6948C28.3798 33.7185 28.3266 33.6771 28.3 33.7274C28.2822 33.7156 28.2645 33.6978 28.2467 33.6978C28.2171 33.6978 28.2053 33.6652 28.1876 33.6622C28.1639 33.6593 28.1462 33.7008 28.1107 33.6889C28.0634 33.7333 28.019 33.7393 27.9717 33.6889C27.9687 33.6859 27.9628 33.6771 27.9569 33.6771C27.8712 33.6711 27.7854 33.6682 27.6996 33.6622C27.6494 33.7185 27.5843 33.683 27.5281 33.6859C27.4985 33.6859 27.4571 33.6711 27.4394 33.6859C27.3891 33.7304 27.3359 33.7037 27.2827 33.7067C27.2649 33.7067 27.2442 33.6978 27.2265 33.7067C27.191 33.7215 27.1555 33.7393 27.12 33.757C27.1319 33.8015 27.0757 33.8104 27.0757 33.8489C27.0757 33.8844 27.0698 33.9229 27.0698 33.9585C27.0698 33.9792 27.0786 33.9911 27.1023 33.9911C27.1378 33.9911 27.1762 33.997 27.2117 33.997L27.2176 34ZM34.4095 34.3821L34.6283 34.3969C34.6845 34.3377 34.7555 34.3762 34.8176 34.3732C34.8679 34.3732 34.9152 34.3732 34.9655 34.3821C35.0128 34.388 35.0276 34.3525 35.0571 34.3317C35.063 34.3258 35.063 34.308 35.0571 34.2962C35.0542 34.2873 35.0394 34.2755 35.0305 34.2755C34.9684 34.2695 34.9093 34.2666 34.8472 34.2636C34.8117 34.2636 34.7732 34.2636 34.7525 34.2251C34.7496 34.2192 34.723 34.2133 34.72 34.2192C34.6845 34.2695 34.6313 34.2399 34.5869 34.2577C34.5485 34.2725 34.5485 34.2695 34.5337 34.2577C34.5012 34.2251 34.4746 34.1659 34.4213 34.231C34.3444 34.2221 34.2794 34.2844 34.1966 34.2636C34.1493 34.2518 34.099 34.2547 34.0487 34.2518C33.9718 34.314 33.8861 34.2695 33.8033 34.2725C33.7974 34.2725 33.7885 34.2695 33.7855 34.2725C33.7767 34.2784 33.7708 34.2843 33.7619 34.2932C33.7648 34.2992 33.7708 34.3051 33.7737 34.3051C33.8358 34.311 33.895 34.314 33.9571 34.3199C34.0044 34.3732 34.0546 34.3821 34.1108 34.3317C34.1167 34.3258 34.1404 34.3288 34.1463 34.3347C34.1729 34.3791 34.2173 34.3732 34.2587 34.3762C34.309 34.3791 34.3563 34.3821 34.4066 34.3851L34.4095 34.3821ZM36.6747 34.3347C36.6747 34.3347 36.7043 34.3495 36.7368 34.3199C36.7723 34.2903 36.8196 34.3199 36.8581 34.311C36.8728 34.311 36.8847 34.2873 36.8995 34.2755C36.932 34.2458 36.8876 34.2399 36.8847 34.2221C36.8847 34.1984 36.8847 34.1747 36.861 34.157C36.8167 34.1244 36.8078 34.0799 36.8167 34.0296C36.8167 34.0296 36.796 34.0177 36.793 34.0207C36.7723 34.0414 36.7457 34.0533 36.7368 34.0888C36.7309 34.1125 36.6984 34.1333 36.6806 34.154C36.6304 34.1333 36.5919 34.1688 36.5476 34.1807C36.5269 34.1866 36.5002 34.1896 36.4825 34.1659C36.4736 34.154 36.4648 34.1333 36.4441 34.157C36.4352 34.1659 36.4263 34.1747 36.4174 34.1807C36.3879 34.2083 36.381 34.2449 36.3967 34.2903C36.4086 34.3258 36.4293 34.3377 36.4588 34.3169C36.4795 34.3021 36.5062 34.2784 36.5209 34.2962C36.5535 34.3347 36.589 34.3406 36.6718 34.3377L36.6747 34.3347ZM15.8738 34.0355C15.8738 34.0355 15.8738 34.0355 15.8709 34.0355C15.8709 34.0711 15.865 34.1096 15.865 34.1451C15.865 34.154 15.8797 34.1718 15.8827 34.1718C15.9418 34.1659 16.0039 34.2103 16.0572 34.157C16.0986 34.157 16.1488 34.1688 16.1784 34.1481C16.2198 34.1214 16.2494 34.1036 16.2819 34.154C16.3174 34.1392 16.3529 34.1273 16.3825 34.1096C16.3854 34.1096 16.3825 34.074 16.3706 34.0622C16.3558 34.0474 16.3263 34.0444 16.3115 34.0296C16.2849 34.0029 16.2523 34.0207 16.2257 34.0088C16.205 34 16.1902 33.9763 16.1695 33.9703C16.1488 33.9644 16.1193 33.9644 16.1015 33.9763C16.0453 34.0148 16.0039 34.0029 15.9625 33.9555C15.9507 33.9407 15.9389 33.9229 15.9241 33.92C15.9093 33.914 15.8797 33.9229 15.8768 33.9318C15.8709 33.9674 15.8709 34.0029 15.8679 34.0385L15.8738 34.0355ZM27.3034 22.574C27.3034 22.574 27.2945 22.5621 27.2915 22.5621C27.2679 22.5621 27.2413 22.5621 27.2413 22.5266C27.2413 22.4851 27.2147 22.4644 27.1851 22.4466C27.1673 22.4703 27.1319 22.4762 27.1319 22.5147C27.1319 22.5355 27.12 22.5473 27.0964 22.5473C27.055 22.5473 27.0343 22.5769 27.0136 22.6066C27.0077 22.6154 27.0136 22.6303 27.0165 22.6391C27.0224 22.648 27.0372 22.654 27.0461 22.654C27.0638 22.651 27.0757 22.6391 27.0934 22.6303C27.1289 22.6125 27.1555 22.6243 27.1555 22.6569C27.1555 22.6688 27.1555 22.6806 27.1555 22.6925C27.1555 22.7043 27.1614 22.7132 27.1644 22.7251C27.1792 22.7191 27.1969 22.7132 27.2028 22.7043C27.2324 22.6599 27.2561 22.6125 27.3034 22.5829C27.3034 22.5829 27.3034 22.574 27.3034 22.571V22.574ZM26.9308 22.7251C26.9308 22.7251 26.9042 22.7221 26.8923 22.7251C26.8805 22.7251 26.8628 22.728 26.8628 22.7369C26.8568 22.7517 26.8539 22.7725 26.8628 22.7843C26.8746 22.805 26.8923 22.8228 26.9101 22.8406C26.9367 22.8702 26.9278 22.8939 26.8982 22.9146C26.8835 22.9235 26.8805 22.9324 26.8953 22.9413C26.9042 22.9472 26.9219 22.9532 26.9278 22.9502C26.9899 22.9028 27.0491 22.8524 27.1082 22.8021C27.1082 22.8021 27.1023 22.7784 27.0993 22.7784C27.0757 22.7754 27.0402 22.7843 27.0284 22.7695C27.0017 22.7399 26.9722 22.7251 26.9367 22.728L26.9308 22.7251ZM25.8958 23.7293C25.8721 23.756 25.8248 23.7589 25.8218 23.8123C25.8218 23.8448 25.8159 23.8715 25.7863 23.8893C25.7863 23.8893 25.7893 23.9071 25.7952 23.913C25.7952 23.9159 25.807 23.913 25.8129 23.913C25.8662 23.9071 25.8869 23.8537 25.9283 23.83C25.9224 23.8211 25.9165 23.8093 25.9076 23.8034C25.881 23.7797 25.9165 23.7767 25.9224 23.7649C25.9224 23.7589 25.9283 23.756 25.9342 23.753C25.9253 23.7471 25.9165 23.7412 25.8958 23.7263V23.7293ZM28.3 21.5756C28.3 21.5756 28.2852 21.5519 28.2763 21.5401C28.2497 21.5075 28.2349 21.5045 28.2319 21.5342C28.2319 21.5697 28.1994 21.5816 28.1876 21.6082C28.1728 21.6379 28.158 21.6704 28.1462 21.7001C28.1462 21.703 28.1462 21.7119 28.1521 21.7149C28.155 21.7178 28.1639 21.7267 28.1639 21.7267C28.2083 21.6852 28.2556 21.6467 28.3 21.6053C28.3029 21.6023 28.3 21.5934 28.3 21.5786V21.5756ZM28.1048 21.7386C28.1048 21.7386 28.0841 21.7267 28.0782 21.7297C28.0427 21.7504 28.0249 21.7949 27.9717 21.7889C27.951 21.7889 27.9392 21.8334 27.9569 21.8482C27.9687 21.8571 27.9954 21.866 28.0042 21.86C28.0397 21.8363 28.0693 21.8037 28.1018 21.7741C28.1077 21.7682 28.1018 21.7504 28.1048 21.7386ZM25.0263 30.5606C25.0352 30.5162 25.0234 30.4806 24.9909 30.451C24.979 30.4392 24.9701 30.4362 24.9642 30.451C24.9524 30.4895 24.9406 30.531 24.982 30.5636C24.9909 30.5695 24.9968 30.5813 25.0056 30.5873C25.0115 30.5784 25.0175 30.5695 25.0263 30.5606Z" fill="#381067"/>
</svg>
