<svg width="52" height="52" viewBox="0 0 52 52" fill="none" xmlns="http://www.w3.org/2000/svg">
<rect x="1.5" y="1.5" width="49" height="49" rx="24.5" fill="white"/>
<rect x="1.5" y="1.5" width="49" height="49" rx="24.5" stroke="#381067" stroke-width="3"/>
<path d="M26.0178 33.6989C25.0424 33.6989 24.1712 33.5308 23.4041 33.1946C22.6418 32.8584 22.0381 32.392 21.593 31.7955C21.1527 31.1941 20.916 30.4981 20.8828 29.7074H23.1129C23.1413 30.1383 23.2857 30.5123 23.5462 30.8295C23.8113 31.142 24.157 31.3835 24.5831 31.554C25.0092 31.7244 25.4827 31.8097 26.0036 31.8097C26.5765 31.8097 27.0831 31.7102 27.5234 31.5114C27.9685 31.3125 28.3165 31.0355 28.5675 30.6804C28.8184 30.3205 28.9439 29.9062 28.9439 29.4375C28.9439 28.9498 28.8184 28.5213 28.5675 28.152C28.3213 27.7779 27.959 27.4844 27.4808 27.2713C27.0073 27.0582 26.4344 26.9517 25.7621 26.9517H24.5334V25.1619H25.7621C26.3018 25.1619 26.7753 25.0649 27.1825 24.8707C27.5945 24.6766 27.9164 24.4067 28.1484 24.0611C28.3804 23.7107 28.4964 23.3011 28.4964 22.8324C28.4964 22.3826 28.3946 21.992 28.1911 21.6605C27.9922 21.3243 27.7081 21.0616 27.3388 20.8722C26.9742 20.6828 26.5433 20.5881 26.0462 20.5881C25.5727 20.5881 25.13 20.6757 24.718 20.8509C24.3108 21.0213 23.9794 21.2675 23.7237 21.5895C23.468 21.9067 23.3307 22.2879 23.3118 22.733H21.1882C21.2119 21.947 21.4439 21.2557 21.8842 20.6591C22.3293 20.0625 22.9164 19.5961 23.6456 19.2599C24.3748 18.9238 25.1844 18.7557 26.0746 18.7557C27.0073 18.7557 27.8123 18.938 28.4893 19.3026C29.1712 19.6624 29.6967 20.143 30.0661 20.7443C30.4401 21.3456 30.6248 22.0038 30.62 22.7188C30.6248 23.5331 30.3975 24.2244 29.9382 24.7926C29.4837 25.3608 28.8776 25.742 28.12 25.9361V26.0497C29.0859 26.1965 29.834 26.58 30.3643 27.2003C30.8994 27.8205 31.1645 28.59 31.1598 29.5085C31.1645 30.3087 30.942 31.026 30.4922 31.6605C30.0471 32.295 29.4387 32.7945 28.6669 33.1591C27.8951 33.5189 27.0121 33.6989 26.0178 33.6989Z" fill="#381067"/>
</svg>
