<svg width="33" height="38" viewBox="0 0 33 38" fill="none" xmlns="http://www.w3.org/2000/svg">
<path d="M2.59297 7.39718C2.48275 13.7888 2.04386 20.1633 1.03035 26.4864C0.850655 27.6075 0.557195 27.2698 1.58843 27.5138C2.49105 27.7277 2.96668 28.1368 3.67566 28.7261C5.56802 30.2996 7.4194 31.8323 9.15602 33.5551C10.0866 34.4782 10.9544 35.4364 11.9241 36.3291C12.2419 36.6215 12.428 37.0092 12.8617 36.7812C13.1626 36.6228 13.3684 36.3788 13.6207 36.1647C14.6726 35.2718 15.9132 34.5924 17.1254 33.9045C19.9226 32.3166 22.5894 30.421 25.4631 28.9625C27.1851 28.0886 29.1309 27.3699 31.122 27.3699C32.2913 27.3699 31.7212 24.997 31.6355 24.2672C31.1894 20.4697 30.7202 16.5835 30.7202 12.7603C30.7202 11.384 31.0181 9.66153 30.6756 8.32185C30.6383 8.17605 30.5604 7.57804 30.352 7.62321C28.157 8.09857 25.9226 9.33996 23.8224 10.089C20.5325 11.2623 16.991 11.8578 13.7657 13.1301C12.8359 13.4969 11.5255 14.5321 10.4731 14.6096C10.2228 14.628 10.4497 14.4682 10.4173 14.2295C10.3143 13.4715 9.36979 12.7244 8.91044 12.1438C8.35355 11.4399 7.64303 10.7276 7.16923 9.98627C7.02603 9.76214 6.76074 9.87119 6.60001 9.69859C6.32991 9.40854 6.0639 9.13895 5.80753 8.83555C5.4476 8.40958 4.93391 8.47888 4.49046 8.21911C3.942 7.89786 3.64977 7.5618 4.20025 8.32185M1.94014 6.28239C2.4817 6.28239 1.41743 6.41158 1.94584 6.28239C4.90867 5.55797 7.75365 4.72657 10.8305 4.4536M30.3187 7.57693C30.189 7.21914 29.9296 6.9462 29.5149 6.83718C29.0506 6.71503 28.6429 6.34894 28.265 6.09745C27.0216 5.26992 25.7459 4.46918 24.6262 3.49809C22.8534 1.96036 24.5897 3.04226 24.2022 3.22069C23.5778 3.50807 23.2023 3.50837 22.5056 3.50837C21.8436 3.50837 21.1819 3.5257 20.5199 3.55618M14.8263 4.04353C15.5213 3.96858 16.217 3.89481 16.913 3.82712M9.22128 16.2698C9.93606 15.1001 10.243 18.7723 10.2481 18.8075C10.9758 23.7936 11.4266 28.8122 11.6768 33.8384M18.065 12.013C18.6522 12.0806 18.6677 14.0284 18.6677 14.3864C18.6677 18.1942 19.5479 22.0705 20.2527 25.8009C20.4455 26.8219 19.9935 27.8782 20.5876 28.801C20.8148 29.1541 20.8779 30.954 20.8779 29.5817M17.8623 10.9091C17.4204 10.8583 16.7839 9.53602 16.5564 9.24471C15.7542 8.2173 14.9089 7.01208 13.6432 6.42958C13.0315 6.14803 12.2331 5.17615 11.6342 5.17615M15.2567 7.94794C15.5372 7.76718 17.5477 8.4261 17.9131 8.6055C18.9513 9.11515 19.4878 7.93289 19.766 7.22876C20.3826 5.66755 20.5121 4.25541 19.3194 2.91363C19.1159 2.68459 18.6668 1.81688 18.3149 2.39993C17.7709 3.30128 17.6676 4.11394 17.6676 5.11229C17.6676 5.74777 17.8523 6.83834 16.8639 6.83834C16.1909 6.83834 15.117 7.00743 14.8548 6.28353M15.4562 6.6534C15.4042 5.50452 14.8223 4.15606 14.4516 3.0472C14.2553 2.4598 14.03 1.66253 13.5476 1.21841C13.0392 0.750493 11.5411 0.621325 11.438 1.47526C11.3787 1.96679 11.0362 2.27155 11.0362 2.85198C11.0362 3.32165 11.3136 3.67007 11.5608 4.0746C11.8093 4.48122 12.2819 4.62366 12.5988 4.96844C13.1504 5.56852 13.4381 6.10121 14.1614 6.57121C14.8958 7.04835 15.5387 7.63505 16.2598 8.13288" stroke="#381067" stroke-width="1.7" stroke-linecap="round"/>
</svg>
