<svg width="40" height="29" viewBox="0 0 40 29" fill="none" xmlns="http://www.w3.org/2000/svg">
<path d="M4.58918 7.49565C4.6227 7.19512 5.26342 6.87318 5.44521 6.56755C5.64526 6.23128 6.58361 6.01501 6.95257 5.90016C8.04361 5.56051 9.44918 5.8063 10.5814 5.8063C11.435 5.8063 12.1419 5.97712 12.9634 6.18171C13.4549 6.30411 14.4841 6.98227 14.815 7.42264C15.3539 8.13984 16.2814 9.0576 16.7225 8.01704C16.981 7.40699 17.6249 6.73462 17.9972 6.16086C18.6453 5.16214 19.4057 4.30944 20.1373 3.38699C20.5955 2.8092 21.0887 2.80845 21.747 2.49019C22.6507 2.05325 23.3819 1.21629 24.3523 0.967681C24.8477 0.840775 26.5592 0.699415 26.8739 1.2284C27.1043 1.61584 27.904 2.66531 27.5717 2.3859C27.2872 2.14683 28.2984 2.63755 28.5021 2.92816C30.4979 5.77488 32.6243 8.54928 34.4384 11.5521C35.3979 13.1403 36.0808 14.887 36.9973 16.4846C37.3515 17.102 36.4976 16.3042 36.1133 16.1718C34.9867 15.7833 33.8656 16.9308 33.0613 17.6316C32.0968 18.4726 30.8037 18.6116 29.7861 19.467C29.3384 19.8433 28.8331 20.5142 28.7163 21.1041C28.4909 22.2401 28.2533 22.078 27.3112 21.5318C24.4619 19.8801 24.3523 18.3006 22.1485 15.8385C20.1981 14.2635 19.5672 11.5802 17.5952 10.1068C17.153 9.7764 17.2504 9.65187 17.6604 9.34552M3.57878 8.43331C4.05929 8.97184 4.51113 9.56648 4.71395 10.3103C4.9283 11.0966 5.73689 11.8115 6.16547 12.5002C6.45417 12.9642 7.0459 13.396 7.24481 13.8976C7.40531 14.3023 7.43385 14.594 7.71003 14.9404C8.47446 15.8991 8.64643 17.1486 9.4407 18.0897C10.4827 19.3241 11.6162 20.2865 12.5857 21.6142C12.7219 21.8009 14.1103 24.491 14.1209 24.4612C14.4895 23.4286 15.0857 23.2281 15.8888 22.6049C16.6823 21.9894 16.8233 21.4894 17.8149 21.291C18.6393 21.126 19.4925 21.1972 20.3272 21.1972C21.2834 21.1972 22.2603 21.5857 23.1931 21.7812C23.6157 21.87 24.1736 21.8257 24.5888 21.9585C25.1288 22.1316 25.1448 23.9908 24.8493 23.8252M27.9747 24.2764C29.1357 22.8668 31.9549 22.8305 33.5387 22.3996C34.6531 22.0961 35.5531 22.0982 36.4883 21.3774C36.8661 21.0865 37.2488 20.362 37.6885 20.3348C38.9176 20.2582 37.5299 18.6969 37.1024 18.2492C36.26 17.3665 36.108 17.1366 35.3291 16.1937M4.41955 10.4928C3.51579 10.4928 2.78459 10.4356 1.90731 10.2008C1.40065 10.0652 0.495553 9.8663 0.995447 10.5866C1.25166 10.9558 1.3399 11.2026 1.44209 11.6607C1.65369 12.6093 2.51873 13.3103 2.95873 14.1322C3.75915 15.6272 4.74715 16.9153 5.8711 18.147C6.28505 18.6006 6.80038 19.198 7.26678 19.5756C7.74646 19.9638 7.83601 20.5556 8.27169 20.9625C9.19659 21.8262 9.60689 22.8198 10.1978 23.9972C10.57 24.7388 10.6454 25.1284 11.2864 25.5508C11.5304 25.7116 11.3428 26.1084 11.5469 26.239C11.775 26.3852 11.8325 26.4172 11.9563 26.7292C12.032 26.9201 12.4322 27.67 12.6356 27.4801C13.3022 26.8574 14.435 26.7884 15.1757 26.2598C17.0375 24.9321 19.8037 24.1953 22.0147 24.1953C23.1725 24.1953 23.9237 24.0193 24.3128 25.2798C24.8736 27.0953 26.3224 24.467 26.5275 24.0076" stroke="#311C6A" stroke-width="1.7" stroke-linecap="round"/>
</svg>
