<svg width="11" height="9" viewBox="0 0 11 9" fill="none" xmlns="http://www.w3.org/2000/svg">
<path d="M4.61328 8.52811C4.41347 8.71871 4.09685 8.71229 3.90625 8.51248L3.83984 8.44217L3.78906 8.38748L3.75391 8.32498L3.73437 8.28592C3.57392 7.97425 3.44174 7.82478 3.35938 7.76639L3.33984 7.75076L3.32031 7.73904C3.11319 7.59221 2.92518 7.42391 2.75391 7.23904L2.73438 7.22342L2.71875 7.20389C2.57383 7.04741 2.42583 6.89195 2.27734 6.73904L2.26172 6.72342L2.24609 6.70389C2.12128 6.57536 1.97904 6.46089 1.82422 6.36014L1.80469 6.34842L1.78516 6.33279C1.55947 6.18593 1.35949 6.00976 1.1875 5.80545L1.15234 5.77029C1.095 5.70215 1.05048 5.62329 0.996094 5.55154C0.980209 5.54315 0.965271 5.53242 0.949219 5.5242L0.925782 5.51248L0.90625 5.50076C0.665009 5.3772 0.450457 5.22298 0.285157 5.0281L0.273438 5.01248L0.257813 5.00076C0.0567852 4.76376 -0.033397 4.47034 0.0117195 4.15701L0.019532 4.11795C0.0648611 3.80688 0.235073 3.55145 0.457032 3.35232L0.472657 3.3367L0.492188 3.32107C0.677119 3.15521 0.877491 3.0075 1.09375 2.87967L1.11719 2.86795L1.13672 2.85623C1.20034 2.81863 1.2602 2.77459 1.31641 2.72732C1.35174 2.68331 1.38726 2.63857 1.42188 2.59451L1.43359 2.57498L1.44922 2.55545C1.58168 2.38684 1.71617 2.21768 1.85156 2.04764L1.88281 2.00857L1.89063 1.99686L1.90234 1.97732C2.03358 1.76789 2.18231 1.57068 2.34766 1.38748L2.38281 1.35232C2.52643 1.19327 2.66853 1.03303 2.8086 0.871855L2.83985 0.832793C3.00006 0.648417 3.17504 0.477304 3.36328 0.321074L3.40235 0.289824C3.48579 0.220578 3.55434 0.165395 3.60156 0.129668C3.61718 0.117848 3.65905 0.0873497 3.70313 0.0632618C3.71518 0.0566862 3.74868 0.0385626 3.79297 0.0241993C3.81514 0.0170515 3.86213 0.00397664 3.92188 0.000761816C3.97614 -0.00201432 4.10792 -0.00202193 4.23828 0.0906056C4.39232 0.200313 4.44311 0.362316 4.44922 0.473418C4.45414 0.567728 4.4281 0.640218 4.41797 0.668731C4.39712 0.727003 4.37163 0.769543 4.36328 0.782012L4.35938 0.785918L4.35938 0.789824L4.35547 0.793731C4.34744 0.807598 4.33521 0.829563 4.32031 0.856231C4.29034 0.909902 4.24916 0.987785 4.19531 1.0867L4.18359 1.10623L3.93359 1.48123C3.84484 1.59046 3.7456 1.69102 3.63672 1.78201L3.61719 1.79764L3.60156 1.81326C3.42971 1.95689 3.2545 2.09863 3.07813 2.23514L3.05859 2.25076L3.03906 2.26248C2.90545 2.36589 2.78978 2.48744 2.68359 2.61795C2.56803 2.79684 2.4408 2.97021 2.30469 3.13748L2.27344 3.17654C2.20062 3.26598 2.11882 3.34572 2.03516 3.42264C1.95293 3.52397 1.87076 3.62647 1.78516 3.72732L1.75391 3.76639C1.69503 3.83574 1.63346 3.9041 1.57031 3.96951C1.67205 3.99219 1.77429 4.01524 1.875 4.04764L1.89844 4.05545L1.92578 4.06326C2.08813 4.11542 2.24988 4.14042 2.41016 4.13748L2.45703 4.13748C2.63469 4.13422 2.81455 4.10867 2.99609 4.06326L3.02344 4.05545L3.04688 4.05154C3.32565 3.98159 3.60833 3.96432 3.89063 4.00467L3.91797 4.00857L3.94141 4.01248C4.13943 4.04087 4.33736 4.05711 4.53516 4.06326L4.55859 4.06326L4.58594 4.06717C4.77045 4.07281 4.95508 4.05782 5.14063 4.02811L5.16406 4.0242L5.19141 4.02029C5.49228 3.97233 5.79152 4.0028 6.08203 4.10232L6.10938 4.11014L6.13281 4.11795C6.26004 4.16151 6.37704 4.16795 6.49609 4.13748L6.51953 4.12967L6.54688 4.12186C6.83686 4.04759 7.13325 4.0408 7.42578 4.10232L7.44922 4.11014L7.47266 4.11404C7.60885 4.14269 7.74348 4.13799 7.88281 4.09842L7.91016 4.09061L7.93359 4.08279C8.21218 4.00338 8.49611 3.9819 8.78125 4.01639L8.80469 4.01639L8.83203 4.02029C9.06937 4.04907 9.30744 4.09495 9.54297 4.15311L9.56641 4.15701L9.58984 4.16483C9.70754 4.19389 9.77589 4.1775 9.82422 4.15311L9.84375 4.14139L9.86328 4.13358C9.95277 4.08772 10.0614 4.03419 10.1641 4.00858C10.201 3.99938 10.3286 3.97115 10.4727 4.01248C10.5591 4.03756 10.6678 4.09377 10.75 4.20779C10.8314 4.32113 10.8493 4.44126 10.8477 4.5242L10.8477 4.52811L10.8438 4.77811L10.7852 4.82108C10.7016 4.98035 10.54 5.09052 10.3477 5.09061L10.2461 5.09061L10.1602 5.09451C9.89916 5.19514 9.62352 5.20059 9.35156 5.13358L9.32422 5.12967L9.30078 5.12186C9.25051 5.10945 9.19866 5.10529 9.14844 5.09451L8.70703 5.09451L8.80078 5.03201C8.77048 5.02776 8.74123 5.01615 8.71094 5.01248L8.6875 5.01248L8.66016 5.00858C8.51134 4.99071 8.36129 4.9997 8.20703 5.04373L8.16016 5.05936C7.86643 5.14321 7.56377 5.15331 7.26563 5.09061L7.21875 5.08279C7.07712 5.05301 6.93585 5.05388 6.79297 5.09061L6.74609 5.10623C6.43222 5.18691 6.11561 5.16849 5.80859 5.06326L5.78125 5.05545L5.75781 5.04764C5.61452 4.9986 5.47965 4.98742 5.34766 5.00857L5.30078 5.01639C5.05322 5.05605 4.80347 5.07092 4.55469 5.06326L4.50391 5.06326C4.26847 5.05593 4.03156 5.03444 3.79688 5.00076L3.77344 4.99686L3.75 4.99686C3.59918 4.97522 3.44555 4.98102 3.28906 5.02029L3.26563 5.02811L3.24219 5.03201C2.99665 5.09363 2.74856 5.13112 2.5 5.13748C2.51233 5.15105 2.5271 5.1625 2.53906 5.17654L2.57031 5.21561C2.70376 5.37226 2.84481 5.51909 2.98828 5.66092L3.00391 5.68045L3.02344 5.69607C3.17293 5.84383 3.32489 5.99003 3.48047 6.13357L3.51563 6.16873C3.67213 6.31311 3.83421 6.45371 3.99609 6.59451L4.03125 6.62967C4.19696 6.77379 4.33633 6.93992 4.45703 7.12186C4.57378 7.2567 4.67847 7.40152 4.76172 7.56326L4.77344 7.5867L4.78516 7.60623C4.83311 7.6994 4.87707 7.78788 4.89844 7.84061C4.90203 7.84949 4.90863 7.86317 4.91406 7.87967C4.91669 7.88763 4.93173 7.93398 4.9375 7.99295C4.93949 8.01318 4.94838 8.10842 4.90625 8.21951C4.88152 8.28444 4.83127 8.37788 4.73047 8.44998C4.70246 8.46988 4.66931 8.48011 4.64062 8.49295C4.6309 8.50405 4.62415 8.51771 4.61328 8.52811Z" fill="#381067"/>
</svg>
