<svg width="310" height="452" viewBox="0 0 310 452" fill="none" xmlns="http://www.w3.org/2000/svg">
<path opacity="0.05" d="M4.47824 457.938C4.54859 456.749 4.61895 455.631 4.68931 454.442C4.83002 452.694 4.83002 452.275 4.47824 451.785C3.84503 450.946 3.77467 450.597 4.54859 449.968C6.16679 448.709 6.72965 447.311 5.53358 445.563C5.04109 444.864 5.46323 444.165 5.39287 443.466C6.44822 442.906 6.09644 442.277 5.53358 441.578C5.32251 441.298 5.39287 440.739 5.1818 440.459C4.90038 440.04 4.90038 439.9 5.1818 439.481C5.95572 438.362 6.16679 437.104 5.32251 435.985C4.61895 435.006 5.6743 433.538 4.26717 432.909C4.26717 432.35 4.40788 431.72 4.33752 431.161C4.33752 430.532 4.54859 430.112 5.04109 429.693C5.32251 429.483 5.46323 428.714 5.32251 428.574C4.54859 427.875 4.61895 427.106 4.61895 426.197C4.61895 424.519 5.39287 422.772 4.12645 421.233C3.98574 421.094 4.12645 420.674 4.12645 420.395C4.12645 418.297 4.97073 416.13 3.63396 414.172L3.84503 411.096C2.36754 409.418 3.21182 407.531 3.35253 405.713C3.42289 404.454 2.78968 403.546 2.64897 402.497C2.50825 401.378 2.71932 400.19 2.78968 399.001C2.86004 397.813 3.07111 396.694 3.00075 395.506C3.00075 394.876 2.4379 394.247 2.29718 393.618C2.15647 393.129 2.57861 392.429 2.01576 392.01C1.4529 391.59 1.52326 391.031 1.59362 390.472C1.73433 388.864 1.87504 387.256 1.87504 385.648C1.87504 384.669 2.36754 383.62 1.38255 382.781C1.17148 382.572 1.24184 381.943 1.31219 381.593C1.38255 380.125 1.45291 378.657 1.59362 377.258C1.59362 376.419 1.73433 375.581 1.03077 374.881C0.749339 374.602 0.749339 373.623 1.03077 373.273C1.4529 372.574 2.22683 372.085 1.10112 371.316C1.17148 370.127 1.10112 368.939 1.38255 367.82C1.73433 366.632 0.186487 366.282 0.53827 365.024C0.890053 363.975 0.749339 362.717 0.819696 361.528C0.890052 359.92 1.03077 358.312 1.10112 356.704C1.10112 355.935 0.960409 355.376 0.608626 354.746C0.116131 353.768 0.3272 352.579 0.960409 351.531C1.73433 350.342 1.66397 350.272 1.10112 348.874C1.10112 348.734 0.890052 348.664 0.819696 348.524C0.467913 347.476 1.31219 346.287 0.397557 345.238C-0.446722 344.26 0.3272 343.001 0.256844 341.883C0.256844 341.533 0.678983 341.183 0.890052 340.834C1.03077 340.484 1.31219 339.785 1.24184 339.715C0.256844 338.946 0.53827 337.898 0.608626 336.919C0.678983 335.451 0.890052 333.982 0.890052 332.584C0.819696 330.487 1.9454 328.319 0.467913 326.292C0.186487 325.942 0.467913 325.173 0.467913 324.544C0.749339 320.489 1.10112 316.364 1.17148 312.309C1.17148 309.932 2.29718 307.486 0.819696 305.178C0.53827 304.759 0.819696 304.06 0.819696 303.431L1.24184 296.859C1.31219 295.67 1.38255 294.552 1.4529 293.363C1.4529 292.384 1.87504 291.336 0.819696 290.567C1.87504 289.798 1.73433 288.609 1.80469 287.49C1.80469 286.372 2.22683 285.253 1.17148 284.274C0.890053 283.995 1.10112 283.086 1.31219 282.597C2.29718 280.22 2.29718 280.22 1.80469 276.654C1.80469 276.444 1.9454 276.235 2.08611 276.025C2.86004 275.046 2.93039 273.857 2.4379 272.809C2.15647 272.11 1.87504 271.55 1.9454 270.851C2.64897 260.504 3.28218 250.157 3.91538 239.88C3.91538 239.041 4.33752 238.552 4.90038 238.132C3.35253 236.664 4.47824 234.846 4.40788 233.238C4.40788 231.49 4.61895 229.743 4.68931 227.995L5.04109 222.751C5.04109 221.703 5.1818 220.724 5.25216 219.675C5.25216 219.046 5.53358 218.626 5.95572 218.207C6.16679 217.997 6.30751 217.368 6.16679 217.088C5.95572 216.599 5.39287 216.319 5.46323 215.62C5.6743 213.733 5.74465 211.845 6.02608 210.027C6.02608 209.678 6.72965 209.398 6.72965 209.048C6.94071 206.881 7.01107 204.714 7.15178 202.477C6.02608 201.428 6.51858 200.1 6.44822 198.841C6.37786 197.653 7.71464 197.023 7.57392 195.765C7.43321 194.507 7.71464 193.178 7.78499 191.85L8.20713 184.859L8.48856 180.943C8.55892 179.755 8.69963 178.636 8.69963 177.448C8.69963 176.539 9.05141 175.84 9.68462 175.211C9.96605 174.931 10.0364 173.812 9.68462 173.603C8.76999 172.764 8.98106 171.785 9.05141 170.806C9.40319 165.423 9.82533 160.04 10.0364 154.656C10.1068 152.419 11.1621 150.182 9.68462 147.945C9.33284 147.455 9.68462 146.546 9.75498 145.777C10.1068 139.835 10.5289 133.822 10.8807 127.88C10.8807 127.041 11.1621 126.132 10.2475 125.503C10.1068 125.363 10.0364 124.804 10.2475 124.734C11.5842 123.685 11.2325 122.147 11.3732 120.749C11.5139 119.28 11.5842 117.812 11.6546 116.414C11.6546 116.064 11.3732 115.645 11.1621 115.295C10.9276 114.783 10.951 114.293 11.2325 113.827C11.2325 113.827 11.7953 113.128 11.8657 112.779C12.0064 111.45 12.0767 110.192 12.2175 108.863C13.6949 107.815 13.0617 106.277 13.2728 104.878C13.4839 103.55 13.4839 102.292 13.5542 100.963C13.5542 99.8447 14.9614 99.2155 14.6799 97.8872C14.4689 96.9084 14.7503 95.8597 14.8206 94.811C14.891 93.6225 14.8206 92.434 15.1021 91.3154C15.2428 90.5463 15.8056 89.8472 16.0871 89.0782C16.2981 88.449 16.1574 87.61 16.5092 87.0507C16.7906 86.5613 17.2831 86.3516 16.6499 85.7923C16.4388 85.5825 16.2981 84.7436 16.4388 84.6737C17.2831 84.1144 17.4238 83.3453 17.4238 82.4365C17.4238 81.3179 17.4238 80.1293 18.4792 79.3603C18.5495 77.8921 18.6199 76.424 18.7606 75.0257C18.9013 73.5576 19.042 72.1593 19.1124 70.6911C20.5899 70.1318 19.3938 68.1044 20.8713 67.4052C21.1527 67.2654 21.2934 66.0769 21.0824 65.7972C20.027 64.4689 20.4492 63.0706 20.5195 61.6724C20.5195 61.3228 20.9417 60.9733 21.1527 60.6237C21.2934 60.2741 21.5749 59.575 21.5045 59.5051C20.5195 58.7361 20.801 57.6874 20.8713 56.7086C20.9417 55.5201 20.8713 54.3316 21.1527 53.213C21.4342 52.3041 19.9567 51.9545 20.801 51.1156C21.5045 50.4164 21.5749 49.3678 22.4895 48.7385C23.1931 48.2491 23.967 47.9695 24.6706 47.6199C25.8666 46.9907 27.2738 46.5713 28.2587 45.4526C28.8216 44.8234 28.892 44.0544 28.7512 43.4951C28.6105 42.796 27.6255 42.1667 28.892 41.6074C28.892 40.7685 29.103 40.4189 30.088 40.2791C30.8619 40.1393 31.4248 38.8809 32.1284 38.8809C33.3244 38.8809 33.3948 38.1817 33.7466 37.4127C34.0983 36.6436 36.983 35.595 37.8272 35.595C38.5308 35.595 39.3047 35.595 40.0083 35.7348C41.0636 35.9445 41.6968 35.4551 42.2597 34.8259C42.9633 33.987 43.3854 34.4763 43.8075 35.0356C43.8075 35.0356 44.0186 34.8958 44.089 34.8259C44.8629 34.3365 45.3554 33.148 46.6218 33.4976C47.4661 33.7073 48.3807 33.3577 48.9436 34.3365C48.9436 34.3365 49.4361 34.3365 49.5064 34.1268C49.7175 33.7772 49.7878 33.0082 49.9286 33.0082C50.9136 33.0082 51.9689 32.8684 52.8835 33.2179C55.6978 34.3365 56.1199 34.4064 58.5824 33.3577C58.8638 33.2179 59.0749 33.148 59.3563 33.0082C60.4117 32.379 60.8338 31.1905 60.1303 30.1418C59.6378 29.4426 59.8488 28.4639 59.0749 27.9046C58.5824 27.4851 60.271 27.2054 59.3563 26.3665C58.7231 25.8072 59.0749 24.6886 58.2306 24.1992C58.4417 23.3602 57.9492 22.8708 57.4567 22.3115C57.9492 20.7735 56.9642 19.8646 56.1199 18.8858C56.1199 18.8159 56.2607 18.4663 56.4014 18.3265C56.4717 18.1168 56.7531 17.8371 56.6828 17.7672C56.2607 16.9283 55.4867 16.0893 55.346 15.2504C55.1349 13.9919 55.4164 12.6636 55.4867 11.3352C55.4867 10.6361 55.4867 9.86707 55.6274 9.16795C55.6274 8.95821 56.0496 8.74847 56.2607 8.74847C56.8939 8.74847 57.4567 8.74847 57.3864 7.90952C57.2456 6.30153 57.8085 5.11301 59.2156 4.27406C59.5674 4.06432 59.9192 3.71476 60.2006 3.43511C60.6228 2.94572 61.1856 2.8758 61.7485 2.94572C63.0149 3.08554 64.2813 2.94572 65.3366 3.99441C65.7588 4.41388 66.7438 3.85458 67.3066 4.55371C66.9548 6.30153 68.2916 5.88205 69.2063 6.02187C69.9098 6.09179 70.6837 6.02188 71.3169 6.37144C72.1612 6.79092 73.0055 7.35022 73.6387 8.04935C74.2719 8.81839 74.9051 9.16795 75.8901 9.09803C77.2269 8.95821 77.9305 9.72725 78.423 10.9158C78.9858 12.314 79.3376 13.8521 80.604 14.9008C81.0262 15.2504 81.589 15.8097 81.589 16.2291C81.4483 17.6973 83.6294 18.0469 83.2072 19.5849C83.9108 20.2142 84.1218 20.9832 83.9811 21.8921C83.9811 22.1018 84.1218 22.5912 84.1922 22.5912C86.3029 22.731 86.4436 25.5974 88.5543 25.6673C88.8357 26.786 89.4689 27.6948 90.2429 28.5338C90.8057 29.0931 91.2982 29.3727 92.1425 29.3727C92.8461 29.3727 93.1978 29.6524 93.1275 30.4214C93.1275 30.8409 93.0571 31.2604 93.0571 31.7498C93.0571 32.8684 93.0571 32.8684 94.1828 33.0781C94.9567 33.2179 96.2935 33.0781 94.816 34.2666C95.5196 35.3852 96.0825 36.7835 97.771 36.7835C98.4042 36.7835 98.8967 36.9233 98.8264 37.7622C98.756 38.4614 98.6153 39.2304 98.756 39.9295C98.8264 40.4189 99.6003 40.6986 99.5299 41.3977C99.4596 41.8871 99.741 42.2367 100.233 42.2367C101.359 42.2367 102.133 42.3765 102.133 43.7747C102.133 44.1942 102.907 45.0332 103.259 44.9633C105.088 44.7535 105.721 46.1518 106.777 47.1306C107.48 47.7598 108.254 48.4589 109.098 48.8085C110.013 49.158 111.209 48.8085 111.702 49.9271C112.124 50.9758 113.531 50.6961 114.094 51.605C114.516 52.374 115.29 52.6537 116.064 53.0032C116.627 53.2829 116.064 54.4015 116.908 54.821C117.26 55.0307 117.541 55.4502 117.893 55.5201C118.597 55.5201 118.878 56.0794 119.23 56.5688C119.582 57.1281 119.652 58.0369 120.144 58.2467C120.637 58.5263 121.129 58.5962 121.552 59.0856C121.974 59.575 122.044 59.575 121.481 60.3441C121.27 60.6237 121.2 60.6936 121.481 60.9733C121.763 61.183 122.114 61.5326 121.552 61.8821C121.129 62.1618 120.989 62.7211 121.552 62.7211C123.099 62.8609 124.295 63.2105 124.507 65.0282C124.577 65.6574 125.632 66.0769 125.773 66.7061C126.054 67.8946 127.039 68.8734 126.758 70.2017C126.476 71.6 126.547 73.1381 126.406 74.5363C126.265 75.8647 126.758 76.7036 128.024 77.1231C128.658 77.3328 129.22 77.8222 129.783 78.1019C130.205 78.3116 130.557 78.4514 130.487 79.0107C130.346 79.9196 130.346 80.7586 131.261 81.3179C132.105 81.8073 131.824 82.8559 132.386 83.4852C132.949 84.1843 133.653 84.7436 134.075 85.4427C134.567 86.2118 134.849 87.1905 135.201 88.0295C135.271 88.3091 135.271 88.7286 135.412 88.7985C136.115 89.1481 137.171 89.1481 136.819 90.4065C136.819 90.4764 137.03 90.7561 137.1 90.6862C138.085 90.5463 138.437 91.665 139.281 91.8048C140.477 92.0145 140.759 93.1331 141.462 93.7623C142.096 94.3216 142.658 95.0907 143.221 95.7199C144.206 96.8385 144.347 96.7686 145.684 95.7199C146.458 95.1606 146.95 94.042 148.146 94.042L151.523 93.3428C152.86 93.4128 154.197 93.3428 155.463 93.6225C156.097 93.7623 156.378 94.7411 157.222 94.6013C158.137 95.7199 159.052 96.6987 160.74 96.6987C161.092 96.6987 161.514 97.5376 161.936 97.9571C160.318 98.6562 161.655 99.635 161.936 100.264C162.499 101.872 163.343 103.41 161.655 104.878C160.951 107.186 160.951 107.255 160.107 107.885C158.911 108.724 158.418 109.772 158.489 111.171C158.489 112.01 158.489 112.918 158.348 113.757C157.996 115.715 159.403 116.554 160.529 117.603C160.599 117.672 160.81 117.603 160.951 117.603C162.429 118.092 162.569 118.092 162.358 119.42C162.147 120.679 162.569 121.238 163.765 121.448C163.765 123.475 166.369 124.104 166.369 126.132C167.494 127.46 168.62 128.789 169.816 130.117C170.379 130.676 170.52 131.305 170.449 132.074C170.449 132.424 170.59 132.913 170.871 133.193C171.434 133.892 171.927 134.591 172.63 135.151C173.475 135.85 173.545 136.829 174.038 137.668C175.234 137.528 175.234 138.437 175.515 139.206C175.796 140.114 177.133 140.464 176.992 141.722C176.992 142.002 177.555 142.352 177.696 142.701C178.048 143.47 179.596 142.841 179.455 144.169C179.385 145.008 180.581 145.498 180.229 146.477C181.073 146.966 180.651 148.154 181.355 148.644C182.621 149.553 182.48 151.231 183.606 152.209C184.31 152.839 185.013 153.538 185.083 154.726C185.083 155.216 185.717 156.055 186.631 156.055C187.194 156.055 187.476 156.404 187.405 156.824C187.265 157.732 188.179 158.222 188.25 159.131C188.32 159.97 189.375 160.739 190.149 161.438C191.486 162.766 192.471 164.304 192.963 166.052C193.174 166.681 193.526 167.031 193.808 167.45C194.441 168.359 195.426 168.988 195.567 170.317C195.567 170.806 196.2 171.645 197.114 171.645C197.677 171.645 197.959 171.925 197.888 172.414C197.818 173.323 197.888 174.022 198.592 174.791C199.788 175.98 201.054 177.168 201.477 178.916C202.884 178.636 202.462 179.895 202.954 180.454C203.658 181.503 203.869 182.761 204.854 183.67C206.472 185.138 207.809 186.956 209.286 188.564C209.779 189.123 210.06 189.613 210.201 190.382C210.271 191.011 211.256 191.43 211.538 192.06C211.96 192.968 213.437 192.269 213.367 193.458C213.367 194.507 214.211 194.926 214.704 195.555C215.337 196.394 216.04 197.093 216.744 197.862C217.307 198.492 217.94 199.191 218.503 199.82C219.066 200.449 219.699 201.148 220.262 201.777C220.473 201.987 220.825 202.267 220.754 202.477C220.543 203.875 222.232 204.224 222.302 205.343C222.302 206.532 223.428 206.951 223.92 207.79C224.413 208.559 225.187 208.349 225.89 208.349C226.312 208.349 226.594 208.07 226.664 207.51C226.664 206.951 226.453 206.392 227.086 205.902C228.001 205.203 229.056 204.504 228.705 203.106C229.76 202.057 230.534 200.659 231.589 199.61C232.222 198.911 232.363 198.212 232.645 197.443C232.996 196.464 233.418 195.276 234.333 194.716C235.318 194.087 235.459 192.829 236.303 192.06C236.725 191.64 236.444 190.591 236.866 190.102C237.218 189.613 238.132 189.892 238.695 189.263C239.469 188.424 240.384 187.865 240.384 186.467C240.384 185.628 241.228 184.789 241.791 184.02C242.283 183.321 243.128 183.111 243.268 181.992C243.409 181.083 244.957 180.874 245.098 179.755C245.238 178.916 246.434 178.636 246.223 177.588C247.63 176.539 248.475 175.141 249.108 173.603C249.178 173.323 249.811 173.253 250.163 173.113C250.585 172.973 250.726 172.694 250.937 172.274C252.133 170.107 253.118 167.8 255.299 166.262C255.581 166.052 255.51 165.423 255.792 165.143C256.777 163.955 257.621 162.696 258.536 161.508C259.45 160.389 259.872 158.781 261.139 157.872C261.35 157.732 261.561 157.383 261.561 157.173C261.42 155.985 262.194 155.355 262.898 154.656C264.235 153.398 265.993 152.559 266.627 150.671C266.767 150.322 267.612 150.322 268.104 150.112C267.823 148.364 269.089 147.525 270.215 146.616C270.567 146.337 270.848 146.057 271.059 145.707C271.481 145.008 271.692 144.169 272.115 143.54C272.607 142.841 273.24 142.212 273.944 141.722C274.788 141.233 274.788 140.254 275.281 139.695C276.195 138.646 277.673 138.087 278.024 136.549C278.024 136.409 278.869 136.549 279.15 136.269C279.783 135.85 280.206 135.221 280.839 134.871C281.613 134.452 281.191 133.473 281.894 133.123C282.457 132.774 282.316 132.075 282.668 131.725C282.949 131.375 283.723 131.445 284.145 131.166C284.919 130.676 285.482 130.117 285.342 129.068C285.342 128.509 285.482 127.95 285.623 127.39C285.693 127.111 285.975 127.181 286.256 127.53C286.467 127.88 286.678 128.02 287.171 127.67C288.226 127.041 288.085 125.643 289.141 125.013C289.985 124.524 290.689 123.685 291.463 123.056L294.136 120.749C294.91 120.05 295.614 119.35 296.458 118.721C297.795 117.742 298.78 116.274 300.609 115.715C302.086 115.295 302.72 113.478 304.479 113.198C305.182 113.058 305.815 112.079 306.448 111.52C307.996 110.262 309.192 108.654 311.303 108.094C311.585 108.094 311.796 107.745 311.936 107.535C312.218 107.046 312.288 106.417 312.71 106.137C313.132 105.857 313.695 105.857 314.258 105.648C315.736 104.878 317.424 104.459 317.917 102.501C317.917 102.292 318.62 102.012 318.972 102.082C320.379 102.292 321.505 102.082 322.49 100.963C322.771 100.614 323.615 100.684 323.967 100.404C324.319 100.054 324.46 99.4253 324.741 99.0058C325.234 98.1668 326.219 98.3766 326.922 97.8872C328.189 97.0482 329.807 97.0482 331.003 95.9995C332.48 96.3491 333.606 95.0208 335.013 95.2305C335.365 95.2305 335.928 95.0208 336.139 94.7411C336.843 93.9022 337.828 93.8322 338.672 93.3428C339.516 92.8535 340.079 91.8747 341.205 91.9446C341.275 91.9446 341.556 91.5251 341.556 91.2455C341.556 90.6862 341.908 90.4065 342.33 90.4065C343.878 90.6163 345.145 90.4764 346.27 89.218C346.763 88.6587 347.888 88.9383 348.451 88.0994C349.929 88.3791 351.125 87.5401 352.391 87.1206C353.658 86.7011 354.643 86.002 355.557 85.0932C356.683 85.5826 357.176 83.9046 358.301 84.3241C358.864 84.5339 359.427 84.3241 359.849 83.8347C360.553 82.9958 361.397 82.5763 362.523 82.8559C363.859 83.1356 365.056 82.8559 366.04 81.8073C366.463 81.3179 367.307 81.3179 367.87 80.9683C368.503 80.5488 368.995 80.0594 369.558 79.5001C369.98 79.0107 370.543 79.0807 371.106 79.0107C372.373 78.8709 373.498 78.4514 374.483 77.6125C375.82 76.4939 377.157 75.3054 378.423 74.1868C378.775 73.9071 379.197 73.4177 379.408 73.4876C380.815 73.9071 381.73 73.208 382.434 72.2292C383.208 71.2504 384.474 71.2504 385.318 70.5513C386.866 69.223 388.203 67.5451 390.032 66.6362C391.721 65.7972 393.128 64.6087 394.465 63.4202C395.52 62.4414 396.786 61.952 398.123 61.4627C398.405 61.3927 398.897 61.3228 398.897 61.2529C398.897 59.9246 400.023 59.9246 400.867 59.575C402.063 59.0856 403.118 58.4564 404.033 57.6175C405.44 56.2891 406.918 55.1006 408.325 53.8422C409.169 53.0731 410.013 52.3041 411.35 52.6537C411.702 52.7236 411.983 52.2342 411.983 51.7448C411.983 51.535 412.194 51.1855 412.405 51.0457C412.757 50.9058 413.32 51.0457 413.602 50.766C414.727 49.8572 415.783 48.8784 416.908 47.8996C417.893 47.0606 418.667 46.0819 420.074 45.942C420.074 44.6836 421.2 44.6836 421.974 44.1942C422.818 43.7048 423.451 43.0756 424.507 42.726C425.562 42.3765 426.406 41.3278 427.18 40.4888C429.01 38.4614 431.894 37.7623 433.723 35.6649C435.131 35.8746 435.693 34.6861 436.538 33.987C438.015 32.7984 439.211 31.1205 440.9 30.3515C442.659 29.5126 443.784 27.9046 445.403 27.2054C447.795 26.2266 449.272 24.339 451.172 22.8708C451.946 22.2416 452.72 21.5425 453.494 20.8434C454.268 20.2142 454.901 19.5849 456.027 19.3752C456.941 19.2354 457.293 17.907 458.559 17.907C459.122 17.907 459.685 17.138 460.248 16.6486C461.936 15.1804 463.555 13.7822 465.173 12.314C465.525 12.0344 465.876 11.4751 466.158 11.545C467.776 11.8945 468.057 9.79716 469.535 9.86708C469.957 9.86708 470.45 9.23786 470.942 8.95821C471.505 8.60864 470.942 7.35022 472.068 7.49004C472.771 7.55995 473.053 6.79092 473.545 6.79092C474.39 6.79092 474.882 6.02187 475.445 6.02187C476.922 6.09179 478.118 5.39266 479.385 4.97319C480.651 4.55371 481.496 3.50502 482.621 3.08554C483.606 2.73598 484.521 1.82711 485.787 2.17668C486.702 2.45633 487.476 2.17668 488.109 1.40764C488.391 1.05807 488.883 0.568685 489.094 0.638597C490.712 1.1979 492.119 0.149208 493.667 0.00938255C495.285 -0.130443 496.411 1.33772 497.959 1.40764C498.24 1.40764 498.733 1.96694 498.803 2.38641C498.944 3.57493 499.436 3.99441 500.703 4.06432C503.658 4.06432 506.543 4.41388 509.497 4.55371C510.06 4.55371 510.412 4.83336 510.342 5.32275C510.131 6.44135 510.482 7.2803 511.327 7.97943C512.241 8.74847 511.749 10.4264 513.015 10.7759C515.407 11.4751 515.97 13.5724 516.744 15.4601C516.955 16.0893 517.166 16.299 517.729 16.5088C518.925 16.9283 519.488 17.907 519.207 19.2354C518.855 20.7035 520.403 21.7522 519.91 23.2903C519.558 24.5487 519.629 25.8771 519.629 27.2054C519.629 27.6948 520.192 28.1143 520.192 28.6037C520.192 28.8833 519.699 29.2329 519.418 29.5825C519.347 29.6524 519.347 29.932 519.418 30.0019C520.403 30.9108 520.121 32.0993 520.121 33.2179C520.121 33.5675 520.332 34.0569 520.614 34.3365C521.669 35.1755 521.81 36.2242 521.599 37.4127C521.388 39.1605 521.317 40.9083 521.177 42.6561C519.699 43.4951 520.262 44.9633 520.121 46.2217C520.051 47.4102 521.106 48.4589 520.755 49.8572C520.473 50.9758 520.544 52.1643 520.544 53.3528C520.544 53.7023 520.684 54.2616 520.895 54.4714C522.091 55.4502 522.162 56.6387 521.951 57.967C521.74 59.0856 522.302 60.414 521.458 61.3228C520.684 62.1618 520.543 62.6512 521.317 63.4901C521.528 63.7698 521.528 64.2592 521.528 64.6786C521.528 65.7273 521.388 66.7061 521.388 67.7548C521.388 68.5937 522.513 69.0831 522.091 70.0619C521.74 71.1106 523.287 71.6699 522.795 72.7885C522.513 73.5575 522.513 74.4664 523.358 75.1656C523.569 75.3753 523.358 76.0045 523.358 76.424C523.358 77.2629 523.076 78.3815 523.498 78.9408C524.132 79.7798 523.639 80.6887 523.991 81.3179C524.413 82.0869 524.835 82.7161 524.694 83.6949C524.554 84.6737 524.202 85.9321 524.554 86.7011C524.976 87.4702 525.187 88.1693 525.257 89.0782C525.257 89.7074 525.82 90.3366 525.961 90.9658C526.031 91.665 525.961 92.434 525.891 93.1331C525.891 93.9721 525.609 94.811 526.453 95.5101C526.664 95.7199 526.453 96.2792 526.524 96.6987C526.594 97.9571 525.961 99.2155 526.735 100.474C527.509 101.662 526.594 103.061 527.016 104.249C527.368 105.158 527.861 105.997 527.649 107.046C528.564 107.815 528.423 108.794 528.353 109.772C528.353 111.031 527.72 112.429 528.423 113.548C529.268 114.806 528.494 116.064 528.705 117.323C528.846 117.952 529.338 118.581 529.408 119.211C529.479 119.91 529.197 120.679 529.338 121.378C529.549 122.706 530.323 123.965 529.971 125.433C529.69 126.691 529.69 128.02 529.69 129.348C529.69 130.467 530.956 131.305 530.323 132.564C531.097 133.333 531.167 134.242 531.027 135.29C530.886 136.479 530.886 137.598 530.815 138.786C532.363 139.485 530.886 141.373 532.082 142.212C532.223 142.352 532.293 142.701 532.293 142.981C532.434 144.869 531.378 146.896 532.715 148.714C531.238 149.343 532.786 150.042 532.715 150.671C532.645 151.37 532.293 152.349 532.645 152.839C533.419 153.957 533.77 154.796 532.434 155.635C533.63 156.474 532.715 157.942 533.137 158.781C534.122 160.599 533.63 162.417 533.63 164.164C533.63 165.143 533.208 166.122 534.193 167.031C534.474 167.311 534.263 168.149 534.193 168.709C534.122 170.457 533.911 172.204 533.911 173.952C533.911 175.211 533.208 176.539 534.404 177.658C534.615 177.867 534.404 178.497 534.404 178.916C534.404 179.615 534.333 180.384 534.263 181.083L534.052 184.159C533.982 185.348 534.052 186.537 533.77 187.655C533.489 188.774 534.544 189.473 534.474 190.382C534.474 192.549 534.122 194.716 534.122 196.954C534.122 198.771 533.067 200.589 534.544 202.337C534.896 202.756 534.404 203.735 534.544 204.504C534.685 206.462 533.559 208.489 535.037 210.307C534.966 211.635 534.755 212.964 534.826 214.222C534.966 216.459 533.7 218.766 535.248 220.934C535.459 221.213 535.248 221.773 535.248 222.192C535.318 224.429 534.263 226.736 535.67 228.904C535.529 231.351 535.318 233.867 535.178 236.314C535.178 237.573 535.178 238.901 535.178 240.16C536.303 241.068 535.248 242.467 535.74 243.376C536.233 244.354 536.585 245.193 536.303 246.172C536.233 246.522 535.74 246.731 535.459 247.081C537.007 248.619 535.389 250.577 536.092 251.975C537.288 254.562 536.233 257.078 536.444 259.595C536.514 260.714 535.811 261.902 537.007 262.811C537.007 263.65 536.937 264.559 537.007 265.398C537.077 266.936 536.163 268.544 537.499 269.942C537.57 270.012 537.499 270.222 537.499 270.362C537.359 272.25 537.288 274.137 537.148 276.025C538.766 277.703 537.71 279.59 537.64 281.408C537.64 282.666 538.203 283.575 538.344 284.624C538.484 285.603 538.344 286.652 538.273 287.63C539.61 288.679 538.836 290.077 538.836 291.266C538.836 292.804 538.203 294.412 539.399 295.81C539.469 295.95 539.047 296.509 538.907 296.859C538.836 297.069 538.625 297.348 538.695 297.418C539.118 297.838 539.329 298.327 539.258 298.956C539.118 300.564 539.047 302.172 538.907 303.78C538.907 304.899 538.414 306.087 539.61 306.996C539.54 308.185 539.469 309.303 539.399 310.492C540.736 311.54 540.032 312.869 539.962 314.057C538.273 315.525 539.118 317.553 538.907 319.301C540.525 320.349 538.555 322.517 540.173 323.565C540.314 323.635 540.173 324.125 540.173 324.404C540.173 326.012 540.173 327.55 540.103 329.158C541.369 330.557 540.384 332.235 540.454 333.703C540.454 335.171 540.314 336.639 540.243 338.037C540.173 339.645 540.243 341.323 539.891 342.791C539.469 344.399 540.947 345.378 540.595 346.846C540.314 348.105 540.384 349.433 540.314 350.761C541.791 352.09 540.806 353.768 540.876 355.236C540.947 356.774 540.173 358.382 541.51 359.71C541.369 361.458 541.158 363.206 541.228 364.954C541.228 365.793 539.329 366.352 540.947 367.331C540.947 368.31 540.947 369.358 540.806 370.337C540.665 371.246 541.862 371.665 541.58 372.644C541.369 373.483 541.439 374.392 541.369 375.231C541.369 375.371 541.58 375.441 541.65 375.58C542.213 376.489 542.706 377.538 542.917 378.587C543.128 379.565 542.917 380.614 542.776 381.593C542.424 382.921 543.269 383.69 543.902 384.669C544.605 385.788 545.239 387.046 545.028 388.514C544.817 390.682 544.887 390.682 545.59 392.569C546.013 393.618 546.716 394.527 546.294 395.785C545.872 397.044 546.435 398.022 547.349 398.861C547.631 399.141 547.771 399.63 547.771 399.98C547.701 400.679 546.575 400.889 546.786 401.728C546.998 402.357 547.771 402.777 547.56 403.615C547.42 404.175 547.49 404.804 547.983 405.154C548.897 405.783 548.897 406.831 549.39 407.67C549.882 408.37 550.586 408.999 551.078 409.698C551.289 409.978 551.43 410.467 551.43 410.816C551.43 411.376 551.43 411.865 551.852 412.424C552.415 413.054 553.33 413.473 552.978 414.592C553.541 415.221 554.104 415.92 554.737 416.549C555.3 417.109 555.511 417.668 555.44 418.507C555.44 418.856 555.651 419.276 555.792 419.625C556.355 420.604 557.621 421.094 557.762 422.352C557.903 423.471 558.958 423.96 559.521 424.729C559.802 425.149 560.787 427.805 560.928 428.504C560.998 428.854 561.21 429.483 561.421 429.483C562.054 429.483 562.476 429.903 562.828 430.322C563.672 431.301 564.446 432.28 565.712 432.699C566.768 433.049 566.416 434.447 567.19 435.076C567.471 435.356 568.245 435.496 568.245 435.496C567.964 436.474 569.16 436.964 569.089 437.803C569.019 438.502 569.723 438.712 569.863 439.271C569.934 439.69 569.863 440.11 569.863 440.599C569.863 441.298 569.652 441.997 570.356 442.557C570.497 442.697 570.637 443.116 570.497 443.326C570.285 443.815 569.652 444.305 569.793 444.584C569.934 445.074 570.497 445.423 570.356 446.122C570.215 446.682 571.411 446.822 570.848 447.451C570.426 447.87 570.356 448.43 570.074 448.919C569.512 449.828 568.316 450.247 568.034 451.576C567.893 452.205 566.908 451.995 566.486 451.785C565.431 451.366 564.657 450.597 563.391 450.737C562.406 450.876 561.35 450.667 560.295 450.597C559.451 450.597 558.958 451.645 557.973 451.366C557.129 451.156 556.214 451.226 555.37 451.156C554.526 451.086 553.611 450.946 552.767 451.016C550.656 451.156 548.475 449.968 546.435 451.436C546.083 451.715 545.309 451.436 544.676 451.436C541.017 451.226 537.359 451.016 533.7 450.737C532.645 450.667 532.082 451.086 531.449 451.646C531.027 451.995 530.675 452.554 530.182 451.715C529.971 451.366 529.69 450.946 529.338 450.737C528.986 450.527 528.353 450.317 528.212 450.387C527.509 451.156 526.735 451.086 525.82 451.086C524.132 451.086 522.443 450.387 520.825 451.576C520.473 451.855 519.699 451.576 519.136 451.576C516.041 451.366 513.015 451.226 509.92 450.946C509.146 450.946 508.583 451.156 507.95 451.506C507.387 451.855 506.613 451.715 506.12 452.345C505.698 452.065 505.276 451.576 504.784 451.506C503.447 451.296 502.18 451.296 500.844 451.226C499.788 451.156 498.874 451.016 498.029 451.925C497.959 452.065 497.255 451.715 496.904 451.506C496.693 451.366 496.482 451.156 496.341 451.016C495.426 452.205 494.23 451.576 493.104 451.576C491.908 451.576 490.712 451.576 489.587 451.296C488.672 451.086 488.109 451.855 487.335 451.855C486.702 450.667 485.506 450.946 484.591 451.086C483.254 451.296 482.692 449.898 481.496 449.898C480.299 449.898 479.103 449.898 477.978 449.688C477.133 449.548 476.641 450.038 476.078 450.457C474.952 448.43 472.279 450.457 471.083 448.639C471.083 448.639 470.661 448.779 470.45 448.849C469.324 449.408 468.269 449.199 467.143 448.849C466.51 447.521 464.469 448.639 463.906 447.101C462.71 447.031 461.514 447.101 460.389 446.822C459.474 446.542 458.911 448.01 458.278 447.241C457.434 446.332 456.378 446.752 455.393 446.612C454.549 446.472 453.634 446.402 452.79 446.472C451.524 446.542 450.187 445.703 449.061 446.891C448.991 446.961 448.287 446.192 447.795 446.192C445.473 445.983 443.081 445.843 440.759 445.773C440.407 445.773 439.915 445.983 439.633 446.192C438.86 446.752 438.367 446.472 437.804 445.843C437.523 445.493 437.171 445.214 436.96 444.864C436.749 444.584 436.608 444.654 436.327 444.934C435.764 445.563 435.131 445.633 434.497 444.934C433.935 444.235 433.301 444.235 432.668 444.794C432.527 444.934 432.176 445.004 432.035 444.934C431.683 444.654 431.472 444.305 431.12 443.955C430.909 443.745 430.698 443.326 430.557 443.326C429.291 443.606 428.517 442.487 427.462 442.277C426.547 442.067 425.421 441.718 424.577 442.697C424.577 442.767 423.522 442.067 423.451 442.207C422.889 442.767 422.185 442.767 421.481 442.767C420.778 442.767 420.567 442.067 420.145 441.858C419.652 441.648 418.808 441.438 418.456 441.718C416.416 443.326 414.235 441.928 412.124 442.137C411.491 440.879 410.858 441.508 410.295 442.137C409.662 442.906 409.31 442.417 408.677 442.067C408.043 441.648 406.707 442.137 406.144 441.718C405.088 440.809 404.314 440.39 403.259 441.578C403.118 441.718 402.556 441.648 402.415 441.508C400.937 439.76 399.671 440.529 398.404 441.718C397.771 442.347 397.279 442.067 396.575 441.578C395.52 440.879 394.253 440.669 393.057 441.508C392.917 441.578 392.846 441.788 392.706 441.788C392.424 441.788 392.002 441.858 391.861 441.788C391.087 440.949 390.454 440.25 389.399 441.438C389.328 441.508 389.188 441.648 389.047 441.648C387.499 441.788 385.881 440.949 384.333 441.788C382.785 442.697 381.237 441.788 379.69 441.928C378.705 441.928 377.649 441.788 376.594 441.788C375.468 441.788 374.272 441.159 373.358 442.347C371.739 442.347 370.192 442.207 368.573 442.137C367.799 442.137 367.518 442.277 367.448 443.046C367.448 443.885 367.307 444.794 367.307 445.633C367.307 446.472 367.94 446.332 368.503 446.542C368.925 446.682 368.995 447.031 368.503 447.381C367.94 447.73 367.799 448.29 368.151 448.849C368.503 449.338 368.855 449.688 368.714 450.387C368.503 451.576 368.644 452.554 369.629 453.533C370.684 454.582 370.332 456.959 368.995 457.588C367.94 458.077 366.955 458.497 366.111 459.266C365.9 459.476 365.126 459.546 364.985 459.406C363.437 457.728 361.467 458.567 359.638 458.427C359.286 458.427 359.005 459.406 358.372 458.637C357.668 457.728 356.12 458.567 355.417 457.239C354.924 456.33 354.08 455.561 353.025 456.749C352.954 456.819 352.743 456.889 352.743 456.889C351.547 455.351 349.788 456.19 348.311 455.77C347.888 455.63 347.537 455.491 347.185 455.281C345.848 454.582 345.778 454.512 344.511 455.211C343.737 455.631 343.104 455.491 342.401 455.421C342.049 455.421 341.767 454.582 341.486 454.652C340.994 454.652 340.782 455.421 340.079 455.421C339.586 455.421 339.164 455.98 338.672 456.05C338.39 456.05 338.109 455.351 337.757 455.281C336.631 455.141 335.435 455.071 334.239 455.071C333.888 455.071 333.395 455.211 333.114 455.421C331.495 456.33 329.737 456.679 327.837 456.4C326.782 456.26 325.515 455.84 324.6 457.029C324.389 456.819 324.249 456.539 324.038 456.4C323.686 456.26 323.053 455.98 322.912 456.12C322.208 456.889 321.434 456.889 320.52 456.819C318.339 456.679 316.158 456.539 313.906 456.4C313.273 456.4 312.851 456.609 312.358 457.029C311.866 457.448 311.444 458.008 310.529 458.008C309.544 458.008 309.896 459.406 309.122 459.895C308.067 460.664 307.152 461.573 305.675 461.154C305.041 460.944 304.619 461.293 304.127 461.713C303.845 461.923 303.282 461.923 302.931 461.713C302.579 461.573 302.297 460.944 301.946 460.944C300.468 460.734 298.991 460.874 297.584 460.594C296.388 460.385 295.403 459.406 294.066 459.476C292.659 459.476 291.181 459.196 289.774 459.056C289.141 457.728 287.1 458.846 286.538 457.308C286.538 457.169 285.834 457.099 285.693 457.308C284.919 458.287 283.934 458.077 282.879 458.008C281.12 457.868 279.361 457.798 277.602 457.658C276.969 457.658 276.547 457.868 276.054 458.217C275.773 458.427 275.069 458.427 274.929 458.217C274.436 457.658 273.873 457.308 273.1 457.378C272.255 457.378 271.341 457.308 270.496 457.239L245.872 455.7C244.675 455.631 243.55 455.491 242.354 455.491C241.228 455.491 240.032 454.861 239.117 456.05C238.484 455.77 238.203 455.141 237.358 455.141C235.459 455.141 233.559 454.931 231.66 454.792C230.463 454.722 229.338 454.652 228.142 454.582C227.016 454.512 225.75 454.792 225.046 453.533C223.85 455.001 222.302 454.092 220.965 454.092C219.347 454.092 217.729 453.953 216.111 453.813C214.633 453.743 213.156 453.743 211.749 453.533C210.553 453.393 209.919 454.861 208.512 454.302C207.598 453.953 206.542 454.162 205.487 454.162C204.854 455.351 204.08 453.883 203.658 454.162C203.024 454.722 202.391 454.792 201.688 454.652C200.984 454.512 200.773 455.281 200.21 455.351C199.999 455.351 199.647 454.861 199.366 454.582C198.733 455.421 197.888 455.211 197.044 455.281C196.27 455.351 195.707 456.33 194.722 455.98C193.808 455.631 193.386 456.959 192.401 456.749C191.556 456.539 190.642 456.749 189.797 456.539C188.601 456.26 187.616 456.889 186.561 457.169C185.646 457.448 184.591 456.679 183.676 457.588C183.536 457.728 183.184 457.798 182.902 457.798C182.48 457.798 182.058 457.798 181.566 457.728C180.51 457.728 179.525 457.588 178.47 457.518C177.344 457.518 176.148 457.099 175.234 458.217L172.138 458.008C169.675 459.546 167.072 458.357 164.539 458.357C163.484 458.357 162.64 458.707 161.795 459.056C160.67 459.546 159.474 459.965 158.137 459.755C156.871 459.546 155.534 459.546 154.197 459.476C152.368 460.944 150.327 459.895 148.357 459.965C147.161 459.965 145.965 459.965 144.84 459.755C143.573 459.476 142.799 460.664 141.603 460.524C140.477 460.315 139.281 460.385 138.085 460.315C137.382 461.503 136.819 460.594 136.186 460.175C135.975 460.035 135.552 460.105 135.412 460.245C134.849 460.874 134.216 460.944 133.442 460.874C131.401 460.734 129.361 460.594 127.321 460.455C126.476 460.455 125.562 460.245 124.929 461.084C124.788 461.224 124.225 461.224 124.155 461.084C122.959 459.546 121.2 460.245 119.722 459.965C119.089 460.734 118.315 460.804 117.4 460.734C116.697 460.664 116.064 460.594 115.501 459.965C115.219 459.616 114.234 459.406 113.953 459.616C112.335 460.664 110.646 460.245 108.958 460.105C104.877 459.895 100.726 459.546 96.6453 459.336C95.5196 459.336 94.3235 458.707 93.4089 459.895C92.4239 459.895 91.3686 459.895 90.3836 459.825C89.4689 459.825 88.695 459.685 87.9914 460.455C87.8507 460.594 87.2175 460.385 86.8658 460.175C86.514 460.035 86.1622 459.546 85.8104 459.546C79.9708 459.126 74.0609 458.777 68.2213 458.427C67.5177 458.427 67.3066 459.196 66.7438 459.196C65.6181 459.126 64.4924 459.476 63.5074 458.427C63.1556 458.008 62.1003 457.938 61.467 458.077C60.5524 458.357 60.4117 456.679 59.3563 457.448C58.7935 457.938 58.4417 458.427 58.301 459.196C58.301 459.616 57.8789 459.546 57.6678 459.196C57.0346 458.287 56.331 458.217 55.5571 459.056C55.346 459.336 55.1349 459.266 54.9239 458.916C54.15 457.658 53.0946 457.239 51.6171 457.308C51.0543 457.308 51.0543 457.308 51.2653 456.19C51.2653 456.05 51.406 455.98 51.406 455.91C50.9839 454.652 49.5064 454.792 48.8029 453.883C48.5918 453.603 48.4511 453.673 48.1697 453.953C48.0289 454.162 47.7475 454.302 47.4661 454.442C46.5514 454.792 45.4961 454.792 44.7925 455.351C44.0186 456.05 44.4408 457.239 44.3 458.217C44.1593 459.406 43.9482 460.594 44.089 461.713C44.3 463.181 43.104 463.95 42.8226 465.209C42.8226 465.418 41.8376 465.558 41.6968 465.488C41.0636 464.509 40.4304 464.649 39.7269 465.418C38.3901 465.069 36.7719 465.908 35.6462 464.509C35.5055 464.3 35.1537 464.3 34.8723 464.3C34.1687 464.3 33.4651 464.3 32.6912 464.3C31.8469 465.628 31.4248 464.09 30.7212 464.02C30.0177 464.02 29.2437 463.88 28.5402 463.95C28.118 463.95 27.907 464.37 28.3291 464.789C28.5402 464.999 28.8216 465.348 28.7512 465.488C28.2587 466.607 27.6959 467.656 27.4145 468.914C27.4145 469.264 26.7813 469.753 26.4998 469.753C25.3038 469.683 24.6002 471.011 23.3338 470.662C22.3488 470.452 21.2934 470.452 20.2381 470.452C19.816 470.452 19.5345 470.872 19.5345 471.361C19.5345 471.71 19.5345 472.27 18.831 471.85C18.4792 471.641 18.1978 471.221 17.846 471.221C17.1424 471.221 17.0017 470.382 16.5092 470.312C16.2278 470.312 15.876 470.732 15.5242 470.941C14.9614 469.613 13.3432 470.452 12.5692 469.543C12.3582 469.263 11.7953 468.984 11.5139 469.054C10.0364 469.403 9.19212 468.075 7.99606 467.935C7.50357 466.886 5.46323 467.166 5.6743 465.418C5.6743 465.348 5.1818 465.139 4.97073 465.139C4.47824 465.139 4.0561 464.719 4.26717 464.3C4.90037 462.971 3.35253 462.272 3.5636 461.084C3.70431 460.105 3.70431 459.056 3.77467 458.008L4.47824 457.938ZM496.763 29.0931C496.904 27.0656 497.044 25.0381 497.115 23.0107C497.115 22.8708 496.763 22.6611 496.622 22.5213C495.708 23.7098 494.441 22.8708 493.386 23.1505C492.753 23.2903 492.26 23.9894 491.768 24.4089C492.119 26.0868 490.22 27.0656 490.572 28.8134C490.712 29.6524 490.572 30.5612 490.431 31.4002C490.36 32.5188 488.953 33.148 489.305 34.4763C489.375 34.756 488.602 35.3153 488.179 35.6649C487.757 36.0843 487.054 36.364 486.913 36.8534C486.421 38.6012 484.028 39.3003 484.521 41.5375C484.521 41.8871 484.31 42.3066 484.028 42.5862C483.395 43.2154 482.692 43.7048 482.058 44.334C481.566 44.8234 480.862 45.0332 480.722 45.942C480.511 47.3403 479.315 46.3615 478.611 46.6412C478.259 46.781 477.907 47.1306 477.556 47.4102C476.782 48.1093 476.008 48.8085 475.234 49.4377C474.952 49.6474 474.46 49.8572 474.108 49.8572C473.123 49.9271 472.068 49.3678 471.294 50.4165C470.309 50.4165 469.254 50.4165 468.269 50.3465C467.565 50.3465 467.213 50.6961 466.791 51.0457C466.439 51.3253 466.087 51.8846 465.806 51.8846C464.117 51.605 463.695 53.9121 462.077 53.5625C460.951 54.5413 459.896 55.5201 458.77 56.4289C457.434 57.6175 456.097 58.7361 454.83 59.9246C452.72 60.1343 451.875 62.0919 450.328 63.0706C449.694 63.4901 448.428 63.0706 448.709 64.4689C448.006 64.8185 447.302 65.4477 446.528 65.5176C445.543 65.6574 444.91 65.8672 444.91 66.9858C442.94 69.0132 440.267 70.4115 438.93 73.0682C436.749 72.7885 436.89 75.0956 435.693 75.9346C435.201 77.5426 434.146 78.4514 432.457 78.9408C431.754 79.1506 430.909 79.7099 430.839 80.7586C430.839 81.178 430.417 81.4577 429.924 81.3878C429.221 81.3179 428.447 81.248 427.743 81.248C426.547 81.248 425.492 81.8772 425.562 83.2055C425.562 84.394 424.014 84.6737 424.436 85.8622C423.451 86.4215 422.959 87.7498 421.693 87.8197C420.848 87.8197 420.708 88.2392 420.708 88.8684C420.708 89.6375 420.426 90.1968 419.793 90.6862C419.3 91.1056 418.808 91.1756 418.175 91.1057C417.893 91.1057 417.612 91.1057 417.33 91.1057C416.908 91.2455 416.908 91.4552 417.19 91.7349C417.823 92.2243 417.542 92.434 417.19 92.9933C416.064 94.3915 416.134 94.4615 415.149 94.3915C414.586 94.3915 413.953 94.3216 413.39 94.3216C413.109 94.3216 412.828 94.3216 412.617 94.5314C411.28 95.65 409.943 96.8385 408.677 98.027C408.536 98.1668 408.536 98.6562 408.677 98.866C408.888 99.3554 409.521 99.635 409.45 100.334C409.31 101.523 408.254 100.754 407.762 101.243C407.34 101.732 406.566 102.012 406.566 102.921C406.566 103.34 406.144 103.55 405.581 103.48C405.018 103.41 404.385 103.27 403.822 103.41C402.907 103.55 402.274 104.109 401.993 105.018C401.219 107.465 400.797 108.164 399.601 109.213C399.178 109.633 398.756 110.052 398.264 110.332C397.701 110.681 396.997 110.891 396.435 111.171C395.942 113.338 393.691 113.967 392.424 115.505C391.791 116.274 390.595 116.554 390.595 117.812C390.595 117.952 389.891 118.302 389.54 118.232C388.484 118.022 387.64 118.442 387.288 119.211C386.866 120.189 386.022 120.958 385.811 122.147C385.6 123.545 384.896 123.965 383.489 124.035C383.067 124.035 382.363 124.244 382.363 124.314C382.434 125.782 381.097 125.573 380.393 125.992C379.971 126.272 379.338 126.272 378.845 126.551C378.071 127.041 378.564 127.88 378.423 128.579C378.423 128.859 378.423 129.348 378.353 129.418C376.875 130.327 376.453 132.284 374.976 133.193C373.85 132.844 373.498 133.962 372.795 134.312C371.95 134.731 371.95 135.78 371.388 136.339C370.684 137.108 369.84 137.668 369.136 138.367C368.995 138.506 369.066 138.926 368.925 139.136C368.573 139.555 368.222 140.045 367.729 140.324C367.307 140.604 366.322 140.604 366.252 140.883C366.111 141.653 365.337 142.072 365.196 142.631C364.985 144.03 364.704 143.96 363.789 143.051C363.297 142.561 361.608 143.54 361.678 144.309C361.678 144.729 362.523 145.148 361.678 145.568C360.693 146.057 360.623 147.176 359.919 147.875C359.286 148.504 359.427 149.133 359.286 149.832C359.286 150.112 358.934 150.531 358.864 150.462C357.316 150.112 356.894 151.93 355.557 152.139C354.291 152.349 353.306 153.328 352.813 154.586C352.673 155.076 352.462 155.355 351.969 155.355C350.984 155.355 349.858 155.006 349.929 156.614C348.17 157.802 347.044 159.9 344.722 160.319C343.808 161.228 342.541 161.787 342.33 163.186C341.416 163.535 341.697 164.724 340.994 165.213C340.571 165.563 340.36 165.633 339.446 165.213C338.601 164.794 338.109 165.003 337.968 165.912C337.898 166.332 337.968 166.821 337.828 167.171C337.476 167.8 336.772 167.52 336.209 167.45C335.717 167.45 335.365 167.52 335.224 168.01C335.084 168.429 335.084 168.919 335.154 169.338C335.576 171.296 334.099 172.134 332.903 173.183C331.777 173.183 331.003 174.372 329.807 174.092C328.822 173.882 328.54 174.442 328.611 175.35C327.696 175.7 327.837 176.819 327.204 177.378C326.782 177.728 326.5 178.427 325.797 178.217C324.46 177.937 323.545 178.497 323.053 179.685C322.49 180.943 321.434 181.643 320.379 182.272C319.324 181.852 318.55 182.831 317.635 182.901C316.932 182.971 316.509 183.251 316.65 183.95C316.861 185.348 315.736 186.257 315.595 187.445C315.454 188.494 315.032 189.263 314.258 189.473C312.921 189.822 312.077 190.731 311.092 191.5C309.755 192.549 308.77 194.227 306.66 193.738C306.589 193.738 306.237 194.157 306.237 194.367C306.237 194.856 306.026 195.276 305.534 195.276C304.549 195.276 304.267 195.625 304.267 196.534C304.267 197.093 304.267 197.862 303.494 197.792C302.579 197.792 302.227 198.422 301.664 198.771C300.75 199.4 300.187 200.239 300.398 201.288C300.679 202.477 299.202 202.826 299.272 203.945C299.272 204.085 298.92 204.504 298.709 204.504C296.88 204.504 296.247 206.392 294.91 207.161C294.629 208.699 293.362 209.538 292.166 210.307C290.97 211.076 290.97 212.614 289.915 213.313C289.915 214.222 289.563 214.641 288.648 214.502C288.508 214.502 288.156 214.781 288.085 214.991C287.734 215.76 287.171 216.529 285.975 217.508C285.201 218.137 284.216 218.696 283.723 219.535C283.16 220.514 282.598 221.493 281.613 222.122C280.698 222.751 280.346 223.59 280.346 224.709C280.346 225.128 279.924 225.408 279.432 225.268C278.939 225.198 278.728 225.478 278.517 225.967C278.376 226.317 278.024 226.946 277.884 226.876C276.055 226.457 275.632 227.296 275.562 228.904C275.562 229.393 274.507 229.812 274.577 230.651C274.577 230.721 274.155 231.001 273.873 231.001C273.17 231.001 272.748 231.141 272.748 231.91C272.888 233.728 271.27 234.147 270.285 235.126C270.215 234.986 270.145 234.846 270.004 234.776C268.737 234.217 267.705 234.52 266.908 235.685C266.908 235.685 266.345 236.384 266.275 236.734C266.134 237.573 265.642 237.503 265.008 237.503C263.531 237.503 263.531 237.573 263.461 238.831C263.39 239.67 263.601 240.789 263.109 241.348C262.546 241.977 261.42 242.117 260.576 242.467C260.295 242.537 259.802 242.676 259.872 242.746C260.013 243.865 258.606 244.214 258.606 245.333C258.606 246.382 258.536 247.361 258.465 248.409C258.465 248.899 256.847 250.646 256.355 250.996C255.792 251.415 255.299 251.905 254.736 252.324C255.018 253.793 253.54 253.163 253.048 253.723C252.485 254.492 253.189 255.82 251.922 256.309C252.344 256.869 252.766 257.358 253.118 257.917C253.329 258.267 253.329 258.686 253.4 259.106L254.455 262.182C255.159 263.091 256.003 263.93 256.566 264.909C257.058 265.818 257.199 267.076 257.902 267.845C258.817 268.824 259.028 269.733 258.958 270.991C258.958 271.131 259.38 271.411 259.591 271.411C260.084 271.411 260.646 271.69 260.506 272.04C260.013 273.438 261.35 274.347 261.35 275.605C262.265 276.235 261.702 277.213 261.983 277.982C262.265 278.751 263.039 279.311 263.531 280.01C263.531 280.08 263.531 280.289 263.531 280.429C263.109 281.828 264.305 282.736 264.586 283.925C264.868 284.974 265.501 285.882 266.205 286.791C266.908 287.7 267.26 288.959 267.682 290.147C267.893 290.637 268.245 291.056 268.175 291.685C267.752 293.922 269.3 295.6 270.074 297.418C270.637 298.746 272.537 299.515 271.974 301.473C271.974 301.613 272.255 301.962 272.466 302.102C273.24 302.801 273.803 303.64 273.451 304.759C273.029 306.227 273.592 307.625 274.296 308.744C275.21 310.142 275.21 311.96 276.406 313.148C276.195 314.407 277.743 315.386 277.11 316.784C276.828 317.343 277.462 317.833 277.602 318.322C277.954 319.51 278.728 320.489 279.009 321.678C279.221 322.726 280.206 323.565 280.135 324.684C281.05 325.313 280.979 326.432 281.402 327.271C281.894 328.25 282.387 329.228 283.161 330.067C283.231 330.137 283.301 330.347 283.301 330.417C282.949 331.466 283.934 332.305 283.934 333.143C283.934 334.262 284.568 334.961 284.708 335.87C285.06 337.618 285.623 339.016 286.538 340.344C286.749 340.694 287.1 341.183 286.96 341.463C286.467 342.582 287.945 343.211 287.663 344.26C287.312 345.518 288.648 346.217 288.578 347.406C289.774 348.035 288.578 349.433 289.352 350.132C289.985 350.761 289.774 351.461 289.844 352.09C289.915 352.719 290.548 353.348 290.548 353.977C290.478 354.956 290.829 355.655 291.463 356.285C291.885 356.704 292.025 357.193 292.236 357.753C292.518 358.801 293.503 359.64 293.644 360.689C293.855 361.947 295.121 362.926 294.418 364.255C295.403 365.863 296.106 367.61 296.739 369.428C296.95 370.057 297.654 370.547 298.006 371.106C298.217 371.456 298.287 371.875 298.287 372.295C298.287 372.924 298.287 373.413 298.78 373.833C299.483 374.602 298.357 375.86 299.554 376.559C299.694 376.629 299.765 377.049 299.765 377.328C299.554 379.076 299.342 380.824 301.101 382.012C300.75 383.341 301.805 384.389 301.875 385.578C301.875 386.277 301.664 387.046 301.805 387.745C301.875 388.375 302.509 389.004 302.509 389.633C302.509 390.542 302.72 391.241 303.212 392.01C303.564 392.639 302.86 393.758 303.775 394.387C303.775 395.645 304.267 396.764 304.619 397.953C304.76 398.442 304.408 399.281 305.041 399.491C305.675 399.63 306.519 399.98 307.082 399.351C307.504 398.861 308.067 398.931 308.63 398.861C310.459 398.792 312.358 399.77 314.047 398.372C315.595 398.232 317.213 399.071 318.761 398.232C320.309 397.393 321.857 398.092 323.404 398.092C325.304 398.092 327.204 398.302 329.103 398.442C329.525 398.442 330.088 398.722 330.37 398.442C332.551 396.904 334.873 398.232 337.124 398.022C337.828 398.022 338.601 398.092 339.305 398.162L341.486 398.302C342.33 398.302 343.315 398.302 344.089 398.512C344.934 398.791 345.215 397.323 345.848 398.022C346.411 398.652 347.115 398.652 347.818 398.722C348.522 398.722 349.225 398.861 349.788 398.232C349.999 398.022 350.773 397.953 350.914 398.162C351.688 399.211 352.462 399.351 353.376 398.372C353.517 398.232 354.08 398.162 354.15 398.302C355.698 399.91 357.668 399.211 359.497 399.491C360.342 399.63 361.256 399.63 362.101 399.7C363.719 401.448 365.9 400.609 367.87 400.889C368.995 401.099 370.191 401.029 371.388 401.168C371.739 401.168 372.162 401.518 372.373 401.798C372.654 402.077 372.724 402.147 373.006 401.798C373.147 401.588 373.428 401.378 373.709 401.308C374.554 401.099 374.905 401.938 375.468 402.287C376.313 402.776 376.735 400.959 377.579 402.007C377.86 402.357 377.931 402.427 378.212 402.147C379.056 401.238 380.041 401.378 380.886 402.007C381.378 402.357 381.8 402.637 382.363 402.637C382.926 402.637 383.77 402.497 384.052 402.846C384.685 403.615 385.459 403.825 386.374 403.755C387.359 403.755 388.414 404.315 389.188 403.196C390.665 402.986 392.072 402.916 392.987 404.315C393.339 404.804 393.761 405.084 394.394 405.084C395.59 405.084 396.786 405.433 397.912 405.223C399.389 404.944 400.163 406.412 401.43 406.412C401.922 407.321 402.696 407.461 403.681 407.461C404.807 407.461 406.003 407.81 406.918 406.831C406.988 406.692 407.621 406.831 407.692 406.971C408.254 407.88 409.099 407.81 410.013 407.88C411.632 407.95 413.25 408.09 414.868 408.16C415.712 408.16 416.486 408.3 417.19 408.999C417.682 409.488 418.738 409.488 419.582 408.859C420.356 408.3 420.426 408.439 421.059 408.859C421.411 409.069 421.552 409.558 422.115 409.558C423.522 409.418 424.929 410.257 426.266 408.999C426.547 408.719 427.602 408.859 427.884 409.139C429.15 410.607 430.839 409.978 432.316 410.117C433.231 408.929 434.427 409.628 435.553 409.558C437.523 409.488 439.493 410.257 441.392 409.069C442.166 408.649 443.292 409.558 444.277 408.719C445.262 407.88 446.528 408.719 447.654 408.579C447.936 408.579 448.217 408.509 448.428 408.37C449.343 407.81 450.468 407.181 451.453 407.181C452.86 407.181 453.494 406.272 454.408 405.643C454.619 405.503 454.971 405.503 455.253 405.573C456.449 405.992 457.223 404.315 458.489 404.874C459.544 404.315 460.881 404.175 461.796 403.336C462.71 403.546 463.203 403.266 463.203 402.287C463.203 402.077 463.625 401.728 463.766 401.728C465.032 402.287 465.876 401.169 467.002 401.029C467.495 401.029 467.776 400.749 467.776 400.19C467.776 399.63 467.846 399.001 467.846 398.442C467.846 397.883 468.128 397.673 468.62 397.603C469.254 397.533 469.605 397.813 469.605 398.582C469.605 398.722 469.605 398.861 469.605 399.001C469.676 399.421 469.816 399.77 469.887 400.19C470.098 400.05 470.309 399.91 470.52 399.77C470.872 399.491 471.153 399.211 471.505 398.931C471.997 398.512 472.279 398.512 472.982 399.071C473.475 399.491 474.038 399.91 474.46 399.561C475.656 398.512 477.345 398.652 478.541 397.673C479.314 397.114 479.807 397.323 480.37 397.953C480.511 398.162 480.862 398.302 481.073 398.302C481.988 398.302 482.762 398.512 483.255 399.351C483.606 399.98 484.31 400.19 485.013 400.469C485.647 400.749 485.084 401.798 485.858 402.287C486.35 402.567 486.632 403.126 487.265 403.126C487.476 403.126 487.828 403.546 487.828 403.685C487.124 405.084 488.813 405.992 488.531 407.321C488.391 408.02 488.883 408.37 489.164 408.859C489.446 409.348 488.109 409.418 488.602 410.047C489.305 410.886 489.094 412.634 491.064 412.215C492.19 412.005 493.386 412.355 494.582 412.355C494.793 412.355 495.215 412.075 495.215 411.935C495.215 410.816 495.848 409.698 494.863 408.649C494.652 408.439 494.652 407.6 494.793 407.531C496.059 406.762 495.708 405.433 495.708 404.384C495.708 402.986 496.059 401.868 497.326 401.099C498.381 400.469 496.411 400.12 497.185 399.561C498.17 398.861 498.1 397.883 497.607 396.904C497.467 396.624 497.115 396.414 497.115 396.205C497.466 394.597 496.622 392.709 498.1 391.311C498.24 389.773 498.311 388.165 498.452 386.627C497.396 385.858 497.889 384.809 497.889 383.83C497.889 382.222 498.1 380.614 498.17 379.006C498.17 378.587 498.24 378.027 498.029 377.818C496.974 376.839 497.678 375.65 497.607 374.532C496.411 373.483 496.904 372.155 496.974 370.896C496.974 369.568 496.974 368.24 497.255 366.981C497.537 365.723 496.27 364.954 496.482 363.765C496.693 362.507 496.693 361.178 496.763 359.85C496.763 359.71 496.763 359.501 496.763 359.431C495.426 358.242 496.27 356.704 496.2 355.376C496.2 354.187 496.2 352.999 496.411 351.88C496.693 350.552 495.989 349.433 495.778 348.245C495.637 347.685 495.778 347.126 496.27 346.707C496.411 346.637 496.552 346.147 496.552 346.147C495.637 345.518 495.989 344.539 496.059 343.77C496.27 340.275 496.482 336.779 496.693 333.283C496.693 332.724 497.044 331.885 496.693 331.605C495.919 330.766 495.919 329.858 496.059 328.809C496.2 327.83 496.2 326.781 496.27 325.733C496.552 321.188 496.904 316.714 497.115 312.17C497.115 310.911 497.748 309.583 496.482 308.534C496.341 308.464 496.622 307.695 496.904 307.486C497.678 306.786 497.818 305.738 497.396 305.178C496.763 304.339 496.763 303.64 496.833 302.801C497.044 299.865 497.185 296.999 497.396 294.062C497.396 293.503 497.748 292.734 497.396 292.314C495.919 290.147 497.044 287.84 497.044 285.603C497.044 283.016 497.326 280.359 497.537 277.773C497.537 277.353 497.818 276.724 497.537 276.514C496.059 274.627 497.185 272.599 497.044 270.711C497.044 269.872 497.044 268.964 497.185 268.125C497.326 267.216 497.185 266.447 496.482 265.748C496.341 265.608 496.341 264.909 496.833 264.629C497.115 264.419 497.678 264.21 497.115 263.72C496.482 263.161 496.411 262.532 497.115 261.902C497.255 261.763 497.466 261.343 497.466 261.343C496.411 260.574 496.974 259.455 496.974 258.547C496.974 256.939 497.185 255.331 497.255 253.723C495.778 251.905 496.904 249.877 496.763 247.92C496.763 247.221 497.185 246.172 496.763 245.822C495.989 244.914 495.989 244.005 496.13 243.026C496.2 241.977 496.27 240.999 496.341 239.95C496.341 239.251 496.763 238.202 496.341 237.852C494.934 236.244 496.059 234.497 495.848 232.889C495.778 232.189 496.2 231.141 495.848 230.791C494.723 229.603 495.356 228.344 495.356 227.086C495.356 225.478 495.497 223.87 495.637 222.262C495.708 221.493 495.637 220.864 495.004 220.304C494.863 220.165 494.793 219.675 494.934 219.535C495.285 218.906 496.059 218.557 495.145 217.578C494.512 216.879 495.637 215.48 494.723 214.362C493.949 213.383 494.723 212.125 494.652 211.006C494.652 210.586 494.863 209.957 494.652 209.748C493.878 209.048 493.808 208.279 493.949 207.37C494.089 206.462 493.667 205.273 494.793 204.644C494.582 204.015 494.23 203.455 494.23 202.826C494.23 201.638 494.371 200.519 494.441 199.331C492.893 197.373 494.16 195.136 493.949 193.108C493.949 192.549 494.3 191.78 493.949 191.36C492.542 189.473 493.597 187.445 493.527 185.488C493.527 183.88 493.667 182.272 493.808 180.664C493.878 179.615 494.019 178.706 493.104 177.867C492.964 177.797 493.316 177.098 493.527 176.749C493.738 176.469 494.23 176.259 493.738 175.84C492.893 175.141 493.527 174.232 493.386 173.393C493.315 172.694 494.019 172.414 494.16 171.995C494.3 171.645 493.667 171.086 493.597 170.596C493.315 168.988 494.582 167.171 493.034 165.633C493.175 163.745 493.245 161.857 493.386 159.97C493.527 158.222 493.597 156.474 493.738 154.726L494.512 143.33C494.582 142.142 494.512 140.953 494.793 139.835C495.074 138.646 494.019 138.017 494.019 137.038C494.019 136.339 494.019 135.64 494.793 135.151C495.356 134.731 493.738 134.312 494.723 133.613C495.708 132.913 495.074 131.725 495.356 130.746C494.089 129.418 494.723 127.74 494.793 126.272C494.934 122.916 495.145 119.56 495.426 116.204C495.426 115.295 495.426 114.526 494.723 113.827C494.582 113.687 494.582 112.988 495.074 112.709C495.356 112.499 495.989 112.289 495.356 111.8C494.793 111.38 494.863 110.821 494.934 110.262C495.285 104.739 495.637 99.2155 495.989 93.6924C495.989 92.8535 496.27 92.0145 495.426 91.3154C495.004 90.8959 495.285 90.2667 495.778 89.8472C496.341 89.4277 496.482 88.8684 496.059 88.379C495.708 87.8897 495.426 87.4702 495.497 86.841C495.637 85.3728 495.708 83.9046 495.778 82.5064C495.848 80.8984 496.059 79.2904 496.059 77.6824C496.059 76.2841 496.763 74.6762 496.059 73.4177C495.074 71.8097 495.919 70.3416 495.848 68.8035C495.778 67.3353 495.989 65.8671 496.059 64.4689C496.13 63.1405 496.27 61.8821 496.27 60.5538C496.27 59.2954 496.833 58.0369 495.708 56.9882C497.044 56.359 495.989 55.7298 495.708 55.0307C495.708 54.8909 495.708 54.6811 495.708 54.6112C497.044 53.5625 496.693 52.0244 496.833 50.6262C496.833 49.9271 496.833 49.158 496.974 48.4589C497.255 47.4102 496.2 46.9907 496.2 46.1518C496.2 45.4526 496.2 44.6836 496.341 43.9845C496.411 43.3553 496.27 42.9358 495.848 42.4464C495.215 41.6774 496.693 41.6075 496.552 40.7685C496.411 39.7897 496.833 38.6711 496.552 37.7622C496.341 37.0631 495.919 36.7835 496.552 36.1543C496.833 35.8746 495.708 35.2454 495.919 34.4064C496.13 33.7073 496.059 32.9383 496.059 32.2391L496.2 30.0718V29.2329L496.763 29.0931ZM59.4971 397.883C59.3563 399.63 59.286 401.378 59.1453 403.126C59.1453 404.105 59.7785 405.154 60.7635 405.293C61.6781 405.363 62.452 405.503 62.9445 406.412C63.3667 407.041 63.9295 407.531 64.7034 407.321C65.6181 407.181 65.8291 408.3 66.4624 408.23C67.0956 408.23 67.7288 407.67 68.362 407.531C69.0655 407.461 69.9098 407.391 70.543 407.67C71.2466 408.09 71.8094 408.859 72.7944 408.649C73.9905 408.37 74.483 409.628 75.468 409.698C76.453 409.698 77.1565 410.047 77.649 410.816C78.0712 411.446 78.634 411.795 79.4783 411.795C80.3226 411.795 81.2372 411.865 82.0815 411.935C82.9258 412.005 83.8404 412.005 84.6847 412.075C85.529 412.075 86.3029 412.145 87.0065 412.844C87.499 413.333 88.6247 413.124 89.4689 413.263C89.68 413.263 89.9614 413.543 90.1021 413.753C90.8761 414.662 92.4943 413.753 93.0571 415.151C94.0421 415.431 95.2382 414.941 95.9417 415.71C96.9267 416.759 98.1228 416.27 99.1781 416.479C99.8113 416.549 100.304 416.689 100.656 417.248C101.711 419.066 103.329 419.765 105.44 419.556C106.284 419.556 107.058 419.556 107.832 418.926C108.887 418.087 109.239 420.115 110.435 419.835C110.998 419.695 111.561 419.835 111.983 419.276C112.264 418.926 112.405 418.926 112.616 419.276C112.827 419.556 113.038 420.115 113.531 419.556C114.305 418.507 115.853 419.835 116.697 418.577C116.838 418.297 117.752 418.507 118.315 418.577C118.878 418.577 119.511 418.577 120.074 418.717C121.481 418.996 122.607 418.577 123.522 417.528C124.084 416.899 124.155 417.668 124.436 417.808C124.577 417.808 124.647 418.017 124.718 418.087C125.703 416.759 127.18 417.318 128.376 417.528C129.994 417.808 131.261 416.34 132.879 416.759C134.427 415.571 136.115 415.151 138.015 415.431C138.789 414.662 139.774 414.522 140.759 414.732C141.392 413.263 142.94 414.452 143.855 413.753C144.136 413.543 144.347 413.054 144.84 413.613C145.051 413.893 145.543 414.172 145.895 414.172C146.88 414.172 147.935 414.662 148.709 413.613C149.835 413.613 151.031 413.613 152.157 413.753C152.931 413.823 153.564 413.613 154.056 413.054C154.76 412.355 155.745 411.865 155.745 410.747C157.011 409.628 157.152 407.74 158.489 406.692C158.77 406.412 158.418 405.573 157.855 405.363C157.715 405.363 157.574 405.363 157.433 405.363C156.941 405.084 156.659 404.315 156.941 403.965C157.222 403.615 157.574 403.336 157.926 403.126C158.7 402.637 158.7 402.147 157.996 401.518C157.855 401.378 157.855 400.819 157.996 400.749C159.403 399.7 158.629 397.323 160.599 396.624C161.655 396.275 161.584 395.016 162.358 394.317C163.132 393.618 162.851 392.709 162.921 391.87C163.062 391.031 163.132 390.332 163.765 389.563C164.258 389.074 164.258 387.815 164.047 387.046C163.836 386.277 163.132 385.788 164.258 385.089C165.243 384.529 165.735 383.69 164.61 382.712C164.399 382.502 164.399 381.733 164.61 381.593C165.524 381.034 165.384 380.125 165.524 379.286C165.946 376.839 165.102 374.112 166.791 371.805C167.143 371.316 167.072 370.337 166.932 369.638C166.791 368.589 167.916 368.24 167.987 367.401C168.057 366.352 168.128 365.373 168.198 364.325C168.198 363.486 168.479 362.507 168.339 361.738C168.057 360.479 169.605 360.34 169.535 359.081C169.394 357.333 169.746 355.585 169.816 353.838C169.816 353.208 170.098 352.789 170.52 352.369C171.083 351.81 169.746 351.461 170.168 351.181C171.364 350.342 170.942 349.084 171.083 348.035C171.223 347.056 171.223 346.007 171.505 345.099C172.49 341.952 172.701 341.393 172.208 339.855C172.068 339.366 171.505 339.016 172.208 338.597C172.49 338.457 172.63 338.177 172.912 338.037C173.686 337.548 173.193 337.268 172.912 336.779C172.701 336.499 172.771 335.73 172.912 335.66C174.108 335.101 173.334 333.633 174.038 333.074C175.163 332.165 174.671 330.976 174.882 329.858C175.163 328.669 174.46 327.201 175.937 326.362C176.007 324.894 176.148 323.496 176.219 322.027C177.766 321.049 177.133 319.441 177.344 318.042C177.555 316.924 177.274 315.735 178.47 314.966C178.259 313.218 180.159 311.96 179.666 310.142C179.455 309.373 180.159 308.884 180.44 308.255C180.862 307.206 180.581 305.947 180.932 304.899C181.284 303.92 182.199 303.081 182.762 302.172C182.902 301.962 182.902 301.613 182.832 301.333C182.34 299.725 184.31 298.886 184.028 297.348C184.028 297.138 184.239 296.859 184.38 296.649C184.872 296.02 186.068 295.74 185.857 294.691C185.646 293.503 187.124 293.083 186.913 292.035C186.702 290.986 187.968 290.567 187.898 289.867C187.827 288.679 188.601 288.05 189.023 287.211C189.938 285.393 189.938 285.393 190.149 283.715C190.149 283.156 189.938 282.457 190.571 282.177C191.978 281.478 191.978 279.73 193.245 278.961C193.737 278.681 194.089 278.192 194.019 277.563C194.019 276.934 194.3 276.584 194.652 276.025C195.918 273.788 197.114 271.48 198.592 269.383C199.225 268.474 198.592 267.006 199.999 266.447C200.069 266.447 200.069 266.167 200.069 266.027C200.069 265.468 200.21 264.769 199.858 264.419C199.155 263.65 199.436 262.462 198.522 261.832C198.099 261.553 197.537 261.063 197.748 260.434C198.029 259.455 197.537 258.686 196.833 258.197C196.059 257.638 196.341 256.589 195.778 255.96C195.285 255.47 194.511 255.121 194.582 254.212C194.652 253.303 193.737 252.884 193.737 251.905C193.737 251.066 193.034 250.087 192.401 249.458C191.556 248.619 191.767 247.221 190.712 246.591C189.727 245.962 189.797 244.844 189.375 244.005C188.883 242.956 188.39 242.047 187.616 241.208C187.546 241.138 187.476 240.929 187.476 240.859C187.968 239.251 186.772 238.482 185.928 237.503C185.435 236.944 185.083 236.454 185.013 235.615C185.013 235.056 184.098 234.567 183.676 233.937C183.536 233.728 183.465 233.378 183.536 233.168C183.817 232.189 183.254 231.49 182.621 230.931C181.636 230.092 181.284 228.834 180.651 227.785C180.229 227.086 180.792 226.317 180.44 225.688C179.877 224.709 178.751 224.15 178.751 222.821C178.751 222.681 178.54 222.472 178.47 222.542C177.133 222.751 177.485 221.493 176.992 221.003C176.359 220.304 176.57 219.395 176.007 218.766C175.234 217.787 173.826 217.158 173.967 215.62C173.123 214.711 172.419 213.663 171.927 212.474C171.505 211.356 169.816 210.866 169.957 209.258C168.972 208.14 167.846 207.161 167.072 205.972C166.369 204.854 166.228 203.316 164.469 203.106C164.328 203.106 164.258 202.616 164.258 202.337C164.188 201.777 164.539 201.218 164.047 200.729C163.554 200.239 163.132 199.54 162.569 199.121C161.795 198.561 162.147 197.513 161.514 196.884C160.67 196.045 160.037 194.996 159.122 194.297C157.996 193.458 158.137 191.99 157.152 191.081C156.097 190.172 155.534 188.634 153.986 188.354C153.845 188.354 153.775 187.865 153.775 187.585C153.775 187.166 153.986 186.537 153.775 186.327C152.508 185.278 152.368 183.6 151.242 182.482C150.538 181.713 149.976 180.874 149.202 180.244C148.287 179.475 148.357 178.147 147.513 177.378C147.021 176.889 146.669 176.399 146.458 175.56C146.317 175.001 145.262 174.581 144.628 174.162C143.362 173.323 143.362 171.715 142.377 170.596C141.744 169.897 141.251 168.988 140.97 168.08C140.759 167.38 140.618 166.821 140.126 166.192C139.422 165.353 138.226 164.794 138.437 163.395C137.734 162.626 136.96 161.927 136.397 161.088C135.904 160.319 135.341 159.34 135.341 158.502C135.341 156.963 133.442 157.872 133.301 156.684C133.301 156.474 132.879 156.264 132.809 155.985C132.457 153.957 131.261 152.419 129.924 150.951C129.713 150.671 129.854 150.112 129.643 149.762C129.291 149.203 129.009 148.574 128.798 147.945C128.446 146.966 127.11 146.407 127.18 145.078C127.18 144.938 126.969 144.869 126.899 144.729C125.984 143.68 125.14 142.631 124.507 141.303C123.944 140.045 122.607 139.136 121.692 137.947C119.863 135.57 117.4 133.752 116.134 130.886C115.712 129.907 114.727 129.278 113.601 128.719C112.687 128.299 111.702 127.74 110.787 127.111C109.802 126.412 108.958 125.712 108.043 124.524C107.621 123.965 107.269 123.335 106.425 123.265C105.932 123.265 105.51 122.636 105.158 122.147C104.877 121.727 104.947 120.958 104.596 120.679C104.244 120.329 103.611 120.399 103.188 119.91C102.203 118.721 101.359 117.253 99.3892 117.463C99.2485 116.973 99.1781 116.204 98.8264 115.995C97.9117 115.365 96.7157 115.226 96.0121 114.457C95.0975 113.548 94.1125 112.709 93.0571 112.219C92.0018 111.73 91.1575 111.031 90.4539 110.192C90.4539 110.192 89.9614 110.262 89.8207 110.402C89.3986 110.821 88.9061 110.611 88.9764 110.262C89.3282 108.584 88.695 107.815 86.9361 108.025C86.514 107.465 85.74 106.976 85.6697 106.417C85.5993 105.578 85.1068 104.878 84.6143 104.669C82.9258 104.179 82.0815 102.781 81.1669 101.593C80.393 100.614 79.1265 100.684 78.423 99.635C78.1415 99.2155 77.1565 99.7748 77.1565 100.264C77.1565 101.383 76.5937 102.571 77.7898 103.48C77.7898 104.669 77.7898 105.787 77.5787 106.976C77.3676 108.164 78.634 108.933 78.3526 110.192C78.0712 111.59 78.1415 113.058 78.0008 114.526C78.0008 115.365 78.0008 116.274 77.7898 117.113C77.649 118.022 78.1415 118.651 78.4933 119.49C78.9155 120.399 78.2822 121.308 77.649 122.077C78.0712 122.496 78.423 122.916 78.3526 123.545C78.2119 124.734 78.2119 125.852 78.1415 127.041L77.8601 130.956L77.649 134.452C77.5787 135.64 77.438 136.759 77.438 137.947C77.438 139.206 76.664 140.604 77.7194 141.653C79.0562 143.121 76.5233 143.4 76.9455 144.659C77.0862 145.148 76.9455 145.777 77.5083 146.197C77.8601 146.477 77.7897 146.546 77.5083 146.826C77.2269 147.036 76.9455 147.455 76.8751 147.875C76.664 149.902 76.5937 151.93 76.453 153.957C76.453 154.656 76.5937 155.705 76.1716 156.055C74.6237 157.523 75.468 159.34 75.1162 160.948C75.0458 161.368 75.7494 162.207 75.6791 162.277C74.5534 162.976 74.9755 164.095 74.8348 165.073C74.6941 166.262 74.6941 167.38 74.6237 168.569C74.5534 169.897 74.3423 171.226 74.4127 172.484C74.483 173.742 73.6387 174.581 73.3573 175.56C73.0055 176.819 73.1462 178.147 73.0759 179.475C73.0055 180.804 72.7241 182.132 72.8648 183.39C73.0055 184.789 71.5984 185.488 71.6687 186.886C71.6687 188.214 71.9502 189.753 70.6134 190.871C70.4727 191.011 70.6134 191.71 70.8948 191.99C71.5984 192.759 71.528 193.807 71.0355 194.367C70.332 195.066 70.2616 195.835 70.1913 196.674C70.1913 197.723 69.9802 198.701 70.0505 199.75C70.0505 200.729 68.8545 200.939 68.9952 201.987C69.0655 202.826 68.9248 203.735 68.8545 204.574C68.8545 204.714 68.7138 204.854 68.6434 204.924C67.5177 205.623 67.8695 206.741 67.8695 207.65C67.7991 209.748 67.8695 210.377 67.2363 211.076C66.6734 211.705 66.4623 212.264 67.0956 212.894C67.5881 213.383 67.5177 213.942 67.4473 214.502C67.2363 215.83 67.8695 217.438 66.392 218.487C66.3216 219.605 66.1106 220.794 66.1106 221.912C66.1106 223.241 64.5627 223.94 64.9145 225.408C65.1256 226.527 64.8442 227.715 64.7738 228.904L64.5627 232.399C64.4924 233.588 64.2813 234.776 64.3517 235.895C64.4924 237.153 63.5074 237.922 63.2963 238.971C62.9445 240.509 62.9445 242.187 62.9445 243.725C62.9445 245.263 62.1706 246.871 63.5074 248.199C63.437 249.318 63.2963 250.507 63.226 251.625C61.8188 252.534 62.3817 253.932 62.1706 255.191C61.9595 256.729 62.3113 258.337 61.0449 259.595C60.7635 259.875 60.8338 260.854 61.1153 261.203C61.6077 261.832 61.7485 262.462 61.6781 263.161C61.467 265.468 61.3263 267.845 61.256 270.152C61.256 271.061 60.9745 271.69 60.3413 272.459C59.9192 272.949 59.7785 274.137 60.6931 274.766C61.0449 275.046 60.9745 275.186 60.6228 275.396C59.7081 275.955 59.9896 276.864 59.9896 277.703C61.0449 278.402 60.6228 279.52 60.6228 280.499C60.6228 281.967 60.5524 283.366 60.482 284.834C61.6781 285.743 61.0449 287.001 61.0449 288.05C60.8338 291.965 60.5524 295.88 60.3413 299.865C60.3413 300.704 60.3413 301.543 59.4267 302.172C59.286 302.312 59.286 303.081 59.4267 303.291C60.2006 303.99 59.7785 305.248 60.7635 305.808L60.5524 308.884C60.4117 310.771 60.3413 312.659 60.2006 314.547C60.1303 315.805 60.4117 317.203 59.0749 318.042C59.1453 318.741 58.6528 319.51 59.3563 320.07C60.3413 320.909 59.0749 322.447 60.4117 323.146C60.4117 323.985 60.4117 324.894 60.4117 325.733C60.271 327.9 60.1303 330.067 59.9896 332.305C59.9896 332.654 60.1303 333.143 60.4117 333.423C60.9042 333.912 60.482 334.122 60.2006 334.332C59.8488 334.542 59.7785 334.751 60.1303 334.961C60.6228 335.381 60.6228 335.87 60.6931 336.499C60.6931 337.338 60.0599 337.688 59.7081 338.247C60.5524 338.876 60.4117 339.715 60.3413 340.554C60.1303 344.05 59.9192 347.546 59.6378 351.041C59.6378 351.88 59.1453 352.999 59.5674 353.628C60.5524 355.166 60.1303 356.634 60.1303 358.172C60.1303 358.312 60.1303 358.452 60.271 358.522C61.1856 359.221 60.4117 359.501 60.0599 360.13C59.7785 360.689 59.6378 361.458 60.0599 362.157C60.271 362.507 60.6228 362.926 60.5524 363.276C60.2006 364.884 61.0449 366.771 59.4267 368.1C59.286 368.24 59.286 368.799 59.4267 368.869C60.271 369.498 60.2006 370.337 60.0599 371.246C59.8488 372.924 60.3413 374.742 58.8638 376.07C58.7231 376.21 58.8638 376.769 59.0046 376.839C59.8488 377.398 59.3563 378.517 60.1303 379.076C60.4821 379.356 60.4821 379.496 60.1303 379.705C59.3563 380.125 59.4267 380.894 59.4267 381.593C59.4267 382.642 59.286 383.62 59.2156 384.669L59.0749 387.256C59.0749 388.305 59.0749 389.353 58.8638 390.332C58.5121 391.521 59.6378 392.08 59.6378 393.059C59.5674 394.667 59.4267 396.275 59.3563 397.883H59.4971ZM255.581 365.863C254.736 365.863 253.822 365.723 252.978 365.723C252.274 365.723 251.711 365.513 251.078 365.024C250.445 364.604 249.46 364.674 248.615 364.604C248.475 364.604 248.334 364.604 248.193 364.464C247.419 363.905 246.716 362.996 245.872 362.856C244.816 362.717 244.394 361.458 243.268 361.598C242.635 360.619 241.58 360.689 240.665 360.479C240.102 360.34 239.751 359.431 239.188 358.941C238.625 358.452 237.288 358.732 237.781 357.333C237.288 356.774 236.796 356.285 236.373 355.655C236.162 355.306 236.092 354.816 236.233 354.467C236.655 353.139 235.951 352.23 235.107 351.391C234.474 350.761 234.614 350.132 235.248 349.573C235.951 348.944 235.67 348.454 235.248 347.755C234.614 346.846 234.826 346.497 235.67 346.147C237.007 345.658 237.007 345.658 236.514 344.539C236.373 344.26 236.022 344.05 236.022 343.84C236.022 342.512 236.022 341.183 236.303 339.925C236.584 338.527 235.037 337.688 235.599 336.29C235.811 335.66 235.599 334.891 235.599 334.192C234.263 333.423 235.599 331.535 234.263 330.836C234.333 330.067 233.7 329.578 233.489 328.949C233.207 328.18 233.489 327.201 233.559 326.362C232.574 325.663 232.715 324.614 232.856 323.635C233.137 321.957 232.363 320.629 231.519 319.371C231.026 318.672 230.393 318.112 230.604 317.064C230.674 316.714 230.252 316.294 230.252 315.945C230.112 314.686 229.056 313.848 229.127 312.449C229.127 311.191 227.931 310.282 226.805 309.653C226.664 309.583 226.242 309.653 226.031 309.863C225.538 310.352 224.765 310.632 224.835 311.54C224.976 312.869 223.217 313.568 223.709 315.036C223.85 315.456 222.795 315.665 222.795 316.364C222.795 317.343 221.458 317.553 221.176 318.252C220.825 319.161 220.825 320.21 220.614 321.118C220.614 321.258 220.332 321.328 220.332 321.398C219.91 322.657 218.925 323.495 217.94 324.265C217.166 324.824 216.674 325.453 216.885 326.432C217.166 327.69 215.689 328.319 215.759 329.508C215.759 329.858 215.548 330.277 215.337 330.627C214.844 331.605 214.493 332.654 213.719 333.423C212.804 334.332 213.085 335.66 212.452 336.359C211.467 337.408 211.889 338.527 211.608 339.575C210.13 340.414 210.975 342.582 209.286 343.421C207.738 344.19 207.457 346.147 206.472 347.406C205.698 348.315 205.909 349.293 205.698 350.202C205.628 350.552 205.276 350.901 205.065 351.251C204.643 352.09 204.291 353.069 203.376 353.558C202.25 354.117 203.306 355.516 202.25 356.215C201.195 356.914 202.11 358.522 200.843 359.151C200.562 359.291 200.703 360.2 200.632 360.759C200.632 361.178 200.632 361.738 200.351 361.948C199.366 362.577 199.507 363.486 199.577 364.255C199.718 365.303 198.522 365.583 198.522 366.492C198.522 367.96 198.311 369.428 198.311 370.826C198.311 371.176 198.733 371.526 198.803 371.945C198.944 372.295 199.014 372.994 198.873 373.064C197.748 373.693 198.381 375.021 197.748 375.65C196.622 376.839 196.481 377.818 197.607 379.006C197.748 379.216 197.607 379.845 197.396 380.125C197.185 380.474 196.763 380.754 196.411 380.964C195.426 381.523 195.778 382.502 195.707 383.271C196.903 383.97 195.918 384.529 195.567 385.159C194.652 387.046 193.597 388.864 195.004 391.031C195.356 391.59 195.144 392.569 194.511 393.338C193.737 394.317 193.526 395.715 194.511 396.834C194.793 397.114 194.793 397.253 194.441 397.463C193.878 397.813 193.526 398.442 193.878 398.861C194.793 399.84 194.863 400.539 193.737 401.378C193.526 401.518 193.526 402.357 193.737 402.497C194.582 403.196 194.3 404.105 194.23 404.874C194.23 405.433 194.23 405.992 194.652 406.412C195.215 406.901 195.637 407.461 196.129 408.02C196.763 408.789 196.763 409.418 196.129 410.677C195.989 410.886 195.848 411.096 195.778 411.306C195.989 411.446 196.27 411.585 196.481 411.655C196.903 411.725 197.396 411.655 197.748 411.795C198.381 412.145 198.17 412.844 198.099 413.333C197.959 414.032 198.451 414.382 198.873 414.802C199.014 415.011 199.295 415.081 199.436 415.221C200.21 414.172 201.265 414.522 202.25 414.662C203.376 414.801 204.22 414.592 204.924 413.683C205.346 413.194 205.768 413.054 206.472 413.124C209.075 413.333 211.749 413.473 214.352 413.613C214.774 413.613 215.337 413.613 215.548 413.403C216.462 412.494 217.447 413.124 218.432 412.984C219.417 412.914 220.051 412.005 221.176 412.215C222.513 412.424 224.061 412.844 225.257 411.655C227.297 412.215 229.056 410.677 231.097 411.096C231.8 411.236 232.504 411.096 233.207 411.096C233.911 409.768 235.459 411.096 236.303 410.047C237.077 409.208 238.695 410.467 239.328 408.999C240.595 408.999 242.002 409.628 243.128 408.859C244.394 408.02 245.66 408.579 246.927 408.649C247.912 408.649 248.615 408.439 249.178 407.74C249.811 406.971 250.234 407.181 250.796 407.88C250.937 408.09 251.711 408.02 251.922 407.88C252.485 407.251 253.189 407.321 253.892 407.391C254.455 407.391 255.088 407.74 255.581 407.251C256.425 406.342 257.551 407.041 258.465 406.831C259.521 406.552 260.435 405.853 261.702 406.132C262.546 406.342 263.461 406.132 264.305 406.342C265.29 406.622 265.712 405.293 266.627 405.573C267.612 405.923 268.175 405.014 268.948 404.874C269.793 404.734 270.637 404.874 271.481 404.874C272.115 403.685 273.522 404.804 274.225 404.105C274.999 403.266 275.843 403.685 276.688 403.615C276.828 403.615 277.11 403.126 277.039 403.056C276.688 402.637 276.336 402.217 276.406 401.518C276.477 400.819 276.688 399.77 276.336 399.491C275.21 398.512 276.547 396.764 275.069 396.065C275.069 395.366 275.21 394.597 275.21 393.898C275.21 393.618 275.14 393.268 274.929 393.129C273.873 392.429 274.999 391.101 274.155 390.402C273.24 389.563 273.873 388.514 273.873 387.536C273.873 386.767 273.873 386.137 273.24 385.578C273.451 383.76 271.763 382.152 272.537 380.265C273.1 378.866 271.833 377.888 271.903 376.629C270.989 375.86 271.059 374.881 271.2 373.903C270.145 373.203 270.426 372.155 270.496 371.176C270.496 370.896 270.637 370.477 270.496 370.337C269.16 369.288 270.496 367.68 269.722 366.771C268.667 365.373 269.371 363.975 269.3 362.647C269.3 361.948 268.456 359.78 267.823 358.871C267.541 358.452 267.26 358.312 266.908 358.801C266.556 359.221 265.923 359.431 265.923 360.13C265.923 360.689 265.923 361.318 265.782 361.878C265.782 362.437 265.993 363.276 265.29 363.416C264.516 363.556 264.024 363.905 263.39 364.255C262.968 364.464 262.265 364.255 261.702 364.255C260.857 364.115 260.295 364.255 260.295 365.303C260.295 365.723 259.872 365.933 259.38 365.863C258.184 365.723 257.058 365.723 255.862 365.653L255.581 365.863ZM314.469 424.799L317.565 425.009C318.339 424.1 319.324 424.17 320.309 424.31C321.294 424.449 322.349 424.449 323.404 424.519C324.46 424.589 325.445 424.589 326.5 424.729C327.133 424.799 327.626 424.729 328.048 424.24C328.752 423.401 329.596 423.051 330.722 423.261C331.707 423.401 332.762 423.331 333.747 423.401C334.802 422.142 336.209 422.911 337.405 422.841C338.39 422.841 339.586 423.331 340.431 422.911C341.486 422.422 342.541 422.282 343.597 422.142C344.582 420.814 346.059 422.142 347.185 421.443C347.326 421.373 347.396 421.233 347.537 421.164C348.1 420.534 348.17 421.303 348.451 421.443C348.803 421.583 349.296 421.863 349.577 421.793C349.929 421.723 350.21 421.094 350.632 421.094C351.477 421.094 352.391 421.094 353.236 421.233C354.221 421.513 354.643 420.185 355.557 420.464C357.316 421.024 358.723 419.486 360.482 419.695C360.553 419.695 360.764 419.486 360.764 419.416C360.764 419.276 360.623 419.136 360.482 419.066C359.638 418.926 358.723 418.717 357.879 418.787C356.824 418.926 356.472 417.808 355.628 417.738C353.869 417.528 352.11 417.528 350.351 417.388C349.436 417.318 348.662 417.318 347.959 418.087C347.818 418.227 347.115 418.018 346.833 417.808C345.567 416.759 344.3 416.619 342.964 417.598C342.119 418.157 340.853 417.179 340.22 418.367C339.798 418.087 339.375 417.668 338.953 417.668C338.25 417.668 337.968 416.899 337.546 416.829C336.983 416.759 336.561 417.738 335.717 417.458C334.591 418.507 333.536 418.647 332.41 417.458C332.34 417.388 332.199 417.179 332.058 417.179C330.018 417.039 327.978 416.969 325.937 416.829C324.741 418.157 323.193 417.318 321.857 417.388C321.153 417.388 320.168 417.039 319.746 417.388C318.55 418.437 317.283 417.808 316.017 417.878C315.595 417.878 315.102 417.668 314.68 417.878C313.836 418.227 312.992 418.647 312.147 419.066C312.429 420.115 311.092 420.325 311.092 421.233C311.092 422.072 310.951 422.981 310.951 423.82C310.951 424.31 311.162 424.589 311.725 424.589C312.57 424.589 313.484 424.729 314.328 424.729L314.469 424.799ZM485.576 433.818L490.783 434.167C492.119 432.769 493.808 433.678 495.285 433.608C496.482 433.608 497.607 433.608 498.803 433.818C499.929 433.958 500.281 433.119 500.984 432.629C501.125 432.489 501.125 432.07 500.984 431.79C500.914 431.581 500.562 431.301 500.351 431.301C498.874 431.161 497.467 431.091 495.989 431.021C495.145 431.021 494.23 431.021 493.738 430.112C493.667 429.973 493.034 429.833 492.964 429.973C492.119 431.161 490.853 430.462 489.798 430.881C488.883 431.231 488.883 431.161 488.531 430.881C487.757 430.112 487.124 428.714 485.858 430.252C484.028 430.042 482.481 431.511 480.511 431.021C479.385 430.742 478.189 430.812 476.993 430.742C475.163 432.21 473.123 431.161 471.153 431.231C471.012 431.231 470.801 431.161 470.731 431.231C470.52 431.371 470.379 431.511 470.168 431.72C470.239 431.86 470.379 432 470.45 432C471.927 432.14 473.334 432.21 474.812 432.35C475.937 433.608 477.134 433.818 478.47 432.629C478.611 432.489 479.174 432.559 479.315 432.699C479.948 433.748 481.003 433.608 481.988 433.678C483.184 433.748 484.31 433.818 485.506 433.888L485.576 433.818ZM539.469 432.699C539.469 432.699 540.173 433.049 540.947 432.35C541.791 431.65 542.917 432.35 543.831 432.14C544.183 432.14 544.465 431.581 544.816 431.301C545.59 430.602 544.535 430.462 544.465 430.042C544.465 429.483 544.465 428.924 543.902 428.504C542.846 427.735 542.635 426.687 542.846 425.498C542.846 425.498 542.354 425.219 542.284 425.288C541.791 425.778 541.158 426.057 540.947 426.896C540.806 427.456 540.032 427.945 539.61 428.434C538.414 427.945 537.499 428.784 536.444 429.064C535.952 429.204 535.318 429.273 534.896 428.714C534.685 428.435 534.474 427.945 533.982 428.504C533.771 428.714 533.559 428.924 533.348 429.064C532.645 429.716 532.481 430.578 532.856 431.65C533.137 432.489 533.63 432.769 534.333 432.28C534.826 431.93 535.459 431.371 535.811 431.79C536.585 432.699 537.429 432.839 539.399 432.769L539.469 432.699ZM44.5815 425.638C44.5815 425.638 44.5815 425.638 44.5111 425.638C44.5111 426.477 44.3704 427.386 44.3704 428.225C44.3704 428.434 44.7222 428.854 44.7925 428.854C46.1997 428.714 47.6772 429.763 48.9436 428.504C49.9286 428.504 51.1246 428.784 51.8282 428.295C52.8132 427.665 53.5167 427.246 54.2907 428.434C55.1349 428.085 55.9792 427.805 56.6828 427.386C56.7531 427.386 56.6828 426.547 56.4014 426.267C56.0496 425.918 55.346 425.848 54.9942 425.498C54.361 424.869 53.5871 425.288 52.9539 425.009C52.4614 424.799 52.1096 424.24 51.6171 424.1C51.1246 423.96 50.4211 423.96 49.9989 424.24C48.6621 425.149 47.6772 424.869 46.6922 423.75C46.4107 423.401 46.1293 422.981 45.7775 422.911C45.4257 422.772 44.7222 422.981 44.6518 423.191C44.5111 424.03 44.5111 424.869 44.4408 425.708L44.5815 425.638ZM316.509 155.146C316.509 155.146 316.298 154.866 316.228 154.866C315.665 154.866 315.032 154.866 315.032 154.027C315.032 153.048 314.399 152.559 313.695 152.139C313.273 152.699 312.429 152.839 312.429 153.747C312.429 154.237 312.147 154.516 311.585 154.516C310.6 154.516 310.107 155.216 309.615 155.915C309.474 156.124 309.615 156.474 309.685 156.684C309.826 156.894 310.177 157.033 310.388 157.033C310.811 156.963 311.092 156.684 311.514 156.474C312.358 156.055 312.992 156.334 312.992 157.103C312.992 157.383 312.992 157.663 312.992 157.942C312.992 158.222 313.132 158.432 313.203 158.711C313.555 158.571 313.977 158.432 314.117 158.222C314.821 157.173 315.384 156.055 316.509 155.355C316.509 155.355 316.509 155.146 316.509 155.076V155.146ZM307.645 158.711C307.645 158.711 307.011 158.641 306.73 158.711C306.449 158.711 306.026 158.781 306.026 158.991C305.886 159.34 305.815 159.83 306.026 160.109C306.308 160.599 306.73 161.018 307.152 161.438C307.785 162.137 307.574 162.696 306.871 163.186C306.519 163.395 306.449 163.605 306.8 163.815C307.011 163.955 307.434 164.095 307.574 164.025C309.052 162.906 310.459 161.717 311.866 160.529C311.866 160.529 311.725 159.97 311.655 159.97C311.092 159.9 310.248 160.11 309.966 159.76C309.333 159.061 308.63 158.711 307.785 158.781L307.645 158.711ZM283.02 182.412C282.457 183.041 281.331 183.111 281.261 184.369C281.261 185.138 281.12 185.767 280.417 186.187C280.417 186.187 280.487 186.606 280.628 186.746C280.628 186.816 280.909 186.746 281.05 186.746C282.316 186.606 282.809 185.348 283.794 184.789C283.653 184.579 283.512 184.299 283.301 184.159C282.668 183.6 283.512 183.53 283.653 183.251C283.653 183.111 283.794 183.041 283.934 182.971C283.723 182.831 283.512 182.691 283.02 182.342V182.412ZM340.22 131.585C340.22 131.585 339.868 131.026 339.657 130.746C339.024 129.977 338.672 129.907 338.601 130.606C338.601 131.445 337.828 131.725 337.546 132.354C337.194 133.053 336.843 133.822 336.561 134.521C336.561 134.591 336.561 134.801 336.702 134.871C336.772 134.941 336.983 135.151 336.983 135.151C338.039 134.172 339.164 133.263 340.22 132.284C340.29 132.214 340.22 132.005 340.22 131.655V131.585ZM335.576 135.43C335.576 135.43 335.084 135.151 334.943 135.221C334.099 135.71 333.677 136.759 332.41 136.619C331.918 136.619 331.636 137.668 332.058 138.017C332.34 138.227 332.973 138.437 333.184 138.297C334.028 137.737 334.732 136.968 335.506 136.269C335.646 136.129 335.506 135.71 335.576 135.43ZM262.335 343.63C262.546 342.582 262.265 341.743 261.491 341.044C261.209 340.764 260.998 340.694 260.857 341.044C260.576 341.952 260.295 342.931 261.28 343.7C261.491 343.84 261.631 344.12 261.842 344.26C261.983 344.05 262.124 343.84 262.335 343.63Z" fill="white"/>
</svg>
