<svg width="36" height="50" viewBox="0 0 36 50" fill="none" xmlns="http://www.w3.org/2000/svg">
<mask id="path-1-outside-1_357_1016" maskUnits="userSpaceOnUse" x="0" y="0" width="36" height="50" fill="black">
<rect fill="white" width="36" height="50"/>
<path d="M2.192 47.48V35.16L25.776 25.392L2.28 15.624V3.304L33.784 20.376V30.32L2.192 47.48Z"/>
</mask>
<path d="M2.192 47.48H0.792V49.8336L2.86023 48.7102L2.192 47.48ZM2.192 35.16L1.65628 33.8666L0.792 34.2245V35.16H2.192ZM25.776 25.392L26.3117 26.6854L29.4288 25.3944L26.3134 24.0993L25.776 25.392ZM2.28 15.624H0.88V16.5581L1.74257 16.9167L2.28 15.624ZM2.28 3.304L2.94702 2.07311L0.88 0.952991V3.304H2.28ZM33.784 20.376H35.184V19.5423L34.451 19.1451L33.784 20.376ZM33.784 30.32L34.4522 31.5502L35.184 31.1528V30.32H33.784ZM2.192 47.48H3.592V35.16H2.192H0.792V47.48H2.192ZM2.192 35.16L2.72772 36.4534L26.3117 26.6854L25.776 25.392L25.2403 24.0986L1.65628 33.8666L2.192 35.16ZM25.776 25.392L26.3134 24.0993L2.81743 14.3313L2.28 15.624L1.74257 16.9167L25.2386 26.6847L25.776 25.392ZM2.28 15.624H3.68V3.304H2.28H0.88V15.624H2.28ZM2.28 3.304L1.61298 4.53488L33.117 21.6069L33.784 20.376L34.451 19.1451L2.94702 2.07311L2.28 3.304ZM33.784 20.376H32.384V30.32H33.784H35.184V20.376H33.784ZM33.784 30.32L33.1158 29.0898L1.52377 46.2498L2.192 47.48L2.86023 48.7102L34.4522 31.5502L33.784 30.32Z" fill="#D9315A" mask="url(#path-1-outside-1_357_1016)"/>
</svg>
