<svg width="70" height="24" viewBox="0 0 70 24" fill="none" xmlns="http://www.w3.org/2000/svg">
<g clip-path="url(#clip0_1444_2131)">
<path d="M10.4017 23.9998C6.03625 23.9998 2.09353 21.5412 0.154091 17.7432C-0.23069 16.9918 0.133386 16.0755 0.93228 15.8004C1.58279 15.5769 2.30404 15.8605 2.61635 16.4726C4.08473 19.3645 7.08188 21.2368 10.4017 21.2368C13.2143 21.2368 15.7955 19.8923 17.4123 17.7226C17.9334 17.0228 18.6564 15.9087 18.6564 14.1189L21.1428 16.715C21.1428 16.715 21.0117 17.0864 20.7597 17.5592C20.5078 18.0304 20.4026 18.2092 20.249 18.4619C18.1992 21.8489 14.4859 23.9998 10.4017 23.9998Z" fill="#5EBC52"/>
<path d="M15.8983 11.8976C15.793 10.505 15.1736 9.39597 14.1055 8.6894C13.2134 8.09967 12.0108 7.79877 10.5337 7.79877H10.3681V7.7936H8.92212V5.52926H13.574C14.2711 5.52926 14.8405 5.00315 14.8405 4.3309C14.8405 3.65693 14.2643 3.09644 13.574 3.09644H7.65565C6.95682 3.09644 6.38914 3.66037 6.38914 4.35841V8.97822C6.38914 9.67452 6.95509 10.2402 7.65565 10.2402H10.5855C12.5456 10.2402 13.1703 11.136 13.1703 12.0609C13.1703 12.9705 12.6768 14.4302 10.6183 14.4302C8.91693 14.4302 7.90065 13.2834 7.69012 13.0959C7.06035 12.5337 6.42537 12.5733 6.00436 12.9429C5.46773 13.4157 5.5333 14.0777 5.85769 14.5694C6.2442 15.1523 7.74883 16.9627 10.6166 16.9627C12.2454 16.9627 13.6845 16.3799 14.668 15.3242C15.5445 14.3838 15.9914 13.1355 15.8983 11.8976Z" fill="#58595B"/>
<path d="M44.3566 13.5568C42.9745 13.4898 41.6597 12.9258 41.0661 12.3911C40.4087 11.7979 40.2844 11.0053 40.7969 10.5601C41.4681 9.97716 42.1479 10.5102 42.4379 10.689C43.9425 11.6191 45.1434 11.5469 45.7128 11.0982C46.0458 10.8368 46.1821 10.5119 46.1373 10.242C46.0545 9.75194 45.4781 9.57831 44.7604 9.38234C44.2202 9.23444 42.7657 8.80978 42.0755 8.41431C41.0868 7.84521 40.407 6.8979 40.6382 5.57918C40.8815 4.18482 42.0893 3.13431 43.6664 2.98817C45.6645 2.80249 46.6411 3.28389 47.214 3.59165C48.0336 4.0318 48.1871 4.92928 47.7575 5.43991C47.5591 5.67546 46.981 5.89726 46.403 5.6428C44.4273 4.77282 43.4197 5.01181 43.1626 5.52245C42.8899 6.06403 43.3817 6.58498 44.0132 6.8274C44.0512 6.84115 44.429 6.99418 44.9622 7.16611C45.423 7.31569 45.994 7.47043 46.6187 7.70256C47.7695 8.12894 48.7376 9.03674 48.5926 10.5549C48.515 11.3612 48.0371 12.2501 47.3227 12.7762C46.7964 13.1631 45.7542 13.6256 44.3566 13.5568Z" fill="#58595B"/>
<path d="M56.2357 11.1274C55.9441 11.0191 55.5162 11.0655 55.2625 11.1102C54.9209 11.1704 54.386 11.234 53.9511 11.1102C53.192 10.8953 52.9107 10.4638 52.9107 9.79838V5.35223H54.7121C55.3971 5.35223 55.9544 4.82268 55.9544 4.17106C55.9544 3.51772 55.3989 2.98989 54.7121 2.98989H52.9107V1.29293C52.9107 0.57941 52.3309 0 51.6131 0C50.897 0 50.3173 0.57941 50.3173 1.29293V2.98989H49.7307C49.0457 2.98989 48.4883 3.51944 48.4883 4.17106C48.4883 4.8244 49.0439 5.35223 49.7307 5.35223H50.3173V9.79838C50.3173 11.8874 51.9893 13.5878 54.1203 13.5878C56.2512 13.5878 56.8154 12.8261 56.8154 12.1126C56.8138 11.6003 56.6412 11.277 56.2357 11.1274Z" fill="#58595B"/>
<path d="M34.9278 2.98999C32.0703 2.98999 29.7461 5.36093 29.7461 8.27346C29.7461 11.1877 32.0703 13.5569 34.926 13.5569C37.7834 13.5569 40.1059 11.1859 40.1059 8.27346C40.1093 5.35921 37.7851 2.98999 34.9278 2.98999ZM34.9278 11.1757C33.4507 11.1757 32.2515 10.1303 32.2515 8.27346C32.2515 6.41659 33.4524 5.35921 34.9278 5.35921C36.403 5.35921 37.6039 6.41659 37.6039 8.27346C37.6039 10.1303 36.403 11.1757 34.9278 11.1757Z" fill="#58595B"/>
<path d="M24.0723 2.98999C23.0559 2.98999 21.7895 3.57628 21.1458 4.48408C21.1096 3.60894 20.6386 3.02266 19.9519 3.02266C19.2357 3.02266 18.6543 3.60207 18.6543 4.31559V16.2012C18.6543 16.9147 19.2357 17.4941 19.9519 17.4941C20.6679 17.4941 21.2494 16.9165 21.2494 16.2012V12.3001C21.7411 12.9379 22.9645 13.5621 24.181 13.5621C27.0384 13.5621 29.0917 11.1877 29.0917 8.27346C29.0917 5.35921 27.0211 2.98999 24.0723 2.98999ZM23.9101 11.1757C22.2502 11.1757 21.101 10.0186 21.101 8.27346C21.101 6.36329 22.5038 5.35921 23.9101 5.35921C25.3854 5.35921 26.5863 6.73638 26.5863 8.27346C26.588 9.81051 25.3871 11.1757 23.9101 11.1757Z" fill="#58595B"/>
<path d="M65.7365 6.56617L65.0014 5.34889L64.2802 6.56617H63.4192L64.5269 4.73166L63.3984 3.02954H64.2974L65.0204 4.16601L65.7106 3.02954H66.5716L65.4622 4.7884L66.6027 6.56617H65.7365Z" fill="#231F20"/>
<path d="M69.4059 5.36412C69.4059 6.14125 68.8174 6.62782 68.0461 6.62782C67.3663 6.62782 66.7952 6.25472 66.7383 5.43977H67.4733C67.5251 5.79395 67.8081 5.94525 68.1169 5.94525C68.5017 5.94525 68.6691 5.68735 68.6691 5.3538C68.6691 5.00478 68.4102 4.78815 68.0513 4.78815C67.7528 4.78815 67.5544 4.93085 67.463 5.08215H66.7607L67.004 3.03101H69.3144L69.2368 3.71873H67.5838L67.5182 4.39787C67.5182 4.39787 67.6925 4.19498 68.2187 4.19498C68.852 4.19155 69.4059 4.61622 69.4059 5.36412Z" fill="#231F20"/>
<path d="M66.8246 2.58929C66.433 1.0677 65.1906 0 62.6128 0H59.5L59.9228 2.84719C60.2403 5.41585 61.2272 6.24284 62.9717 6.54715C62.9803 6.54887 63.0355 6.55575 63.0355 6.49214C63.0355 6.46979 63.0218 6.44915 63.001 6.44056C61.8208 5.94539 61.6862 4.32236 61.4343 2.69417L61.2393 1.39609H63.0166C64.6558 1.39609 65.9205 1.3703 66.7211 2.63055C66.7333 2.64775 66.7522 2.6615 66.7729 2.6615C66.8039 2.6615 66.8264 2.63571 66.8264 2.60476C66.8264 2.59961 66.8264 2.59445 66.8246 2.58929Z" fill="#5EBC52"/>
</g>
<defs>
<clipPath id="clip0_1444_2131">
<rect width="70" height="24" fill="white"/>
</clipPath>
</defs>
</svg>
