<svg width="28" height="28" viewBox="0 0 28 28" fill="none" xmlns="http://www.w3.org/2000/svg">
<g clip-path="url(#clip0_877_387)">
<path d="M5.57444 15.148C5.65827 15.4818 5.71462 15.8041 5.78662 16.2186C5.78667 16.2188 5.78673 16.219 5.78678 16.2192C5.7971 16.2786 5.80757 16.3395 5.8186 16.4029C5.84746 16.5687 5.87955 16.7511 5.91672 16.9575C5.95128 17.2101 6.04962 17.5436 6.34397 18.01C6.8357 18.773 7.38377 19.4688 7.66542 19.9176C7.71963 20.0015 7.78253 20.0824 7.95533 20.2751C8.03292 20.3616 8.1297 20.4673 8.25639 20.605C8.30789 20.6614 8.36395 20.721 8.42863 20.7866C8.53609 20.8954 8.66381 21.0177 8.8201 21.1507C9.33146 21.6044 10.261 22.0906 11.249 22.2138C11.4521 22.2431 11.6562 22.2619 11.8554 22.2726C12.2648 22.2948 12.6423 22.2989 12.9547 22.2963C13.6482 22.2902 14.3185 22.2562 15.042 22.1669C15.6809 22.0865 16.3649 21.9634 17.1183 21.7392C17.1443 21.7314 17.1704 21.7235 17.1966 21.7154C17.7866 21.5325 18.3732 21.3615 18.9672 21.1406C19.0427 21.1124 19.1184 21.0834 19.194 21.0535C19.7152 20.8471 20.2421 20.5958 20.7663 20.2486C21.2402 19.934 21.6323 19.6009 21.9813 19.2513C22.3119 18.9193 22.5902 18.561 22.8331 18.162C23.026 17.8445 23.197 17.4995 23.3481 17.1119C23.4981 16.7322 23.6475 16.2377 23.7711 15.6602C23.8518 15.2907 23.9393 14.9096 24.0099 14.538C24.0255 14.4559 24.0401 14.3734 24.0536 14.2914C24.0537 14.291 24.0537 14.2906 24.0538 14.2902C24.2167 13.4205 24.102 12.6102 23.9369 11.9744C23.8809 11.7532 23.8248 11.5629 23.7723 11.3948L23.7827 11.4273C23.5642 10.8647 23.4176 10.6069 23.2965 10.3838C23.237 10.2762 23.1807 10.1771 23.1155 10.0584C22.993 9.83517 22.8422 9.55046 22.6685 9.23851C22.5087 8.94717 22.3387 8.67006 22.1341 8.34283C22.1324 8.34018 22.1309 8.33776 22.1293 8.33521C22.0601 8.22322 22.0768 8.08854 22.1653 8.03442C22.2543 7.98127 22.3805 8.02734 22.4488 8.1378C22.6531 8.46446 22.8368 8.76385 22.9973 9.05698C23.0106 9.08093 23.0245 9.10598 23.0376 9.12971C23.1247 9.10337 23.23 9.15529 23.2833 9.25713C23.4011 9.49414 23.8306 10.1334 24.3287 11.2341C24.367 11.3375 24.4041 11.4392 24.4417 11.5467C24.4331 11.4506 24.4268 11.3685 24.4224 11.2972C24.4204 11.266 24.4187 11.2372 24.417 11.2102C24.4096 11.1585 24.4052 11.1199 24.4011 11.0846C24.3874 10.9684 24.3772 10.8907 24.3402 10.7603C24.2402 10.4634 24.0495 10.0102 23.822 9.54656C23.7651 9.42987 23.7919 9.29734 23.8845 9.25063C23.9768 9.20353 24.1009 9.26226 24.1593 9.38185C24.1605 9.38418 24.1617 9.3865 24.1628 9.38883C24.3928 9.85784 24.5951 10.3372 24.7016 10.6564C24.729 10.7374 24.7505 10.808 24.7658 10.8615C24.7779 10.904 24.7925 10.9578 24.7971 10.9886C24.7977 10.9927 24.7988 11.0005 24.7996 11.0101C24.7996 11.0103 24.7996 11.0104 24.7996 11.0106C24.8 11.0155 24.802 11.0392 24.7984 11.0678C24.8003 11.074 24.8067 11.092 24.8082 11.0983C24.8077 11.1006 24.8073 11.103 24.8067 11.1054C24.8053 11.1117 24.8022 11.1255 24.7954 11.1424C24.7956 11.1462 24.7958 11.15 24.796 11.1537C24.7986 11.2067 24.8007 11.259 24.8041 11.3161C24.813 11.5411 24.8678 11.8889 24.9152 12.6251C24.9884 13.3053 24.8451 14.4665 24.5224 15.7836C24.5497 15.6949 24.577 15.6058 24.6036 15.5176C24.6709 15.2943 24.737 15.0671 24.7982 14.8369C24.8214 14.7495 24.8439 14.6616 24.8656 14.571C24.9005 14.426 24.9326 14.2789 24.9601 14.1286C24.9786 14.027 24.995 13.9244 25.0087 13.8209C25.0087 13.8207 25.0087 13.8204 25.0087 13.8202C25.0278 13.6765 25.0417 13.5304 25.0497 13.3826C25.0527 13.3306 25.0549 13.2798 25.0563 13.2287C25.0617 13.0262 25.0567 12.8265 25.0485 12.599C25.0485 12.5714 25.0491 12.541 25.0497 12.5181C25.0504 12.4935 25.0511 12.4695 25.0521 12.4477C25.053 12.4283 25.0539 12.4096 25.0547 12.3916C25.0548 12.3892 25.0549 12.3868 25.055 12.3843C25.0558 12.3642 25.0564 12.3448 25.0567 12.326C25.0571 12.3072 25.0576 12.2902 25.0575 12.2728C25.0575 12.2727 25.0575 12.2725 25.0575 12.2724C25.0573 12.2543 25.0572 12.2406 25.0563 12.2214C25.0552 12.1974 25.0538 12.1764 25.0515 12.1514C25.0494 12.1279 25.0467 12.1032 25.0436 12.0782C25.0405 12.0532 25.0369 12.0276 25.0329 12.0015C25.0289 11.9754 25.025 11.9503 25.0205 11.9241C25.016 11.898 25.0112 11.8714 25.0062 11.8445C25.0011 11.8171 24.9963 11.7916 24.9911 11.7648C24.9793 11.7036 24.9846 11.6383 25.0085 11.5882C25.0321 11.5371 25.0711 11.5013 25.118 11.4896C25.1649 11.4779 25.2164 11.4913 25.2611 11.5267C25.3056 11.5609 25.3406 11.6189 25.357 11.681C25.3615 11.698 25.366 11.715 25.3704 11.732C25.373 11.7421 25.3757 11.753 25.3784 11.7634C25.3855 11.7917 25.3927 11.8201 25.3995 11.8486C25.4063 11.8772 25.4126 11.9048 25.4192 11.9353C25.4257 11.9652 25.432 11.9954 25.4378 12.0258C25.4436 12.0561 25.4491 12.0872 25.4542 12.12C25.4591 12.1517 25.4639 12.1877 25.4673 12.2197C25.4698 12.2427 25.4723 12.2731 25.474 12.2978C25.4758 12.3237 25.477 12.349 25.4779 12.3734C25.4787 12.3976 25.4792 12.4217 25.4796 12.4448C25.4797 12.4473 25.4797 12.4497 25.4798 12.4522C25.4802 12.4725 25.4804 12.4921 25.4807 12.5105C25.481 12.5311 25.4814 12.5504 25.482 12.5688C25.4826 12.5895 25.4834 12.602 25.4844 12.6173C25.5039 12.8172 25.5264 13.0695 25.5308 13.3124C25.5314 13.3429 25.5318 13.3735 25.5319 13.4035C25.5328 13.5631 25.5274 13.7222 25.5165 13.8787C25.5085 13.9923 25.4977 14.105 25.4846 14.2157C25.4652 14.3788 25.4409 14.5385 25.4141 14.6933C25.3974 14.7898 25.38 14.8831 25.3617 14.9764C25.3137 15.2213 25.262 15.457 25.2088 15.6904C25.188 15.7814 25.1676 15.8693 25.1461 15.9608C25.1115 16.1087 25.0736 16.2602 25.031 16.4127C24.962 16.6605 24.8766 16.9209 24.7763 17.1664C24.7025 17.3473 24.6119 17.5282 24.5202 17.6908C24.4708 17.7784 24.4205 17.8629 24.3693 17.9447C24.3691 17.945 24.3689 17.9452 24.3688 17.9455C24.3236 18.0179 24.278 18.0879 24.2321 18.1567C24.1332 18.3048 24.0328 18.4466 23.9302 18.5856C23.8277 18.7243 23.7229 18.8605 23.6161 18.994C23.51 19.1267 23.3993 19.2599 23.2886 19.3881C23.1768 19.5176 23.0654 19.642 22.9457 19.77C22.8723 19.8486 22.7995 19.9246 22.7236 20.0015C22.6395 20.0866 22.5542 20.1716 22.4664 20.2568C22.3042 20.4146 22.1374 20.5704 21.9663 20.7224C21.9064 20.7757 21.8461 20.8282 21.785 20.8806C21.7848 20.8808 21.7845 20.881 21.7843 20.8812C21.6717 20.9778 21.557 21.0732 21.4408 21.1665C21.2611 21.3107 21.0771 21.4507 20.8882 21.5857C20.6993 21.7208 20.5052 21.8512 20.3055 21.9754C20.1058 22.0996 19.8961 22.2205 19.6795 22.3309C19.4864 22.4296 19.2882 22.5226 19.0924 22.6083C19.0405 22.6309 18.9888 22.6532 18.9367 22.6751C18.6897 22.7792 18.4479 22.8733 18.2076 22.9638C17.999 23.0422 17.7895 23.1183 17.5769 23.1919C17.5453 23.2028 17.5135 23.2137 17.4814 23.2247C17.2385 23.308 16.9938 23.3886 16.7441 23.4663C16.4932 23.5443 16.2452 23.6172 15.9899 23.6867C15.7365 23.7558 15.4803 23.8203 15.2192 23.8803C15.0744 23.9136 14.9189 23.9453 14.7717 23.9722C14.6229 23.9993 14.4744 24.0234 14.328 24.0446C14.2682 24.0533 14.2091 24.0615 14.1501 24.0693C14.0637 24.0808 13.979 24.0914 13.8945 24.1016C13.7527 24.1187 13.614 24.1343 13.4787 24.1495C13.344 24.1647 13.2127 24.1797 13.0857 24.1956C12.9544 24.2121 12.8454 24.2272 12.7156 24.2472C12.3982 24.2851 12.2003 24.2904 11.9807 24.2945C11.9373 24.2952 11.8935 24.2959 11.8473 24.2965C11.8106 24.2967 11.7737 24.2967 11.7368 24.2965C11.4985 24.2946 11.2576 24.2809 11.0181 24.2545C10.7369 24.2234 10.4588 24.1753 10.1789 24.1069C9.90226 24.0394 9.6252 23.9515 9.35707 23.8447C9.08929 23.7382 8.8284 23.6124 8.57872 23.4694C8.3291 23.3267 8.08596 23.1633 7.86562 22.9933C7.73829 22.8953 7.6081 22.7857 7.49175 22.6802C7.40772 22.6042 7.32772 22.5279 7.25012 22.4509C7.21867 22.4196 7.18811 22.3887 7.15763 22.3575C7.05258 22.2499 6.95444 22.1438 6.86127 22.0407C6.84722 22.0251 6.83324 22.0096 6.81931 21.9941C6.74964 21.9157 6.68215 21.8414 6.6133 21.7684C6.53317 21.6833 6.45188 21.6006 6.36879 21.5195C6.28288 21.4357 6.20953 21.3668 6.11415 21.2806C6.05146 21.224 5.9908 21.1693 5.9293 21.1133C5.83821 21.0306 5.74711 20.9474 5.65461 20.862C5.56314 20.7777 5.47197 20.6929 5.37996 20.6062C5.35052 20.5784 5.31963 20.5492 5.28975 20.5208C5.19825 20.4338 5.10775 20.3467 5.01653 20.2573C4.92622 20.1689 4.83586 20.0788 4.74564 19.9869C4.65545 19.8951 4.56601 19.8019 4.47544 19.7048C4.32088 19.5391 4.18573 19.3619 4.07345 19.1971C3.95993 19.0303 3.86051 18.864 3.76969 18.6942C3.75261 18.6622 3.7358 18.6301 3.71928 18.5977C3.64791 18.4578 3.58244 18.315 3.52271 18.1689C3.44923 17.9892 3.3848 17.8053 3.33026 17.6149C3.32831 17.6081 3.32638 17.6013 3.32445 17.5945C3.28592 17.4645 3.24549 17.3332 3.20395 17.2037C3.16039 17.068 3.11725 16.9381 3.06905 16.7978C3.02147 16.659 2.96953 16.5182 2.91268 16.3629C2.85632 16.209 2.79737 16.0459 2.7405 15.8794C2.68339 15.7121 2.62823 15.5412 2.5766 15.3677C2.52513 15.1951 2.47633 15.0172 2.43227 14.8406C2.38761 14.6614 2.3473 14.4822 2.31082 14.2981C2.27467 14.116 2.24128 13.9216 2.21547 13.7367C2.17356 13.4358 2.14134 13.1245 2.12985 12.7909C2.11941 12.46 2.12671 12.1012 2.1926 11.7035C2.23777 11.4366 2.31046 11.147 2.44437 10.8422C2.48374 10.7549 2.52418 10.6675 2.56563 10.58C2.68978 10.3182 2.82109 10.0601 2.95603 9.80911C2.9862 9.75295 3.01603 9.69816 3.04641 9.64294C3.15361 9.44812 3.26346 9.25639 3.37503 9.06816C3.37583 9.06688 3.37662 9.0656 3.37742 9.06431C3.5215 8.82124 3.66683 8.58665 3.81711 8.35189C3.8722 8.26577 3.92566 8.18338 3.98025 8.09984C4.03492 8.01619 4.08882 7.93447 4.14354 7.85208C4.19839 7.76951 4.25307 7.68772 4.307 7.60735C4.36172 7.52577 4.41513 7.44652 4.46876 7.36661C4.51815 7.29314 4.56702 7.21978 4.62073 7.14044C4.62564 7.1332 4.63054 7.12596 4.63545 7.11872C4.69449 7.0317 4.76365 6.93334 4.82995 6.84461C5.00726 6.60776 5.18309 6.3801 5.36786 6.14934C5.55327 5.91794 5.7424 5.69027 5.94236 5.46249C6.02116 5.37279 6.10008 5.28468 6.18207 5.19572C6.30943 5.05758 6.44066 4.92078 6.57874 4.78468C6.80598 4.56112 7.04808 4.34118 7.32771 4.1258C7.56232 3.94657 7.82157 3.76767 8.14962 3.60484C8.18774 3.58642 8.2303 3.56579 8.27367 3.54501C8.54628 3.41385 8.84889 3.2817 9.15107 3.17085C9.48922 3.0464 9.83239 2.94173 10.1848 2.85644C10.5353 2.77171 10.8917 2.70748 11.2498 2.66507C11.6079 2.62261 11.9684 2.60187 12.3276 2.60306C12.625 2.60402 12.9215 2.61997 13.2157 2.65043C13.2715 2.65644 13.3267 2.66254 13.3814 2.66871C13.5683 2.68998 13.7627 2.71318 13.9483 2.73727C14.0493 2.73617 14.15 2.73566 14.2422 2.73525C14.9352 2.73485 15.4431 2.74617 16.1228 2.82133C16.1887 2.82719 16.2447 2.82979 16.3096 2.83283C16.322 2.83342 16.3351 2.83413 16.3484 2.8348C16.4343 2.83937 16.5342 2.84622 16.6725 2.8661C16.9519 2.91004 17.3614 2.98354 17.9438 3.27496C18.0935 3.35126 18.1634 3.49097 18.0886 3.56917C18.0352 3.62392 17.9358 3.64053 17.8352 3.62344C18.0074 3.6996 18.176 3.77459 18.4027 3.92448C18.4968 3.99201 18.5863 4.06741 18.7074 4.2692C18.7538 4.3617 18.8636 4.53478 18.8473 4.83076C18.8217 5.15845 18.621 5.31242 18.6568 5.23445C18.6839 5.1885 18.7828 4.81363 18.6793 4.64047C18.604 4.47704 18.5176 4.41992 18.4574 4.37722C18.3331 4.29849 18.2491 4.27062 18.1721 4.22333C17.976 4.10967 17.8126 4.04752 17.6423 3.98627C17.474 3.92712 17.311 3.87967 17.1462 3.83683C16.9787 3.79352 16.8221 3.75831 16.6551 3.72441C16.4957 3.69219 16.3299 3.66231 16.1692 3.63624C16.0044 3.60945 15.8445 3.58641 15.6832 3.56507C15.5872 3.5524 15.4848 3.53959 15.391 3.52869C15.3552 3.52448 15.3198 3.52055 15.2841 3.51656C15.2553 3.51333 15.2241 3.50982 15.196 3.50678C14.8829 3.47306 14.5722 3.44587 14.2566 3.42292C13.9476 3.40051 13.6268 3.38183 13.3202 3.36776C13.2719 3.36551 13.2231 3.36333 13.1739 3.36121C12.8959 3.34913 12.6176 3.35109 12.3402 3.36711C12.0118 3.38607 11.6864 3.42466 11.3636 3.48264C11.0419 3.54044 10.7228 3.61767 10.4119 3.71245C10.1704 3.78603 9.93507 3.86977 9.70444 3.96305C9.61541 4.00708 9.52963 4.05102 9.44451 4.09587C9.19851 4.22549 8.96256 4.37426 8.73946 4.52457C9.15563 4.29488 9.50583 4.11658 9.84744 3.96679C9.89346 3.94664 9.93831 3.92733 9.98491 3.90794C10.452 3.71539 10.9253 3.55755 11.5847 3.47251C12.1876 3.39752 12.7156 3.3978 13.1699 3.42952C14.0883 3.49492 14.7076 3.56952 15.1457 3.63743C15.7941 3.73991 16.0679 3.82591 16.3145 3.94171C16.6622 4.10307 17.3448 4.31885 17.6805 4.46354C17.8048 4.51333 17.8661 4.6416 17.8136 4.73124C17.7647 4.82261 17.6472 4.85474 17.5393 4.81157C17.2267 4.67504 16.5129 4.45206 16.1037 4.26536C15.923 4.18168 15.7089 4.10673 15.0817 4.0075C14.6569 3.94181 14.0536 3.86903 13.1478 3.80444C12.714 3.77396 12.209 3.77329 11.6303 3.84531C11.0233 3.92376 10.5882 4.06701 10.1446 4.24878C10.1021 4.2665 10.0569 4.28571 10.0138 4.30454C10.0136 4.30464 10.0133 4.30474 10.013 4.30484C9.6551 4.46079 9.28216 4.65272 8.81277 4.91289C8.75634 4.94379 8.69234 4.98167 8.63403 5.0189C7.39906 5.83236 6.28122 7.52745 6.03747 7.9183C5.98934 7.99747 5.94443 8.07472 5.89759 8.15641C5.72035 8.47186 5.49772 8.84739 5.02557 9.7017C4.92337 9.88874 4.80335 10.1084 4.67713 10.349C4.52974 10.7333 4.39993 11.108 4.28783 11.4297C4.26701 11.4892 4.24808 11.5479 4.23082 11.6057C4.18962 11.7663 4.18868 11.9431 4.20752 12.1199C4.21455 12.1836 4.22423 12.251 4.23595 12.3168C4.26412 12.4773 4.30348 12.6408 4.34173 12.8026C4.37214 12.9304 4.41204 13.0676 4.45814 13.2105C4.62652 13.7361 4.88059 14.3658 5.10095 15.2471C5.26423 15.9 5.41124 16.5006 5.53253 17.0519C5.56773 17.2196 5.61934 17.3817 5.68262 17.5383C5.61259 17.3535 5.57301 17.1915 5.55101 17.0474C5.51085 16.8249 5.47647 16.6294 5.44568 16.4526C5.43454 16.3886 5.42387 16.3272 5.41362 16.2682C5.34122 15.8518 5.28914 15.553 5.21076 15.241C4.83967 13.7575 4.74099 13.2496 4.61131 12.6986C4.57958 12.5552 4.54529 12.4008 4.52182 12.2441C4.4941 12.0608 4.48322 11.8744 4.50611 11.7233C4.55314 11.5438 4.6111 11.3561 4.68069 11.1669C4.83716 10.7409 5.02126 10.2586 5.24058 9.754C5.24069 9.75382 5.24079 9.75363 5.2409 9.75344C5.28389 9.6546 5.32795 9.55532 5.37357 9.4551C5.6512 8.8446 5.9795 8.21348 6.35352 7.63376C6.39346 7.57184 6.44141 7.49658 6.49633 7.41183C6.81781 6.93203 7.39118 6.02413 8.40786 5.31505C8.55665 5.21613 8.715 5.12863 8.88744 5.06018C8.98348 5.0213 9.08186 4.98227 9.18479 4.94339C9.2778 4.90822 9.37298 4.87391 9.47405 4.83885C9.9081 4.69031 10.439 4.52774 11.1535 4.40201C11.7156 4.30331 12.4042 4.2425 13.1189 4.29642C13.1564 4.29913 13.1937 4.30188 13.2309 4.30467C13.615 4.33358 14.0128 4.36896 14.3983 4.41219C15.5476 4.54821 16.6712 4.72141 17.5177 5.09511C17.5178 5.09519 17.518 5.09526 17.5182 5.09533C17.6132 5.14189 17.6059 5.24327 17.5452 5.32709C17.4889 5.41448 17.4331 5.47209 17.3563 5.4342C16.6097 5.1015 15.479 4.91525 14.3546 4.78512C13.9796 4.74309 13.5888 4.70823 13.2096 4.67963C13.1722 4.67682 13.1346 4.67404 13.0968 4.67131C12.4147 4.61918 11.7533 4.67762 11.2143 4.77266C10.5237 4.89449 10.0085 5.05271 9.58592 5.19803C9.48491 5.23307 9.38772 5.26873 9.29604 5.3036C9.21417 5.33477 9.13644 5.36541 9.05817 5.39695C8.90251 5.45516 8.75361 5.53585 8.61262 5.62978C7.69326 6.26967 7.1355 7.13045 6.82261 7.60021C6.76711 7.68558 6.71882 7.76124 6.67702 7.82588C6.31743 8.38238 5.99815 8.99352 5.72514 9.59219C5.68072 9.68948 5.63755 9.78627 5.5955 9.8827C5.59544 9.88292 5.59539 9.88313 5.59533 9.88335C5.37912 10.3789 5.19491 10.8594 5.0386 11.2836C4.96295 11.4888 4.90327 11.6868 4.85654 11.8731C4.85935 11.9492 4.86902 12.0617 4.89036 12.189C4.91189 12.3205 4.94365 12.4659 4.9779 12.6183C5.10501 13.1533 5.20484 13.6712 5.57444 15.148ZM17.5761 3.51929C17.2443 3.37055 16.976 3.303 16.7749 3.26395C16.9453 3.31019 17.1099 3.35917 17.2818 3.41571C17.3802 3.44809 17.477 3.48199 17.5761 3.51929ZM4.32801 10.2065C4.34622 10.159 4.36468 10.1114 4.38328 10.0638C4.31929 10.1886 4.25628 10.3143 4.19496 10.4405C4.11967 10.5954 4.04623 10.7518 3.97609 10.9078C4.09347 10.662 4.21401 10.4244 4.32801 10.2065ZM4.73692 15.3394C4.52836 14.5033 4.28904 13.9121 4.11177 13.3682C4.06094 13.2117 4.0156 13.0596 3.97928 12.9077C3.96425 12.8451 3.94907 12.7821 3.93431 12.7187C3.94749 13.0927 3.99392 13.4436 4.03772 13.7297C4.1764 14.5863 4.27738 15.0814 4.3537 15.5171C4.3766 15.6428 4.39912 15.7641 4.4232 15.8877C4.4609 15.9853 4.49966 16.087 4.53718 16.1899C4.58991 16.3341 4.64519 16.4908 4.6961 16.6403C4.74727 16.7906 4.79755 16.9439 4.8449 17.0952C4.8571 17.1341 4.86914 17.1731 4.88104 17.212C4.91293 17.3141 4.94914 17.4143 4.98923 17.5126C5.03994 17.6369 5.09711 17.7587 5.15835 17.8746C5.16183 17.8812 5.16534 17.8878 5.16886 17.8944C5.23433 18.0168 5.30423 18.1328 5.37478 18.2368C5.44687 18.3429 5.51241 18.4271 5.57698 18.4983C5.65728 18.5868 5.74184 18.6769 5.8265 18.7646C5.9118 18.8531 5.99716 18.9391 6.0842 19.0255C6.17084 19.1114 6.25828 19.1964 6.34654 19.2812C6.37498 19.3085 6.40508 19.3372 6.4337 19.3645C6.44674 19.3769 6.45987 19.3893 6.47297 19.4017C6.31647 19.221 6.15964 19.0313 6.00868 18.8315C5.79157 18.5432 5.58369 18.2245 5.41616 17.8664C5.311 17.6407 5.2234 17.4 5.16791 17.1415C5.04874 16.5988 4.90312 16.0037 4.73692 15.3394ZM9.0737 21.8468C8.99096 21.7956 8.87071 21.7205 8.72026 21.6135C8.68474 21.5882 8.64709 21.561 8.60868 21.5322C8.60951 21.533 8.61043 21.5337 8.61127 21.5345C8.69973 21.6154 8.78453 21.6879 8.87801 21.7615C9.04567 21.8932 9.21672 22.0105 9.39662 22.1171C9.57727 22.224 9.76469 22.3185 9.95843 22.4001C10.1527 22.4821 10.3535 22.551 10.557 22.6064C10.7626 22.6623 10.9698 22.7047 11.1818 22.7349C11.2494 22.7446 11.3174 22.7529 11.3858 22.76C11.2346 22.7327 11.0792 22.7015 10.9178 22.662C10.7887 22.6304 10.656 22.5934 10.519 22.5483C10.4664 22.5309 10.4039 22.5084 10.3313 22.4803C10.0443 22.368 9.60742 22.176 9.0737 21.8468ZM13.1455 22.7167C13.1966 22.7129 13.2479 22.7091 13.2983 22.7055C13.4413 22.6951 13.5815 22.6851 13.7183 22.6743C13.8143 22.6666 13.9092 22.6587 14.0029 22.6498C14.0424 22.6461 14.0818 22.6422 14.1206 22.6382C14.1861 22.6315 14.2509 22.6242 14.3149 22.6166C13.8625 22.6509 13.4195 22.6679 12.9578 22.6717C12.9517 22.6718 12.9456 22.6719 12.9395 22.6719C13.0092 22.6877 13.0783 22.7026 13.1455 22.7167Z" fill="#D9315A"/>
<path d="M12.643 14.8095C12.7087 14.6962 12.7968 14.6145 12.9131 14.5026C12.9131 14.5025 12.9132 14.5024 12.9132 14.5024C12.9294 14.4871 12.9462 14.4714 12.9634 14.4549C13.1037 14.3197 13.2791 14.1424 13.4969 13.8418C13.7364 13.5116 14.0209 13.304 14.2372 13.2015C14.2776 13.1822 14.3094 13.1553 14.3684 13.08C14.4073 13.0303 14.457 12.9606 14.5299 12.8584C14.5677 12.8058 14.6118 12.744 14.6646 12.6709C14.8384 12.4303 15.0686 12.0252 15.2798 11.6551C15.4089 11.4289 15.5321 11.2137 15.6302 11.0571C15.762 10.8466 15.9017 10.6546 16.056 10.4451C16.0611 10.4315 16.0892 10.3975 16.095 10.3842C16.1129 10.3625 16.131 10.3406 16.1492 10.3186C16.3234 10.1086 16.5121 9.88591 16.7202 9.62293C16.88 9.42111 17.1094 9.28014 17.3508 9.14631C17.3815 9.1293 17.4124 9.11231 17.4434 9.09539C17.6574 8.97857 17.8763 8.86175 18.0718 8.7053C18.4202 8.42675 18.5992 8.12968 18.8001 7.80119C18.8787 7.67282 18.9606 7.53978 19.0574 7.40179C19.2104 7.18364 19.4552 6.89048 19.7034 6.5993C19.7245 6.57451 19.7456 6.54959 19.7667 6.52484C19.7668 6.52471 19.7669 6.52458 19.767 6.52446C19.9945 6.2581 20.2186 5.99822 20.3723 5.79874C20.6166 5.48184 20.6829 5.34133 20.738 5.22377C20.7588 5.17965 20.7779 5.13872 20.8044 5.09311C20.9001 4.92883 21.0873 4.71732 21.2769 4.50333C21.2776 4.5025 21.2783 4.50167 21.279 4.50084C21.3105 4.4653 21.4214 4.50912 21.5267 4.59869C21.632 4.68827 21.6919 4.78977 21.6604 4.8253C21.5601 4.93862 21.462 5.04938 21.3783 5.15175C21.4645 5.23377 21.51 5.3191 21.4817 5.35109C21.411 5.43113 21.2672 5.73886 21.0492 6.22476C21.0884 6.21182 21.1234 6.20295 21.1553 6.19618C21.1928 6.18824 21.2231 6.18357 21.2492 6.17952C21.3035 6.17107 21.3395 6.16533 21.3845 6.13915C21.4727 6.06537 21.5909 5.93185 21.7153 5.79122C21.7467 5.75569 21.8574 5.7994 21.9628 5.88884C22.0681 5.97834 22.1282 6.07963 22.0968 6.11518C22.0962 6.11589 22.0956 6.11659 22.095 6.1173C21.972 6.25641 21.8504 6.39408 21.758 6.47073C21.7344 6.49027 21.7128 6.50596 21.6959 6.5171C21.6823 6.526 21.665 6.53678 21.6518 6.53981C21.6501 6.54021 21.6466 6.54089 21.642 6.54123C21.6419 6.54122 21.6418 6.54121 21.6417 6.5412C21.6391 6.5414 21.626 6.5425 21.6041 6.53699C21.5996 6.53587 21.5898 6.5333 21.5752 6.52763C21.5735 6.52789 21.5718 6.52815 21.5701 6.52842C21.5463 6.53213 21.522 6.53594 21.4971 6.5412C21.3997 6.5619 21.2606 6.60718 21.0317 6.7532C20.8212 6.88761 20.537 7.17477 20.2174 7.56237C20.247 7.54274 20.2764 7.52286 20.3054 7.50274C20.3784 7.45222 20.4501 7.40014 20.5212 7.34734C20.5483 7.32717 20.5751 7.30723 20.6021 7.28673C20.6457 7.25379 20.6894 7.22054 20.7327 7.18719C20.762 7.1647 20.7912 7.14206 20.8205 7.11949C20.8206 7.11942 20.8206 7.11936 20.8207 7.1193C20.8613 7.08797 20.9021 7.05652 20.9434 7.02511C20.958 7.01428 20.9724 7.0035 20.9866 6.99276C21.0432 6.95002 21.0989 6.90776 21.1722 6.86726C21.1821 6.86318 21.1937 6.85942 21.2028 6.85697C21.2124 6.85427 21.222 6.85187 21.2313 6.84987C21.2396 6.84811 21.2477 6.84664 21.2554 6.84514C21.2564 6.84494 21.2574 6.84473 21.2585 6.84452C21.267 6.84284 21.2751 6.84113 21.2828 6.83942C21.2905 6.83772 21.2979 6.83608 21.3048 6.83412C21.3048 6.83408 21.3048 6.83404 21.3049 6.834C21.312 6.8319 21.3174 6.83029 21.3243 6.82754C21.333 6.82408 21.3402 6.82085 21.3483 6.81646C21.3561 6.81222 21.364 6.80748 21.3715 6.80243C21.3791 6.79739 21.3866 6.79201 21.3939 6.7864C21.4013 6.7808 21.4086 6.775 21.4159 6.769C21.4231 6.76301 21.4303 6.75679 21.4374 6.75054C21.4446 6.74428 21.4519 6.73795 21.4592 6.73154C21.4759 6.71679 21.5107 6.71847 21.5567 6.73691C21.6027 6.75536 21.656 6.78885 21.7052 6.83042C21.7545 6.87201 21.7962 6.91866 21.8217 6.96051C21.8471 7.00235 21.8541 7.03587 21.8418 7.05421C21.8384 7.0592 21.8351 7.06426 21.8316 7.06928C21.8296 7.07225 21.8275 7.0752 21.8254 7.07818C21.8199 7.0862 21.8144 7.09436 21.8086 7.10235C21.8028 7.11034 21.7968 7.11823 21.7906 7.12612C21.7843 7.13403 21.7778 7.14192 21.7709 7.1496C21.7639 7.15727 21.7565 7.16483 21.7485 7.1721C21.7407 7.17923 21.7312 7.18681 21.722 7.19304C21.7153 7.19765 21.7064 7.20268 21.6987 7.20672C21.6907 7.21093 21.6825 7.21478 21.6744 7.2183C21.6662 7.22183 21.658 7.22501 21.6502 7.22807C21.6494 7.22841 21.6486 7.22875 21.6478 7.22909C21.6409 7.2318 21.6343 7.2344 21.6281 7.23697C21.6213 7.23986 21.615 7.24279 21.6093 7.24576C21.6029 7.249 21.5995 7.25134 21.5955 7.25429C21.5478 7.29867 21.4978 7.36107 21.4502 7.42039C21.4442 7.42785 21.4382 7.43523 21.4323 7.44255C21.4012 7.48167 21.3703 7.52098 21.3396 7.56021C21.3173 7.58872 21.295 7.61728 21.2725 7.64576C21.2395 7.68776 21.2061 7.7297 21.1727 7.77138C21.1519 7.79724 21.1314 7.82249 21.1104 7.84811C21.0556 7.9151 20.9999 7.98142 20.9425 8.04649C20.885 8.11155 20.8258 8.17542 20.7636 8.23727C20.7017 8.29892 20.6346 8.36014 20.5639 8.41507C20.5118 8.45523 20.4501 8.48954 20.3909 8.51964C20.359 8.53583 20.3274 8.55137 20.2961 8.56655C20.2959 8.56658 20.2958 8.56661 20.2957 8.56665C20.2682 8.57997 20.241 8.59311 20.2145 8.6065C20.1577 8.63509 20.1035 8.66499 20.0523 8.69709C20.0012 8.72915 19.9532 8.76322 19.9078 8.80024C19.8628 8.83695 19.8199 8.87653 19.7801 8.9178C19.7401 8.95931 19.7033 9.00216 19.6667 9.04868C19.6189 9.10995 19.5746 9.17356 19.5298 9.23918C19.4856 9.30436 19.4421 9.37115 19.3987 9.43805C19.3836 9.46144 19.3683 9.48476 19.3532 9.50824C19.3531 9.50833 19.3531 9.50841 19.353 9.5085C19.325 9.55202 19.297 9.59568 19.269 9.63923C19.2257 9.70639 19.1821 9.77382 19.1376 9.84064C19.0932 9.90736 19.0476 9.97414 19.0001 10.0396C18.9525 10.1049 18.9017 10.171 18.8454 10.233C18.7953 10.2883 18.7429 10.3431 18.6919 10.3965C18.6784 10.4106 18.665 10.4248 18.6515 10.4389C18.5878 10.5062 18.5279 10.5725 18.4748 10.6427C18.4216 10.7127 18.3745 10.7867 18.3317 10.8651C18.2891 10.9432 18.2507 11.0252 18.2148 11.11C18.1788 11.195 18.1463 11.2809 18.115 11.3694C18.0841 11.4573 18.0547 11.5468 18.0266 11.6377C18.0214 11.6543 18.016 11.671 18.0104 11.6878L18.0413 11.6394C18.031 11.6758 18.0198 11.7121 18.0085 11.7467C17.9917 11.7986 17.9739 11.8492 17.956 11.8987C17.9487 11.9187 17.9413 11.9386 17.9341 11.9583C17.9236 11.9871 17.9131 12.0155 17.9032 12.0435C17.8865 12.0909 17.8699 12.1394 17.8563 12.1864C17.8426 12.2336 17.8316 12.2805 17.8242 12.3275C17.8166 12.3762 17.8135 12.418 17.8137 12.4702C17.8021 12.5906 17.7798 12.659 17.7565 12.7329C17.7519 12.7475 17.7473 12.7625 17.7426 12.7781C17.7135 12.8661 17.6806 12.9506 17.6438 13.0345C17.607 13.1185 17.5682 13.1986 17.5266 13.2774C17.4848 13.3564 17.4389 13.4357 17.3919 13.5113C17.3449 13.5868 17.2957 13.6604 17.2427 13.7346C17.1901 13.8081 17.1344 13.8804 17.0787 13.9482C17.0459 13.9885 17.0093 14.0301 16.9747 14.0679C16.9498 14.0951 16.9248 14.1216 16.9005 14.1474C16.8905 14.158 16.8806 14.1684 16.8709 14.1788C16.8375 14.214 16.8046 14.2501 16.7747 14.2858C16.7449 14.3214 16.7179 14.3566 16.6944 14.3926C16.6709 14.4286 16.6509 14.4653 16.634 14.5035C16.6165 14.5435 16.6034 14.5795 16.5908 14.6262C16.5827 14.6567 16.575 14.6866 16.5674 14.7164C16.556 14.7609 16.5452 14.8051 16.5348 14.8495C16.5241 14.8943 16.5133 14.9401 16.5035 14.9853C16.5003 14.9999 16.4969 15.0153 16.4939 15.0299C16.4845 15.0751 16.4759 15.1199 16.4682 15.1648C16.4609 15.2091 16.4529 15.2559 16.4467 15.3019C16.4403 15.3481 16.4351 15.3939 16.431 15.441C16.4243 15.5206 16.4027 15.5888 16.3805 15.6478C16.358 15.7069 16.3339 15.7594 16.3106 15.8101C16.3062 15.8196 16.3018 15.8291 16.2975 15.8385C16.2779 15.8804 16.2584 15.9217 16.2403 15.9623C16.218 16.0124 16.1975 16.0617 16.1784 16.1114C16.1586 16.162 16.1396 16.2143 16.1231 16.2657C16.1063 16.3181 16.0928 16.3668 16.0781 16.4233C16.0635 16.4791 16.0529 16.5376 16.0416 16.6008C16.0308 16.6628 16.0175 16.7301 16.0018 16.7958C15.9859 16.8621 15.9694 16.9238 15.9468 16.9884C15.9247 17.0523 15.9002 17.1136 15.8739 17.1716C15.8467 17.2313 15.8162 17.2905 15.7852 17.3459C15.7549 17.4 15.7182 17.4601 15.6841 17.5118C15.6298 17.5939 15.5694 17.6825 15.5124 17.7637C15.4521 17.8504 15.395 17.9299 15.3317 18.0175C15.2716 18.1 15.207 18.1882 15.1432 18.2728C15.0775 18.3605 15.0099 18.4491 14.9404 18.5376C14.9241 18.5587 14.9078 18.5794 14.8916 18.5999C14.8362 18.6697 14.7752 18.746 14.7074 18.8277C14.7069 18.8282 14.7064 18.8288 14.7059 18.8293C14.6199 18.9314 14.5291 19.0425 14.3685 19.2072C14.3134 19.2628 14.2369 19.3383 14.1346 19.4227C13.3885 19.8477 12.3218 20.1039 11.7628 19.4522C11.7613 19.4509 11.7598 19.4496 11.7583 19.4483C11.7212 19.4161 11.6853 19.3844 11.6491 19.3524C11.6143 19.3216 11.5824 19.2933 11.5493 19.2644C11.5149 19.2344 11.4861 19.2095 11.4544 19.1832C11.4261 19.1596 11.3949 19.1347 11.3657 19.1116C11.363 19.1094 11.3602 19.1072 11.3575 19.105C11.3245 19.0787 11.2873 19.0467 11.2556 19.0151C11.1746 18.9337 11.0962 18.8558 11.016 18.778C10.938 18.7022 10.8585 18.6266 10.7801 18.5526C10.7489 18.5231 10.7185 18.4946 10.6881 18.4658C10.6407 18.421 10.5927 18.3752 10.5464 18.3303C10.4688 18.2552 10.3943 18.1805 10.3203 18.102C10.248 18.0252 10.1765 17.9447 10.1092 17.8636C10.0412 17.7817 9.97646 17.6983 9.91433 17.6132C9.84553 17.5188 9.77857 17.4237 9.71225 17.3281C9.64605 17.2327 9.58085 17.1369 9.51647 17.0414C9.45204 16.9458 9.38815 16.8501 9.3249 16.7544C9.26167 16.6588 9.19862 16.5628 9.13681 16.4678C9.09932 16.4104 9.06214 16.3531 9.02567 16.2965C8.99245 16.279 8.9606 16.2627 8.93023 16.247C8.70565 16.1314 8.54465 16.0502 8.36125 15.9237C8.34195 15.913 8.32375 15.9071 8.30183 15.9001C8.29765 15.8987 8.2933 15.8972 8.28882 15.8958C8.26038 15.8865 8.22926 15.8755 8.19222 15.8516C8.12004 15.8057 8.03105 15.7132 7.9996 15.5247C7.99089 15.4764 8.0635 15.3623 8.16039 15.2679C8.22848 15.2019 8.29142 15.164 8.32717 15.1652C8.30096 15.1191 8.28015 15.0775 8.25539 15.0332C8.24611 15.016 8.25431 14.9818 8.27805 14.937C8.30183 14.8922 8.33892 14.8403 8.38179 14.7923C8.42468 14.7443 8.47026 14.7039 8.50979 14.6801C8.54925 14.6562 8.57941 14.6511 8.59386 14.6654C8.63297 14.704 8.66815 14.7401 8.70833 14.7801C8.7452 14.8172 8.7869 14.8582 8.8253 14.8958C8.86421 14.9338 8.90629 14.9744 8.94589 15.0123C8.98631 15.0509 9.02808 15.0908 9.06884 15.1292C9.11054 15.1686 9.15214 15.2075 9.19371 15.2464C9.21874 15.2698 9.24489 15.2944 9.26985 15.3176C9.27907 15.3263 9.28824 15.3346 9.29734 15.3431C9.30478 15.35 9.31221 15.357 9.31992 15.3642C9.40226 15.4409 9.48439 15.5172 9.56665 15.5934C9.6495 15.6703 9.73193 15.7467 9.81545 15.8241C9.89818 15.9007 9.98186 15.9779 10.0654 16.055C10.1489 16.132 10.2327 16.2092 10.3167 16.2862C10.4007 16.363 10.485 16.4401 10.5699 16.5166C10.6356 16.5759 10.7009 16.6341 10.7671 16.6924C10.8003 16.7084 10.8327 16.7247 10.8644 16.7408C10.9574 16.7885 11.0572 16.8277 11.157 16.8672C11.0212 16.758 10.9007 16.6821 10.7859 16.6096C10.7705 16.5999 10.7551 16.5902 10.7399 16.5805C10.5849 16.4822 10.4389 16.3831 10.2856 16.2103C9.84972 15.7187 9.59932 15.436 9.45768 15.2463C9.31647 15.0571 9.27809 14.9523 9.27919 14.8201C9.27845 14.6307 9.14583 14.3975 9.05208 14.3087C9.01851 14.2766 9.06694 14.1684 9.15857 14.0649C9.25142 13.9625 9.35483 13.9056 9.39071 13.9398C9.49571 14.0389 9.64917 14.2944 9.65083 14.5211C9.65174 14.6221 9.67812 14.7124 9.81941 14.901C9.96094 15.0899 10.2118 15.3727 10.649 15.8659C10.797 16.0327 10.9371 16.1281 11.0902 16.2252C11.1052 16.2347 11.1205 16.2442 11.1358 16.2538C11.1359 16.2539 11.136 16.254 11.1361 16.2541C11.2772 16.3429 11.431 16.4398 11.6096 16.5966C12.0214 16.9615 12.6028 17.4127 12.7635 17.4895C12.7949 17.5055 12.8252 17.5186 12.8579 17.5329C12.9449 17.5714 13.0409 17.6132 13.1811 17.6888L12.6728 17.6951C12.6828 17.6693 12.7277 17.6015 12.7793 17.5159C12.8159 17.4561 12.8621 17.385 12.9163 17.3032C12.9443 17.1442 12.9673 16.9947 13.0056 16.8664C13.0355 16.7605 13.0398 16.643 13.0367 16.526C13.0363 16.4915 13.0343 16.4578 13.0324 16.4242C13.0275 16.3435 13.026 16.257 13.0283 16.1841C13.0309 16.1248 13.0313 16.0577 13.0305 15.9887C13.0278 15.7369 13.0228 15.4358 13.1936 15.1447C13.3743 14.8365 13.5563 14.5847 13.7156 14.3703C13.5876 14.5231 13.4777 14.6325 13.3844 14.722C13.3669 14.7388 13.3501 14.7546 13.3339 14.7699C13.2163 14.8835 13.135 14.9587 13.0737 15.0645C12.7888 15.5553 12.7159 15.7561 12.6967 16.0225C12.6918 16.0922 12.6912 16.1751 12.6931 16.2597C12.6927 16.4357 12.6951 16.6305 12.6493 16.811C12.6068 16.9784 12.5756 17.1744 12.5442 17.3578C12.5441 17.3578 12.5441 17.3579 12.544 17.3579C12.5393 17.3918 12.5325 17.4275 12.53 17.4567C12.5261 17.4925 12.5222 17.5244 12.5386 17.5365L13.3113 17.5269C13.1233 17.4843 12.9144 17.4019 12.7311 17.3026C12.7064 17.289 12.676 17.2737 12.6419 17.2567C12.4424 17.1568 12.0893 16.9692 11.8178 16.5818C11.7582 16.4968 11.7093 16.3964 11.6533 16.2809C11.6364 16.2458 11.619 16.2095 11.6003 16.1717C11.5195 16.0088 11.4159 15.8167 11.247 15.5891C11.1076 15.4012 10.922 15.1864 10.7277 14.9633C10.6316 14.8531 10.5337 14.741 10.4381 14.6296C10.1477 14.2923 9.89316 13.9709 9.60294 13.6464C9.60288 13.6463 9.60281 13.6463 9.60275 13.6462C9.57033 13.6097 9.61359 13.4926 9.70716 13.3909C9.79947 13.2882 9.90901 13.2412 9.94395 13.28C10.2504 13.6198 10.5061 13.9432 10.7992 14.283C10.8941 14.3936 10.9921 14.5056 11.0883 14.6159C11.2846 14.8412 11.4731 15.0593 11.6138 15.2488C11.7856 15.4803 11.8904 15.6754 11.9719 15.84C11.9916 15.8797 12.0092 15.9168 12.0267 15.9527C12.0815 16.0662 12.1269 16.1604 12.1827 16.2402C12.4433 16.6128 12.778 16.7889 12.9737 16.8855C13.0085 16.9027 13.038 16.9169 13.0638 16.931C13.2451 17.0273 13.4548 17.1064 13.6283 17.1328L12.212 17.1504C12.1715 17.1632 12.1601 17.1532 12.1527 17.1357C12.1456 17.1179 12.1453 17.0917 12.1456 17.0639C12.1455 17.0638 12.1455 17.0637 12.1455 17.0637C12.1525 16.914 12.1861 16.7146 12.2235 16.5529C12.2628 16.3869 12.2615 16.2091 12.2584 16.0447C12.2581 15.9542 12.2547 15.8719 12.2616 15.7885C12.2795 15.5104 12.3586 15.2995 12.643 14.8095ZM8.36563 15.2341C8.39773 15.3504 8.44973 15.4192 8.49778 15.4602C8.47007 15.4133 8.43944 15.3629 8.41268 15.316C8.39792 15.2897 8.38067 15.2609 8.36563 15.2341ZM13.3353 17.5768C13.3318 17.5962 13.3281 17.6159 13.3235 17.637C13.3512 17.5906 13.3753 17.5489 13.403 17.5014C13.4332 17.4485 13.467 17.3897 13.497 17.3362C13.4404 17.4199 13.3857 17.5009 13.3353 17.5768ZM13.6243 15.4C13.4624 15.676 13.4675 15.9511 13.4675 16.2052C13.4691 16.2757 13.4677 16.3486 13.4643 16.4151C13.4628 16.4429 13.4626 16.4711 13.4631 16.4997C13.5441 16.3828 13.6201 16.2733 13.683 16.1825C13.8678 15.9158 14 15.7767 14.1147 15.6572C14.1482 15.6223 14.1814 15.5866 14.2121 15.553C14.2169 15.5121 14.2228 15.4696 14.2308 15.4274C14.2417 15.3684 14.2566 15.3043 14.2707 15.2474C14.2853 15.1893 14.3024 15.1307 14.3213 15.0735C14.3411 15.0147 14.3595 14.9623 14.3811 14.9075C14.401 14.8565 14.4224 14.8057 14.4433 14.756C14.4445 14.7532 14.4457 14.7503 14.4468 14.7476C14.4678 14.697 14.4886 14.6473 14.505 14.5995C14.5216 14.5508 14.5326 14.5081 14.5358 14.4661C14.5396 14.414 14.5439 14.3631 14.55 14.312C14.5561 14.2611 14.5634 14.2108 14.572 14.1608C14.5809 14.1103 14.5894 14.0626 14.5992 14.0147C14.6023 13.9993 14.6057 13.9831 14.609 13.9678C14.6105 13.9607 14.612 13.9536 14.6135 13.9466C14.566 14.0238 14.516 14.1033 14.4623 14.1864C14.3861 14.3039 14.2942 14.4276 14.1954 14.5597C14.0242 14.7895 13.8276 15.0533 13.6243 15.4ZM15.278 12.7336C15.2587 12.7687 15.2339 12.8183 15.1992 12.8869C15.1911 12.9029 15.1827 12.9199 15.1738 12.9375C15.1741 12.9372 15.1744 12.9368 15.1747 12.9364C15.2104 12.9012 15.2439 12.8664 15.2766 12.8313C15.3357 12.7674 15.3918 12.7035 15.4468 12.637C15.5026 12.5693 15.5542 12.5039 15.6049 12.4355C15.6555 12.3673 15.7052 12.296 15.7516 12.2253C15.7978 12.155 15.8419 12.0838 15.8839 12.0096C15.8974 11.986 15.9106 11.9621 15.9235 11.9379C15.8814 11.984 15.8402 12.0329 15.7969 12.0842C15.7624 12.1251 15.7265 12.1676 15.6879 12.2112C15.6728 12.2284 15.6533 12.2487 15.6307 12.2721C15.5408 12.3653 15.4022 12.5074 15.278 12.7336ZM16.1517 11.2868C16.159 11.2682 16.1665 11.2498 16.1743 11.2319C16.1967 11.1809 16.2211 11.1323 16.2459 11.0849C16.2629 11.0523 16.2801 11.0206 16.2971 10.9891C16.3043 10.9758 16.3114 10.9624 16.3185 10.9492C16.3303 10.9271 16.342 10.9049 16.3535 10.8829C16.2515 11.0233 16.1531 11.165 16.0593 11.3148C16.058 11.3168 16.0569 11.3188 16.0557 11.3208C16.0883 11.3092 16.1204 11.2979 16.1517 11.2868Z" fill="#D9315A"/>
</g>
<defs>
<clipPath id="clip0_877_387">
<rect width="28" height="28" fill="white"/>
</clipPath>
</defs>
</svg>
