<svg width="39" height="30" viewBox="0 0 39 30" fill="none" xmlns="http://www.w3.org/2000/svg">
<path d="M19.0704 1C17.9188 1 16.8118 1.32473 15.6732 1.39986C15.0821 1.43887 14.6878 1.78941 14.1151 1.88983C13.5032 1.99712 12.9761 2.39089 12.3807 2.52623C11.9311 2.62842 11.4939 3.00182 11.0427 3.02746C10.2662 3.07159 9.70266 3.49161 9.06056 3.88913C8.58141 4.18577 7.96958 4.41366 7.57394 4.79586C7.26051 5.09865 7.04936 5.04661 6.67647 5.21825C6.54837 5.27721 6.14539 5.45906 6.18093 5.45478C6.79153 5.38131 7.40782 5.13626 7.9043 4.76207C8.36594 4.41414 9.03885 4.32 9.45699 3.93982C9.52042 3.88215 9.77254 3.81184 9.69375 3.84408C9.40169 3.96357 9.11122 4.24191 8.86785 4.44105C8.30738 4.89968 7.64617 5.11458 7.02335 5.46042C7.01866 5.46302 7.01401 5.46567 7.00939 5.46836M7.00939 5.46836C6.7849 5.59935 6.63275 5.8426 6.47883 6.08019M7.00939 5.46836C7.07989 5.33662 6.87858 5.44613 6.704 5.46042C6.53804 5.474 6.06219 6.01829 5.88911 6.17566C5.50799 6.52218 5.52534 6.65086 5.37155 7.05986C5.35832 7.09504 5.33896 7.13224 5.31455 7.17091M7.00939 5.46836C6.99077 5.50315 6.95321 5.55475 6.8912 5.62937C6.76076 5.78633 6.62223 5.9356 6.47883 6.08019M6.47883 6.08019C6.41111 6.18474 6.34304 6.28818 6.26832 6.38049M6.47883 6.08019C6.24502 6.31597 5.99828 6.53936 5.75263 6.76354M6.26832 6.38049C6.18588 6.48233 6.09534 6.57061 5.98822 6.63184C5.94026 6.65925 5.89026 6.68578 5.84049 6.71326M6.26832 6.38049C6.38483 6.30173 6.50428 6.23095 6.62691 6.17003C7.0176 5.97593 7.67005 5.5729 7.12796 6.17003C6.46804 6.89695 6.03748 7.61895 5.47616 8.42276C5.34777 8.60662 5.18343 8.77755 5.03188 8.95453M6.26832 6.38049C6.12118 6.47994 5.97873 6.59213 5.84049 6.71326M5.84049 6.71326C5.81096 6.72956 5.78152 6.74619 5.75263 6.76354M5.84049 6.71326C5.69761 6.83845 5.55922 6.9732 5.4248 7.11333M5.75263 6.76354C5.63743 6.83274 5.53109 6.91332 5.46381 7.02955M5.75263 6.76354C5.6559 6.85182 5.55934 6.94022 5.46381 7.02955M5.46381 7.02955C5.44873 7.0556 5.43562 7.08344 5.4248 7.11333M5.46381 7.02955C5.41373 7.07638 5.36394 7.12346 5.31455 7.17091M5.4248 7.11333C5.41674 7.13562 5.40995 7.15906 5.40459 7.18376C5.35043 7.43301 5.4874 7.78283 5.33851 8.00037C5.1395 8.29117 5.127 8.64163 5.03188 8.95453M5.4248 7.11333C5.09901 7.45296 4.79652 7.82421 4.50977 8.16767M5.03188 8.95453C5.01577 9.00754 4.99728 9.05947 4.97512 9.10985C4.9234 9.2274 4.60071 10.1231 4.60071 9.87014C4.60071 9.50655 4.80151 9.22355 5.03188 8.95453ZM4.50977 8.16767C4.44196 8.24889 4.37504 8.32855 4.30889 8.40587C3.98162 8.78845 3.7642 9.2501 3.53255 9.69556C3.3605 10.0264 3.4247 10.3759 3.23523 10.7093C3.02996 11.0704 2.81677 11.677 2.81677 12.1004C2.81677 12.6605 1.63499 13.245 1.84772 12.3988C1.8948 12.2116 2.07737 12.0824 2.11751 11.8976C2.15833 11.7097 2.1067 11.5287 2.17257 11.3401C2.34041 10.8594 2.19826 10.3055 2.39832 9.81946C2.45704 9.6768 2.38556 9.51312 2.42585 9.36891C2.48062 9.17281 3.16216 8.83865 3.33433 8.72125C3.65881 8.49999 3.94573 8.37641 4.25934 8.14117C4.39506 8.03937 4.62099 7.86905 4.8355 7.68195M4.50977 8.16767C4.60597 7.99806 4.71409 7.8357 4.8355 7.68195M4.50977 8.16767C3.62657 9.72482 3.74771 11.893 3.80785 13.6153C3.81606 13.8505 3.89984 14.0578 3.98827 14.2622M4.8355 7.68195C5.02967 7.51258 5.21448 7.32945 5.31455 7.17091M4.8355 7.68195C4.91318 7.58358 4.99631 7.48873 5.08524 7.39777C5.16036 7.32093 5.23695 7.24546 5.31455 7.17091M3.98827 14.2622C4.09301 14.5043 4.20428 14.7422 4.20428 15.0176V14.0433C4.20428 13.9278 4.18734 13.7692 4.1739 13.5999M3.98827 14.2622C4.05227 14.042 4.11416 13.8212 4.1739 13.5999M3.98827 14.2622C3.62902 15.4982 3.20292 16.7159 2.71216 17.8955C2.56911 18.2394 2.4076 18.5908 2.33775 18.9599C2.33667 18.9656 2.32997 19.2306 2.31573 19.1796C2.23808 18.9016 2.22213 18.6728 2.22213 18.3799C2.22213 17.4149 2.23889 16.6671 1.84772 15.7779C1.76922 15.5995 1.56503 15.4104 1.38094 15.2212M4.1739 13.5999C4.15017 13.3009 4.13739 12.9687 4.24833 12.7818C4.31826 12.664 4.39103 12.5536 4.46476 12.448M4.1739 13.5999C4.27727 13.2172 4.37424 12.833 4.46476 12.448M4.46476 12.448C4.90064 11.8237 5.3702 11.3666 5.48718 10.5291C5.53458 10.1896 5.29665 10.5802 5.21738 10.6642C4.88351 11.0184 4.70688 11.3583 4.60071 11.8469C4.55715 12.0474 4.51183 12.2478 4.46476 12.448ZM1.38094 15.2212C1.21366 15.0493 1.06298 14.8774 1.03834 14.7135C0.955415 14.1622 1.03283 13.5453 1.03283 12.9846C1.03283 12.6219 1.62748 12.0111 1.62748 12.7818C1.62748 13.6053 1.46587 14.4036 1.38094 15.2212ZM1.38094 15.2212C1.35068 15.5125 1.33016 15.8063 1.33016 16.1046C1.33016 16.6929 1.34854 17.3125 1.22554 17.8786C1.08334 18.5331 1.03283 19.3371 1.03283 20.0131C1.03283 20.3188 0.960695 20.7604 1.05486 21.0493C1.13375 21.2914 1.35096 21.4758 1.42376 21.7364C1.51534 22.0643 1.72659 22.229 1.72659 22.5925C1.72659 22.7977 1.73206 23.0937 1.88075 23.2458C2.00468 23.3725 2.40293 23.6664 2.42034 23.8089C2.42803 23.8718 2.44701 23.918 2.47379 23.9523M2.47379 23.9523C2.59555 24.1083 2.87848 24.0185 2.99296 24.1356C3.08921 24.234 3.16271 24.3597 3.22981 24.4934M2.47379 23.9523C2.981 23.3643 3.59881 22.8102 4.15473 22.2996C5.01955 21.5053 6.02039 20.7963 7.05638 20.2609C9.0639 19.2234 11.1287 18.2831 13.157 17.2873C15.0554 16.3552 16.9638 15.432 18.8914 14.5632M2.47379 23.9523C2.38631 24.0537 2.30213 24.1561 2.22213 24.2595C1.98024 24.572 1.58956 25.0827 2.29921 24.8565C2.61381 24.7562 2.92386 24.6293 3.22981 24.4934M3.22981 24.4934C3.41195 24.8564 3.54694 25.2791 3.96202 25.3802C3.99525 25.3883 4.45529 25.4303 4.45756 25.4534C4.48443 25.7283 4.34029 25.8648 4.57869 26.118C4.79749 26.3504 4.9683 26.4724 5.23941 26.5516C5.30766 26.5716 5.33251 26.8227 5.39357 26.9008C5.46895 26.9972 5.64388 26.9402 5.75146 26.9571C6.13566 27.0176 6.25956 27.2708 6.60489 27.3795C6.85445 27.4581 6.89023 27.7625 7.13346 27.7625C7.64142 27.7625 7.61477 28.1079 8.09151 28.1905C8.43538 28.2501 8.66977 28.4478 8.98348 28.551C9.22257 28.6296 9.49073 28.5254 9.73229 28.596C10.1072 28.7056 10.2167 28.979 10.5967 28.979C10.8987 28.979 11.2681 29.0389 11.5603 28.9564C12.1466 28.791 12.7659 28.7031 13.3607 28.5678C13.4922 28.538 13.5038 28.3783 13.6966 28.3707C13.8402 28.3651 13.9993 28.4088 14.093 28.2694C14.1924 28.1214 14.9548 27.7625 15.1557 27.7625C15.3703 27.7625 15.8932 27.3822 16.0752 27.2556C16.422 27.0144 16.8102 26.8192 17.1323 26.4897C17.2378 26.3818 17.198 26.1551 17.2865 26.0166C17.3924 25.851 17.53 25.8342 17.6609 25.7125C18.072 25.3302 18.2842 24.7529 18.7401 24.4172C19.0475 24.1908 20.0942 23.8704 19.4008 23.4598C18.9678 23.2034 18.8722 23.1838 18.8722 22.6713V21.6013C18.8722 21.0615 18.9417 20.5221 19.0135 19.983M3.22981 24.4934C3.49147 24.3771 3.75013 24.2542 4.00606 24.1356C5.03207 23.6601 6.26275 23.395 7.3537 23.1219C9.75335 22.521 12.2783 22.1668 14.4784 20.9592C15.2926 20.5124 16.1509 20.2922 17.0332 20.0356C17.543 19.8874 18.0503 19.7587 18.5749 19.6752C18.6211 19.6678 18.8401 19.6165 19.0668 19.5784M19.0135 19.983C19.0315 19.8481 19.0496 19.7132 19.0668 19.5784M19.0135 19.983C19.3849 19.7499 19.6323 19.587 19.621 19.5738C19.5675 19.5113 19.3126 19.5371 19.0668 19.5784M19.0135 19.983C18.0063 20.6151 16.0872 21.7631 15.943 21.8378C14.1527 22.7653 12.4444 23.8502 10.7013 24.8621C9.92669 25.3118 9.20115 25.8647 8.60907 26.546C8.24869 26.9607 9.0495 27.2444 9.30833 27.2444C9.99917 27.2444 10.7411 26.7829 11.3951 26.5911C12.6732 26.2161 13.9444 25.8465 15.2163 25.4422C15.4512 25.3675 16.4811 24.493 16.5927 24.7213M19.0668 19.5784C19.1006 19.3128 19.131 19.0473 19.1498 18.7818M19.1498 18.7818C19.1622 18.6065 19.1695 18.4312 19.1695 18.256C19.1695 17.5696 19.1716 16.7474 19.2742 16.0652C19.3364 15.6514 19.4669 15.2233 19.4669 14.7867L19.4669 14.9865C19.4669 15.5874 19.467 16.1798 19.3623 16.7691C19.2597 17.3463 19.2762 17.9286 19.1916 18.515C19.1788 18.6033 19.1643 18.6924 19.1498 18.7818ZM19.1498 18.7818C19.1099 19.0279 19.0704 19.2771 19.0704 19.5231V18.1715C19.0704 17.3449 19.2384 16.526 19.2687 15.7216C19.2793 15.4392 19.3249 15.06 19.2687 14.7867C19.2455 14.6743 19.0828 14.6058 18.8914 14.5632M18.8914 14.5632C18.6478 14.5089 18.3578 14.4964 18.25 14.4883C18.0977 14.4767 17.6976 14.644 17.7931 14.522C17.8658 14.429 17.9485 14.3835 18.0002 14.3637M18.8914 14.5632C19.0097 14.5098 19.1281 14.4567 19.2466 14.4038C19.472 14.3031 19.7785 14.1785 19.3568 14.1785C18.7262 14.1785 17.8313 13.9875 17.2204 14.2236C17.2121 14.2268 17.2037 14.23 17.1954 14.2332M18.0002 14.3637C18.0581 14.3416 18.0772 14.3517 18.0002 14.3637ZM18.0002 14.3637C17.9469 14.372 17.8475 14.3812 17.6829 14.3812C17.4252 14.3812 17.2895 14.3227 17.1954 14.2332M17.1954 14.2332C17.0291 14.075 16.9928 13.8201 16.6423 13.6209C16.4198 13.4945 16.3699 13.2466 16.0752 13.1422C15.6782 13.0017 15.853 12.8206 15.7944 12.4608C15.7376 12.1123 15.1954 12.2874 14.985 12.0722C14.8135 11.8968 14.6016 11.6533 14.4124 11.5203C13.7633 11.0638 12.6893 11.1373 11.8796 11.1373H9.37991C8.39989 11.1373 7.468 11.5604 6.54983 11.8469C6.16613 11.9667 5.5657 12.3611 5.49819 12.81C5.41619 13.3551 5.24372 13.5592 4.99714 14.0321C4.81426 14.3828 4.46263 14.5998 4.2263 14.9106C4.19709 14.9491 5.0728 14.5515 5.20086 14.4939C5.80531 14.2218 6.47688 14.166 7.08391 13.9138C8.24678 13.4306 9.41838 13.2359 10.6353 12.9395C11.4579 12.7392 12.3761 12.368 13.2121 12.3538C14.1576 12.3377 13.3644 12.8119 12.8377 13.1028C10.9981 14.1189 9.16721 15.1575 7.2546 16.0257C5.71634 16.7241 4.32089 17.7367 2.98746 18.7797C2.69512 19.0084 2.65213 19.5282 2.37629 19.8103C2.26254 19.9267 2.06641 20.11 2.00189 20.2609C1.94974 20.3828 2.26118 20.2102 2.37629 20.1482C2.99864 19.8132 3.62786 19.4822 4.23732 19.1233C6.73872 17.6501 9.27335 16.6016 12.0889 15.9018C13.8669 15.4599 15.494 14.8901 17.1954 14.2332ZM38 1H35.1259C34.6273 1 34.2158 1.40549 33.7439 1.40549C32.9558 1.40549 32.1667 1.89481 31.4369 2.1151C31.122 2.21013 30.7625 2.18204 30.4788 2.36854C30.2749 2.50265 30.2695 2.57096 30.0108 2.63323C29.7015 2.70767 29.4925 2.94644 29.1684 3.00493C28.8238 3.06713 28.5252 3.15029 28.1883 3.25274C27.4395 3.48046 26.9836 4.04767 26.5145 4.58748C26.3337 4.79555 26.3328 4.94853 26.1071 5.1563C25.7896 5.44855 25.4867 5.70449 25.1655 5.96728C24.7286 6.3248 24.3902 6.70921 23.9707 7.09928C23.8656 7.19702 23.7735 7.31418 23.6857 7.43732M23.6857 7.43732C23.53 7.65558 23.3878 7.89263 23.2109 8.07359C23.0471 8.2412 22.6441 8.33625 22.5502 8.55229C22.4701 8.73676 22.3202 8.88108 22.1471 9.01322M23.6857 7.43732C25.1422 6.38037 26.8839 5.07132 26.1071 5.86591C25.8395 6.13961 25.5472 6.30572 25.2647 6.53046C25.0383 6.71058 25.0136 6.88388 24.8407 7.10491C24.3695 7.70738 23.7418 8.08453 23.2109 8.68183C22.8512 9.08655 23.2105 9.84588 23.0127 10.3263C22.9008 10.5981 22.6018 10.9363 22.5447 11.1993C22.49 11.4512 22.5156 11.815 22.385 12.044C22.3415 12.1204 22.2944 12.1918 22.2441 12.2589M23.6857 7.43732C23.1836 7.80162 22.7155 8.13598 22.396 8.34392C22.2186 8.45941 22.1617 8.76254 22.1471 9.01322M22.1471 9.01322C21.8203 9.26266 21.4103 9.46869 21.2288 9.81946C20.9012 10.4523 20.4322 11.3369 20.3588 12.0497C20.3376 12.2563 20.2664 12.5689 20.1826 12.7593C20.0152 13.1398 19.4734 13.7613 20.2157 13.4576C20.974 13.1474 21.7582 12.9069 22.2441 12.2589M22.1471 9.01322C22.1439 9.06747 22.1428 9.11926 22.1428 9.16616C22.1428 10.1638 22.2264 11.1528 22.2419 12.151C22.2424 12.187 22.2432 12.223 22.2441 12.2589M22.2441 12.2589C22.27 13.2822 22.4332 14.2858 22.4399 15.3135M22.4399 15.3135C22.44 15.335 22.4401 15.3566 22.4401 15.3781C22.4401 15.7569 22.2948 16.6613 22.6603 16.9156C23.5725 17.55 23.4331 15.4374 23.2715 15.4006C23.0453 15.3492 22.7168 15.277 22.4399 15.3135ZM22.4399 15.3135C22.3293 15.3281 22.227 15.36 22.1428 15.4175C21.8589 15.6111 21.9678 16.3713 21.7904 16.6565C21.6405 16.8974 21.3637 16.9938 21.2288 17.2647C21.073 17.5775 21.0526 17.8711 21.0526 18.2109V22.5981C21.0526 23.128 21.5365 23.2753 21.7243 23.7076C21.906 24.1258 21.9813 24.6206 22.374 24.9128C22.5152 25.0178 22.6275 25.4461 22.6383 25.6337C22.6514 25.8615 23.2093 26.0672 23.3321 26.287C23.5869 26.743 24.6015 26.6364 24.9838 26.6474C25.5337 26.6632 25.6785 26.8212 26.052 27.1486C26.1401 27.2259 26.2997 27.2846 26.3603 27.3795C26.4857 27.5756 26.3209 27.7455 26.6026 27.7625C26.6665 27.7663 26.7027 27.8079 26.7408 27.8521M26.7408 27.8521C26.7815 27.8992 26.8244 27.9492 26.9054 27.9596C27.1698 27.9934 27.4603 27.9716 27.7258 27.9652C28.4171 27.9488 27.4755 27.8639 27.2578 27.8639C27.0876 27.8639 26.915 27.8593 26.7408 27.8521ZM26.7408 27.8521C26.0939 27.8254 25.4247 27.7625 24.7691 27.7625C24.6878 27.7625 23.991 27.6196 24.2901 27.6836C24.7858 27.7898 25.2566 27.9702 25.7437 28.106C25.9752 28.1706 26.2547 28.1085 26.465 28.2243C27.172 28.6137 28.4531 28.4089 29.2565 28.4721C29.8485 28.5187 30.4659 28.4721 31.0955 28.4721C31.956 28.4721 33.1124 27.9286 33.8155 27.4584C34.3363 27.11 34.857 26.7269 35.4232 26.4221C36.103 26.0561 36.0252 25.093 36.3647 24.4679C36.4144 24.3763 36.4514 24.2795 36.4828 24.1802M36.4828 24.1802C36.5534 23.957 36.5956 23.7212 36.6896 23.5048C36.7911 23.2712 36.9386 22.9708 37.0034 22.7389C37.3066 21.6536 37.4054 20.36 37.4054 19.2472C37.4054 19.2224 37.4069 19.1979 37.4098 19.1737M36.4828 24.1802C36.1288 24.284 35.7816 24.4024 35.4232 24.4679C34.5304 24.6309 33.6324 24.7152 32.7363 24.924C31.7807 25.1468 30.8733 25.5296 29.9502 25.8589C29.2979 26.0917 28.7171 26.4684 28.0342 26.5967C27.3829 26.7191 26.775 26.7488 26.1126 26.7488C25.9906 26.7488 26.4052 26.5406 26.4705 26.501C27.1872 26.0661 27.7448 25.564 28.2874 24.9297C28.868 24.2511 29.6724 23.9568 30.4017 23.4936C32.3165 22.2774 34.4406 21.4851 36.205 20.0187C36.4157 19.8437 36.9886 19.5188 37.4098 19.1737M36.4828 24.1802C36.7195 24.1108 36.9591 24.0479 37.2071 24.0117M37.4098 19.1737C37.4385 18.9325 37.5959 18.7136 37.6033 18.5021M37.4098 19.1737C37.4804 19.1159 37.5467 19.0575 37.6063 18.9991M37.6033 18.5021C37.6035 18.497 37.6036 18.4919 37.6036 18.4869V18.4362C37.6036 18.457 37.6035 18.479 37.6033 18.5021ZM37.6033 18.5021C37.6023 18.6406 37.5995 18.8181 37.6063 18.9991M37.6063 18.9991C37.6179 19.3043 37.6571 19.6198 37.7798 19.7765C37.787 19.7858 37.7936 19.7953 37.7996 19.805M37.6063 18.9991C37.7383 18.8701 37.8375 18.7412 37.8779 18.6191M37.7996 19.805C37.9152 19.9917 37.8019 20.2321 37.7996 19.805ZM37.7996 19.805C37.7994 19.7671 37.8 19.724 37.8018 19.6752C37.8143 19.3301 37.8528 18.9767 37.8779 18.6191M37.8779 18.6191C37.8824 18.5559 37.8864 18.4925 37.8898 18.4289M37.8779 18.6191C37.8864 18.5935 37.8923 18.5682 37.8954 18.5432C37.9009 18.4978 37.8987 18.4601 37.8898 18.4289M37.8898 18.4289C37.8966 18.3022 37.9009 18.175 37.9009 18.0476C37.9009 17.8607 37.9905 17.2804 37.8789 17.1408C37.7636 16.9967 37.7574 16.4729 37.6476 16.4087C37.3838 16.2545 37.0525 16.0059 37.0034 15.7047C36.9505 15.3802 36.4521 15.2066 36.2381 15.012C35.9043 14.7086 35.9187 14.7371 35.9187 14.2292C35.9187 14.0385 36.0001 13.6068 35.8196 13.4914C35.559 13.3248 35.0161 13.0506 34.9222 12.7142C34.7747 12.1863 33.9366 12.3962 33.9366 11.6949C33.9366 11.0578 32.7087 11.2387 32.2903 11.2387C31.3573 11.2387 30.4118 11.0359 29.4547 11.0359C28.3035 11.0359 27.1951 11.098 26.1291 11.5653C25.3108 11.924 24.4168 12.2273 23.6349 12.6579C23.3305 12.8256 22.9751 13.2032 22.8585 13.5477C22.8139 13.6797 22.8865 13.8752 22.7759 13.9758C22.6506 14.0897 22.4506 14.1874 22.4401 14.3812C22.4362 14.4531 22.4063 14.6675 22.4511 14.7248C22.511 14.8014 23.7909 14.1784 23.9322 14.1222C25.8779 13.3482 27.9717 12.882 29.9943 12.3763C30.0886 12.3527 30.319 12.2752 30.5243 12.2031M37.8898 18.4289C37.7861 18.065 36.7721 18.6131 36.6125 18.6389C35.8904 18.7555 35.3495 19.1174 34.6744 19.3429C33.4866 19.7396 32.3039 20.0735 31.1561 20.5932C30.4852 20.8969 29.8453 21.3018 29.1684 21.5787C27.8743 22.1082 26.4873 22.3641 25.127 22.6375C25.0159 22.6599 23.3782 23.0755 23.778 22.6938C23.9382 22.541 24.3109 22.2098 24.3231 21.9842C24.3445 21.5915 24.693 21.5046 24.9728 21.2183C25.1192 21.0686 25.231 20.9106 25.3348 20.749M30.5243 12.2031C30.7632 12.1192 30.9683 12.0426 30.8863 12.0666C30.7677 12.1012 30.6467 12.1474 30.5243 12.2031ZM30.5243 12.2031C29.6767 12.589 28.7666 13.4305 28.1828 14.0433C27.6976 14.5528 27.2626 15.1097 26.7788 15.6203C26.3803 16.0408 25.8236 16.4935 25.5455 17.0057C25.0749 17.872 24.3443 18.6358 23.723 19.3936C23.1005 20.1528 22.4405 20.7123 22.341 21.7815C22.2813 22.4223 22.1123 22.6134 22.7925 22.0856C23.2988 21.6927 23.866 21.4791 24.4333 21.1958C24.7333 21.0459 25.0338 20.8968 25.3348 20.749M25.3348 20.749C26.1959 20.3261 27.0615 19.9131 27.9351 19.5175C29.5395 18.791 31.5444 17.9482 32.7968 16.6115C33.2968 16.0778 34.0519 15.7043 34.5092 15.1697C34.9168 14.6932 33.4857 15.8832 32.9565 16.2116C31.464 17.1378 29.8552 17.8793 28.2985 18.684C27.7733 18.9554 27.2562 19.2397 26.7403 19.5287C26.4144 19.7113 25.9152 19.889 25.6831 20.2102C25.553 20.3902 25.4487 20.5718 25.3348 20.749Z" stroke="#D9315A" stroke-width="2" stroke-linecap="round"/>
</svg>
