<svg width="52" height="52" viewBox="0 0 52 52" fill="none" xmlns="http://www.w3.org/2000/svg">
<rect x="1.5" y="1.5" width="49" height="49" rx="24.5" fill="white"/>
<rect x="1.5" y="1.5" width="49" height="49" rx="24.5" stroke="#381067" stroke-width="3"/>
<path d="M21.2663 33.5V31.9091L26.1882 26.8097C26.7138 26.2557 27.147 25.7704 27.4879 25.3537C27.8336 24.9323 28.0916 24.5322 28.2621 24.1534C28.4325 23.7746 28.5178 23.3722 28.5178 22.946C28.5178 22.4631 28.4041 22.0464 28.1768 21.696C27.9496 21.3409 27.6394 21.0687 27.2464 20.8793C26.8535 20.6851 26.4107 20.5881 25.9183 20.5881C25.3975 20.5881 24.9429 20.6946 24.5547 20.9077C24.1664 21.1207 23.8681 21.4214 23.6598 21.8097C23.4515 22.1979 23.3473 22.6525 23.3473 23.1733H21.2521C21.2521 22.2879 21.4557 21.5137 21.8629 20.8509C22.2701 20.188 22.8288 19.6742 23.5391 19.3097C24.2493 18.9403 25.0566 18.7557 25.9609 18.7557C26.8748 18.7557 27.6797 18.938 28.3757 19.3026C29.0765 19.6624 29.6233 20.1548 30.0163 20.7798C30.4093 21.4001 30.6058 22.1009 30.6058 22.8821C30.6058 23.4219 30.504 23.9498 30.3004 24.4659C30.1016 24.982 29.7536 25.5573 29.2564 26.1918C28.7592 26.8215 28.0679 27.5862 27.1825 28.4858L24.2919 31.5114V31.6179H30.8402V33.5H21.2663Z" fill="#381067"/>
</svg>
