<svg width="52" height="52" viewBox="0 0 52 52" fill="none" xmlns="http://www.w3.org/2000/svg">
<rect x="1.5" y="1.5" width="49" height="49" rx="24.5" fill="white"/>
<rect x="1.5" y="1.5" width="49" height="49" rx="24.5" stroke="#381067" stroke-width="3"/>
<path d="M25.9991 33.6989C25.109 33.6989 24.3088 33.5284 23.5985 33.1875C22.8931 32.8419 22.3296 32.3684 21.9082 31.767C21.4868 31.1657 21.2619 30.4792 21.2335 29.7074H23.3642C23.4163 30.3324 23.6932 30.8461 24.1951 31.2486C24.697 31.651 25.2984 31.8523 25.9991 31.8523C26.5578 31.8523 27.0526 31.7244 27.4835 31.4688C27.9191 31.2083 28.26 30.8509 28.5062 30.3963C28.7572 29.9418 28.8826 29.4233 28.8826 28.8409C28.8826 28.2491 28.7548 27.7211 28.4991 27.2571C28.2434 26.7931 27.8907 26.4285 27.4409 26.1634C26.9958 25.8982 26.4844 25.7633 25.9068 25.7585C25.4664 25.7585 25.0237 25.8343 24.5787 25.9858C24.1336 26.1373 23.7737 26.3362 23.4991 26.5824L21.4892 26.2841L22.3059 18.9545H30.3031V20.8366H24.1312L23.6696 24.9062H23.7548C24.0389 24.6316 24.4153 24.402 24.8841 24.2173C25.3575 24.0327 25.8642 23.9403 26.4039 23.9403C27.2894 23.9403 28.0777 24.151 28.769 24.5724C29.465 24.9938 30.0119 25.5691 30.4096 26.2983C30.8121 27.0227 31.0109 27.8561 31.0062 28.7983C31.0109 29.7405 30.7979 30.581 30.367 31.3196C29.9409 32.0582 29.349 32.6406 28.5914 33.0668C27.8386 33.4882 26.9745 33.6989 25.9991 33.6989Z" fill="#381067"/>
</svg>
