<svg width="23" height="27" viewBox="0 0 23 27" fill="none" xmlns="http://www.w3.org/2000/svg">
<path d="M11.7449 0.614468C11.8785 0.410934 11.7455 0.772467 11.6791 0.852091C11.6241 0.917836 11.5872 0.997627 11.5395 1.07862M11.5395 1.07862C11.5138 1.12224 11.4849 1.16621 11.4485 1.20852C11.1946 1.50333 10.8981 1.88951 10.8981 2.26962C10.8981 2.63186 10.5473 2.97198 10.4087 3.28566C10.2344 3.68056 10.0254 4.27086 9.73126 4.58028C9.56823 4.75187 9.60221 5.04053 9.4584 5.24396C9.32594 5.43145 9.28894 5.61495 9.20436 5.81758C9.01018 6.28257 8.75869 6.71573 8.5692 7.17772C8.38631 7.62371 8.1318 8.06507 7.91522 8.50511C7.80284 8.73356 7.7281 9.03389 7.68474 9.27945C7.64554 9.5012 7.66893 9.85255 7.57647 10.0538C7.16803 10.943 7.58458 11.8208 7.42126 12.7454C7.34125 13.1984 7.34125 13.6397 7.34125 14.104V14.1261C7.34125 14.5838 7.57566 14.9349 7.59529 15.3797C7.61086 15.7313 7.68242 15.9992 7.5906 16.3589C7.52078 16.6325 6.77955 16.288 6.62144 16.2115C6.3681 16.0889 5.85115 16.1745 5.56284 16.1745C5.26103 16.1745 4.79423 15.9726 4.52781 16.1582C4.43441 16.2232 4.15515 16.1689 4.03852 16.1745C3.79054 16.1866 3.54852 16.4363 3.28106 16.4654C2.97594 16.4987 2.3143 16.5613 2.04841 16.4327C1.68925 16.2589 1.41295 16.1333 1.14039 15.896C0.978698 15.7552 0.921162 15.9194 0.778121 15.6952C0.748751 15.6492 0.666709 15.548 0.59929 15.4665M11.5395 1.07862C11.549 1.12521 11.5664 1.16367 11.5944 1.18804C11.7761 1.34629 11.7799 1.76534 11.8343 1.97874C11.919 2.31069 11.999 2.66875 11.999 3.01117C11.999 3.24186 11.9031 3.69958 12.0648 3.87561C12.2205 4.04506 12.3377 4.44656 12.3377 4.67042C12.3377 4.95809 12.6014 5.37124 12.7988 5.59224C13.0202 5.84011 12.9765 6.20215 13.2222 6.47717C13.324 6.59111 13.3963 6.77143 13.4575 6.89912C13.5201 7.03004 13.7996 7.15606 13.9279 7.26786C14.1729 7.48117 14.515 7.75331 14.6901 7.98892C14.9193 8.29734 15.2652 8.44537 15.4711 8.75916C15.5154 8.8267 15.8715 9.03701 15.9792 9.07867C16.0732 9.11507 16.1847 9.0681 16.2756 9.10328C16.3887 9.14708 16.4434 9.23947 16.572 9.27945C16.9883 9.40893 17.1512 9.78316 17.5036 9.96365C17.9407 10.1875 18.2042 10.6204 18.6233 10.8977C18.8126 11.0231 19.0368 11.1791 19.1126 11.3771C19.1683 11.5227 19.4093 11.4563 19.456 11.6393C19.5011 11.8158 19.7602 11.9825 19.8748 12.135C20.0157 12.3228 20.1244 12.5235 20.2511 12.7127C20.4588 13.0226 20.6889 13.348 20.8722 13.6673C20.9954 13.882 21.0708 14.3227 21.2485 14.4621C21.5166 14.6721 21.7766 15.1285 21.8272 15.4371C21.8826 15.7744 22.1613 16.0604 22.1613 16.4327C22.1613 16.7743 22.5 17.0661 22.5 17.4282C22.5 18.1203 22.4153 18.7743 22.4153 19.4562C22.4153 19.8021 22.5544 20.1275 22.3683 20.4518C22.2043 20.7373 22.1354 21.113 21.9072 21.3367C21.6483 21.5903 21.656 22.1174 21.3991 22.3691C21.2601 22.5052 21.145 22.6662 21.145 22.8484C21.145 23.033 20.8909 22.9039 20.8063 23.0697C20.7325 23.2143 20.0326 23.324 19.8324 23.4015C19.6553 23.4701 19.235 23.5273 19.1126 23.6227C18.9333 23.7624 18.8709 24.1316 18.6233 24.2179C18.377 24.3037 18.1464 24.3248 17.9646 24.4831C17.6555 24.7522 17.1713 24.9888 16.7602 25.1386C16.4212 25.2622 16.0391 25.3039 15.7205 25.4705C15.4042 25.6357 15.1026 25.7991 14.7559 25.9088C14.3738 26.0298 14.1955 26.1301 13.7585 26.1301C13.3341 26.1301 12.9294 26.2038 12.5071 26.2038C12.096 26.2038 11.6971 26.2676 11.2839 26.2776C11.043 26.2834 10.7541 26.5306 10.5405 26.4824C10.2433 26.4153 10.0516 26.5246 9.75951 26.4947C9.46795 26.4648 9.11428 26.3955 8.82799 26.3349C8.10228 26.1812 7.54712 25.8453 6.8708 25.6098C6.25005 25.3936 5.36576 25.0049 4.93713 24.5487C4.63684 24.229 4.08327 24.1022 3.85033 23.6965C3.47059 23.0351 2.70789 22.6673 2.50948 21.8897C2.46841 21.7289 2.27911 21.5582 2.19426 21.4104C2.10471 21.2545 2.0944 21.0304 2.00606 20.8573C1.85283 20.5571 1.87753 20.2183 1.73319 19.9355C1.54156 19.5601 1.55659 19.4361 1.58263 19.0506C1.59964 18.7988 1.49595 18.3642 1.37092 18.1247C1.25137 17.8957 1.15921 17.5886 1.15921 17.3381C1.15921 17.0736 0.972364 16.828 0.867511 16.5801C0.715734 16.2214 0.815626 15.794 0.59929 15.4665M11.5395 1.07862C11.4892 0.832244 11.6603 0.358559 11.6603 0.540726M0.59929 15.4665C0.541471 15.3965 0.494402 15.341 0.500539 15.347C0.539317 15.3849 0.571848 15.4249 0.59929 15.4665ZM2.34344 19.2717C3.44482 20.9009 4.74459 22.4036 6.03196 23.9217C6.20784 24.1291 6.37174 24.3477 6.50959 24.5772M6.50959 24.5772C6.62324 24.7664 6.71917 24.9631 6.78945 25.1672C7.07204 25.9875 6.50502 25.1824 6.22017 24.8763C5.24893 23.8326 4.37611 22.7477 3.35496 21.734C2.8349 21.2177 2.25015 20.7336 1.76946 20.1894C1.59349 19.9902 1.87285 20.1873 1.93883 20.2304C2.30394 20.4689 2.60024 20.8266 2.8986 21.1235C3.46219 21.6844 4.04989 22.2259 4.63466 22.7705C5.22641 23.3215 5.79106 23.8676 6.36132 24.4338C6.40891 24.4811 6.45841 24.529 6.50959 24.5772ZM6.50959 24.5772C6.93622 24.9789 7.47962 25.4016 8.0174 25.6547C8.06401 25.6767 8.35973 25.794 8.25263 25.6424C7.95447 25.2205 7.50631 24.8341 7.17521 24.4257C6.57831 23.6893 6.01517 22.9712 5.36391 22.2666C4.62786 21.4702 3.8164 20.7334 3.07268 19.9436C2.91731 19.7786 2.78373 19.5972 2.64608 19.4195M2.64608 19.4195C2.53111 19.271 2.41329 19.125 2.27757 18.9931C2.21992 18.9371 2.03181 18.745 2.19289 18.9358C2.33384 19.1027 2.48676 19.2632 2.64608 19.4195ZM2.64608 19.4195C2.90783 19.6761 3.18685 19.9214 3.45847 20.1648C4.587 21.1765 5.71869 22.18 6.82709 23.2089C7.62383 23.9485 8.42799 24.6817 9.38175 25.2696C9.73606 25.488 10.0049 25.5853 9.72993 25.1303C9.39124 24.5699 8.77964 24.1041 8.2997 23.639C7.73557 23.0924 7.22916 22.4961 6.7311 21.8962M6.7311 21.8962C6.44666 21.5535 6.16494 21.2098 5.87674 20.8736C5.2516 20.1443 4.62323 19.4207 3.88661 18.7719C3.5766 18.4988 1.65816 16.7042 1.76946 17.0758C1.87704 17.4349 3.42448 18.8142 3.67959 19.0955C4.06796 19.5239 4.5562 19.8736 4.99222 20.2632C5.43773 20.6612 5.82637 21.1025 6.27193 21.5004C6.42234 21.6348 6.57559 21.7665 6.7311 21.8962ZM6.7311 21.8962C7.56802 22.5939 8.47031 23.2316 9.34412 23.893C9.40705 23.9407 10.9172 24.9765 10.9249 24.9583C11.0822 24.5866 9.59613 23.4678 9.37237 23.2539C8.26988 22.2005 7.25684 21.1571 6.3707 19.96C6.24542 19.7907 6.11579 19.6214 5.98147 19.4538M5.98147 19.4538C5.62183 19.005 5.22913 18.5684 4.79933 18.1779C4.56857 17.9681 4.30604 17.8014 4.05127 17.6166C4.00979 17.5865 3.96824 17.551 3.93715 17.5231M5.98147 19.4538C5.30775 18.8599 4.65302 18.2461 4.01833 17.6042C3.98398 17.5695 3.95729 17.5429 3.93715 17.5231M5.98147 19.4538C7.265 20.5854 8.61736 21.6449 10.031 22.6885C10.9356 23.3564 11.8492 23.9763 12.8209 24.5649C13.1484 24.7633 13.5623 24.9751 13.1738 24.528C11.987 23.1624 10.6342 21.9016 9.27632 20.6576M3.93715 17.5231C3.85835 17.4454 3.8801 17.4717 3.93715 17.5231ZM9.27632 20.6576C8.95032 20.3589 8.62402 20.0612 8.2997 19.7633C7.78426 19.2899 5.32906 17.0045 4.79933 16.5432C4.46455 16.2516 7.09948 18.9004 7.14232 18.948C7.73991 19.6137 8.53869 20.112 9.27632 20.6576ZM9.27632 20.6576C9.38846 20.7405 9.49922 20.8246 9.6076 20.9105C10.8795 21.9183 12.0986 23.0304 13.5032 23.9012C13.615 23.9705 14.878 24.7286 14.9428 24.6018C15.0079 24.4743 14.662 24.1499 14.604 24.0815C14.2233 23.6316 13.8491 23.1784 13.442 22.7459C12.3406 21.576 11.2673 20.4056 10.2898 19.1529C10.2636 19.1194 10.2375 19.0858 10.2114 19.0523M10.2114 19.0523C9.74869 18.4562 9.30643 17.8678 8.72308 17.3503C8.55843 17.2042 7.53033 16.4683 8.13973 17.0758C8.80853 17.7425 9.48237 18.426 10.2114 19.0523ZM10.2114 19.0523C10.4787 19.2818 10.7533 19.5036 11.0378 19.7142C12.1175 20.5131 13.2367 21.2798 14.3406 22.0535C14.6895 22.2981 15.0344 22.5586 15.418 22.7623C15.5418 22.828 16.8 24.0367 16.74 23.9217C16.4425 23.3519 14.7725 21.7643 14.3124 21.3038C13.0959 20.0864 11.8546 18.8818 10.9531 17.4609C10.6401 16.9674 10.3881 16.4516 10.1223 15.942M10.1223 15.942C10.0028 15.7128 9.88057 15.485 9.74874 15.2608C9.60279 15.0127 9.19064 14.6386 9.53702 15.1543C9.72171 15.4293 9.91681 15.6907 10.1223 15.942ZM10.1223 15.942C10.715 16.6667 11.3941 17.306 12.1576 17.9361C13.1074 18.72 14.0499 19.5135 15.0275 20.2714C15.5549 20.6802 16.1055 21.1495 16.74 21.4349C17.5891 21.8167 16.782 20.9597 16.5942 20.7671C15.5309 19.6766 14.5262 18.5374 13.5314 17.3994C12.3629 16.0629 11.1027 14.7427 10.0969 13.3066C9.86303 12.9727 9.64395 12.6102 9.46645 12.2496C9.36832 12.0502 9.72628 12.6197 9.85226 12.8068C10.7823 14.1884 12.0505 15.3397 13.2491 16.5432C14.2607 17.5588 15.2326 18.611 16.4013 19.4929M16.657 19.714C17.1014 20.02 17.5542 20.3091 18.0119 20.5989M8.94968 12.7086C11.2717 15.1631 13.5007 17.9565 16.3204 20.0393M16.3204 20.0393C16.3475 20.0595 16.3747 20.0794 16.402 20.0994C16.4361 20.1243 19.17 23.06 18.9652 22.8776C18.5969 22.5496 17.3338 21.1574 16.3204 20.0393ZM16.3204 20.0393C15.7335 19.3919 15.2303 18.8365 15.0329 18.6327C13.4084 16.9553 11.9797 15.2391 10.7717 13.3219M10.7717 13.3219C10.6967 13.2029 10.6225 13.0831 10.5493 12.9626C10.5179 12.911 10.4085 12.7878 10.254 12.6267M10.7717 13.3219C10.6967 13.2258 10.6225 13.1292 10.5493 13.0322C10.4484 12.8985 10.3495 12.7636 10.254 12.6267M10.7717 13.3219C12.0101 14.9094 13.4699 16.3669 14.9059 17.8174C15.4381 18.355 15.992 18.8807 16.6137 19.3414C16.9326 19.5778 20.865 22.0721 20.7242 21.7287C20.5315 21.2589 16.8675 19.0981 16.5243 18.7146C15.6294 17.7144 14.7849 16.7074 14.0308 15.6214C13.3141 14.5892 12.5808 13.5714 11.9607 12.4914C11.5188 11.7217 9.3154 9.29031 8.8347 8.54197C8.62443 8.21455 10.6755 10.4546 10.6998 10.5044C11.1247 11.375 11.8883 12.1564 12.5159 12.9216C13.3239 13.9066 14.1635 14.8826 15.0282 15.8304C15.6763 16.5407 16.3343 17.2938 17.1736 17.842C17.2419 17.8865 21.9289 19.7851 21.8236 19.4311M10.254 12.6267C9.84763 12.2025 9.12991 11.5146 8.70606 11.1728M10.254 12.6267C10.0918 12.3939 9.9398 12.1557 9.80594 11.9097C9.77271 11.8486 9.10762 11.4302 8.70606 11.1728M21.8236 19.4311C21.7504 19.1854 20.8923 18.6886 19.8922 18.1583M21.8236 19.4311C21.7895 19.4964 20.9088 18.8897 19.8922 18.1583M21.8236 19.4311C21.9934 19.1057 16.8696 15.1567 16.7031 14.9455C15.3235 13.1957 14.2809 11.2914 13.112 9.43707M8.70606 11.1728C8.57186 11.0646 8.46713 10.991 8.41103 10.9715C8.37571 10.9592 8.50922 11.0466 8.70606 11.1728ZM19.8922 18.1583C18.506 17.4232 16.8472 16.6235 16.6279 16.3384C15.8055 15.2692 14.924 14.2302 14.1625 13.1264C13.5993 12.3099 13.0828 11.4705 12.5438 10.642M19.8922 18.1583C18.477 17.1401 16.7984 15.8802 16.7737 15.855C15.1937 14.2454 13.8674 12.4181 12.5438 10.642M13.112 9.43707C12.9612 9.19781 12.8083 8.95936 12.6523 8.72224C12.3835 8.31352 10.9391 5.68995 10.5493 5.3505C10.4092 5.22847 12.0796 8.05104 12.1207 8.10772C12.4459 8.55607 12.7759 8.99905 13.112 9.43707ZM13.112 9.43707C14.1284 10.7615 15.2007 12.04 16.3644 13.2821C16.6409 13.5773 21.4416 16.7326 21.8236 16.942C21.9993 17.0384 16.9329 13.5128 16.9054 13.4706C15.9152 11.9502 14.6923 10.5373 13.6544 9.03771C13.5788 8.92833 13.5007 8.81832 13.4207 8.70837M12.5438 10.642C12.3131 10.2874 12.0782 9.93471 11.8337 9.58671C11.6378 9.30793 11.4362 9.03516 11.208 8.77551C11.15 8.70953 9.80594 6.29164 9.80594 6.37473C9.80594 6.48919 11.1626 8.87668 11.2268 8.95578C11.6046 9.42187 11.9794 9.88681 12.3371 10.3651C12.406 10.4572 12.4749 10.5496 12.5438 10.642ZM13.4207 8.70837C13.1899 8.39112 12.9434 8.07432 12.6947 7.77584C12.6442 7.71535 12.3433 7.51497 12.3747 7.5464C12.7443 7.91653 13.0876 8.30826 13.4207 8.70837ZM13.4207 8.70837C14.0482 9.46237 14.6393 10.2462 15.3011 10.9715C15.7792 11.4954 16.2658 12.0104 16.769 12.516C16.8362 12.5835 20.246 14.4863 20.2844 14.4529C20.4706 14.2907 14.9512 10.2252 14.7742 10.0005C14.3897 9.51252 13.9962 9.02979 13.6121 8.54197C13.5928 8.51753 13.567 8.47703 13.5362 8.42809M13.5362 8.42809C13.4185 8.24107 13.2298 7.93155 13.071 7.93155C13.0175 7.93155 13.4088 8.32941 13.5362 8.42809ZM13.5362 8.42809C13.5976 8.4757 13.5976 8.45369 13.4568 8.28388C12.9625 7.68784 12.7383 6.91668 12.1724 6.37473C11.873 6.08786 11.0496 3.73059 11.0496 3.73059C11.0496 3.73059 11.6232 5.73103 11.7396 5.8831C11.7853 5.94278 11.7639 5.92753 11.7111 5.87293M11.7111 5.87293C11.6036 5.76147 11.3655 5.48616 11.3021 5.3505C11.3006 5.34732 11.2991 5.3442 11.2977 5.34108M11.7111 5.87293C11.5874 5.70202 11.4442 5.53926 11.3256 5.37916C11.3159 5.36604 11.3066 5.35339 11.2977 5.34108M11.7111 5.87293C11.871 6.09364 11.9984 6.32799 11.9984 6.58775M11.2977 5.34108C11.0028 4.93542 11.1185 4.96184 11.2977 5.34108Z" stroke="#D9315A" stroke-linecap="round"/>
</svg>
