<svg width="31" height="26" viewBox="0 0 31 26" fill="none" xmlns="http://www.w3.org/2000/svg">
<path d="M16.7868 21.2696L16.8553 21.3124L16.8517 21.3931L17.3727 22.0182C17.7201 22.4349 17.8505 22.7707 17.7641 23.0255L17.5049 23.7901C17.4185 24.045 17.2295 24.2126 16.938 24.293L16.0636 24.5342C15.7721 24.6146 15.4821 24.5889 15.1935 24.4571L14.3278 24.0617C14.0392 23.9299 13.9096 23.7169 13.9389 23.4227L14.0269 22.5401C14.0562 22.2459 14.1688 21.9787 14.3646 21.7386L14.9519 21.0181C15.1477 20.7779 15.2554 20.679 15.275 20.7212L15.3045 20.7845L15.3425 20.9893L15.3633 20.9112M16.7868 21.2696L16.7442 21.2711C16.7158 21.272 16.7016 21.2442 16.7016 21.1876L16.7016 21.0178C16.556 20.9358 16.7442 20.9893 17.0424 21.1683L17.1138 21.4291L16.6245 21.1683M16.7868 21.2696L16.6901 21.3574C16.6257 21.4159 16.5793 21.4398 16.5509 21.4291L16.4657 21.397C16.4374 21.3863 16.4342 21.3597 16.4564 21.3171L16.4896 21.2532L16.6245 21.1683M16.6245 21.1683L16.556 21.1255L16.4765 21.1112M15.3633 20.9112L15.4428 20.9255M15.3633 20.9112L15.2984 20.9593L15.1892 20.8557C15.1164 20.7867 15.0584 20.7912 15.0153 20.8691L14.8858 21.1028C14.8427 21.1808 14.8338 21.2308 14.8591 21.253L14.9351 21.3194C14.9604 21.3416 14.9812 21.3339 14.9976 21.2963L15.0222 21.2399L15.1362 21.0792L15.0713 21.1272M16.4765 21.1112L16.2993 20.9612C16.1812 20.8612 16.0803 20.8056 15.9967 20.7944L15.746 20.761C15.6624 20.7498 15.598 20.7679 15.5529 20.8154L15.4176 20.9576C15.3724 21.005 15.351 21.0189 15.3532 20.9993L15.3566 20.97L15.4428 20.9255M16.4765 21.1112L16.286 21.1466C16.159 21.1702 16.0551 21.149 15.9743 21.083L15.7319 20.885C15.6511 20.819 15.5918 20.816 15.554 20.8761L15.4405 21.0564C15.4027 21.1165 15.382 21.127 15.3786 21.0877L15.3735 21.0289L15.4428 20.9255M23.2317 20.3789L23.152 20.366L23.1408 20.3266C23.1333 20.3003 23.1259 20.2928 23.1186 20.3042L23.1076 20.3212L23.1654 20.3682L23.0856 20.3553L23.0049 20.3527L22.7516 20.2081C22.5828 20.1117 22.4406 20.0595 22.325 20.0514L21.9783 20.027C21.8627 20.0189 21.9347 20.1937 21.8738 20.2081L20.6479 21.2465M21.2462 20.7007C21.4457 20.5188 21.6737 20.4218 21.9304 20.4097L22.7006 20.3734C22.9573 20.3613 23.1118 20.3915 23.1641 20.4639L23.3209 20.6812C23.3732 20.7537 23.5191 20.8224 23.7585 20.8874L24.4768 21.0825C24.7163 21.1475 24.7895 21.3018 24.6964 21.5452L24.4172 22.2755C24.3241 22.519 24.2609 22.7657 24.2276 23.0157L24.1277 23.7657C24.0944 24.0157 23.9586 24.1846 23.7204 24.2723L23.0056 24.5356C22.7674 24.6234 22.5444 24.608 22.3368 24.4893L21.7138 24.1332C21.5061 24.0145 21.331 23.8804 21.1886 23.731L20.7612 23.2828C20.6187 23.1333 20.5309 22.9303 20.4978 22.6738L20.3984 21.9042C20.3653 21.6476 20.4485 21.4284 20.6479 21.2465M21.2462 20.7007L21.6447 20.3089L21.5018 20.2038L21.4707 20.1525C21.4499 20.1184 20.587 21.2609 20.6479 21.2465M21.2462 20.7007L20.6479 21.2465M19.8129 6.19975L19.7624 6.13674L19.2495 5.43255C18.9076 4.9631 18.6458 4.60136 18.4642 4.34733L17.9192 3.58524C17.7376 3.33121 17.6111 3.0674 17.5398 2.79379L17.3259 1.97296C17.2545 1.69935 17.3011 1.47953 17.4656 1.31349L17.959 0.815374C18.1235 0.649334 18.3147 0.680562 18.5327 0.909056L19.1865 1.59454C19.4045 1.82303 19.5851 2.01177 19.7284 2.16074L20.1582 2.60767C20.3015 2.75665 20.4818 2.71539 20.6992 2.4839L21.3512 1.78942C21.5686 1.55792 21.782 1.36003 21.9915 1.19573L22.62 0.702852C22.8295 0.538558 23.0267 0.521579 23.2118 0.651915L23.7668 1.04292C23.9519 1.17326 23.9693 1.37633 23.819 1.65215L23.3684 2.4796C23.2182 2.75542 23.0549 3.01896 22.8785 3.27023L22.3493 4.02404C22.1729 4.27531 21.9708 4.50444 21.7429 4.71142L21.0593 5.33238C20.8314 5.53936 20.6444 5.77016 20.4983 6.02477L20.0599 6.78861C19.9138 7.04323 19.821 7.15477 19.7815 7.12324L19.7222 7.07594L19.6595 6.92317L19.6035 6.98135M17.5047 2.72146C17.523 2.72146 17.5413 2.72146 17.8984 2.55677C18.2555 2.39208 18.9509 2.0627 19.3091 1.91131C19.6673 1.75993 19.6673 1.79653 19.553 1.91603C19.4386 2.03553 19.2098 2.23682 19.0371 2.44116C18.8644 2.64549 18.7546 2.84678 18.666 3.06027C18.49 3.4844 18.4474 3.92088 18.5023 4.22129C18.5226 4.33275 18.667 4.31126 18.7784 4.28368C19.0047 4.22767 19.2409 4.08086 19.5448 3.83258C19.9875 3.47084 20.2945 3.06443 20.5252 2.89822C20.6865 2.78195 20.8038 2.75862 20.8362 2.78121C20.9529 2.86247 20.74 3.13624 20.5972 3.36207C20.4422 3.60732 20.2138 3.91173 20.0153 4.26233C19.7359 4.75569 19.7782 5.10561 19.792 5.1472C19.7981 5.16591 19.8331 5.16134 19.893 5.12474C19.9529 5.08814 20.0444 5.01495 20.1784 4.83085C20.3125 4.64675 20.4863 4.35396 20.7863 3.99269C21.0863 3.63143 21.5072 3.21055 21.8247 2.92054C22.3434 2.48413 22.6515 2.2784 22.8177 2.1815C22.8832 2.1395 22.9107 2.11205 22.9667 2.08377M10.6417 18.9165L11.3525 18.4549L12.2561 17.9953C12.4281 17.8882 12.0832 18.1989 12.1524 18.1175L12.3599 17.8731C12.429 17.7916 12.4757 17.7261 12.4997 17.6765L12.572 17.5277C12.5961 17.4781 12.5929 17.4412 12.5625 17.417L12.5168 17.3807L12.3787 17.374L12.4255 17.3082M12.4255 17.3082L12.4759 17.245M12.4255 17.3082L12.2546 17.3237C12.2166 17.3272 12.2334 17.3104 12.305 17.2735L12.5197 17.1627C12.5913 17.1257 12.6056 17.0795 12.5626 17.024L12.4337 16.8576C12.3907 16.8021 12.3607 16.7153 12.3437 16.5972L12.3182 16.4201M12.4759 17.245L12.5537 17.2921C12.6056 17.3234 12.6204 17.3289 12.5983 17.3085L12.565 17.2778L12.4482 17.2797M12.4759 17.245L12.6197 17.6764C12.7155 17.964 12.7377 18.0678 12.6861 17.988L12.5313 17.7484C12.4797 17.6685 12.4637 17.5933 12.4835 17.5228L12.5427 17.3111C12.5624 17.2406 12.5662 17.2062 12.5539 17.2081L12.5354 17.2109L12.4482 17.2797M12.4482 17.2797L12.4985 17.2165M12.4985 17.2165L12.5511 17.1552L13.1176 16.4652C13.4953 16.0052 13.7861 15.6586 13.99 15.4253L14.6017 14.7255C14.8056 14.4923 15.0116 14.2584 15.2197 14.0239L15.8438 13.3203C16.0519 13.0858 16.3037 12.9065 16.5993 12.7823L17.486 12.4097C17.7816 12.2855 18.0385 12.1087 18.2566 11.8792L18.9109 11.1908C19.129 10.9613 19.3455 10.8066 19.5605 10.7265L20.2055 10.4861C20.4205 10.406 20.5156 10.3473 20.4908 10.3099L20.4537 10.2538L20.3134 10.1882L20.3794 10.1417L20.3038 10.1133L19.5379 9.73864C19.0274 9.48888 18.6169 9.33686 18.3065 9.28257L17.3755 9.1197C17.0651 9.06542 16.7619 8.99797 16.4658 8.91737L15.5774 8.67557C15.2813 8.59496 14.9794 8.52579 14.6717 8.46803L13.7487 8.29476C13.441 8.23701 13.144 8.13658 12.8579 7.99347L11.9993 7.56414C11.7131 7.42103 11.4125 7.34766 11.0975 7.34402L10.1524 7.33311C9.83733 7.32947 9.54785 7.28167 9.28392 7.18971L8.49211 6.91384C8.22818 6.82189 8.09614 6.77605 8.09614 6.77605M12.4985 17.2165L12.4807 17.1377L12.3379 17.0423C12.2426 16.9787 12.208 16.9164 12.2338 16.8554L12.3114 16.6723C12.3372 16.6113 12.3264 16.5737 12.2787 16.5597L12.1358 16.5176C12.0882 16.5035 12.0855 16.4902 12.1278 16.4774L12.1913 16.4583L12.3361 16.4989L12.3182 16.4201M12.3182 16.4201L12.2941 16.343L12.3832 16.4106L12.4156 16.4059C12.4373 16.4028 12.4393 16.2799 12.4216 16.0373L12.3686 15.3095C12.3509 15.0669 12.2893 14.7966 12.1836 14.4986L11.8665 13.6044C11.7608 13.3064 11.6312 13.0201 11.4778 12.7456L11.0176 11.922C10.8642 11.6474 10.6999 11.3803 10.5247 11.1204L9.99907 10.3409C9.82386 10.081 9.59559 9.69482 9.31426 9.1823L8.89228 8.41352L8.85309 8.34289M12.3182 16.4201L12.2898 16.3445L12.2427 16.4428L12.2049 16.4542C12.1797 16.4618 12.1422 16.3562 12.0922 16.1374L11.9424 15.4809C11.8924 15.2621 11.8102 15.0089 11.6958 14.7213L11.3525 13.8583C11.238 13.5707 11.1209 13.2837 11.0011 12.9973L10.6417 12.1383C10.5219 11.8519 10.3896 11.5711 10.245 11.2957L9.81094 10.4697C9.66626 10.1943 9.47635 9.78311 9.24122 9.23606L8.88852 8.41548L8.85309 8.34289M8.09614 6.77605L8.17496 6.79318M8.09614 6.77605L8.13109 6.84918M8.09614 6.77605L8.03399 6.72463L7.36888 6.13633C6.92548 5.74413 6.62536 5.40202 6.46854 5.11001L5.99807 4.23398C5.84125 3.94197 5.6161 3.84043 5.32262 3.92938L4.44219 4.1962C4.14871 4.28514 3.84939 4.35574 3.54423 4.40799L2.62876 4.56474C2.3236 4.61699 2.07163 4.65455 1.87287 4.67742L1.27657 4.74605C1.0778 4.76892 1.12697 4.73394 1.42407 4.6411L2.31536 4.36259C2.61246 4.26976 2.89941 4.14513 3.17622 3.98871L4.00664 3.51946C4.28345 3.36304 4.40816 3.31916 4.38078 3.3878L4.29863 3.59374C4.27124 3.66238 4.09998 3.67188 3.78483 3.62222L2.8394 3.47326C2.52426 3.42361 2.21553 3.43959 1.9132 3.52122L1.00624 3.7661C0.703915 3.84773 0.557446 3.88854 0.56683 3.88854H0.580906L1.41829 3.97393L0.609058 3.88854M8.13109 6.84918L7.93318 6.96034C7.80124 7.03445 7.77948 7.15834 7.86791 7.33201L8.13319 7.85302C8.22162 8.02669 8.3139 8.13343 8.41002 8.17324L8.6984 8.29266C8.79453 8.33247 8.84347 8.35158 8.84522 8.35L8.84784 8.34763L8.81794 8.27017M8.13109 6.84918L8.26057 7.12763C8.34689 7.31326 8.41494 7.45843 8.46471 7.56314L8.61403 7.87726C8.66381 7.98197 8.70485 8.05898 8.73716 8.10831L8.83409 8.2563C8.8664 8.30563 8.8801 8.33135 8.87519 8.33345L8.86782 8.3366L8.81794 8.27017M8.81794 8.27017L8.85309 8.34289M21.683 9.58433C21.9727 9.46047 22.2384 9.29928 22.4801 9.10074L23.2053 8.50511C23.447 8.30657 23.7047 8.13454 23.9782 7.98902L24.7989 7.55244C25.0724 7.40692 25.3511 7.26514 25.635 7.1271L26.4866 6.71299C26.7704 6.57495 27.0675 6.48313 27.3779 6.43751L28.3089 6.30067C28.6193 6.25505 29.5667 5.80711 29.688 6.02477L29.3207 7.21173C29.2842 7.20476 29.3969 7.6628 29.1851 7.91197L28.5499 8.65946C28.3382 8.90862 28.1899 9.18463 28.1052 9.48747L27.851 10.396C27.7663 10.6988 27.6889 11.0023 27.619 11.3063L27.4092 12.2185C27.3393 12.5226 27.2765 12.8278 27.2208 13.1342L27.0537 14.0532C26.998 14.3596 26.9387 14.6651 26.8758 14.9697L26.6871 15.8837C26.6242 16.1883 26.5702 16.4949 26.5251 16.8034L26.3898 17.7289C26.3447 18.0374 26.2 18.212 25.9557 18.2526L25.2229 18.3746C24.9787 18.4152 24.6999 18.4346 24.3867 18.4327L23.4472 18.4271C23.134 18.4253 22.8222 18.4241 22.512 18.4235L21.5812 18.4217C21.2709 18.4212 20.9601 18.4173 20.6486 18.4103L19.7141 18.3891C19.4026 18.3821 19.0954 18.4233 18.7924 18.5128L17.8835 18.7814C17.5806 18.871 17.2699 18.8811 16.9515 18.8119L15.9964 18.6042C15.678 18.535 15.3652 18.5357 15.0579 18.6064L14.1362 18.8184C13.829 18.8891 13.5684 18.8884 13.3544 18.8165L12.7125 18.6006C12.4985 18.5287 12.5483 18.4801 12.8619 18.4549L13.8026 18.3794C14.1162 18.3542 14.4262 18.3175 14.7326 18.2693L15.6517 18.1247C15.9581 18.0765 16.2625 18.0186 16.5649 17.9509L17.4721 17.7477C17.7745 17.68 18.0749 17.59 18.3734 17.4777L19.2687 17.1406C19.5672 17.0283 19.8742 16.9848 20.1897 17.0101L21.1364 17.0862C21.4519 17.1116 21.7635 17.0976 22.071 17.0445L22.9936 16.8849C23.3012 16.8317 23.6086 16.8223 23.9158 16.8566L24.8375 16.9595C25.1448 16.9938 25.3193 16.9557 25.3612 16.8451L25.4868 16.5134C25.5287 16.4028 25.4834 16.2055 25.3511 15.9216L24.9542 15.0699C24.8218 14.786 24.6666 14.513 24.4884 14.2509L23.9538 13.4648C23.7756 13.2028 23.5654 12.9711 23.3232 12.7698L22.5966 12.1659C22.3544 11.9647 22.1342 11.7437 21.936 11.5029L21.3414 10.7808C21.1432 10.54 20.9887 10.3965 20.8779 10.3502L20.5456 10.2112C20.4348 10.1648 20.5242 10.0797 20.8139 9.95589L21.683 9.58433Z" stroke="#D9315A" stroke-width="1.13079" stroke-linecap="round"/>
</svg>
