<svg width="22" height="12" viewBox="0 0 22 12" fill="none" xmlns="http://www.w3.org/2000/svg">
<path d="M16.3026 0.225544C15.9852 -0.0818476 15.4787 -0.0737606 15.1713 0.243607C14.8639 0.560975 14.872 1.06744 15.1894 1.37483L15.746 0.800189L16.3026 0.225544ZM15.8178 0.869762L16.5003 0.452411L16.4473 0.365771L16.3744 0.295117L15.8178 0.869762ZM15.8558 0.931834L16.5383 0.514484L15.8558 0.931834ZM16.7977 2.04955L16.3526 2.71429L16.7977 2.04955ZM16.8306 2.0716L17.2757 1.40686L16.8306 2.0716ZM16.8635 2.09366L16.4184 2.7584L16.8635 2.09366ZM17.6498 2.77511L17.0545 3.30951L17.6498 2.77511ZM17.7023 2.83358L17.107 3.36799L17.7023 2.83358ZM18.4289 3.58061L18.9796 3.00029L18.4289 3.58061ZM18.4858 3.6346L17.9352 4.21492L18.4858 3.6346ZM19.3246 4.25436L18.9302 4.95038L19.3246 4.25436ZM19.3593 4.27402L18.9649 4.97004L19.3593 4.27402ZM19.394 4.29368L19.7884 3.59766L19.394 4.29368ZM20.2225 4.92746L19.6531 5.48933L20.2225 4.92746ZM20.2779 4.98356L20.8473 4.42168L20.2779 4.98356ZM20.2825 5.1004L19.8217 5.7544L20.2825 5.1004ZM20.2551 5.08115L20.7159 4.42715L20.2551 5.08115ZM20.2278 5.0619L19.7671 5.7159L20.2278 5.0619ZM19.3553 4.62946L19.0932 5.38531L19.3553 4.62946ZM19.3169 4.61616L19.579 3.86031L19.3169 4.61616ZM19.2786 4.60287L19.0165 5.35872L19.2786 4.60287ZM18.4747 3.97254L17.8036 4.40804L18.4747 3.97254ZM18.4525 3.9384L19.1236 3.5029L18.4525 3.9384ZM18.4304 3.90425L17.7593 4.33975L18.4304 3.90425ZM17.6435 3.21065L17.994 2.49149L17.6435 3.21065ZM17.5694 3.17453L17.219 3.8937L17.5694 3.17453ZM16.7888 2.49206L17.4592 2.05549L16.7888 2.49206ZM16.7671 2.45875L16.0968 2.89532L16.7671 2.45875ZM16.7454 2.42544L17.4158 1.98887L16.7454 2.42544ZM16.1126 1.59175L15.5124 2.12066L16.1126 1.59175ZM16.0866 1.56231L16.6868 1.03339L16.0866 1.56231ZM16.0607 1.53287L15.4605 2.06178L16.0607 1.53287ZM15.6789 1.08907L16.333 0.628446L15.6789 1.08907ZM15.6761 1.0851L15.022 1.54572L15.6761 1.0851ZM15.6733 1.08114L16.3274 0.620518L15.6733 1.08114ZM16.0536 1.34219L16.5343 0.702706L16.0536 1.34219ZM16.085 1.3658L15.6043 2.00528L16.085 1.3658ZM16.1164 1.38941L16.5971 0.749931L16.1164 1.38941ZM16.8483 2.12721L17.4909 1.65062L16.8483 2.12721ZM16.872 2.15913L16.2295 2.63573L16.872 2.15913ZM16.8957 2.19106L17.5382 1.71446L16.8957 2.19106ZM17.6189 2.93825L17.1228 3.56582V3.56582L17.6189 2.93825ZM17.6497 2.96257L17.1535 3.59014L17.6497 2.96257ZM17.6805 2.98689L18.1766 2.35932L17.6805 2.98689ZM18.4032 3.74829L19.0535 3.28236L18.4032 3.74829ZM18.4268 3.78128L17.7765 4.24721L18.4268 3.78128ZM18.4504 3.81427L19.1008 3.34835L18.4504 3.81427ZM19.193 4.55264L19.6519 3.8973V3.8973L19.193 4.55264ZM19.2253 4.57522L18.7665 5.23056L19.2253 4.57522ZM19.2575 4.59781L18.7987 5.25314L19.2575 4.59781ZM20.1197 5.18887L20.5655 4.52459L20.1197 5.18887ZM20.1524 5.21077L19.7066 5.87505L20.1524 5.21077ZM20.185 5.23267L20.6308 4.56839L20.185 5.23267ZM20.6556 5.87753L21.4513 5.79428L20.6556 5.87753ZM20.6584 5.90417L19.8628 5.98742L20.6584 5.90417ZM20.6612 5.9308L19.8655 6.01405L20.6612 5.9308ZM20.2063 6.52424L20.5566 7.24347L20.2063 6.52424ZM20.1323 6.5603L19.782 5.84107L20.1323 6.5603ZM19.2565 7.15603L19.8006 7.7425L19.2565 7.15603ZM19.2276 7.18283L18.6835 6.59636L19.2276 7.18283ZM19.1987 7.20964L19.7428 7.79611L19.1987 7.20964ZM18.56 8.02564L17.8603 7.63789L18.56 8.02564ZM18.5408 8.06025L19.2406 8.448L18.5408 8.06025ZM18.5217 8.09486L17.8219 7.70711L18.5217 8.09486ZM17.8895 8.9227L17.331 8.34999L17.8895 8.9227ZM17.8327 8.9781L18.3913 9.55081L17.8327 8.9781ZM17.0577 9.69112L16.5335 9.08679L17.0577 9.69112ZM17.0277 9.71709L17.5519 10.3214L17.0277 9.71709ZM16.9978 9.74306L16.4736 9.13873L16.9978 9.74306ZM16.3057 10.3047L16.78 10.949L16.3057 10.3047ZM16.2836 10.321L15.8093 9.67682L16.2836 10.321ZM16.2614 10.3374L15.7871 9.69312L16.2614 10.3374ZM16.3664 10.2379L16.863 10.8651L16.3664 10.2379ZM16.3964 10.2141L15.8998 9.58692L16.3964 10.2141ZM16.4265 10.1903L16.9231 10.8175L16.4265 10.1903ZM17.1653 9.47278L16.5545 8.95613L17.1653 9.47278ZM17.2164 9.41235L17.8272 9.92901L17.2164 9.41235ZM17.9047 8.62147L18.5007 9.15509L17.9047 8.62147ZM17.9309 8.59216L18.5269 9.12578L17.9309 8.59216ZM17.9572 8.56284L17.3611 8.02922L17.9572 8.56284ZM18.6887 7.82242L18.1481 7.2327L18.6887 7.82242ZM18.7175 7.796L19.2581 8.38572L18.7175 7.796ZM18.7464 7.76958L18.2058 7.17986L18.7464 7.76958ZM19.464 7.01988L20.0767 7.53424L19.464 7.01988ZM19.4891 6.98987L18.8764 6.47551L19.4891 6.98987ZM19.5143 6.95986L20.1271 7.47423L19.5143 6.95986ZM20.2642 6.24688L20.747 6.88471L20.2642 6.24688ZM20.2954 6.22323L19.8125 5.5854L20.2954 6.22323ZM20.3266 6.19957L20.8095 6.8374L20.3266 6.19957ZM20.4172 5.59979L19.8888 6.20045L20.4172 5.59979ZM20.3928 5.5783L20.9212 4.97764L20.3928 5.5783ZM20.3684 5.55681L19.84 6.15747L20.3684 5.55681ZM19.514 5.39454L19.3328 4.61534L19.514 5.39454ZM19.4343 5.41309L19.6155 6.19229L19.4343 5.41309ZM18.3857 5.4968L18.4465 4.69912L18.3857 5.4968ZM18.3076 5.49085L18.2468 6.28854L18.3076 5.49085ZM17.2701 5.38878L17.1744 6.18303L17.2701 5.38878ZM17.192 5.37937L17.2878 4.58512L17.192 5.37937ZM16.1512 5.3539L16.2079 6.15189L16.1512 5.3539ZM16.1119 5.35669L16.0553 4.55869L16.1119 5.35669ZM16.0726 5.35948L16.1293 6.15747L16.0726 5.35948ZM14.9509 5.40029L14.9459 4.60031L14.9509 5.40029ZM13.9101 5.36436L13.8499 6.1621L13.9101 5.36436ZM13.8318 5.35846L13.892 4.56073L13.8318 5.35846ZM12.7931 5.24551L12.9056 4.45347L12.7931 5.24551ZM12.754 5.23996L12.6414 6.032L12.754 5.23996ZM12.7149 5.2344L12.8275 4.44236L12.7149 5.2344ZM11.6745 5.18752L11.6333 4.38858L11.6745 5.18752ZM11.596 5.19157L11.6372 5.99051L11.596 5.19157ZM10.5535 5.21245L10.5627 4.41251L10.5535 5.21245ZM10.475 5.21155L10.4658 6.0115L10.475 5.21155ZM9.43581 5.05933L9.2185 5.82925L9.43581 5.05933ZM9.35782 5.03731L9.57513 4.26739L9.35782 5.03731ZM8.31862 4.91069L8.28854 4.11126L8.31862 4.91069ZM8.24017 4.91364L8.27025 5.71308L8.24017 4.91364ZM7.19889 5.07293L7.40636 5.84556L7.19889 5.07293ZM7.15974 5.08344L6.95226 4.31081L7.15974 5.08344ZM7.12058 5.09395L7.32806 5.86658L7.12058 5.09395ZM6.08164 5.18145L6.16171 4.38546L6.08164 5.18145ZM6.00355 5.17359L5.92348 5.96957L6.00355 5.17359ZM4.9686 5.17615L4.88423 4.38061L4.9686 5.17615ZM4.8909 5.18439L4.97527 5.97993L4.8909 5.18439ZM3.85409 5.33132L3.99358 6.11907L3.85409 5.33132ZM3.8149 5.33826L3.95439 6.12601L3.8149 5.33826ZM3.77571 5.3452L3.63622 4.55745V4.55745L3.77571 5.3452ZM2.73323 5.25818L2.47339 6.01481L2.73323 5.25818ZM2.69395 5.2447L2.95379 4.48807L2.69395 5.2447ZM2.65467 5.23121L2.39483 5.98783L2.65467 5.23121ZM1.61211 5.18307L1.80739 5.95887L1.61211 5.18307ZM1.57292 5.19294L1.37764 4.41714L1.57292 5.19294ZM1.53373 5.2028L1.729 5.9786L1.53373 5.2028ZM0.934299 5.28479L0.510938 5.96358L0.934299 5.28479ZM0.928376 5.28109L0.156433 5.07108L0.000272334 5.64509L0.505015 5.95989L0.928376 5.28109ZM0.943689 5.22481L1.71563 5.43482L2.00063 4.38724L0.915641 4.4253L0.943689 5.22481ZM0.815702 4.4288C0.374146 4.4443 0.0287514 4.8148 0.0442418 5.25636C0.0597322 5.69792 0.430242 6.04331 0.871798 6.02782L0.84375 5.22831L0.815702 4.4288ZM15.746 0.800189L15.1894 1.37483L15.2612 1.44441L15.8178 0.869762L16.3744 0.295117L16.3026 0.225544L15.746 0.800189ZM15.8178 0.869762L15.1353 1.28711L15.1732 1.34918L15.8558 0.931834L16.5383 0.514484L16.5003 0.452411L15.8178 0.869762ZM15.8558 0.931834L15.1732 1.34918C15.5276 1.92868 15.9148 2.42117 16.3526 2.71429L16.7977 2.04955L17.2428 1.38481C17.097 1.28721 16.8563 1.03456 16.5383 0.514484L15.8558 0.931834ZM16.7977 2.04955L16.3526 2.71429L16.3855 2.73634L16.8306 2.0716L17.2757 1.40686L17.2428 1.38481L16.7977 2.04955ZM16.8306 2.0716L16.3855 2.73634L16.4184 2.7584L16.8635 2.09366L17.3087 1.42892L17.2757 1.40686L16.8306 2.0716ZM16.8635 2.09366L16.4184 2.7584C16.6554 2.91706 16.8669 3.10054 17.0545 3.30951L17.6498 2.77511L18.2452 2.2407C17.9679 1.93178 17.6552 1.66096 17.3087 1.42892L16.8635 2.09366ZM17.6498 2.77511L17.0545 3.30951L17.0808 3.33875L17.6761 2.80434L18.2714 2.26993L18.2452 2.2407L17.6498 2.77511ZM17.6761 2.80434L17.0808 3.33875L17.107 3.36799L17.7023 2.83358L18.2977 2.29917L18.2714 2.26993L17.6761 2.80434ZM17.7023 2.83358L17.107 3.36799C17.3537 3.6428 17.6108 3.90713 17.8783 4.16094L18.4289 3.58061L18.9796 3.00029C18.7432 2.77594 18.5159 2.54225 18.2977 2.29917L17.7023 2.83358ZM18.4289 3.58061L17.8783 4.16094L17.9067 4.18793L18.4574 3.6076L19.008 3.02728L18.9796 3.00029L18.4289 3.58061ZM18.4574 3.6076L17.9067 4.18793L17.9352 4.21492L18.4858 3.6346L19.0365 3.05427L19.008 3.02728L18.4574 3.6076ZM18.4858 3.6346L17.9352 4.21492C18.2351 4.49952 18.5674 4.74475 18.9302 4.95038L19.3246 4.25436L19.719 3.55834C19.4674 3.41577 19.2405 3.24783 19.0365 3.05427L18.4858 3.6346ZM19.3246 4.25436L18.9302 4.95038L18.9649 4.97004L19.3593 4.27402L19.7537 3.578L19.719 3.55834L19.3246 4.25436ZM19.3593 4.27402L18.9649 4.97004L18.9996 4.9897L19.394 4.29368L19.7884 3.59766L19.7537 3.578L19.3593 4.27402ZM19.394 4.29368L18.9996 4.9897C19.2433 5.12782 19.4605 5.29412 19.6531 5.48933L20.2225 4.92746L20.792 4.36559C20.4944 4.06395 20.1592 3.80774 19.7884 3.59766L19.394 4.29368ZM20.2225 4.92746L19.6531 5.48933L19.6807 5.51738L20.2502 4.95551L20.8197 4.39364L20.792 4.36559L20.2225 4.92746ZM20.2502 4.95551L19.6807 5.51738L19.7084 5.54543L20.2779 4.98356L20.8473 4.42168L20.8197 4.39364L20.2502 4.95551ZM20.2779 4.98356L19.7084 5.54543C19.7655 5.60334 19.7963 5.63685 19.809 5.65162C19.8167 5.66059 19.8067 5.64989 19.7904 5.62613C19.7827 5.61481 19.7627 5.58494 19.7416 5.54188C19.7295 5.51733 19.6701 5.39845 19.6635 5.23048C19.6598 5.13598 19.6713 4.98642 19.7553 4.82771C19.846 4.6565 19.9877 4.53806 20.1372 4.47207C20.3823 4.36386 20.5966 4.41636 20.6284 4.42356C20.6959 4.43881 20.7441 4.45956 20.7608 4.46691C20.7823 4.47639 20.797 4.48429 20.8023 4.48717C20.8146 4.49392 20.8005 4.48679 20.7432 4.44641L20.2825 5.1004L19.8217 5.7544C19.8854 5.79928 19.9619 5.85123 20.0344 5.89087C20.054 5.90158 20.15 5.9558 20.2756 5.98419C20.3149 5.99306 20.5346 6.0456 20.7834 5.9358C20.9347 5.869 21.0777 5.74936 21.1693 5.57653C21.2542 5.41621 21.266 5.26462 21.2622 5.16769C21.2554 4.99485 21.1939 4.86946 21.1778 4.83677C21.1527 4.78557 21.1268 4.74592 21.1113 4.72319C21.0795 4.6766 21.0462 4.63652 21.0231 4.60958C20.9741 4.5525 20.9128 4.48799 20.8473 4.42168L20.2779 4.98356ZM20.2825 5.1004L20.7432 4.44641L20.7159 4.42715L20.2551 5.08115L19.7944 5.73515L19.8217 5.7544L20.2825 5.1004ZM20.2551 5.08115L20.7159 4.42715L20.6886 4.4079L20.2278 5.0619L19.7671 5.7159L19.7944 5.73515L20.2551 5.08115ZM20.2278 5.0619L20.6886 4.4079C20.374 4.18626 20.0131 4.01083 19.6173 3.87361L19.3553 4.62946L19.0932 5.38531C19.3767 5.48362 19.5976 5.59649 19.7671 5.7159L20.2278 5.0619ZM19.3553 4.62946L19.6173 3.87361L19.579 3.86031L19.3169 4.61616L19.0548 5.37202L19.0932 5.38531L19.3553 4.62946ZM19.3169 4.61616L19.579 3.86031L19.5406 3.84701L19.2786 4.60287L19.0165 5.35872L19.0548 5.37202L19.3169 4.61616ZM19.2786 4.60287L19.5406 3.84701C19.3697 3.78774 19.2454 3.69066 19.1457 3.53704L18.4747 3.97254L17.8036 4.40804C18.0965 4.85932 18.5081 5.18245 19.0165 5.35872L19.2786 4.60287ZM18.4747 3.97254L19.1457 3.53704L19.1236 3.5029L18.4525 3.9384L17.7814 4.3739L17.8036 4.40804L18.4747 3.97254ZM18.4525 3.9384L19.1236 3.5029L19.1014 3.46875L18.4304 3.90425L17.7593 4.33975L17.7814 4.3739L18.4525 3.9384ZM18.4304 3.90425L19.1014 3.46875C18.825 3.04274 18.4511 2.71425 17.994 2.49149L17.6435 3.21065L17.2931 3.92982C17.4925 4.02696 17.6432 4.16086 17.7593 4.33975L18.4304 3.90425ZM17.6435 3.21065L17.994 2.49149L17.9569 2.47343L17.6065 3.19259L17.2561 3.91176L17.2931 3.92982L17.6435 3.21065ZM17.6065 3.19259L17.9569 2.47343L17.9199 2.45537L17.5694 3.17453L17.219 3.8937L17.2561 3.91176L17.6065 3.19259ZM17.5694 3.17453L17.9199 2.45537C17.7168 2.35643 17.5692 2.22444 17.4592 2.05549L16.7888 2.49206L16.1185 2.92863C16.3927 3.34974 16.7655 3.67274 17.219 3.8937L17.5694 3.17453ZM16.7888 2.49206L17.4592 2.05549L17.4375 2.02218L16.7671 2.45875L16.0968 2.89532L16.1185 2.92863L16.7888 2.49206ZM16.7671 2.45875L17.4375 2.02218L17.4158 1.98887L16.7454 2.42544L16.0751 2.86201L16.0968 2.89532L16.7671 2.45875ZM16.7454 2.42544L17.4158 1.98887C17.2028 1.66182 16.9685 1.35301 16.7128 1.06283L16.1126 1.59175L15.5124 2.12066C15.7162 2.352 15.9038 2.59899 16.0751 2.86201L16.7454 2.42544ZM16.1126 1.59175L16.7128 1.06283L16.6868 1.03339L16.0866 1.56231L15.4864 2.09122L15.5124 2.12066L16.1126 1.59175ZM16.0866 1.56231L16.6868 1.03339L16.6609 1.00395L16.0607 1.53287L15.4605 2.06178L15.4864 2.09122L16.0866 1.56231ZM16.0607 1.53287L16.6609 1.00395C16.5468 0.874433 16.4599 0.775027 16.3994 0.704641C16.369 0.669267 16.3469 0.643283 16.3322 0.62551C16.311 0.600012 16.3182 0.607458 16.333 0.628446L15.6789 1.08907L15.0248 1.54969C15.0822 1.63113 15.2532 1.82652 15.4605 2.06178L16.0607 1.53287ZM15.6789 1.08907L16.333 0.628446L16.3302 0.624482L15.6761 1.0851L15.022 1.54572L15.0248 1.54969L15.6789 1.08907ZM15.6761 1.0851L16.3302 0.624482L16.3274 0.620518L15.6733 1.08114L15.0192 1.54176L15.022 1.54572L15.6761 1.0851ZM15.6733 1.08114L16.3274 0.620518C16.3341 0.629973 16.3996 0.718781 16.4385 0.851927C16.4572 0.916219 16.5007 1.09159 16.4364 1.30525C16.355 1.57529 16.15 1.75408 15.9342 1.82922C15.7632 1.88875 15.6192 1.87364 15.5657 1.86642C15.4994 1.85746 15.4486 1.84194 15.4225 1.83325C15.3698 1.8157 15.332 1.79663 15.3204 1.79073C15.28 1.77017 15.2617 1.75534 15.2971 1.77961C15.3451 1.81258 15.4345 1.87762 15.5729 1.98167L16.0536 1.34219L16.5343 0.702706C16.3945 0.597617 16.2814 0.514576 16.2026 0.460531C16.1746 0.441291 16.1119 0.398225 16.046 0.364682C16.028 0.355543 15.985 0.334184 15.9283 0.315293C15.9002 0.305934 15.8477 0.289987 15.78 0.280835C15.7251 0.273419 15.5799 0.258366 15.4081 0.318177C15.1915 0.3936 14.986 0.572919 14.9044 0.843718C14.8398 1.05814 14.8834 1.23452 14.9025 1.30005C14.9421 1.43567 15.0095 1.52792 15.0192 1.54176L15.6733 1.08114ZM16.0536 1.34219L15.5729 1.98167L15.6043 2.00528L16.085 1.3658L16.5657 0.726319L16.5343 0.702706L16.0536 1.34219ZM16.085 1.3658L15.6043 2.00528L15.6357 2.0289L16.1164 1.38941L16.5971 0.749931L16.5657 0.726319L16.085 1.3658ZM16.1164 1.38941L15.6357 2.0289C15.8518 2.19128 16.0414 2.38217 16.2058 2.6038L16.8483 2.12721L17.4909 1.65062C17.2358 1.30681 16.9375 1.00583 16.5971 0.749931L16.1164 1.38941ZM16.8483 2.12721L16.2058 2.6038L16.2295 2.63573L16.872 2.15913L17.5145 1.68254L17.4909 1.65062L16.8483 2.12721ZM16.872 2.15913L16.2295 2.63573L16.2531 2.66765L16.8957 2.19106L17.5382 1.71446L17.5145 1.68254L16.872 2.15913ZM16.8957 2.19106L16.2531 2.66765C16.5042 3.00615 16.7943 3.30616 17.1228 3.56582L17.6189 2.93825L18.1151 2.31068C17.8986 2.13953 17.7065 1.94141 17.5382 1.71446L16.8957 2.19106ZM17.6189 2.93825L17.1228 3.56582L17.1535 3.59014L17.6497 2.96257L18.1458 2.335L18.1151 2.31068L17.6189 2.93825ZM17.6497 2.96257L17.1535 3.59014L17.1843 3.61446L17.6805 2.98689L18.1766 2.35932L18.1458 2.335L17.6497 2.96257ZM17.6805 2.98689L17.1843 3.61446C17.396 3.78185 17.5856 3.98071 17.7529 4.21422L18.4032 3.74829L19.0535 3.28236C18.8021 2.93147 18.5098 2.62273 18.1766 2.35932L17.6805 2.98689ZM18.4032 3.74829L17.7529 4.21422L17.7765 4.24721L18.4268 3.78128L19.0771 3.31535L19.0535 3.28236L18.4032 3.74829ZM18.4268 3.78128L17.7765 4.24721L17.8001 4.2802L18.4504 3.81427L19.1008 3.34835L19.0771 3.31535L18.4268 3.78128ZM18.4504 3.81427L17.8001 4.2802C18.0605 4.64362 18.3722 4.95448 18.7342 5.20797L19.193 4.55264L19.6519 3.8973C19.4425 3.75071 19.2591 3.56933 19.1008 3.34835L18.4504 3.81427ZM19.193 4.55264L18.7342 5.20797L18.7665 5.23056L19.2253 4.57522L19.6841 3.91989L19.6519 3.8973L19.193 4.55264ZM19.2253 4.57522L18.7665 5.23056L18.7987 5.25314L19.2575 4.59781L19.7164 3.94247L19.6841 3.91989L19.2253 4.57522ZM19.2575 4.59781L18.7987 5.25314C19.0887 5.4562 19.3805 5.6562 19.6739 5.85314L20.1197 5.18887L20.5655 4.52459C20.2808 4.33353 19.9978 4.1395 19.7164 3.94247L19.2575 4.59781ZM20.1197 5.18887L19.6739 5.85314L19.7066 5.87505L20.1524 5.21077L20.5982 4.54649L20.5655 4.52459L20.1197 5.18887ZM20.1524 5.21077L19.7066 5.87505L19.7392 5.89695L20.185 5.23267L20.6308 4.56839L20.5982 4.54649L20.1524 5.21077ZM20.185 5.23267L19.7392 5.89695C19.8288 5.95708 19.8639 5.99818 19.8733 6.011C19.8772 6.01634 19.8745 6.01384 19.8702 6.00337C19.8658 5.99241 19.8617 5.97762 19.86 5.96078L20.6556 5.87753L21.4513 5.79428C21.3921 5.22869 21.0223 4.83113 20.6308 4.56839L20.185 5.23267ZM20.6556 5.87753L19.86 5.96078L19.8628 5.98742L20.6584 5.90417L21.4541 5.82092L21.4513 5.79428L20.6556 5.87753ZM20.6584 5.90417L19.8628 5.98742L19.8655 6.01405L20.6612 5.9308L21.4569 5.84755L21.4541 5.82092L20.6584 5.90417ZM20.6612 5.9308L19.8655 6.01405C19.8614 5.97477 19.8641 5.92645 19.8789 5.87588C19.8935 5.82602 19.9151 5.79026 19.9311 5.76941C19.9459 5.75002 19.9533 5.74684 19.9411 5.75594C19.9288 5.76508 19.9025 5.7824 19.856 5.80501L20.2063 6.52424L20.5566 7.24347C20.997 7.029 21.5343 6.58806 21.4569 5.84755L20.6612 5.9308ZM20.2063 6.52424L19.856 5.80501L19.819 5.82304L20.1693 6.54227L20.5196 7.2615L20.5566 7.24347L20.2063 6.52424ZM20.1693 6.54227L19.819 5.82304L19.782 5.84107L20.1323 6.5603L20.4826 7.27954L20.5196 7.2615L20.1693 6.54227ZM20.1323 6.5603L19.782 5.84107C19.3865 6.03371 19.0286 6.27621 18.7124 6.56955L19.2565 7.15603L19.8006 7.7425C19.9963 7.56098 20.2222 7.40633 20.4826 7.27954L20.1323 6.5603ZM19.2565 7.15603L18.7124 6.56955L18.6835 6.59636L19.2276 7.18283L19.7717 7.76931L19.8006 7.7425L19.2565 7.15603ZM19.2276 7.18283L18.6835 6.59636L18.6546 6.62317L19.1987 7.20964L19.7428 7.79611L19.7717 7.76931L19.2276 7.18283ZM19.1987 7.20964L18.6546 6.62317C18.3364 6.91842 18.071 7.25756 17.8603 7.63789L18.56 8.02564L19.2598 8.41339C19.3888 8.18058 19.5492 7.97573 19.7428 7.79611L19.1987 7.20964ZM18.56 8.02564L17.8603 7.63789L17.8411 7.6725L18.5408 8.06025L19.2406 8.448L19.2598 8.41339L18.56 8.02564ZM18.5408 8.06025L17.8411 7.6725L17.8219 7.70711L18.5217 8.09486L19.2214 8.48261L19.2406 8.448L18.5408 8.06025ZM18.5217 8.09486L17.8219 7.70711C17.6899 7.9453 17.5268 8.15897 17.331 8.34999L17.8895 8.9227L18.4481 9.49541C18.7553 9.19578 19.0136 8.85755 19.2214 8.48261L18.5217 8.09486ZM17.8895 8.9227L17.331 8.34999L17.3026 8.37769L17.8611 8.9504L18.4197 9.52311L18.4481 9.49541L17.8895 8.9227ZM17.8611 8.9504L17.3026 8.37769L17.2742 8.40539L17.8327 8.9781L18.3913 9.55081L18.4197 9.52311L17.8611 8.9504ZM17.8327 8.9781L17.2742 8.40539C17.0338 8.63986 16.7869 8.86698 16.5335 9.08679L17.0577 9.69112L17.5819 10.2955C17.8588 10.0552 18.1286 9.807 18.3913 9.55081L17.8327 8.9781ZM17.0577 9.69112L16.5335 9.08679L16.5035 9.11276L17.0277 9.71709L17.5519 10.3214L17.5819 10.2955L17.0577 9.69112ZM17.0277 9.71709L16.5035 9.11276L16.4736 9.13873L16.9978 9.74306L17.522 10.3474L17.5519 10.3214L17.0277 9.71709ZM16.9978 9.74306L16.4736 9.13873C16.2182 9.36029 16.0048 9.53286 15.8314 9.66051L16.3057 10.3047L16.78 10.949C16.999 10.7877 17.2471 10.5859 17.522 10.3474L16.9978 9.74306ZM16.3057 10.3047L15.8314 9.66051L15.8093 9.67682L16.2836 10.321L16.7579 10.9653L16.78 10.949L16.3057 10.3047ZM16.2836 10.321L15.8093 9.67682L15.7871 9.69312L16.2614 10.3374L16.7357 10.9816L16.7579 10.9653L16.2836 10.321ZM16.2614 10.3374L15.7871 9.69312C15.7379 9.7294 15.7121 9.74783 15.7031 9.75405C15.6762 9.77263 15.7232 9.73765 15.7843 9.70748C15.7977 9.70087 15.8256 9.68752 15.8625 9.67403C15.8803 9.66751 15.9836 9.62812 16.1223 9.6256C16.1929 9.62431 16.3516 9.63024 16.5235 9.72519C16.731 9.83981 16.8725 10.0375 16.9194 10.2606C16.9582 10.4451 16.9217 10.5928 16.9022 10.6572C16.88 10.7305 16.8519 10.7849 16.8358 10.8138C16.8037 10.8716 16.7715 10.9122 16.7597 10.9267C16.7442 10.9459 16.731 10.9604 16.7233 10.9687C16.708 10.9852 16.6955 10.9971 16.6907 11.0016C16.6749 11.0166 16.7101 10.9862 16.863 10.8651L16.3664 10.2379L15.8698 9.61071C15.7565 9.70037 15.6411 9.79195 15.5903 9.84008C15.5834 9.84667 15.5692 9.86027 15.5526 9.87812C15.5522 9.87856 15.49 9.94179 15.4375 10.0361C15.4214 10.0652 15.3932 10.1198 15.371 10.1932C15.3514 10.2577 15.3149 10.4055 15.3537 10.59C15.4007 10.8132 15.5422 11.011 15.7498 11.1257C15.9217 11.2207 16.0806 11.2266 16.1513 11.2253C16.2903 11.2228 16.3939 11.1833 16.4122 11.1766C16.4496 11.163 16.4781 11.1493 16.4922 11.1424C16.5396 11.119 16.5767 11.0944 16.5798 11.0924C16.5925 11.0842 16.6039 11.0764 16.6122 11.0707C16.6435 11.0491 16.6869 11.0175 16.7357 10.9816L16.2614 10.3374ZM16.3664 10.2379L16.863 10.8651L16.893 10.8413L16.3964 10.2141L15.8998 9.58692L15.8698 9.61071L16.3664 10.2379ZM16.3964 10.2141L16.893 10.8413L16.9231 10.8175L16.4265 10.1903L15.9299 9.56313L15.8998 9.58692L16.3964 10.2141ZM16.4265 10.1903L16.9231 10.8175C17.2322 10.5728 17.5165 10.2963 17.7761 9.98944L17.1653 9.47278L16.5545 8.95613C16.3613 9.18454 16.1531 9.38643 15.9299 9.56313L16.4265 10.1903ZM17.1653 9.47278L17.7761 9.98944L17.8017 9.95922L17.1909 9.44257L16.5801 8.92591L16.5545 8.95613L17.1653 9.47278ZM17.1909 9.44257L17.8017 9.95922L17.8272 9.92901L17.2164 9.41235L16.6056 8.89569L16.5801 8.92591L17.1909 9.44257ZM17.2164 9.41235L17.8272 9.92901C18.0488 9.66706 18.2733 9.40909 18.5007 9.15509L17.9047 8.62147L17.3086 8.08784C17.0712 8.35308 16.8368 8.62236 16.6056 8.89569L17.2164 9.41235ZM17.9047 8.62147L18.5007 9.15509L18.5269 9.12578L17.9309 8.59216L17.3349 8.05853L17.3086 8.08784L17.9047 8.62147ZM17.9309 8.59216L18.5269 9.12578L18.5532 9.09647L17.9572 8.56284L17.3611 8.02922L17.3349 8.05853L17.9309 8.59216ZM17.9572 8.56284L18.5532 9.09647C18.7682 8.85633 18.9935 8.62825 19.2293 8.41214L18.6887 7.82242L18.1481 7.2327C17.8733 7.48459 17.611 7.75013 17.3611 8.02922L17.9572 8.56284ZM18.6887 7.82242L19.2293 8.41214L19.2581 8.38572L18.7175 7.796L18.1769 7.20628L18.1481 7.2327L18.6887 7.82242ZM18.7175 7.796L19.2581 8.38572L19.2869 8.3593L18.7464 7.76958L18.2058 7.17986L18.1769 7.20628L18.7175 7.796ZM18.7464 7.76958L19.2869 8.3593C19.5679 8.10172 19.8312 7.82665 20.0767 7.53424L19.464 7.01988L18.8512 6.50552C18.6504 6.74471 18.4353 6.96944 18.2058 7.17986L18.7464 7.76958ZM19.464 7.01988L20.0767 7.53424L20.1019 7.50423L19.4891 6.98987L18.8764 6.47551L18.8512 6.50552L19.464 7.01988ZM19.4891 6.98987L20.1019 7.50423L20.1271 7.47423L19.5143 6.95986L18.9016 6.4455L18.8764 6.47551L19.4891 6.98987ZM19.5143 6.95986L20.1271 7.47423C20.3117 7.25432 20.518 7.05808 20.747 6.88471L20.2642 6.24688L19.7813 5.60906C19.4568 5.85473 19.1633 6.1338 18.9016 6.4455L19.5143 6.95986ZM20.2642 6.24688L20.747 6.88471L20.7783 6.86106L20.2954 6.22323L19.8125 5.5854L19.7813 5.60906L20.2642 6.24688ZM20.2954 6.22323L20.7783 6.86106L20.8095 6.8374L20.3266 6.19957L19.8438 5.56175L19.8125 5.5854L20.2954 6.22323ZM20.3266 6.19957L20.8095 6.8374C21.0034 6.69062 21.2857 6.42383 21.3479 6.01194C21.4194 5.53844 21.1636 5.19089 20.9456 4.99913L20.4172 5.59979L19.8888 6.20045C19.8873 6.19912 19.8472 6.1643 19.8112 6.08879C19.7707 6.00381 19.7478 5.89224 19.7658 5.77304C19.7826 5.66206 19.8275 5.59153 19.8479 5.56438C19.867 5.53887 19.8731 5.53954 19.8438 5.56175L20.3266 6.19957ZM20.4172 5.59979L20.9456 4.99913L20.9212 4.97764L20.3928 5.5783L19.8644 6.17896L19.8888 6.20045L20.4172 5.59979ZM20.3928 5.5783L20.9212 4.97764L20.8968 4.95615L20.3684 5.55681L19.84 6.15747L19.8644 6.17896L20.3928 5.5783ZM20.3684 5.55681L20.8968 4.95615C20.4366 4.55139 19.8649 4.49155 19.3328 4.61534L19.514 5.39454L19.6953 6.17374C19.7898 6.15176 19.8341 6.1577 19.8432 6.15944C19.8474 6.16023 19.8463 6.16045 19.8426 6.15864C19.8388 6.15681 19.8377 6.15551 19.84 6.15747L20.3684 5.55681ZM19.514 5.39454L19.3328 4.61534L19.2929 4.62462L19.4741 5.40382L19.6554 6.18301L19.6953 6.17374L19.514 5.39454ZM19.4741 5.40382L19.2929 4.62462L19.253 4.6339L19.4343 5.41309L19.6155 6.19229L19.6554 6.18301L19.4741 5.40382ZM19.4343 5.41309L19.253 4.6339C18.9755 4.69846 18.7076 4.71901 18.4465 4.69912L18.3857 5.4968L18.3249 6.29449C18.7556 6.3273 19.1867 6.29204 19.6155 6.19229L19.4343 5.41309ZM18.3857 5.4968L18.4465 4.69912L18.4074 4.69614L18.3466 5.49383L18.2859 6.29152L18.3249 6.29449L18.3857 5.4968ZM18.3466 5.49383L18.4074 4.69614L18.3684 4.69317L18.3076 5.49085L18.2468 6.28854L18.2859 6.29152L18.3466 5.49383ZM18.3076 5.49085L18.3684 4.69317C18.0342 4.66771 17.7001 4.63483 17.3659 4.59454L17.2701 5.38878L17.1744 6.18303C17.5317 6.22612 17.8892 6.2613 18.2468 6.28854L18.3076 5.49085ZM17.2701 5.38878L17.3659 4.59454L17.3269 4.58983L17.2311 5.38408L17.1353 6.17832L17.1744 6.18303L17.2701 5.38878ZM17.2311 5.38408L17.3269 4.58983L17.2878 4.58512L17.192 5.37937L17.0963 6.17362L17.1353 6.17832L17.2311 5.38408ZM17.192 5.37937L17.2878 4.58512C16.8914 4.53732 16.4934 4.52759 16.0946 4.5559L16.1512 5.3539L16.2079 6.15189C16.5053 6.13078 16.8012 6.13803 17.0963 6.17362L17.192 5.37937ZM16.1512 5.3539L16.0946 4.5559L16.0553 4.55869L16.1119 5.35669L16.1686 6.15468L16.2079 6.15189L16.1512 5.3539ZM16.1119 5.35669L16.0553 4.55869L16.016 4.56148L16.0726 5.35948L16.1293 6.15747L16.1686 6.15468L16.1119 5.35669ZM16.0726 5.35948L16.016 4.56148C15.685 4.58498 15.3545 4.59775 15.0244 4.59982L15.0294 5.3998L15.0344 6.19978C15.3991 6.19751 15.7641 6.18339 16.1293 6.15747L16.0726 5.35948ZM15.0294 5.3998L15.0244 4.59982L14.9852 4.60006L14.9902 5.40005L14.9952 6.20003L15.0344 6.19978L15.0294 5.3998ZM14.9902 5.40005L14.9852 4.60006L14.9459 4.60031L14.9509 5.40029L14.9559 6.20027L14.9952 6.20003L14.9902 5.40005ZM14.9509 5.40029L14.9459 4.60031C14.6203 4.60234 14.295 4.59112 13.9702 4.56663L13.9101 5.36436L13.8499 6.1621C14.2181 6.18986 14.5868 6.20258 14.9559 6.20027L14.9509 5.40029ZM13.9101 5.36436L13.9702 4.56663L13.9311 4.56368L13.871 5.36141L13.8108 6.15915L13.8499 6.1621L13.9101 5.36436ZM13.871 5.36141L13.9311 4.56368L13.892 4.56073L13.8318 5.35846L13.7717 6.1562L13.8108 6.15915L13.871 5.36141ZM13.8318 5.35846L13.892 4.56073C13.5631 4.53593 13.2344 4.50019 12.9056 4.45347L12.7931 5.24551L12.6805 6.03755C13.0438 6.08919 13.4076 6.12875 13.7717 6.1562L13.8318 5.35846ZM12.7931 5.24551L12.9056 4.45347L12.8666 4.44792L12.754 5.23996L12.6414 6.032L12.6805 6.03755L12.7931 5.24551ZM12.754 5.23996L12.8666 4.44792L12.8275 4.44236L12.7149 5.2344L12.6024 6.02644L12.6414 6.032L12.754 5.23996ZM12.7149 5.2344L12.8275 4.44236C12.4308 4.38598 12.0324 4.368 11.6333 4.38858L11.6745 5.18752L11.7157 5.98646C12.0117 5.97119 12.307 5.98447 12.6024 6.02644L12.7149 5.2344ZM11.6745 5.18752L11.6333 4.38858L11.594 4.39061L11.6352 5.18954L11.6764 5.98848L11.7157 5.98646L11.6745 5.18752ZM11.6352 5.18954L11.594 4.39061L11.5548 4.39263L11.596 5.19157L11.6372 5.99051L11.6764 5.98848L11.6352 5.18954ZM11.596 5.19157L11.5548 4.39263C11.2239 4.40969 10.8932 4.41631 10.5627 4.41251L10.5535 5.21245L10.5442 6.0124C10.9085 6.01659 11.2728 6.00929 11.6372 5.99051L11.596 5.19157ZM10.5535 5.21245L10.5627 4.41251L10.5234 4.41206L10.5142 5.212L10.505 6.01195L10.5442 6.0124L10.5535 5.21245ZM10.5142 5.212L10.5234 4.41206L10.4842 4.4116L10.475 5.21155L10.4658 6.0115L10.505 6.01195L10.5142 5.212ZM10.475 5.21155L10.4842 4.4116C10.2095 4.40844 9.933 4.3684 9.65312 4.2894L9.43581 5.05933L9.2185 5.82925C9.62939 5.94522 10.0457 6.00666 10.4658 6.0115L10.475 5.21155ZM9.43581 5.05933L9.65312 4.2894L9.61412 4.2784L9.39682 5.04832L9.17951 5.81824L9.2185 5.82925L9.43581 5.05933ZM9.39682 5.04832L9.61412 4.2784L9.57513 4.26739L9.35782 5.03731L9.14051 5.80723L9.17951 5.81824L9.39682 5.04832ZM9.35782 5.03731L9.57513 4.26739C9.15195 4.14795 8.72213 4.09495 8.28854 4.11126L8.31862 4.91069L8.34869 5.71013C8.60994 5.7003 8.87292 5.73171 9.14051 5.80723L9.35782 5.03731ZM8.31862 4.91069L8.28854 4.11126L8.24932 4.11273L8.27939 4.91217L8.30947 5.7116L8.34869 5.71013L8.31862 4.91069ZM8.27939 4.91217L8.24932 4.11273L8.21009 4.11421L8.24017 4.91364L8.27025 5.71308L8.30947 5.7116L8.27939 4.91217ZM8.24017 4.91364L8.21009 4.11421C7.80079 4.12961 7.39422 4.19213 6.99141 4.3003L7.19889 5.07293L7.40636 5.84556C7.69709 5.76749 7.98471 5.72382 8.27025 5.71308L8.24017 4.91364ZM7.19889 5.07293L6.99141 4.3003L6.95226 4.31081L7.15974 5.08344L7.36721 5.85607L7.40636 5.84556L7.19889 5.07293ZM7.15974 5.08344L6.95226 4.31081L6.91311 4.32133L7.12058 5.09395L7.32806 5.86658L7.36721 5.85607L7.15974 5.08344ZM7.12058 5.09395L6.91311 4.32133C6.65684 4.39014 6.40792 4.41023 6.16171 4.38546L6.08164 5.18145L6.00157 5.97743C6.44708 6.02224 6.89078 5.984 7.32806 5.86658L7.12058 5.09395ZM6.08164 5.18145L6.16171 4.38546L6.12266 4.38153L6.04259 5.17752L5.96252 5.9735L6.00157 5.97743L6.08164 5.18145ZM6.04259 5.17752L6.12266 4.38153L6.08362 4.37761L6.00355 5.17359L5.92348 5.96957L5.96252 5.9735L6.04259 5.17752ZM6.00355 5.17359L6.08362 4.37761C5.68332 4.33734 5.28324 4.33829 4.88423 4.38061L4.9686 5.17615L5.05297 5.97168C5.34218 5.94101 5.63205 5.94026 5.92348 5.96957L6.00355 5.17359ZM4.9686 5.17615L4.88423 4.38061L4.84538 4.38473L4.92975 5.18027L5.01412 5.9758L5.05297 5.97168L4.9686 5.17615ZM4.92975 5.18027L4.84538 4.38473L4.80653 4.38885L4.8909 5.18439L4.97527 5.97993L5.01412 5.9758L4.92975 5.18027ZM4.8909 5.18439L4.80653 4.38885C4.44362 4.42734 4.07964 4.47894 3.7146 4.54358L3.85409 5.33132L3.99358 6.11907C4.32274 6.06078 4.64996 6.01443 4.97527 5.97993L4.8909 5.18439ZM3.85409 5.33132L3.7146 4.54358L3.67541 4.55052L3.8149 5.33826L3.95439 6.12601L3.99358 6.11907L3.85409 5.33132ZM3.8149 5.33826L3.67541 4.55052L3.63622 4.55745L3.77571 5.3452L3.9152 6.13295L3.95439 6.12601L3.8149 5.33826ZM3.77571 5.3452L3.63622 4.55745C3.42862 4.59421 3.21844 4.57895 2.99307 4.50156L2.73323 5.25818L2.47339 6.01481C2.9438 6.17636 3.4286 6.21911 3.9152 6.13295L3.77571 5.3452ZM2.73323 5.25818L2.99307 4.50156L2.95379 4.48807L2.69395 5.2447L2.43411 6.00132L2.47339 6.01481L2.73323 5.25818ZM2.69395 5.2447L2.95379 4.48807L2.91451 4.47458L2.65467 5.23121L2.39483 5.98783L2.43411 6.00132L2.69395 5.2447ZM2.65467 5.23121L2.91451 4.47458C2.42425 4.30622 1.91867 4.28095 1.41684 4.40727L1.61211 5.18307L1.80739 5.95887C1.99986 5.91042 2.18931 5.91725 2.39483 5.98783L2.65467 5.23121ZM1.61211 5.18307L1.41684 4.40727L1.37764 4.41714L1.57292 5.19294L1.7682 5.96874L1.80739 5.95887L1.61211 5.18307ZM1.57292 5.19294L1.37764 4.41714L1.33845 4.427L1.53373 5.2028L1.729 5.9786L1.7682 5.96874L1.57292 5.19294ZM1.53373 5.2028L1.33845 4.427C1.17524 4.46808 1.07167 4.48848 1.0151 4.49621C0.985274 4.50029 0.990774 4.49766 1.01838 4.49825C1.03278 4.49856 1.06838 4.49998 1.11651 4.50953C1.14149 4.51448 1.17506 4.52264 1.214 4.53649C1.25263 4.55024 1.30287 4.57182 1.35766 4.60599L0.934299 5.28479L0.510938 5.96358C0.718986 6.09334 0.929992 6.09673 0.984172 6.09789C1.07485 6.09983 1.16184 6.09104 1.23192 6.08145C1.37515 6.06186 1.54507 6.0249 1.729 5.9786L1.53373 5.2028ZM0.934299 5.28479L1.35766 4.60599L1.35174 4.6023L0.928376 5.28109L0.505015 5.95989L0.510938 5.96358L0.934299 5.28479ZM0.928376 5.28109L1.70032 5.4911L1.71563 5.43482L0.943689 5.22481L0.171746 5.0148L0.156433 5.07108L0.928376 5.28109ZM0.943689 5.22481L0.915641 4.4253L0.815702 4.4288L0.84375 5.22831L0.871798 6.02782L0.971736 6.02432L0.943689 5.22481Z" fill="#D9315A"/>
</svg>
