<svg width="36" height="48" viewBox="0 0 36 48" fill="none" xmlns="http://www.w3.org/2000/svg">
<g clip-path="url(#clip0_182_215)">
<path d="M18.3626 1.88417C18.5604 1.58222 18.3636 2.11856 18.2652 2.23669C18.1838 2.33422 18.1292 2.45259 18.0585 2.57275M18.0585 2.57275C18.0205 2.63745 17.9778 2.70268 17.9239 2.76546C17.5479 3.20282 17.1089 3.77571 17.1089 4.33962C17.1089 4.877 16.5896 5.38157 16.3844 5.84692C16.1263 6.43277 15.8168 7.30849 15.3814 7.76752C15.14 8.02207 15.1904 8.4503 14.9774 8.7521C14.7813 9.03024 14.7266 9.30247 14.6013 9.60307C14.3138 10.2929 13.9415 10.9355 13.661 11.6209C13.3902 12.2825 13.0134 12.9373 12.6927 13.5901C12.5264 13.929 12.4157 14.3745 12.3515 14.7388C12.2935 15.0678 12.3281 15.589 12.1912 15.8876C11.5865 17.2067 12.2032 18.509 11.9614 19.8806C11.843 20.5526 11.843 21.2072 11.843 21.8961V21.9289C11.843 22.6079 12.19 23.1287 12.2191 23.7887C12.2421 24.3103 12.3481 24.7077 12.2121 25.2413C12.1088 25.6472 11.0114 25.136 10.7773 25.0226C10.4022 24.8408 9.63684 24.9678 9.20999 24.9678C8.76316 24.9678 8.07204 24.6682 7.67761 24.9435C7.53933 25.04 7.12588 24.9595 6.95321 24.9678C6.58606 24.9856 6.22775 25.3562 5.83176 25.3994C5.38004 25.4486 4.40046 25.5416 4.0068 25.3508C3.47506 25.0929 3.066 24.9067 2.66246 24.5546C2.42308 24.3457 2.33789 24.5894 2.12612 24.2567C2.08264 24.1884 1.96117 24.0384 1.86136 23.9174M18.0585 2.57275C18.0726 2.64187 18.0984 2.69893 18.1398 2.73507C18.4088 2.96984 18.4144 3.5915 18.495 3.90809C18.6205 4.40054 18.7388 4.93173 18.7388 5.43971C18.7388 5.78194 18.5969 6.46098 18.8363 6.72213C19.0668 6.97352 19.2404 7.56914 19.2404 7.90124C19.2404 8.32801 19.6308 8.94092 19.923 9.26878C20.2508 9.6365 20.1861 10.1736 20.5498 10.5816C20.7005 10.7506 20.8076 11.0181 20.8982 11.2076C20.9908 11.4018 21.4046 11.5887 21.5947 11.7546C21.9573 12.071 22.4639 12.4748 22.7231 12.8243C23.0624 13.2818 23.5745 13.5014 23.8794 13.967C23.945 14.0672 24.4721 14.3792 24.6316 14.441C24.7707 14.495 24.9358 14.4253 25.0705 14.4775C25.238 14.5424 25.3189 14.6795 25.5092 14.7388C26.1256 14.9309 26.3668 15.4861 26.8885 15.7538C27.5356 16.086 27.9258 16.7281 28.5462 17.1396C28.8266 17.3255 29.1584 17.557 29.2706 17.8507C29.3532 18.0667 29.71 17.9683 29.7791 18.2396C29.8458 18.5016 30.2295 18.7488 30.3991 18.9751C30.6078 19.2536 30.7687 19.5514 30.9563 19.832C31.2638 20.2919 31.6044 20.7746 31.8758 21.2482C32.0582 21.5667 32.1698 22.2206 32.433 22.4273C32.8298 22.739 33.2148 23.4159 33.2897 23.8738C33.3716 24.3742 33.7843 24.7984 33.7843 25.3508C33.7843 25.8576 34.2858 26.2904 34.2858 26.8276C34.2858 27.8544 34.1604 28.8246 34.1604 29.8362C34.1604 30.3494 34.3664 30.8321 34.0908 31.3131C33.848 31.7367 33.746 32.2941 33.4082 32.6259C33.0248 33.0022 33.0362 33.7841 32.6558 34.1576C32.4501 34.3595 32.2797 34.5983 32.2797 34.8686C32.2797 35.1425 31.9035 34.9508 31.7782 35.1968C31.6689 35.4114 30.6327 35.5742 30.3363 35.6891C30.0742 35.7908 29.4519 35.8758 29.2706 36.0173C29.0052 36.2246 28.9128 36.7723 28.5462 36.9002C28.1816 37.0275 27.8402 37.0588 27.571 37.2937C27.1135 37.6929 26.3966 38.0438 25.7879 38.2661C25.286 38.4494 24.7203 38.5114 24.2486 38.7584C23.7803 39.0036 23.3337 39.246 22.8206 39.4088C22.2548 39.5882 21.9908 39.737 21.3439 39.737C20.7155 39.737 20.1164 39.8464 19.4911 39.8464C18.8825 39.8464 18.2918 39.941 17.6801 39.9558C17.3235 39.9644 16.8957 40.3312 16.5795 40.2596C16.1396 40.1601 15.8558 40.3223 15.4232 40.2779C14.9916 40.2336 14.468 40.1308 14.0441 40.0409C12.9697 39.8128 12.1478 39.3146 11.1464 38.9651C10.2274 38.6444 8.91821 38.0678 8.28361 37.391C7.83903 36.9168 7.01945 36.7286 6.67458 36.1268C6.11237 35.1456 4.98318 34.5998 4.68942 33.4464C4.62863 33.2078 4.34836 32.9546 4.22273 32.7353C4.09016 32.504 4.07489 32.1716 3.94411 31.9148C3.71724 31.4694 3.75382 30.9668 3.54011 30.5473C3.2564 29.9903 3.27866 29.8064 3.31721 29.2345C3.3424 28.8609 3.18888 28.2162 3.00377 27.8609C2.82677 27.5211 2.69033 27.0656 2.69033 26.6939C2.69033 26.3015 2.4137 25.9372 2.25846 25.5695C2.03375 25.0373 2.18165 24.4033 1.86136 23.9174M18.0585 2.57275C17.9841 2.20724 18.2373 1.50452 18.2373 1.77477M1.86136 23.9174C1.77575 23.8136 1.70607 23.7312 1.71515 23.7401C1.77257 23.7964 1.82073 23.8557 1.86136 23.9174ZM4.4436 29.5625C6.07422 31.9794 7.99856 34.2087 9.90453 36.4609C10.1649 36.7686 10.4076 37.0928 10.6117 37.4332M10.6117 37.4332C10.7799 37.714 10.922 38.0058 11.026 38.3085C11.4444 39.5254 10.6049 38.3312 10.1832 37.877C8.74524 36.3287 7.45301 34.7192 5.94119 33.2153C5.17121 32.4494 4.30549 31.7312 3.59381 30.9239C3.33329 30.6284 3.74688 30.9208 3.84457 30.9848C4.38513 31.3385 4.8238 31.8692 5.26553 32.3097C6.09994 33.1418 6.97004 33.9451 7.8358 34.753C8.7119 35.5705 9.54787 36.3806 10.3922 37.2206C10.4626 37.2907 10.5359 37.3617 10.6117 37.4332ZM10.6117 37.4332C11.2433 38.0293 12.0478 38.6563 12.844 39.0318C12.913 39.0644 13.3508 39.2384 13.1923 39.0135C12.7508 38.3876 12.0873 37.8144 11.5971 37.2085C10.7134 36.116 9.87967 35.0507 8.91547 34.0054C7.82573 32.824 6.62435 31.7309 5.52326 30.5593C5.29324 30.3145 5.09547 30.0454 4.89167 29.7817M4.89167 29.7817C4.72145 29.5614 4.54703 29.3448 4.34609 29.1492C4.26073 29.0661 3.98224 28.7811 4.22071 29.0642C4.42939 29.3118 4.6558 29.5499 4.89167 29.7817ZM4.89167 29.7817C5.27919 30.1624 5.69229 30.5263 6.09443 30.8875C7.76524 32.3882 9.44073 33.8769 11.0817 35.4033C12.2613 36.5006 13.4519 37.5883 14.864 38.4605C15.3885 38.7844 15.7866 38.9288 15.3794 38.2538C14.878 37.4225 13.9725 36.7314 13.262 36.0415C12.4268 35.2306 11.677 34.3459 10.9396 33.4559M10.9396 33.4559C10.5185 32.9476 10.1014 32.4377 9.67473 31.9389C8.74919 30.857 7.81888 29.7836 6.72829 28.821C6.26932 28.4159 3.42903 25.7536 3.59381 26.3048C3.7531 26.8376 6.0441 28.8837 6.4218 29.3012C6.99679 29.9366 7.71964 30.4555 8.36518 31.0334C9.02476 31.6238 9.60016 32.2785 10.2598 32.8688C10.4825 33.0681 10.7094 33.2636 10.9396 33.4559ZM10.9396 33.4559C12.1787 34.491 13.5146 35.437 14.8082 36.4183C14.9014 36.489 17.1372 38.0257 17.1487 37.9986C17.3815 37.4473 15.1814 35.7874 14.8501 35.4702C13.2178 33.9074 11.718 32.3595 10.406 30.5836C10.2206 30.3325 10.0286 30.0813 9.82979 29.8327M9.82979 29.8327C9.29733 29.1668 8.71593 28.5191 8.07959 27.9398C7.73795 27.6286 7.34927 27.3813 6.97208 27.107C6.91067 27.0624 6.84915 27.0098 6.80313 26.9684M9.82979 29.8327C8.83233 28.9516 7.86299 28.041 6.92332 27.0888C6.87246 27.0373 6.83294 26.9978 6.80313 26.9684M9.82979 29.8327C11.7301 31.5114 13.7323 33.0831 15.8252 34.6314C17.1644 35.6222 18.517 36.5418 19.9557 37.415C20.4405 37.7093 21.0533 38.0235 20.4782 37.3604C18.721 35.3343 16.7182 33.464 14.7079 31.6184M6.80313 26.9684C6.68645 26.8531 6.71866 26.8922 6.80313 26.9684ZM14.7079 31.6184C14.2252 31.1754 13.7421 30.7338 13.262 30.2918C12.4988 29.5895 8.86387 26.199 8.07959 25.5146C7.58394 25.0821 11.485 29.0116 11.5484 29.0823C12.4332 30.0698 13.6158 30.8091 14.7079 31.6184ZM14.7079 31.6184C14.8739 31.7415 15.0379 31.8662 15.1983 31.9936C17.0814 33.4887 18.8864 35.1386 20.9658 36.4304C21.1313 36.5333 23.0013 37.658 23.0972 37.4698C23.1936 37.2806 22.6814 36.7994 22.5956 36.6979C22.032 36.0304 21.4779 35.3581 20.8752 34.7165C19.2446 32.981 17.6555 31.2446 16.2083 29.3863C16.1696 29.3365 16.1309 29.2867 16.0923 29.237M16.0923 29.237C15.4072 28.3527 14.7524 27.4797 13.8888 26.712C13.645 26.4953 12.1229 25.4036 13.0251 26.3048C14.0153 27.2938 15.0129 28.3078 16.0923 29.237ZM16.0923 29.237C16.488 29.5774 16.8946 29.9066 17.3158 30.2189C18.9143 31.4041 20.5712 32.5416 22.2056 33.6894C22.7222 34.0521 23.2328 34.4387 23.8007 34.7408C23.984 34.8384 25.8469 36.6314 25.758 36.4609C25.3176 35.6155 22.8451 33.2603 22.1638 32.5772C20.3628 30.7712 18.5251 28.9841 17.1904 26.8761C16.727 26.144 16.3538 25.3789 15.9603 24.6228M15.9603 24.6228C15.7834 24.2828 15.6025 23.9448 15.4073 23.6123C15.1912 23.2442 14.581 22.6892 15.0938 23.4542C15.3673 23.8622 15.6561 24.25 15.9603 24.6228ZM15.9603 24.6228C16.8379 25.6979 17.8432 26.6463 18.9736 27.5811C20.3799 28.7441 21.7752 29.9211 23.2226 31.0455C24.0034 31.652 24.8186 32.3483 25.758 32.7716C27.0151 33.338 25.8201 32.0667 25.5421 31.781C23.9679 30.1632 22.4804 28.4731 21.0075 26.7849C19.2776 24.8021 17.4118 22.8437 15.9227 20.7132C15.5765 20.2178 15.2522 19.6801 14.9894 19.145C14.8441 18.8493 15.374 19.6941 15.5606 19.9717C16.9375 22.0213 18.815 23.7293 20.5896 25.5146C22.0873 27.0214 23.5263 28.5823 25.2565 29.8907M25.6351 30.2186C26.293 30.6726 26.9635 31.1014 27.6411 31.5314M14.2243 19.826C17.662 23.4674 20.9622 27.6114 25.1367 30.7013M25.1367 30.7013C25.1769 30.7311 25.2172 30.7608 25.2576 30.7904C25.3081 30.8273 29.3556 35.1824 29.0524 34.9118C28.5071 34.4252 26.6372 32.36 25.1367 30.7013ZM25.1367 30.7013C24.2678 29.7409 23.5228 28.9168 23.2306 28.6145C20.8255 26.1261 18.7102 23.5801 16.9218 20.7359M16.9218 20.7359C16.8108 20.5593 16.701 20.3816 16.5926 20.2028C16.5461 20.1262 16.384 19.9436 16.1554 19.7045M16.9218 20.7359C16.8108 20.5934 16.701 20.45 16.5926 20.306C16.4432 20.1078 16.2967 19.9076 16.1554 19.7045M16.9218 20.7359C18.7552 23.0909 20.9165 25.2531 23.0426 27.405C23.8304 28.2025 24.6506 28.9824 25.571 29.666C26.0432 30.0165 31.8651 33.717 31.6567 33.2075C31.3713 32.5105 25.9467 29.305 25.4387 28.736C24.1137 27.2522 22.8634 25.7583 21.747 24.1472C20.6858 22.616 19.6002 21.1059 18.6822 19.5038C18.0278 18.362 14.7657 14.7549 14.054 13.6448C13.7427 13.159 16.7794 16.4822 16.8154 16.556C17.4445 17.8476 18.575 19.0069 19.5041 20.142C20.7004 21.6033 21.9434 23.0512 23.2237 24.4573C24.1832 25.511 25.1573 26.6282 26.3999 27.4415C26.501 27.5076 33.4403 30.3242 33.2843 29.799M16.1554 19.7045C15.5537 19.0753 14.4911 18.0548 13.8636 17.5476M16.1554 19.7045C15.9152 19.3592 15.6902 19.0058 15.492 18.6408C15.4428 18.5502 14.4581 17.9294 13.8636 17.5476M33.2843 29.799C33.176 29.4344 31.9055 28.6975 30.4249 27.9107M33.2843 29.799C33.2338 29.8958 31.9299 28.9958 30.4249 27.9107M33.2843 29.799C33.5358 29.3162 25.9499 23.4578 25.7034 23.1445C23.6609 20.5487 22.1172 17.7236 20.3867 14.9726M13.8636 17.5476C13.6649 17.387 13.5098 17.2779 13.4268 17.249C13.3745 17.2307 13.5722 17.3605 13.8636 17.5476ZM30.4249 27.9107C28.3726 26.8202 25.9166 25.6339 25.592 25.2109C24.3744 23.6247 23.0694 22.0833 21.942 20.4458C21.1081 19.2345 20.3435 17.9893 19.5455 16.7602M30.4249 27.9107C28.3297 26.4002 25.8445 24.5311 25.8079 24.4937C23.4686 22.106 21.505 19.395 19.5455 16.7602M20.3867 14.9726C20.1634 14.6177 19.937 14.264 19.7061 13.9122C19.3081 13.3058 17.1697 9.41372 16.5926 8.91015C16.3851 8.72912 18.8582 12.9164 18.919 13.0005C19.4005 13.6657 19.889 14.3228 20.3867 14.9726ZM20.3867 14.9726C21.8915 16.9375 23.4791 18.8342 25.2019 20.6768C25.6112 21.1148 32.7188 25.7957 33.2843 26.1063C33.5444 26.2493 26.0436 21.019 26.0029 20.9564C24.5368 18.7009 22.7263 16.6048 21.1898 14.3802C21.0777 14.2179 20.9621 14.0547 20.8436 13.8916M19.5455 16.7602C19.2038 16.2341 18.8561 15.7109 18.4941 15.1946C18.2042 14.7811 17.9056 14.3764 17.5677 13.9912C17.4818 13.8933 15.492 10.3064 15.492 10.4296C15.492 10.5994 17.5006 14.1413 17.5956 14.2586C18.155 14.9501 18.7098 15.6398 19.2394 16.3494C19.3414 16.4861 19.4434 16.6231 19.5455 16.7602ZM20.8436 13.8916C20.502 13.421 20.1371 12.951 19.7688 12.5082C19.6941 12.4184 19.2486 12.1212 19.2951 12.1678C19.8423 12.7169 20.3505 13.298 20.8436 13.8916ZM20.8436 13.8916C21.7728 15.0102 22.6479 16.173 23.6276 17.249C24.3355 18.0262 25.056 18.7903 25.8009 19.5403C25.9004 19.6405 30.9487 22.4633 31.0056 22.4137C31.2812 22.1732 23.1096 16.1418 22.8476 15.8084C22.2783 15.0846 21.6957 14.3684 21.127 13.6448C21.0986 13.6085 21.0602 13.5484 21.0146 13.4758M21.0146 13.4758C20.8405 13.1984 20.561 12.7392 20.326 12.7392C20.2467 12.7392 20.8261 13.3294 21.0146 13.4758ZM21.0146 13.4758C21.1057 13.5464 21.1057 13.5138 20.8972 13.2619C20.1653 12.3776 19.8333 11.2336 18.9956 10.4296C18.5522 10.004 17.3332 6.50699 17.3332 6.50699C17.3332 6.50699 18.1825 9.47467 18.3548 9.70027C18.4225 9.78881 18.3908 9.76618 18.3127 9.68518M18.3127 9.68518C18.1534 9.51984 17.801 9.11141 17.707 8.91015C17.7048 8.90544 17.7026 8.90081 17.7005 8.89618M18.3127 9.68518C18.1295 9.43164 17.9174 9.19018 17.7418 8.95267C17.7275 8.93321 17.7137 8.91444 17.7005 8.89618M18.3127 9.68518C18.5493 10.0126 18.7379 10.3603 18.7379 10.7456M17.7005 8.89618C17.264 8.29437 17.4353 8.33357 17.7005 8.89618Z" stroke="#D9315A" stroke-width="1.8" stroke-linecap="round"/>
<path d="M6 39.1371C10.7275 39.3677 14.9949 39.9517 19.5874 40.9098C22.5111 41.5198 25.4394 41.6626 28.4235 41.8081L28.4523 41.8095M7.99572 46.2857C11.1397 44.6197 13.9858 42.8537 17.3272 41.6871C20.0211 40.7467 22.805 39.7794 25.533 38.9617C27.4206 38.3959 29.1482 37.5641 31.0721 37.041C32.1421 36.75 33.2215 36.3643 34.2857 36" stroke="#381067" stroke-width="2.68456" stroke-linecap="round"/>
</g>
<defs>
<clipPath id="clip0_182_215">
<rect width="36" height="48" fill="white"/>
</clipPath>
</defs>
</svg>
