<svg width="46" height="48" viewBox="0 0 46 48" fill="none" xmlns="http://www.w3.org/2000/svg">
<g clip-path="url(#clip0_182_224)">
<path d="M1.98047 17.9445C2.52494 16.0096 4.20583 14.4836 5.2714 12.8264C5.86499 11.9032 6.22441 10.3473 7.24596 9.72303C7.71288 9.43771 8.04361 9.48347 8.59457 9.46306C9.41123 9.43281 10.1603 9.22282 10.9749 9.16248C12.5781 9.04372 14.1506 8.93815 15.7356 8.74003C16.2751 8.67259 16.8661 8.73191 17.4091 8.73191C17.8712 8.73191 18.6621 8.58389 19.0908 8.7644C19.579 8.97 20.0008 8.71192 20.5206 8.73191C21.0042 8.75051 21.4629 9.02437 21.9504 9.02437C22.7775 9.02437 24.0235 8.81377 24.7937 9.1381C25.6987 9.51916 27.5577 9.1706 28.5145 9.1706C29.9863 9.1706 31.7261 9.24592 33.1371 8.80502C33.8199 8.59163 34.5812 8.8842 35.2574 8.65879C35.8899 8.44799 36.4814 8.58568 37.0772 8.58568C37.6696 8.58568 38.2056 9.55419 38.6205 9.90988C39.5177 10.679 39.3954 12.1568 40.4318 12.7614C40.8661 13.0147 41.0061 13.6324 41.3902 13.9312C41.8167 14.263 42.108 14.8299 42.4868 15.2311C43.0683 15.8469 43.7189 16.7941 44.4525 17.2133C44.571 17.281 44.0012 17.9084 43.8756 17.9363C43.3457 18.0541 42.8397 19.2382 42.5999 19.6992C41.6873 21.4537 40.1074 22.9392 39.3821 24.7848C39.0694 25.5803 38.3358 26.1328 37.8382 26.7833C37.1771 27.6477 36.5256 28.5076 35.8231 29.3505C35.4607 29.7853 35.0523 30.1538 34.7181 30.6178C34.212 31.3205 33.9194 32.0715 33.2636 32.6569C32.1972 33.6089 31.3108 34.9746 30.4279 36.1096C29.6858 37.0635 29.0459 38.0654 28.364 39.0342C27.8921 39.7046 27.2518 40.2703 26.7633 40.9758C26.4193 41.4726 23.7649 46.6059 22.8875 45.7283C22.6155 45.4563 22.5852 44.896 22.4165 44.5585C22.1727 44.0707 21.7685 43.5874 21.3524 43.2993C20.1713 42.4815 19.3052 41.2354 18.5014 40.0741C18.1994 39.6378 17.9885 39.0951 17.6242 38.7092C17.282 38.3469 16.7979 38.1452 16.5682 37.6856C15.8021 36.1529 14.3686 35.1607 13.1729 33.9649C12.2205 33.0123 11.618 32.0145 11.0774 30.8128C10.6588 29.8823 10.4579 28.5767 9.66429 27.8963C9.39645 27.6667 9.1542 27.0964 8.91705 26.7914C8.59784 26.3809 8.08831 25.8136 7.90989 25.3291C7.69735 24.752 7.33979 24.2541 7.02461 23.7287C6.6278 23.0672 6.23683 22.494 5.89566 21.8114C5.37536 20.7706 4.01463 20.7755 3.7269 19.4799C3.67682 19.2543 3.57218 19.1512 3.3695 19.1062C3.04144 19.0333 3.27794 18.665 3.069 18.5456C2.60238 18.279 2.38116 17.7507 3.00401 18.5294" stroke="#D9315A" stroke-width="2.75194" stroke-linecap="round"/>
<path d="M2.41922 18.3835C2.33755 18.2902 3.35119 18.271 3.67032 18.2454C5.0747 18.1331 6.38436 17.9449 7.81358 17.9449C8.88462 17.9449 9.93192 18.2152 11.0144 18.2373C12.2881 18.2633 13.5673 18.272 14.8489 18.2373C16.7033 18.1872 18.5347 17.9449 20.4138 17.9449C22.4173 17.9449 24.3987 17.6524 26.4012 17.6524C28.6824 17.6524 30.9243 17.243 33.1848 17.0756C34.9363 16.9459 36.6745 17.0184 38.3922 17.0675C39.3963 17.0962 40.3968 17.3599 41.3899 17.3599C41.7719 17.3599 42.0907 17.5062 42.4866 17.5062C42.9157 17.5062 43.8601 17.4187 42.9253 17.6524" stroke="#D9315A" stroke-width="2.75194" stroke-linecap="round"/>
<path d="M13.0933 16.336C14.0323 15.618 14.3838 14.8321 15.0272 13.8826C15.6106 13.0216 16.3809 11.7813 16.6037 10.7792C16.6808 10.4322 17.0728 10.0004 17.27 9.69064C17.5013 9.32719 17.8606 9.27353 17.4812 9.46317" stroke="#D9315A" stroke-width="2.75194" stroke-linecap="round"/>
<path d="M32.3965 18.3831C32.1947 17.7289 31.8742 17.1001 31.6656 16.474C31.5183 16.0319 31.227 15.8393 31.2271 15.3204C31.2271 14.9807 30.9339 14.7949 30.821 14.4674C30.6844 14.0711 30.6299 13.653 30.4637 13.265C30.1471 12.5259 30.1242 11.6812 29.8304 10.9253C29.6203 10.3849 28.8883 8.88312 28.8882 9.463" stroke="#D9315A" stroke-width="2.75194" stroke-linecap="round"/>
<path d="M12.6562 18.237C12.6563 17.7698 12.9041 18.5358 12.9486 18.6919C13.178 19.4952 14.0073 20.1051 14.5406 20.7148C15.3585 21.6496 15.271 23.1922 16.1649 24.0862C16.6482 24.5696 16.506 25.1078 16.8309 25.6622C17.1631 26.2291 17.094 26.7304 17.2206 27.3358C17.3498 27.9535 17.6914 28.4639 17.8053 29.0905C17.9099 29.6663 18.0229 30.2153 18.1787 30.7803C18.7647 32.9055 19.7445 34.9044 20.615 36.9626C20.8706 37.567 21.1608 38.1137 21.4272 38.7093C21.7274 39.3806 21.7577 40.1056 22.0119 40.789C22.2233 41.3575 22.4165 41.9255 22.629 42.495C22.8017 42.9581 23.3061 44.189 22.5963 43.2424" stroke="#D9315A" stroke-width="2.75194" stroke-linecap="round"/>
<path d="M32.5433 18.6753C31.859 20.5024 31.1449 22.317 30.5766 24.1833C30.4021 24.7563 30.1769 25.3814 29.902 25.9137C29.3847 26.9157 28.7474 27.8481 28.2281 28.8465C27.2212 30.7823 26.3113 32.7888 25.5544 34.8257C24.8294 36.7769 24.0401 38.7731 23.4089 40.7562C23.1657 41.5199 22.4692 44.8506 21.5723 44.8506" stroke="#D9315A" stroke-width="2.75194" stroke-linecap="round"/>
<path d="M1.979 17.9443C2.77268 18.437 3.21408 19.1754 3.91225 19.6991C4.2983 19.9887 4.42115 20.5133 4.75697 20.869C5.09566 21.2276 5.32111 21.7361 5.78043 22.0063C6.28724 22.3045 5.85697 22.0388 5.63419 22.0388" stroke="#D9315A" stroke-width="2.75194" stroke-linecap="round"/>
<path d="M2.12695 18.5293C2.6014 18.5589 3.13756 19.9383 3.47527 20.3166C3.7559 20.6309 4.08331 21.1476 4.28749 21.5189C4.51452 21.9318 4.93188 22.1959 5.27034 22.5344C5.51514 22.7792 5.78009 22.8405 6.00954 23.1356C6.21699 23.4023 6.54551 23.6656 6.8137 23.8667C7.56152 24.4276 7.83428 25.1962 8.47883 25.8408C9.60661 26.9688 10.2506 28.4338 11.2648 29.651C11.7754 30.2638 12.2592 30.855 12.865 31.4057C13.3128 31.8129 13.802 32.3918 14.1889 32.868C14.5215 33.2774 15.0262 33.7893 14.262 33.1524" stroke="#D9315A" stroke-width="2.75194" stroke-linecap="round"/>
<path d="M1.979 18.9683C3.05188 20.3744 3.73211 22.0897 4.93548 23.3877C6.53595 25.1139 7.91998 26.9576 9.58163 28.6195C10.1541 29.192 10.7767 29.7362 11.1574 30.4555C11.662 31.4089 12.7899 32.1564 13.5374 32.9414C14.1719 33.6078 14.7922 34.5095 15.5762 34.9887C16.432 35.5117 16.9089 36.2566 17.6069 36.9547C18.1641 37.5119 18.6664 38.4991 19.0039 39.205C19.6124 40.4776 20.4642 41.6462 20.9856 42.9501" stroke="#D9315A" stroke-width="2.75194" stroke-linecap="round"/>
<path d="M6.51318 18.6753C9.74274 23.3698 13.2308 27.9088 16.3898 32.6485C17.2347 33.916 18.1299 35.1745 18.5015 36.6617" stroke="#D9315A" stroke-width="2.75194" stroke-linecap="round"/>
<path d="M35.028 19.1142C33.0845 22.2141 31.5342 25.4987 29.9004 28.7654C29.0954 30.375 27.9438 31.7902 27.162 33.4123C26.6562 34.4617 26.2635 35.569 25.7805 36.6294C25.1999 37.9038 24.6869 39.2196 23.9114 40.3826C23.6628 40.7555 23.5128 42.1055 23.7325 41.715C25.6097 38.3785 27.6543 35.0577 29.7294 31.8038C31.1035 29.649 32.0869 27.2649 33.5648 25.1828C34.1071 24.4188 34.8037 23.7767 35.3118 22.9893C35.6979 22.391 35.8729 21.7142 36.1976 21.0883C36.7352 20.0517 37.3596 19.106 37.6684 18.0256C37.6733 18.0087 37.9372 17.7448 37.8391 17.8306C37.6709 17.9778 37.6291 18.1628 37.514 18.3505C35.7226 21.2728 34.117 24.3025 32.3297 27.23C30.6917 29.9129 29.1422 32.6122 27.8116 35.4595C27.022 37.1494 26.0462 38.8275 25.3168 40.5289C25.2376 40.7138 25.1556 41.0808 25.2599 41.2763C25.2781 41.3105 25.5529 40.858 25.6661 40.7888C26.0454 40.5571 26.46 39.7125 26.5437 39.294" stroke="#D9315A" stroke-width="2.75194" stroke-linecap="round"/>
<path d="M15.4341 15.6048C18.424 13.7528 21.369 11.6568 24.5824 10.243C24.8557 10.1228 25.6452 9.7285 24.9723 10.1943C24.4935 10.5258 24.0111 10.8589 23.6236 11.2992C22.1796 12.9397 20.2107 13.9836 18.6512 15.4586C18.1278 15.9536 18.2924 15.879 18.8217 15.5967C19.8869 15.0286 21.0523 14.5674 22.1609 14.0938C23.2265 13.6385 24.3257 13.2029 25.3457 12.6477C25.4262 12.6039 26.631 11.7591 26.54 12.1684C26.4454 12.5935 25.7436 13.1722 25.4755 13.4926C24.7383 14.3739 23.8798 15.1546 23.0543 15.9542C22.7123 16.2854 22.0782 16.9209 22.9161 16.4741C23.862 15.9696 24.8199 15.4835 25.8165 15.0849C26.2231 14.9223 27.897 14.2238 27.2788 15.2393C26.6589 16.2574 29.057 15.597 29.4722 15.4586" stroke="#D9315A" stroke-width="2.75194" stroke-linecap="round"/>
<path d="M18.3577 11.803C19.0247 11.1434 19.7261 10.516 20.389 9.85328C20.5413 9.70095 20.2243 9.88452 20.1859 9.91015C19.7812 10.1799 19.4081 10.5671 19.0077 10.8607C18.9113 10.9314 18.0815 11.6803 18.0815 11.3643C18.0816 11.2439 18.4152 10.7928 18.3497 11.1531C18.2077 11.9333 17.4964 12.8361 17.4963 13.6147C17.4963 13.6612 17.8085 13.4269 17.8375 13.4116C18.1213 13.2613 18.4021 13.1144 18.6825 12.9566C19.9698 12.2326 21.2327 11.5886 22.6554 11.1531C22.8511 11.0932 24.6818 10.357 24.7839 10.7144C24.9027 11.1306 24.5566 11.5015 24.4344 11.868C24.0791 12.9335 26.5024 10.7512 26.758 11.0069C26.9046 11.1536 25.6124 13.6284 26.7739 12.9648C27.2278 12.7054 28.1066 11.9827 28.6507 12.1036C28.9145 12.1622 28.3345 13.0124 28.3093 13.176C28.2387 13.6348 28.7291 13.1872 28.8536 13.2978C28.9667 13.3983 28.7762 14.0418 28.8535 14.2565C28.9445 14.5093 29.1663 14.3488 29.1784 14.1427C29.1987 13.7988 29.0413 13.5236 29.0324 13.2003C29.0229 12.8571 29.0001 11.7218 29.0001 11.7218C28.8173 12.4295 28.8349 13.2038 28.5611 13.8828C27.9682 15.3524 27.1557 16.0437 25.5549 16.0437C23.7623 16.0437 22.2552 16.9733 20.4367 16.7424C19.7235 16.6518 18.8969 16.3679 18.1783 16.5149C17.7089 16.6109 17.2711 16.9023 16.7809 16.9211C16.3486 16.9377 14.8511 17.4472 15.5298 17.2461C16.3996 16.9883 17.4734 17.0431 18.3732 16.9211C20.0764 16.6902 21.7744 16.6196 23.4751 16.3362" stroke="#D9315A" stroke-width="2.75194" stroke-linecap="round"/>
<path d="M28.7413 10.4863C28.0197 10.802 27.9666 10.9665 27.5713 11.5099" stroke="#D9315A" stroke-width="2.75194" stroke-linecap="round"/>
<path d="M19.1972 9.22059L15.4844 4.88818" stroke="#381067" stroke-width="2.75194" stroke-linecap="round"/>
<path d="M23.1162 8.39545C23.561 6.29408 23.6894 4.12881 23.9423 2" stroke="#381067" stroke-width="2.75194" stroke-linecap="round"/>
<path d="M28.2729 8.1891C30.3125 7.16938 32.101 5.1207 33.8438 3.65039" stroke="#381067" stroke-width="2.75194" stroke-linecap="round"/>
</g>
<defs>
<clipPath id="clip0_182_224">
<rect width="46" height="48" fill="white"/>
</clipPath>
</defs>
</svg>
