<svg width="56" height="40" viewBox="0 0 56 40" fill="none" xmlns="http://www.w3.org/2000/svg">
<g clip-path="url(#clip0_182_257)">
<path d="M4.11471 11.5284C4.11472 10.7796 3.87974 13.0138 3.87973 13.7627C3.87972 14.739 4.34961 15.5185 4.3496 16.4674C4.34959 17.5472 4.69313 18.0741 5.1719 18.9368C5.40412 19.3552 5.79424 19.566 6.04643 19.9952C6.27529 20.3846 7.10161 20.1612 7.16897 20.7007C7.20227 20.9674 9.0753 22.0355 9.38794 22.1249C9.86837 22.2623 10.9781 23.3685 11.5809 22.7651C12.4687 21.8764 14.0387 20.3277 14.4395 18.9237C14.709 17.9796 15.0102 17.1501 15.4446 16.2322C15.7462 15.5948 15.8974 14.5578 16.4497 14.1155C16.9114 13.7457 17.2942 12.7645 17.5592 12.234C17.9046 11.5425 18.9831 11.2101 19.3866 10.7053C20.2624 9.6094 23.2363 9.26713 24.2031 10.2349C24.449 10.4811 24.9864 10.961 25.0254 11.2932C25.0668 11.6448 25.7353 11.8338 25.913 12.234C26.2094 12.9015 27.7209 12.991 27.8448 11.9988C27.8989 11.5664 28.4486 11.2029 28.5367 10.7183C28.6262 10.2253 28.6894 9.78204 28.7977 9.29416C28.8391 9.10789 29.6258 8.20394 29.7767 8.05289C29.998 7.83136 31.2493 7.75166 31.6041 7.58252C32.8528 6.98734 32.9858 7.74615 34.0711 7.98756C34.4635 8.07484 35.0594 7.88671 35.3111 8.34034C35.6433 8.93877 36.074 8.726 36.3553 9.17656C37.4498 10.9295 39.1687 11.941 41.0021 12.7566C42.7254 13.5233 44.1065 14.5859 46.0536 14.5859C48.1969 14.5859 49.3091 12.0837 50.0478 10.457C50.431 9.61318 50.4003 7.74163 50.4003 6.82469C50.4003 5.96514 50.0409 4.62363 49.6432 3.8718C49.4484 3.50349 49.3057 3.12861 49.2125 2.70893C49.1387 2.37665 48.905 2.43946 48.6643 2.34308C48.525 2.2873 48.9218 1.89004 48.9776 2.0295C49.3609 2.98892 49.6753 3.61644 50.3481 4.2899C50.8525 4.79488 51.6712 6.23216 51.823 6.91616C52.0206 7.80605 52.546 8.67022 52.7367 9.52934C52.9087 10.3041 52.5406 12.0312 53.0369 12.6521C53.3765 13.077 53.5249 14.1858 53.6764 14.7165C54.1405 16.3425 54.0649 18.4802 53.7025 20.1127C53.5779 20.6737 53.3803 22.728 52.9845 23.0003C52.3017 23.4702 51.7336 25.0825 51.2093 25.7572C50.4522 26.7316 49.5971 27.7032 48.7553 28.5925C48.3439 29.0273 47.8154 29.4536 47.4761 29.9253C47.0146 30.5669 46.3676 30.6061 45.7532 31.0489C44.0277 32.2925 41.5729 32.9304 39.3572 32.9304C38.2703 32.9304 37.1452 32.641 36.1854 32.1073C35.6571 31.8135 35.2523 31.6548 34.7104 31.467C33.9619 31.2077 34.1692 30.6146 33.1963 30.5786C32.4113 30.5494 31.5171 29.7764 31.3559 29.0498C31.3145 28.8633 30.7646 27.9462 30.6119 27.8086C30.1553 27.3973 29.9886 28.5134 29.907 28.6971C29.533 29.5393 28.9856 30.4029 28.7714 31.1535C28.617 31.6941 27.2976 33.1738 26.7873 33.4008C26.3061 33.6149 26.0667 33.9847 25.73 34.3415C25.2358 34.8654 24.504 35.171 24.0853 35.7004C23.6058 36.3067 21.8816 37.1638 21.1484 37.1638C19.8966 37.1638 18.7269 38 17.5067 38C17.0519 38 16.7289 37.4804 16.3189 37.412C15.6833 37.306 15.1768 37.6342 14.5698 37.6342C14.0227 37.6342 13.6095 37.18 13.0426 37.1638C12.3963 37.1453 11.7491 37.2742 11.163 36.9809C10.4132 36.6056 9.4143 36.274 8.91787 35.6351C8.21856 34.735 6.90713 34.5005 6.17679 33.6882C5.74328 33.2061 4.41453 31.8707 4.34942 31.2841C4.29073 30.7553 3.80852 30.4258 3.54016 30.0037C3.24067 29.5325 3.30792 29.3402 3.16164 28.8277C2.92514 27.9991 2.46985 27.5214 2.46987 26.5804C2.46988 25.5967 1.99998 24.8696 2 23.8757C2.00001 22.7944 2.23497 21.9062 2.23498 20.8183C2.23499 19.8934 2.46996 18.9792 2.46997 18.1137C2.46997 17.6756 2.96171 15.7299 2.80937 15.5266C2.16439 14.6658 3.17487 13.7025 3.17488 12.9395C3.17489 12.1345 3.4665 10.174 2.93997 9.64694" stroke="#D9315A" stroke-width="2.78578" stroke-linecap="round"/>
<path d="M3.64594 17.6434C3.28216 16.5964 3.41099 17.6378 3.41098 18.1138C3.41096 19.5771 3.41095 21.0405 3.41093 22.5039C3.4109 24.8345 3.89703 27.8179 3.35863 30.1083C3.13104 31.0765 3.10622 30.4526 3.2281 29.8731C3.57541 28.2218 3.7067 26.5935 4.11575 24.9342C4.35594 23.9599 4.30024 21.7966 5.05561 21.0405C5.50479 20.5909 5.05559 22.3123 5.05558 22.9482C5.05555 25.9145 5.37417 29.1312 5.94307 32.042C6.03227 32.4985 6.07301 33.8217 6.28243 32.826C6.60935 31.2717 6.73004 29.6251 6.88292 28.0439C7.04463 26.3714 6.90612 21.5172 7.58784 23.0527C7.95984 23.8905 7.80004 25.4642 7.92717 26.3976C8.19846 28.3892 8.46328 30.2824 8.91912 32.238C8.93387 32.3013 9.2756 34.5752 9.62395 34.2763C10.2925 33.7028 9.75453 30.3429 9.75454 29.4811C9.75456 27.9001 9.75457 26.3192 9.75459 24.7382C9.7546 24.1257 10.6777 23.7496 10.6777 24.6491C10.6777 26.1702 10.4122 27.6641 10.5769 29.1806C10.7932 31.1729 11.0975 32.7823 11.7255 34.6683C11.7922 34.8685 12.5834 36.7466 12.9394 36.2885C13.7992 35.1819 13.6443 32.0705 13.6443 30.7616C13.6443 27.9896 12.6595 19.7625 13.3311 22.4517C14.2653 26.1922 14.1479 30.09 14.9757 33.819C14.9439 35.6403 15.6283 34.574 15.6283 33.6884C15.6283 31.6375 15.6702 29.619 15.8111 27.5735C15.9704 25.2613 16.1117 22.929 15.9156 20.6224C15.8706 20.0927 15.8634 18.4967 15.8634 19.0284C15.8634 19.8974 15.8359 20.7698 15.9939 21.6285C16.4239 23.9651 16.8714 26.3262 17.3905 28.6449C17.8328 30.6204 18.1913 33.0198 19.1265 34.8251C19.5133 35.5719 19.8314 31.8164 19.8314 31.4149C19.8314 28.6436 19.5141 25.7309 19.2571 22.9743C19.0415 20.6613 18.8436 18.4733 19.2703 16.1669C19.4231 15.3406 19.3878 15.2509 19.3877 16.1408C19.3877 20.8399 20.2154 25.3695 20.7973 30.0299C20.8149 30.1712 21.071 30.9621 21.215 30.3696C21.4086 29.5728 21.2379 28.6044 21.1367 27.8087C20.7427 24.7093 17.1235 21.3516 16.7574 18.2624C16.5951 16.8935 19.9412 14.0348 19.1006 12.8874C18.6368 12.2543 17.8259 14.1928 17.7561 14.7166C17.4165 17.2662 22.0278 19.7838 22.0278 22.3543C22.0278 22.9518 17.743 24.9176 17.743 24.3201C19.2571 22.9743 17.7621 21.7337 17.743 20.4134C17.7358 19.9106 17.7054 14.5589 16.8033 15.6312C16.1113 16.4537 16.3333 18.3556 16.3333 19.342C16.3333 21.3935 16.5547 23.3403 17.0903 25.3262C17.5891 27.1754 18.2219 28.8876 19.1004 30.5787C19.7746 31.8766 20.0399 30.442 20.1446 29.6379C20.3871 27.7771 20.8337 25.9135 20.9801 24.0457C21.1707 21.6141 20.9802 14.0854 20.9802 11.6331C20.9803 10.104 16.9926 16.2931 16.9926 17.3417C16.9925 20.3719 21.1861 23.3916 21.959 26.293C22.2424 27.3567 22.4139 28.4396 22.6769 29.5073C22.6964 29.5865 23.5058 35.0193 23.6166 34.8251C24.4218 33.4147 23.6167 27.1092 23.6168 25.5744C23.6168 22.4352 18.5672 20.2035 18.3311 17.072C18.2363 15.8139 23.4992 13.3439 23.1601 12.1557C22.2886 9.10248 23.7217 18.4817 24.0345 21.6416C24.2265 23.5816 24.9098 25.4898 25.0264 27.4167C25.0467 27.751 25.2653 24.8898 25.2614 24.3593C25.235 20.7262 22.4886 9.52835 22.6281 13.1588C22.7171 15.4772 24.5024 18.6722 24.8861 20.9627C25.2825 23.3292 26.7483 27.4845 27.8458 29.6379C28.4009 30.7269 27.8459 26.7588 27.8459 26.3453C27.8459 24.5686 27.9823 24.5025 27.9664 22.7258C27.9536 21.2787 25.1179 10.8659 25.6789 12.1997C28.1777 11.3323 30.3648 17.088 29.0207 23.2879C29.0588 23.4079 30.3164 27.0615 30.7175 26.0578C31.6764 23.6582 31.3702 20.9269 31.3702 18.4012C31.3703 16.1704 31.3718 13.8484 31.0832 11.6331C31.0019 11.0097 30.6339 9.2923 30.6655 10.8752C30.7642 15.8176 30.9404 23.3639 32.2799 28.0569C32.6624 29.3971 33.5413 23.0346 33.4978 21.6416C33.4129 18.9196 33.4848 16.1855 33.4849 13.4623C33.4849 12.1121 32.2801 9.73263 32.2801 8.38248C32.2801 7.55559 33.4849 10.3423 33.4849 10.5094C33.4849 13.2351 34.265 15.8543 34.4246 18.5711C34.5768 21.1612 34.9007 27.4774 35.3643 30.0299C36.0243 33.6636 35.4013 18.9062 35.3645 15.2131C35.3514 13.9043 34.4611 8.36726 34.5379 9.67394C34.8052 14.2241 37.3097 20.236 37.6616 24.7774C37.6831 25.0544 38.3672 33.9 38.3673 32.6086C38.3673 30.4311 37.9632 22.7476 37.9489 20.5702C37.9303 17.761 37.4791 9.3465 37.4791 12.1557C37.479 16.0324 39.045 20.1382 39.6979 23.9412C39.7831 24.4377 41.8228 34.3763 41.9561 32.042C42.098 29.5563 40.8653 21.2473 40.7814 18.7671C40.7259 17.1284 39.9081 15.1869 40.021 13.5483C40.1278 11.9992 41.175 11.6839 41.2513 13.6713C41.3621 16.5565 41.9596 19.3631 42.6348 22.1511C43.0201 23.742 43.1455 26.8174 44.3838 28.0569C44.3995 28.0727 44.5274 25.2218 44.5275 24.8035C44.5275 22.3617 44.4445 19.9588 44.3056 17.5258C44.29 17.2525 43.9705 14.4764 43.8358 15.8926C43.6423 17.9254 44.493 20.1323 44.8799 22.0989C44.9266 22.336 46.3448 29.3091 46.7942 29.1806C47.3656 29.0172 46.1973 21.6093 46.1852 21.2235C46.1321 19.5228 46.1722 17.8162 46.1722 16.1147C46.1722 14.2137 46.1732 17.3141 46.2244 17.8524C46.438 20.0974 47.3159 22.8546 48.1249 24.9602C48.8145 26.7551 48.5139 23.7567 48.5217 23.1049C48.5511 20.6301 48.2868 13.2084 48.2868 15.6835C48.2868 17.6524 48.2917 19.8406 49.0438 21.6938C49.6225 23.1199 51.1306 25.1523 51.3672 23.6369C51.6985 21.5142 50.3922 17.2109 50.2186 15.0825C50.1596 14.3585 50.2489 13.6045 50.1534 12.8874C50.0803 12.3385 49.7165 13.5484 49.7096 13.6452C49.5902 15.3185 50.1737 17.1927 50.6363 18.7801C50.8338 19.4581 51.0861 21.253 51.4716 19.9299C52.2831 17.1451 51.3674 8.32717 51.3673 11.228C51.3673 12.538 52.0036 13.9225 52.6334 15.0433C53.3427 16.3056 53.4557 14.1868 53.4557 13.6975C53.4558 12.4186 53.7989 10.5814 53.4427 9.33346C53.2195 8.55129 53.2208 10.9503 53.2208 11.7637" stroke="#D9315A" stroke-width="2.78578" stroke-linecap="round"/>
<path d="M36.6553 13.0099C38.1893 9.62843 39.9548 6.29846 41.0695 2.60986" stroke="#381067" stroke-width="2.7195" stroke-linecap="round"/>
<path d="M39.6069 15.8613C40.8842 14.5638 42.1501 13.2525 43.408 11.9238" stroke="#381067" stroke-width="2.7195" stroke-linecap="round"/>
</g>
<defs>
<clipPath id="clip0_182_257">
<rect width="56" height="40" fill="white"/>
</clipPath>
</defs>
</svg>
