<svg width="51" height="48" viewBox="0 0 51 48" fill="none" xmlns="http://www.w3.org/2000/svg">
<g clip-path="url(#clip0_182_268)">
<path d="M17.2475 16.4989C16.7652 16.4336 19.1415 12.8581 19.1658 12.5819C19.2124 12.0507 19.6159 12.1095 19.8318 11.7227C20.0251 11.3765 20.0429 10.9055 20.1781 10.5349C20.5213 9.59468 21.5449 8.80593 21.9899 7.8562C22.3521 7.08302 22.7051 5.97483 22.9489 5.12691C23.1938 4.27512 23.9034 3.61412 23.9613 2.62506C24.0171 1.6722 24.8778 1.52276 24.9205 2.57452C24.9622 3.60379 25.7615 4.34496 25.8929 5.34172C26.125 7.10304 27.3064 8.73437 27.9177 10.3581C28.4729 11.8326 29.8695 12.9032 30.4887 14.2246C30.9241 15.1538 32.4854 16.2153 33.5525 16.2715C34.4267 16.3175 35.2633 16.8045 36.1368 16.5495C37.0121 16.294 37.8882 16.7685 38.7077 16.9412C39.4993 17.108 40.5233 16.9538 41.332 16.9538C42.1047 16.9538 42.6864 17.1813 43.5033 17.1813C45.2188 17.1813 46.7547 17.5433 48.4188 17.6362C49.4655 17.6946 49.1647 18.0002 48.8451 18.5459C48.3577 19.3781 46.8569 20.4965 46.0211 20.9972C45.2027 21.4874 43.7031 22.5767 43.1437 23.3727C42.4384 24.3761 41.2721 25.0981 40.626 26.0515C40.1791 26.7107 39.6682 27.715 38.9609 28.0984C38.5602 28.3156 37.4982 29.3948 37.4023 29.8043C37.3586 29.9907 37.1884 30.5068 37.016 30.6002C36.2941 30.9915 37.0555 30.9146 37.1359 31.1815C37.354 31.9058 37.1492 32.9809 37.1492 33.7339C37.1492 35.3555 37.234 37.5809 38.2948 38.8387C38.6897 39.3068 38.2166 40.6497 38.8276 41.012C39.4671 41.3911 39.0721 42.6581 39.6669 43.1095C39.9913 43.3557 40.0265 43.7725 40.0265 44.133C40.0265 44.3675 40.3901 44.9977 40.253 44.8027C39.7681 44.1128 39.2967 43.9138 38.468 43.5644C36.8118 42.8662 35.1144 42.51 33.326 42.086C32.7563 41.9509 32.202 42.0847 31.7541 41.7449C31.3915 41.4696 31.3626 41.0626 30.795 41.0626C29.9856 41.0626 29.5485 40.3931 28.8768 40.0391C28.2157 39.6906 25.524 37.4981 24.9737 38.3332C24.7418 38.6853 24.2544 38.6847 24.0146 39.0155C23.7858 39.3312 22.8481 39.8903 22.4693 40.1528C21.4646 40.8492 20.255 41.5308 19.1658 42.0228C17.8959 42.5964 16.6702 43.3554 15.4891 44.0193C14.9866 44.3017 13.7426 45.2705 13.2645 45.3713C12.7939 45.4704 12.3377 45.6114 11.8525 45.6114C11.3525 45.6114 11.1537 46.0662 10.6536 46.0662C10.1082 46.0662 10.0686 46.373 10.2939 45.8387C10.4601 45.4448 10.5337 45.2688 10.5337 44.8153C10.5337 44.1033 11.1275 43.2528 11.2664 42.5282C11.4529 41.5552 11.8946 40.4794 11.9723 39.521C12.1163 37.7467 13.4111 36.2701 13.4111 34.4667C13.4111 33.7086 13.4111 32.9505 13.4111 32.1923C13.4111 31.3157 12.6633 31.2453 12.4386 30.4991C12.3679 30.2646 11.1141 28.8738 10.8934 28.7807C10.0482 28.4244 9.96665 27.1309 9.44135 26.6327C8.10968 25.3695 7.19734 23.6701 5.92461 22.4629C4.71815 21.3186 4.01186 19.9663 2.80748 18.8239C2.53134 18.5619 1.64129 17.9388 1.90165 18.0405C2.30606 18.1984 2.67263 18.099 2.96733 17.8636C3.52589 17.4174 4.30811 17.8338 4.89889 17.5224C5.21874 17.3539 5.75212 17.3594 6.11111 17.4214C6.81277 17.5424 7.19863 17.4087 7.89613 17.4087C8.50098 17.4087 10.6878 17.0603 11.1332 17.295C11.8845 17.691 13.1745 17.1813 14.0105 17.1813C14.6617 17.1813 15.7115 17.6859 16.0486 16.7264" stroke="#D9315A" stroke-width="2.78437" stroke-linecap="round"/>
<path d="M4.15186 18.703C5.24557 18.1636 6.43902 17.7725 7.49377 17.1947C7.81894 17.0165 9.98234 16.4472 9.63202 17.069C9.34614 17.5764 6.37767 21.5747 6.84237 21.7056C7.711 21.9504 9.71557 20.3749 10.4392 19.932C12.5923 18.6139 14.7788 17.4227 16.6416 15.7003C19.1537 13.3777 22.3255 11.8604 24.9397 9.751C25.6525 9.17583 25.888 7.89355 26.6815 7.89355C26.6907 7.89355 26.3051 8.30415 26.2 8.39632C25.6608 8.86901 25.3364 9.53989 24.7839 10.0303C22.499 12.0584 20.2053 14.0297 18.1709 16.3148C16.342 18.3691 14.2438 20.6392 13.2997 23.2C13.2124 23.4366 12.3993 24.1746 13.073 23.8423C13.6555 23.5552 14.1221 22.9774 14.6308 22.5855C17.4974 20.3766 20.5391 18.3676 23.5237 16.3148C25.2483 15.1287 26.9147 13.8531 28.7348 12.8094C29.4165 12.4186 37.3863 19.3314 38.2224 19.3314C38.3351 19.3314 29.6272 13.0626 29.2729 13.3122C28.4289 13.9068 27.7862 15.029 27.1063 15.7981C25.9333 17.1251 24.7552 18.4366 23.382 19.5688C20.481 21.9608 16.4516 24.3514 14.3759 27.5153C14.0877 27.9544 13.1685 30.3375 13.3279 30.1408C14.432 28.7797 16.1728 27.5234 17.647 26.5796C21.818 23.9094 26.1494 21.4392 30.6322 19.3314C30.9731 19.1712 36.379 18.605 36.1405 17.7817C36.0123 17.339 37.5979 15.9519 37.4011 16.0774C35.8286 17.0809 34.2586 18.1363 32.6007 19.066C26.9828 22.2165 22.5387 27.0214 17.562 31.0207C16.6452 31.7574 15.775 32.7021 14.744 33.2831C14.1451 33.6207 14.7874 33.9203 15.3954 33.5205C22.6631 28.7421 30.3069 24.1922 38.2224 20.5185C41.0478 19.2072 46.8604 16.9433 46.8604 16.9433C46.8604 16.9433 43.7636 18.728 42.2724 19.7085C36.532 23.4827 30.518 26.8287 25.053 31.0207C23.0311 32.5716 20.8903 33.8475 18.9356 35.4897C17.6648 36.5573 16.3032 37.5206 14.9706 38.5062C13.5288 39.5728 12.4688 41.0136 11.034 42.1373C10.664 42.4271 11.661 44.9428 12.101 45.3769C12.5837 45.8528 10.7122 43.3791 11.2889 43.087C17.0424 40.1732 22.356 36.0891 27.8284 32.6966C30.5651 31 34.2042 29.928 36.5231 27.641C37.0558 27.1156 37.5674 27.0266 38.1091 26.5516C38.1372 26.527 38.9838 26.0532 38.9588 26.3003C38.9249 26.6338 38.2769 26.9492 38.1091 27.25C37.4309 28.4661 36.3393 29.426 35.2487 30.3224C33.4808 31.7753 31.8282 33.3018 30.0941 34.7914C29.1875 35.5703 28.003 36.4926 27.4037 37.5566C26.7671 38.6866 28.4083 37.1713 28.6781 36.998C30.5075 35.8231 32.256 34.6859 34.2291 33.73C34.3797 33.657 37.6842 32.3449 37.6842 32.7244C37.6842 33.208 35.2645 35.5574 34.8804 36.0484C33.9425 37.2474 31.5189 38.6203 31.0287 40.0704C30.4886 41.6687 36.1895 35.9281 35.3903 37.4169C34.8129 38.4924 34.2288 39.724 33.5211 40.7128C32.7482 41.7927 34.5413 41.0663 34.9938 40.7687C37.4337 39.1645 36.0852 41.7399 37.2878 42.3328" stroke="#D9315A" stroke-width="2.78437" stroke-linecap="round"/>
<path d="M18.2944 21.3496C19.6666 23.7789 21.2537 26.1625 22.5657 28.6143C22.7854 29.0247 23.0148 29.5153 23.1285 29.9638C23.2999 30.6405 23.9593 31.1282 24.0493 30.153C24.2533 27.94 26.9542 26.7688 28.0776 25.0828C29.3779 23.1314 31.6274 21.6991 33.7174 20.6685" stroke="#381067" stroke-width="3" stroke-linecap="round"/>
</g>
<defs>
<clipPath id="clip0_182_268">
<rect width="51" height="48" fill="white"/>
</clipPath>
</defs>
</svg>
