<svg width="139" height="78" viewBox="0 0 139 78" fill="none" xmlns="http://www.w3.org/2000/svg">
<path d="M71.6129 3.70275C74.6294 0.713656 79.1085 -0.574789 83.3979 0.239509C86.5791 0.843569 88.5736 2.39959 89.1939 2.90344C89.3373 3.02002 89.4719 3.13635 89.5989 3.24896C91.6283 4.1752 93.0603 5.47872 94.0327 6.67661C95.952 4.00458 98.695 2.19074 101.685 1.24447C106.875 -0.398024 111.86 0.828691 114.527 1.64227L127.077 5.46953C128.235 5.82265 129.443 6.21667 130.5 6.63643C130.994 6.83261 131.804 7.16961 132.666 7.64908C133.092 7.88597 133.813 8.3126 134.599 8.94274C135.209 9.43115 136.882 10.8344 137.986 13.2098C139.401 16.2566 139.612 20.5333 136.809 24.314C135.279 26.3772 133.38 27.5311 132.063 28.1485L133.388 29.9271C134.059 30.8291 134.931 32.0294 135.552 33.1364C135.723 33.4428 136.029 34.0087 136.311 34.7209C136.389 34.9186 137.383 37.1899 137.02 40.1152C136.802 41.8714 135.919 45.1159 132.604 47.677C132.225 47.9699 131.841 48.2313 131.456 48.4668L134.797 53.0445C135.638 54.198 136.426 55.2993 136.934 56.0989C137.062 56.3004 137.305 56.6893 137.55 57.1558C137.662 57.3691 137.906 57.8438 138.14 58.4616C138.257 58.7705 138.449 59.3155 138.601 60.0113C138.721 60.5583 139.01 62.0248 138.73 63.886C138.44 65.8014 137.199 69.8672 132.514 72.3296C128.243 74.5746 124.228 73.7827 122.848 73.4273C120.178 72.7387 118.436 71.3678 118.371 71.3208C117.776 70.8853 117.296 70.4514 117.024 70.1926L112.441 69.5164L108.912 72.8622C108.343 73.4025 107.715 73.9723 107.069 74.4976C106.602 74.8783 105.436 75.8143 103.876 76.5757C103.217 76.8975 101.236 77.8299 98.49 77.9807C94.936 78.1755 89.9767 76.9316 86.9732 72.5672C86.0727 71.2588 85.5728 69.9643 85.3008 68.832C83.4813 68.3031 81.9992 67.4838 80.8773 66.7007C80.5307 67.1749 80.1229 67.6579 79.6411 68.1326C77.0268 70.7087 73.4853 71.8911 70.0708 71.8048C69.9907 71.9339 69.9072 72.0651 69.8179 72.1963C69.5448 72.5987 67.2941 76.1025 62.2524 77.2968C55.0773 78.9958 50.4195 74.7362 49.0431 73.0652C47.706 71.4422 47.18 69.8925 47.0415 69.4844C47.0142 69.4044 46.9881 69.3264 46.9641 69.2504C46.4577 69.4415 45.869 69.6311 45.2105 69.7825C44.2277 70.0087 41.9187 70.3894 39.2373 69.8269L36.6874 71.576C34.4617 73.1013 28.9748 76.1552 22.1959 74.0048C19.2557 73.0719 17.1571 71.4887 15.6646 69.8305C14.588 69.6249 11.5197 69.003 9.17029 67.0086C7.66855 65.7332 5.9722 64.8122 5.27393 62.5032C4.89018 61.234 5.09568 59.1471 5.1442 58.0629C4.63835 57.0917 4.24533 55.9765 4.02239 54.696C3.43695 51.3301 4.58166 48.7153 5.27393 47.4663C5.8501 46.4259 6.50095 45.6268 6.99426 45.0891C6.36358 43.7031 4.69504 40.7955 4.48136 39.7747L2.259 32.8012C1.69863 30.122 1.39284 27.8614 1.05651 26.8609V22.6532C0.770337 21.8007 0.354969 20.3731 0.290103 18.6686C0.236138 17.2353 -1.04866 10.6233 2.259 7.23176C6.05015 3.34488 11.9557 3.70962 14.4959 3.95804C16.8322 4.18651 20.2156 6.01956 21.139 6.43435L24.0618 4.1705C24.9476 3.61954 26.9203 2.6822 29.1105 2.0662C30.349 1.71784 36.634 0.825593 41.4831 4.04332C42.8055 3.1286 44.9674 1.92002 47.8837 1.46999C51.7163 0.878487 55.5543 1.80555 58.5485 3.95804L58.8352 4.1705L61.8169 6.43435C62.6291 7.05086 63.3694 7.73664 64.0447 8.45651C64.2344 8.21393 64.4296 7.98298 64.6291 7.765C67.3447 4.79666 70.8426 3.99642 71.2542 3.88949C71.3305 3.8696 71.4079 3.85132 71.4848 3.83267C71.5267 3.78943 71.5693 3.74584 71.6129 3.70275Z" fill="#381067"/>
<path d="M99.1736 20.2916C99.1736 20.5269 99.1463 20.7623 99.1796 20.9976C99.2292 21.305 98.8367 21.4875 98.925 21.8237C98.9969 22.0783 98.9414 22.3569 98.9359 22.6258C98.9359 22.6547 98.9141 22.6979 98.8917 22.7075C98.5271 22.8468 98.8699 23.2406 98.5658 23.3991C98.5156 23.6489 98.2175 23.8122 98.2338 24.0859C98.2338 24.11 98.1842 24.134 98.1564 24.158C97.9133 24.3213 97.7748 24.5422 97.6587 24.7824C97.62 24.8688 97.5039 24.9265 97.4211 24.9985C97.0673 25.3059 96.7135 25.6181 96.3538 25.9207C96.3042 25.9591 96.2159 25.9975 96.1603 25.9879C95.9008 25.9447 95.7345 26.0504 95.5634 26.2041C95.359 26.3818 94.4519 26.7612 94.1091 26.7852C93.8714 26.8044 93.7831 27.0734 93.5122 27.0013C93.2909 26.9389 93.1639 27.083 93.0309 27.1983C92.5942 27.0638 92.2955 27.5393 91.8534 27.4048C91.7869 27.3856 91.6545 27.3904 91.6376 27.4192C91.461 27.717 91.0516 27.5008 90.8363 27.6978C90.7861 27.741 90.7202 27.7938 90.6537 27.7986C90.1947 27.8178 89.7412 27.8275 89.2822 27.8419C88.8843 28.1541 88.409 27.9572 87.9664 27.9955C87.5902 28.0292 87.358 28.2117 87.358 28.5527C87.358 29.7246 87.3695 30.9014 87.3471 32.0733C87.3417 32.3951 87.4632 32.6208 87.7063 32.8562C87.9385 33.0819 88.0105 33.4133 88.21 33.6727C88.3534 33.8552 88.2373 34.0617 88.2814 34.2538C88.3316 34.4747 88.1212 34.6093 88.0661 34.7773C87.9941 35.0223 87.6567 35.1952 87.8115 35.493C87.6622 35.6419 87.4136 35.7716 87.3804 35.9396C87.3308 36.1992 87.2256 36.271 86.9492 36.2566C86.8549 36.2519 86.7502 36.3144 86.6505 36.3526C86.3131 36.4823 86.3131 36.4875 85.943 36.3382C85.8764 36.3098 85.8099 36.2473 85.7549 36.2566C85.3292 36.3289 85.1466 36.0357 84.9144 35.834C84.8479 35.7764 84.7928 35.6563 84.8091 35.5746C84.8702 35.2913 84.7154 35.0751 84.5715 34.8494C84.4832 34.7149 84.3834 34.5756 84.3447 34.4268C84.306 34.2682 84.3447 34.0905 84.3229 33.9273C84.3229 33.8888 84.2014 33.8264 84.1458 33.836C84.0466 33.8504 83.8863 33.9032 83.8803 33.9512C83.8531 34.2154 83.8972 34.4892 83.864 34.7533C83.7974 35.2288 84.0853 35.7523 83.6372 36.1796C83.6372 36.3816 83.6541 36.583 83.6372 36.785C83.6154 37.035 83.7702 37.3279 83.4437 37.5201C83.4328 37.7504 83.4104 37.9808 83.4104 38.2117C83.4104 38.4132 83.3886 38.5764 83.2169 38.7541C83.1063 38.8745 83.0953 39.1286 83.3167 39.2872C83.3663 39.3208 83.4104 39.4024 83.405 39.4504C83.3608 39.7485 83.0403 39.859 82.8353 40.0414C82.7579 40.1085 82.5094 40.1085 82.3987 40.0558C82.172 39.9406 82.0008 39.7004 81.7462 40.0078C81.6912 40.0749 81.6525 40.0605 81.5805 39.9887C81.3761 39.7919 81.1766 39.5754 80.8065 39.6622C80.7623 39.6715 80.6402 39.5899 80.6462 39.561C80.6789 39.2154 80.5574 38.8646 80.8506 38.5237C81.0496 38.2882 81.1657 37.9571 81.1161 37.611C81.0774 37.3181 81.127 37.0154 81.1379 36.7178C81.4753 36.4875 81.3205 36.1605 81.3205 35.8821C81.3205 35.6371 81 35.4594 81.0883 35.1568C81.1494 34.9359 81.1379 34.6813 81.0883 34.4555C81.0333 34.2106 80.7509 34.0185 80.867 33.7303C80.5906 33.5766 80.6293 33.3413 80.6348 33.1107C80.6402 32.8225 80.3034 32.616 80.3917 32.2846C80.4582 32.03 80.414 31.7515 80.4026 31.4825C80.3917 31.2183 80.1704 31.0262 80.0379 30.8101C79.9327 30.642 79.8776 30.4307 79.955 30.349C80.3252 29.9648 80.1044 29.5229 80.1704 29.1147C79.7446 28.7928 80.021 28.3654 79.9381 27.9907C79.9327 27.9572 79.955 27.9091 79.9381 27.8947C79.8885 27.8515 79.8275 27.8034 79.7615 27.789C79.5124 27.741 79.2306 27.8851 79.0039 27.6786C78.7825 27.4768 78.462 27.6786 78.2462 27.5729C77.8979 27.4096 77.5495 27.2463 77.1958 27.1022C77.1298 27.0734 77.0742 26.9821 77.0246 26.9869C76.3056 27.0494 75.7807 26.6844 75.2165 26.3962C74.9178 26.473 74.8071 26.0936 74.509 26.1753C74.3874 25.9831 74.0833 26.0311 73.9557 25.8919C73.7567 25.6613 73.4253 25.8919 73.2318 25.6854C73.0825 25.5316 72.9162 25.3876 72.7396 25.2627C72.6622 25.2051 72.5074 25.2242 72.4463 25.1666C72.2861 25.0129 72.0043 25.0273 71.8827 24.8977C71.4455 24.4222 70.8045 24.2492 70.2349 23.9659C69.8642 23.9659 69.8037 23.4856 69.3889 23.548C69.3665 23.548 69.3115 23.5048 69.3115 23.4807C69.2728 23.1061 68.8912 22.9525 68.6481 22.7123C68.4437 22.5105 68.1668 22.3569 68.012 22.1311C67.8572 21.9102 67.6805 21.7133 67.5257 21.4971C67.3818 21.3002 67.1496 21.0889 67.2052 20.8151C67.2548 20.5654 66.8678 20.4693 66.9561 20.1908C67.0172 20.0082 67.0003 19.8017 66.7735 19.6528C66.713 19.6144 66.7239 19.4655 66.7348 19.3694C66.7958 18.8267 66.5691 18.2599 66.9452 17.7316C67.0504 17.5875 66.9839 17.333 66.9561 17.1361C66.9119 16.8671 67.039 16.675 67.2766 16.5453C67.5699 16.3868 67.3099 16.0986 67.5148 15.9209C67.6969 15.7672 67.9624 15.6423 67.8959 15.3541C67.885 15.2965 67.8959 15.2101 67.9346 15.1716C68.145 14.9747 68.3663 14.7874 68.587 14.6001C68.5429 14.3119 68.8634 14.2303 68.991 14.0381C69.1071 13.8652 69.3556 13.9517 69.4663 13.822C69.5491 13.726 69.5491 13.5722 69.6434 13.4858C69.8424 13.3033 70.0359 13.1208 70.351 13.0343C70.5777 12.9719 70.7216 12.6981 70.937 12.5636C71.1414 12.434 71.4183 12.4099 71.5785 12.2034C71.7497 11.9825 72.0152 11.8672 72.297 11.7711C72.4632 11.7135 72.618 11.6367 72.7728 11.5598C72.9331 11.4782 73.0105 11.3244 73.2095 11.262C73.5082 11.166 73.7845 10.9931 74.0778 10.8922C74.3318 10.8057 74.5477 10.5464 74.9069 10.652C74.9789 10.6761 75.1282 10.4984 75.2498 10.4215C75.3381 10.3639 75.4433 10.2582 75.5207 10.2726C75.9186 10.3494 76.1732 9.922 76.588 10.0565C76.7428 10.1093 76.8589 10.0085 76.9913 9.9268C77.1625 9.82111 77.3729 9.75871 77.561 9.67224C77.7103 9.60018 77.9426 9.67704 78.1301 9.65302C78.4566 9.61459 78.8272 9.79229 79.0982 9.49455C79.1145 9.47533 79.1641 9.46092 79.1919 9.45611C79.5402 9.45611 79.894 9.41768 80.2314 9.46572C80.5688 9.51371 80.7176 9.18714 81.0665 9.23999C81.4421 9.29758 81.8345 9.2592 82.2216 9.2496C82.4538 9.2496 82.6751 9.23999 82.8353 9.43209C82.8631 9.46572 83.0403 9.42249 83.1341 9.38886C83.2278 9.35043 83.2665 9.24479 83.4159 9.24479C84.8037 9.2496 86.197 9.23038 87.5848 9.26396C87.8502 9.26876 88.0879 9.52812 88.4199 9.45611C88.6908 9.39847 88.9175 9.49935 89.1443 9.64342C89.2435 9.70587 89.4425 9.65302 89.5973 9.65302C89.6692 9.65302 89.7908 9.64822 89.8131 9.67704C90.0841 10.0997 90.5763 10.0276 91.0074 10.0997C91.1181 10.3062 91.4441 10.191 91.5656 10.3831C91.7041 10.5992 91.9914 10.6184 92.2072 10.7385C92.3898 10.8442 92.4672 11.0795 92.7545 11.0555C92.7877 11.0555 92.8264 11.0699 92.8488 11.0939C93.3961 11.5694 93.9434 12.0401 94.4906 12.5156C94.5184 12.9623 94.9828 13.0247 95.2979 13.212C95.6353 13.4138 95.7732 13.8316 96.2546 13.8748C96.3096 13.8796 96.3985 13.9661 96.3925 14.0045C96.3652 14.2111 96.5473 14.2927 96.6748 14.408C96.8901 14.6001 97.1115 14.7874 97.3219 14.9795C97.3382 14.9987 97.3104 15.0515 97.3219 15.0756C97.4265 15.2725 97.5372 15.4646 97.6478 15.6615C97.7748 15.8921 97.8855 16.1322 98.1346 16.2955C98.206 16.3436 98.2507 16.4733 98.2393 16.5501C98.1842 16.8286 98.5325 16.9824 98.5047 17.2753C98.4884 17.4627 98.6928 17.6692 98.798 17.8613C98.8421 17.9478 98.9141 18.0246 98.9413 18.111C99.0411 18.4521 98.7538 18.8459 99.1294 19.1533C99.1517 19.5183 99.1736 19.8785 99.2014 20.2435C99.1959 20.2435 99.1905 20.2435 99.1796 20.2435L99.1736 20.2916ZM88.8734 24.5806C89.4098 24.5758 89.9516 24.5758 90.488 24.5758C90.6591 24.3261 90.9409 24.3693 91.201 24.3837C91.5106 24.403 91.6763 24.0427 92.036 24.1628C92.1189 24.1916 92.2623 24.0139 92.4007 23.9803C92.5724 23.9371 92.7714 24.0235 92.9316 23.8698C92.9921 23.8074 93.1306 23.8074 93.2304 23.7737C93.4953 23.6729 93.5896 23.3319 93.9657 23.3655C94.0153 23.3655 94.0872 23.2838 94.126 23.231C94.2693 23.0149 94.5626 23.0101 94.767 22.8756C94.7397 22.5538 95.0766 22.4482 95.2592 22.2512C95.3977 22.0975 95.6075 21.9727 95.6849 21.7997C95.7405 21.6701 95.8621 21.5884 95.9008 21.478C95.9782 21.2714 95.8621 21.0072 96.1548 20.868C96.1548 20.6999 96.1603 20.5365 96.1603 20.3684C96.1603 19.9314 96.1603 19.4991 96.1603 19.062C96.1603 18.9708 96.1548 18.8363 96.0889 18.7931C95.8452 18.6394 95.8953 18.4137 95.9449 18.2455C96.0278 17.967 95.5797 17.8997 95.6904 17.6212C95.7514 17.4723 95.7018 17.2897 95.7018 17.1216C95.7018 17.0015 95.6299 16.9439 95.5023 16.9343C95.2374 16.9247 95.0826 16.7566 95.0216 16.5789C94.9774 16.4444 94.9218 16.3339 94.8002 16.2571C94.568 16.1082 94.2475 16.0698 94.0704 15.8344C94.0262 15.772 93.8714 15.772 93.7831 15.724C93.4844 15.5511 93.1415 15.4454 92.8264 15.3061C92.5114 15.1668 92.1407 15.0515 91.9254 14.7682C91.9085 14.7442 91.8643 14.7202 91.8365 14.725C91.3171 14.7874 90.9797 14.4128 90.5267 14.3119C90.2945 14.259 90.0841 14.1102 89.8742 13.9901C89.5864 13.8268 89.2768 13.9469 88.984 13.9277C88.8014 13.9133 88.7458 13.726 88.6243 13.7404C88.5027 13.7547 88.4362 13.9421 88.2542 13.9181C88.1103 13.8989 87.95 13.9613 87.8339 13.8268C87.6954 13.6635 87.4191 13.7212 87.2643 13.5482C87.1705 13.4426 86.9879 13.5098 86.8827 13.6251C86.7889 13.7212 86.6559 13.7884 86.6614 13.9469C86.6728 14.1774 86.6505 14.408 86.6396 14.6385C86.3131 14.8258 86.5453 15.1572 86.4128 15.3589C86.258 15.5991 86.1752 15.8248 86.203 16.089C86.2139 16.2427 86.1419 16.3099 85.9484 16.3388C85.7216 16.3724 85.5559 16.5164 85.5058 16.7278C85.4398 17.0063 85.611 17.2993 85.3624 17.5827C85.152 17.8277 85.2959 18.1591 85.2796 18.4521C85.2627 18.7546 85.2796 19.0524 85.2796 19.355C85.2796 19.5519 84.9809 19.6336 85.0359 19.8737C85.0861 20.0659 85.0801 20.2772 85.0359 20.4741C84.9863 20.7095 85.3237 20.7767 85.2796 20.9928C85.2185 21.2714 85.4229 21.5884 85.097 21.8333C85.0474 21.8718 85.0474 22.0495 85.097 22.0879C85.2572 22.2128 85.285 22.3569 85.285 22.5298C85.2736 23.0341 85.2796 23.5336 85.285 24.0379C85.285 24.0859 85.3733 24.1724 85.4175 24.1676C85.5227 24.1676 85.7053 24.1244 85.7107 24.0907C85.7271 23.9131 85.9097 23.8026 85.9484 23.6729C85.998 23.5 86.0754 23.3751 86.2193 23.2646C86.2471 23.2406 86.2913 23.1926 86.2967 23.1974C86.3518 23.2262 86.4352 23.2598 86.4352 23.2982C86.4461 23.5336 86.4237 23.7689 86.4515 23.9995C86.4624 24.0811 86.5567 24.1628 86.6287 24.2348C86.7001 24.3069 87.4136 24.5806 87.5019 24.5806C87.9663 24.5806 88.4253 24.5806 88.8898 24.5806H88.8734ZM71.1305 19.4559C71.1305 19.9842 71.1305 19.9842 71.5894 20.6999C71.711 20.8872 71.7442 21.1225 71.8827 21.2954C72.0593 21.5115 72.3084 21.6797 72.5292 21.8718C72.6066 21.9438 72.7396 22.0158 72.745 22.0927C72.745 22.3088 72.8448 22.3953 73.0879 22.3665C73.4193 22.621 73.8565 22.7075 74.2212 22.914C74.3929 23.0101 74.5973 23.0965 74.7908 23.1638C75.023 23.2454 75.3103 23.0821 75.5485 23.2742C75.8025 23.4807 76.1345 23.3319 76.4272 23.3703C76.7869 23.4232 77.2012 23.2406 77.4945 23.5576C77.7986 23.5576 78.1083 23.5912 78.4124 23.5624C78.7329 23.5336 78.9101 23.8506 79.247 23.7785C79.4296 23.7401 79.6285 23.7737 79.822 23.7689C80.1317 23.7689 80.1704 23.7401 80.1758 23.5144C80.1758 23.3127 80.1649 23.1109 80.1758 22.9092C80.2145 22.4626 80.027 21.987 80.4026 21.5836C80.353 21.3675 80.4745 21.1513 80.281 20.9208C80.0543 20.647 80.0712 20.2628 80.2647 19.9938C80.408 19.7969 80.3862 19.624 80.4026 19.4367C80.4195 19.2349 80.414 19.0332 80.4026 18.8363C80.4026 18.7979 80.2919 18.745 80.226 18.7403C79.9992 18.7211 79.7615 18.7114 79.6176 18.918L78.2353 18.9372C78.02 18.6826 77.6989 18.7211 77.4062 18.7403C77.0524 18.7642 76.7869 18.649 76.7095 18.3656C76.6594 18.1783 76.5324 18.0678 76.3945 17.9814C76.068 17.7796 76.0238 17.429 75.7692 17.1985C75.8799 16.8238 75.4324 16.5645 75.5261 16.1755C75.5926 15.8873 75.5425 15.5751 75.537 15.2725C75.537 15.138 75.2776 15.0227 75.2002 15.1236C75.0394 15.3445 74.7188 15.2773 74.5362 15.4646C74.3264 15.6856 74.1105 15.9305 73.7404 15.9689C73.2482 16.3964 72.7674 16.8287 72.2643 17.2465C72.0152 17.4531 71.9819 17.7556 71.711 17.9622C71.4842 18.1351 71.3959 18.4425 71.2853 18.7018C71.2466 18.7883 71.1528 18.8651 71.1414 18.9516C71.1196 19.1149 71.1359 19.2878 71.1359 19.4511L71.1305 19.4559ZM78.1137 16.5261C78.3623 16.4924 78.661 16.6269 78.8436 16.3676C79.1036 16.3436 79.3854 16.3724 79.6067 16.2811C79.767 16.2139 79.9381 16.1562 80.0821 16.0794C80.2701 15.9786 80.1486 15.772 80.1595 15.6183C80.1758 15.3878 80.1758 15.1524 80.1595 14.9171C80.154 14.8354 80.0657 14.7489 80.0047 14.6769C79.8662 14.5088 80.2091 14.4752 80.1317 14.4032C79.9992 14.2783 79.9381 14.1438 79.894 13.9853C79.8662 13.8844 79.8111 13.9085 79.7337 13.9805C79.5566 14.139 79.38 14.2783 79.1091 14.3599C78.849 14.4416 78.6223 14.6865 78.462 14.9075C78.2849 15.1524 78.1524 15.4214 77.876 15.5943C77.5332 15.8104 77.6215 16.1178 77.6215 16.4012C77.6215 16.4444 77.7043 16.5164 77.7654 16.5261C77.876 16.5453 77.9922 16.5309 78.1083 16.5309L78.1137 16.5261ZM82.1611 13.1112C81.8018 12.9719 81.5636 13.3033 81.2322 13.3129C81.199 13.3129 81.127 13.4234 81.1379 13.433C81.2655 13.5578 81.4088 13.6683 81.5364 13.7932C81.6857 13.9325 81.8291 13.9661 82.0172 13.8268C82.0946 13.7691 82.2052 13.726 82.305 13.7164C82.5312 13.7019 82.7634 13.7164 82.9956 13.7067C83.0566 13.7067 83.1177 13.6491 83.1782 13.6155C83.1564 13.5915 83.1341 13.5674 83.1063 13.5434C82.8353 13.3273 82.6418 12.9911 82.1611 13.1112Z" fill="#D9315A"/>
<path d="M34.5834 38.9751C33.9974 38.9751 33.7434 38.8403 33.2844 38.2979C33.2457 38.2499 33.1901 38.1874 33.1296 38.1729C32.8085 38.1058 32.6264 37.9709 32.5599 37.6636C32.5321 37.5391 32.3664 37.4141 32.3168 37.2509C32.2945 37.1785 32.0677 37.1594 31.9407 37.1016C31.8742 37.0732 31.8023 37.02 31.7805 36.9626C31.5646 36.4388 31.0282 36.1556 30.6303 35.7666C30.4477 35.5937 30.2765 35.4015 30.0498 35.2767C29.7952 35.1326 29.8617 34.8588 29.6519 34.7099C29.4469 34.561 29.2648 34.3833 29.0768 34.2152C28.8833 34.0471 28.6843 33.8934 28.5071 33.7157C28.3687 33.5716 28.3856 33.3555 28.1812 33.2258C28.004 33.1105 27.8492 32.952 27.7277 32.7887C27.617 32.635 27.5837 32.4381 27.484 32.2748C27.4126 32.1643 27.3019 32.0635 27.1913 31.9818C26.8484 31.7321 26.4668 31.3334 26.2237 30.9348C26.1409 30.7955 26.0744 30.6514 25.9746 30.5217C25.8863 30.4113 25.6874 30.3392 25.671 30.2336C25.6377 30.0559 25.5712 29.9117 25.4055 29.8253C25.1232 29.6764 25.1951 29.345 24.9188 29.1865C24.6642 29.0424 24.5868 28.7639 24.4985 28.5381C24.4156 28.3267 24.233 28.2259 24.0897 28.0818C23.9621 27.9569 24.0728 27.7408 23.846 27.664C23.6694 27.2797 23.4977 26.8907 23.1107 26.6217C23.1216 26.3816 22.9946 26.2663 22.7128 26.2759C22.6021 26.079 22.4582 25.8917 22.3977 25.6851C22.3421 25.4978 22.1655 25.4306 22.0494 25.3105C22.0161 25.2769 21.8722 25.2673 21.839 25.2961C21.6291 25.4786 21.3691 25.6515 21.253 25.8772C21.1701 26.0406 21.0486 26.1462 20.927 26.2615C20.6616 26.5065 20.3852 26.737 20.1083 26.9771C20.0696 27.3517 19.6112 27.4718 19.4727 27.7552C19.2901 28.125 18.9696 28.4372 18.9085 28.8599C18.8758 29.0664 18.7761 29.2922 18.6267 29.4603C18.4223 29.7004 18.1568 29.9021 17.8914 30.099C17.8249 30.1519 17.6701 30.1135 17.5594 30.1279C17.3882 30.1471 17.1119 30.0415 17.0732 30.2576C17.0345 30.5169 16.6088 30.7139 16.8355 30.9684C17.156 31.3286 17.0176 31.7177 17.0508 32.1019C17.0677 32.27 17.1337 32.4862 17.0399 32.5966C16.5978 33.1153 16.9293 33.6917 16.8186 34.2296C16.7581 34.5082 17.1669 34.6619 17.0508 34.9501C16.9402 35.2383 17.3386 35.3967 17.2885 35.6705C17.4433 35.781 17.5376 35.9011 17.5153 36.0932C17.4934 36.3283 17.488 36.5638 17.5153 36.7942C17.5376 36.9771 17.7698 37.0876 17.7589 37.318C17.7475 37.4859 17.9301 37.6589 17.9633 37.8366C18.002 38.0334 17.9742 38.2401 17.9742 38.4369C17.9742 38.6053 17.9633 38.7732 17.9742 38.9415C18.002 39.3543 18.0129 39.7432 17.3659 39.8249C17.2443 39.8393 17.1397 39.9979 17.0508 40.1038C16.8906 40.2861 16.5036 40.579 16.3711 40.5935C16.255 40.6033 16.1002 40.6369 16.0282 40.5888C15.7132 40.3678 15.3201 40.2815 14.9833 40.1038C14.889 40.0506 14.8061 39.9741 14.7396 39.8925C14.4632 39.5707 14.3471 39.4984 14.1204 39.6379C13.9547 39.7432 13.8053 39.8202 13.6118 39.7866C13.518 39.7722 13.3632 39.7097 13.3578 39.6616C13.33 39.393 13.1583 39.2535 12.8765 39.191C12.6388 39.1384 12.4616 39.0035 12.4289 38.8067C12.4011 38.6481 12.285 38.581 12.1853 38.4901C12.0528 38.3697 11.9035 38.2643 11.9531 38.067C11.9645 38.0334 11.9585 37.9999 11.9531 37.9663C11.8871 37.6879 12.1193 37.3614 11.7765 37.1259C11.7596 36.8376 11.6326 36.5737 11.4832 36.3283C11.3447 36.1028 11.0684 35.9059 11.4723 35.6801C11.4941 35.6705 11.4887 35.6177 11.4887 35.5888C11.4887 34.6475 11.4887 33.7109 11.4887 32.7695C11.4887 32.5438 11.1736 32.4189 11.2455 32.1451C11.306 31.9242 11.2564 31.6792 11.2564 31.4439C11.2564 31.2086 11.2733 30.9732 11.251 30.7379C11.2455 30.6514 11.1458 30.5745 11.0962 30.4929C10.9964 30.3344 10.9801 30.32 11.124 30.1519C11.2232 30.0367 11.3338 29.8973 11.2177 29.8109C11.0079 29.6524 11.0188 29.4699 11.0188 29.273C11.0188 28.3652 11.0351 27.4622 11.0133 26.5545C11.0079 26.2423 11.179 25.882 10.8198 25.6227C10.8694 25.4786 11.0351 25.4018 11.0297 25.2145C11.0079 24.2779 11.0024 23.3365 11.0297 22.3951C11.0351 22.1165 10.7146 21.9676 10.7757 21.6698C10.8307 21.4105 10.7866 21.1367 10.7866 20.8677V19.3596C10.7866 19.0906 10.7315 18.8121 10.8029 18.5576C10.8803 18.2742 10.4606 18.2165 10.5435 17.9283C10.6154 17.6738 10.5598 17.3952 10.5598 17.1262V16.4202C10.5598 16.1849 10.538 15.9495 10.5653 15.7142C10.5985 15.4356 10.2006 15.3059 10.3112 14.9889C10.3832 14.7776 10.3112 14.5279 10.3058 14.2973C9.97382 14.11 10.1673 13.8074 10.0845 13.5721C10.018 13.3655 9.85227 13.1878 9.73071 12.9957C9.69746 12.9429 9.63641 12.8852 9.63641 12.8324C9.62551 12.6306 9.62006 12.4289 9.63641 12.2272C9.65331 12.0159 9.3764 11.9438 9.38784 11.7085C9.40965 11.0889 9.38239 11.0889 9.89097 10.6758C10.018 10.575 10.151 10.5366 10.278 10.6662C10.4382 10.8344 10.7037 10.7623 10.8585 10.9352C10.9746 11.0601 11.2177 11.0169 11.2346 10.9112C11.2455 10.8248 11.2232 10.7239 11.1845 10.6422C11.1458 10.5558 11.0411 10.4837 11.0297 10.3973C11.0079 10.1619 11.0575 9.92178 11.0133 9.69604C10.9414 9.34065 11.179 9.1485 11.4281 8.93237C11.5442 8.83154 11.6489 8.76909 11.8206 8.7835C12.0141 8.79791 12.2076 8.79311 12.4011 8.7835C12.6388 8.77389 12.7326 9.07169 13.0035 9.00443C13.0095 9.00443 13.07 9.16771 13.1141 9.25418C13.1583 9.35507 13.2417 9.39825 13.3741 9.39345C13.6009 9.38384 13.8386 9.34546 13.8277 9.67683C13.8277 9.7681 14.0103 9.87854 14.1264 9.96502C14.2588 10.0611 14.2812 10.1763 14.2812 10.3157C14.2812 10.4069 14.303 10.5366 14.3749 10.575C14.7456 10.7959 14.7843 11.113 14.7396 11.4539C14.7124 11.6364 14.8007 11.7565 14.9391 11.891C15.0438 11.9967 14.9778 12.1359 14.8394 12.2272C14.6737 12.3329 14.8339 12.3953 14.8944 12.4385C15.0105 12.5202 15.0051 12.6835 14.9664 12.7027C14.6682 12.866 14.9168 12.9909 14.9555 13.1542C15.022 13.4424 14.9718 13.7546 14.9718 14.0572C14.9718 14.2589 14.8835 14.5086 14.9887 14.6527C15.3588 15.1474 15.1435 15.6757 15.1986 16.1897C15.2209 16.3866 15.2209 16.5547 15.3866 16.7324C15.5028 16.8573 15.4864 17.131 15.4144 17.3088C15.3479 17.4769 15.1212 17.6065 15.4308 17.7506V18.4567C15.4308 18.692 15.4422 18.9274 15.4308 19.1627C15.4199 19.398 15.4864 19.5853 15.6412 19.7967C15.7628 19.9648 15.663 20.253 15.663 20.4883V21.6939C15.663 21.9292 15.7017 22.1694 15.6521 22.3951C15.6025 22.6304 15.9176 22.7025 15.9007 22.9186C15.8789 23.1876 15.8898 23.4566 15.9007 23.7255C15.9007 23.836 15.9841 23.8792 16.1165 23.8984C16.4316 23.9465 16.6807 23.8216 16.7799 23.6102C16.8688 23.4181 16.9129 23.3029 17.1893 23.25C17.355 23.2212 17.2999 22.8994 17.5207 22.7794C17.7366 22.6593 17.9966 22.6256 18.1732 22.4335C18.328 22.2654 18.5106 22.1261 18.7984 22.0445C19.0911 21.9628 19.2792 21.6026 19.5725 21.4922C19.8761 21.3769 20.081 21.1896 20.2522 20.9926C20.4953 20.7141 20.8992 20.6852 21.1647 20.4403C21.4132 20.2146 21.5795 19.8543 22.0379 19.8591C22.2314 19.6958 22.4195 19.5277 22.613 19.3644C22.5688 19.0763 22.8676 18.9802 23.0224 18.8073C23.0442 18.7833 23.0774 18.7593 23.1052 18.7352C23.4039 18.4759 23.7081 18.2117 24.0063 17.9524C24.305 17.693 24.5813 17.4 24.9133 17.1791C25.2562 16.9485 25.3608 16.5883 25.6432 16.329C25.9359 16.06 26.2401 15.8054 26.5442 15.5461C26.8484 15.2867 27.1471 15.0274 27.4453 14.7632C27.5728 14.6479 27.689 14.5471 27.744 14.3645C27.7936 14.1964 28.0536 14.0812 28.1752 13.9179C28.2973 13.7546 28.662 13.9179 28.6565 13.6009C28.6565 13.3847 28.9165 13.2839 29.0768 13.1542C29.2479 13.0149 29.3253 12.8468 29.4027 12.6643C29.4414 12.5779 29.5466 12.477 29.6459 12.4578C29.9942 12.3761 30.2711 12.2512 30.2874 11.8958C30.5033 11.7037 30.8184 11.5452 30.9176 11.3195C31.0173 11.0841 31.1776 10.9352 31.3547 10.7719C31.5041 10.6326 31.7249 10.5222 31.6807 10.2868C31.9184 10.0227 32.2781 9.89776 32.6096 9.82095C32.8363 9.76811 33.0353 9.73928 33.1955 9.5808C33.3503 9.43188 33.5438 9.31183 33.6769 9.1485C33.8426 8.94678 34.2018 9.04286 34.3239 8.79791C34.5174 8.79791 34.7109 8.79311 34.9044 8.79791C34.9704 8.79791 35.0865 8.83154 35.0979 8.86517C35.1971 9.34066 35.7172 9.51355 36.0044 9.84977C36.0431 9.89776 36.0655 9.96502 36.0655 10.0275C36.0709 10.1956 36.054 10.3637 36.0709 10.5318C36.0873 10.6855 35.999 10.7767 35.8883 10.8728C35.7831 10.964 35.6784 11.0601 35.6119 11.1754C35.4958 11.3675 35.4571 11.6077 35.3023 11.7661C35.0091 12.0735 34.6722 12.3569 34.3179 12.6162C34.235 12.6787 34.0361 12.6067 33.9756 12.7844C33.9036 12.9909 33.8148 13.2022 33.6769 13.3799C33.5498 13.5432 33.3672 13.6777 33.1901 13.8074C33.0576 13.9082 33.0298 14.0283 33.0522 14.1628C33.1018 14.4078 32.9693 14.5903 32.8254 14.7872C32.6924 14.9697 32.6706 15.2099 32.5267 15.3779C32.3277 15.6085 32.2612 15.9063 31.9685 16.0936C31.6916 16.2713 31.4708 16.5115 31.2217 16.7276C31.056 16.8717 30.8958 17.011 30.7301 17.1551C30.8015 17.4096 30.5474 17.4961 30.3981 17.6401C30.2433 17.7891 30.0716 17.9283 29.9113 18.0677C29.7511 18.2069 29.8121 18.4519 29.5853 18.5527C29.4251 18.6248 29.2648 18.6968 29.11 18.7641C29.2092 19.0763 28.8996 19.033 28.717 19.1098C28.5568 19.1771 28.7503 19.4749 28.4461 19.4653C28.2526 19.4605 28.2526 19.5806 28.1697 19.691C27.9931 19.936 27.7331 20.1425 27.5009 20.3586C27.3679 20.4835 27.2354 20.6084 27.0915 20.7141C26.8708 20.8725 26.7819 21.0551 26.7819 21.3145C26.7819 21.6314 26.8206 21.9148 27.1526 22.0877C27.4398 22.2366 27.4513 22.5296 27.6448 22.7169C27.8492 22.9138 28.0869 23.0915 28.2913 23.2933C28.3578 23.3557 28.4188 23.4662 28.4074 23.5478C28.3578 23.8744 28.4684 24.153 28.7944 24.3115C29.0986 24.4604 29.0381 24.7918 29.2866 24.9407C29.5243 25.0847 29.5298 25.3297 29.6906 25.5026C29.8508 25.6755 29.8394 25.9445 30.0994 26.0598C30.3316 26.1606 30.2542 26.4008 30.409 26.5593C30.5692 26.7178 30.608 26.9627 30.8293 27.1068C31.0119 27.2269 31.1443 27.4046 31.3269 27.5247C31.5482 27.6736 31.6142 27.8897 31.7418 28.0818C31.8246 28.1971 31.8524 28.3124 31.9129 28.4228C31.9571 28.5045 32.1893 28.4949 32.2836 28.5765C32.5212 28.7783 32.8363 28.9368 32.8641 29.2682C33.135 29.3066 33.2457 29.4651 33.3563 29.6764C33.4664 29.8781 33.7101 30.0222 33.9145 30.1807C34.1026 30.3248 34.2241 30.5793 34.5561 30.541C34.9704 31.002 35.6507 31.271 35.872 31.881C35.9052 31.9674 36.0153 32.0635 36.1151 32.0875C36.6678 32.222 36.9278 32.659 37.3257 32.9472C37.5525 33.1105 37.6855 33.3699 38.0447 33.3891C38.1608 33.3939 38.3543 33.5668 38.3543 33.6581C38.3543 33.8598 38.4704 33.9799 38.6198 34.0663C39.112 34.3545 39.1894 34.878 39.5045 35.2623C39.7422 35.5504 39.2832 35.7762 39.2777 36.0739C39.2777 36.1702 39.0788 36.2663 38.9681 36.3572C38.6476 36.6362 38.3598 36.6553 37.8621 36.4388C37.6686 36.3526 37.4696 36.2322 37.287 36.194C36.9611 36.122 36.5795 36.1124 36.259 36.194C35.9603 36.2663 35.6343 36.3815 35.4184 36.6217C35.3634 36.6837 35.3688 36.708 35.4517 36.7705C35.5454 36.833 35.6119 36.9673 35.7003 36.9719C35.9161 36.9864 36.0655 37.0055 36.054 37.241C36.0431 37.4043 36.0044 37.6352 36.1096 37.7168C36.5021 38.0241 36.2088 38.2111 35.9712 38.346C35.7559 38.4658 35.9548 38.879 35.5122 38.7974C35.2527 39.066 34.899 38.9896 34.567 38.9989L34.5834 38.9751Z" fill="#D9315A"/>
<path d="M125.215 36.2374C125.182 36.3671 125.149 36.5014 125.11 36.631C125.061 36.7943 124.53 37.1404 124.353 37.097C124.264 37.0779 124.215 36.9193 124.132 36.9002C123.004 36.6646 121.876 36.4389 120.748 36.223C120.654 36.2039 120.538 36.2565 120.433 36.2757C120.04 36.3526 119.67 36.4342 119.244 36.3526C118.99 36.3046 118.686 36.5066 118.392 36.3815C118.199 36.5546 117.984 36.5014 117.757 36.4487C117.381 36.3671 117.005 36.2855 116.629 36.223C116.38 36.1847 116.142 36.05 115.86 36.223C115.75 36.2901 115.501 36.1847 115.313 36.1651C115.025 36.1365 114.732 35.9396 114.445 36.1749C114.146 36.1221 113.848 36.074 113.549 36.0164C113.4 35.9876 113.261 35.9588 113.118 36.05C112.913 36.1796 112.758 36.0837 112.67 35.9156C112.609 35.7955 112.427 35.7667 112.388 35.7955C112.139 35.9828 111.89 35.8963 111.63 35.8435C111.254 35.7667 110.873 35.7139 110.503 35.613C110.198 35.5314 109.966 35.8339 109.629 35.6658C109.375 35.5362 109.021 35.4545 108.739 35.4929C108.446 35.5362 108.17 35.5793 107.882 35.5409C107.589 35.7763 107.301 35.5601 107.014 35.5409L106.411 35.4209C106.184 35.368 106.019 35.6322 105.775 35.5025C105.571 35.392 105.427 35.5745 105.256 35.6034C105.046 35.637 104.83 35.6418 104.62 35.6898C104.404 35.7379 104.149 35.8003 104.122 36.0261C104.078 36.4105 103.774 36.6455 103.519 36.9146C103.187 37.2654 103.182 37.2602 102.718 37.1693C102.568 37.1404 102.419 37.097 102.265 37.0825C102.021 37.0541 101.933 36.9529 102.015 36.7462C102.026 36.7225 101.999 36.6698 101.977 36.66C101.678 36.5882 101.651 36.3769 101.612 36.1605C101.607 36.1269 101.468 36.1221 101.424 36.0837C101.236 35.9204 101.037 35.7571 101.164 35.4881L100.998 34.7581C100.512 34.6716 100.782 34.1913 100.462 33.9944C100.285 33.8839 100.545 33.8743 100.583 33.807C100.628 33.7254 100.733 33.5909 100.705 33.5621C100.528 33.3796 100.578 33.1971 100.633 33.0002C100.677 32.832 100.766 32.7216 100.921 32.6015C101.081 32.4767 101.092 32.2797 101.009 32.0636C100.893 31.7658 100.899 31.7322 101.186 31.4776C101.347 31.3383 101.319 31.1798 101.391 31.031C101.059 30.8052 101.457 30.4546 101.214 30.2048C101.159 30.152 101.192 30.0175 101.214 29.9263C101.291 29.5996 101.396 29.2731 101.463 28.9465C101.512 28.6967 101.673 28.471 101.512 28.1828C101.419 28.0099 101.551 27.7409 101.584 27.52C101.28 27.3135 101.628 27.0157 101.446 26.7851C101.391 26.7179 101.368 26.5882 101.407 26.5162C101.529 26.252 101.396 26.0167 101.38 25.7621C101.363 25.5027 101.485 25.2386 101.573 24.9792C101.639 24.7775 101.352 24.6478 101.468 24.4221C101.551 24.2588 101.656 24.0619 101.474 23.8553C101.407 23.7785 101.474 23.6103 101.491 23.4807C101.529 23.034 101.894 22.6209 101.623 22.1358C101.556 22.0206 101.695 21.8141 101.734 21.6507C101.806 21.3577 101.872 21.0648 101.943 20.7718C101.607 20.5509 102.076 20.1762 101.739 19.9553C101.905 19.5807 101.54 19.1916 101.772 18.8218C101.966 18.5096 101.523 18.1878 101.783 17.8756C101.546 17.6787 101.711 17.4481 101.689 17.2272C101.667 17.0159 101.496 16.8142 101.457 16.6029C101.402 16.2955 101.275 15.9977 101.396 15.6614C101.479 15.4357 101.175 15.1763 101.363 14.9122C101.374 14.893 101.296 14.7921 101.241 14.7729C101.097 14.7249 100.954 14.7105 100.998 14.5135C101.042 14.2974 101.203 14.0909 101.02 13.8507C100.882 13.6682 101.064 13.4713 101.098 13.2792C101.142 13.0486 101.214 12.8229 101.275 12.5924C101.291 12.5299 101.297 12.4483 101.341 12.4098C101.385 12.3714 101.496 12.3378 101.54 12.3618C101.872 12.5155 102.176 12.2081 102.524 12.3378C102.806 12.4386 103.138 12.429 103.42 12.5347C103.707 12.6452 103.923 12.4338 104.172 12.4723C104.437 12.5107 104.697 12.5732 104.962 12.6211C105.377 12.3426 105.764 12.6259 106.163 12.6596C106.489 12.6884 106.793 12.4963 107.141 12.6356C107.417 12.746 107.743 12.7557 108.037 12.8277C108.208 12.8709 108.324 12.8037 108.457 12.7316C108.739 12.5828 109.01 12.4242 109.363 12.381C109.535 12.3618 109.596 12.3378 109.69 12.4723C109.739 12.5395 109.878 12.5683 109.983 12.5876C110.397 12.674 110.812 12.7557 111.222 12.8373C111.63 12.6356 112.023 12.8037 112.421 12.8709C112.83 12.65 113.223 12.8565 113.621 12.8997C113.914 12.9333 114.202 13.1303 114.494 12.9574C114.743 12.8133 115.02 13.1111 115.247 12.8949C115.274 12.8709 115.313 12.8373 115.34 12.8421C115.606 12.8853 115.871 12.9333 116.131 12.991C116.364 13.0438 116.524 12.7701 116.767 12.9093C117.06 13.0775 117.342 12.8853 117.63 12.8805C117.884 12.8757 118.133 13.0727 118.392 12.8661C118.431 12.8373 118.536 12.8517 118.603 12.8661C118.862 12.9045 119.161 13.039 119.377 12.967C119.62 12.8901 119.858 12.9862 120.018 12.9237C120.327 12.7989 120.615 12.8181 120.886 12.9189C121.168 13.0246 121.389 12.8373 121.638 12.8613C121.903 12.8853 122.163 12.9814 122.429 13.0054C122.561 13.015 122.672 12.8085 122.832 12.8949C123.109 13.0438 123.324 12.7989 123.584 12.8325C123.833 12.8661 124.065 13.0054 124.348 12.8325C124.547 12.7124 124.851 12.9862 125.094 12.7605C125.138 12.7172 125.309 12.7701 125.414 12.7893C125.641 12.8373 125.851 12.8901 126.061 12.7364C126.1 12.7076 126.283 12.7701 126.343 12.8325C126.465 12.9574 126.548 13.1159 126.658 13.2552C126.824 13.4665 126.941 13.697 127.245 13.8267C127.493 13.9324 127.383 14.2494 127.516 14.4319C127.748 14.7489 127.394 14.8161 127.261 14.9746C127.156 15.0995 127.018 15.21 126.941 15.3445C126.907 15.4021 126.957 15.5558 127.023 15.5846C127.156 15.647 127.338 15.6518 127.272 15.8392C127.217 15.9977 127.421 16.0841 127.41 16.1946C127.383 16.4251 127.305 16.6556 127.233 16.8814C127.217 16.939 127.161 16.9919 127.106 17.0303C126.802 17.256 126.211 17.4626 125.774 17.3953C125.52 17.3569 125.37 17.5634 125.132 17.4962C124.911 17.4337 124.684 17.4001 124.458 17.3569C124.425 17.3521 124.369 17.3425 124.353 17.3569C124.109 17.621 123.766 17.3137 123.507 17.477C123.252 17.6354 122.904 17.3329 122.666 17.6019C122.6 17.525 122.539 17.4481 122.473 17.3713C122.197 17.6067 121.903 17.4289 121.611 17.4097C121.362 17.3953 121.14 17.5634 120.858 17.4722C120.714 17.4289 120.516 17.549 120.339 17.5538C120.19 17.5538 120.04 17.4866 119.885 17.477C119.703 17.4626 119.57 17.6787 119.365 17.573C119.122 17.4481 118.946 17.6835 118.73 17.6499C118.503 17.6162 118.276 17.573 118.055 17.5154C117.823 17.4529 117.674 17.7123 117.414 17.6067C117.209 17.5202 116.966 17.5106 116.739 17.4626C116.424 17.7315 116.093 17.4914 115.766 17.4866C115.484 17.7315 115.175 17.477 114.904 17.525C114.605 17.5779 114.334 17.6403 114.035 17.5442C113.776 17.4578 113.566 17.7555 113.284 17.6067C113.217 17.573 113.079 17.6354 112.974 17.6595C112.283 17.8036 112.272 17.8372 111.796 17.7027C111.448 17.6018 111.155 17.8612 110.812 17.7411C110.674 17.6931 110.469 17.8132 110.298 17.8228C110.154 17.8324 110.016 17.7459 109.861 17.8372C109.778 17.8852 109.651 17.8948 109.551 17.8852C109.297 17.8612 109.065 17.7411 108.789 17.9092C108.628 18.0101 108.369 17.77 108.147 17.9332C107.97 18.0678 107.771 17.9477 107.605 17.9044C107.268 17.8132 106.958 18.1398 106.621 17.9332C106.61 17.9284 106.494 18.0101 106.478 18.063C106.35 18.5192 106.173 18.9707 106.129 19.4366C106.101 19.744 106.24 20.0562 106.107 20.3827C105.991 20.6661 105.958 20.9735 105.858 21.2617C105.792 21.4682 106.112 21.6075 105.963 21.8189C105.963 21.8237 106.085 21.9149 106.091 21.9101C106.444 21.6075 106.914 22.1214 107.268 21.79C107.296 21.766 107.412 21.8045 107.484 21.8189C107.633 21.8476 107.782 21.8765 107.937 21.9101C108.191 21.5979 108.612 21.9918 108.883 21.7468C108.905 21.7276 108.949 21.7084 108.982 21.7084C109.242 21.7132 109.491 21.9197 109.75 21.7708C110.033 21.6123 110.27 21.7804 110.519 21.8141C110.718 21.8428 110.879 21.7756 111.05 21.7612C111.37 21.7372 111.68 21.5067 112.017 21.694C112.294 21.4875 112.593 21.5979 112.88 21.6651C113.113 21.718 113.267 21.4634 113.521 21.5739C113.764 21.6796 114.008 21.6459 114.274 21.5403C114.439 21.473 114.699 21.6748 114.915 21.4971C114.953 21.4634 115.069 21.4682 115.125 21.4971C115.456 21.6411 115.788 21.5355 116.098 21.4682C116.352 21.4154 116.59 21.3146 116.85 21.425C117.148 21.5499 117.425 21.425 117.713 21.401C117.961 21.377 118.182 21.1849 118.464 21.329C118.63 21.4106 118.763 21.2665 118.862 21.1897C119.161 20.9591 119.443 21.1416 119.731 21.1801C119.786 21.1897 119.852 21.2569 119.885 21.3098C120.057 21.6075 120.355 21.7949 120.659 21.9725C120.759 22.0302 120.886 22.083 120.842 22.1695C120.731 22.4048 120.864 22.6065 120.908 22.8227C120.93 22.9475 120.831 23.0821 120.82 23.2117C120.798 23.4326 120.521 23.4615 120.427 23.6632C120.344 23.8409 120.051 23.9802 119.741 23.8601C119.636 23.8217 119.52 23.8073 119.404 23.7929C119.266 23.7737 119.133 23.9273 119.178 24.0667C119.2 24.1291 119.288 24.1819 119.294 24.2396C119.294 24.571 119.283 24.8927 118.862 25.0657C118.691 25.1377 118.536 25.2434 118.371 25.3298C118.31 25.3634 118.21 25.4211 118.172 25.4019C117.74 25.1665 117.27 25.5172 116.855 25.3442C116.507 25.2001 116.192 25.3442 115.882 25.3826C115.672 25.4067 115.484 25.5124 115.241 25.4499C114.959 25.3778 114.655 25.2482 114.384 25.4787C114.124 25.4643 113.853 25.2578 113.616 25.4115C113.333 25.5988 112.996 25.2482 112.764 25.5268C112.333 25.4115 111.89 25.7045 111.459 25.5123C111.144 25.5796 110.823 25.6036 110.497 25.5892C110.397 25.5844 110.287 25.6756 110.188 25.666C109.961 25.642 109.734 25.5556 109.507 25.546C109.336 25.5364 109.12 25.6756 108.993 25.6276C108.7 25.5123 108.496 25.7477 108.236 25.6997C107.97 25.6468 107.711 25.5844 107.445 25.546C107.345 25.5316 107.191 25.5268 107.136 25.5748C106.759 25.911 106.356 25.7237 105.952 25.6564C105.659 25.6084 105.581 25.69 105.676 25.9974C105.692 26.0599 105.781 26.1415 105.759 26.1703C105.554 26.4345 105.847 26.6698 105.803 26.9244C105.781 27.0541 105.759 27.1838 105.593 27.251C105.549 27.2702 105.504 27.3374 105.51 27.3759C105.526 27.4671 105.615 27.5584 105.604 27.6448C105.571 27.9715 105.3 28.2981 105.444 28.6102C105.598 28.9417 105.388 29.1914 105.355 29.4748C105.333 29.6717 105.581 29.8062 105.46 30.0319C105.366 30.2096 105.322 30.421 105.327 30.6131C105.327 30.7284 105.465 30.8532 105.571 30.9445C105.593 30.9637 105.759 30.81 105.853 30.8196C106.079 30.8388 106.311 30.882 106.527 30.9493C106.831 31.0454 107.064 30.738 107.401 30.8965C107.66 31.0214 107.992 31.0502 108.297 31.0838C108.506 31.1078 108.684 30.9109 108.932 31.0021C109.137 31.079 109.342 31.079 109.579 30.9781C109.745 30.9109 110.066 31.1174 110.232 31.0454C110.63 30.8724 110.989 30.9685 111.321 31.0886C111.647 31.2087 111.89 30.9493 112.189 31.0358C112.482 31.1174 112.791 31.1606 113.09 31.2231C113.322 31.0069 113.439 31.1654 113.588 31.3143C113.648 31.3767 113.831 31.4152 113.914 31.3816C114.334 31.2039 114.743 31.3047 115.114 31.4392C115.412 31.5449 115.6 31.2807 115.871 31.3623C116.126 31.4392 116.402 31.5257 116.656 31.5113C117.021 31.492 117.375 31.4104 117.746 31.5257C118.072 31.6265 118.42 31.6697 118.758 31.737C119.133 31.8138 119.509 31.8907 119.885 31.9579C120.029 31.9819 120.179 32.0012 120.322 31.9868C120.925 31.9291 120.925 31.9243 121.616 32.3038C121.97 32.2653 122.163 32.5007 122.362 32.6688C122.6 32.8705 122.772 33.1394 122.96 33.3844C123.015 33.4565 123.02 33.5621 123.026 33.6534C123.043 34.0328 123.043 34.0328 123.385 34.0952C123.568 34.1289 123.745 34.1961 123.927 34.0664C123.988 34.0232 124.187 34.028 124.231 34.076C124.419 34.273 124.502 34.5516 124.834 34.6284C124.823 35.0174 125.138 35.2816 125.331 35.5938C125.359 35.6418 125.331 35.7187 125.321 35.7811C125.282 35.9444 125.238 36.1077 125.193 36.271L125.215 36.2374Z" fill="#D9315A"/>
<path d="M52.8896 12.7077C53.2766 12.7077 53.6636 12.7077 54.0452 12.7077C54.3106 12.7077 54.5483 12.6981 54.7751 12.895C54.8966 13.0007 55.1953 12.8517 55.3997 13.0391C55.4995 13.1303 55.7813 13.0535 55.9198 13.1351C56.08 13.2264 56.207 13.3081 56.4174 13.3225C56.738 13.3464 57.0034 13.577 57.3463 13.5482C57.5676 13.7739 57.9819 13.7547 58.1536 14.0477C58.6066 14.1485 58.9549 14.4559 59.4307 14.5328C59.7404 14.5808 60.0554 14.6817 60.2985 14.9026C60.7521 15.3109 61.2993 15.6663 61.6646 16.1274C61.9687 16.5068 62.317 16.8334 62.6654 17.1696C62.8087 17.3089 62.7815 17.5299 62.9913 17.6595C63.1794 17.7748 63.3064 17.9573 63.4944 18.0726C63.6716 18.183 63.616 18.3944 63.7436 18.4856C63.9589 18.6441 63.8651 18.9419 64.1469 19.0524C64.4233 19.158 64.3955 19.4366 64.534 19.6239C64.6724 19.8113 64.7825 20.0082 64.9651 20.1715C65.0316 20.2339 65.0649 20.3396 65.0758 20.4308C65.0981 20.6566 65.0425 20.8727 65.2856 21.0697C65.4186 21.1801 65.2197 21.4587 65.4628 21.6027C65.6176 21.6988 65.5124 21.9101 65.7005 22.0254C65.7833 22.0782 65.7615 22.2656 65.7724 22.3904C65.8002 22.7074 65.6787 23.0485 65.9992 23.3222C66.0324 23.351 65.9381 23.4903 65.894 23.5768C65.8722 23.6248 65.8111 23.6824 65.8275 23.7161C65.8553 23.7737 65.955 23.8074 65.9828 23.8649C66.0989 24.1003 65.894 24.3789 66.1431 24.6142C66.3753 24.8303 66.2205 25.1233 66.2368 25.3827C66.2646 25.887 66.209 26.3913 66.2592 26.8908C66.2864 27.179 66.0929 27.3759 66.027 27.6161C65.9659 27.837 66.0155 28.0819 66.0155 28.3173C66.0155 28.5863 66.0155 28.8552 66.0155 29.1194C65.5457 29.3595 66.027 29.9215 65.5511 30.1617C65.7283 30.6083 65.2142 30.9493 65.3189 31.3864C65.3303 31.4248 64.7438 32.4383 64.7051 32.4719C64.523 32.64 64.3181 32.7985 64.1693 32.9858C64.0532 33.1347 63.9976 33.3268 63.9311 33.5045C63.8706 33.6774 63.6106 33.615 63.5882 33.663C63.3947 34.1193 62.9363 34.3739 62.5934 34.7149C62.4827 34.8253 62.3225 34.8157 62.2064 34.8686C61.8581 35.0367 61.5316 35.248 61.2001 35.4449C60.8791 35.637 60.4588 35.7091 60.1879 35.9877C60.1492 36.0309 60.0554 36.0645 59.9944 36.0549C59.7458 36.0309 59.5856 36.1365 59.3866 36.2472C59.2203 36.3382 58.9276 36.194 58.7728 36.4151C58.7559 36.4389 58.7118 36.4585 58.6785 36.4632C58.3193 36.521 57.9045 36.3144 57.6003 36.631C57.2193 36.6409 56.8377 36.66 56.4616 36.6646C55.9972 36.6698 55.5328 36.6646 55.0738 36.6646C54.9577 36.6646 54.8361 36.6889 54.7255 36.6646C54.521 36.6119 54.333 36.5065 54.1226 36.4776C53.8958 36.444 53.6582 36.4776 53.4314 36.4632C53.3709 36.4632 53.3044 36.396 53.2548 36.348C53.0945 36.194 52.8956 36.2953 52.713 36.2664C52.4638 36.5737 52.0937 36.4487 51.7672 36.4632C51.4963 36.4776 51.2254 36.4487 50.9545 36.4678C50.5953 36.4967 50.1804 36.3289 49.8932 36.6646C49.6386 36.6264 49.3622 36.7514 49.1191 36.583C49.0363 36.5257 48.9311 36.473 48.8313 36.4678C48.5991 36.4487 48.3669 36.4869 48.1401 36.4533C47.9303 36.4249 47.8033 36.1894 47.5378 36.2565C47.1562 36.0885 46.7082 36.0549 46.338 35.858C46.277 35.8243 46.1718 35.8339 46.1445 35.7955C46.0726 35.6899 46.0502 35.493 45.9674 35.4738C45.818 35.4401 45.6687 35.4401 45.5749 35.3152C45.2762 34.9166 44.6793 34.8397 44.3582 34.4603C43.944 34.5276 43.8775 34.0809 43.5128 34.0377C43.1863 33.9992 43.0647 33.6054 42.6777 33.6006C42.6221 33.6006 42.578 33.4949 42.512 33.4661C42.18 33.3172 42.1964 32.9618 41.9424 32.7601C41.6878 32.5583 41.4556 32.3326 41.2125 32.1165C41.2953 31.7563 40.7257 31.7226 40.7317 31.3768C40.7317 31.2808 40.5655 31.1703 40.4603 31.079C40.3442 30.983 40.2504 30.8869 40.2836 30.738C40.3332 30.5459 40.1893 30.4354 40.0569 30.3153C39.9571 30.2241 39.8192 30.1665 39.8138 29.9984C39.8083 29.7774 39.9075 29.5469 39.6535 29.3499C39.4655 29.2059 39.714 28.8937 39.4099 28.7304C39.3324 28.6871 39.3602 28.4854 39.3602 28.3557C39.3602 27.9859 39.3935 27.6161 39.3439 27.2511C39.3052 26.9773 39.067 26.742 39.1171 26.4249C39.1613 26.1271 39.128 25.8245 39.128 25.522V24.7151C39.128 24.4125 39.1226 24.1099 39.128 23.8074C39.1335 23.5432 39.1613 23.2838 39.1776 23.0197C39.4927 22.8179 39.3161 22.5298 39.3548 22.28C39.7418 22.1455 39.4818 21.7949 39.6644 21.5835C39.9244 21.281 39.9958 20.8871 40.3169 20.6085C40.4935 20.4549 40.5769 20.2291 40.7372 20.061C40.9083 19.8785 41.1018 19.7152 41.3062 19.5615C41.6824 19.2829 41.7985 18.841 42.1964 18.5673C42.5616 18.3224 42.9595 18.0534 43.1645 17.7124C43.4795 17.1936 43.9881 16.8622 44.4193 16.4588C44.8674 16.0409 45.3536 15.6567 45.8017 15.2436C45.9897 15.0707 46.3157 15.1283 46.4487 14.893C46.5479 14.7105 46.5866 14.5088 46.9186 14.4607C47.1453 14.4271 47.2227 14.0765 47.5596 14.1101C47.5874 14.1101 47.6152 14.0669 47.6485 14.0525C47.9079 13.942 47.8638 13.6538 48.0627 13.505C48.4002 13.6202 48.6215 13.3849 48.8924 13.2984C49.1246 13.2216 49.3344 13.0967 49.5612 12.9958C49.6555 12.9526 49.7602 12.9094 49.8654 12.9046C50.2137 12.895 50.5729 12.9526 50.9049 12.8854C51.2199 12.823 51.5018 12.6644 51.8561 12.6932C52.1989 12.7221 52.5527 12.6981 52.8956 12.6981L52.8896 12.7077ZM59.978 24.8064C59.978 24.571 59.9502 24.3356 59.9835 24.1051C60.0222 23.8265 59.663 23.6776 59.7349 23.3799C59.79 23.1541 59.7458 22.914 59.7404 22.6786C59.7404 22.6546 59.6962 22.6258 59.663 22.6066C59.4138 22.4625 59.4858 22.2368 59.5245 22.0591C59.5801 21.7949 59.1762 21.7132 59.265 21.4347C59.3201 21.2618 59.3201 21.0552 59.0988 20.8919C58.9276 20.7671 59.0879 20.5413 58.944 20.3492C58.5515 19.8304 58.3193 19.2349 57.9546 18.697C57.8107 18.4856 57.772 18.2167 57.6118 18.0198C57.4128 17.7796 57.1304 17.5875 56.8873 17.3713C56.8595 17.3473 56.8263 17.3281 56.8045 17.2993C56.6829 17.1408 56.5003 17.1264 56.3013 17.1312C56.0359 17.1408 55.8974 16.8862 55.5824 16.9103C55.367 16.9247 55.1288 16.7518 54.9081 16.6557C54.8416 16.6269 54.7865 16.5308 54.7364 16.5356C54.3771 16.5885 53.9623 16.3675 53.6527 16.6845C53.2493 16.7422 52.8454 16.8286 52.4753 16.5693C52.4143 16.526 52.2262 16.526 52.1766 16.5693C52.0327 16.7085 51.867 16.7229 51.668 16.7326C51.4412 16.7422 51.1812 16.9583 50.8994 17.2561C50.8771 17.2801 50.8384 17.3281 50.8166 17.3233C50.374 17.2609 50.2965 17.8132 49.8599 17.7508C49.5334 18.0342 49.13 18.2791 48.8978 18.6153C48.6602 18.9659 48.5163 19.3646 48.1461 19.6479C48.1679 19.8881 48.1679 20.1138 47.8916 20.2627C47.7144 20.3588 47.709 20.5269 47.637 20.671C47.5378 20.8679 47.2723 21.0408 47.2614 21.2329C47.25 21.4875 46.8908 21.5835 46.9845 21.8429C46.8575 21.963 46.7082 22.0639 46.7523 22.2608C46.8025 22.4961 46.7523 22.7171 46.5261 22.8803C46.5757 23.1253 46.404 23.303 46.3211 23.5096C46.2552 23.668 46.0835 23.7641 46.0671 23.9226C46.0393 24.182 46.0339 24.4461 46.017 24.7103C45.6965 24.9072 45.8622 25.1954 45.8349 25.4499C45.8126 25.6757 45.8954 25.9206 45.6082 26.0743C45.6082 26.3001 45.6469 26.545 45.365 26.6939C45.365 26.8956 45.365 27.0973 45.365 27.2991C45.365 27.4336 45.4255 27.6257 45.3481 27.6881C44.9115 28.0627 45.2266 28.5191 45.1323 28.9225C45.0996 29.0714 45.2157 29.1578 45.2985 29.2683C45.3372 29.3163 45.1546 29.4844 45.1879 29.5373C45.2598 29.6477 45.4037 29.7294 45.359 29.8783C45.2931 30.1232 45.4866 30.3105 45.6687 30.3538C45.9897 30.4306 46.205 30.6035 46.3767 30.8052C46.6809 31.1559 47.2004 31.2423 47.5269 31.5737C47.6817 31.7274 48.0186 31.5593 48.2399 31.7803C48.3783 31.9195 48.7152 31.7994 48.9474 31.9916C49.1409 32.1549 49.528 31.9051 49.7934 32.1405C50.0038 32.323 50.302 32.1981 50.562 32.2173C50.7555 32.2317 50.949 32.2077 51.1371 32.2269C51.2368 32.2366 51.3197 32.323 51.4189 32.3566C51.5187 32.3902 51.6953 32.4383 51.7176 32.4094C51.8833 32.2221 52.0937 32.2125 52.3314 32.2221C52.641 32.2317 52.9506 32.1981 53.2548 32.2317C53.614 32.2702 53.8904 32.1165 54.2054 32.03C54.4104 31.9724 54.6759 32.1116 54.847 31.9243C55.0242 31.7322 55.3283 31.9291 55.4663 31.7755C55.6211 31.6025 55.8865 31.665 56.0468 31.5065C56.1296 31.4248 56.4174 31.4056 56.4174 31.3576C56.4174 30.9157 56.9593 31.0022 57.1806 30.7428C57.5398 30.3153 58.0042 29.9407 58.4796 29.6045C58.7396 29.422 58.7728 29.1626 58.9494 28.9609C59.0933 28.7928 59.1489 28.567 59.259 28.3701C59.3697 28.1732 59.5856 27.9907 59.4858 27.7506C59.3697 27.4768 59.7235 27.3711 59.7349 27.131C59.7567 26.6219 59.5469 26.0743 59.9557 25.6036V24.8016L59.978 24.8064Z" fill="#D9315A"/>
<path d="M10.5725 54.1035C10.5725 54.0426 10.5643 53.978 10.5725 53.9166C10.6101 53.6469 10.4433 53.3339 10.6891 53.1143C10.948 52.8803 10.6352 52.5745 10.8979 52.3297C11.0941 52.1463 11.1775 51.8694 11.3067 51.6318C11.4195 51.4231 11.5406 51.2108 11.6659 51.0058C11.7744 50.8224 11.9663 50.6602 11.8867 50.4262C12.1456 50.1819 12.2917 49.8616 12.5501 49.6312C12.7589 49.4478 12.7381 49.1777 12.9927 49.0232C13.2135 48.8863 13.389 48.703 13.4849 48.4473C13.5558 48.2603 13.8229 48.1306 14.0066 47.9762C14.211 47.8 14.4279 47.627 14.6242 47.44C14.7615 47.3103 15.0036 47.2277 14.9578 46.9937C15.1289 46.9038 15.3208 46.832 15.4582 46.7132C15.6168 46.5799 15.8049 46.5262 15.9886 46.443C16.1717 46.3568 16.314 46.1951 16.4557 46.051C16.5642 45.943 16.6852 45.9249 16.8351 45.9249C16.931 45.9249 17.0771 45.9037 17.1191 45.8495C17.3153 45.5654 17.728 45.5582 17.9744 45.3278C18.2038 45.1155 18.6001 45.0829 18.8509 44.9068C19.1174 44.7198 19.5268 44.9249 19.6974 44.6118C19.9814 44.6191 20.1564 44.2952 20.4818 44.4248C20.6987 44.2234 20.9784 44.2446 21.2662 44.2306C21.6085 44.2125 21.9885 44.3525 22.2844 44.0648C22.3346 44.0183 22.4932 44.0467 22.5973 44.0467C23.1441 44.0467 23.6908 44.0323 24.237 44.0503C24.5417 44.0612 24.9004 43.9279 25.1299 44.2306C25.422 44.2306 25.7142 44.2306 26.002 44.2306C26.1982 44.4967 26.5155 44.3778 26.7826 44.4285C27.0077 44.4713 27.2748 44.5576 27.404 44.7017C27.6171 44.9393 27.93 45.0148 28.1927 45.1372C28.4429 45.2524 28.7144 45.4828 29.0649 45.3639C29.2273 45.5871 29.4863 45.5618 29.7408 45.5546C29.8117 45.5546 29.9327 45.5365 29.9491 45.5654C30.1077 45.8604 30.4876 45.6589 30.7084 45.8242C30.8338 45.9177 31.0382 45.9358 31.1466 46.0329C31.3968 46.2524 31.7059 46.3748 32.0232 46.4973C32.052 46.5081 32.1104 46.4864 32.1273 46.5009C32.336 46.6734 32.511 46.9327 32.7574 47.0081C33.091 47.1089 33.2791 47.3139 33.5085 47.4973C33.7211 47.6704 33.9174 47.8574 34.13 48.0263C34.2679 48.1342 34.1719 48.3254 34.3556 48.4225C34.5055 48.5051 34.6015 48.7138 34.7476 48.7355C35.1275 48.7928 35.2272 49.0051 35.3695 49.2645C35.4862 49.4799 35.7658 49.624 35.9615 49.811C35.9991 49.8471 35.974 49.9334 35.9615 49.9949C35.937 50.1312 35.9909 50.2356 36.1201 50.3151C36.5627 50.5956 36.7126 51.0383 36.9716 51.4268C37.0048 51.4769 37.0506 51.5311 37.055 51.5848C37.0757 51.8261 36.9672 52.0926 37.2763 52.2615C37.3259 52.5854 37.1215 52.9521 37.4932 53.2223C37.4932 53.5353 37.497 53.852 37.4932 54.165C37.4845 54.4347 37.1929 54.6289 37.2637 54.9383C37.3259 55.2121 37.3013 55.5034 37.2675 55.7839C37.2512 55.9533 37.0048 56.0577 37.0506 56.2736C37.0882 56.4534 37.0593 56.6223 36.8794 56.7808C36.7879 56.8635 36.8255 57.0794 36.8424 57.2308C36.8838 57.5614 36.8255 57.8496 36.4793 58.0474C36.4499 58.0655 36.3997 58.0975 36.4041 58.112C36.4919 58.3786 36.2624 58.5655 36.191 58.7923C36.137 58.9576 36.2455 59.188 35.8825 59.1591C35.841 59.1591 35.7696 59.2278 35.7489 59.2779C35.6573 59.4649 35.611 59.6772 35.4818 59.8394C35.3401 60.0191 35.1564 60.1953 34.9438 60.2996C34.656 60.4401 34.6974 60.7279 34.493 60.9045C34.3011 61.0734 34.0008 61.185 33.9964 61.4763C33.5124 61.8973 33.0283 62.3183 32.5486 62.7357C32.3862 62.7068 32.2734 62.7827 32.1856 62.8871C31.8602 63.2719 31.3347 63.3871 30.8964 63.6175C30.8381 63.6459 30.7629 63.6893 30.7084 63.6748C30.3666 63.5958 30.1578 63.9124 29.8117 63.8835C29.5446 63.8618 29.2192 63.7538 28.9815 63.9553C28.7308 64.1712 28.3846 63.9413 28.1759 64.0922C27.863 64.3189 27.6417 64.3045 27.3288 64.0922C27.1952 64.0023 26.92 63.9951 26.7488 64.1748C26.6071 64.3226 26.407 64.2218 26.2402 64.2508C26.044 63.9878 25.7349 64.0813 25.4558 64.0596C25.247 64.0421 25.005 64.1536 24.8382 63.9914C24.6251 63.7864 24.3623 63.8979 24.1247 63.8799C23.9077 63.8618 23.6864 63.8871 23.4695 63.8726C23.2651 63.8582 23.1566 63.6386 22.902 63.6784C22.6976 63.711 22.4889 63.711 22.3139 63.5343C22.1803 63.4015 21.8925 63.5813 21.7252 63.3979C21.6712 63.3401 21.542 63.3184 21.4461 63.308C21.2041 63.29 20.9658 63.3328 20.7533 63.135C20.6366 63.027 20.3275 63.1929 20.1689 62.995C20.1357 62.9552 20.0523 62.9408 19.9858 62.9263C19.7808 62.8871 19.5268 63.0198 19.3682 62.8509C19.2177 62.6959 18.9839 62.7429 18.8214 62.6024C18.6672 62.4697 18.4001 62.3757 18.1788 62.3726C17.9329 62.3726 17.7994 62.2357 17.6157 62.1639C17.215 62.0053 16.7811 61.8901 16.4475 61.6453C16.1259 61.4118 15.7171 61.293 15.4331 60.998C15.2205 60.7712 14.8117 60.7279 14.6029 60.4582C14.4988 60.3249 14.1314 60.1162 14.0355 60.0873C13.9728 60.0692 13.873 60.0372 13.8643 59.9974C13.7896 59.5837 13.347 59.422 13.0799 59.1446C12.8717 58.9287 12.5419 58.7742 12.4084 58.533C12.2623 58.2742 12.0748 58.0728 11.8453 57.8889C11.6071 57.7019 11.6158 57.3816 11.3111 57.2235C11.123 57.1264 11.3154 56.8852 11.2108 56.7989C11.0483 56.6584 11.0609 56.4534 10.9148 56.3345C10.7518 56.2049 10.7976 56.0541 10.7851 55.9063C10.7643 55.6078 10.881 55.2839 10.5681 55.0426V54.0999L10.5725 54.1035ZM24.884 60.8467H25.6515C25.9437 60.8467 26.2402 60.8141 26.5237 60.8539C26.8115 60.8973 26.9701 60.6922 27.1996 60.6597C27.3789 60.6344 27.5708 60.6235 27.742 60.6597C28.0047 60.717 28.0881 60.4401 28.3094 60.4654C28.6392 60.5047 28.9101 60.343 29.2066 60.2888C29.7572 60.188 30.1747 59.8642 30.6877 59.7206C30.9215 59.6555 31.0507 59.5191 31.1799 59.3858C31.4595 59.0981 31.8226 58.9111 32.2025 58.7742C32.5236 58.659 32.7738 58.4757 32.8784 58.2344C33.0201 57.9069 33.3581 57.6518 33.3412 57.2628C33.3412 57.1874 33.4082 57.083 33.4835 57.036C33.7506 56.8635 33.8002 56.5794 33.9801 56.3599C34.1507 56.1476 34.251 55.8882 34.3802 55.6548C34.5099 55.4244 34.4303 55.1041 34.4265 54.8236C34.4265 54.6325 34.4178 54.4491 34.6391 54.3339C34.5726 54.2657 34.5012 54.2007 34.4347 54.1325C34.7056 53.992 34.6473 53.7621 34.6473 53.5498C34.6473 53.3623 34.6184 53.1681 34.656 52.9847C34.7018 52.7651 34.372 52.697 34.4303 52.4955C34.5224 52.168 34.3218 51.8911 34.1469 51.6571C33.9632 51.4051 33.6546 51.2072 33.3625 51.0311C33.1455 50.8978 32.8822 50.8188 32.6407 50.7144C32.432 50.6209 32.2025 50.5558 32.0019 50.4515C31.7599 50.3255 31.4764 50.3079 31.2388 50.2211C31.0006 50.1348 30.7422 50.0305 30.5209 49.8905C30.4958 49.8761 30.45 49.8833 30.4124 49.8905C30.112 49.9515 29.9452 49.671 29.628 49.6818C29.3816 49.6891 29.1521 49.4298 28.8436 49.5124C28.71 49.3254 28.4931 49.2784 28.2805 49.3326C27.984 49.4044 27.8548 49.1456 27.6046 49.1348C27.1914 49.1131 26.7363 49.2572 26.3819 48.9514H24.7423C24.5253 49.1565 24.2457 49.1493 23.9579 49.142C23.7033 49.1348 23.4488 49.1348 23.1898 49.142C22.9396 49.1493 22.6933 49.1704 22.4474 49.1849C22.2681 49.4189 21.9841 49.2929 21.7502 49.3326C21.6543 49.3507 21.5709 49.4153 21.4793 49.4515C21.258 49.5377 21.0367 49.6059 20.8661 49.7826C20.6322 50.0233 20.2986 50.2036 20.1149 50.4623C19.9481 50.6963 19.7683 50.9086 19.5682 51.1173C19.493 51.1928 19.4766 51.3296 19.414 51.4376C19.1011 51.9846 18.7756 52.5312 18.454 53.0782C18.3374 53.2833 18.0997 53.4775 18.2246 53.7513C17.9367 53.9238 18.0578 54.1976 17.9951 54.4238C17.9329 54.6506 17.7367 54.834 17.7781 55.1041C17.8245 55.4135 17.8076 55.7338 17.7825 56.0468C17.7574 56.3707 17.9286 56.6295 18.1161 56.8707C18.2496 57.0433 18.4251 57.1802 18.5085 57.3961C18.5794 57.5831 18.8967 57.6518 18.8967 57.9214C18.8967 58.0113 19.0716 58.159 19.1888 58.1771C19.6642 58.2598 19.856 58.6229 20.1689 58.8641C20.2441 58.9215 20.2065 59.0873 20.3319 59.1808C20.5069 59.3104 20.3068 59.314 20.236 59.3352C19.9481 59.4365 19.8936 59.5439 20.0648 59.6989C20.1149 59.7459 20.1733 59.7851 20.2191 59.8321C20.3859 60.0047 20.5614 60.1416 20.8617 60.1018C20.937 60.0909 21.0285 60.1989 21.1207 60.2314C21.4668 60.3503 21.7922 60.5083 22.122 60.6524C22.3302 60.7423 22.6099 60.577 22.8355 60.764C23.0732 60.9618 23.3904 60.825 23.6657 60.843C24.0664 60.8684 24.4665 60.8503 24.8671 60.8503L24.884 60.8467Z" fill="#D9315A"/>
<path d="M100.309 63.0776C100.309 62.793 100.305 62.5053 100.309 62.2212C100.313 61.9474 100.209 61.6452 100.555 61.4546C100.555 61.1705 100.56 60.8864 100.564 60.6018C100.964 60.3822 100.643 59.954 100.848 59.7489C101.115 59.4829 100.914 59.1626 101.077 58.972C101.323 58.6771 101.29 58.3888 101.302 58.083C101.632 57.8459 101.54 57.5148 101.552 57.209C101.945 57.0324 101.653 56.6041 101.966 56.3882C102.154 56.2591 101.982 56.0432 102.062 55.8918C102.124 55.773 102.324 55.7229 102.3 55.5462C102.245 55.1939 102.625 54.9419 102.571 54.5606C102.533 54.2838 102.892 54.0208 102.804 53.6861C102.783 53.6071 102.88 53.5027 102.934 53.4165C103.138 53.0854 103.368 52.7687 103.292 52.3658C103.255 52.1463 103.614 52.0672 103.551 51.8115C103.497 51.6101 103.543 51.3869 103.551 51.1746C103.964 50.9086 103.806 50.516 103.773 50.1926C103.739 49.8796 104.156 49.7138 104.035 49.4261C103.902 49.1058 104.252 48.9261 104.298 48.6559C104.323 48.4942 104.615 48.4183 104.536 48.2096C104.44 47.9617 104.749 47.8573 104.795 47.6558C104.832 47.4973 104.982 47.3609 105.024 47.2059C105.057 47.0835 105.116 46.9828 105.237 47.0081C105.642 47.0907 105.829 46.8392 106.063 46.648C106.197 46.5401 106.321 46.5117 106.476 46.6553C106.656 46.8211 106.948 46.7415 107.094 46.9471C107.223 47.1269 107.448 47.1951 107.682 47.2633C107.97 47.3464 107.962 47.6595 108.128 47.8428C108.3 48.0298 108.542 48.1486 108.533 48.4581C108.529 48.6667 108.696 48.8971 108.838 49.0877C108.93 49.2065 109.042 49.3 109.009 49.4586C108.95 49.7644 109.067 49.9876 109.342 50.203C109.534 50.3507 109.643 50.5883 109.747 50.8043C109.806 50.9267 109.73 51.1028 109.801 51.2108C110.081 51.6462 110.356 52.0817 110.598 52.5347C110.665 52.6571 110.707 52.7868 110.774 52.8984C110.882 53.0781 111.087 53.2186 111.249 53.3731C111.087 53.6861 111.395 53.9056 111.525 54.1324C111.675 54.3948 111.767 54.7187 112.08 54.899C112.292 55.0209 112.247 55.2048 112.242 55.3773C112.242 55.507 112.318 55.5788 112.455 55.5752C112.772 55.5679 112.747 55.7518 112.743 55.928C112.743 56.0716 112.731 56.2085 112.973 56.2229C113.302 56.241 113.432 56.4998 113.619 56.6728C113.803 56.8381 113.82 57.1047 114.062 57.2664C114.274 57.4105 114.5 57.5613 114.521 57.8526C114.529 57.9642 115.109 57.9787 115.175 57.8707C115.209 57.8134 115.23 57.738 115.221 57.6765C115.197 57.4859 115.309 57.3635 115.426 57.209C115.568 57.0215 115.969 57.1982 115.969 56.8888C115.969 56.6728 116.189 56.6077 116.307 56.4714C116.352 56.4135 116.473 56.3562 116.461 56.3164C116.332 55.8272 116.819 55.6475 117.091 55.3556C117.157 55.2838 117.216 55.1686 117.208 55.0824C117.191 54.8845 117.291 54.7585 117.441 54.6252C117.662 54.4274 117.833 54.0389 117.967 53.636C118.017 53.4774 118.155 53.3442 118.201 53.1861C118.242 53.0528 118.201 52.902 118.213 52.7615C118.221 52.7005 118.267 52.6282 118.326 52.589C118.759 52.3079 118.81 51.8224 119.119 51.4804C119.306 51.2753 119.081 51.0057 119.361 50.8043C119.544 50.671 119.586 50.3941 119.703 50.1854C119.82 49.9731 119.941 49.7789 119.978 49.5268C120.015 49.2856 120.387 49.0733 120.404 48.8357C120.42 48.5624 120.825 48.4653 120.7 48.1812C121.013 48.0371 120.913 47.6558 121.222 47.5081C121.293 47.4756 121.372 47.4182 121.392 47.3573C121.501 47.0727 121.622 46.7524 121.856 46.569C122.115 46.3639 122.148 46.0835 122.357 45.8784C122.453 45.7849 122.444 45.6082 122.544 45.522C122.949 45.1836 123.283 44.8205 123.445 44.338C123.491 44.198 123.717 44.0286 123.879 44.011C124.18 43.9821 124.534 43.8886 124.785 44.1836C124.872 44.2879 124.96 44.446 125.16 44.4176C125.494 44.3742 125.594 44.5074 125.74 44.7662C125.882 45.0255 125.978 45.353 126.32 45.5292C126.47 45.6082 126.47 45.7053 126.316 45.882C126.208 46.0044 126.149 46.1119 126.161 46.2596C126.174 46.4001 126.112 46.6269 126.191 46.6697C126.658 46.9291 126.17 47.4616 126.62 47.706C126.783 48.0443 126.9 48.4116 127.238 48.6631C127.376 48.7675 127.413 48.8791 127.417 49.0304C127.426 49.3326 127.284 49.674 127.659 49.9044C127.659 50.2247 127.647 50.5486 127.668 50.8688C127.672 50.9551 127.785 51.0377 127.852 51.1209C127.956 51.2573 127.939 51.3869 127.789 51.484C127.63 51.5884 127.605 51.7542 127.668 51.8622C128.093 52.5962 127.847 53.3767 127.897 54.1324C127.91 54.3266 128.047 54.4418 128.118 54.5896C128.206 54.7729 128.19 55.0142 128.143 55.2192C128.072 55.5287 128.269 55.7446 128.402 55.9889C128.536 56.2338 128.753 56.4533 128.652 56.7591C128.632 56.8237 128.632 56.9461 128.665 56.9606C129.074 57.1331 128.753 57.5613 129.086 57.7917C129.266 57.9177 129.345 58.2018 129.379 58.4214C129.408 58.612 129.462 58.7525 129.625 58.8749C129.779 58.9901 129.879 59.1084 129.917 59.3104C129.942 59.4431 130.117 59.5728 130.175 59.7489C130.226 59.9003 130.443 60.0118 130.597 60.1307C130.781 60.2779 130.943 60.4184 130.897 60.6705C130.885 60.7531 130.956 60.8828 131.039 60.9329C131.678 61.3322 131.924 62.0161 132.529 62.4407C132.621 62.714 132.804 62.9263 133.05 63.1132C133.1 63.1494 133.142 63.2538 133.117 63.2971C132.934 63.5921 132.871 63.995 132.479 64.1174C132.249 64.1892 131.895 64.2466 131.665 64.0487C131.49 63.8943 131.293 63.9087 131.102 63.9304C130.814 63.9661 130.647 63.8364 130.472 63.6784C130.405 63.6169 130.359 63.4805 130.217 63.5487C130.167 63.574 130.146 63.6675 130.146 63.7321C130.142 64.1965 130.134 64.6608 130.146 65.1247C130.15 65.2869 130.071 65.3804 129.95 65.4884C129.241 66.1181 129.111 66.1609 128.118 66.071C127.868 65.8804 127.543 65.8877 127.25 65.805C127.042 65.7472 126.791 65.5421 126.741 65.3623C126.654 65.071 126.499 64.7972 126.425 64.5095C126.362 64.2791 126.445 64.0523 126.212 63.8261C126.011 63.6386 126.312 63.2754 126.02 63.0451C125.778 62.8508 126.091 62.4552 125.674 62.3074C125.644 62.2966 125.648 62.1669 125.674 62.1023C125.782 61.7965 125.54 61.5806 125.419 61.3322C125.344 61.1813 125.206 61.0372 125.185 60.8828C125.16 60.7025 125.16 60.5336 124.964 60.422C125.01 59.9829 124.68 59.7205 124.347 59.4648C124.209 59.3605 124.15 59.2489 124.176 59.0944C124.213 58.8424 124.192 58.6048 123.929 58.4322C124.009 57.9539 123.579 57.6264 123.412 57.223C123.324 57.0112 123.049 56.8562 122.857 56.6728C122.628 56.7736 122.411 56.9032 122.169 56.9606C121.835 57.0432 121.605 57.3418 121.2 57.2772C120.955 57.2374 120.892 57.4787 120.725 57.5722C120.738 57.9033 120.395 58.0293 120.203 58.2416C120.316 58.5221 119.928 58.6228 119.907 58.893C119.891 59.1301 119.573 59.3388 119.477 59.5872C119.419 59.7277 119.336 59.8249 119.235 59.9328C118.885 60.3068 118.864 60.53 119.127 60.9546C119.24 61.1379 119.24 61.2061 119.114 61.3213C118.943 61.4763 118.751 61.6168 118.593 61.7785C118.522 61.8503 118.464 61.9618 118.472 62.0517C118.484 62.2465 118.384 62.372 118.242 62.5125C117.683 63.0668 117.687 63.0668 116.89 63.2827C116.786 63.3111 116.715 63.4407 116.611 63.4697C116.515 63.495 116.352 63.4769 116.285 63.4227C116.156 63.3183 116.035 63.261 115.851 63.2718C115.747 63.2791 114.984 62.9443 114.913 62.9009C114.675 62.7537 114.758 62.4371 114.487 62.3074C114.562 62.232 114.633 62.1561 114.708 62.0807C114.641 62.0517 114.575 62.0089 114.5 61.9944C114.287 61.9618 114.003 62.0951 113.965 61.7351C113.949 61.5951 113.732 61.4654 113.594 61.3394C113.315 61.0806 113.027 60.8285 112.739 60.5733C112.81 60.1988 112.213 60.1591 112.222 59.7851C112.222 59.6554 111.975 59.5227 111.838 59.393C111.725 59.2887 111.504 59.1771 111.516 59.0872C111.571 58.6982 111.016 58.6554 110.974 58.3026C110.949 58.1011 110.598 57.9394 110.519 57.7235C110.436 57.4931 110.186 57.4141 110.089 57.2338C109.973 57.0143 109.885 56.7916 109.643 56.6403C109.543 56.5793 109.476 56.4786 109.372 56.4244C109.313 56.3918 109.205 56.4027 109.134 56.428C109.097 56.4425 109.055 56.536 109.071 56.5721C109.117 56.662 109.246 56.741 109.251 56.8273C109.272 57.2555 109.268 57.6837 109.251 58.112C109.251 58.2018 109.155 58.2881 109.1 58.378C108.988 58.5691 108.984 58.5727 109.097 58.7416C109.134 58.8026 109.243 58.8424 109.251 58.8997C109.305 59.267 109.134 59.6627 109.493 59.9974C109.606 60.1017 109.347 60.2386 109.322 60.3466C109.255 60.6451 109.097 60.7314 108.754 60.7206C108.583 60.7133 108.416 60.8755 108.233 60.9148C108.078 60.951 107.903 60.9293 107.736 60.9184C107.582 60.9112 107.402 60.9726 107.281 60.8285C107.135 60.6524 106.806 60.7423 106.681 60.5263C106.631 60.4365 106.539 60.3538 106.522 60.2634C106.497 60.0873 106.522 59.9075 106.509 59.7277C106.501 59.6306 106.464 59.5294 106.414 59.4431C106.288 59.2381 106.096 59.0474 106.034 58.8315C105.967 58.5939 106.021 58.3351 106.017 58.0866C106.017 58.0546 106.005 58.0112 105.975 57.9968C105.909 57.9642 105.834 57.925 105.763 57.925C105.692 57.925 105.579 57.957 105.562 58.0004C105.521 58.0939 105.529 58.2055 105.521 58.3062C105.487 58.7489 105.583 59.1843 105.295 59.6234C105.091 59.9364 105.42 60.3678 105.128 60.7423C104.886 61.0481 105.07 61.4293 105.024 61.7749C104.995 62.0089 104.686 62.1525 104.765 62.4371C104.82 62.6385 104.778 62.8617 104.778 63.0776V63.8261C104.778 64.0415 104.77 64.2538 104.782 64.4697C104.79 64.5668 104.836 64.6645 104.874 64.758C105.012 65.0782 104.991 65.2001 104.736 65.3479C104.544 65.4594 104.273 65.4486 104.131 65.6392L103.289 65.7508C103.009 65.5638 102.867 65.9775 102.571 65.866C102.399 65.8014 102.124 65.913 101.966 65.837C101.761 65.7435 101.552 65.6609 101.348 65.571C100.777 65.3189 100.793 65.3045 100.472 64.8334C100.389 64.711 100.293 64.6211 100.296 64.4661C100.309 64.0022 100.301 63.5379 100.301 63.074L100.309 63.0776Z" fill="#D9315A"/>
<path d="M56.3236 64.8442C56.2696 64.8442 56.2113 64.8334 56.1568 64.837C56.0107 64.8442 55.8984 64.8009 55.8063 64.6965C55.6689 64.5457 55.5185 64.4052 55.3686 64.2647C55.289 64.1893 55.0137 64.1712 54.9221 64.2538C54.7384 64.4196 54.534 64.4987 54.2626 64.4517C54.1039 64.4269 53.954 64.4269 53.8036 64.5384C53.7371 64.5886 53.5408 64.5524 53.428 64.5095C53.3402 64.4734 53.2988 64.369 53.1903 64.4806C53.0612 64.6102 52.9151 64.6929 52.6894 64.6567C52.4436 64.6211 52.189 64.6066 51.9426 64.6175C51.7257 64.6283 51.663 64.3907 51.446 64.4232C51.4335 64.4232 51.3795 64.337 51.3959 64.3081C51.4798 64.1247 51.2585 64.0131 51.2585 63.8545C51.2585 63.6892 51.2629 63.5162 51.2961 63.3545C51.3337 63.1603 51.0792 63.0415 51.15 62.8292C51.2127 62.6494 51.1915 62.4479 51.1958 62.2568C51.1958 62.2176 51.1626 62.1742 51.1331 62.1349C50.9958 61.9329 51.0247 61.7387 51.1626 61.5517C51.2999 61.3611 51.3419 61.1597 51.1915 60.9727C51.0955 60.8539 51.1582 60.7459 51.1457 60.6343C51.3795 60.4866 51.3376 60.2634 51.3501 60.0584C51.4335 58.9106 51.5005 57.7628 51.6008 56.6186C51.6254 56.3273 51.4711 55.9889 51.8178 55.7549C51.8429 55.3737 51.8674 54.9925 51.8925 54.6072C51.5714 54.4346 52.0555 54.3122 51.9263 54.1505C51.9595 53.697 51.9677 53.2398 52.0304 52.7904C52.0636 52.5456 51.9219 52.2579 52.2097 52.0564C52.2179 52.0492 52.1808 51.9841 52.1514 51.9557C52.0053 51.8007 52.1345 51.6354 52.1094 51.4768C52.3934 51.2826 52.2975 51.0021 52.3226 50.7573C52.3683 50.2789 52.389 49.8001 52.4267 49.3254C52.4392 49.1596 52.4561 49.0087 52.2975 48.8646C52.2223 48.7964 52.3852 48.6094 52.243 48.5407C52.1307 48.487 52.0135 48.4508 51.9094 48.3682C51.826 48.3031 51.7006 48.3465 51.6254 48.4328C51.5758 48.4942 51.5507 48.4906 51.5049 48.4291C51.4711 48.3863 51.446 48.3067 51.3294 48.379C51.1833 48.4689 51.0083 48.5733 50.8453 48.5733C50.6409 48.5733 50.4867 48.6957 50.3237 48.6885C50.1155 48.6776 49.9775 48.7964 49.7982 48.8145C49.6145 48.8357 49.4935 48.987 49.2722 48.9473C49.1054 48.9152 48.9593 49.1311 48.7511 49.0552C48.5674 49.1596 48.3711 49.2066 48.1542 49.1885C48.0206 49.4008 47.7328 49.2102 47.5698 49.3574C47.5241 49.3972 47.4199 49.4261 47.3529 49.4116C47.1234 49.361 46.9441 49.4726 46.744 49.5196C46.5729 49.5625 46.4437 49.6957 46.2224 49.6565C46.0556 49.6276 45.9177 49.8145 45.7007 49.7712C45.5966 49.7536 45.4669 49.8616 45.3464 49.8827C45.2417 49.9008 45.1207 49.8936 45.0166 49.8688C44.8285 49.8254 44.7244 49.9623 44.574 49.9871C44.4573 50.0088 44.3696 50.0088 44.3614 50.1384C44.3407 50.3616 44.399 50.6028 44.1695 50.7826C44.3074 50.8725 44.2447 50.9298 44.1695 51.045C44.0905 51.171 44.115 51.3616 44.1488 51.5166C44.1652 51.5956 44.2655 51.6602 44.2486 51.7682C44.2235 51.9593 44.2197 52.1499 44.2071 52.3405C44.1946 52.5058 44.1445 52.6752 44.3445 52.7904C44.278 52.8586 44.1777 52.8948 44.157 53.01C44.115 53.229 44.199 53.4165 44.2905 53.6035C44.1695 53.8659 44.4655 54.0782 44.4115 54.3411C44.3614 54.5751 44.3783 54.8195 44.3532 55.0571C44.3363 55.1867 44.3908 55.273 44.4742 55.3773C44.5244 55.4419 44.4573 55.5679 44.4868 55.6506C44.5495 55.8128 44.1445 55.9388 44.4492 56.1077L44.4159 56.6078C44.4034 56.7736 44.399 56.9425 44.3783 57.1078C44.357 57.2772 44.3445 57.4353 44.5157 57.5577C44.4906 57.8924 44.4742 58.2236 44.4241 58.5547C44.4159 58.6265 44.2028 58.691 44.2698 58.7742C44.4824 59.0366 44.3783 59.3171 44.3658 59.5873C44.3614 59.6988 44.4284 59.7634 44.5031 59.8285C44.6285 59.9328 44.7119 60.0439 44.6617 60.2025C44.6203 60.3358 44.7163 60.5047 44.574 60.6054C44.4448 60.6989 44.4617 60.8068 44.4366 60.922C44.4241 60.9835 44.3614 61.0408 44.3074 61.0879C44.1237 61.2351 43.861 61.3466 43.7689 61.5264C43.6604 61.7315 43.7062 61.9944 43.6855 62.2284C43.6729 62.372 43.6648 62.5161 43.656 62.6602C43.6479 62.7966 43.6909 62.9707 43.7858 63.182C43.8316 63.2863 43.9024 63.3834 43.9231 63.4914C43.9444 63.5813 43.8981 63.682 43.9106 63.7755C43.9319 63.9299 44.1068 64.0415 44.0485 64.229C44.0065 64.3654 44.0153 64.5131 44.0153 64.6567C44.0065 64.9124 43.698 65.0958 43.7896 65.3804C43.7983 65.4052 43.7356 65.4522 43.7024 65.4884C43.5601 65.6501 43.2641 65.7038 43.2472 65.9631C43.2472 65.9884 43.1682 66.0168 43.1224 66.0313C42.9763 66.0747 42.8302 66.1108 42.6841 66.1537C42.5048 66.208 42.4339 66.413 42.2208 66.413C42.0289 66.413 41.8327 66.4022 41.6408 66.3841C41.5198 66.3732 41.4408 66.4058 41.3448 66.4704C41.2696 66.521 41.153 66.5282 41.057 66.5639C40.7605 66.6718 40.6689 66.6646 40.4934 66.4957C40.3435 66.3552 40.1974 66.2079 40.0513 66.0674C40.0137 66.0313 39.9472 65.9956 39.9472 65.9595C39.951 65.74 39.6757 65.6501 39.6381 65.492C39.6005 65.3153 39.3923 65.1717 39.4882 64.9734C39.5258 64.898 39.6469 64.8225 39.6343 64.7611C39.6174 64.682 39.5008 64.6283 39.5133 64.5167C39.5378 64.3261 39.5504 64.135 39.5547 63.9444C39.5547 63.8147 39.6218 63.7321 39.7177 63.6386C39.776 63.5813 39.776 63.4552 39.7591 63.369C39.7384 63.261 39.5466 63.1923 39.6256 63.0632C39.6839 62.966 39.8425 62.9154 39.8093 62.7713C39.9805 62.6923 39.9968 62.559 40.0055 62.4082C40.0306 61.9546 40.0933 61.5016 40.0889 61.0445C40.0889 60.7025 40.3015 60.343 40.0012 60.0191C40.0181 59.7562 40.0344 59.4938 40.0595 59.2308C40.072 59.1048 40.0469 59.0113 39.9472 58.9106C39.8801 58.846 40.1849 58.7845 39.9968 58.6626C39.8845 58.5903 39.951 58.486 39.9472 58.3961C39.9385 58.238 39.7341 58.1337 39.8049 57.9431C39.8551 57.8098 39.8425 57.6584 39.8387 57.5148C39.8344 57.378 39.9428 57.2194 39.8049 57.1047C39.655 56.9787 39.7341 56.8382 39.7341 56.7013C39.7341 56.5613 39.7428 56.4172 39.751 56.273C39.4381 56.1005 39.7968 55.7513 39.5046 55.5752C39.5046 55.4347 39.5215 55.2911 39.5046 55.1542C39.4713 54.9057 39.6801 54.6361 39.413 54.4093C39.3961 54.3948 39.4005 54.3664 39.4005 54.3447C39.4005 54.1107 39.4048 53.8731 39.4086 53.6396C39.1666 53.431 39.3334 53.1861 39.3421 52.9593C39.3503 52.7434 39.1001 52.5993 39.1961 52.3622C39.2669 52.1892 39.2337 51.9841 39.2462 51.7935C38.9747 51.6029 39.2211 51.3224 39.1127 51.1349C38.9497 50.858 39.0042 50.592 39.0205 50.3182C39.0293 50.2066 38.9497 50.1529 38.8995 50.0702C38.8248 49.9551 38.7496 49.829 38.7371 49.6994C38.7202 49.5589 38.7076 49.4442 38.6079 49.3109C38.5158 49.1885 38.6788 48.987 38.5659 48.8357C38.4743 48.7174 38.3321 48.627 38.2449 48.5087C38.1489 48.379 38.0192 48.2277 38.0236 48.0877C38.0279 47.911 37.89 47.785 37.8818 47.6342C37.8649 47.3712 37.9069 47.1088 37.9276 46.8459C38.2029 46.7059 38.0361 46.3423 38.3659 46.2126C38.5659 46.1372 38.6537 45.9538 38.7578 45.7916C38.8161 45.7017 38.9333 45.5974 39.05 45.7704C39.0625 45.788 39.0958 45.8097 39.1127 45.8061C39.2838 45.7632 39.467 45.7307 39.6174 45.6553C39.6801 45.6227 39.6926 45.4858 39.6883 45.3996C39.6801 45.1728 39.8137 45.0612 40.0431 44.993C40.2388 44.9357 40.4187 44.8096 40.6482 44.8815C40.7856 44.7125 40.9862 44.7373 41.1693 44.7735C41.3781 44.8133 41.4702 44.5793 41.6953 44.6438C41.8414 44.6872 42.0622 44.7089 42.1707 44.6438C42.3293 44.5467 42.4672 44.5576 42.6296 44.554C42.8428 44.5467 43.0761 44.6583 43.2598 44.5075C43.4184 44.3778 43.6479 44.5576 43.7858 44.3887C43.8109 44.3597 43.8774 44.3416 43.9275 44.3416C44.0654 44.3416 44.2028 44.3525 44.3445 44.3597L44.8454 44.385C44.9834 44.2265 45.2085 44.3096 45.3584 44.2482C45.5132 44.1836 45.638 44.1257 45.8092 44.1474C45.8926 44.1583 45.976 44.1655 46.0594 44.1583C46.4562 44.1257 46.8732 44.3344 47.2531 44.0829C47.2864 44.0612 47.3616 44.0901 47.4156 44.0865C47.7579 44.072 48.1209 44.2228 48.4376 43.9966C48.7009 43.9785 48.9844 44.1149 49.2182 43.9098C49.2182 43.9098 49.2973 43.9568 49.3223 43.9894C49.4019 44.0865 49.5229 44.0431 49.627 44.0575C49.7938 44.0829 49.8691 43.885 50.0691 43.9315C50.2528 43.9749 50.4534 43.9568 50.6491 43.9677C50.8165 43.9749 50.9832 43.9857 51.15 43.993C51.204 43.993 51.2711 44.0142 51.3168 44.0002C51.5131 43.9279 51.6924 43.8416 51.9263 43.885C52.1138 43.9207 52.3138 43.9098 52.5063 43.9207C52.9402 43.6836 53.4073 43.8452 53.8619 43.8561C54.1127 43.8633 54.2833 43.6582 54.5547 43.73C54.7635 43.7843 55.0093 43.8091 55.2137 43.759C55.3893 43.7156 55.5435 43.6149 55.7398 43.6546C55.815 43.6727 55.9316 43.6655 55.9605 43.7084C56.1404 43.9568 56.4991 44.0069 56.6953 44.2445C56.7869 44.3597 56.7825 44.4568 56.7825 44.572C56.7825 44.6154 56.812 44.6908 56.8327 44.6908C57.108 44.7017 57.108 44.8525 57.0834 45.0328C57.0665 45.1692 57.2001 45.1516 57.3004 45.18C57.3462 45.1945 57.4045 45.3278 57.3876 45.3422C57.1625 45.522 57.2415 45.8278 57.0164 46.0003C57.0246 46.148 56.8747 46.1987 56.7744 46.2668C56.6534 46.3495 56.6615 46.4037 56.7744 46.4755C56.8245 46.5117 56.8076 46.5365 56.7411 46.5763C56.6534 46.6336 56.5367 46.6915 56.5034 46.7705C56.4784 46.8247 56.5825 46.9146 56.6119 46.9936C56.6283 47.037 56.6119 47.0871 56.6032 47.1378C56.5868 47.2561 56.6577 47.2922 56.7869 47.3139C57.175 47.3785 57.3963 47.6016 57.3794 47.9364C57.3669 48.174 57.6007 48.3573 57.5299 48.595C57.6509 48.6776 57.6672 48.7856 57.6509 48.9116C57.6258 49.1487 57.6629 49.4008 57.5838 49.6239C57.5048 49.8471 57.755 49.9587 57.7343 50.1493C57.7174 50.311 57.7005 50.484 57.755 50.6348C57.7882 50.7247 57.8466 50.7573 57.7425 50.8471C57.6214 50.9515 57.6296 51.0956 57.7217 51.2325C57.7594 51.2898 57.8051 51.3544 57.809 51.4159C57.8302 51.6891 57.6672 51.9768 57.9218 52.2253L57.8924 52.6572L57.8466 53.3013C58.0597 53.4738 57.9801 53.6898 57.9719 53.8948C58.2183 54.118 58.0973 54.384 58.0848 54.6325C58.0597 55.1831 58.0384 55.7338 57.9638 56.2803C57.9218 56.5933 58.1011 56.957 57.7506 57.223C57.7506 57.223 57.8428 57.3237 57.8885 57.378C57.5424 57.5185 57.9763 57.6657 57.8804 57.8418C57.7926 58.0004 57.8384 58.2163 57.8259 58.4105L57.7926 58.9106C57.7801 59.1012 57.8008 59.2995 57.7425 59.4829C57.6798 59.6916 57.9594 59.7959 57.8924 60.0083C57.834 60.188 57.8553 60.3895 57.8428 60.5801L57.755 61.7966C57.7425 61.9872 57.7299 62.1778 57.713 62.3684C57.7048 62.4619 57.7299 62.5414 57.7839 62.6313C57.8924 62.8219 57.9136 63.0342 57.713 63.2031C57.6547 63.2538 57.6422 63.261 57.7048 63.3075C57.8215 63.3943 57.8509 63.4878 57.7343 63.6061C57.6171 63.7249 57.5337 63.8654 57.4377 63.995C57.5337 64.2326 57.1919 64.3473 57.229 64.5741C57.2459 64.6857 57.1581 64.7074 57.0371 64.7399C56.6534 64.8442 56.6577 64.8587 56.3448 64.8406L56.3236 64.8442Z" fill="#D9315A"/>
<path d="M90.8664 45.1407C91.0294 45.1515 91.1924 45.1515 91.3505 45.1727C91.5216 45.1944 91.7261 45.1335 91.8514 45.3024C91.8683 45.3241 91.9348 45.3241 91.9768 45.3277C92.2063 45.3422 92.4396 45.3566 92.6691 45.3706C92.8321 45.5545 93.0779 45.5038 93.2949 45.5291C93.3368 45.5328 93.3995 45.5472 93.412 45.5725C93.4993 45.7378 93.6998 45.6371 93.8334 45.7161C94.167 45.914 94.5257 46.087 94.8805 46.2596C95.0473 46.3422 95.2267 46.4212 95.3477 46.5726C95.4605 46.7131 95.569 46.8748 95.7985 46.9001C95.8279 47.0334 95.8988 47.116 96.0612 47.1733C96.1784 47.2131 96.1909 47.364 96.2493 47.4616C96.3577 47.6305 96.5289 47.7782 96.6957 47.9146C96.8958 48.0804 97.0168 48.2855 97.0964 48.5014C97.1334 48.6058 97.1923 48.6848 97.2713 48.7385C97.3842 48.8108 97.3258 48.9224 97.3923 49.0014C97.5341 49.1667 97.5341 49.3935 97.6971 49.5557C97.6425 49.7535 97.8595 49.9116 97.8137 50.1058C97.7848 50.2319 97.9641 50.2861 97.9429 50.4261C97.9304 50.4948 98.0933 50.5666 98.0514 50.6818C98.277 50.7717 98.1059 50.9731 98.21 51.1028C98.2934 51.2071 98.4019 51.3404 98.3937 51.4515C98.3768 51.7361 98.5692 51.9556 98.6777 52.1891C98.8777 52.6173 99.0614 53.0564 99.3116 53.4665C99.3869 53.5926 99.2615 53.7331 99.4157 53.8519C99.5035 53.9165 99.4872 54.0606 99.5787 54.1541C99.612 54.1861 99.5493 54.2801 99.5787 54.3266C99.6414 54.4273 99.7662 54.51 99.8 54.6143C99.8415 54.7404 99.7706 54.9098 99.8415 55.0105C99.9123 55.1112 99.8791 55.244 100 55.3199C100.03 55.3375 100.055 55.3954 100.042 55.4207C99.9668 55.5751 100.146 55.665 100.154 55.7983C100.163 55.9315 100.096 56.0576 100.217 56.1939C100.284 56.2699 100.238 56.4207 100.234 56.5359C100.23 56.6764 100.209 56.8164 100.205 56.9533C100.205 57.007 100.221 57.0685 100.255 57.1114C100.297 57.1656 100.326 57.2018 100.246 57.241C100.151 57.2916 100.171 57.3779 100.163 57.4533C100.154 57.554 100.163 57.6584 100.134 57.7519C100.113 57.8206 100.017 57.8671 99.9919 57.9358C99.9587 58.0257 99.9919 58.1264 99.8834 58.2018C99.8207 58.2416 99.8208 58.3568 99.7624 58.3888C99.6452 58.4503 99.6997 58.6264 99.5994 58.6228C99.3492 58.6156 99.37 58.7524 99.3536 58.8893C99.3367 59.0185 99.3825 59.159 99.2201 59.2706C99.1574 59.3139 99.1906 59.4576 99.1617 59.551C99.1154 59.6879 99.2157 59.7959 99.2451 59.9147C99.0614 60.001 99.1029 60.1626 99.1154 60.2887C99.1323 60.4509 98.9655 60.5227 98.9404 60.6523C98.9154 60.7887 98.9197 60.9328 98.8985 61.0697C98.8946 61.0981 98.8194 61.1162 98.8025 61.1488C98.7442 61.2495 98.669 61.3394 98.6063 61.4365C98.548 61.53 98.5817 61.6488 98.4689 61.7531C98.3937 61.8218 98.4106 61.9763 98.4106 62.0915C98.4106 62.1994 98.3768 62.2893 98.2645 62.3363C98.0852 62.4117 98.1102 62.606 97.9472 62.6995C97.8055 62.7821 97.6551 62.8725 97.6093 63.0486C97.5886 63.1277 97.4425 63.1783 97.3591 63.2501C97.2463 63.3472 97.0626 63.3147 96.9541 63.4335C96.8543 63.5414 96.729 63.6458 96.5872 63.7072C96.3741 63.7971 96.1408 63.8472 95.9402 63.9588C95.7734 63.9159 95.6856 64.1282 95.5025 64.0559C95.4022 64.0167 95.3395 64.0957 95.2686 64.1422C95.1978 64.1892 95.1269 64.2465 95.0435 64.261C94.9389 64.2791 94.8386 64.261 94.7219 64.3188C94.5595 64.4015 94.3256 64.4087 94.1964 64.5167C94.0127 64.6711 93.7124 64.6603 93.5788 64.855C93.4704 65.0095 93.2698 65.0095 93.1155 65.071C92.9443 65.1391 92.7486 65.1856 92.5857 65.2688C92.427 65.3514 92.2063 65.2254 92.0935 65.4015C91.9555 65.3979 91.7806 65.3442 91.6884 65.4015C91.4715 65.5348 91.2545 65.4666 91.0338 65.4775C90.8168 65.4847 90.5748 65.3623 90.3867 65.5565C90.1573 65.5421 89.924 65.5312 89.6945 65.5167C89.5773 65.6789 89.4982 65.5421 89.3898 65.5023C89.2976 65.4739 89.1684 65.4449 89.0681 65.5348C89.0474 65.5565 88.9766 65.571 88.9722 65.5638C88.8681 65.4052 88.6888 65.4594 88.5345 65.4449C88.305 65.4232 88.063 65.4449 87.8461 65.3912C87.658 65.3442 87.4956 65.229 87.2868 65.2471C87.1701 65.2579 87.1532 65.1319 87.0742 65.1211C86.9777 65.1066 86.9112 65.0782 86.8447 65.0167C86.8071 64.9842 86.6942 64.963 86.6692 64.9842C86.5231 65.1102 86.3983 65.1174 86.2811 64.963C85.918 64.8406 85.6133 64.6283 85.2715 64.4697C85.192 64.434 85.1255 64.3943 85.0295 64.387C84.9668 64.3798 84.8834 64.3617 84.854 64.3225C84.7499 64.1856 84.5869 64.1246 84.437 64.0451C84.3078 63.9769 84.1699 63.9299 84.0614 63.8152C83.9235 63.6675 83.8194 63.4732 83.5648 63.4407C83.5147 63.1277 83.131 62.998 83.0268 62.7211C82.9723 62.577 82.9096 62.4763 82.7303 62.4479C82.6594 62.437 82.6551 62.372 82.6262 62.3218C82.5553 62.1886 82.551 62.0197 82.4136 61.9153C82.1296 61.7066 82.092 61.3791 81.8919 61.1307C81.9585 60.9974 81.7709 60.9401 81.7709 60.814C81.7709 60.7097 81.6957 60.6053 81.6412 60.5046C81.5747 60.3858 81.4368 60.2742 81.4412 60.159C81.4412 60.0227 81.2869 59.9648 81.3032 59.8424C81.3158 59.7205 81.1239 59.659 81.1822 59.5257C81.095 59.4575 81.0487 59.3785 81.0656 59.2669C81.0906 59.1084 81.0825 58.9467 81.1114 58.7886C81.1408 58.6409 81.0612 58.5329 81.0072 58.4069C80.9615 58.3025 81.053 58.1409 80.9903 58.0649C80.8944 57.9502 80.9069 57.849 80.9157 57.7343C80.9238 57.6155 80.9446 57.4931 80.9402 57.3743C80.932 57.2229 81.0323 57.0649 80.8988 56.9171C80.7821 56.7916 80.9402 56.6149 80.8612 56.5251C80.7232 56.3742 80.757 56.2337 80.7696 56.0788C80.7778 55.9569 80.6022 55.9026 80.6486 55.7585C80.6818 55.6541 80.7151 55.5286 80.5777 55.4279C80.5401 55.4026 80.5526 55.3199 80.5564 55.2621C80.5733 55.0209 80.6148 54.7838 80.6066 54.5461C80.5984 54.3591 80.4567 54.1933 80.5107 53.9883C80.5564 53.8157 80.5401 53.6287 80.5652 53.4521C80.5777 53.3586 80.5063 53.3121 80.4567 53.247C80.4354 53.2186 80.4273 53.1571 80.448 53.1354C80.5357 53.0492 80.6442 52.9701 80.4649 52.873C80.7609 52.7651 80.4981 52.4412 80.7527 52.3115C80.7652 52.3043 80.6775 52.1891 80.6987 52.1462C80.7276 52.0884 80.8486 52.0563 80.732 51.9737C80.7151 51.9628 80.6944 51.9448 80.69 51.9267C80.69 51.9158 80.7107 51.8978 80.7276 51.8869C80.7985 51.8332 80.8737 51.7862 80.9364 51.7288C81.0198 51.6462 80.8154 51.592 80.8737 51.563C81.0574 51.4768 80.9615 51.3078 81.0449 51.1999C81.1326 51.0919 81.2242 50.9876 81.3158 50.8832C81.2536 50.7211 81.554 50.6926 81.4913 50.5232C81.4368 50.3832 81.6161 50.3326 81.6663 50.2283C81.7622 50.0232 81.9208 49.8434 82.0587 49.6564C82.1422 49.5448 82.1754 49.4043 82.3297 49.3398C82.4218 49.3 82.4507 49.2246 82.4381 49.1419C82.4174 49.0195 82.5221 48.9617 82.6137 48.9079C82.6845 48.8682 82.8306 48.8718 82.8431 48.832C82.8846 48.7173 82.9811 48.6414 83.0432 48.5443C83.1141 48.4291 83.1479 48.2783 83.2563 48.2059C83.4814 48.0623 83.5441 47.8139 83.7818 47.6806C83.9529 47.5835 84.099 47.4471 84.2577 47.3319C84.2577 47.1088 84.5035 47.0654 84.637 46.9399C84.7292 46.8531 84.7041 46.7022 84.854 46.6589C85.2383 46.5509 85.4716 46.2704 85.7845 46.0798C85.9017 46.0075 86.0603 45.9682 86.2058 45.9465C86.3394 45.9284 86.4942 45.9791 86.4855 45.7848C86.4855 45.7668 86.6027 45.7198 86.6523 45.7306C86.8529 45.774 86.9657 45.5937 87.1489 45.6046C87.1614 45.6046 87.1783 45.54 87.1952 45.5075C87.2159 45.4754 87.2366 45.4176 87.2617 45.4176C87.3996 45.414 87.537 45.4284 87.6749 45.4284C87.7414 45.4284 87.8373 45.4357 87.8624 45.4031C88.063 45.1552 88.3508 45.2342 88.6179 45.245C88.8261 45.2559 89.0305 45.2667 89.2393 45.2771C89.3772 45.1118 89.6024 45.2487 89.7441 45.1836C90.0324 45.0508 90.3159 45.1226 90.6037 45.1262C90.6958 45.1262 90.7874 45.1371 90.879 45.1407H90.8664ZM90.8664 48.9834C90.8294 48.9834 90.6538 48.9508 90.5704 49.0087C90.4325 49.1022 90.2826 49.0195 90.1867 49.0732C90.0613 49.1419 89.9572 49.1776 89.8111 49.1667C89.7566 49.1631 89.6945 49.2101 89.64 49.2427C89.5484 49.2928 89.4688 49.3506 89.3565 49.3863C89.1352 49.4617 88.8975 49.5268 88.7302 49.6957C88.6555 49.7716 88.5634 49.8073 88.4342 49.8145C88.359 49.8181 88.238 49.908 88.2336 49.9622C88.2216 50.1311 88.063 50.1854 87.9502 50.2753C87.7457 50.4369 87.5332 50.5919 87.3244 50.75C87.3369 50.9442 87.0573 50.9731 87.024 51.1136C86.9864 51.2789 86.782 51.3079 86.74 51.4267C86.6817 51.5956 86.5024 51.657 86.4146 51.7862C86.3607 51.8694 86.377 51.9701 86.2102 51.9556C86.1394 51.9484 86.0848 51.9985 86.0974 52.0708C86.1225 52.2072 86.039 52.2934 85.9224 52.3694C85.8679 52.4014 85.7888 52.4556 85.7932 52.4954C85.8057 52.6463 85.676 52.7397 85.6259 52.8586C85.5594 53.0238 85.3926 53.0962 85.259 53.1969C85.096 53.3193 84.9668 53.4417 84.9919 53.6432C84.9963 53.6897 84.9499 53.7475 84.921 53.794C84.775 54.0208 84.5956 54.2295 84.4703 54.4671C84.4452 54.5172 84.3787 54.557 84.3661 54.6071C84.3411 54.7042 84.3242 54.8085 84.3411 54.9062C84.3743 55.0534 84.1617 55.0823 84.1743 55.2084C84.195 55.4346 84.0533 55.6077 83.9235 55.7802C83.7774 55.9708 83.6232 56.1619 83.6608 56.4099C83.6777 56.5214 83.5817 56.5793 83.5191 56.6619C83.4689 56.7301 83.4357 56.8526 83.5191 56.9388C83.5856 57.0039 83.6232 57.0649 83.5981 57.1511L83.7611 57.5721C83.8696 57.6765 83.9737 57.7844 84.0822 57.8888C84.1743 57.9786 84.3329 58.0649 84.3411 58.162C84.3536 58.3278 84.4828 58.3996 84.5787 58.504C84.679 58.6156 84.8082 58.7054 84.8916 58.8243C84.9837 58.9503 85.1544 58.9611 85.2628 59.0582C85.2214 59.2272 85.3964 59.2959 85.4841 59.4038C85.5092 59.4359 85.5468 59.4901 85.5763 59.4901C85.7763 59.4901 85.8139 59.6662 85.9475 59.7205C86.0936 59.7814 86.2309 59.8424 86.3061 59.9612C86.4021 60.1089 86.5814 60.1523 86.7237 60.2386C86.8403 60.3104 87.0071 60.3321 86.9946 60.5046C86.9946 60.5154 87.0655 60.5444 87.1074 60.5444C87.2241 60.5516 87.3244 60.5625 87.4078 60.6523C87.4705 60.7205 87.6122 60.7024 87.6831 60.7959C87.7414 60.8755 87.8041 60.9726 87.9458 60.9581C88.0505 61.0878 88.2799 61.0733 88.3672 61.2242C88.5678 61.1813 88.7013 61.3037 88.8556 61.3755C88.9515 61.4184 89.0431 61.4654 89.1352 61.5124C89.5647 61.7211 89.7027 61.7175 90.1033 61.5016C90.1534 61.4726 90.2407 61.4871 90.2864 61.4582C90.4494 61.3611 90.6413 61.3249 90.8168 61.2531C90.9918 61.1813 91.1673 61.109 91.3467 61.0444C91.484 60.9938 91.6426 60.9798 91.768 60.9147C91.9054 60.8429 92.0013 60.7024 92.1436 60.6523C92.2935 60.6017 92.3813 60.5444 92.4521 60.4183C92.5104 60.3176 92.6402 60.2494 92.8026 60.2851C92.9029 60.3068 92.9612 60.2742 92.9907 60.1699C93.007 60.1053 93.0823 60.0154 93.1531 60.001C93.4077 59.9431 93.5745 59.785 93.7625 59.6482C94.2171 59.3067 94.6718 58.9684 95.1269 58.6228C95.2937 58.4968 95.4938 58.3924 95.5564 58.1873C95.7565 58.1083 95.7778 57.9032 95.932 57.7917C96.107 57.6656 96.1909 57.4931 96.2825 57.3237C96.3032 57.288 96.3866 57.2772 96.445 57.2555C96.4826 57.241 96.5578 57.2193 96.5578 57.209C96.5289 57.0396 96.7164 56.9244 96.7246 56.788C96.7333 56.6149 96.9503 56.5323 96.9127 56.367C96.8794 56.2265 97.0876 56.1976 97.0795 56.0643C97.0751 55.946 97.1045 55.8272 97.1002 55.7048C97.1002 55.6149 96.892 55.5214 97.1127 55.4382C97.0337 55.3447 96.971 55.2512 97.0086 55.1252C97.0462 55.0033 97.0211 54.8917 96.8958 54.8086C96.8832 54.5787 96.729 54.3876 96.633 54.1825C96.5327 53.9738 96.4242 53.776 96.3992 53.5492C96.27 53.4593 96.3327 53.2868 96.1822 53.2005C96.0863 53.1427 96.0323 53.0564 96.0656 52.9448C96.0737 52.9092 96.0781 52.8622 96.0612 52.8296C95.9947 52.7108 95.9489 52.5564 95.8404 52.4918C95.6355 52.373 95.7609 52.1963 95.6818 52.0636C95.6731 52.0455 95.6567 52.031 95.6355 52.0202C95.4938 51.9375 95.4774 51.7934 95.4185 51.6746C95.352 51.5382 95.2812 51.405 95.231 51.2608C95.1809 51.1136 94.9514 51.0594 94.9721 50.8652C94.9765 50.8078 94.8762 50.7035 94.8097 50.689C94.6091 50.6492 94.5131 50.5196 94.4008 50.4013C94.2297 50.2174 94.0171 50.095 93.7707 49.9979C93.5952 49.9261 93.4496 49.8109 93.2741 49.7355C93.1989 49.7029 93.0866 49.7355 93.0032 49.7101C92.9029 49.6812 92.8152 49.5877 92.7236 49.5841C92.4772 49.5733 92.3562 49.4761 92.3229 49.2747C92.3148 49.2137 92.2521 49.1812 92.1768 49.1848C92.0515 49.1884 91.9517 49.3827 91.8264 49.2602C91.7135 49.1523 91.5969 49.1523 91.459 49.1419C91.3423 48.9834 91.1504 49.0087 90.8751 48.9834H90.8664Z" fill="#D9315A"/>
<path d="M69.4246 62.2066C69.4415 62.0124 69.4497 61.8182 69.4747 61.6276C69.5042 61.4044 69.4333 61.156 69.6753 60.9798C69.6879 60.8073 69.713 60.6379 69.713 60.4653C69.713 60.3031 69.8045 60.1378 69.6295 59.9798C69.5707 59.9255 69.6208 59.7778 69.6295 59.6698C69.6459 59.4327 69.6628 59.1987 69.6879 58.9611C69.696 58.8749 69.6666 58.8067 69.6252 58.7271C69.5331 58.5546 69.5124 58.364 69.696 58.2126C69.75 58.1698 69.7626 58.1589 69.7004 58.1191C69.6083 58.0618 69.6126 57.9792 69.6208 57.8924C69.6541 57.5075 69.7004 57.1191 69.7086 56.7343C69.7129 56.4713 69.8797 56.1872 69.6295 55.9424C69.6879 55.7445 69.5543 55.5105 69.792 55.3416C69.8089 55.3308 69.696 55.2156 69.696 55.1474C69.696 54.9315 69.738 54.7192 69.738 54.5033C69.738 54.3018 69.8754 54.0786 69.6503 53.9025C69.6628 53.7114 69.6879 53.5171 69.6835 53.3265C69.6835 53.1576 69.8045 52.9701 69.6753 52.8301C69.5042 52.6431 69.6377 52.4592 69.6252 52.2759C69.617 52.1069 69.6415 51.9303 69.6628 51.7614C69.6753 51.6787 69.5919 51.6534 69.5707 51.5992C69.5205 51.4881 69.4666 51.3765 69.4121 51.2686C69.3663 51.1818 69.4333 51.0563 69.4246 50.9519C69.4082 50.768 69.5581 50.5702 69.3499 50.4085C69.3537 50.2391 69.3957 50.0629 69.3499 49.9049C69.3123 49.7535 69.1951 49.613 69.0992 49.4766C69.0659 49.4333 68.9825 49.3971 68.9198 49.394C68.7574 49.3831 68.5781 49.3217 68.4358 49.4694C68.4107 49.4947 68.2984 49.473 68.2401 49.4513C67.8978 49.3144 67.8978 49.3144 67.5805 49.394C67.5347 49.4043 67.4971 49.4296 67.4513 49.4333C67.2382 49.4586 67.03 49.3506 66.8087 49.4766C66.6168 49.5846 66.3791 49.4875 66.1578 49.4839C65.9327 49.4803 65.7114 49.4586 65.4863 49.4477C65.3402 49.4405 65.3527 49.3542 65.3565 49.268C65.3565 49.2499 65.3402 49.221 65.3276 49.2173C65.2606 49.1993 65.1815 49.1672 65.1314 49.1853C65.0104 49.2318 65.1189 49.286 65.1565 49.3144C65.2104 49.3578 65.2192 49.4043 65.1439 49.4043C64.8474 49.4043 64.5514 49.3868 64.2554 49.3723C64.1551 49.3687 64.0592 49.3506 63.984 49.4296C63.9049 49.5123 63.8755 49.4296 63.8253 49.3971C63.7005 49.3108 63.5457 49.2897 63.4247 49.3723C63.3162 49.4477 63.2911 49.4043 63.2039 49.3506C63.0535 49.2607 62.8284 49.3181 62.6948 49.1564C62.6616 49.1166 62.5068 49.1455 62.4152 49.1564C62.3732 49.1636 62.34 49.2318 62.3023 49.2318C62.1312 49.2354 61.9562 49.2426 61.7894 49.221C61.6264 49.1993 61.5599 49.347 61.3931 49.3398C61.0802 49.3217 60.8295 49.2643 60.6376 49.0267C60.5417 48.9043 60.4708 48.7819 60.4038 48.6527C60.3416 48.5412 60.2081 48.458 60.1203 48.3573C60.0244 48.2457 59.9159 48.1775 59.7491 48.1956C59.5905 48.2137 59.4695 48.163 59.3735 48.0406C59.2732 47.9187 59.1397 47.818 59.0356 47.6956C58.9396 47.5804 58.781 47.5117 58.7516 47.3355C58.7309 47.2023 58.6306 47.084 58.6306 46.929C58.6306 46.8246 58.4845 46.7275 58.5183 46.587C58.5515 46.4398 58.3722 46.382 58.297 46.2776C58.2844 46.2595 58.255 46.242 58.2593 46.2311C58.2637 46.2131 58.297 46.2058 58.3095 46.1877C58.3471 46.1376 58.3929 46.087 58.4136 46.0333C58.4556 45.9145 58.3722 45.7667 58.5139 45.6769C58.6349 45.5978 58.5848 45.4826 58.6224 45.3891C58.6851 45.2269 58.9396 45.3204 59.023 45.1805C59.2231 45.1913 59.4237 45.1985 59.6194 45.2197C59.7322 45.2306 59.7993 45.1913 59.8827 45.1371C59.9699 45.0761 60.062 45.1045 60.1329 45.1805C60.2413 45.2956 60.3918 45.2776 60.5335 45.2486C60.6 45.2342 60.6502 45.1696 60.7172 45.1588C60.9963 45.1154 61.3054 45.3096 61.5637 45.0833C61.8352 45.0973 62.1148 45.087 62.3819 45.1334C62.5776 45.166 62.6905 45.0291 62.8534 45.0255C63.0284 45.0255 63.2039 45.0436 63.3745 45.0544C63.604 44.8349 63.888 44.9681 64.1426 44.979C64.347 44.9898 64.4598 44.7879 64.6931 44.8638C64.8725 44.9211 65.0856 44.8958 65.2857 44.9067C65.6029 44.7161 65.9452 44.8349 66.2788 44.8421C66.3955 44.8421 66.4582 44.7951 66.5334 44.7378C66.5999 44.6871 66.5961 44.7088 66.8506 44.7341C67.0338 44.7522 67.2426 44.8385 67.4094 44.6835C67.4263 44.6696 67.447 44.6515 67.4677 44.6515C67.6557 44.637 67.8602 44.7486 68.027 44.5828C68.1981 44.5828 68.3693 44.5828 68.5361 44.5828C68.6822 44.5828 68.8157 44.6117 68.9493 44.5074C69.0158 44.4573 69.1826 44.5038 69.3036 44.4965C69.5374 44.4821 69.7794 44.5973 70.0133 44.432C70.0842 44.3813 70.251 44.432 70.372 44.432C70.5682 44.432 70.7644 44.432 70.9563 44.4356C71.1188 44.2734 71.3275 44.3813 71.515 44.3705C71.6906 44.1835 71.9239 44.2915 72.137 44.277C72.4417 44.2558 72.771 44.4392 73.0549 44.2052C73.3302 44.2233 73.6017 44.2522 73.877 44.2486C74.0852 44.2486 74.319 44.3705 74.5109 44.1907C74.7322 44.1907 74.9492 44.1907 75.1705 44.2016C75.3956 44.2088 75.6169 44.2269 75.842 44.2414C76.1298 44.0611 76.4514 44.1727 76.76 44.1654C76.9851 44.1618 77.1148 44.3958 77.3607 44.3385C77.3819 44.3349 77.4528 44.3994 77.4484 44.4175C77.4065 44.5435 77.582 44.6045 77.5738 44.6944C77.5525 44.9898 77.878 44.9898 78.0453 45.1081C78.1576 45.1841 78.3664 45.1515 78.5332 45.166C78.6624 45.011 78.8548 45.0472 79.009 45.0906C79.1551 45.1298 79.2216 44.8855 79.3677 45.0472C79.4762 45.166 79.643 45.1045 79.7847 45.1226C79.9308 45.1443 80.0856 45.1334 80.2317 45.1551C80.2938 45.1624 80.3816 45.2021 80.4023 45.2486C80.4857 45.432 80.7365 45.4108 80.8575 45.5436C80.9076 45.6014 81.0908 45.6226 81.087 45.6516C81.0744 45.7776 81.1535 45.8494 81.233 45.9289C81.1033 46.148 81.4124 46.3102 81.3415 46.5297C81.3246 46.5834 81.4331 46.663 81.4331 46.7312C81.4331 46.7776 81.3165 46.821 81.3121 46.8717C81.2914 47.0189 81.087 47.084 81.1158 47.2601C81.1409 47.4006 80.8782 47.476 80.9447 47.6486L80.6487 48.0551C80.5697 48.131 80.4399 48.1667 80.4361 48.2999C80.4361 48.3645 80.3734 48.4007 80.2813 48.3934C80.0813 48.3753 79.8768 48.3934 79.685 48.35C79.4511 48.2999 79.2969 48.505 79.0592 48.4544C78.8673 48.4151 78.6624 48.4151 78.4623 48.4187C78.3833 48.4187 78.3037 48.5014 78.2246 48.505C78.1745 48.505 78.12 48.4296 78.0617 48.3934C78.0453 48.3826 78.0033 48.379 77.9908 48.3898C77.782 48.5587 77.5193 48.5231 77.298 48.4652C77.0647 48.4043 76.9475 48.6202 76.7474 48.5732C76.5349 48.5231 76.4514 48.692 76.3135 48.771C76.2716 48.7963 76.2345 48.8253 76.2007 48.8542C76.0759 48.9622 75.9085 48.9405 75.8001 48.8754C75.6959 48.8144 75.6169 48.7535 75.4834 48.7535C75.237 48.7535 74.9911 48.7426 74.7447 48.7354C74.6112 48.8935 74.4275 48.8 74.2651 48.8108C74.1021 48.8253 73.9309 48.7282 73.7685 48.8542C73.6224 48.9694 73.4305 48.8433 73.2719 48.8862C73.1634 48.9151 73.0926 49.0267 72.9465 49.0014C72.9296 49.0014 72.8838 49.1021 72.8631 49.1564C72.796 49.3289 73.0424 49.4405 72.9797 49.6275C72.9339 49.768 72.9503 49.926 72.9383 50.0774L72.8963 50.5919L72.8587 51.0418C72.8505 51.1498 72.8712 51.2686 72.8255 51.3621C72.7295 51.5708 72.9628 51.7107 72.9383 51.8983C72.917 52.0708 72.9089 52.2397 72.8963 52.4128C73.1923 52.5672 72.8587 52.8766 73.1089 53.0424C73.1258 53.0533 73.1427 53.0781 73.1427 53.0962C73.134 53.2258 73.1051 53.3555 73.1176 53.4815C73.1302 53.5962 73.2174 53.7078 73.2299 53.8229C73.2425 53.9707 73.2136 54.1215 73.201 54.2729C73.1885 54.3989 73.1885 54.5069 73.2926 54.6293C73.3635 54.7119 73.3553 54.8736 73.2092 54.9671C73.0882 55.0467 73.1509 55.165 73.1214 55.2626C73.3177 55.417 73.2801 55.6257 73.2174 55.7946C73.1384 56.0106 73.376 56.1402 73.3428 56.3344C73.3095 56.525 73.3095 56.7198 73.2926 56.914L73.2468 57.4931C73.2299 57.6873 73.1967 57.882 73.2048 58.0726C73.2092 58.209 73.3678 58.3134 73.322 58.4792C73.2763 58.6445 73.2882 58.8211 73.2763 58.9937C73.2637 59.145 73.2512 59.2922 73.2425 59.4436C73.2343 59.5655 73.1841 59.6951 73.3302 59.7995C73.3678 59.8284 73.3509 59.9183 73.3471 59.9798C73.3346 60.1952 73.3302 60.4111 73.2926 60.6234C73.2637 60.782 73.3635 60.8972 73.4093 61.0335C73.4469 61.1487 73.3722 61.3037 73.4305 61.4044C73.4888 61.5052 73.5265 61.5878 73.5139 61.6958C73.4932 61.89 73.4845 62.0806 73.4638 62.2753C73.4556 62.3616 73.4556 62.4406 73.539 62.5052C73.6513 62.5956 73.5973 62.7211 73.5641 62.8079C73.3596 63.3472 73.3509 63.3436 73.4512 63.808C73.4556 63.8333 73.4343 63.8689 73.4136 63.8978C73.4011 63.9159 73.3635 63.9268 73.3596 63.9412C73.3346 64.0673 73.3259 64.1928 73.297 64.3152C73.2763 64.4159 73.1051 64.4449 73.1258 64.5745C73.1759 64.8839 73.0092 65.0926 72.7252 65.2724C72.5377 65.3912 72.2994 65.4956 72.258 65.7332C72.0743 65.7543 71.9326 65.9093 71.7282 65.8731C71.6611 65.8623 71.5859 65.8447 71.5363 65.805C71.4278 65.7151 71.3357 65.6144 71.2398 65.5172C71.1564 65.4346 71.0561 65.3623 71.0021 65.2724C70.952 65.1861 70.9727 65.0673 70.8604 64.9991C70.8435 64.7651 70.6641 64.6138 70.4597 64.5131C70.2384 64.4015 70.1174 64.2615 70.0046 64.0637C69.8754 63.8405 69.6459 63.6602 69.454 63.466C69.3706 63.3834 69.3205 63.3043 69.333 63.1855C69.3706 62.8652 69.3875 62.5414 69.4121 62.2211L69.4246 62.2066Z" fill="#D9315A"/>
</svg>
